%TF.GenerationSoftware,KiCad,Pcbnew,8.0.8*%
%TF.CreationDate,2025-03-27T14:33:37-07:00*%
%TF.ProjectId,pepper_stepper,70657070-6572-45f7-9374-65707065722e,rev?*%
%TF.SameCoordinates,Original*%
%TF.FileFunction,Copper,L1,Top*%
%TF.FilePolarity,Positive*%
%FSLAX46Y46*%
G04 Gerber Fmt 4.6, Leading zero omitted, Abs format (unit mm)*
G04 Created by KiCad (PCBNEW 8.0.8) date 2025-03-27 14:33:37*
%MOMM*%
%LPD*%
G01*
G04 APERTURE LIST*
G04 Aperture macros list*
%AMRoundRect*
0 Rectangle with rounded corners*
0 $1 Rounding radius*
0 $2 $3 $4 $5 $6 $7 $8 $9 X,Y pos of 4 corners*
0 Add a 4 corners polygon primitive as box body*
4,1,4,$2,$3,$4,$5,$6,$7,$8,$9,$2,$3,0*
0 Add four circle primitives for the rounded corners*
1,1,$1+$1,$2,$3*
1,1,$1+$1,$4,$5*
1,1,$1+$1,$6,$7*
1,1,$1+$1,$8,$9*
0 Add four rect primitives between the rounded corners*
20,1,$1+$1,$2,$3,$4,$5,0*
20,1,$1+$1,$4,$5,$6,$7,0*
20,1,$1+$1,$6,$7,$8,$9,0*
20,1,$1+$1,$8,$9,$2,$3,0*%
G04 Aperture macros list end*
%TA.AperFunction,SMDPad,CuDef*%
%ADD10R,0.660000X0.280000*%
%TD*%
%TA.AperFunction,SMDPad,CuDef*%
%ADD11R,1.500000X2.500000*%
%TD*%
%TA.AperFunction,SMDPad,CuDef*%
%ADD12RoundRect,0.200000X0.275000X-0.200000X0.275000X0.200000X-0.275000X0.200000X-0.275000X-0.200000X0*%
%TD*%
%TA.AperFunction,SMDPad,CuDef*%
%ADD13RoundRect,0.250000X-1.100000X0.325000X-1.100000X-0.325000X1.100000X-0.325000X1.100000X0.325000X0*%
%TD*%
%TA.AperFunction,SMDPad,CuDef*%
%ADD14RoundRect,0.140000X-0.140000X-0.170000X0.140000X-0.170000X0.140000X0.170000X-0.140000X0.170000X0*%
%TD*%
%TA.AperFunction,SMDPad,CuDef*%
%ADD15RoundRect,0.135000X0.135000X0.185000X-0.135000X0.185000X-0.135000X-0.185000X0.135000X-0.185000X0*%
%TD*%
%TA.AperFunction,SMDPad,CuDef*%
%ADD16RoundRect,0.250000X0.250000X0.475000X-0.250000X0.475000X-0.250000X-0.475000X0.250000X-0.475000X0*%
%TD*%
%TA.AperFunction,SMDPad,CuDef*%
%ADD17RoundRect,0.250000X-0.250000X-0.475000X0.250000X-0.475000X0.250000X0.475000X-0.250000X0.475000X0*%
%TD*%
%TA.AperFunction,SMDPad,CuDef*%
%ADD18R,1.070000X0.530000*%
%TD*%
%TA.AperFunction,ComponentPad*%
%ADD19R,1.400000X1.400000*%
%TD*%
%TA.AperFunction,ComponentPad*%
%ADD20C,1.400000*%
%TD*%
%TA.AperFunction,SMDPad,CuDef*%
%ADD21R,0.800000X0.400000*%
%TD*%
%TA.AperFunction,SMDPad,CuDef*%
%ADD22R,2.000000X2.600000*%
%TD*%
%TA.AperFunction,SMDPad,CuDef*%
%ADD23R,1.800000X2.000000*%
%TD*%
%TA.AperFunction,SMDPad,CuDef*%
%ADD24RoundRect,0.225000X0.250000X-0.225000X0.250000X0.225000X-0.250000X0.225000X-0.250000X-0.225000X0*%
%TD*%
%TA.AperFunction,ComponentPad*%
%ADD25RoundRect,0.250000X0.600000X0.725000X-0.600000X0.725000X-0.600000X-0.725000X0.600000X-0.725000X0*%
%TD*%
%TA.AperFunction,ComponentPad*%
%ADD26O,1.700000X1.950000*%
%TD*%
%TA.AperFunction,SMDPad,CuDef*%
%ADD27RoundRect,0.200000X0.200000X0.275000X-0.200000X0.275000X-0.200000X-0.275000X0.200000X-0.275000X0*%
%TD*%
%TA.AperFunction,SMDPad,CuDef*%
%ADD28RoundRect,0.140000X0.140000X0.170000X-0.140000X0.170000X-0.140000X-0.170000X0.140000X-0.170000X0*%
%TD*%
%TA.AperFunction,SMDPad,CuDef*%
%ADD29RoundRect,0.200000X-0.275000X0.200000X-0.275000X-0.200000X0.275000X-0.200000X0.275000X0.200000X0*%
%TD*%
%TA.AperFunction,SMDPad,CuDef*%
%ADD30RoundRect,0.135000X-0.135000X-0.185000X0.135000X-0.185000X0.135000X0.185000X-0.135000X0.185000X0*%
%TD*%
%TA.AperFunction,SMDPad,CuDef*%
%ADD31RoundRect,0.250000X-0.475000X0.250000X-0.475000X-0.250000X0.475000X-0.250000X0.475000X0.250000X0*%
%TD*%
%TA.AperFunction,ComponentPad*%
%ADD32O,1.100000X1.700000*%
%TD*%
%TA.AperFunction,SMDPad,CuDef*%
%ADD33R,0.700000X1.200000*%
%TD*%
%TA.AperFunction,SMDPad,CuDef*%
%ADD34R,0.800000X1.200000*%
%TD*%
%TA.AperFunction,ViaPad*%
%ADD35C,0.600000*%
%TD*%
%TA.AperFunction,ViaPad*%
%ADD36C,0.400000*%
%TD*%
%TA.AperFunction,Conductor*%
%ADD37C,0.200000*%
%TD*%
%TA.AperFunction,Conductor*%
%ADD38C,0.400000*%
%TD*%
%TA.AperFunction,Conductor*%
%ADD39C,0.500000*%
%TD*%
G04 APERTURE END LIST*
D10*
%TO.P,U1,1,VIN*%
%TO.N,Net-(U1-VIN)*%
X110833200Y-48004218D03*
%TO.P,U1,2,D+*%
%TO.N,unconnected-(U1-D+-Pad2)*%
X110833200Y-47504218D03*
%TO.P,U1,3,D-*%
%TO.N,unconnected-(U1-D--Pad3)*%
X110833200Y-47004218D03*
%TO.P,U1,4,CC1*%
%TO.N,/CC1*%
X110833200Y-46504218D03*
%TO.P,U1,5,CC2*%
%TO.N,/CC2*%
X110833200Y-46004218D03*
%TO.P,U1,6,SDA*%
%TO.N,/SDA*%
X108013200Y-46004218D03*
%TO.P,U1,7,SCL*%
%TO.N,/SCL*%
X108013200Y-46504218D03*
%TO.P,U1,8,VSET*%
%TO.N,GND*%
X108013200Y-47004218D03*
%TO.P,U1,9,ISET*%
X108013200Y-47504218D03*
%TO.P,U1,10,GATE*%
%TO.N,Net-(U1-GATE)*%
X108013200Y-48004218D03*
D11*
%TO.P,U1,11,GND*%
%TO.N,GND*%
X109423200Y-47004218D03*
%TD*%
D12*
%TO.P,R3,1*%
%TO.N,Net-(Q1-G)*%
X112423600Y-51268818D03*
%TO.P,R3,2*%
%TO.N,Net-(U1-GATE)*%
X112423600Y-49618818D03*
%TD*%
D13*
%TO.P,C12,1*%
%TO.N,VM*%
X113538000Y-53643000D03*
%TO.P,C12,2*%
%TO.N,GND*%
X113538000Y-56593000D03*
%TD*%
D14*
%TO.P,C17,1*%
%TO.N,+3V3*%
X104509600Y-53232218D03*
%TO.P,C17,2*%
%TO.N,Net-(U5-FB)*%
X105469600Y-53232218D03*
%TD*%
D15*
%TO.P,R16,1*%
%TO.N,Net-(U5-FB)*%
X105499600Y-54248218D03*
%TO.P,R16,2*%
%TO.N,+3V3*%
X104479600Y-54248218D03*
%TD*%
D16*
%TO.P,C3,1*%
%TO.N,VM*%
X106022800Y-48880718D03*
%TO.P,C3,2*%
%TO.N,GND*%
X104122800Y-48880718D03*
%TD*%
D17*
%TO.P,C2,1*%
%TO.N,GND*%
X104122800Y-46848718D03*
%TO.P,C2,2*%
%TO.N,VM*%
X106022800Y-46848718D03*
%TD*%
D18*
%TO.P,U5,1,GND*%
%TO.N,GND*%
X108813600Y-55386218D03*
%TO.P,U5,2,SW*%
%TO.N,Net-(U5-SW)*%
X108813600Y-54436218D03*
%TO.P,U5,3,VIN*%
%TO.N,VM*%
X108813600Y-53486218D03*
%TO.P,U5,4,FB*%
%TO.N,Net-(U5-FB)*%
X106513600Y-53486218D03*
%TO.P,U5,5,EN*%
%TO.N,unconnected-(U5-EN-Pad5)*%
X106513600Y-54436218D03*
%TO.P,U5,6,BOOT*%
%TO.N,Net-(U5-BOOT)*%
X106513600Y-55386218D03*
%TD*%
D19*
%TO.P,H1,1,1*%
%TO.N,unconnected-(H1-Pad1)*%
X101600000Y-43180000D03*
D20*
%TO.P,H1,2,2*%
%TO.N,/INDEX*%
X101600000Y-45720000D03*
%TO.P,H1,3,3*%
%TO.N,/DIAG*%
X101600000Y-48260000D03*
%TO.P,H1,4,4*%
%TO.N,unconnected-(H1-Pad4)*%
X101600000Y-50800000D03*
%TO.P,H1,5,5*%
%TO.N,/SDA*%
X101600000Y-53340000D03*
%TO.P,H1,6,6*%
%TO.N,/SCL*%
X101600000Y-55880000D03*
%TO.P,H1,7,7*%
%TO.N,Net-(H1-Pad7)*%
X101600000Y-58420000D03*
%TD*%
D21*
%TO.P,Q1,1,S*%
%TO.N,Net-(Q1-S-Pad1)*%
X110865200Y-51591018D03*
%TO.P,Q1,2,S*%
X110865200Y-50931018D03*
%TO.P,Q1,3,S*%
X110865200Y-50281018D03*
%TO.P,Q1,4,G*%
%TO.N,Net-(Q1-G)*%
X110865200Y-49631018D03*
%TO.P,Q1,5,D*%
%TO.N,VM*%
X107665200Y-49631018D03*
%TO.P,Q1,6,D*%
X107665200Y-50281018D03*
%TO.P,Q1,7,D*%
X107665200Y-50931018D03*
%TO.P,Q1,8,D*%
X107665200Y-51591018D03*
D22*
%TO.P,Q1,9,D*%
X108915200Y-50611018D03*
%TD*%
D23*
%TO.P,L2,1,1*%
%TO.N,Net-(U5-SW)*%
X105148600Y-59074218D03*
%TO.P,L2,2,2*%
%TO.N,+3V3*%
X109148600Y-59074218D03*
%TD*%
D24*
%TO.P,C13,1*%
%TO.N,GND*%
X110998000Y-55131000D03*
%TO.P,C13,2*%
%TO.N,VM*%
X110998000Y-53581000D03*
%TD*%
D16*
%TO.P,C1,1*%
%TO.N,GND*%
X114166000Y-46250818D03*
%TO.P,C1,2*%
%TO.N,Net-(U1-VIN)*%
X112266000Y-46250818D03*
%TD*%
D25*
%TO.P,J1,1,Pin_1*%
%TO.N,/A2*%
X114140000Y-65913000D03*
D26*
%TO.P,J1,2,Pin_2*%
%TO.N,/A1*%
X111640000Y-65913000D03*
%TO.P,J1,3,Pin_3*%
%TO.N,/B1*%
X109140000Y-65913000D03*
%TO.P,J1,4,Pin_4*%
%TO.N,/B2*%
X106640000Y-65913000D03*
%TO.P,J1,5,Pin_5*%
%TO.N,unconnected-(J1-Pin_5-Pad5)*%
X104140000Y-65913000D03*
%TD*%
D27*
%TO.P,R1,1*%
%TO.N,Net-(Q1-S-Pad1)*%
X114279800Y-48118718D03*
%TO.P,R1,2*%
%TO.N,Net-(U1-VIN)*%
X112629800Y-48118718D03*
%TD*%
D16*
%TO.P,C4,1*%
%TO.N,VM*%
X106022800Y-50912718D03*
%TO.P,C4,2*%
%TO.N,GND*%
X104122800Y-50912718D03*
%TD*%
D19*
%TO.P,H2,1,1*%
%TO.N,+5V*%
X116840000Y-43180000D03*
D20*
%TO.P,H2,2,2*%
%TO.N,GND*%
X116840000Y-45720000D03*
%TO.P,H2,3,3*%
%TO.N,+3V3*%
X116840000Y-48260000D03*
%TO.P,H2,4,4*%
%TO.N,/1-WIRE*%
X116840000Y-50800000D03*
%TO.P,H2,5,5*%
%TO.N,/TACH*%
X116840000Y-53340000D03*
%TO.P,H2,6,6*%
%TO.N,/PWM*%
X116840000Y-55880000D03*
%TO.P,H2,7,7*%
%TO.N,/UART*%
X116840000Y-58420000D03*
%TD*%
D28*
%TO.P,C14,1*%
%TO.N,Net-(U5-BOOT)*%
X105469600Y-56280218D03*
%TO.P,C14,2*%
%TO.N,Net-(U5-SW)*%
X104509600Y-56280218D03*
%TD*%
D29*
%TO.P,R2,1*%
%TO.N,Net-(Q1-S-Pad1)*%
X114201600Y-49618818D03*
%TO.P,R2,2*%
%TO.N,Net-(Q1-G)*%
X114201600Y-51268818D03*
%TD*%
D30*
%TO.P,R17,1*%
%TO.N,GND*%
X104479600Y-55264218D03*
%TO.P,R17,2*%
%TO.N,Net-(U5-FB)*%
X105499600Y-55264218D03*
%TD*%
D31*
%TO.P,C15,1*%
%TO.N,GND*%
X111212600Y-58632218D03*
%TO.P,C15,2*%
%TO.N,+3V3*%
X111212600Y-60532218D03*
%TD*%
D32*
%TO.P,USB1,7,EH*%
%TO.N,GND*%
X113355200Y-43641018D03*
X113355200Y-39831018D03*
X104715200Y-43641018D03*
X104715200Y-39831018D03*
D33*
%TO.P,USB1,A5,CC1*%
%TO.N,/CC1*%
X109535200Y-43891018D03*
%TO.P,USB1,A9,VBUS*%
%TO.N,Net-(Q1-S-Pad1)*%
X107535200Y-43891018D03*
D34*
%TO.P,USB1,A12,GND*%
%TO.N,GND*%
X106335200Y-43891018D03*
D33*
%TO.P,USB1,B5,CC2*%
%TO.N,/CC2*%
X108535200Y-43891018D03*
%TO.P,USB1,B9,VBUS*%
%TO.N,Net-(Q1-S-Pad1)*%
X110535200Y-43891018D03*
D34*
%TO.P,USB1,B12,GND*%
%TO.N,GND*%
X111735200Y-43891018D03*
%TD*%
D31*
%TO.P,C16,1*%
%TO.N,GND*%
X113244600Y-58632218D03*
%TO.P,C16,2*%
%TO.N,+3V3*%
X113244600Y-60532218D03*
%TD*%
D35*
%TO.N,+3V3*%
X103886824Y-54248218D03*
X104775000Y-41644818D03*
X115824000Y-61722000D03*
X114104069Y-57737093D03*
X115824000Y-60532218D03*
%TO.N,VM*%
X112161695Y-61366995D03*
X109247000Y-53486218D03*
X116272238Y-65024000D03*
X102603000Y-65024000D03*
X115062000Y-54356000D03*
X106022800Y-49899818D03*
X106022800Y-47867818D03*
X105410000Y-51677818D03*
X106781600Y-49631018D03*
X112014000Y-53656682D03*
X106541000Y-61117018D03*
X106781600Y-50281018D03*
%TO.N,/SCL*%
X107086400Y-46686621D03*
%TO.N,/INDEX*%
X107022800Y-48809235D03*
D36*
%TO.N,/DIAG*%
X108458000Y-52821216D03*
D35*
%TO.N,/SDA*%
X107086400Y-45886618D03*
%TO.N,/1-WIRE*%
X114645422Y-42072578D03*
%TO.N,/UART*%
X113283980Y-55324001D03*
X102870000Y-60706000D03*
%TO.N,/A2*%
X112228599Y-59755781D03*
%TO.N,/B2*%
X106548602Y-59805818D03*
%TO.N,GND*%
X106934000Y-64008000D03*
X110744000Y-57519818D03*
X103886000Y-55264218D03*
X111760000Y-64008000D03*
X109220000Y-64008000D03*
X110728925Y-56285195D03*
X109982000Y-57519818D03*
X110744000Y-56896000D03*
%TD*%
D37*
%TO.N,Net-(U1-VIN)*%
X110833200Y-48004218D02*
X112515300Y-48004218D01*
X112515300Y-48004218D02*
X112629800Y-48118718D01*
D38*
X112629800Y-47605800D02*
X112629800Y-48118718D01*
X112266000Y-47242000D02*
X112629800Y-47605800D01*
X112266000Y-46250818D02*
X112266000Y-47242000D01*
D37*
X112629800Y-48118718D02*
X112375800Y-47864718D01*
D39*
%TO.N,+3V3*%
X112217200Y-60532218D02*
X113244600Y-60532218D01*
X109754600Y-59074218D02*
X109754600Y-60532218D01*
X104479600Y-54248218D02*
X103886824Y-54248218D01*
X109754600Y-60532218D02*
X111212600Y-60532218D01*
X108524000Y-60532218D02*
X108508800Y-60517018D01*
X111212600Y-60532218D02*
X112217200Y-60532218D01*
D37*
X104509600Y-54218218D02*
X104479600Y-54248218D01*
D39*
X115824000Y-60532218D02*
X113244600Y-60532218D01*
X108508800Y-60517018D02*
X108508800Y-59714018D01*
X114634218Y-60532218D02*
X113244600Y-60532218D01*
D37*
X104509600Y-53232218D02*
X104509600Y-54218218D01*
D39*
X109754600Y-60532218D02*
X108524000Y-60532218D01*
X108508800Y-59714018D02*
X109148600Y-59074218D01*
X115824000Y-61722000D02*
X114634218Y-60532218D01*
D37*
%TO.N,VM*%
X112477064Y-53656682D02*
X112490746Y-53643000D01*
D39*
X107665200Y-50931018D02*
X106781600Y-50931018D01*
X107665200Y-50281018D02*
X106781600Y-50281018D01*
X111843536Y-53486218D02*
X112014000Y-53656682D01*
X106022800Y-50153818D02*
X106022800Y-49899818D01*
X106041100Y-50931018D02*
X106022800Y-50912718D01*
X108813600Y-53486218D02*
X109247000Y-53486218D01*
X112014000Y-53656682D02*
X112477064Y-53656682D01*
X106022800Y-49859818D02*
X106022800Y-48880718D01*
X112167000Y-53789218D02*
X113391782Y-53789218D01*
X115062000Y-54356000D02*
X114349000Y-53643000D01*
X107665200Y-51591018D02*
X106781600Y-51591018D01*
X106781600Y-50931018D02*
X106041100Y-50931018D01*
X106781600Y-49631018D02*
X106251600Y-49631018D01*
X106701100Y-51591018D02*
X106022800Y-50912718D01*
X106022800Y-47867818D02*
X106022800Y-46848718D01*
X106251600Y-49631018D02*
X106022800Y-49859818D01*
X106781600Y-50281018D02*
X106150000Y-50281018D01*
X107665200Y-49631018D02*
X106781600Y-49631018D01*
D37*
X112490746Y-53643000D02*
X113538000Y-53643000D01*
X113538000Y-53643000D02*
X114349000Y-53643000D01*
X105410000Y-51677818D02*
X105410000Y-51525518D01*
D39*
X106022800Y-50912718D02*
X106022800Y-50153818D01*
X113391782Y-53789218D02*
X113538000Y-53643000D01*
X106781600Y-51591018D02*
X106701100Y-51591018D01*
D37*
X105410000Y-51525518D02*
X106022800Y-50912718D01*
D39*
X106022800Y-49899818D02*
X106022800Y-47867818D01*
X106150000Y-50281018D02*
X106022800Y-50153818D01*
X109247000Y-53486218D02*
X111843536Y-53486218D01*
D37*
%TO.N,Net-(U5-SW)*%
X104509600Y-56757600D02*
X105148600Y-57396600D01*
D39*
X109798600Y-54671218D02*
X109563600Y-54436218D01*
X106426000Y-56642000D02*
X109257818Y-56642000D01*
D37*
X104509600Y-56280218D02*
X104509600Y-56757600D01*
D39*
X109257818Y-56642000D02*
X109798600Y-56101218D01*
X109798600Y-56101218D02*
X109798600Y-54671218D01*
D37*
X105148600Y-57396600D02*
X105148600Y-59074218D01*
D39*
X105148600Y-59074218D02*
X105148600Y-57919400D01*
X109563600Y-54436218D02*
X108813600Y-54436218D01*
X105148600Y-57919400D02*
X106426000Y-56642000D01*
D37*
%TO.N,Net-(U5-BOOT)*%
X105619600Y-56280218D02*
X106513600Y-55386218D01*
X105469600Y-56280218D02*
X105619600Y-56280218D01*
%TO.N,Net-(U5-FB)*%
X105469600Y-53232218D02*
X105469600Y-53544476D01*
X105469600Y-55234218D02*
X105499600Y-55264218D01*
X106513600Y-53486218D02*
X105527858Y-53486218D01*
X105527858Y-53486218D02*
X105469600Y-53544476D01*
X105469600Y-53544476D02*
X105469600Y-55234218D01*
%TO.N,/SCL*%
X107268803Y-46504218D02*
X107086400Y-46686621D01*
X108013200Y-46504218D02*
X107268803Y-46504218D01*
%TO.N,/SDA*%
X107086400Y-45886618D02*
X107204000Y-46004218D01*
X107204000Y-46004218D02*
X108013200Y-46004218D01*
D39*
%TO.N,Net-(Q1-S-Pad1)*%
X107535200Y-43041018D02*
X107535200Y-43891018D01*
D37*
X114201600Y-49618818D02*
X115102800Y-49618818D01*
D39*
X110987600Y-42341018D02*
X113853200Y-42341018D01*
D37*
X110535200Y-43341018D02*
X110185200Y-42991018D01*
D39*
X110535200Y-43891018D02*
X110535200Y-42793418D01*
X111393000Y-52118818D02*
X110865200Y-51591018D01*
X115126600Y-51816418D02*
X114824200Y-52118818D01*
D37*
X115102800Y-49618818D02*
X115126600Y-49595018D01*
D39*
X110535200Y-42793418D02*
X110987600Y-42341018D01*
D37*
X107535200Y-43421118D02*
X107535200Y-43891018D01*
D38*
X114279800Y-48118718D02*
X115123500Y-48118718D01*
D39*
X110865200Y-51591018D02*
X110865200Y-50281018D01*
D37*
X110185200Y-42991018D02*
X107965300Y-42991018D01*
D39*
X110535200Y-42793418D02*
X107782800Y-42793418D01*
X107782800Y-42793418D02*
X107535200Y-43041018D01*
X113853200Y-42341018D02*
X115126600Y-43614418D01*
X114824200Y-52118818D02*
X111393000Y-52118818D01*
D37*
X115123500Y-48118718D02*
X115126600Y-48121818D01*
D39*
X115126600Y-43614418D02*
X115126600Y-48121818D01*
X115126600Y-49595018D02*
X115126600Y-51816418D01*
D37*
X110535200Y-43891018D02*
X110535200Y-43341018D01*
D39*
X115126600Y-48121818D02*
X115126600Y-49595018D01*
D37*
X110593600Y-43755518D02*
X110721600Y-43883518D01*
X107965300Y-42991018D02*
X107535200Y-43421118D01*
%TO.N,Net-(Q1-G)*%
X110865200Y-49631018D02*
X111415200Y-49631018D01*
X111648600Y-49864418D02*
X111648600Y-50493818D01*
X111648600Y-50493818D02*
X112423600Y-51268818D01*
X111415200Y-49631018D02*
X111648600Y-49864418D01*
X114201600Y-51268818D02*
X112423600Y-51268818D01*
%TO.N,Net-(U1-GATE)*%
X112423600Y-49618818D02*
X111572782Y-48768000D01*
X108013200Y-48194218D02*
X108013200Y-48004218D01*
X108586982Y-48768000D02*
X108013200Y-48194218D01*
X111572782Y-48768000D02*
X108586982Y-48768000D01*
%TO.N,/CC2*%
X108535200Y-44338218D02*
X109388000Y-45191018D01*
X110353200Y-45191018D02*
X110833200Y-45671018D01*
X108535200Y-43891018D02*
X108535200Y-44338218D01*
X109388000Y-45191018D02*
X110353200Y-45191018D01*
X110833200Y-45671018D02*
X110833200Y-46004218D01*
%TO.N,/CC1*%
X111466000Y-46434618D02*
X111466000Y-45716218D01*
X111466000Y-45716218D02*
X110540800Y-44791018D01*
X109535200Y-44691018D02*
X109535200Y-43891018D01*
X111396400Y-46504218D02*
X111466000Y-46434618D01*
X109635200Y-44791018D02*
X109535200Y-44691018D01*
X110833200Y-46504218D02*
X111396400Y-46504218D01*
X110540800Y-44791018D02*
X109635200Y-44791018D01*
D39*
%TO.N,GND*%
X113355200Y-45394800D02*
X113297091Y-45452909D01*
X113355200Y-44958000D02*
X113355200Y-45394800D01*
X114166000Y-46250818D02*
X114095000Y-46250818D01*
X113244600Y-58632218D02*
X113244600Y-56886400D01*
X113244600Y-56886400D02*
X113538000Y-56593000D01*
X113355200Y-44958000D02*
X114300000Y-44958000D01*
X111735200Y-43891018D02*
X111806200Y-43891018D01*
D37*
X108923200Y-47504218D02*
X109423200Y-47004218D01*
D39*
X113355200Y-43641018D02*
X113355200Y-44958000D01*
X109423200Y-46004035D02*
X108543783Y-45124618D01*
D37*
X108013200Y-47004218D02*
X109423200Y-47004218D01*
D39*
X114095000Y-46250818D02*
X113297091Y-45452909D01*
X109423200Y-47004218D02*
X109423200Y-46004035D01*
X106918800Y-45124618D02*
X106335200Y-44541018D01*
X113297091Y-45452909D02*
X111735200Y-43891018D01*
D37*
X108013200Y-47504218D02*
X108923200Y-47504218D01*
D39*
X106335200Y-44541018D02*
X106335200Y-43891018D01*
X108543783Y-45124618D02*
X106918800Y-45124618D01*
D37*
X111985200Y-43641018D02*
X111735200Y-43891018D01*
X111821600Y-43783518D02*
X111793600Y-43755518D01*
%TD*%
%TA.AperFunction,Conductor*%
%TO.N,GND*%
G36*
X103743409Y-38935038D02*
G01*
X103779373Y-38984538D01*
X103779373Y-39045724D01*
X103776682Y-39053017D01*
X103705549Y-39224745D01*
X103665200Y-39427599D01*
X103665200Y-39581017D01*
X103665201Y-39581018D01*
X104365188Y-39581018D01*
X104365188Y-40081018D01*
X103665201Y-40081018D01*
X103665200Y-40081019D01*
X103665200Y-40234436D01*
X103705549Y-40437290D01*
X103784701Y-40628378D01*
X103784708Y-40628392D01*
X103899605Y-40800347D01*
X104045870Y-40946612D01*
X104217825Y-41061509D01*
X104217842Y-41061518D01*
X104334522Y-41109848D01*
X104381048Y-41149584D01*
X104395332Y-41209079D01*
X104375179Y-41261579D01*
X104294142Y-41367188D01*
X104294137Y-41367196D01*
X104238670Y-41501108D01*
X104238669Y-41501109D01*
X104219750Y-41644817D01*
X104219750Y-41644818D01*
X104238669Y-41788526D01*
X104238670Y-41788527D01*
X104249617Y-41814957D01*
X104294139Y-41922443D01*
X104382379Y-42037439D01*
X104497375Y-42125679D01*
X104502636Y-42127858D01*
X104549163Y-42167592D01*
X104563449Y-42227086D01*
X104540037Y-42283615D01*
X104487870Y-42315587D01*
X104484069Y-42316421D01*
X104408926Y-42331368D01*
X104217839Y-42410519D01*
X104217825Y-42410526D01*
X104045870Y-42525423D01*
X103899605Y-42671688D01*
X103784708Y-42843643D01*
X103784701Y-42843657D01*
X103705549Y-43034745D01*
X103665200Y-43237599D01*
X103665200Y-43391017D01*
X103665201Y-43391018D01*
X104365188Y-43391018D01*
X104365188Y-43891018D01*
X103665201Y-43891018D01*
X103665200Y-43891019D01*
X103665200Y-44044436D01*
X103705549Y-44247290D01*
X103784701Y-44438378D01*
X103784708Y-44438392D01*
X103899605Y-44610347D01*
X104045870Y-44756612D01*
X104217825Y-44871509D01*
X104217839Y-44871516D01*
X104408923Y-44950666D01*
X104408930Y-44950668D01*
X104465200Y-44961860D01*
X104465200Y-44135996D01*
X104500288Y-44171084D01*
X104580101Y-44217164D01*
X104669120Y-44241017D01*
X104761280Y-44241017D01*
X104850299Y-44217164D01*
X104930112Y-44171084D01*
X104965200Y-44135996D01*
X104965200Y-44961859D01*
X105021469Y-44950668D01*
X105021476Y-44950666D01*
X105212560Y-44871516D01*
X105212569Y-44871512D01*
X105388579Y-44753905D01*
X105389778Y-44755700D01*
X105438824Y-44736484D01*
X105498033Y-44751911D01*
X105523942Y-44775981D01*
X105578007Y-44848202D01*
X105578015Y-44848210D01*
X105693109Y-44934370D01*
X105693111Y-44934371D01*
X105827818Y-44984614D01*
X105827829Y-44984616D01*
X105887376Y-44991018D01*
X106085199Y-44991018D01*
X106085200Y-44991017D01*
X106085200Y-42791019D01*
X106085199Y-42791018D01*
X105887376Y-42791018D01*
X105827829Y-42797419D01*
X105827823Y-42797420D01*
X105730692Y-42833647D01*
X105669563Y-42836266D01*
X105618569Y-42802454D01*
X105613781Y-42795889D01*
X105530791Y-42671685D01*
X105384529Y-42525423D01*
X105212574Y-42410526D01*
X105212560Y-42410519D01*
X105021469Y-42331366D01*
X105017566Y-42330182D01*
X104967373Y-42295191D01*
X104947334Y-42237380D01*
X104965102Y-42178832D01*
X105008427Y-42143986D01*
X105052625Y-42125679D01*
X105167621Y-42037439D01*
X105255861Y-41922443D01*
X105311330Y-41788527D01*
X105330250Y-41644818D01*
X105311330Y-41501109D01*
X105255861Y-41367193D01*
X105167621Y-41252197D01*
X105167616Y-41252193D01*
X105167615Y-41252192D01*
X105158029Y-41244836D01*
X105123375Y-41194410D01*
X105124979Y-41133246D01*
X105162228Y-41084705D01*
X105180415Y-41074831D01*
X105212562Y-41061515D01*
X105212574Y-41061509D01*
X105384529Y-40946612D01*
X105530794Y-40800347D01*
X105645691Y-40628392D01*
X105645698Y-40628378D01*
X105724850Y-40437290D01*
X105765199Y-40234436D01*
X105765200Y-40234431D01*
X105765200Y-40081019D01*
X105765199Y-40081018D01*
X105065212Y-40081018D01*
X105065212Y-39581018D01*
X105765199Y-39581018D01*
X105765200Y-39581017D01*
X105765200Y-39427604D01*
X105765199Y-39427599D01*
X105724850Y-39224745D01*
X105653718Y-39053017D01*
X105648917Y-38992020D01*
X105680887Y-38939851D01*
X105737415Y-38916436D01*
X105745182Y-38916131D01*
X112325218Y-38916131D01*
X112383409Y-38935038D01*
X112419373Y-38984538D01*
X112419373Y-39045724D01*
X112416682Y-39053017D01*
X112345549Y-39224745D01*
X112305200Y-39427599D01*
X112305200Y-39581017D01*
X112305201Y-39581018D01*
X113005188Y-39581018D01*
X113005188Y-40081018D01*
X112305201Y-40081018D01*
X112305200Y-40081019D01*
X112305200Y-40234436D01*
X112345549Y-40437290D01*
X112424701Y-40628378D01*
X112424708Y-40628392D01*
X112539605Y-40800347D01*
X112685870Y-40946612D01*
X112857825Y-41061509D01*
X112857839Y-41061516D01*
X113048923Y-41140666D01*
X113048930Y-41140668D01*
X113105200Y-41151860D01*
X113105200Y-40325996D01*
X113140288Y-40361084D01*
X113220101Y-40407164D01*
X113309120Y-40431017D01*
X113401280Y-40431017D01*
X113490299Y-40407164D01*
X113570112Y-40361084D01*
X113605200Y-40325996D01*
X113605200Y-41151859D01*
X113661469Y-41140668D01*
X113661476Y-41140666D01*
X113852560Y-41061516D01*
X113852574Y-41061509D01*
X114024529Y-40946612D01*
X114170794Y-40800347D01*
X114285691Y-40628392D01*
X114285698Y-40628378D01*
X114364850Y-40437290D01*
X114405199Y-40234436D01*
X114405200Y-40234431D01*
X114405200Y-40081019D01*
X114405199Y-40081018D01*
X113705212Y-40081018D01*
X113705212Y-39581018D01*
X114405199Y-39581018D01*
X114405200Y-39581017D01*
X114405200Y-39427604D01*
X114405199Y-39427599D01*
X114364850Y-39224745D01*
X114293718Y-39053017D01*
X114288917Y-38992020D01*
X114320887Y-38939851D01*
X114377415Y-38916436D01*
X114385182Y-38916131D01*
X116901108Y-38916131D01*
X116962681Y-38916131D01*
X116971309Y-38916508D01*
X117136101Y-38930925D01*
X117153081Y-38933918D01*
X117308691Y-38975615D01*
X117324898Y-38981514D01*
X117347428Y-38992020D01*
X117470892Y-39049593D01*
X117485830Y-39058217D01*
X117617792Y-39150620D01*
X117631002Y-39161705D01*
X117744908Y-39275614D01*
X117755997Y-39288830D01*
X117848389Y-39420785D01*
X117857017Y-39435729D01*
X117925091Y-39581718D01*
X117930993Y-39597935D01*
X117972681Y-39753529D01*
X117975677Y-39770524D01*
X117990122Y-39935672D01*
X117990499Y-39944299D01*
X117990498Y-40011659D01*
X117990513Y-40011898D01*
X117991478Y-44968460D01*
X117972582Y-45026654D01*
X117923089Y-45062628D01*
X117885625Y-45067242D01*
X117848862Y-45064690D01*
X117239999Y-45673553D01*
X117239999Y-45667339D01*
X117212740Y-45565606D01*
X117160079Y-45474395D01*
X117085605Y-45399921D01*
X116994394Y-45347260D01*
X116892661Y-45320001D01*
X116886443Y-45320001D01*
X117493326Y-44713118D01*
X117377186Y-44641206D01*
X117377180Y-44641203D01*
X117169799Y-44560863D01*
X116951196Y-44520000D01*
X116728804Y-44520000D01*
X116510200Y-44560863D01*
X116302821Y-44641202D01*
X116302816Y-44641205D01*
X116186672Y-44713118D01*
X116793555Y-45320001D01*
X116787339Y-45320001D01*
X116685606Y-45347260D01*
X116594395Y-45399921D01*
X116519921Y-45474395D01*
X116467260Y-45565606D01*
X116440001Y-45667339D01*
X116440001Y-45673555D01*
X115831137Y-45064691D01*
X115815368Y-45085574D01*
X115814720Y-45086876D01*
X115814292Y-45087310D01*
X115812960Y-45089464D01*
X115812474Y-45089163D01*
X115771857Y-45130537D01*
X115711516Y-45140666D01*
X115656745Y-45113392D01*
X115628466Y-45059134D01*
X115627100Y-45042746D01*
X115627100Y-43548527D01*
X115611423Y-43490018D01*
X115592992Y-43421232D01*
X115592990Y-43421229D01*
X115592990Y-43421227D01*
X115527103Y-43307108D01*
X115527099Y-43307103D01*
X115433914Y-43213917D01*
X115433914Y-43213918D01*
X114918216Y-42698220D01*
X114890439Y-42643703D01*
X114900010Y-42583271D01*
X114927951Y-42549675D01*
X115038043Y-42465199D01*
X115045618Y-42455327D01*
X115889500Y-42455327D01*
X115889500Y-43904672D01*
X115889501Y-43904684D01*
X115904033Y-43977736D01*
X115904035Y-43977742D01*
X115959397Y-44060599D01*
X115959399Y-44060601D01*
X116042260Y-44115966D01*
X116097808Y-44127015D01*
X116115315Y-44130498D01*
X116115320Y-44130498D01*
X116115326Y-44130500D01*
X116115327Y-44130500D01*
X117564673Y-44130500D01*
X117564674Y-44130500D01*
X117637740Y-44115966D01*
X117720601Y-44060601D01*
X117775966Y-43977740D01*
X117790500Y-43904674D01*
X117790500Y-42455326D01*
X117775966Y-42382260D01*
X117720601Y-42299399D01*
X117720600Y-42299398D01*
X117720599Y-42299397D01*
X117637742Y-42244035D01*
X117637740Y-42244034D01*
X117637737Y-42244033D01*
X117637736Y-42244033D01*
X117564684Y-42229501D01*
X117564674Y-42229500D01*
X116115326Y-42229500D01*
X116115325Y-42229500D01*
X116115315Y-42229501D01*
X116042263Y-42244033D01*
X116042257Y-42244035D01*
X115959400Y-42299397D01*
X115959399Y-42299399D01*
X115904035Y-42382257D01*
X115904033Y-42382263D01*
X115889501Y-42455315D01*
X115889500Y-42455327D01*
X115045618Y-42455327D01*
X115126283Y-42350203D01*
X115181752Y-42216287D01*
X115200672Y-42072578D01*
X115181752Y-41928869D01*
X115126283Y-41794953D01*
X115038043Y-41679957D01*
X114923047Y-41591717D01*
X114923043Y-41591715D01*
X114789131Y-41536248D01*
X114789130Y-41536247D01*
X114645422Y-41517328D01*
X114501713Y-41536247D01*
X114501712Y-41536248D01*
X114367800Y-41591715D01*
X114367796Y-41591717D01*
X114252803Y-41679955D01*
X114252799Y-41679959D01*
X114164561Y-41794952D01*
X114164560Y-41794954D01*
X114156275Y-41814957D01*
X114116538Y-41861483D01*
X114057043Y-41875766D01*
X114039195Y-41872699D01*
X113919092Y-41840518D01*
X111053492Y-41840518D01*
X110921707Y-41840518D01*
X110843800Y-41861392D01*
X110794409Y-41874627D01*
X110680290Y-41940514D01*
X110680284Y-41940518D01*
X110592743Y-42028058D01*
X110592744Y-42028059D01*
X110592741Y-42028062D01*
X110592740Y-42028061D01*
X110356883Y-42263921D01*
X110302366Y-42291699D01*
X110286879Y-42292918D01*
X107716907Y-42292918D01*
X107692719Y-42299398D01*
X107692720Y-42299399D01*
X107589614Y-42327026D01*
X107589612Y-42327026D01*
X107589608Y-42327028D01*
X107475490Y-42392914D01*
X107475485Y-42392918D01*
X107382299Y-42486103D01*
X107382300Y-42486104D01*
X107382299Y-42486105D01*
X107227886Y-42640517D01*
X107227886Y-42640518D01*
X107227885Y-42640517D01*
X107134700Y-42733703D01*
X107134698Y-42733705D01*
X107094542Y-42803258D01*
X107049072Y-42844198D01*
X106988222Y-42850593D01*
X106974210Y-42846515D01*
X106842581Y-42797421D01*
X106842570Y-42797419D01*
X106783024Y-42791018D01*
X106585201Y-42791018D01*
X106585200Y-42791019D01*
X106585200Y-44991017D01*
X106585201Y-44991018D01*
X106783024Y-44991018D01*
X106842570Y-44984616D01*
X106842581Y-44984614D01*
X106977288Y-44934371D01*
X106977290Y-44934370D01*
X107092384Y-44848210D01*
X107092392Y-44848202D01*
X107142559Y-44781189D01*
X107192568Y-44745936D01*
X107221812Y-44741518D01*
X107909873Y-44741518D01*
X107909874Y-44741518D01*
X107982940Y-44726984D01*
X107982946Y-44726979D01*
X107991952Y-44723251D01*
X107992786Y-44725266D01*
X108039080Y-44712207D01*
X108077810Y-44724791D01*
X108078448Y-44723251D01*
X108087455Y-44726980D01*
X108087460Y-44726984D01*
X108135219Y-44736484D01*
X108160515Y-44741516D01*
X108160520Y-44741516D01*
X108160526Y-44741518D01*
X108401810Y-44741518D01*
X108460001Y-44760425D01*
X108471813Y-44770514D01*
X108786514Y-45085214D01*
X108814292Y-45139731D01*
X108804721Y-45200163D01*
X108761456Y-45243428D01*
X108716511Y-45254218D01*
X108625376Y-45254218D01*
X108565829Y-45260619D01*
X108565818Y-45260621D01*
X108431111Y-45310864D01*
X108431109Y-45310865D01*
X108316015Y-45397025D01*
X108316007Y-45397033D01*
X108229847Y-45512128D01*
X108215979Y-45549313D01*
X108177929Y-45597228D01*
X108123220Y-45613718D01*
X107658526Y-45613718D01*
X107658525Y-45613718D01*
X107658513Y-45613719D01*
X107642867Y-45616831D01*
X107582106Y-45609638D01*
X107545016Y-45580001D01*
X107479026Y-45494003D01*
X107479024Y-45494001D01*
X107479021Y-45493997D01*
X107364025Y-45405757D01*
X107364021Y-45405755D01*
X107230109Y-45350288D01*
X107230108Y-45350287D01*
X107086400Y-45331368D01*
X106942691Y-45350287D01*
X106942690Y-45350288D01*
X106808778Y-45405755D01*
X106808774Y-45405757D01*
X106693781Y-45493995D01*
X106693777Y-45493999D01*
X106605539Y-45608992D01*
X106605537Y-45608996D01*
X106550070Y-45742908D01*
X106541198Y-45810297D01*
X106514857Y-45865521D01*
X106461086Y-45894716D01*
X106408449Y-45890132D01*
X106380288Y-45879628D01*
X106380283Y-45879627D01*
X106380281Y-45879626D01*
X106380277Y-45879626D01*
X106349049Y-45876268D01*
X106320673Y-45873218D01*
X106320670Y-45873218D01*
X105724933Y-45873218D01*
X105724929Y-45873218D01*
X105724928Y-45873219D01*
X105717749Y-45873990D01*
X105665319Y-45879626D01*
X105665314Y-45879627D01*
X105530470Y-45929920D01*
X105415258Y-46016168D01*
X105415250Y-46016176D01*
X105329003Y-46131387D01*
X105296801Y-46217727D01*
X105258751Y-46265641D01*
X105199804Y-46282039D01*
X105142476Y-46260657D01*
X105110068Y-46214270D01*
X105057156Y-46054593D01*
X104965119Y-45905377D01*
X104841140Y-45781398D01*
X104691924Y-45689361D01*
X104525493Y-45634211D01*
X104422787Y-45623718D01*
X104372801Y-45623718D01*
X104372800Y-45623719D01*
X104372800Y-52137716D01*
X104372801Y-52137717D01*
X104422786Y-52137717D01*
X104525487Y-52127225D01*
X104525499Y-52127222D01*
X104691925Y-52072074D01*
X104837587Y-51982228D01*
X104897040Y-51967771D01*
X104953636Y-51991021D01*
X104968100Y-52006218D01*
X105017379Y-52070439D01*
X105132375Y-52158679D01*
X105266291Y-52214148D01*
X105410000Y-52233068D01*
X105553709Y-52214148D01*
X105687625Y-52158679D01*
X105802621Y-52070439D01*
X105890861Y-51955443D01*
X105893391Y-51949333D01*
X105933126Y-51902807D01*
X105984856Y-51888217D01*
X106249477Y-51888217D01*
X106307668Y-51907124D01*
X106319480Y-51917213D01*
X106393785Y-51991517D01*
X106393790Y-51991521D01*
X106507910Y-52057408D01*
X106507908Y-52057408D01*
X106507912Y-52057409D01*
X106507914Y-52057410D01*
X106635208Y-52091518D01*
X106635210Y-52091518D01*
X107704417Y-52091518D01*
X107759417Y-52108201D01*
X107817460Y-52146984D01*
X107873008Y-52158033D01*
X107890515Y-52161516D01*
X107890520Y-52161516D01*
X107890526Y-52161518D01*
X107890527Y-52161518D01*
X109939873Y-52161518D01*
X109939874Y-52161518D01*
X110012940Y-52146984D01*
X110095801Y-52091619D01*
X110095869Y-52091518D01*
X110154505Y-52003761D01*
X110202554Y-51965881D01*
X110263692Y-51963478D01*
X110291821Y-51976444D01*
X110367460Y-52026984D01*
X110423008Y-52038033D01*
X110440515Y-52041516D01*
X110440520Y-52041516D01*
X110440526Y-52041518D01*
X110566878Y-52041518D01*
X110625069Y-52060425D01*
X110636882Y-52070514D01*
X110992500Y-52426132D01*
X110992499Y-52426132D01*
X111085685Y-52519317D01*
X111085690Y-52519321D01*
X111199810Y-52585208D01*
X111199808Y-52585208D01*
X111199812Y-52585209D01*
X111199814Y-52585210D01*
X111327108Y-52619318D01*
X111327110Y-52619318D01*
X114890090Y-52619318D01*
X114890092Y-52619318D01*
X115017386Y-52585210D01*
X115017388Y-52585208D01*
X115017390Y-52585208D01*
X115131509Y-52519321D01*
X115131509Y-52519320D01*
X115131514Y-52519318D01*
X115433912Y-52216919D01*
X115433914Y-52216918D01*
X115527100Y-52123732D01*
X115592992Y-52009604D01*
X115607504Y-51955443D01*
X115627100Y-51882311D01*
X115627100Y-51750526D01*
X115627100Y-50799995D01*
X115884901Y-50799995D01*
X115884901Y-50800004D01*
X115903251Y-50986325D01*
X115903252Y-50986328D01*
X115903253Y-50986331D01*
X115954628Y-51155692D01*
X115957605Y-51165504D01*
X115957606Y-51165506D01*
X116045859Y-51330617D01*
X116045862Y-51330622D01*
X116045864Y-51330625D01*
X116075178Y-51366344D01*
X116164638Y-51475352D01*
X116164647Y-51475361D01*
X116222798Y-51523084D01*
X116309375Y-51594136D01*
X116309380Y-51594138D01*
X116309382Y-51594140D01*
X116465934Y-51677818D01*
X116474499Y-51682396D01*
X116653669Y-51736747D01*
X116653671Y-51736747D01*
X116653674Y-51736748D01*
X116839996Y-51755099D01*
X116840000Y-51755099D01*
X116840004Y-51755099D01*
X117026325Y-51736748D01*
X117026326Y-51736747D01*
X117026331Y-51736747D01*
X117205501Y-51682396D01*
X117370625Y-51594136D01*
X117515357Y-51475357D01*
X117634136Y-51330625D01*
X117722396Y-51165501D01*
X117776747Y-50986331D01*
X117789525Y-50856600D01*
X117795094Y-50800053D01*
X117795121Y-50799989D01*
X117795090Y-50799907D01*
X117776748Y-50613674D01*
X117776747Y-50613671D01*
X117776747Y-50613669D01*
X117722396Y-50434499D01*
X117676502Y-50348636D01*
X117634140Y-50269382D01*
X117634138Y-50269380D01*
X117634136Y-50269375D01*
X117528750Y-50140962D01*
X117515361Y-50124647D01*
X117515352Y-50124638D01*
X117402106Y-50031700D01*
X117370625Y-50005864D01*
X117370622Y-50005862D01*
X117370617Y-50005859D01*
X117205506Y-49917606D01*
X117205504Y-49917605D01*
X117026328Y-49863252D01*
X117026325Y-49863251D01*
X116840004Y-49844901D01*
X116839996Y-49844901D01*
X116653674Y-49863251D01*
X116653671Y-49863252D01*
X116474495Y-49917605D01*
X116474493Y-49917606D01*
X116309382Y-50005859D01*
X116309376Y-50005863D01*
X116164647Y-50124638D01*
X116164638Y-50124647D01*
X116045863Y-50269376D01*
X116045859Y-50269382D01*
X115957606Y-50434493D01*
X115957605Y-50434495D01*
X115903252Y-50613671D01*
X115903251Y-50613674D01*
X115884901Y-50799995D01*
X115627100Y-50799995D01*
X115627100Y-49529126D01*
X115627100Y-48259995D01*
X115884901Y-48259995D01*
X115884901Y-48260004D01*
X115903251Y-48446325D01*
X115903252Y-48446328D01*
X115957605Y-48625504D01*
X115957606Y-48625506D01*
X116045859Y-48790617D01*
X116045862Y-48790622D01*
X116045864Y-48790625D01*
X116061137Y-48809235D01*
X116164638Y-48935352D01*
X116164647Y-48935361D01*
X116222954Y-48983212D01*
X116309375Y-49054136D01*
X116309380Y-49054138D01*
X116309382Y-49054140D01*
X116474493Y-49142393D01*
X116474499Y-49142396D01*
X116653669Y-49196747D01*
X116653671Y-49196747D01*
X116653674Y-49196748D01*
X116839996Y-49215099D01*
X116840000Y-49215099D01*
X116840004Y-49215099D01*
X117026325Y-49196748D01*
X117026326Y-49196747D01*
X117026331Y-49196747D01*
X117205501Y-49142396D01*
X117370625Y-49054136D01*
X117515357Y-48935357D01*
X117634136Y-48790625D01*
X117722396Y-48625501D01*
X117776747Y-48446331D01*
X117779969Y-48413625D01*
X117794600Y-48265069D01*
X117796670Y-48260334D01*
X117794594Y-48254872D01*
X117776748Y-48073674D01*
X117776747Y-48073671D01*
X117776747Y-48073669D01*
X117722396Y-47894499D01*
X117693022Y-47839544D01*
X117634140Y-47729382D01*
X117634138Y-47729380D01*
X117634136Y-47729375D01*
X117570755Y-47652145D01*
X117515361Y-47584647D01*
X117515352Y-47584638D01*
X117387495Y-47479709D01*
X117370625Y-47465864D01*
X117370622Y-47465862D01*
X117370617Y-47465859D01*
X117205506Y-47377606D01*
X117205504Y-47377605D01*
X117192644Y-47373704D01*
X117080035Y-47339544D01*
X117026328Y-47323252D01*
X117026325Y-47323251D01*
X116840004Y-47304901D01*
X116839996Y-47304901D01*
X116653674Y-47323251D01*
X116653671Y-47323252D01*
X116474495Y-47377605D01*
X116474493Y-47377606D01*
X116309382Y-47465859D01*
X116309376Y-47465863D01*
X116164647Y-47584638D01*
X116164638Y-47584647D01*
X116045863Y-47729376D01*
X116045859Y-47729382D01*
X115957606Y-47894493D01*
X115957605Y-47894495D01*
X115903252Y-48073671D01*
X115903251Y-48073674D01*
X115884901Y-48259995D01*
X115627100Y-48259995D01*
X115627100Y-48055926D01*
X115627100Y-46397253D01*
X115646007Y-46339062D01*
X115695507Y-46303098D01*
X115756693Y-46303098D01*
X115806193Y-46339062D01*
X115814724Y-46353130D01*
X115815368Y-46354424D01*
X115815369Y-46354426D01*
X115831138Y-46375306D01*
X116440001Y-45766443D01*
X116440001Y-45772661D01*
X116467260Y-45874394D01*
X116519921Y-45965605D01*
X116594395Y-46040079D01*
X116685606Y-46092740D01*
X116787339Y-46119999D01*
X116793553Y-46119999D01*
X116186672Y-46726880D01*
X116302813Y-46798793D01*
X116302819Y-46798796D01*
X116510200Y-46879136D01*
X116728804Y-46920000D01*
X116951196Y-46920000D01*
X117169799Y-46879136D01*
X117377180Y-46798796D01*
X117377181Y-46798796D01*
X117493326Y-46726880D01*
X116886445Y-46119999D01*
X116892661Y-46119999D01*
X116994394Y-46092740D01*
X117085605Y-46040079D01*
X117160079Y-45965605D01*
X117212740Y-45874394D01*
X117239999Y-45772661D01*
X117239999Y-45766445D01*
X117848861Y-46375307D01*
X117885916Y-46372736D01*
X117945276Y-46387568D01*
X117984581Y-46434459D01*
X117991771Y-46471479D01*
X117992117Y-48245150D01*
X117987742Y-48258622D01*
X117992123Y-48274753D01*
X117992613Y-50790185D01*
X117989723Y-50799082D01*
X117992617Y-50809737D01*
X117995781Y-67046380D01*
X117995404Y-67055029D01*
X117980905Y-67220730D01*
X117977908Y-67237724D01*
X117935978Y-67394205D01*
X117930076Y-67410421D01*
X117861609Y-67557245D01*
X117852980Y-67572190D01*
X117760053Y-67704900D01*
X117748961Y-67718119D01*
X117634408Y-67832671D01*
X117621189Y-67843763D01*
X117488481Y-67936686D01*
X117473541Y-67945312D01*
X117326712Y-68013779D01*
X117310500Y-68019680D01*
X117154007Y-68061612D01*
X117137012Y-68064608D01*
X116971100Y-68079123D01*
X116962472Y-68079500D01*
X101571639Y-68079500D01*
X101546018Y-68076127D01*
X101538894Y-68074218D01*
X101538892Y-68074218D01*
X101477319Y-68074218D01*
X101468691Y-68073841D01*
X101303901Y-68059424D01*
X101286906Y-68056428D01*
X101131303Y-68014734D01*
X101115090Y-68008833D01*
X100969092Y-67940754D01*
X100954148Y-67932126D01*
X100822193Y-67839731D01*
X100808978Y-67828643D01*
X100695069Y-67714735D01*
X100683979Y-67701517D01*
X100591578Y-67569558D01*
X100582949Y-67554613D01*
X100532549Y-67446532D01*
X100514867Y-67408614D01*
X100508970Y-67392412D01*
X100467274Y-67236809D01*
X100464278Y-67219815D01*
X100461123Y-67183762D01*
X100449877Y-67055225D01*
X100449500Y-67046596D01*
X100449500Y-65023999D01*
X102047750Y-65023999D01*
X102047750Y-65024000D01*
X102066669Y-65167708D01*
X102066670Y-65167709D01*
X102122139Y-65301625D01*
X102210379Y-65416621D01*
X102325375Y-65504861D01*
X102459291Y-65560330D01*
X102603000Y-65579250D01*
X102746709Y-65560330D01*
X102880625Y-65504861D01*
X102900043Y-65489960D01*
X102957718Y-65469535D01*
X103016384Y-65486911D01*
X103053633Y-65535452D01*
X103058093Y-65583987D01*
X103039500Y-65701384D01*
X103039500Y-66124614D01*
X103066597Y-66295702D01*
X103066598Y-66295706D01*
X103120123Y-66460438D01*
X103120125Y-66460441D01*
X103120126Y-66460444D01*
X103120127Y-66460445D01*
X103198768Y-66614788D01*
X103300586Y-66754928D01*
X103423072Y-66877414D01*
X103563212Y-66979232D01*
X103717555Y-67057873D01*
X103717557Y-67057873D01*
X103717558Y-67057874D01*
X103717561Y-67057876D01*
X103882293Y-67111401D01*
X103882297Y-67111402D01*
X104053386Y-67138500D01*
X104053389Y-67138500D01*
X104226614Y-67138500D01*
X104397702Y-67111402D01*
X104397706Y-67111401D01*
X104562438Y-67057876D01*
X104562440Y-67057874D01*
X104562445Y-67057873D01*
X104716788Y-66979232D01*
X104856928Y-66877414D01*
X104979414Y-66754928D01*
X105081232Y-66614788D01*
X105159873Y-66460445D01*
X105159874Y-66460440D01*
X105159876Y-66460438D01*
X105213401Y-66295706D01*
X105213402Y-66295702D01*
X105240500Y-66124614D01*
X105240500Y-65701385D01*
X105539500Y-65701385D01*
X105539500Y-66124614D01*
X105566597Y-66295702D01*
X105566598Y-66295706D01*
X105620123Y-66460438D01*
X105620125Y-66460441D01*
X105620126Y-66460444D01*
X105620127Y-66460445D01*
X105698768Y-66614788D01*
X105800586Y-66754928D01*
X105923072Y-66877414D01*
X106063212Y-66979232D01*
X106217555Y-67057873D01*
X106217557Y-67057873D01*
X106217558Y-67057874D01*
X106217561Y-67057876D01*
X106382293Y-67111401D01*
X106382297Y-67111402D01*
X106553386Y-67138500D01*
X106553389Y-67138500D01*
X106726614Y-67138500D01*
X106897702Y-67111402D01*
X106897706Y-67111401D01*
X107062438Y-67057876D01*
X107062440Y-67057874D01*
X107062445Y-67057873D01*
X107216788Y-66979232D01*
X107356928Y-66877414D01*
X107479414Y-66754928D01*
X107581232Y-66614788D01*
X107659873Y-66460445D01*
X107659874Y-66460440D01*
X107659876Y-66460438D01*
X107713401Y-66295706D01*
X107713402Y-66295702D01*
X107740500Y-66124614D01*
X107740500Y-65701385D01*
X108039500Y-65701385D01*
X108039500Y-66124614D01*
X108066597Y-66295702D01*
X108066598Y-66295706D01*
X108120123Y-66460438D01*
X108120125Y-66460441D01*
X108120126Y-66460444D01*
X108120127Y-66460445D01*
X108198768Y-66614788D01*
X108300586Y-66754928D01*
X108423072Y-66877414D01*
X108563212Y-66979232D01*
X108717555Y-67057873D01*
X108717557Y-67057873D01*
X108717558Y-67057874D01*
X108717561Y-67057876D01*
X108882293Y-67111401D01*
X108882297Y-67111402D01*
X109053386Y-67138500D01*
X109053389Y-67138500D01*
X109226614Y-67138500D01*
X109397702Y-67111402D01*
X109397706Y-67111401D01*
X109562438Y-67057876D01*
X109562440Y-67057874D01*
X109562445Y-67057873D01*
X109716788Y-66979232D01*
X109856928Y-66877414D01*
X109979414Y-66754928D01*
X110081232Y-66614788D01*
X110159873Y-66460445D01*
X110159874Y-66460440D01*
X110159876Y-66460438D01*
X110213401Y-66295706D01*
X110213402Y-66295702D01*
X110240500Y-66124614D01*
X110240500Y-65701385D01*
X110539500Y-65701385D01*
X110539500Y-66124614D01*
X110566597Y-66295702D01*
X110566598Y-66295706D01*
X110620123Y-66460438D01*
X110620125Y-66460441D01*
X110620126Y-66460444D01*
X110620127Y-66460445D01*
X110698768Y-66614788D01*
X110800586Y-66754928D01*
X110923072Y-66877414D01*
X111063212Y-66979232D01*
X111217555Y-67057873D01*
X111217557Y-67057873D01*
X111217558Y-67057874D01*
X111217561Y-67057876D01*
X111382293Y-67111401D01*
X111382297Y-67111402D01*
X111553386Y-67138500D01*
X111553389Y-67138500D01*
X111726614Y-67138500D01*
X111897702Y-67111402D01*
X111897706Y-67111401D01*
X112062438Y-67057876D01*
X112062440Y-67057874D01*
X112062445Y-67057873D01*
X112216788Y-66979232D01*
X112356928Y-66877414D01*
X112479414Y-66754928D01*
X112581232Y-66614788D01*
X112659873Y-66460445D01*
X112659874Y-66460440D01*
X112659876Y-66460438D01*
X112713401Y-66295706D01*
X112713402Y-66295702D01*
X112740500Y-66124614D01*
X112740500Y-65701385D01*
X112713402Y-65530297D01*
X112713401Y-65530293D01*
X112659876Y-65365561D01*
X112659874Y-65365558D01*
X112659873Y-65365557D01*
X112659873Y-65365555D01*
X112581232Y-65211212D01*
X112529587Y-65140129D01*
X113039500Y-65140129D01*
X113039500Y-66685866D01*
X113039501Y-66685870D01*
X113045908Y-66745480D01*
X113045909Y-66745485D01*
X113096202Y-66880329D01*
X113174433Y-66984832D01*
X113182454Y-66995546D01*
X113182457Y-66995548D01*
X113182458Y-66995549D01*
X113297670Y-67081797D01*
X113432511Y-67132089D01*
X113432512Y-67132089D01*
X113432517Y-67132091D01*
X113492127Y-67138500D01*
X114787872Y-67138499D01*
X114847483Y-67132091D01*
X114914907Y-67106943D01*
X114982329Y-67081797D01*
X114982329Y-67081796D01*
X114982331Y-67081796D01*
X115097546Y-66995546D01*
X115183796Y-66880331D01*
X115234091Y-66745483D01*
X115240500Y-66685873D01*
X115240499Y-65140128D01*
X115234091Y-65080517D01*
X115222493Y-65049420D01*
X115213012Y-65023999D01*
X115716988Y-65023999D01*
X115716988Y-65024000D01*
X115735907Y-65167708D01*
X115735908Y-65167709D01*
X115791377Y-65301625D01*
X115879617Y-65416621D01*
X115994613Y-65504861D01*
X116128529Y-65560330D01*
X116272238Y-65579250D01*
X116415947Y-65560330D01*
X116549863Y-65504861D01*
X116664859Y-65416621D01*
X116753099Y-65301625D01*
X116808568Y-65167709D01*
X116827488Y-65024000D01*
X116817175Y-64945670D01*
X116808568Y-64880291D01*
X116753099Y-64746375D01*
X116664859Y-64631379D01*
X116549863Y-64543139D01*
X116549859Y-64543137D01*
X116415947Y-64487670D01*
X116415946Y-64487669D01*
X116272238Y-64468750D01*
X116128529Y-64487669D01*
X116128528Y-64487670D01*
X115994616Y-64543137D01*
X115994612Y-64543139D01*
X115879619Y-64631377D01*
X115879615Y-64631381D01*
X115791377Y-64746374D01*
X115791375Y-64746378D01*
X115735908Y-64880290D01*
X115735907Y-64880291D01*
X115716988Y-65023999D01*
X115213012Y-65023999D01*
X115183797Y-64945670D01*
X115097549Y-64830458D01*
X115097548Y-64830457D01*
X115097546Y-64830454D01*
X115097541Y-64830450D01*
X114982329Y-64744202D01*
X114847488Y-64693910D01*
X114847483Y-64693909D01*
X114847481Y-64693908D01*
X114847477Y-64693908D01*
X114816249Y-64690550D01*
X114787873Y-64687500D01*
X114787870Y-64687500D01*
X113492133Y-64687500D01*
X113492129Y-64687500D01*
X113492128Y-64687501D01*
X113484949Y-64688272D01*
X113432519Y-64693908D01*
X113432514Y-64693909D01*
X113297670Y-64744202D01*
X113182458Y-64830450D01*
X113182450Y-64830458D01*
X113096202Y-64945670D01*
X113045910Y-65080511D01*
X113045908Y-65080522D01*
X113039500Y-65140129D01*
X112529587Y-65140129D01*
X112479414Y-65071072D01*
X112356928Y-64948586D01*
X112216788Y-64846768D01*
X112216787Y-64846767D01*
X112216785Y-64846766D01*
X112062441Y-64768125D01*
X112062438Y-64768123D01*
X111897706Y-64714598D01*
X111897702Y-64714597D01*
X111726614Y-64687500D01*
X111726611Y-64687500D01*
X111553389Y-64687500D01*
X111553386Y-64687500D01*
X111382297Y-64714597D01*
X111382293Y-64714598D01*
X111217561Y-64768123D01*
X111217558Y-64768125D01*
X111063214Y-64846766D01*
X110923073Y-64948585D01*
X110800585Y-65071073D01*
X110698766Y-65211214D01*
X110620125Y-65365558D01*
X110620123Y-65365561D01*
X110566598Y-65530293D01*
X110566597Y-65530297D01*
X110539500Y-65701385D01*
X110240500Y-65701385D01*
X110213402Y-65530297D01*
X110213401Y-65530293D01*
X110159876Y-65365561D01*
X110159874Y-65365558D01*
X110159873Y-65365557D01*
X110159873Y-65365555D01*
X110081232Y-65211212D01*
X109979414Y-65071072D01*
X109856928Y-64948586D01*
X109716788Y-64846768D01*
X109716787Y-64846767D01*
X109716785Y-64846766D01*
X109562441Y-64768125D01*
X109562438Y-64768123D01*
X109397706Y-64714598D01*
X109397702Y-64714597D01*
X109226614Y-64687500D01*
X109226611Y-64687500D01*
X109053389Y-64687500D01*
X109053386Y-64687500D01*
X108882297Y-64714597D01*
X108882293Y-64714598D01*
X108717561Y-64768123D01*
X108717558Y-64768125D01*
X108563214Y-64846766D01*
X108423073Y-64948585D01*
X108300585Y-65071073D01*
X108198766Y-65211214D01*
X108120125Y-65365558D01*
X108120123Y-65365561D01*
X108066598Y-65530293D01*
X108066597Y-65530297D01*
X108039500Y-65701385D01*
X107740500Y-65701385D01*
X107713402Y-65530297D01*
X107713401Y-65530293D01*
X107659876Y-65365561D01*
X107659874Y-65365558D01*
X107659873Y-65365557D01*
X107659873Y-65365555D01*
X107581232Y-65211212D01*
X107479414Y-65071072D01*
X107356928Y-64948586D01*
X107216788Y-64846768D01*
X107216787Y-64846767D01*
X107216785Y-64846766D01*
X107062441Y-64768125D01*
X107062438Y-64768123D01*
X106897706Y-64714598D01*
X106897702Y-64714597D01*
X106726614Y-64687500D01*
X106726611Y-64687500D01*
X106553389Y-64687500D01*
X106553386Y-64687500D01*
X106382297Y-64714597D01*
X106382293Y-64714598D01*
X106217561Y-64768123D01*
X106217558Y-64768125D01*
X106063214Y-64846766D01*
X105923073Y-64948585D01*
X105800585Y-65071073D01*
X105698766Y-65211214D01*
X105620125Y-65365558D01*
X105620123Y-65365561D01*
X105566598Y-65530293D01*
X105566597Y-65530297D01*
X105539500Y-65701385D01*
X105240500Y-65701385D01*
X105213402Y-65530297D01*
X105213401Y-65530293D01*
X105159876Y-65365561D01*
X105159874Y-65365558D01*
X105159873Y-65365557D01*
X105159873Y-65365555D01*
X105081232Y-65211212D01*
X104979414Y-65071072D01*
X104856928Y-64948586D01*
X104716788Y-64846768D01*
X104716787Y-64846767D01*
X104716785Y-64846766D01*
X104562441Y-64768125D01*
X104562438Y-64768123D01*
X104397706Y-64714598D01*
X104397702Y-64714597D01*
X104226614Y-64687500D01*
X104226611Y-64687500D01*
X104053389Y-64687500D01*
X104053386Y-64687500D01*
X103882297Y-64714597D01*
X103882293Y-64714598D01*
X103717561Y-64768123D01*
X103717558Y-64768125D01*
X103563214Y-64846766D01*
X103423069Y-64948588D01*
X103322237Y-65049420D01*
X103267721Y-65077197D01*
X103207289Y-65067625D01*
X103164024Y-65024361D01*
X103154081Y-64992341D01*
X103139330Y-64880291D01*
X103083861Y-64746375D01*
X102995621Y-64631379D01*
X102880625Y-64543139D01*
X102880621Y-64543137D01*
X102746709Y-64487670D01*
X102746708Y-64487669D01*
X102603000Y-64468750D01*
X102459291Y-64487669D01*
X102459290Y-64487670D01*
X102325378Y-64543137D01*
X102325374Y-64543139D01*
X102210381Y-64631377D01*
X102210377Y-64631381D01*
X102122139Y-64746374D01*
X102122137Y-64746378D01*
X102066670Y-64880290D01*
X102066669Y-64880291D01*
X102047750Y-65023999D01*
X100449500Y-65023999D01*
X100449500Y-60705999D01*
X102314750Y-60705999D01*
X102314750Y-60706000D01*
X102333669Y-60849708D01*
X102333670Y-60849709D01*
X102384865Y-60973308D01*
X102389139Y-60983625D01*
X102477379Y-61098621D01*
X102592375Y-61186861D01*
X102726291Y-61242330D01*
X102870000Y-61261250D01*
X103013709Y-61242330D01*
X103147625Y-61186861D01*
X103238647Y-61117017D01*
X105985750Y-61117017D01*
X105985750Y-61117018D01*
X106004669Y-61260726D01*
X106004670Y-61260727D01*
X106049432Y-61368795D01*
X106060139Y-61394643D01*
X106148379Y-61509639D01*
X106263375Y-61597879D01*
X106397291Y-61653348D01*
X106541000Y-61672268D01*
X106684709Y-61653348D01*
X106818625Y-61597879D01*
X106933621Y-61509639D01*
X107021861Y-61394643D01*
X107077330Y-61260727D01*
X107096250Y-61117018D01*
X107085151Y-61032718D01*
X107077330Y-60973309D01*
X107021861Y-60839393D01*
X106933621Y-60724397D01*
X106818625Y-60636157D01*
X106818621Y-60636155D01*
X106684709Y-60580688D01*
X106684708Y-60580687D01*
X106541000Y-60561768D01*
X106397291Y-60580687D01*
X106397290Y-60580688D01*
X106263378Y-60636155D01*
X106263374Y-60636157D01*
X106148381Y-60724395D01*
X106148377Y-60724399D01*
X106060139Y-60839392D01*
X106060137Y-60839396D01*
X106004670Y-60973308D01*
X106004669Y-60973309D01*
X105985750Y-61117017D01*
X103238647Y-61117017D01*
X103262621Y-61098621D01*
X103350861Y-60983625D01*
X103406330Y-60849709D01*
X103425250Y-60706000D01*
X103406330Y-60562291D01*
X103350861Y-60428375D01*
X103262621Y-60313379D01*
X103147625Y-60225139D01*
X103147621Y-60225137D01*
X103013709Y-60169670D01*
X103013708Y-60169669D01*
X102870000Y-60150750D01*
X102726291Y-60169669D01*
X102726290Y-60169670D01*
X102592378Y-60225137D01*
X102592374Y-60225139D01*
X102477381Y-60313377D01*
X102477377Y-60313381D01*
X102389139Y-60428374D01*
X102389137Y-60428378D01*
X102333670Y-60562290D01*
X102333669Y-60562291D01*
X102314750Y-60705999D01*
X100449500Y-60705999D01*
X100449500Y-58451252D01*
X100458744Y-58422800D01*
X100457574Y-58418489D01*
X100638258Y-58418489D01*
X100647023Y-58441549D01*
X100663251Y-58606325D01*
X100663252Y-58606328D01*
X100663253Y-58606331D01*
X100716911Y-58783218D01*
X100717605Y-58785504D01*
X100717606Y-58785506D01*
X100805859Y-58950617D01*
X100805862Y-58950622D01*
X100805864Y-58950625D01*
X100855395Y-59010978D01*
X100924638Y-59095352D01*
X100924647Y-59095361D01*
X100992145Y-59150755D01*
X101069375Y-59214136D01*
X101069380Y-59214138D01*
X101069382Y-59214140D01*
X101234493Y-59302393D01*
X101234499Y-59302396D01*
X101413669Y-59356747D01*
X101413671Y-59356747D01*
X101413674Y-59356748D01*
X101599996Y-59375099D01*
X101600000Y-59375099D01*
X101600004Y-59375099D01*
X101786325Y-59356748D01*
X101786326Y-59356747D01*
X101786331Y-59356747D01*
X101965501Y-59302396D01*
X102130625Y-59214136D01*
X102275357Y-59095357D01*
X102394136Y-58950625D01*
X102482396Y-58785501D01*
X102536747Y-58606331D01*
X102554824Y-58422800D01*
X102555099Y-58420004D01*
X102555099Y-58419995D01*
X102536748Y-58233674D01*
X102536747Y-58233671D01*
X102536747Y-58233669D01*
X102482396Y-58054499D01*
X102396404Y-57893618D01*
X102394140Y-57889382D01*
X102394138Y-57889380D01*
X102394136Y-57889375D01*
X102322146Y-57801655D01*
X102275361Y-57744647D01*
X102275352Y-57744638D01*
X102151153Y-57642711D01*
X102130625Y-57625864D01*
X102130622Y-57625862D01*
X102130617Y-57625859D01*
X101965506Y-57537606D01*
X101965504Y-57537605D01*
X101786328Y-57483252D01*
X101786325Y-57483251D01*
X101600004Y-57464901D01*
X101599996Y-57464901D01*
X101413674Y-57483251D01*
X101413671Y-57483252D01*
X101234495Y-57537605D01*
X101234493Y-57537606D01*
X101069382Y-57625859D01*
X101069376Y-57625863D01*
X100924647Y-57744638D01*
X100924638Y-57744647D01*
X100805863Y-57889376D01*
X100805859Y-57889382D01*
X100717606Y-58054493D01*
X100717605Y-58054495D01*
X100663252Y-58233671D01*
X100663251Y-58233673D01*
X100647023Y-58398451D01*
X100638258Y-58418489D01*
X100457574Y-58418489D01*
X100449500Y-58388747D01*
X100449500Y-55911252D01*
X100458744Y-55882800D01*
X100457574Y-55878489D01*
X100638258Y-55878489D01*
X100647023Y-55901549D01*
X100663251Y-56066325D01*
X100663252Y-56066328D01*
X100671792Y-56094479D01*
X100693824Y-56167111D01*
X100717605Y-56245504D01*
X100717606Y-56245506D01*
X100805859Y-56410617D01*
X100805862Y-56410622D01*
X100805864Y-56410625D01*
X100855395Y-56470978D01*
X100924638Y-56555352D01*
X100924647Y-56555361D01*
X100992145Y-56610755D01*
X101069375Y-56674136D01*
X101234499Y-56762396D01*
X101413669Y-56816747D01*
X101413671Y-56816747D01*
X101413674Y-56816748D01*
X101599996Y-56835099D01*
X101600000Y-56835099D01*
X101600004Y-56835099D01*
X101786325Y-56816748D01*
X101786326Y-56816747D01*
X101786331Y-56816747D01*
X101965501Y-56762396D01*
X102130625Y-56674136D01*
X102275357Y-56555357D01*
X102394136Y-56410625D01*
X102482396Y-56245501D01*
X102536747Y-56066331D01*
X102539437Y-56039028D01*
X102555099Y-55880004D01*
X102555099Y-55879995D01*
X102536748Y-55693674D01*
X102536747Y-55693671D01*
X102536747Y-55693669D01*
X102482396Y-55514499D01*
X102479113Y-55508356D01*
X102394140Y-55349382D01*
X102394138Y-55349380D01*
X102394136Y-55349375D01*
X102330755Y-55272145D01*
X102275361Y-55204647D01*
X102275352Y-55204638D01*
X102185622Y-55130999D01*
X102130625Y-55085864D01*
X102130622Y-55085862D01*
X102130617Y-55085859D01*
X101965506Y-54997606D01*
X101965504Y-54997605D01*
X101786328Y-54943252D01*
X101786325Y-54943251D01*
X101600004Y-54924901D01*
X101599996Y-54924901D01*
X101413674Y-54943251D01*
X101413671Y-54943252D01*
X101234495Y-54997605D01*
X101234493Y-54997606D01*
X101069382Y-55085859D01*
X101069376Y-55085863D01*
X100924647Y-55204638D01*
X100924638Y-55204647D01*
X100805863Y-55349376D01*
X100805859Y-55349382D01*
X100717606Y-55514493D01*
X100717605Y-55514495D01*
X100663252Y-55693671D01*
X100663251Y-55693673D01*
X100647023Y-55858451D01*
X100638258Y-55878489D01*
X100457574Y-55878489D01*
X100449500Y-55848747D01*
X100449500Y-53371252D01*
X100458744Y-53342800D01*
X100457574Y-53338489D01*
X100638258Y-53338489D01*
X100647023Y-53361549D01*
X100663251Y-53526325D01*
X100663252Y-53526328D01*
X100717605Y-53705504D01*
X100717606Y-53705506D01*
X100805859Y-53870617D01*
X100805862Y-53870622D01*
X100805864Y-53870625D01*
X100809568Y-53875138D01*
X100924638Y-54015352D01*
X100924647Y-54015361D01*
X100955612Y-54040773D01*
X101069375Y-54134136D01*
X101069380Y-54134138D01*
X101069382Y-54134140D01*
X101234493Y-54222393D01*
X101234499Y-54222396D01*
X101413669Y-54276747D01*
X101413671Y-54276747D01*
X101413674Y-54276748D01*
X101599996Y-54295099D01*
X101600000Y-54295099D01*
X101600004Y-54295099D01*
X101786325Y-54276748D01*
X101786326Y-54276747D01*
X101786331Y-54276747D01*
X101880381Y-54248217D01*
X103331574Y-54248217D01*
X103331574Y-54248218D01*
X103350493Y-54391926D01*
X103350494Y-54391927D01*
X103395137Y-54499708D01*
X103405963Y-54525843D01*
X103494203Y-54640839D01*
X103609199Y-54729079D01*
X103684257Y-54760168D01*
X103730781Y-54799902D01*
X103745065Y-54859397D01*
X103741439Y-54879250D01*
X103712434Y-54979087D01*
X103712432Y-54979096D01*
X103709669Y-55014217D01*
X103709670Y-55014218D01*
X104380600Y-55014218D01*
X104438791Y-55033125D01*
X104474755Y-55082625D01*
X104479600Y-55113218D01*
X104479600Y-55415218D01*
X104460693Y-55473409D01*
X104411193Y-55509373D01*
X104380600Y-55514218D01*
X103709669Y-55514218D01*
X103712432Y-55549339D01*
X103712434Y-55549345D01*
X103757195Y-55703413D01*
X103757195Y-55703414D01*
X103838861Y-55841503D01*
X103956716Y-55959358D01*
X103954453Y-55961620D01*
X103981734Y-56001365D01*
X103984575Y-56044912D01*
X103979100Y-56079479D01*
X103979100Y-56480955D01*
X103993583Y-56572392D01*
X103993584Y-56572396D01*
X104029600Y-56643080D01*
X104049741Y-56682609D01*
X104136033Y-56768901D01*
X104161654Y-56813279D01*
X104182984Y-56892884D01*
X104182985Y-56892886D01*
X104182986Y-56892888D01*
X104229130Y-56972812D01*
X104493442Y-57237124D01*
X104738941Y-57482623D01*
X104766718Y-57537140D01*
X104757147Y-57597572D01*
X104749280Y-57610039D01*
X104682209Y-57726210D01*
X104682208Y-57726214D01*
X104675743Y-57750341D01*
X104642420Y-57801655D01*
X104585299Y-57823582D01*
X104580117Y-57823718D01*
X104223926Y-57823718D01*
X104223925Y-57823718D01*
X104223915Y-57823719D01*
X104150863Y-57838251D01*
X104150857Y-57838253D01*
X104068000Y-57893615D01*
X104067997Y-57893618D01*
X104012635Y-57976475D01*
X104012633Y-57976481D01*
X103998101Y-58049533D01*
X103998100Y-58049545D01*
X103998100Y-60098890D01*
X103998101Y-60098902D01*
X104012633Y-60171954D01*
X104012635Y-60171960D01*
X104067997Y-60254817D01*
X104068000Y-60254820D01*
X104115683Y-60286680D01*
X104150860Y-60310184D01*
X104206408Y-60321233D01*
X104223915Y-60324716D01*
X104223920Y-60324716D01*
X104223926Y-60324718D01*
X104223927Y-60324718D01*
X106073273Y-60324718D01*
X106073274Y-60324718D01*
X106146340Y-60310184D01*
X106171798Y-60293173D01*
X106230685Y-60276564D01*
X106264128Y-60286256D01*
X106264982Y-60284196D01*
X106296943Y-60297434D01*
X106404893Y-60342148D01*
X106548602Y-60361068D01*
X106692311Y-60342148D01*
X106826227Y-60286679D01*
X106941223Y-60198439D01*
X107029463Y-60083443D01*
X107084932Y-59949527D01*
X107103852Y-59805818D01*
X107084932Y-59662109D01*
X107029463Y-59528193D01*
X106941223Y-59413197D01*
X106826227Y-59324957D01*
X106826223Y-59324955D01*
X106692311Y-59269488D01*
X106692310Y-59269487D01*
X106548602Y-59250568D01*
X106411022Y-59268681D01*
X106350861Y-59257531D01*
X106308744Y-59213149D01*
X106299100Y-59170528D01*
X106299100Y-58049545D01*
X107998100Y-58049545D01*
X107998100Y-60098892D01*
X108006398Y-60140607D01*
X108008300Y-60159922D01*
X108008300Y-60451126D01*
X108008300Y-60582910D01*
X108033223Y-60675926D01*
X108042409Y-60710208D01*
X108108296Y-60824327D01*
X108108301Y-60824333D01*
X108123499Y-60839532D01*
X108216685Y-60932717D01*
X108216690Y-60932721D01*
X108330810Y-60998608D01*
X108330808Y-60998608D01*
X108330812Y-60998609D01*
X108330814Y-60998610D01*
X108458108Y-61032718D01*
X109688708Y-61032718D01*
X110250364Y-61032718D01*
X110308555Y-61051625D01*
X110329616Y-61072388D01*
X110348541Y-61097669D01*
X110364764Y-61119340D01*
X110380054Y-61139764D01*
X110380057Y-61139766D01*
X110380058Y-61139767D01*
X110495270Y-61226015D01*
X110630111Y-61276307D01*
X110630112Y-61276307D01*
X110630117Y-61276309D01*
X110689727Y-61282718D01*
X111508528Y-61282717D01*
X111566719Y-61301624D01*
X111602683Y-61351124D01*
X111606681Y-61368794D01*
X111616632Y-61444374D01*
X111625224Y-61509636D01*
X111625365Y-61510703D01*
X111625365Y-61510704D01*
X111661473Y-61597879D01*
X111680834Y-61644620D01*
X111769074Y-61759616D01*
X111884070Y-61847856D01*
X112017986Y-61903325D01*
X112161695Y-61922245D01*
X112305404Y-61903325D01*
X112439320Y-61847856D01*
X112554316Y-61759616D01*
X112642556Y-61644620D01*
X112698025Y-61510704D01*
X112716708Y-61368792D01*
X112743048Y-61313570D01*
X112796818Y-61284375D01*
X112814850Y-61282717D01*
X113767472Y-61282717D01*
X113827083Y-61276309D01*
X113894507Y-61251161D01*
X113961929Y-61226015D01*
X113961929Y-61226014D01*
X113961931Y-61226014D01*
X114077146Y-61139764D01*
X114127583Y-61072388D01*
X114177591Y-61037136D01*
X114206836Y-61032718D01*
X114385896Y-61032718D01*
X114444087Y-61051625D01*
X114455900Y-61061714D01*
X115293385Y-61899199D01*
X115314845Y-61931317D01*
X115343138Y-61999624D01*
X115343139Y-61999625D01*
X115431379Y-62114621D01*
X115546375Y-62202861D01*
X115680291Y-62258330D01*
X115824000Y-62277250D01*
X115967709Y-62258330D01*
X116101625Y-62202861D01*
X116216621Y-62114621D01*
X116304861Y-61999625D01*
X116360330Y-61865709D01*
X116379250Y-61722000D01*
X116370211Y-61653347D01*
X116360330Y-61578291D01*
X116304861Y-61444375D01*
X116216621Y-61329379D01*
X116101625Y-61241139D01*
X116101623Y-61241138D01*
X116047144Y-61218572D01*
X116000618Y-61178835D01*
X115986335Y-61119340D01*
X116009750Y-61062812D01*
X116047140Y-61035646D01*
X116101625Y-61013079D01*
X116216621Y-60924839D01*
X116304861Y-60809843D01*
X116360330Y-60675927D01*
X116379250Y-60532218D01*
X116360330Y-60388509D01*
X116304861Y-60254593D01*
X116216621Y-60139597D01*
X116101625Y-60051357D01*
X116101621Y-60051355D01*
X115967709Y-59995888D01*
X115967708Y-59995887D01*
X115824000Y-59976968D01*
X115680291Y-59995887D01*
X115680290Y-59995888D01*
X115611982Y-60024182D01*
X115574097Y-60031718D01*
X114206836Y-60031718D01*
X114148645Y-60012811D01*
X114127583Y-59992047D01*
X114095752Y-59949527D01*
X114077146Y-59924672D01*
X114077141Y-59924668D01*
X113961929Y-59838420D01*
X113875591Y-59806219D01*
X113827676Y-59768169D01*
X113811278Y-59709222D01*
X113832659Y-59651894D01*
X113879047Y-59619486D01*
X114038724Y-59566574D01*
X114187940Y-59474537D01*
X114311919Y-59350558D01*
X114403956Y-59201342D01*
X114459106Y-59034911D01*
X114469600Y-58932205D01*
X114469600Y-58882219D01*
X114469599Y-58882218D01*
X111311600Y-58882218D01*
X111253409Y-58863311D01*
X111217445Y-58813811D01*
X111212600Y-58783218D01*
X111212600Y-58632219D01*
X111212599Y-58632218D01*
X111061600Y-58632218D01*
X111003409Y-58613311D01*
X110967445Y-58563811D01*
X110962600Y-58533218D01*
X110962600Y-58419995D01*
X115884901Y-58419995D01*
X115884901Y-58420004D01*
X115903251Y-58606325D01*
X115903252Y-58606328D01*
X115903253Y-58606331D01*
X115956911Y-58783218D01*
X115957605Y-58785504D01*
X115957606Y-58785506D01*
X116045859Y-58950617D01*
X116045862Y-58950622D01*
X116045864Y-58950625D01*
X116095395Y-59010978D01*
X116164638Y-59095352D01*
X116164647Y-59095361D01*
X116232145Y-59150755D01*
X116309375Y-59214136D01*
X116309380Y-59214138D01*
X116309382Y-59214140D01*
X116474493Y-59302393D01*
X116474499Y-59302396D01*
X116653669Y-59356747D01*
X116653671Y-59356747D01*
X116653674Y-59356748D01*
X116839996Y-59375099D01*
X116840000Y-59375099D01*
X116840004Y-59375099D01*
X117026325Y-59356748D01*
X117026326Y-59356747D01*
X117026331Y-59356747D01*
X117205501Y-59302396D01*
X117370625Y-59214136D01*
X117515357Y-59095357D01*
X117634136Y-58950625D01*
X117722396Y-58785501D01*
X117776747Y-58606331D01*
X117794824Y-58422800D01*
X117795099Y-58420004D01*
X117795099Y-58419995D01*
X117776748Y-58233674D01*
X117776747Y-58233671D01*
X117776747Y-58233669D01*
X117722396Y-58054499D01*
X117636404Y-57893618D01*
X117634140Y-57889382D01*
X117634138Y-57889380D01*
X117634136Y-57889375D01*
X117562146Y-57801655D01*
X117515361Y-57744647D01*
X117515352Y-57744638D01*
X117391153Y-57642711D01*
X117370625Y-57625864D01*
X117370622Y-57625862D01*
X117370617Y-57625859D01*
X117205506Y-57537606D01*
X117205504Y-57537605D01*
X117026328Y-57483252D01*
X117026325Y-57483251D01*
X116840004Y-57464901D01*
X116839996Y-57464901D01*
X116653674Y-57483251D01*
X116653671Y-57483252D01*
X116474495Y-57537605D01*
X116474493Y-57537606D01*
X116309382Y-57625859D01*
X116309376Y-57625863D01*
X116164647Y-57744638D01*
X116164638Y-57744647D01*
X116045863Y-57889376D01*
X116045859Y-57889382D01*
X115957606Y-58054493D01*
X115957605Y-58054495D01*
X115903252Y-58233671D01*
X115903251Y-58233674D01*
X115884901Y-58419995D01*
X110962600Y-58419995D01*
X110962600Y-57632219D01*
X111462600Y-57632219D01*
X111462600Y-58382217D01*
X111462601Y-58382218D01*
X114469598Y-58382218D01*
X114469599Y-58382217D01*
X114469599Y-58332231D01*
X114458557Y-58224145D01*
X114459745Y-58224023D01*
X114465461Y-58168883D01*
X114492430Y-58134624D01*
X114492105Y-58134299D01*
X114494842Y-58131561D01*
X114495697Y-58130475D01*
X114496690Y-58129714D01*
X114584930Y-58014718D01*
X114640399Y-57880802D01*
X114657931Y-57747634D01*
X114684272Y-57692410D01*
X114738043Y-57663215D01*
X114746023Y-57662070D01*
X114790687Y-57657507D01*
X114790699Y-57657504D01*
X114957124Y-57602356D01*
X115106340Y-57510319D01*
X115230319Y-57386340D01*
X115322356Y-57237124D01*
X115377506Y-57070693D01*
X115388000Y-56967987D01*
X115388000Y-56843001D01*
X115387999Y-56843000D01*
X111688002Y-56843000D01*
X111688001Y-56843001D01*
X111688001Y-56967986D01*
X111698492Y-57070687D01*
X111698495Y-57070699D01*
X111753643Y-57237124D01*
X111845680Y-57386340D01*
X111936404Y-57477064D01*
X111964181Y-57531581D01*
X111954610Y-57592013D01*
X111911345Y-57635278D01*
X111850913Y-57644849D01*
X111845635Y-57643578D01*
X111845579Y-57643843D01*
X111840293Y-57642711D01*
X111737587Y-57632218D01*
X111462601Y-57632218D01*
X111462600Y-57632219D01*
X110962600Y-57632219D01*
X110962599Y-57632218D01*
X110687613Y-57632218D01*
X110584912Y-57642710D01*
X110584900Y-57642713D01*
X110418475Y-57697861D01*
X110269258Y-57789899D01*
X110269254Y-57789901D01*
X110245838Y-57813318D01*
X110191321Y-57841094D01*
X110156532Y-57836986D01*
X110155902Y-57840154D01*
X110073284Y-57823719D01*
X110073274Y-57823718D01*
X108223926Y-57823718D01*
X108223925Y-57823718D01*
X108223915Y-57823719D01*
X108150863Y-57838251D01*
X108150857Y-57838253D01*
X108068000Y-57893615D01*
X108067997Y-57893618D01*
X108012635Y-57976475D01*
X108012633Y-57976481D01*
X107998101Y-58049533D01*
X107998100Y-58049545D01*
X106299100Y-58049545D01*
X106299098Y-58049533D01*
X106292173Y-58014722D01*
X106284566Y-57976478D01*
X106229201Y-57893617D01*
X106229199Y-57893615D01*
X106146342Y-57838253D01*
X106137335Y-57834523D01*
X106138689Y-57831253D01*
X106100472Y-57809850D01*
X106074857Y-57754285D01*
X106086794Y-57694275D01*
X106103163Y-57672650D01*
X106604318Y-57171496D01*
X106658835Y-57143719D01*
X106674322Y-57142500D01*
X109323708Y-57142500D01*
X109323710Y-57142500D01*
X109451004Y-57108392D01*
X109451006Y-57108390D01*
X109451008Y-57108390D01*
X109565127Y-57042503D01*
X109565127Y-57042502D01*
X109565132Y-57042500D01*
X110105911Y-56501719D01*
X110105914Y-56501718D01*
X110199100Y-56408532D01*
X110264992Y-56294404D01*
X110279167Y-56241501D01*
X110299100Y-56167111D01*
X110299100Y-56107468D01*
X110318007Y-56049277D01*
X110367507Y-56013313D01*
X110428693Y-56013313D01*
X110439024Y-56017383D01*
X110600396Y-56070856D01*
X110699677Y-56080999D01*
X110748000Y-56080998D01*
X110748000Y-55381001D01*
X111248000Y-55381001D01*
X111248000Y-56080998D01*
X111248001Y-56080999D01*
X111296322Y-56080999D01*
X111395597Y-56070857D01*
X111395609Y-56070854D01*
X111556483Y-56017546D01*
X111558031Y-56016825D01*
X111559032Y-56016701D01*
X111561957Y-56015733D01*
X111562151Y-56016318D01*
X111618760Y-56009366D01*
X111672275Y-56039028D01*
X111698135Y-56094479D01*
X111698360Y-56116610D01*
X111688000Y-56218012D01*
X111688000Y-56342999D01*
X111688001Y-56343000D01*
X115387998Y-56343000D01*
X115387999Y-56342999D01*
X115387999Y-56218013D01*
X115377507Y-56115312D01*
X115377504Y-56115300D01*
X115322356Y-55948875D01*
X115279871Y-55879995D01*
X115884901Y-55879995D01*
X115884901Y-55880004D01*
X115903251Y-56066325D01*
X115903252Y-56066328D01*
X115911792Y-56094479D01*
X115933824Y-56167111D01*
X115957605Y-56245504D01*
X115957606Y-56245506D01*
X116045859Y-56410617D01*
X116045862Y-56410622D01*
X116045864Y-56410625D01*
X116095395Y-56470978D01*
X116164638Y-56555352D01*
X116164647Y-56555361D01*
X116232145Y-56610755D01*
X116309375Y-56674136D01*
X116474499Y-56762396D01*
X116653669Y-56816747D01*
X116653671Y-56816747D01*
X116653674Y-56816748D01*
X116839996Y-56835099D01*
X116840000Y-56835099D01*
X116840004Y-56835099D01*
X117026325Y-56816748D01*
X117026326Y-56816747D01*
X117026331Y-56816747D01*
X117205501Y-56762396D01*
X117370625Y-56674136D01*
X117515357Y-56555357D01*
X117634136Y-56410625D01*
X117722396Y-56245501D01*
X117776747Y-56066331D01*
X117779437Y-56039028D01*
X117795099Y-55880004D01*
X117795099Y-55879995D01*
X117776748Y-55693674D01*
X117776747Y-55693671D01*
X117776747Y-55693669D01*
X117722396Y-55514499D01*
X117719113Y-55508356D01*
X117634140Y-55349382D01*
X117634138Y-55349380D01*
X117634136Y-55349375D01*
X117570755Y-55272145D01*
X117515361Y-55204647D01*
X117515352Y-55204638D01*
X117425622Y-55130999D01*
X117370625Y-55085864D01*
X117370622Y-55085862D01*
X117370617Y-55085859D01*
X117205506Y-54997606D01*
X117205504Y-54997605D01*
X117026328Y-54943252D01*
X117026325Y-54943251D01*
X116840004Y-54924901D01*
X116839996Y-54924901D01*
X116653674Y-54943251D01*
X116653671Y-54943252D01*
X116474495Y-54997605D01*
X116474493Y-54997606D01*
X116309382Y-55085859D01*
X116309376Y-55085863D01*
X116164647Y-55204638D01*
X116164638Y-55204647D01*
X116045863Y-55349376D01*
X116045859Y-55349382D01*
X115957606Y-55514493D01*
X115957605Y-55514495D01*
X115903252Y-55693671D01*
X115903251Y-55693674D01*
X115884901Y-55879995D01*
X115279871Y-55879995D01*
X115230319Y-55799659D01*
X115106340Y-55675680D01*
X114957124Y-55583643D01*
X114790693Y-55528493D01*
X114687987Y-55518000D01*
X113926577Y-55518000D01*
X113868386Y-55499093D01*
X113832422Y-55449593D01*
X113828424Y-55406077D01*
X113831726Y-55381001D01*
X113839230Y-55324001D01*
X113820310Y-55180292D01*
X113764841Y-55046376D01*
X113676601Y-54931380D01*
X113561605Y-54843140D01*
X113561601Y-54843138D01*
X113427689Y-54787671D01*
X113427688Y-54787670D01*
X113283980Y-54768751D01*
X113140271Y-54787670D01*
X113140270Y-54787671D01*
X113006358Y-54843138D01*
X113006354Y-54843140D01*
X112891361Y-54931378D01*
X112891357Y-54931382D01*
X112803119Y-55046375D01*
X112803117Y-55046379D01*
X112747650Y-55180291D01*
X112747649Y-55180292D01*
X112728730Y-55324000D01*
X112728730Y-55324002D01*
X112739535Y-55406079D01*
X112728385Y-55466239D01*
X112684002Y-55508356D01*
X112641382Y-55518000D01*
X112388013Y-55518000D01*
X112285312Y-55528492D01*
X112285300Y-55528495D01*
X112118872Y-55583644D01*
X112114495Y-55586344D01*
X112055041Y-55600798D01*
X111998447Y-55577544D01*
X111966329Y-55525467D01*
X111964040Y-55492018D01*
X111973000Y-55404322D01*
X111973000Y-55381001D01*
X111972999Y-55381000D01*
X111248001Y-55381000D01*
X111248000Y-55381001D01*
X110748000Y-55381001D01*
X110748000Y-55230000D01*
X110766907Y-55171809D01*
X110816407Y-55135845D01*
X110847000Y-55131000D01*
X110997999Y-55131000D01*
X110998000Y-55130999D01*
X110998000Y-54980000D01*
X111016907Y-54921809D01*
X111066407Y-54885845D01*
X111097000Y-54881000D01*
X111972998Y-54881000D01*
X111972999Y-54880999D01*
X111972999Y-54857677D01*
X111962857Y-54758402D01*
X111962854Y-54758390D01*
X111909545Y-54597512D01*
X111820574Y-54453270D01*
X111700730Y-54333426D01*
X111699670Y-54332588D01*
X111699227Y-54331923D01*
X111696654Y-54329350D01*
X111697169Y-54328834D01*
X111665749Y-54281666D01*
X111668237Y-54220532D01*
X111706185Y-54172535D01*
X111765096Y-54156010D01*
X111798955Y-54163464D01*
X111846951Y-54183344D01*
X111858566Y-54189071D01*
X111859685Y-54189717D01*
X111859686Y-54189718D01*
X111973814Y-54255610D01*
X112008624Y-54264937D01*
X112059938Y-54298259D01*
X112062254Y-54301234D01*
X112080454Y-54325546D01*
X112080457Y-54325548D01*
X112080458Y-54325549D01*
X112195670Y-54411797D01*
X112330511Y-54462089D01*
X112330512Y-54462089D01*
X112330517Y-54462091D01*
X112390127Y-54468500D01*
X114425677Y-54468499D01*
X114483868Y-54487406D01*
X114495681Y-54497495D01*
X114531384Y-54533198D01*
X114552844Y-54565316D01*
X114581139Y-54633625D01*
X114669379Y-54748621D01*
X114784375Y-54836861D01*
X114918291Y-54892330D01*
X115062000Y-54911250D01*
X115205709Y-54892330D01*
X115339625Y-54836861D01*
X115454621Y-54748621D01*
X115542861Y-54633625D01*
X115598330Y-54499709D01*
X115617250Y-54356000D01*
X115617245Y-54355965D01*
X115598330Y-54212291D01*
X115542861Y-54078375D01*
X115454621Y-53963379D01*
X115339625Y-53875139D01*
X115339623Y-53875138D01*
X115271314Y-53846843D01*
X115239198Y-53825384D01*
X115167494Y-53753681D01*
X115139718Y-53699165D01*
X115138499Y-53683678D01*
X115138499Y-53339995D01*
X115884901Y-53339995D01*
X115884901Y-53340004D01*
X115903251Y-53526325D01*
X115903252Y-53526328D01*
X115957605Y-53705504D01*
X115957606Y-53705506D01*
X116045859Y-53870617D01*
X116045862Y-53870622D01*
X116045864Y-53870625D01*
X116049568Y-53875138D01*
X116164638Y-54015352D01*
X116164647Y-54015361D01*
X116195612Y-54040773D01*
X116309375Y-54134136D01*
X116309380Y-54134138D01*
X116309382Y-54134140D01*
X116474493Y-54222393D01*
X116474499Y-54222396D01*
X116653669Y-54276747D01*
X116653671Y-54276747D01*
X116653674Y-54276748D01*
X116839996Y-54295099D01*
X116840000Y-54295099D01*
X116840004Y-54295099D01*
X117026325Y-54276748D01*
X117026326Y-54276747D01*
X117026331Y-54276747D01*
X117205501Y-54222396D01*
X117370625Y-54134136D01*
X117515357Y-54015357D01*
X117634136Y-53870625D01*
X117722396Y-53705501D01*
X117776747Y-53526331D01*
X117776938Y-53524397D01*
X117795099Y-53340004D01*
X117795099Y-53339995D01*
X117776748Y-53153674D01*
X117776747Y-53153671D01*
X117776747Y-53153669D01*
X117722396Y-52974499D01*
X117714891Y-52960458D01*
X117634140Y-52809382D01*
X117634138Y-52809380D01*
X117634136Y-52809375D01*
X117538621Y-52692990D01*
X117515361Y-52664647D01*
X117515352Y-52664638D01*
X117418568Y-52585210D01*
X117370625Y-52545864D01*
X117370622Y-52545862D01*
X117370617Y-52545859D01*
X117205506Y-52457606D01*
X117205504Y-52457605D01*
X117026328Y-52403252D01*
X117026325Y-52403251D01*
X116840004Y-52384901D01*
X116839996Y-52384901D01*
X116653674Y-52403251D01*
X116653671Y-52403252D01*
X116474495Y-52457605D01*
X116474493Y-52457606D01*
X116309382Y-52545859D01*
X116309376Y-52545863D01*
X116164647Y-52664638D01*
X116164638Y-52664647D01*
X116045863Y-52809376D01*
X116045859Y-52809382D01*
X115957606Y-52974493D01*
X115957605Y-52974495D01*
X115903252Y-53153671D01*
X115903251Y-53153674D01*
X115884901Y-53339995D01*
X115138499Y-53339995D01*
X115138499Y-53270133D01*
X115138499Y-53270128D01*
X115132091Y-53210517D01*
X115126880Y-53196545D01*
X115081797Y-53075670D01*
X114995549Y-52960458D01*
X114995548Y-52960457D01*
X114995546Y-52960454D01*
X114995541Y-52960450D01*
X114880329Y-52874202D01*
X114745488Y-52823910D01*
X114745483Y-52823909D01*
X114745481Y-52823908D01*
X114745477Y-52823908D01*
X114714249Y-52820550D01*
X114685873Y-52817500D01*
X114685870Y-52817500D01*
X112390133Y-52817500D01*
X112390129Y-52817500D01*
X112390128Y-52817501D01*
X112382949Y-52818272D01*
X112330519Y-52823908D01*
X112330514Y-52823909D01*
X112195670Y-52874202D01*
X112080452Y-52960455D01*
X112080450Y-52960457D01*
X112076278Y-52966030D01*
X112026267Y-53001281D01*
X111971406Y-53002324D01*
X111909428Y-52985718D01*
X111579767Y-52985718D01*
X111521576Y-52966811D01*
X111520439Y-52965972D01*
X111478228Y-52934373D01*
X111478226Y-52934372D01*
X111350114Y-52886588D01*
X111350113Y-52886587D01*
X111311895Y-52882479D01*
X111293485Y-52880500D01*
X111293481Y-52880500D01*
X110702521Y-52880500D01*
X110702515Y-52880501D01*
X110645888Y-52886587D01*
X110645886Y-52886588D01*
X110517774Y-52934372D01*
X110517773Y-52934372D01*
X110517772Y-52934373D01*
X110475561Y-52965972D01*
X110417646Y-52985708D01*
X110416233Y-52985718D01*
X109496903Y-52985718D01*
X109459018Y-52978182D01*
X109431565Y-52966811D01*
X109390709Y-52949888D01*
X109390708Y-52949887D01*
X109247000Y-52930968D01*
X109103291Y-52949887D01*
X109103290Y-52949888D01*
X109071196Y-52963182D01*
X109033311Y-52970718D01*
X109005890Y-52970718D01*
X108947699Y-52951811D01*
X108911735Y-52902311D01*
X108907898Y-52857629D01*
X108913133Y-52821218D01*
X108913133Y-52821213D01*
X108894697Y-52692990D01*
X108881749Y-52664638D01*
X108840882Y-52575153D01*
X108756049Y-52477249D01*
X108756048Y-52477248D01*
X108756047Y-52477247D01*
X108647073Y-52407214D01*
X108647070Y-52407212D01*
X108647069Y-52407212D01*
X108633586Y-52403253D01*
X108522774Y-52370716D01*
X108522772Y-52370716D01*
X108393228Y-52370716D01*
X108393225Y-52370716D01*
X108268933Y-52407211D01*
X108268926Y-52407214D01*
X108159952Y-52477247D01*
X108075117Y-52575154D01*
X108021302Y-52692990D01*
X108002867Y-52821213D01*
X108002867Y-52821218D01*
X108021301Y-52949439D01*
X108054239Y-53021562D01*
X108061213Y-53082349D01*
X108046505Y-53117683D01*
X108042636Y-53123474D01*
X108042633Y-53123481D01*
X108028101Y-53196533D01*
X108028100Y-53196545D01*
X108028100Y-53775890D01*
X108028101Y-53775902D01*
X108042633Y-53848954D01*
X108042636Y-53848963D01*
X108080892Y-53906218D01*
X108097500Y-53965106D01*
X108080892Y-54016218D01*
X108042636Y-54073472D01*
X108042633Y-54073481D01*
X108028101Y-54146533D01*
X108028100Y-54146545D01*
X108028100Y-54634605D01*
X108009193Y-54692796D01*
X107988430Y-54713858D01*
X107921412Y-54764028D01*
X107921407Y-54764033D01*
X107835247Y-54879127D01*
X107835246Y-54879129D01*
X107785003Y-55013836D01*
X107785001Y-55013847D01*
X107778600Y-55073393D01*
X107778600Y-55136217D01*
X107778601Y-55136218D01*
X108714600Y-55136218D01*
X108772791Y-55155125D01*
X108808755Y-55204625D01*
X108813600Y-55235218D01*
X108813600Y-55537218D01*
X108794693Y-55595409D01*
X108745193Y-55631373D01*
X108714600Y-55636218D01*
X107778601Y-55636218D01*
X107778600Y-55636219D01*
X107778600Y-55699042D01*
X107778599Y-55699042D01*
X107785001Y-55758588D01*
X107785003Y-55758599D01*
X107835246Y-55893306D01*
X107835247Y-55893308D01*
X107902519Y-55983171D01*
X107922256Y-56041085D01*
X107904182Y-56099540D01*
X107855201Y-56136208D01*
X107823266Y-56141500D01*
X106493007Y-56141500D01*
X106434816Y-56122593D01*
X106398852Y-56073093D01*
X106398852Y-56011907D01*
X106423001Y-55972497D01*
X106464786Y-55930713D01*
X106519302Y-55902937D01*
X106534789Y-55901718D01*
X107073273Y-55901718D01*
X107073274Y-55901718D01*
X107146340Y-55887184D01*
X107229201Y-55831819D01*
X107284566Y-55748958D01*
X107299100Y-55675892D01*
X107299100Y-55096544D01*
X107284566Y-55023478D01*
X107246306Y-54966217D01*
X107229699Y-54907331D01*
X107246307Y-54856217D01*
X107284566Y-54798958D01*
X107299100Y-54725892D01*
X107299100Y-54146544D01*
X107284566Y-54073478D01*
X107246306Y-54016217D01*
X107229699Y-53957331D01*
X107246307Y-53906217D01*
X107284566Y-53848958D01*
X107299100Y-53775892D01*
X107299100Y-53196544D01*
X107284566Y-53123478D01*
X107252622Y-53075669D01*
X107229202Y-53040618D01*
X107229199Y-53040615D01*
X107146342Y-52985253D01*
X107146340Y-52985252D01*
X107146337Y-52985251D01*
X107146336Y-52985251D01*
X107073284Y-52970719D01*
X107073274Y-52970718D01*
X107073273Y-52970718D01*
X106061914Y-52970718D01*
X106003723Y-52951811D01*
X105973705Y-52916664D01*
X105952069Y-52874202D01*
X105929459Y-52829827D01*
X105841991Y-52742359D01*
X105731775Y-52686201D01*
X105731776Y-52686201D01*
X105640336Y-52671718D01*
X105298862Y-52671718D01*
X105207425Y-52686201D01*
X105207421Y-52686202D01*
X105097210Y-52742358D01*
X105097209Y-52742358D01*
X105097209Y-52742359D01*
X105059601Y-52779966D01*
X105005087Y-52807742D01*
X104944655Y-52798171D01*
X104919599Y-52779967D01*
X104881991Y-52742359D01*
X104771775Y-52686201D01*
X104771776Y-52686201D01*
X104680336Y-52671718D01*
X104338862Y-52671718D01*
X104247425Y-52686201D01*
X104247421Y-52686202D01*
X104137210Y-52742358D01*
X104049740Y-52829828D01*
X103993583Y-52940041D01*
X103979100Y-53031481D01*
X103979100Y-53432955D01*
X103993583Y-53524392D01*
X103993584Y-53524397D01*
X104007902Y-53552497D01*
X104017473Y-53612929D01*
X103989695Y-53667445D01*
X103935178Y-53695222D01*
X103906769Y-53695593D01*
X103886824Y-53692968D01*
X103886823Y-53692968D01*
X103743115Y-53711887D01*
X103743114Y-53711888D01*
X103609202Y-53767355D01*
X103609198Y-53767357D01*
X103494205Y-53855595D01*
X103494201Y-53855599D01*
X103405963Y-53970592D01*
X103405961Y-53970596D01*
X103350494Y-54104508D01*
X103350493Y-54104509D01*
X103331574Y-54248217D01*
X101880381Y-54248217D01*
X101965501Y-54222396D01*
X102130625Y-54134136D01*
X102275357Y-54015357D01*
X102394136Y-53870625D01*
X102482396Y-53705501D01*
X102536747Y-53526331D01*
X102536938Y-53524397D01*
X102555099Y-53340004D01*
X102555099Y-53339995D01*
X102536748Y-53153674D01*
X102536747Y-53153671D01*
X102536747Y-53153669D01*
X102482396Y-52974499D01*
X102474891Y-52960458D01*
X102394140Y-52809382D01*
X102394138Y-52809380D01*
X102394136Y-52809375D01*
X102298621Y-52692990D01*
X102275361Y-52664647D01*
X102275352Y-52664638D01*
X102178568Y-52585210D01*
X102130625Y-52545864D01*
X102130622Y-52545862D01*
X102130617Y-52545859D01*
X101965506Y-52457606D01*
X101965504Y-52457605D01*
X101786328Y-52403252D01*
X101786325Y-52403251D01*
X101600004Y-52384901D01*
X101599996Y-52384901D01*
X101413674Y-52403251D01*
X101413671Y-52403252D01*
X101234495Y-52457605D01*
X101234493Y-52457606D01*
X101069382Y-52545859D01*
X101069376Y-52545863D01*
X100924647Y-52664638D01*
X100924638Y-52664647D01*
X100805863Y-52809376D01*
X100805859Y-52809382D01*
X100717606Y-52974493D01*
X100717605Y-52974495D01*
X100663252Y-53153671D01*
X100663251Y-53153673D01*
X100647023Y-53318451D01*
X100638258Y-53338489D01*
X100457574Y-53338489D01*
X100449500Y-53308747D01*
X100449500Y-50831252D01*
X100458744Y-50802800D01*
X100457574Y-50798489D01*
X100638258Y-50798489D01*
X100647023Y-50821549D01*
X100663251Y-50986325D01*
X100663252Y-50986328D01*
X100663253Y-50986331D01*
X100714628Y-51155692D01*
X100717605Y-51165504D01*
X100717606Y-51165506D01*
X100805859Y-51330617D01*
X100805862Y-51330622D01*
X100805864Y-51330625D01*
X100835178Y-51366344D01*
X100924638Y-51475352D01*
X100924647Y-51475361D01*
X100982798Y-51523084D01*
X101069375Y-51594136D01*
X101069380Y-51594138D01*
X101069382Y-51594140D01*
X101225934Y-51677818D01*
X101234499Y-51682396D01*
X101413669Y-51736747D01*
X101413671Y-51736747D01*
X101413674Y-51736748D01*
X101599996Y-51755099D01*
X101600000Y-51755099D01*
X101600004Y-51755099D01*
X101786325Y-51736748D01*
X101786326Y-51736747D01*
X101786331Y-51736747D01*
X101965501Y-51682396D01*
X102130625Y-51594136D01*
X102275357Y-51475357D01*
X102394136Y-51330625D01*
X102482396Y-51165501D01*
X102483240Y-51162719D01*
X103122801Y-51162719D01*
X103122801Y-51437704D01*
X103133292Y-51540405D01*
X103133295Y-51540417D01*
X103188443Y-51706842D01*
X103280480Y-51856058D01*
X103404459Y-51980037D01*
X103553675Y-52072074D01*
X103720106Y-52127224D01*
X103822813Y-52137717D01*
X103872800Y-52137716D01*
X103872800Y-51162719D01*
X103872799Y-51162718D01*
X103122802Y-51162718D01*
X103122801Y-51162719D01*
X102483240Y-51162719D01*
X102536747Y-50986331D01*
X102549525Y-50856600D01*
X102555099Y-50800004D01*
X102555099Y-50799995D01*
X102536748Y-50613674D01*
X102536747Y-50613671D01*
X102536747Y-50613669D01*
X102482396Y-50434499D01*
X102457398Y-50387730D01*
X103122800Y-50387730D01*
X103122800Y-50662717D01*
X103122801Y-50662718D01*
X103872799Y-50662718D01*
X103872800Y-50662717D01*
X103872800Y-49130719D01*
X103872799Y-49130718D01*
X103122802Y-49130718D01*
X103122801Y-49130719D01*
X103122801Y-49405704D01*
X103133292Y-49508405D01*
X103133295Y-49508417D01*
X103188443Y-49674842D01*
X103280481Y-49824059D01*
X103280485Y-49824065D01*
X103283140Y-49826720D01*
X103310913Y-49881238D01*
X103301337Y-49941670D01*
X103283140Y-49966716D01*
X103280485Y-49969370D01*
X103280481Y-49969376D01*
X103188443Y-50118593D01*
X103133293Y-50285024D01*
X103122800Y-50387730D01*
X102457398Y-50387730D01*
X102436502Y-50348636D01*
X102394140Y-50269382D01*
X102394138Y-50269380D01*
X102394136Y-50269375D01*
X102288750Y-50140962D01*
X102275361Y-50124647D01*
X102275352Y-50124638D01*
X102162106Y-50031700D01*
X102130625Y-50005864D01*
X102130622Y-50005862D01*
X102130617Y-50005859D01*
X101965506Y-49917606D01*
X101965504Y-49917605D01*
X101786328Y-49863252D01*
X101786325Y-49863251D01*
X101600004Y-49844901D01*
X101599996Y-49844901D01*
X101413674Y-49863251D01*
X101413671Y-49863252D01*
X101234495Y-49917605D01*
X101234493Y-49917606D01*
X101069382Y-50005859D01*
X101069376Y-50005863D01*
X100924647Y-50124638D01*
X100924638Y-50124647D01*
X100805863Y-50269376D01*
X100805859Y-50269382D01*
X100717606Y-50434493D01*
X100717605Y-50434495D01*
X100663252Y-50613671D01*
X100663251Y-50613673D01*
X100647023Y-50778451D01*
X100638258Y-50798489D01*
X100457574Y-50798489D01*
X100449500Y-50768747D01*
X100449500Y-48291252D01*
X100458744Y-48262800D01*
X100457574Y-48258489D01*
X100638258Y-48258489D01*
X100647023Y-48281549D01*
X100663251Y-48446325D01*
X100663252Y-48446328D01*
X100717605Y-48625504D01*
X100717606Y-48625506D01*
X100805859Y-48790617D01*
X100805862Y-48790622D01*
X100805864Y-48790625D01*
X100821137Y-48809235D01*
X100924638Y-48935352D01*
X100924647Y-48935361D01*
X100982954Y-48983212D01*
X101069375Y-49054136D01*
X101069380Y-49054138D01*
X101069382Y-49054140D01*
X101234493Y-49142393D01*
X101234499Y-49142396D01*
X101413669Y-49196747D01*
X101413671Y-49196747D01*
X101413674Y-49196748D01*
X101599996Y-49215099D01*
X101600000Y-49215099D01*
X101600004Y-49215099D01*
X101786325Y-49196748D01*
X101786326Y-49196747D01*
X101786331Y-49196747D01*
X101965501Y-49142396D01*
X102130625Y-49054136D01*
X102275357Y-48935357D01*
X102394136Y-48790625D01*
X102482396Y-48625501D01*
X102536747Y-48446331D01*
X102539969Y-48413625D01*
X102545671Y-48355730D01*
X103122800Y-48355730D01*
X103122800Y-48630717D01*
X103122801Y-48630718D01*
X103872799Y-48630718D01*
X103872800Y-48630717D01*
X103872800Y-47098719D01*
X103872799Y-47098718D01*
X103122802Y-47098718D01*
X103122801Y-47098719D01*
X103122801Y-47373704D01*
X103133292Y-47476405D01*
X103133295Y-47476417D01*
X103188443Y-47642842D01*
X103280481Y-47792059D01*
X103280485Y-47792065D01*
X103283140Y-47794720D01*
X103310913Y-47849238D01*
X103301337Y-47909670D01*
X103283140Y-47934716D01*
X103280485Y-47937370D01*
X103280481Y-47937376D01*
X103188443Y-48086593D01*
X103133293Y-48253024D01*
X103122800Y-48355730D01*
X102545671Y-48355730D01*
X102555099Y-48260004D01*
X102555099Y-48259995D01*
X102536748Y-48073674D01*
X102536747Y-48073671D01*
X102536747Y-48073669D01*
X102482396Y-47894499D01*
X102453022Y-47839544D01*
X102394140Y-47729382D01*
X102394138Y-47729380D01*
X102394136Y-47729375D01*
X102330755Y-47652145D01*
X102275361Y-47584647D01*
X102275352Y-47584638D01*
X102147495Y-47479709D01*
X102130625Y-47465864D01*
X102130622Y-47465862D01*
X102130617Y-47465859D01*
X101965506Y-47377606D01*
X101965504Y-47377605D01*
X101952644Y-47373704D01*
X101840035Y-47339544D01*
X101786328Y-47323252D01*
X101786325Y-47323251D01*
X101600004Y-47304901D01*
X101599996Y-47304901D01*
X101413674Y-47323251D01*
X101413671Y-47323252D01*
X101234495Y-47377605D01*
X101234493Y-47377606D01*
X101069382Y-47465859D01*
X101069376Y-47465863D01*
X100924647Y-47584638D01*
X100924638Y-47584647D01*
X100805863Y-47729376D01*
X100805859Y-47729382D01*
X100717606Y-47894493D01*
X100717605Y-47894495D01*
X100663252Y-48073671D01*
X100663251Y-48073673D01*
X100647023Y-48238451D01*
X100638258Y-48258489D01*
X100457574Y-48258489D01*
X100449500Y-48228747D01*
X100449500Y-45751252D01*
X100458744Y-45722800D01*
X100457574Y-45718489D01*
X100638258Y-45718489D01*
X100647023Y-45741549D01*
X100663251Y-45906325D01*
X100663252Y-45906328D01*
X100717605Y-46085504D01*
X100717606Y-46085506D01*
X100805859Y-46250617D01*
X100805862Y-46250622D01*
X100805864Y-46250625D01*
X100831645Y-46282039D01*
X100924638Y-46395352D01*
X100924647Y-46395361D01*
X100992145Y-46450755D01*
X101069375Y-46514136D01*
X101234499Y-46602396D01*
X101413669Y-46656747D01*
X101413671Y-46656747D01*
X101413674Y-46656748D01*
X101599996Y-46675099D01*
X101600000Y-46675099D01*
X101600004Y-46675099D01*
X101786325Y-46656748D01*
X101786326Y-46656747D01*
X101786331Y-46656747D01*
X101965501Y-46602396D01*
X102130625Y-46514136D01*
X102275357Y-46395357D01*
X102334140Y-46323730D01*
X103122800Y-46323730D01*
X103122800Y-46598717D01*
X103122801Y-46598718D01*
X103872799Y-46598718D01*
X103872800Y-46598717D01*
X103872800Y-45623717D01*
X103822815Y-45623718D01*
X103822812Y-45623719D01*
X103720112Y-45634210D01*
X103720100Y-45634213D01*
X103553675Y-45689361D01*
X103404459Y-45781398D01*
X103280480Y-45905377D01*
X103188443Y-46054593D01*
X103133293Y-46221024D01*
X103122800Y-46323730D01*
X102334140Y-46323730D01*
X102394136Y-46250625D01*
X102482396Y-46085501D01*
X102536747Y-45906331D01*
X102538343Y-45890132D01*
X102555099Y-45720004D01*
X102555099Y-45719995D01*
X102536748Y-45533674D01*
X102536747Y-45533671D01*
X102536747Y-45533669D01*
X102482396Y-45354499D01*
X102470381Y-45332020D01*
X102394140Y-45189382D01*
X102394138Y-45189380D01*
X102394136Y-45189375D01*
X102310017Y-45086876D01*
X102275361Y-45044647D01*
X102275352Y-45044638D01*
X102174485Y-44961859D01*
X102130625Y-44925864D01*
X102130622Y-44925862D01*
X102130617Y-44925859D01*
X101965506Y-44837606D01*
X101965504Y-44837605D01*
X101786328Y-44783252D01*
X101786325Y-44783251D01*
X101600004Y-44764901D01*
X101599996Y-44764901D01*
X101413674Y-44783251D01*
X101413671Y-44783252D01*
X101234495Y-44837605D01*
X101234493Y-44837606D01*
X101069382Y-44925859D01*
X101069376Y-44925863D01*
X100924647Y-45044638D01*
X100924638Y-45044647D01*
X100805863Y-45189376D01*
X100805859Y-45189382D01*
X100717606Y-45354493D01*
X100717605Y-45354495D01*
X100663252Y-45533671D01*
X100663251Y-45533673D01*
X100647023Y-45698451D01*
X100638258Y-45718489D01*
X100457574Y-45718489D01*
X100449500Y-45688747D01*
X100449500Y-42455327D01*
X100649500Y-42455327D01*
X100649500Y-43904672D01*
X100649501Y-43904684D01*
X100664033Y-43977736D01*
X100664035Y-43977742D01*
X100719397Y-44060599D01*
X100719399Y-44060601D01*
X100802260Y-44115966D01*
X100857808Y-44127015D01*
X100875315Y-44130498D01*
X100875320Y-44130498D01*
X100875326Y-44130500D01*
X100875327Y-44130500D01*
X102324673Y-44130500D01*
X102324674Y-44130500D01*
X102397740Y-44115966D01*
X102480601Y-44060601D01*
X102535966Y-43977740D01*
X102550500Y-43904674D01*
X102550500Y-42455326D01*
X102535966Y-42382260D01*
X102480601Y-42299399D01*
X102480600Y-42299398D01*
X102480599Y-42299397D01*
X102397742Y-42244035D01*
X102397740Y-42244034D01*
X102397737Y-42244033D01*
X102397736Y-42244033D01*
X102324684Y-42229501D01*
X102324674Y-42229500D01*
X100875326Y-42229500D01*
X100875325Y-42229500D01*
X100875315Y-42229501D01*
X100802263Y-42244033D01*
X100802257Y-42244035D01*
X100719400Y-42299397D01*
X100719399Y-42299399D01*
X100664035Y-42382257D01*
X100664033Y-42382263D01*
X100649501Y-42455315D01*
X100649500Y-42455327D01*
X100449500Y-42455327D01*
X100449500Y-40012424D01*
X100449501Y-40012395D01*
X100449500Y-40005516D01*
X100449502Y-40005513D01*
X100449500Y-39943935D01*
X100449877Y-39935309D01*
X100455271Y-39873641D01*
X100464291Y-39770510D01*
X100467284Y-39753535D01*
X100508979Y-39597915D01*
X100514876Y-39581715D01*
X100582958Y-39435706D01*
X100591579Y-39420773D01*
X100683983Y-39288803D01*
X100695066Y-39275595D01*
X100808980Y-39161679D01*
X100822184Y-39150598D01*
X100954156Y-39058188D01*
X100969091Y-39049566D01*
X101115094Y-38981483D01*
X101131292Y-38975587D01*
X101286915Y-38933888D01*
X101303892Y-38930895D01*
X101451841Y-38917951D01*
X101468338Y-38916508D01*
X101476966Y-38916131D01*
X101538892Y-38916131D01*
X103685218Y-38916131D01*
X103743409Y-38935038D01*
G37*
%TD.AperFunction*%
%TA.AperFunction,Conductor*%
G36*
X106910167Y-47209479D02*
G01*
X106942691Y-47222951D01*
X107092833Y-47242718D01*
X107092585Y-47244595D01*
X107142391Y-47260778D01*
X107178355Y-47310278D01*
X107183200Y-47340871D01*
X107183200Y-47364217D01*
X107183201Y-47364218D01*
X107914200Y-47364218D01*
X107972391Y-47383125D01*
X108008355Y-47432625D01*
X108013200Y-47463218D01*
X108013200Y-47514718D01*
X107994293Y-47572909D01*
X107944793Y-47608873D01*
X107914200Y-47613718D01*
X107658526Y-47613718D01*
X107658525Y-47613718D01*
X107658515Y-47613719D01*
X107585463Y-47628251D01*
X107585461Y-47628251D01*
X107585460Y-47628252D01*
X107585459Y-47628252D01*
X107576448Y-47631985D01*
X107575936Y-47630749D01*
X107531533Y-47644218D01*
X107183201Y-47644218D01*
X107183200Y-47644219D01*
X107183200Y-47692042D01*
X107183199Y-47692042D01*
X107189601Y-47751588D01*
X107189603Y-47751599D01*
X107239846Y-47886306D01*
X107239847Y-47886308D01*
X107326007Y-48001402D01*
X107326014Y-48001409D01*
X107393028Y-48051575D01*
X107428282Y-48101584D01*
X107432700Y-48130829D01*
X107432700Y-48168892D01*
X107443073Y-48221043D01*
X107435883Y-48281803D01*
X107394351Y-48326734D01*
X107334341Y-48338671D01*
X107306949Y-48329577D01*
X107306420Y-48330857D01*
X107166509Y-48272905D01*
X107166508Y-48272904D01*
X107022800Y-48253985D01*
X106879091Y-48272904D01*
X106879090Y-48272905D01*
X106868509Y-48277288D01*
X106807512Y-48282087D01*
X106755344Y-48250116D01*
X106737868Y-48220419D01*
X106716597Y-48163388D01*
X106630349Y-48048176D01*
X106630348Y-48048175D01*
X106630346Y-48048172D01*
X106607513Y-48031079D01*
X106572261Y-47981072D01*
X106568690Y-47938907D01*
X106578050Y-47867818D01*
X106567947Y-47791084D01*
X106579096Y-47730926D01*
X106606769Y-47698913D01*
X106630346Y-47681264D01*
X106716596Y-47566049D01*
X106731353Y-47526485D01*
X106754949Y-47463218D01*
X106766891Y-47431201D01*
X106773300Y-47371591D01*
X106773299Y-47300948D01*
X106792206Y-47242760D01*
X106841705Y-47206796D01*
X106902890Y-47206795D01*
X106910167Y-47209479D01*
G37*
%TD.AperFunction*%
%TA.AperFunction,Conductor*%
G36*
X109382391Y-46773125D02*
G01*
X109418355Y-46822625D01*
X109423200Y-46853218D01*
X109423200Y-47155218D01*
X109404293Y-47213409D01*
X109354793Y-47249373D01*
X109324200Y-47254218D01*
X108167200Y-47254218D01*
X108109009Y-47235311D01*
X108073045Y-47185811D01*
X108068200Y-47155218D01*
X108068200Y-47144219D01*
X108042196Y-47118215D01*
X108014419Y-47063698D01*
X108013200Y-47048211D01*
X108013200Y-46993718D01*
X108032107Y-46935527D01*
X108081607Y-46899563D01*
X108112200Y-46894718D01*
X108367873Y-46894718D01*
X108367874Y-46894718D01*
X108440940Y-46880184D01*
X108523801Y-46824819D01*
X108541575Y-46798218D01*
X108589624Y-46760338D01*
X108623891Y-46754218D01*
X109324200Y-46754218D01*
X109382391Y-46773125D01*
G37*
%TD.AperFunction*%
%TA.AperFunction,Conductor*%
G36*
X114574204Y-43769836D02*
G01*
X114597104Y-43792736D01*
X114624881Y-43847253D01*
X114626100Y-43862740D01*
X114626100Y-44932546D01*
X114607193Y-44990737D01*
X114557693Y-45026701D01*
X114517039Y-45031033D01*
X114465989Y-45025818D01*
X114416001Y-45025818D01*
X114416000Y-45025819D01*
X114416000Y-46151818D01*
X114397093Y-46210009D01*
X114347593Y-46245973D01*
X114317000Y-46250818D01*
X114015000Y-46250818D01*
X113956809Y-46231911D01*
X113920845Y-46182411D01*
X113916000Y-46151818D01*
X113916000Y-45025817D01*
X113900600Y-45010418D01*
X113889803Y-45006910D01*
X113853839Y-44957410D01*
X113853839Y-44896224D01*
X113889803Y-44846724D01*
X113892993Y-44844501D01*
X114024532Y-44756609D01*
X114170794Y-44610347D01*
X114285691Y-44438392D01*
X114285698Y-44438378D01*
X114364850Y-44247290D01*
X114405199Y-44044436D01*
X114405200Y-44044431D01*
X114405200Y-43839840D01*
X114424107Y-43781649D01*
X114473607Y-43745685D01*
X114534793Y-43745685D01*
X114574204Y-43769836D01*
G37*
%TD.AperFunction*%
%TA.AperFunction,Conductor*%
G36*
X111944391Y-43909925D02*
G01*
X111980355Y-43959425D01*
X111985200Y-43990018D01*
X111985200Y-44991017D01*
X111985201Y-44991018D01*
X112183024Y-44991018D01*
X112242570Y-44984616D01*
X112242581Y-44984614D01*
X112377288Y-44934371D01*
X112377290Y-44934370D01*
X112492384Y-44848210D01*
X112492390Y-44848204D01*
X112546455Y-44775982D01*
X112596463Y-44740728D01*
X112657642Y-44741602D01*
X112681259Y-44754745D01*
X112681820Y-44753906D01*
X112857825Y-44871509D01*
X112857839Y-44871516D01*
X113048923Y-44950666D01*
X113048930Y-44950668D01*
X113105200Y-44961860D01*
X113105200Y-44135996D01*
X113140288Y-44171084D01*
X113220101Y-44217164D01*
X113309120Y-44241017D01*
X113401280Y-44241017D01*
X113490299Y-44217164D01*
X113570112Y-44171084D01*
X113605200Y-44135996D01*
X113605200Y-44977151D01*
X113617567Y-44996472D01*
X113613963Y-45057551D01*
X113575146Y-45104847D01*
X113573747Y-45105726D01*
X113447660Y-45183497D01*
X113323680Y-45307477D01*
X113231643Y-45456692D01*
X113178731Y-45616371D01*
X113142479Y-45665660D01*
X113084179Y-45684228D01*
X113026100Y-45664982D01*
X112991999Y-45619829D01*
X112959796Y-45533487D01*
X112930238Y-45494003D01*
X112873549Y-45418276D01*
X112873548Y-45418275D01*
X112873546Y-45418272D01*
X112857460Y-45406230D01*
X112758329Y-45332020D01*
X112623488Y-45281728D01*
X112623483Y-45281727D01*
X112623481Y-45281726D01*
X112623477Y-45281726D01*
X112592249Y-45278368D01*
X112563873Y-45275318D01*
X112563870Y-45275318D01*
X111968133Y-45275318D01*
X111968129Y-45275318D01*
X111968128Y-45275319D01*
X111960949Y-45276090D01*
X111908519Y-45281726D01*
X111908514Y-45281727D01*
X111773670Y-45332020D01*
X111730146Y-45364602D01*
X111672230Y-45384338D01*
X111613776Y-45366263D01*
X111600814Y-45355351D01*
X111405485Y-45160021D01*
X111377708Y-45105505D01*
X111387279Y-45045073D01*
X111430544Y-45001808D01*
X111475489Y-44991018D01*
X111485199Y-44991018D01*
X111485200Y-44991017D01*
X111485200Y-43990018D01*
X111504107Y-43931827D01*
X111553607Y-43895863D01*
X111584200Y-43891018D01*
X111886200Y-43891018D01*
X111944391Y-43909925D01*
G37*
%TD.AperFunction*%
%TD*%
M02*
