%TF.GenerationSoftware,KiCad,Pcbnew,8.0.8*%
%TF.CreationDate,2025-03-27T14:33:37-07:00*%
%TF.ProjectId,pepper_stepper,70657070-6572-45f7-9374-65707065722e,rev?*%
%TF.SameCoordinates,Original*%
%TF.FileFunction,Copper,L2,Inr*%
%TF.FilePolarity,Positive*%
%FSLAX46Y46*%
G04 Gerber Fmt 4.6, Leading zero omitted, Abs format (unit mm)*
G04 Created by KiCad (PCBNEW 8.0.8) date 2025-03-27 14:33:37*
%MOMM*%
%LPD*%
G01*
G04 APERTURE LIST*
G04 Aperture macros list*
%AMRoundRect*
0 Rectangle with rounded corners*
0 $1 Rounding radius*
0 $2 $3 $4 $5 $6 $7 $8 $9 X,Y pos of 4 corners*
0 Add a 4 corners polygon primitive as box body*
4,1,4,$2,$3,$4,$5,$6,$7,$8,$9,$2,$3,0*
0 Add four circle primitives for the rounded corners*
1,1,$1+$1,$2,$3*
1,1,$1+$1,$4,$5*
1,1,$1+$1,$6,$7*
1,1,$1+$1,$8,$9*
0 Add four rect primitives between the rounded corners*
20,1,$1+$1,$2,$3,$4,$5,0*
20,1,$1+$1,$4,$5,$6,$7,0*
20,1,$1+$1,$6,$7,$8,$9,0*
20,1,$1+$1,$8,$9,$2,$3,0*%
G04 Aperture macros list end*
%TA.AperFunction,ComponentPad*%
%ADD10R,1.400000X1.400000*%
%TD*%
%TA.AperFunction,ComponentPad*%
%ADD11C,1.400000*%
%TD*%
%TA.AperFunction,ComponentPad*%
%ADD12RoundRect,0.250000X0.600000X0.725000X-0.600000X0.725000X-0.600000X-0.725000X0.600000X-0.725000X0*%
%TD*%
%TA.AperFunction,ComponentPad*%
%ADD13O,1.700000X1.950000*%
%TD*%
%TA.AperFunction,ComponentPad*%
%ADD14O,1.100000X1.700000*%
%TD*%
%TA.AperFunction,ViaPad*%
%ADD15C,0.600000*%
%TD*%
%TA.AperFunction,ViaPad*%
%ADD16C,0.400000*%
%TD*%
%TA.AperFunction,Conductor*%
%ADD17C,0.200000*%
%TD*%
%TA.AperFunction,Conductor*%
%ADD18C,0.500000*%
%TD*%
G04 APERTURE END LIST*
D10*
%TO.N,unconnected-(H1-Pad1)*%
%TO.C,H1*%
X101600000Y-43180000D03*
D11*
%TO.N,/INDEX*%
X101600000Y-45720000D03*
%TO.N,/DIAG*%
X101600000Y-48260000D03*
%TO.N,unconnected-(H1-Pad4)*%
X101600000Y-50800000D03*
%TO.N,/SDA*%
X101600000Y-53340000D03*
%TO.N,/SCL*%
X101600000Y-55880000D03*
%TO.N,Net-(H1-Pad7)*%
X101600000Y-58420000D03*
%TD*%
D12*
%TO.N,/A2*%
%TO.C,J1*%
X114140000Y-65913000D03*
D13*
%TO.N,/A1*%
X111640000Y-65913000D03*
%TO.N,/B1*%
X109140000Y-65913000D03*
%TO.N,/B2*%
X106640000Y-65913000D03*
%TO.N,unconnected-(J1-Pin_5-Pad5)*%
X104140000Y-65913000D03*
%TD*%
D10*
%TO.N,+5V*%
%TO.C,H2*%
X116840000Y-43180000D03*
D11*
%TO.N,GND*%
X116840000Y-45720000D03*
%TO.N,+3V3*%
X116840000Y-48260000D03*
%TO.N,/1-WIRE*%
X116840000Y-50800000D03*
%TO.N,/TACH*%
X116840000Y-53340000D03*
%TO.N,/PWM*%
X116840000Y-55880000D03*
%TO.N,/UART*%
X116840000Y-58420000D03*
%TD*%
D14*
%TO.N,GND*%
%TO.C,USB1*%
X113355200Y-43641018D03*
X113355200Y-39831018D03*
X104715200Y-43641018D03*
X104715200Y-39831018D03*
%TD*%
D15*
%TO.N,+3V3*%
X103886824Y-54248218D03*
X104775000Y-41644818D03*
X115824000Y-61722000D03*
X114104069Y-57737093D03*
X115824000Y-60532218D03*
%TO.N,VM*%
X112161695Y-61366995D03*
X109247000Y-53486218D03*
X116272238Y-65024000D03*
X102603000Y-65024000D03*
X115062000Y-54356000D03*
X106022800Y-49899818D03*
X106022800Y-47867818D03*
X105410000Y-51677818D03*
X106781600Y-49631018D03*
X112014000Y-53656682D03*
X106541000Y-61117018D03*
X106781600Y-50281018D03*
%TO.N,/SCL*%
X107086400Y-46686621D03*
%TO.N,/INDEX*%
X107022800Y-48809235D03*
D16*
%TO.N,/DIAG*%
X108458000Y-52821216D03*
D15*
%TO.N,/SDA*%
X107086400Y-45886618D03*
%TO.N,/1-WIRE*%
X114645422Y-42072578D03*
%TO.N,/UART*%
X113283980Y-55324001D03*
X102870000Y-60706000D03*
%TO.N,/A2*%
X112228599Y-59755781D03*
%TO.N,/B2*%
X106548602Y-59805818D03*
%TO.N,GND*%
X106934000Y-64008000D03*
X110744000Y-57519818D03*
X103886000Y-55264218D03*
X111760000Y-64008000D03*
X109220000Y-64008000D03*
X110728925Y-56285195D03*
X109982000Y-57519818D03*
X110744000Y-56896000D03*
%TD*%
D17*
%TO.N,/DIAG*%
X107569398Y-52821216D02*
X104648000Y-49899818D01*
X103239818Y-49899818D02*
X101600000Y-48260000D01*
X108458000Y-52821216D02*
X107569398Y-52821216D01*
X104648000Y-49899818D02*
X103239818Y-49899818D01*
%TO.N,/UART*%
X113930182Y-58420000D02*
X116840000Y-58420000D01*
X113283980Y-57773798D02*
X113930182Y-58420000D01*
X113283980Y-55324001D02*
X113283980Y-57773798D01*
D18*
%TO.N,/A2*%
X112228599Y-59755781D02*
X113030000Y-60557182D01*
X113030000Y-64803000D02*
X114140000Y-65913000D01*
X113030000Y-60557182D02*
X113030000Y-64803000D01*
%TO.N,/B2*%
X105791000Y-60563420D02*
X105791000Y-65064000D01*
X105791000Y-65064000D02*
X106640000Y-65913000D01*
X106548602Y-59805818D02*
X105791000Y-60563420D01*
%TD*%
%TA.AperFunction,Conductor*%
%TO.N,VM*%
G36*
X104036276Y-38935038D02*
G01*
X104072240Y-38984538D01*
X104072240Y-39045724D01*
X104060400Y-39070133D01*
X104005809Y-39151831D01*
X104005803Y-39151843D01*
X103945463Y-39297519D01*
X103945463Y-39297521D01*
X103914700Y-39452173D01*
X103914700Y-40209862D01*
X103945463Y-40364514D01*
X103945463Y-40364516D01*
X104005803Y-40510192D01*
X104005809Y-40510203D01*
X104058512Y-40589077D01*
X104093411Y-40641307D01*
X104204911Y-40752807D01*
X104283076Y-40805035D01*
X104336014Y-40840408D01*
X104336025Y-40840414D01*
X104389838Y-40862703D01*
X104481703Y-40900755D01*
X104601483Y-40924581D01*
X104654866Y-40954477D01*
X104680482Y-41010042D01*
X104668545Y-41070051D01*
X104623616Y-41111584D01*
X104620054Y-41113142D01*
X104497375Y-41163956D01*
X104497374Y-41163957D01*
X104382381Y-41252195D01*
X104382377Y-41252199D01*
X104294139Y-41367192D01*
X104294137Y-41367196D01*
X104238670Y-41501108D01*
X104238669Y-41501109D01*
X104219750Y-41644817D01*
X104219750Y-41644818D01*
X104238669Y-41788526D01*
X104238670Y-41788527D01*
X104294139Y-41922443D01*
X104382379Y-42037439D01*
X104497375Y-42125679D01*
X104631291Y-42181148D01*
X104775000Y-42200068D01*
X104918709Y-42181148D01*
X105052625Y-42125679D01*
X105121829Y-42072577D01*
X114090172Y-42072577D01*
X114090172Y-42072578D01*
X114109091Y-42216286D01*
X114109092Y-42216287D01*
X114143517Y-42299399D01*
X114164561Y-42350203D01*
X114252801Y-42465199D01*
X114367797Y-42553439D01*
X114501713Y-42608908D01*
X114645422Y-42627828D01*
X114789131Y-42608908D01*
X114923047Y-42553439D01*
X115038043Y-42465199D01*
X115045618Y-42455327D01*
X115889500Y-42455327D01*
X115889500Y-43904672D01*
X115889501Y-43904684D01*
X115904033Y-43977736D01*
X115904035Y-43977742D01*
X115959397Y-44060599D01*
X115959399Y-44060601D01*
X116042260Y-44115966D01*
X116097808Y-44127015D01*
X116115315Y-44130498D01*
X116115320Y-44130498D01*
X116115326Y-44130500D01*
X116115327Y-44130500D01*
X117564673Y-44130500D01*
X117564674Y-44130500D01*
X117637740Y-44115966D01*
X117720601Y-44060601D01*
X117775966Y-43977740D01*
X117790500Y-43904674D01*
X117790500Y-42455326D01*
X117775966Y-42382260D01*
X117720601Y-42299399D01*
X117720599Y-42299397D01*
X117637742Y-42244035D01*
X117637740Y-42244034D01*
X117637737Y-42244033D01*
X117637736Y-42244033D01*
X117564684Y-42229501D01*
X117564674Y-42229500D01*
X116115326Y-42229500D01*
X116115325Y-42229500D01*
X116115315Y-42229501D01*
X116042263Y-42244033D01*
X116042257Y-42244035D01*
X115959400Y-42299397D01*
X115959397Y-42299400D01*
X115904035Y-42382257D01*
X115904033Y-42382263D01*
X115889501Y-42455315D01*
X115889500Y-42455327D01*
X115045618Y-42455327D01*
X115126283Y-42350203D01*
X115181752Y-42216287D01*
X115200672Y-42072578D01*
X115181752Y-41928869D01*
X115126283Y-41794953D01*
X115038043Y-41679957D01*
X114923047Y-41591717D01*
X114923043Y-41591715D01*
X114789131Y-41536248D01*
X114789130Y-41536247D01*
X114645422Y-41517328D01*
X114501713Y-41536247D01*
X114501712Y-41536248D01*
X114367800Y-41591715D01*
X114367796Y-41591717D01*
X114252803Y-41679955D01*
X114252799Y-41679959D01*
X114164561Y-41794952D01*
X114164559Y-41794956D01*
X114109092Y-41928868D01*
X114109091Y-41928869D01*
X114090172Y-42072577D01*
X105121829Y-42072577D01*
X105167621Y-42037439D01*
X105255861Y-41922443D01*
X105311330Y-41788527D01*
X105330250Y-41644818D01*
X105311330Y-41501109D01*
X105255861Y-41367193D01*
X105167621Y-41252197D01*
X105052625Y-41163957D01*
X105052623Y-41163956D01*
X105052621Y-41163955D01*
X104918709Y-41108488D01*
X104918710Y-41108488D01*
X104902836Y-41106398D01*
X104847612Y-41080054D01*
X104818419Y-41026283D01*
X104826408Y-40965621D01*
X104868527Y-40921240D01*
X104896443Y-40911148D01*
X104948697Y-40900755D01*
X105094379Y-40840412D01*
X105225489Y-40752807D01*
X105336989Y-40641307D01*
X105424594Y-40510197D01*
X105484937Y-40364515D01*
X105515700Y-40209860D01*
X105515700Y-39452176D01*
X105484937Y-39297521D01*
X105428681Y-39161706D01*
X105424596Y-39151843D01*
X105424590Y-39151831D01*
X105370000Y-39070133D01*
X105353391Y-39011245D01*
X105374568Y-38953841D01*
X105425442Y-38919848D01*
X105452315Y-38916131D01*
X112618085Y-38916131D01*
X112676276Y-38935038D01*
X112712240Y-38984538D01*
X112712240Y-39045724D01*
X112700400Y-39070133D01*
X112645809Y-39151831D01*
X112645803Y-39151843D01*
X112585463Y-39297519D01*
X112585463Y-39297521D01*
X112554700Y-39452173D01*
X112554700Y-40209862D01*
X112585463Y-40364514D01*
X112585463Y-40364516D01*
X112645803Y-40510192D01*
X112645809Y-40510203D01*
X112698512Y-40589077D01*
X112733411Y-40641307D01*
X112844911Y-40752807D01*
X112923076Y-40805035D01*
X112976014Y-40840408D01*
X112976025Y-40840414D01*
X113029838Y-40862703D01*
X113121703Y-40900755D01*
X113276358Y-40931518D01*
X113276359Y-40931518D01*
X113434041Y-40931518D01*
X113434042Y-40931518D01*
X113588697Y-40900755D01*
X113734379Y-40840412D01*
X113865489Y-40752807D01*
X113976989Y-40641307D01*
X114064594Y-40510197D01*
X114124937Y-40364515D01*
X114155700Y-40209860D01*
X114155700Y-39452176D01*
X114124937Y-39297521D01*
X114068681Y-39161706D01*
X114064596Y-39151843D01*
X114064590Y-39151831D01*
X114010000Y-39070133D01*
X113993391Y-39011245D01*
X114014568Y-38953841D01*
X114065442Y-38919848D01*
X114092315Y-38916131D01*
X116901108Y-38916131D01*
X116962681Y-38916131D01*
X116971309Y-38916508D01*
X117136101Y-38930925D01*
X117153081Y-38933918D01*
X117308691Y-38975615D01*
X117324898Y-38981514D01*
X117408994Y-39020729D01*
X117470892Y-39049593D01*
X117485830Y-39058217D01*
X117617792Y-39150620D01*
X117631002Y-39161705D01*
X117744908Y-39275614D01*
X117755997Y-39288830D01*
X117848389Y-39420785D01*
X117857017Y-39435729D01*
X117925091Y-39581718D01*
X117930993Y-39597935D01*
X117972681Y-39753529D01*
X117975677Y-39770524D01*
X117990122Y-39935672D01*
X117990499Y-39944299D01*
X117990498Y-40011659D01*
X117990513Y-40011898D01*
X117991621Y-45700117D01*
X117985761Y-45718161D01*
X117991629Y-45739766D01*
X117992117Y-48245152D01*
X117987743Y-48258622D01*
X117992123Y-48274750D01*
X117992613Y-50790187D01*
X117989724Y-50799083D01*
X117992617Y-50809735D01*
X117995781Y-67046380D01*
X117995404Y-67055029D01*
X117980905Y-67220730D01*
X117977908Y-67237724D01*
X117935978Y-67394205D01*
X117930076Y-67410421D01*
X117861609Y-67557245D01*
X117852980Y-67572190D01*
X117760053Y-67704900D01*
X117748961Y-67718119D01*
X117634408Y-67832671D01*
X117621189Y-67843763D01*
X117488481Y-67936686D01*
X117473541Y-67945312D01*
X117326712Y-68013779D01*
X117310500Y-68019680D01*
X117154007Y-68061612D01*
X117137012Y-68064608D01*
X116971100Y-68079123D01*
X116962472Y-68079500D01*
X101571639Y-68079500D01*
X101546018Y-68076127D01*
X101538894Y-68074218D01*
X101538892Y-68074218D01*
X101477319Y-68074218D01*
X101468691Y-68073841D01*
X101303901Y-68059424D01*
X101286906Y-68056428D01*
X101131303Y-68014734D01*
X101115090Y-68008833D01*
X100969092Y-67940754D01*
X100954148Y-67932126D01*
X100822193Y-67839731D01*
X100808978Y-67828643D01*
X100695069Y-67714735D01*
X100683979Y-67701517D01*
X100591578Y-67569558D01*
X100582949Y-67554613D01*
X100532549Y-67446532D01*
X100514867Y-67408614D01*
X100508970Y-67392412D01*
X100467274Y-67236809D01*
X100464278Y-67219815D01*
X100461123Y-67183762D01*
X100449877Y-67055225D01*
X100449500Y-67046596D01*
X100449500Y-65701385D01*
X103039500Y-65701385D01*
X103039500Y-66124614D01*
X103066597Y-66295702D01*
X103066598Y-66295706D01*
X103120123Y-66460438D01*
X103120125Y-66460441D01*
X103120126Y-66460444D01*
X103120127Y-66460445D01*
X103198768Y-66614788D01*
X103300586Y-66754928D01*
X103423072Y-66877414D01*
X103563212Y-66979232D01*
X103717555Y-67057873D01*
X103717557Y-67057873D01*
X103717558Y-67057874D01*
X103717561Y-67057876D01*
X103882293Y-67111401D01*
X103882297Y-67111402D01*
X104053386Y-67138500D01*
X104053389Y-67138500D01*
X104226614Y-67138500D01*
X104397702Y-67111402D01*
X104397706Y-67111401D01*
X104562438Y-67057876D01*
X104562440Y-67057874D01*
X104562445Y-67057873D01*
X104716788Y-66979232D01*
X104856928Y-66877414D01*
X104979414Y-66754928D01*
X105081232Y-66614788D01*
X105159873Y-66460445D01*
X105159874Y-66460440D01*
X105159876Y-66460438D01*
X105213401Y-66295706D01*
X105213402Y-66295702D01*
X105240500Y-66124614D01*
X105240500Y-65701385D01*
X105213402Y-65530297D01*
X105213401Y-65530293D01*
X105158672Y-65361856D01*
X105160276Y-65361334D01*
X105159480Y-65351298D01*
X105140947Y-65328411D01*
X105081232Y-65211212D01*
X104979414Y-65071072D01*
X104856928Y-64948586D01*
X104716788Y-64846768D01*
X104716787Y-64846767D01*
X104716785Y-64846766D01*
X104562441Y-64768125D01*
X104562438Y-64768123D01*
X104397706Y-64714598D01*
X104397702Y-64714597D01*
X104226614Y-64687500D01*
X104226611Y-64687500D01*
X104053389Y-64687500D01*
X104053386Y-64687500D01*
X103882297Y-64714597D01*
X103882293Y-64714598D01*
X103717561Y-64768123D01*
X103717558Y-64768125D01*
X103563214Y-64846766D01*
X103423073Y-64948585D01*
X103300585Y-65071073D01*
X103198766Y-65211214D01*
X103120125Y-65365558D01*
X103120123Y-65365561D01*
X103066598Y-65530293D01*
X103066597Y-65530297D01*
X103039500Y-65701385D01*
X100449500Y-65701385D01*
X100449500Y-60705999D01*
X102314750Y-60705999D01*
X102314750Y-60706000D01*
X102333669Y-60849708D01*
X102333670Y-60849709D01*
X102389139Y-60983625D01*
X102477379Y-61098621D01*
X102592375Y-61186861D01*
X102726291Y-61242330D01*
X102870000Y-61261250D01*
X103013709Y-61242330D01*
X103147625Y-61186861D01*
X103262621Y-61098621D01*
X103350861Y-60983625D01*
X103406330Y-60849709D01*
X103425250Y-60706000D01*
X103406330Y-60562291D01*
X103379505Y-60497528D01*
X105290500Y-60497528D01*
X105290500Y-64998108D01*
X105290500Y-65129892D01*
X105312290Y-65211213D01*
X105324784Y-65257843D01*
X105324338Y-65266343D01*
X105337965Y-65280323D01*
X105390498Y-65371312D01*
X105390500Y-65371314D01*
X105528589Y-65509404D01*
X105556366Y-65563920D01*
X105556366Y-65594893D01*
X105539500Y-65701384D01*
X105539500Y-66124614D01*
X105566597Y-66295702D01*
X105566598Y-66295706D01*
X105620123Y-66460438D01*
X105620125Y-66460441D01*
X105620126Y-66460444D01*
X105620127Y-66460445D01*
X105698768Y-66614788D01*
X105800586Y-66754928D01*
X105923072Y-66877414D01*
X106063212Y-66979232D01*
X106217555Y-67057873D01*
X106217557Y-67057873D01*
X106217558Y-67057874D01*
X106217561Y-67057876D01*
X106382293Y-67111401D01*
X106382297Y-67111402D01*
X106553386Y-67138500D01*
X106553389Y-67138500D01*
X106726614Y-67138500D01*
X106897702Y-67111402D01*
X106897706Y-67111401D01*
X107062438Y-67057876D01*
X107062440Y-67057874D01*
X107062445Y-67057873D01*
X107216788Y-66979232D01*
X107356928Y-66877414D01*
X107479414Y-66754928D01*
X107581232Y-66614788D01*
X107659873Y-66460445D01*
X107659874Y-66460440D01*
X107659876Y-66460438D01*
X107713401Y-66295706D01*
X107713402Y-66295702D01*
X107740500Y-66124614D01*
X107740500Y-65701385D01*
X108039500Y-65701385D01*
X108039500Y-66124614D01*
X108066597Y-66295702D01*
X108066598Y-66295706D01*
X108120123Y-66460438D01*
X108120125Y-66460441D01*
X108120126Y-66460444D01*
X108120127Y-66460445D01*
X108198768Y-66614788D01*
X108300586Y-66754928D01*
X108423072Y-66877414D01*
X108563212Y-66979232D01*
X108717555Y-67057873D01*
X108717557Y-67057873D01*
X108717558Y-67057874D01*
X108717561Y-67057876D01*
X108882293Y-67111401D01*
X108882297Y-67111402D01*
X109053386Y-67138500D01*
X109053389Y-67138500D01*
X109226614Y-67138500D01*
X109397702Y-67111402D01*
X109397706Y-67111401D01*
X109562438Y-67057876D01*
X109562440Y-67057874D01*
X109562445Y-67057873D01*
X109716788Y-66979232D01*
X109856928Y-66877414D01*
X109979414Y-66754928D01*
X110081232Y-66614788D01*
X110159873Y-66460445D01*
X110159874Y-66460440D01*
X110159876Y-66460438D01*
X110213401Y-66295706D01*
X110213402Y-66295702D01*
X110240500Y-66124614D01*
X110240500Y-65701385D01*
X110539500Y-65701385D01*
X110539500Y-66124614D01*
X110566597Y-66295702D01*
X110566598Y-66295706D01*
X110620123Y-66460438D01*
X110620125Y-66460441D01*
X110620126Y-66460444D01*
X110620127Y-66460445D01*
X110698768Y-66614788D01*
X110800586Y-66754928D01*
X110923072Y-66877414D01*
X111063212Y-66979232D01*
X111217555Y-67057873D01*
X111217557Y-67057873D01*
X111217558Y-67057874D01*
X111217561Y-67057876D01*
X111382293Y-67111401D01*
X111382297Y-67111402D01*
X111553386Y-67138500D01*
X111553389Y-67138500D01*
X111726614Y-67138500D01*
X111897702Y-67111402D01*
X111897706Y-67111401D01*
X112062438Y-67057876D01*
X112062440Y-67057874D01*
X112062445Y-67057873D01*
X112216788Y-66979232D01*
X112356928Y-66877414D01*
X112479414Y-66754928D01*
X112581232Y-66614788D01*
X112659873Y-66460445D01*
X112659874Y-66460440D01*
X112659876Y-66460438D01*
X112713401Y-66295706D01*
X112713402Y-66295702D01*
X112740500Y-66124614D01*
X112740500Y-65701385D01*
X112713402Y-65530297D01*
X112713401Y-65530293D01*
X112679072Y-65424640D01*
X112679071Y-65363455D01*
X112715035Y-65313955D01*
X112773226Y-65295047D01*
X112831416Y-65313954D01*
X112843223Y-65324037D01*
X113010505Y-65491319D01*
X113038281Y-65545834D01*
X113039500Y-65561321D01*
X113039500Y-66685866D01*
X113039501Y-66685870D01*
X113045908Y-66745480D01*
X113045909Y-66745485D01*
X113096202Y-66880329D01*
X113174433Y-66984832D01*
X113182454Y-66995546D01*
X113182457Y-66995548D01*
X113182458Y-66995549D01*
X113297670Y-67081797D01*
X113432511Y-67132089D01*
X113432512Y-67132089D01*
X113432517Y-67132091D01*
X113492127Y-67138500D01*
X114787872Y-67138499D01*
X114847483Y-67132091D01*
X114914907Y-67106943D01*
X114982329Y-67081797D01*
X114982329Y-67081796D01*
X114982331Y-67081796D01*
X115097546Y-66995546D01*
X115183796Y-66880331D01*
X115234091Y-66745483D01*
X115240500Y-66685873D01*
X115240499Y-65140128D01*
X115234091Y-65080517D01*
X115230568Y-65071072D01*
X115183797Y-64945670D01*
X115097549Y-64830458D01*
X115097548Y-64830457D01*
X115097546Y-64830454D01*
X115097541Y-64830450D01*
X114982329Y-64744202D01*
X114847488Y-64693910D01*
X114847483Y-64693909D01*
X114847481Y-64693908D01*
X114847477Y-64693908D01*
X114816249Y-64690550D01*
X114787873Y-64687500D01*
X114787870Y-64687500D01*
X113663322Y-64687500D01*
X113605131Y-64668593D01*
X113593318Y-64658504D01*
X113559496Y-64624682D01*
X113531719Y-64570165D01*
X113530500Y-64554678D01*
X113530500Y-60532217D01*
X115268750Y-60532217D01*
X115268750Y-60532218D01*
X115287669Y-60675926D01*
X115287670Y-60675927D01*
X115341341Y-60805504D01*
X115343139Y-60809843D01*
X115431379Y-60924839D01*
X115546375Y-61013079D01*
X115567129Y-61021675D01*
X115600854Y-61035645D01*
X115647380Y-61075381D01*
X115661664Y-61134876D01*
X115638249Y-61191404D01*
X115600854Y-61218573D01*
X115546378Y-61241137D01*
X115546374Y-61241139D01*
X115431381Y-61329377D01*
X115431377Y-61329381D01*
X115343139Y-61444374D01*
X115343137Y-61444378D01*
X115287670Y-61578290D01*
X115287669Y-61578291D01*
X115268750Y-61721999D01*
X115268750Y-61722000D01*
X115287669Y-61865708D01*
X115287670Y-61865709D01*
X115343139Y-61999625D01*
X115431379Y-62114621D01*
X115546375Y-62202861D01*
X115680291Y-62258330D01*
X115824000Y-62277250D01*
X115967709Y-62258330D01*
X116101625Y-62202861D01*
X116216621Y-62114621D01*
X116304861Y-61999625D01*
X116360330Y-61865709D01*
X116379250Y-61722000D01*
X116360330Y-61578291D01*
X116304861Y-61444375D01*
X116216621Y-61329379D01*
X116101625Y-61241139D01*
X116101621Y-61241137D01*
X116047145Y-61218573D01*
X116000619Y-61178837D01*
X115986335Y-61119342D01*
X116009749Y-61062814D01*
X116047145Y-61035645D01*
X116101625Y-61013079D01*
X116216621Y-60924839D01*
X116304861Y-60809843D01*
X116360330Y-60675927D01*
X116379250Y-60532218D01*
X116360330Y-60388509D01*
X116304861Y-60254593D01*
X116216621Y-60139597D01*
X116101625Y-60051357D01*
X116101621Y-60051355D01*
X115967709Y-59995888D01*
X115967708Y-59995887D01*
X115824000Y-59976968D01*
X115680291Y-59995887D01*
X115680290Y-59995888D01*
X115546378Y-60051355D01*
X115546374Y-60051357D01*
X115431381Y-60139595D01*
X115431377Y-60139599D01*
X115343139Y-60254592D01*
X115343137Y-60254596D01*
X115287670Y-60388508D01*
X115287669Y-60388509D01*
X115268750Y-60532217D01*
X113530500Y-60532217D01*
X113530500Y-60491291D01*
X113530500Y-60491290D01*
X113496392Y-60363996D01*
X113496390Y-60363993D01*
X113496390Y-60363991D01*
X113430503Y-60249872D01*
X113430499Y-60249867D01*
X113337314Y-60156681D01*
X113337314Y-60156682D01*
X112759212Y-59578580D01*
X112737754Y-59546465D01*
X112709460Y-59478156D01*
X112621220Y-59363160D01*
X112506224Y-59274920D01*
X112506220Y-59274918D01*
X112372308Y-59219451D01*
X112372307Y-59219450D01*
X112228599Y-59200531D01*
X112084890Y-59219450D01*
X112084889Y-59219451D01*
X111950977Y-59274918D01*
X111950973Y-59274920D01*
X111835980Y-59363158D01*
X111835976Y-59363162D01*
X111747738Y-59478155D01*
X111747736Y-59478159D01*
X111692269Y-59612071D01*
X111692268Y-59612072D01*
X111673349Y-59755780D01*
X111673349Y-59755781D01*
X111692268Y-59899489D01*
X111692269Y-59899490D01*
X111747738Y-60033406D01*
X111835978Y-60148402D01*
X111950974Y-60236642D01*
X112019283Y-60264936D01*
X112051398Y-60286394D01*
X112500504Y-60735500D01*
X112528281Y-60790017D01*
X112529500Y-60805504D01*
X112529500Y-64868891D01*
X112529680Y-64870259D01*
X112529500Y-64871229D01*
X112529500Y-64875381D01*
X112528730Y-64875381D01*
X112518527Y-64930420D01*
X112474143Y-64972535D01*
X112413480Y-64980518D01*
X112361524Y-64953182D01*
X112356928Y-64948586D01*
X112216788Y-64846768D01*
X112216787Y-64846767D01*
X112216785Y-64846766D01*
X112062441Y-64768125D01*
X111925922Y-64723766D01*
X111876423Y-64687802D01*
X111857516Y-64629611D01*
X111876424Y-64571421D01*
X111918627Y-64538150D01*
X112037625Y-64488861D01*
X112152621Y-64400621D01*
X112240861Y-64285625D01*
X112296330Y-64151709D01*
X112315250Y-64008000D01*
X112296330Y-63864291D01*
X112240861Y-63730375D01*
X112152621Y-63615379D01*
X112037625Y-63527139D01*
X112037621Y-63527137D01*
X111903709Y-63471670D01*
X111903708Y-63471669D01*
X111760000Y-63452750D01*
X111616291Y-63471669D01*
X111616290Y-63471670D01*
X111482378Y-63527137D01*
X111482374Y-63527139D01*
X111367381Y-63615377D01*
X111367377Y-63615381D01*
X111279139Y-63730374D01*
X111279137Y-63730378D01*
X111223670Y-63864290D01*
X111223669Y-63864291D01*
X111204750Y-64007999D01*
X111204750Y-64008000D01*
X111223669Y-64151708D01*
X111223670Y-64151709D01*
X111273686Y-64272462D01*
X111279139Y-64285625D01*
X111367379Y-64400621D01*
X111482375Y-64488861D01*
X111524619Y-64506358D01*
X111571144Y-64546093D01*
X111585428Y-64605588D01*
X111562014Y-64662116D01*
X111509846Y-64694086D01*
X111502221Y-64695603D01*
X111382296Y-64714598D01*
X111382293Y-64714598D01*
X111217561Y-64768123D01*
X111217558Y-64768125D01*
X111063214Y-64846766D01*
X110923073Y-64948585D01*
X110800585Y-65071073D01*
X110698766Y-65211214D01*
X110620125Y-65365558D01*
X110620123Y-65365561D01*
X110566598Y-65530293D01*
X110566597Y-65530297D01*
X110539500Y-65701385D01*
X110240500Y-65701385D01*
X110213402Y-65530297D01*
X110213401Y-65530293D01*
X110159876Y-65365561D01*
X110159874Y-65365558D01*
X110159873Y-65365557D01*
X110159873Y-65365555D01*
X110081232Y-65211212D01*
X109979414Y-65071072D01*
X109856928Y-64948586D01*
X109716788Y-64846768D01*
X109716787Y-64846767D01*
X109716785Y-64846766D01*
X109562441Y-64768125D01*
X109562438Y-64768123D01*
X109403507Y-64716483D01*
X109354007Y-64680519D01*
X109335100Y-64622328D01*
X109354008Y-64564138D01*
X109396212Y-64530866D01*
X109497625Y-64488861D01*
X109612621Y-64400621D01*
X109700861Y-64285625D01*
X109756330Y-64151709D01*
X109775250Y-64008000D01*
X109756330Y-63864291D01*
X109700861Y-63730375D01*
X109612621Y-63615379D01*
X109497625Y-63527139D01*
X109497621Y-63527137D01*
X109363709Y-63471670D01*
X109363708Y-63471669D01*
X109220000Y-63452750D01*
X109076291Y-63471669D01*
X109076290Y-63471670D01*
X108942378Y-63527137D01*
X108942374Y-63527139D01*
X108827381Y-63615377D01*
X108827377Y-63615381D01*
X108739139Y-63730374D01*
X108739137Y-63730378D01*
X108683670Y-63864290D01*
X108683669Y-63864291D01*
X108664750Y-64007999D01*
X108664750Y-64008000D01*
X108683669Y-64151708D01*
X108683670Y-64151709D01*
X108733686Y-64272462D01*
X108739139Y-64285625D01*
X108827379Y-64400621D01*
X108942375Y-64488861D01*
X108995684Y-64510942D01*
X109042209Y-64550676D01*
X109056493Y-64610171D01*
X109033079Y-64666699D01*
X108980911Y-64698669D01*
X108973286Y-64700186D01*
X108882296Y-64714598D01*
X108882293Y-64714598D01*
X108717561Y-64768123D01*
X108717558Y-64768125D01*
X108563214Y-64846766D01*
X108423073Y-64948585D01*
X108300585Y-65071073D01*
X108198766Y-65211214D01*
X108120125Y-65365558D01*
X108120123Y-65365561D01*
X108066598Y-65530293D01*
X108066597Y-65530297D01*
X108039500Y-65701385D01*
X107740500Y-65701385D01*
X107713402Y-65530297D01*
X107713401Y-65530293D01*
X107659876Y-65365561D01*
X107659874Y-65365558D01*
X107659873Y-65365557D01*
X107659873Y-65365555D01*
X107581232Y-65211212D01*
X107479414Y-65071072D01*
X107356928Y-64948586D01*
X107216788Y-64846768D01*
X107216787Y-64846767D01*
X107216785Y-64846766D01*
X107062441Y-64768125D01*
X107062438Y-64768123D01*
X106992783Y-64745491D01*
X106943283Y-64709527D01*
X106924376Y-64651336D01*
X106943284Y-64593146D01*
X106992784Y-64557182D01*
X107010449Y-64553185D01*
X107077709Y-64544330D01*
X107211625Y-64488861D01*
X107326621Y-64400621D01*
X107414861Y-64285625D01*
X107470330Y-64151709D01*
X107489250Y-64008000D01*
X107470330Y-63864291D01*
X107414861Y-63730375D01*
X107326621Y-63615379D01*
X107211625Y-63527139D01*
X107211621Y-63527137D01*
X107077709Y-63471670D01*
X107077708Y-63471669D01*
X106934000Y-63452750D01*
X106790291Y-63471669D01*
X106790290Y-63471670D01*
X106656378Y-63527137D01*
X106656374Y-63527139D01*
X106541381Y-63615377D01*
X106541377Y-63615381D01*
X106469042Y-63709650D01*
X106418617Y-63744305D01*
X106357453Y-63742703D01*
X106308911Y-63705456D01*
X106291500Y-63649382D01*
X106291500Y-60811740D01*
X106310407Y-60753549D01*
X106320490Y-60741743D01*
X106725802Y-60336430D01*
X106757914Y-60314973D01*
X106826227Y-60286679D01*
X106941223Y-60198439D01*
X107029463Y-60083443D01*
X107084932Y-59949527D01*
X107103852Y-59805818D01*
X107084932Y-59662109D01*
X107029463Y-59528193D01*
X106941223Y-59413197D01*
X106826227Y-59324957D01*
X106826223Y-59324955D01*
X106692311Y-59269488D01*
X106692310Y-59269487D01*
X106548602Y-59250568D01*
X106404893Y-59269487D01*
X106404892Y-59269488D01*
X106270980Y-59324955D01*
X106270976Y-59324957D01*
X106155983Y-59413195D01*
X106155979Y-59413199D01*
X106067740Y-59528194D01*
X106039447Y-59596499D01*
X106017987Y-59628616D01*
X105483686Y-60162919D01*
X105390500Y-60256105D01*
X105390496Y-60256110D01*
X105324609Y-60370229D01*
X105305539Y-60441398D01*
X105290500Y-60497528D01*
X103379505Y-60497528D01*
X103350861Y-60428375D01*
X103262621Y-60313379D01*
X103147625Y-60225139D01*
X103147621Y-60225137D01*
X103013709Y-60169670D01*
X103013708Y-60169669D01*
X102870000Y-60150750D01*
X102726291Y-60169669D01*
X102726290Y-60169670D01*
X102592378Y-60225137D01*
X102592374Y-60225139D01*
X102477381Y-60313377D01*
X102477377Y-60313381D01*
X102389139Y-60428374D01*
X102389137Y-60428378D01*
X102333670Y-60562290D01*
X102333669Y-60562291D01*
X102314750Y-60705999D01*
X100449500Y-60705999D01*
X100449500Y-58451252D01*
X100458744Y-58422800D01*
X100457574Y-58418489D01*
X100638258Y-58418489D01*
X100647023Y-58441549D01*
X100663251Y-58606325D01*
X100663252Y-58606328D01*
X100663253Y-58606331D01*
X100713053Y-58770500D01*
X100717605Y-58785504D01*
X100717606Y-58785506D01*
X100805859Y-58950617D01*
X100805862Y-58950622D01*
X100805864Y-58950625D01*
X100855395Y-59010978D01*
X100924638Y-59095352D01*
X100924647Y-59095361D01*
X100992145Y-59150755D01*
X101069375Y-59214136D01*
X101069380Y-59214138D01*
X101069382Y-59214140D01*
X101234493Y-59302393D01*
X101234499Y-59302396D01*
X101413669Y-59356747D01*
X101413671Y-59356747D01*
X101413674Y-59356748D01*
X101599996Y-59375099D01*
X101600000Y-59375099D01*
X101600004Y-59375099D01*
X101786325Y-59356748D01*
X101786326Y-59356747D01*
X101786331Y-59356747D01*
X101965501Y-59302396D01*
X102130625Y-59214136D01*
X102275357Y-59095357D01*
X102394136Y-58950625D01*
X102482396Y-58785501D01*
X102536747Y-58606331D01*
X102554824Y-58422800D01*
X102555099Y-58420004D01*
X102555099Y-58419995D01*
X102536748Y-58233674D01*
X102536747Y-58233671D01*
X102536747Y-58233669D01*
X102482396Y-58054499D01*
X102480308Y-58050593D01*
X102394140Y-57889382D01*
X102394138Y-57889380D01*
X102394136Y-57889375D01*
X102318686Y-57797439D01*
X102275361Y-57744647D01*
X102275352Y-57744638D01*
X102176516Y-57663526D01*
X102130625Y-57625864D01*
X102130622Y-57625862D01*
X102130617Y-57625859D01*
X101965506Y-57537606D01*
X101965504Y-57537605D01*
X101906865Y-57519817D01*
X109426750Y-57519817D01*
X109426750Y-57519818D01*
X109445669Y-57663526D01*
X109445670Y-57663527D01*
X109479270Y-57744647D01*
X109501139Y-57797443D01*
X109589379Y-57912439D01*
X109704375Y-58000679D01*
X109838291Y-58056148D01*
X109982000Y-58075068D01*
X110125709Y-58056148D01*
X110259625Y-58000679D01*
X110274834Y-57989009D01*
X110302732Y-57967602D01*
X110360408Y-57947177D01*
X110419074Y-57964554D01*
X110423268Y-57967602D01*
X110466369Y-58000675D01*
X110466371Y-58000676D01*
X110466375Y-58000679D01*
X110600291Y-58056148D01*
X110744000Y-58075068D01*
X110887709Y-58056148D01*
X111021625Y-58000679D01*
X111136621Y-57912439D01*
X111224861Y-57797443D01*
X111280330Y-57663527D01*
X111299250Y-57519818D01*
X111291304Y-57459467D01*
X111280330Y-57376109D01*
X111249478Y-57301625D01*
X111226353Y-57245794D01*
X111221553Y-57184797D01*
X111226353Y-57170024D01*
X111244093Y-57127195D01*
X111280330Y-57039709D01*
X111299250Y-56896000D01*
X111280330Y-56752291D01*
X111224861Y-56618375D01*
X111222378Y-56612380D01*
X111224786Y-56611382D01*
X111214373Y-56562398D01*
X111221365Y-56534864D01*
X111265255Y-56428904D01*
X111284175Y-56285195D01*
X111278949Y-56245504D01*
X111265255Y-56141486D01*
X111209786Y-56007570D01*
X111121546Y-55892574D01*
X111006550Y-55804334D01*
X111006546Y-55804332D01*
X110872634Y-55748865D01*
X110872633Y-55748864D01*
X110728925Y-55729945D01*
X110585216Y-55748864D01*
X110585215Y-55748865D01*
X110451303Y-55804332D01*
X110451299Y-55804334D01*
X110336306Y-55892572D01*
X110336302Y-55892576D01*
X110248064Y-56007569D01*
X110248062Y-56007573D01*
X110192595Y-56141485D01*
X110192594Y-56141486D01*
X110173675Y-56285194D01*
X110173675Y-56285195D01*
X110192594Y-56428903D01*
X110192595Y-56428904D01*
X110250547Y-56568815D01*
X110248141Y-56569811D01*
X110258549Y-56618814D01*
X110251558Y-56646333D01*
X110207671Y-56752290D01*
X110207669Y-56752294D01*
X110189276Y-56892003D01*
X110162935Y-56947227D01*
X110109164Y-56976422D01*
X110078201Y-56977233D01*
X109982001Y-56964568D01*
X109982000Y-56964568D01*
X109838291Y-56983487D01*
X109838290Y-56983488D01*
X109704378Y-57038955D01*
X109704374Y-57038957D01*
X109589381Y-57127195D01*
X109589377Y-57127199D01*
X109501139Y-57242192D01*
X109501137Y-57242196D01*
X109445670Y-57376108D01*
X109445669Y-57376109D01*
X109426750Y-57519817D01*
X101906865Y-57519817D01*
X101786331Y-57483253D01*
X101786328Y-57483252D01*
X101786325Y-57483251D01*
X101600004Y-57464901D01*
X101599996Y-57464901D01*
X101413674Y-57483251D01*
X101413671Y-57483252D01*
X101234495Y-57537605D01*
X101234493Y-57537606D01*
X101069382Y-57625859D01*
X101069376Y-57625863D01*
X100924647Y-57744638D01*
X100924638Y-57744647D01*
X100805863Y-57889376D01*
X100805859Y-57889382D01*
X100717606Y-58054493D01*
X100717605Y-58054495D01*
X100663252Y-58233671D01*
X100663251Y-58233673D01*
X100647023Y-58398451D01*
X100638258Y-58418489D01*
X100457574Y-58418489D01*
X100449500Y-58388747D01*
X100449500Y-55911252D01*
X100458744Y-55882800D01*
X100457574Y-55878489D01*
X100638258Y-55878489D01*
X100647023Y-55901549D01*
X100663251Y-56066325D01*
X100663252Y-56066328D01*
X100717605Y-56245504D01*
X100717606Y-56245506D01*
X100805859Y-56410617D01*
X100805862Y-56410622D01*
X100805864Y-56410625D01*
X100855395Y-56470978D01*
X100924638Y-56555352D01*
X100924647Y-56555361D01*
X100979552Y-56600420D01*
X101069375Y-56674136D01*
X101069380Y-56674138D01*
X101069382Y-56674140D01*
X101215599Y-56752294D01*
X101234499Y-56762396D01*
X101413669Y-56816747D01*
X101413671Y-56816747D01*
X101413674Y-56816748D01*
X101599996Y-56835099D01*
X101600000Y-56835099D01*
X101600004Y-56835099D01*
X101786325Y-56816748D01*
X101786326Y-56816747D01*
X101786331Y-56816747D01*
X101965501Y-56762396D01*
X102130625Y-56674136D01*
X102275357Y-56555357D01*
X102394136Y-56410625D01*
X102482396Y-56245501D01*
X102536747Y-56066331D01*
X102542535Y-56007573D01*
X102555099Y-55880004D01*
X102555099Y-55879995D01*
X102536748Y-55693674D01*
X102536747Y-55693671D01*
X102536747Y-55693669D01*
X102482396Y-55514499D01*
X102457387Y-55467710D01*
X102394140Y-55349382D01*
X102394138Y-55349380D01*
X102394136Y-55349375D01*
X102324248Y-55264217D01*
X103330750Y-55264217D01*
X103330750Y-55264218D01*
X103349669Y-55407926D01*
X103349670Y-55407927D01*
X103374432Y-55467710D01*
X103405139Y-55541843D01*
X103493379Y-55656839D01*
X103608375Y-55745079D01*
X103742291Y-55800548D01*
X103886000Y-55819468D01*
X104029709Y-55800548D01*
X104163625Y-55745079D01*
X104278621Y-55656839D01*
X104366861Y-55541843D01*
X104422330Y-55407927D01*
X104433379Y-55324000D01*
X112728730Y-55324000D01*
X112728730Y-55324001D01*
X112747649Y-55467709D01*
X112747650Y-55467710D01*
X112803119Y-55601626D01*
X112803121Y-55601629D01*
X112803122Y-55601630D01*
X112891355Y-55716618D01*
X112891357Y-55716619D01*
X112891359Y-55716622D01*
X112894743Y-55719218D01*
X112929401Y-55769639D01*
X112933480Y-55797763D01*
X112933480Y-57819942D01*
X112957366Y-57909086D01*
X113003510Y-57989010D01*
X113714970Y-58700470D01*
X113794894Y-58746614D01*
X113884038Y-58770500D01*
X113884039Y-58770500D01*
X113976326Y-58770500D01*
X115890247Y-58770500D01*
X115948438Y-58789407D01*
X115977557Y-58822832D01*
X116045859Y-58950617D01*
X116045862Y-58950622D01*
X116045864Y-58950625D01*
X116095395Y-59010978D01*
X116164638Y-59095352D01*
X116164647Y-59095361D01*
X116232145Y-59150755D01*
X116309375Y-59214136D01*
X116309380Y-59214138D01*
X116309382Y-59214140D01*
X116474493Y-59302393D01*
X116474499Y-59302396D01*
X116653669Y-59356747D01*
X116653671Y-59356747D01*
X116653674Y-59356748D01*
X116839996Y-59375099D01*
X116840000Y-59375099D01*
X116840004Y-59375099D01*
X117026325Y-59356748D01*
X117026326Y-59356747D01*
X117026331Y-59356747D01*
X117205501Y-59302396D01*
X117370625Y-59214136D01*
X117515357Y-59095357D01*
X117634136Y-58950625D01*
X117722396Y-58785501D01*
X117776747Y-58606331D01*
X117794824Y-58422800D01*
X117795099Y-58420004D01*
X117795099Y-58419995D01*
X117776748Y-58233674D01*
X117776747Y-58233671D01*
X117776747Y-58233669D01*
X117722396Y-58054499D01*
X117720308Y-58050593D01*
X117634140Y-57889382D01*
X117634138Y-57889380D01*
X117634136Y-57889375D01*
X117558686Y-57797439D01*
X117515361Y-57744647D01*
X117515352Y-57744638D01*
X117416516Y-57663526D01*
X117370625Y-57625864D01*
X117370622Y-57625862D01*
X117370617Y-57625859D01*
X117205506Y-57537606D01*
X117205504Y-57537605D01*
X117146865Y-57519817D01*
X117026331Y-57483253D01*
X117026328Y-57483252D01*
X117026325Y-57483251D01*
X116840004Y-57464901D01*
X116839996Y-57464901D01*
X116653674Y-57483251D01*
X116653671Y-57483252D01*
X116474495Y-57537605D01*
X116474493Y-57537606D01*
X116309382Y-57625859D01*
X116309376Y-57625863D01*
X116164647Y-57744638D01*
X116164638Y-57744647D01*
X116045863Y-57889376D01*
X116045859Y-57889382D01*
X115977557Y-58017168D01*
X115933452Y-58059575D01*
X115890247Y-58069500D01*
X114710402Y-58069500D01*
X114652211Y-58050593D01*
X114616247Y-58001093D01*
X114616247Y-57939907D01*
X114618931Y-57932629D01*
X114640399Y-57880802D01*
X114659319Y-57737093D01*
X114644674Y-57625859D01*
X114640399Y-57593384D01*
X114584930Y-57459468D01*
X114496690Y-57344472D01*
X114381694Y-57256232D01*
X114381690Y-57256230D01*
X114247778Y-57200763D01*
X114247777Y-57200762D01*
X114104069Y-57181843D01*
X113960360Y-57200762D01*
X113960359Y-57200763D01*
X113826447Y-57256230D01*
X113826439Y-57256234D01*
X113793746Y-57281321D01*
X113736070Y-57301744D01*
X113677405Y-57284366D01*
X113640158Y-57235824D01*
X113634480Y-57202778D01*
X113634480Y-55879995D01*
X115884901Y-55879995D01*
X115884901Y-55880004D01*
X115903251Y-56066325D01*
X115903252Y-56066328D01*
X115957605Y-56245504D01*
X115957606Y-56245506D01*
X116045859Y-56410617D01*
X116045862Y-56410622D01*
X116045864Y-56410625D01*
X116095395Y-56470978D01*
X116164638Y-56555352D01*
X116164647Y-56555361D01*
X116219552Y-56600420D01*
X116309375Y-56674136D01*
X116309380Y-56674138D01*
X116309382Y-56674140D01*
X116455599Y-56752294D01*
X116474499Y-56762396D01*
X116653669Y-56816747D01*
X116653671Y-56816747D01*
X116653674Y-56816748D01*
X116839996Y-56835099D01*
X116840000Y-56835099D01*
X116840004Y-56835099D01*
X117026325Y-56816748D01*
X117026326Y-56816747D01*
X117026331Y-56816747D01*
X117205501Y-56762396D01*
X117370625Y-56674136D01*
X117515357Y-56555357D01*
X117634136Y-56410625D01*
X117722396Y-56245501D01*
X117776747Y-56066331D01*
X117782535Y-56007573D01*
X117795099Y-55880004D01*
X117795099Y-55879995D01*
X117776748Y-55693674D01*
X117776747Y-55693671D01*
X117776747Y-55693669D01*
X117722396Y-55514499D01*
X117697387Y-55467710D01*
X117634140Y-55349382D01*
X117634138Y-55349380D01*
X117634136Y-55349375D01*
X117564248Y-55264217D01*
X117515361Y-55204647D01*
X117515352Y-55204638D01*
X117412840Y-55120509D01*
X117370625Y-55085864D01*
X117370622Y-55085862D01*
X117370617Y-55085859D01*
X117205506Y-54997606D01*
X117205504Y-54997605D01*
X117169199Y-54986592D01*
X117026331Y-54943253D01*
X117026328Y-54943252D01*
X117026325Y-54943251D01*
X116840004Y-54924901D01*
X116839996Y-54924901D01*
X116653674Y-54943251D01*
X116653671Y-54943252D01*
X116474495Y-54997605D01*
X116474493Y-54997606D01*
X116309382Y-55085859D01*
X116309376Y-55085863D01*
X116164647Y-55204638D01*
X116164638Y-55204647D01*
X116045863Y-55349376D01*
X116045859Y-55349382D01*
X115957606Y-55514493D01*
X115957605Y-55514495D01*
X115903252Y-55693671D01*
X115903251Y-55693674D01*
X115884901Y-55879995D01*
X113634480Y-55879995D01*
X113634480Y-55797763D01*
X113653387Y-55739572D01*
X113673214Y-55719220D01*
X113676601Y-55716622D01*
X113764841Y-55601626D01*
X113820310Y-55467710D01*
X113839230Y-55324001D01*
X113820310Y-55180292D01*
X113764841Y-55046376D01*
X113676601Y-54931380D01*
X113561605Y-54843140D01*
X113561601Y-54843138D01*
X113427689Y-54787671D01*
X113427688Y-54787670D01*
X113283980Y-54768751D01*
X113140271Y-54787670D01*
X113140270Y-54787671D01*
X113006358Y-54843138D01*
X113006354Y-54843140D01*
X112891361Y-54931378D01*
X112891357Y-54931382D01*
X112803119Y-55046375D01*
X112803117Y-55046379D01*
X112747650Y-55180291D01*
X112747649Y-55180292D01*
X112728730Y-55324000D01*
X104433379Y-55324000D01*
X104441250Y-55264218D01*
X104422330Y-55120509D01*
X104366861Y-54986593D01*
X104278621Y-54871597D01*
X104278616Y-54871593D01*
X104278614Y-54871591D01*
X104231025Y-54835074D01*
X104196370Y-54784650D01*
X104197972Y-54723485D01*
X104231024Y-54677993D01*
X104279445Y-54640839D01*
X104367685Y-54525843D01*
X104423154Y-54391927D01*
X104442074Y-54248218D01*
X104438674Y-54222396D01*
X104423154Y-54104509D01*
X104367685Y-53970593D01*
X104279445Y-53855597D01*
X104164449Y-53767357D01*
X104164445Y-53767355D01*
X104030533Y-53711888D01*
X104030532Y-53711887D01*
X103886824Y-53692968D01*
X103743115Y-53711887D01*
X103743114Y-53711888D01*
X103609202Y-53767355D01*
X103609198Y-53767357D01*
X103494205Y-53855595D01*
X103494201Y-53855599D01*
X103405963Y-53970592D01*
X103405961Y-53970596D01*
X103350494Y-54104508D01*
X103350493Y-54104509D01*
X103331574Y-54248217D01*
X103331574Y-54248218D01*
X103350493Y-54391926D01*
X103350494Y-54391927D01*
X103405963Y-54525843D01*
X103494203Y-54640839D01*
X103494206Y-54640841D01*
X103494208Y-54640843D01*
X103541797Y-54677359D01*
X103576453Y-54727783D01*
X103574852Y-54788947D01*
X103541799Y-54834442D01*
X103493382Y-54871594D01*
X103493377Y-54871599D01*
X103405139Y-54986592D01*
X103405137Y-54986596D01*
X103349670Y-55120508D01*
X103349669Y-55120509D01*
X103330750Y-55264217D01*
X102324248Y-55264217D01*
X102275361Y-55204647D01*
X102275352Y-55204638D01*
X102172840Y-55120509D01*
X102130625Y-55085864D01*
X102130622Y-55085862D01*
X102130617Y-55085859D01*
X101965506Y-54997606D01*
X101965504Y-54997605D01*
X101929199Y-54986592D01*
X101786331Y-54943253D01*
X101786328Y-54943252D01*
X101786325Y-54943251D01*
X101600004Y-54924901D01*
X101599996Y-54924901D01*
X101413674Y-54943251D01*
X101413671Y-54943252D01*
X101234495Y-54997605D01*
X101234493Y-54997606D01*
X101069382Y-55085859D01*
X101069376Y-55085863D01*
X100924647Y-55204638D01*
X100924638Y-55204647D01*
X100805863Y-55349376D01*
X100805859Y-55349382D01*
X100717606Y-55514493D01*
X100717605Y-55514495D01*
X100663252Y-55693671D01*
X100663251Y-55693673D01*
X100647023Y-55858451D01*
X100638258Y-55878489D01*
X100457574Y-55878489D01*
X100449500Y-55848747D01*
X100449500Y-53371252D01*
X100458744Y-53342800D01*
X100457574Y-53338489D01*
X100638258Y-53338489D01*
X100647023Y-53361549D01*
X100663251Y-53526325D01*
X100663252Y-53526328D01*
X100717605Y-53705504D01*
X100717606Y-53705506D01*
X100805859Y-53870617D01*
X100805862Y-53870622D01*
X100805864Y-53870625D01*
X100855395Y-53930978D01*
X100924638Y-54015352D01*
X100924647Y-54015361D01*
X100992145Y-54070755D01*
X101069375Y-54134136D01*
X101234499Y-54222396D01*
X101413669Y-54276747D01*
X101413671Y-54276747D01*
X101413674Y-54276748D01*
X101599996Y-54295099D01*
X101600000Y-54295099D01*
X101600004Y-54295099D01*
X101786325Y-54276748D01*
X101786326Y-54276747D01*
X101786331Y-54276747D01*
X101965501Y-54222396D01*
X102130625Y-54134136D01*
X102275357Y-54015357D01*
X102394136Y-53870625D01*
X102482396Y-53705501D01*
X102536747Y-53526331D01*
X102554824Y-53342800D01*
X102555099Y-53340004D01*
X102555099Y-53339995D01*
X115884901Y-53339995D01*
X115884901Y-53340004D01*
X115903251Y-53526325D01*
X115903252Y-53526328D01*
X115957605Y-53705504D01*
X115957606Y-53705506D01*
X116045859Y-53870617D01*
X116045862Y-53870622D01*
X116045864Y-53870625D01*
X116095395Y-53930978D01*
X116164638Y-54015352D01*
X116164647Y-54015361D01*
X116232145Y-54070755D01*
X116309375Y-54134136D01*
X116474499Y-54222396D01*
X116653669Y-54276747D01*
X116653671Y-54276747D01*
X116653674Y-54276748D01*
X116839996Y-54295099D01*
X116840000Y-54295099D01*
X116840004Y-54295099D01*
X117026325Y-54276748D01*
X117026326Y-54276747D01*
X117026331Y-54276747D01*
X117205501Y-54222396D01*
X117370625Y-54134136D01*
X117515357Y-54015357D01*
X117634136Y-53870625D01*
X117722396Y-53705501D01*
X117776747Y-53526331D01*
X117794824Y-53342800D01*
X117795099Y-53340004D01*
X117795099Y-53339995D01*
X117776748Y-53153674D01*
X117776747Y-53153671D01*
X117776747Y-53153669D01*
X117722396Y-52974499D01*
X117709003Y-52949442D01*
X117634140Y-52809382D01*
X117634138Y-52809380D01*
X117634136Y-52809375D01*
X117538621Y-52692990D01*
X117515361Y-52664647D01*
X117515352Y-52664638D01*
X117430978Y-52595395D01*
X117370625Y-52545864D01*
X117370622Y-52545862D01*
X117370617Y-52545859D01*
X117205506Y-52457606D01*
X117205504Y-52457605D01*
X117186397Y-52451809D01*
X117026331Y-52403253D01*
X117026328Y-52403252D01*
X117026325Y-52403251D01*
X116840004Y-52384901D01*
X116839996Y-52384901D01*
X116653674Y-52403251D01*
X116653671Y-52403252D01*
X116474495Y-52457605D01*
X116474493Y-52457606D01*
X116309382Y-52545859D01*
X116309376Y-52545863D01*
X116164647Y-52664638D01*
X116164638Y-52664647D01*
X116045863Y-52809376D01*
X116045859Y-52809382D01*
X115957606Y-52974493D01*
X115957605Y-52974495D01*
X115903252Y-53153671D01*
X115903251Y-53153674D01*
X115884901Y-53339995D01*
X102555099Y-53339995D01*
X102536748Y-53153674D01*
X102536747Y-53153671D01*
X102536747Y-53153669D01*
X102482396Y-52974499D01*
X102469003Y-52949442D01*
X102394140Y-52809382D01*
X102394138Y-52809380D01*
X102394136Y-52809375D01*
X102298621Y-52692990D01*
X102275361Y-52664647D01*
X102275352Y-52664638D01*
X102190978Y-52595395D01*
X102130625Y-52545864D01*
X102130622Y-52545862D01*
X102130617Y-52545859D01*
X101965506Y-52457606D01*
X101965504Y-52457605D01*
X101946397Y-52451809D01*
X101786331Y-52403253D01*
X101786328Y-52403252D01*
X101786325Y-52403251D01*
X101600004Y-52384901D01*
X101599996Y-52384901D01*
X101413674Y-52403251D01*
X101413671Y-52403252D01*
X101234495Y-52457605D01*
X101234493Y-52457606D01*
X101069382Y-52545859D01*
X101069376Y-52545863D01*
X100924647Y-52664638D01*
X100924638Y-52664647D01*
X100805863Y-52809376D01*
X100805859Y-52809382D01*
X100717606Y-52974493D01*
X100717605Y-52974495D01*
X100663252Y-53153671D01*
X100663251Y-53153673D01*
X100647023Y-53318451D01*
X100638258Y-53338489D01*
X100457574Y-53338489D01*
X100449500Y-53308747D01*
X100449500Y-50831252D01*
X100458744Y-50802800D01*
X100457574Y-50798489D01*
X100638258Y-50798489D01*
X100647023Y-50821549D01*
X100663251Y-50986325D01*
X100663252Y-50986328D01*
X100717605Y-51165504D01*
X100717606Y-51165506D01*
X100805859Y-51330617D01*
X100805862Y-51330622D01*
X100805864Y-51330625D01*
X100855395Y-51390978D01*
X100924638Y-51475352D01*
X100924647Y-51475361D01*
X100992145Y-51530755D01*
X101069375Y-51594136D01*
X101234499Y-51682396D01*
X101413669Y-51736747D01*
X101413671Y-51736747D01*
X101413674Y-51736748D01*
X101599996Y-51755099D01*
X101600000Y-51755099D01*
X101600004Y-51755099D01*
X101786325Y-51736748D01*
X101786326Y-51736747D01*
X101786331Y-51736747D01*
X101965501Y-51682396D01*
X102130625Y-51594136D01*
X102275357Y-51475357D01*
X102394136Y-51330625D01*
X102482396Y-51165501D01*
X102536747Y-50986331D01*
X102554141Y-50809735D01*
X102555099Y-50800004D01*
X102555099Y-50799995D01*
X102536748Y-50613674D01*
X102536747Y-50613671D01*
X102536747Y-50613669D01*
X102482396Y-50434499D01*
X102482393Y-50434493D01*
X102394140Y-50269382D01*
X102394138Y-50269380D01*
X102394136Y-50269375D01*
X102321024Y-50180288D01*
X102275361Y-50124647D01*
X102275352Y-50124638D01*
X102190978Y-50055395D01*
X102130625Y-50005864D01*
X102130622Y-50005862D01*
X102130617Y-50005859D01*
X101965506Y-49917606D01*
X101965504Y-49917605D01*
X101786328Y-49863252D01*
X101786325Y-49863251D01*
X101600004Y-49844901D01*
X101599996Y-49844901D01*
X101413674Y-49863251D01*
X101413671Y-49863252D01*
X101234495Y-49917605D01*
X101234493Y-49917606D01*
X101069382Y-50005859D01*
X101069376Y-50005863D01*
X100924647Y-50124638D01*
X100924638Y-50124647D01*
X100805863Y-50269376D01*
X100805859Y-50269382D01*
X100717606Y-50434493D01*
X100717605Y-50434495D01*
X100663252Y-50613671D01*
X100663251Y-50613673D01*
X100647023Y-50778451D01*
X100638258Y-50798489D01*
X100457574Y-50798489D01*
X100449500Y-50768747D01*
X100449500Y-48291252D01*
X100458744Y-48262800D01*
X100457574Y-48258489D01*
X100638258Y-48258489D01*
X100647023Y-48281549D01*
X100663251Y-48446325D01*
X100663252Y-48446328D01*
X100717605Y-48625504D01*
X100717606Y-48625506D01*
X100805859Y-48790617D01*
X100805862Y-48790622D01*
X100805864Y-48790625D01*
X100821137Y-48809235D01*
X100924638Y-48935352D01*
X100924647Y-48935361D01*
X100992145Y-48990755D01*
X101069375Y-49054136D01*
X101069380Y-49054138D01*
X101069382Y-49054140D01*
X101220673Y-49135006D01*
X101234499Y-49142396D01*
X101413669Y-49196747D01*
X101413671Y-49196747D01*
X101413674Y-49196748D01*
X101599996Y-49215099D01*
X101600000Y-49215099D01*
X101600004Y-49215099D01*
X101786325Y-49196748D01*
X101786326Y-49196747D01*
X101786331Y-49196747D01*
X101924993Y-49154684D01*
X101986166Y-49155885D01*
X102023735Y-49179417D01*
X103024606Y-50180288D01*
X103067855Y-50205257D01*
X103099515Y-50223537D01*
X103099519Y-50223539D01*
X103104526Y-50226430D01*
X103104527Y-50226430D01*
X103104530Y-50226432D01*
X103193674Y-50250318D01*
X104461810Y-50250318D01*
X104520001Y-50269225D01*
X104531814Y-50279314D01*
X107354186Y-53101686D01*
X107434110Y-53147830D01*
X107523254Y-53171716D01*
X107523255Y-53171716D01*
X107615542Y-53171716D01*
X108141048Y-53171716D01*
X108194571Y-53187432D01*
X108268926Y-53235217D01*
X108268931Y-53235220D01*
X108393228Y-53271716D01*
X108393230Y-53271716D01*
X108522770Y-53271716D01*
X108522772Y-53271716D01*
X108647069Y-53235220D01*
X108756049Y-53165183D01*
X108840882Y-53067279D01*
X108894697Y-52949442D01*
X108913133Y-52821216D01*
X108894697Y-52692990D01*
X108840882Y-52575153D01*
X108756049Y-52477249D01*
X108756048Y-52477248D01*
X108756047Y-52477247D01*
X108647073Y-52407214D01*
X108647070Y-52407212D01*
X108647069Y-52407212D01*
X108633586Y-52403253D01*
X108522774Y-52370716D01*
X108522772Y-52370716D01*
X108393228Y-52370716D01*
X108393225Y-52370716D01*
X108268933Y-52407211D01*
X108268926Y-52407214D01*
X108194571Y-52455000D01*
X108141048Y-52470716D01*
X107755588Y-52470716D01*
X107697397Y-52451809D01*
X107685584Y-52441720D01*
X106409365Y-51165501D01*
X106043859Y-50799995D01*
X115884901Y-50799995D01*
X115884901Y-50800004D01*
X115903251Y-50986325D01*
X115903252Y-50986328D01*
X115957605Y-51165504D01*
X115957606Y-51165506D01*
X116045859Y-51330617D01*
X116045862Y-51330622D01*
X116045864Y-51330625D01*
X116095395Y-51390978D01*
X116164638Y-51475352D01*
X116164647Y-51475361D01*
X116232145Y-51530755D01*
X116309375Y-51594136D01*
X116474499Y-51682396D01*
X116653669Y-51736747D01*
X116653671Y-51736747D01*
X116653674Y-51736748D01*
X116839996Y-51755099D01*
X116840000Y-51755099D01*
X116840004Y-51755099D01*
X117026325Y-51736748D01*
X117026326Y-51736747D01*
X117026331Y-51736747D01*
X117205501Y-51682396D01*
X117370625Y-51594136D01*
X117515357Y-51475357D01*
X117634136Y-51330625D01*
X117722396Y-51165501D01*
X117776747Y-50986331D01*
X117795094Y-50800051D01*
X117795120Y-50799989D01*
X117795090Y-50799909D01*
X117794132Y-50790187D01*
X117792021Y-50768747D01*
X117776748Y-50613674D01*
X117776747Y-50613671D01*
X117776747Y-50613669D01*
X117722396Y-50434499D01*
X117722393Y-50434493D01*
X117634140Y-50269382D01*
X117634138Y-50269380D01*
X117634136Y-50269375D01*
X117561024Y-50180288D01*
X117515361Y-50124647D01*
X117515352Y-50124638D01*
X117430978Y-50055395D01*
X117370625Y-50005864D01*
X117370622Y-50005862D01*
X117370617Y-50005859D01*
X117205506Y-49917606D01*
X117205504Y-49917605D01*
X117026328Y-49863252D01*
X117026325Y-49863251D01*
X116840004Y-49844901D01*
X116839996Y-49844901D01*
X116653674Y-49863251D01*
X116653671Y-49863252D01*
X116474495Y-49917605D01*
X116474493Y-49917606D01*
X116309382Y-50005859D01*
X116309376Y-50005863D01*
X116164647Y-50124638D01*
X116164638Y-50124647D01*
X116045863Y-50269376D01*
X116045859Y-50269382D01*
X115957606Y-50434493D01*
X115957605Y-50434495D01*
X115903252Y-50613671D01*
X115903251Y-50613674D01*
X115884901Y-50799995D01*
X106043859Y-50799995D01*
X104863212Y-49619348D01*
X104783288Y-49573204D01*
X104694144Y-49549318D01*
X104694142Y-49549318D01*
X103426008Y-49549318D01*
X103367817Y-49530411D01*
X103356004Y-49520322D01*
X102644916Y-48809234D01*
X106467550Y-48809234D01*
X106467550Y-48809235D01*
X106486469Y-48952943D01*
X106486470Y-48952944D01*
X106541939Y-49086860D01*
X106630179Y-49201856D01*
X106745175Y-49290096D01*
X106879091Y-49345565D01*
X107022800Y-49364485D01*
X107166509Y-49345565D01*
X107300425Y-49290096D01*
X107415421Y-49201856D01*
X107503661Y-49086860D01*
X107559130Y-48952944D01*
X107578050Y-48809235D01*
X107559130Y-48665526D01*
X107503661Y-48531610D01*
X107415421Y-48416614D01*
X107300425Y-48328374D01*
X107300421Y-48328372D01*
X107166509Y-48272905D01*
X107166508Y-48272904D01*
X107068452Y-48259995D01*
X115884901Y-48259995D01*
X115884901Y-48260004D01*
X115903251Y-48446325D01*
X115903252Y-48446328D01*
X115957605Y-48625504D01*
X115957606Y-48625506D01*
X116045859Y-48790617D01*
X116045862Y-48790622D01*
X116045864Y-48790625D01*
X116061137Y-48809235D01*
X116164638Y-48935352D01*
X116164647Y-48935361D01*
X116232145Y-48990755D01*
X116309375Y-49054136D01*
X116309380Y-49054138D01*
X116309382Y-49054140D01*
X116460673Y-49135006D01*
X116474499Y-49142396D01*
X116653669Y-49196747D01*
X116653671Y-49196747D01*
X116653674Y-49196748D01*
X116839996Y-49215099D01*
X116840000Y-49215099D01*
X116840004Y-49215099D01*
X117026325Y-49196748D01*
X117026326Y-49196747D01*
X117026331Y-49196747D01*
X117205501Y-49142396D01*
X117370625Y-49054136D01*
X117515357Y-48935357D01*
X117634136Y-48790625D01*
X117722396Y-48625501D01*
X117776747Y-48446331D01*
X117794600Y-48265065D01*
X117796669Y-48260333D01*
X117794594Y-48254874D01*
X117794506Y-48253985D01*
X117790886Y-48217225D01*
X117776748Y-48073674D01*
X117776747Y-48073671D01*
X117776747Y-48073669D01*
X117722396Y-47894499D01*
X117634136Y-47729375D01*
X117570755Y-47652145D01*
X117515361Y-47584647D01*
X117515352Y-47584638D01*
X117430978Y-47515395D01*
X117370625Y-47465864D01*
X117370622Y-47465862D01*
X117370617Y-47465859D01*
X117205506Y-47377606D01*
X117205504Y-47377605D01*
X117026328Y-47323252D01*
X117026325Y-47323251D01*
X116840004Y-47304901D01*
X116839996Y-47304901D01*
X116653674Y-47323251D01*
X116653671Y-47323252D01*
X116474495Y-47377605D01*
X116474493Y-47377606D01*
X116309382Y-47465859D01*
X116309376Y-47465863D01*
X116164647Y-47584638D01*
X116164638Y-47584647D01*
X116045863Y-47729376D01*
X116045859Y-47729382D01*
X115957606Y-47894493D01*
X115957605Y-47894495D01*
X115903252Y-48073671D01*
X115903251Y-48073674D01*
X115884901Y-48259995D01*
X107068452Y-48259995D01*
X107022800Y-48253985D01*
X106879091Y-48272904D01*
X106879090Y-48272905D01*
X106745178Y-48328372D01*
X106745174Y-48328374D01*
X106630181Y-48416612D01*
X106630177Y-48416616D01*
X106541939Y-48531609D01*
X106541937Y-48531613D01*
X106486470Y-48665525D01*
X106486469Y-48665526D01*
X106467550Y-48809234D01*
X102644916Y-48809234D01*
X102519417Y-48683735D01*
X102491640Y-48629218D01*
X102494684Y-48584992D01*
X102536747Y-48446331D01*
X102553647Y-48274750D01*
X102555099Y-48260004D01*
X102555099Y-48259995D01*
X102536748Y-48073674D01*
X102536747Y-48073671D01*
X102536747Y-48073669D01*
X102482396Y-47894499D01*
X102394136Y-47729375D01*
X102330755Y-47652145D01*
X102275361Y-47584647D01*
X102275352Y-47584638D01*
X102190978Y-47515395D01*
X102130625Y-47465864D01*
X102130622Y-47465862D01*
X102130617Y-47465859D01*
X101965506Y-47377606D01*
X101965504Y-47377605D01*
X101786328Y-47323252D01*
X101786325Y-47323251D01*
X101600004Y-47304901D01*
X101599996Y-47304901D01*
X101413674Y-47323251D01*
X101413671Y-47323252D01*
X101234495Y-47377605D01*
X101234493Y-47377606D01*
X101069382Y-47465859D01*
X101069376Y-47465863D01*
X100924647Y-47584638D01*
X100924638Y-47584647D01*
X100805863Y-47729376D01*
X100805859Y-47729382D01*
X100717606Y-47894493D01*
X100717605Y-47894495D01*
X100663252Y-48073671D01*
X100663251Y-48073673D01*
X100647023Y-48238451D01*
X100638258Y-48258489D01*
X100457574Y-48258489D01*
X100449500Y-48228747D01*
X100449500Y-45751252D01*
X100458744Y-45722800D01*
X100457574Y-45718489D01*
X100638258Y-45718489D01*
X100647023Y-45741549D01*
X100663251Y-45906325D01*
X100663252Y-45906328D01*
X100717605Y-46085504D01*
X100717606Y-46085506D01*
X100805859Y-46250617D01*
X100805862Y-46250622D01*
X100805864Y-46250625D01*
X100835404Y-46286619D01*
X100924638Y-46395352D01*
X100924647Y-46395361D01*
X100992145Y-46450755D01*
X101069375Y-46514136D01*
X101069380Y-46514138D01*
X101069382Y-46514140D01*
X101123211Y-46542912D01*
X101234499Y-46602396D01*
X101413669Y-46656747D01*
X101413671Y-46656747D01*
X101413674Y-46656748D01*
X101599996Y-46675099D01*
X101600000Y-46675099D01*
X101600004Y-46675099D01*
X101786325Y-46656748D01*
X101786326Y-46656747D01*
X101786331Y-46656747D01*
X101965501Y-46602396D01*
X102130625Y-46514136D01*
X102275357Y-46395357D01*
X102394136Y-46250625D01*
X102482396Y-46085501D01*
X102536747Y-45906331D01*
X102538689Y-45886617D01*
X106531150Y-45886617D01*
X106531150Y-45886618D01*
X106550069Y-46030326D01*
X106550070Y-46030327D01*
X106572925Y-46085506D01*
X106605539Y-46164243D01*
X106605540Y-46164244D01*
X106605542Y-46164247D01*
X106653196Y-46226352D01*
X106673620Y-46284028D01*
X106656242Y-46342693D01*
X106653197Y-46346886D01*
X106605539Y-46408996D01*
X106605537Y-46408999D01*
X106550070Y-46542911D01*
X106550069Y-46542912D01*
X106531150Y-46686620D01*
X106531150Y-46686621D01*
X106550069Y-46830329D01*
X106550070Y-46830330D01*
X106605539Y-46964246D01*
X106693779Y-47079242D01*
X106808775Y-47167482D01*
X106942691Y-47222951D01*
X107086400Y-47241871D01*
X107230109Y-47222951D01*
X107364025Y-47167482D01*
X107479021Y-47079242D01*
X107567261Y-46964246D01*
X107622730Y-46830330D01*
X107641650Y-46686621D01*
X107622730Y-46542912D01*
X107567261Y-46408996D01*
X107567258Y-46408992D01*
X107567257Y-46408990D01*
X107519603Y-46346887D01*
X107499178Y-46289211D01*
X107516555Y-46230545D01*
X107519578Y-46226383D01*
X107567261Y-46164243D01*
X107622730Y-46030327D01*
X107641650Y-45886618D01*
X107622730Y-45742909D01*
X107613239Y-45719995D01*
X115884901Y-45719995D01*
X115884901Y-45720004D01*
X115903251Y-45906325D01*
X115903252Y-45906328D01*
X115957605Y-46085504D01*
X115957606Y-46085506D01*
X116045859Y-46250617D01*
X116045862Y-46250622D01*
X116045864Y-46250625D01*
X116075404Y-46286619D01*
X116164638Y-46395352D01*
X116164647Y-46395361D01*
X116232145Y-46450755D01*
X116309375Y-46514136D01*
X116309380Y-46514138D01*
X116309382Y-46514140D01*
X116363211Y-46542912D01*
X116474499Y-46602396D01*
X116653669Y-46656747D01*
X116653671Y-46656747D01*
X116653674Y-46656748D01*
X116839996Y-46675099D01*
X116840000Y-46675099D01*
X116840004Y-46675099D01*
X117026325Y-46656748D01*
X117026326Y-46656747D01*
X117026331Y-46656747D01*
X117205501Y-46602396D01*
X117370625Y-46514136D01*
X117515357Y-46395357D01*
X117634136Y-46250625D01*
X117722396Y-46085501D01*
X117776747Y-45906331D01*
X117794106Y-45730081D01*
X117798219Y-45720677D01*
X117794098Y-45709839D01*
X117792976Y-45698451D01*
X117784166Y-45608992D01*
X117776748Y-45533674D01*
X117776747Y-45533671D01*
X117776747Y-45533669D01*
X117722396Y-45354499D01*
X117720145Y-45350287D01*
X117634140Y-45189382D01*
X117634138Y-45189380D01*
X117634136Y-45189375D01*
X117570755Y-45112145D01*
X117515361Y-45044647D01*
X117515352Y-45044638D01*
X117430978Y-44975395D01*
X117370625Y-44925864D01*
X117370622Y-44925862D01*
X117370617Y-44925859D01*
X117205506Y-44837606D01*
X117205504Y-44837605D01*
X117026328Y-44783252D01*
X117026325Y-44783251D01*
X116840004Y-44764901D01*
X116839996Y-44764901D01*
X116653674Y-44783251D01*
X116653671Y-44783252D01*
X116474495Y-44837605D01*
X116474493Y-44837606D01*
X116309382Y-44925859D01*
X116309376Y-44925863D01*
X116164647Y-45044638D01*
X116164638Y-45044647D01*
X116045863Y-45189376D01*
X116045859Y-45189382D01*
X115957606Y-45354493D01*
X115957605Y-45354495D01*
X115903252Y-45533671D01*
X115903251Y-45533674D01*
X115884901Y-45719995D01*
X107613239Y-45719995D01*
X107567261Y-45608993D01*
X107479021Y-45493997D01*
X107364025Y-45405757D01*
X107364021Y-45405755D01*
X107230109Y-45350288D01*
X107230108Y-45350287D01*
X107086400Y-45331368D01*
X106942691Y-45350287D01*
X106942690Y-45350288D01*
X106808778Y-45405755D01*
X106808774Y-45405757D01*
X106693781Y-45493995D01*
X106693777Y-45493999D01*
X106605539Y-45608992D01*
X106605537Y-45608996D01*
X106550070Y-45742908D01*
X106550069Y-45742909D01*
X106531150Y-45886617D01*
X102538689Y-45886617D01*
X102553153Y-45739766D01*
X102555099Y-45720004D01*
X102555099Y-45719995D01*
X102536748Y-45533674D01*
X102536747Y-45533671D01*
X102536747Y-45533669D01*
X102482396Y-45354499D01*
X102480145Y-45350287D01*
X102394140Y-45189382D01*
X102394138Y-45189380D01*
X102394136Y-45189375D01*
X102330755Y-45112145D01*
X102275361Y-45044647D01*
X102275352Y-45044638D01*
X102190978Y-44975395D01*
X102130625Y-44925864D01*
X102130622Y-44925862D01*
X102130617Y-44925859D01*
X101965506Y-44837606D01*
X101965504Y-44837605D01*
X101786328Y-44783252D01*
X101786325Y-44783251D01*
X101600004Y-44764901D01*
X101599996Y-44764901D01*
X101413674Y-44783251D01*
X101413671Y-44783252D01*
X101234495Y-44837605D01*
X101234493Y-44837606D01*
X101069382Y-44925859D01*
X101069376Y-44925863D01*
X100924647Y-45044638D01*
X100924638Y-45044647D01*
X100805863Y-45189376D01*
X100805859Y-45189382D01*
X100717606Y-45354493D01*
X100717605Y-45354495D01*
X100663252Y-45533671D01*
X100663251Y-45533673D01*
X100647023Y-45698451D01*
X100638258Y-45718489D01*
X100457574Y-45718489D01*
X100449500Y-45688747D01*
X100449500Y-42455327D01*
X100649500Y-42455327D01*
X100649500Y-43904672D01*
X100649501Y-43904684D01*
X100664033Y-43977736D01*
X100664035Y-43977742D01*
X100719397Y-44060599D01*
X100719399Y-44060601D01*
X100802260Y-44115966D01*
X100857808Y-44127015D01*
X100875315Y-44130498D01*
X100875320Y-44130498D01*
X100875326Y-44130500D01*
X100875327Y-44130500D01*
X102324673Y-44130500D01*
X102324674Y-44130500D01*
X102397740Y-44115966D01*
X102480601Y-44060601D01*
X102535966Y-43977740D01*
X102550500Y-43904674D01*
X102550500Y-43262173D01*
X103914700Y-43262173D01*
X103914700Y-44019862D01*
X103945463Y-44174514D01*
X103945463Y-44174516D01*
X104005803Y-44320192D01*
X104005809Y-44320203D01*
X104058512Y-44399077D01*
X104093411Y-44451307D01*
X104204911Y-44562807D01*
X104283076Y-44615035D01*
X104336014Y-44650408D01*
X104336025Y-44650414D01*
X104389838Y-44672703D01*
X104481703Y-44710755D01*
X104636358Y-44741518D01*
X104636359Y-44741518D01*
X104794041Y-44741518D01*
X104794042Y-44741518D01*
X104948697Y-44710755D01*
X105094379Y-44650412D01*
X105225489Y-44562807D01*
X105336989Y-44451307D01*
X105424594Y-44320197D01*
X105484937Y-44174515D01*
X105515700Y-44019860D01*
X105515700Y-43262176D01*
X105515699Y-43262173D01*
X112554700Y-43262173D01*
X112554700Y-44019862D01*
X112585463Y-44174514D01*
X112585463Y-44174516D01*
X112645803Y-44320192D01*
X112645809Y-44320203D01*
X112698512Y-44399077D01*
X112733411Y-44451307D01*
X112844911Y-44562807D01*
X112923076Y-44615035D01*
X112976014Y-44650408D01*
X112976025Y-44650414D01*
X113029838Y-44672703D01*
X113121703Y-44710755D01*
X113276358Y-44741518D01*
X113276359Y-44741518D01*
X113434041Y-44741518D01*
X113434042Y-44741518D01*
X113588697Y-44710755D01*
X113734379Y-44650412D01*
X113865489Y-44562807D01*
X113976989Y-44451307D01*
X114064594Y-44320197D01*
X114124937Y-44174515D01*
X114155700Y-44019860D01*
X114155700Y-43262176D01*
X114124937Y-43107521D01*
X114064594Y-42961839D01*
X114064593Y-42961837D01*
X114064590Y-42961832D01*
X114029217Y-42908894D01*
X113976989Y-42830729D01*
X113865489Y-42719229D01*
X113813259Y-42684330D01*
X113734385Y-42631627D01*
X113734374Y-42631621D01*
X113588697Y-42571281D01*
X113434044Y-42540518D01*
X113434042Y-42540518D01*
X113276358Y-42540518D01*
X113276355Y-42540518D01*
X113121703Y-42571281D01*
X113121701Y-42571281D01*
X112976025Y-42631621D01*
X112976014Y-42631627D01*
X112844911Y-42719229D01*
X112844907Y-42719232D01*
X112733414Y-42830725D01*
X112733411Y-42830729D01*
X112645809Y-42961832D01*
X112645803Y-42961843D01*
X112585463Y-43107519D01*
X112585463Y-43107521D01*
X112554700Y-43262173D01*
X105515699Y-43262173D01*
X105484937Y-43107521D01*
X105424594Y-42961839D01*
X105424593Y-42961837D01*
X105424590Y-42961832D01*
X105389217Y-42908894D01*
X105336989Y-42830729D01*
X105225489Y-42719229D01*
X105173259Y-42684330D01*
X105094385Y-42631627D01*
X105094374Y-42631621D01*
X104948697Y-42571281D01*
X104794044Y-42540518D01*
X104794042Y-42540518D01*
X104636358Y-42540518D01*
X104636355Y-42540518D01*
X104481703Y-42571281D01*
X104481701Y-42571281D01*
X104336025Y-42631621D01*
X104336014Y-42631627D01*
X104204911Y-42719229D01*
X104204907Y-42719232D01*
X104093414Y-42830725D01*
X104093411Y-42830729D01*
X104005809Y-42961832D01*
X104005803Y-42961843D01*
X103945463Y-43107519D01*
X103945463Y-43107521D01*
X103914700Y-43262173D01*
X102550500Y-43262173D01*
X102550500Y-42455326D01*
X102535966Y-42382260D01*
X102480601Y-42299399D01*
X102480599Y-42299397D01*
X102397742Y-42244035D01*
X102397740Y-42244034D01*
X102397737Y-42244033D01*
X102397736Y-42244033D01*
X102324684Y-42229501D01*
X102324674Y-42229500D01*
X100875326Y-42229500D01*
X100875325Y-42229500D01*
X100875315Y-42229501D01*
X100802263Y-42244033D01*
X100802257Y-42244035D01*
X100719400Y-42299397D01*
X100719397Y-42299400D01*
X100664035Y-42382257D01*
X100664033Y-42382263D01*
X100649501Y-42455315D01*
X100649500Y-42455327D01*
X100449500Y-42455327D01*
X100449500Y-40012424D01*
X100449501Y-40012395D01*
X100449500Y-40005516D01*
X100449502Y-40005513D01*
X100449500Y-39943935D01*
X100449877Y-39935309D01*
X100455271Y-39873641D01*
X100464291Y-39770510D01*
X100467284Y-39753535D01*
X100508979Y-39597915D01*
X100514876Y-39581715D01*
X100582958Y-39435706D01*
X100591579Y-39420773D01*
X100683983Y-39288803D01*
X100695066Y-39275595D01*
X100808980Y-39161679D01*
X100822184Y-39150598D01*
X100954156Y-39058188D01*
X100969091Y-39049566D01*
X101115094Y-38981483D01*
X101131292Y-38975587D01*
X101286915Y-38933888D01*
X101303892Y-38930895D01*
X101451841Y-38917951D01*
X101468338Y-38916508D01*
X101476966Y-38916131D01*
X101538892Y-38916131D01*
X103978085Y-38916131D01*
X104036276Y-38935038D01*
G37*
%TD.AperFunction*%
%TD*%
M02*
