M48
; DRILL file {KiCad 8.0.8} date 2025-03-27T14:33:37-0700
; FORMAT={-:-/ absolute / inch / decimal}
; #@! TF.CreationDate,2025-03-27T14:33:37-07:00
; #@! TF.GenerationSoftware,Kicad,Pcbnew,8.0.8
; #@! TF.FileFunction,Plated,1,4,PTH
FMAT,2
INCH
; #@! TA.AperFunction,Plated,PTH,ViaDrill
T1C0.0079
; #@! TA.AperFunction,Plated,PTH,ViaDrill
T2C0.0118
; #@! TA.AperFunction,Plated,PTH,ComponentDrill
T3C0.0276
; #@! TA.AperFunction,Plated,PTH,ComponentDrill
T4C0.0315
; #@! TA.AperFunction,Plated,PTH,ComponentDrill
T5C0.0374
%
G90
G05
T1
X4.27Y-2.0796
T2
X4.0395Y-2.56
X4.05Y-2.39
X4.09Y-2.1758
X4.09Y-2.1358
X4.125Y-1.6396
X4.15Y-2.0346
X4.1741Y-1.8846
X4.1741Y-1.9646
X4.1945Y-2.4062
X4.1948Y-2.3546
X4.204Y-1.954
X4.204Y-1.9796
X4.21Y-2.52
X4.2135Y-1.9216
X4.216Y-1.8066
X4.216Y-1.8381
X4.3Y-2.52
X4.3011Y-2.1058
X4.33Y-2.2646
X4.3594Y-2.216
X4.36Y-2.24
X4.36Y-2.2646
X4.4Y-2.52
X4.41Y-2.1125
X4.4158Y-2.416
X4.4184Y-2.3526
X4.46Y-2.1781
X4.4923Y-2.2731
X4.5136Y-1.6564
X4.53Y-2.14
X4.56Y-2.3832
X4.56Y-2.43
X4.5776Y-2.56
T4
X4.0Y-1.7
X4.0Y-1.8
X4.0Y-1.9
X4.0Y-2.0
X4.0Y-2.1
X4.0Y-2.2
X4.0Y-2.3
X4.6Y-1.7
X4.6Y-1.8
X4.6Y-1.9
X4.6Y-2.0
X4.6Y-2.1
X4.6Y-2.2
X4.6Y-2.3
T5
X4.1Y-2.595
X4.1984Y-2.595
X4.2969Y-2.595
X4.3953Y-2.595
X4.4937Y-2.595
T3
G00X4.1226Y-1.578
M15
G01X4.1226Y-1.5583
M16
G05
G00X4.1226Y-1.728
M15
G01X4.1226Y-1.7083
M16
G05
G00X4.4628Y-1.578
M15
G01X4.4628Y-1.5583
M16
G05
G00X4.4628Y-1.728
M15
G01X4.4628Y-1.7083
M16
G05
M30
