%TF.GenerationSoftware,KiCad,Pcbnew,8.0.8*%
%TF.CreationDate,2025-03-27T14:33:37-07:00*%
%TF.ProjectId,pepper_stepper,70657070-6572-45f7-9374-65707065722e,rev?*%
%TF.SameCoordinates,Original*%
%TF.FileFunction,Soldermask,Top*%
%TF.FilePolarity,Negative*%
%FSLAX46Y46*%
G04 Gerber Fmt 4.6, Leading zero omitted, Abs format (unit mm)*
G04 Created by KiCad (PCBNEW 8.0.8) date 2025-03-27 14:33:37*
%MOMM*%
%LPD*%
G01*
G04 APERTURE LIST*
G04 Aperture macros list*
%AMRoundRect*
0 Rectangle with rounded corners*
0 $1 Rounding radius*
0 $2 $3 $4 $5 $6 $7 $8 $9 X,Y pos of 4 corners*
0 Add a 4 corners polygon primitive as box body*
4,1,4,$2,$3,$4,$5,$6,$7,$8,$9,$2,$3,0*
0 Add four circle primitives for the rounded corners*
1,1,$1+$1,$2,$3*
1,1,$1+$1,$4,$5*
1,1,$1+$1,$6,$7*
1,1,$1+$1,$8,$9*
0 Add four rect primitives between the rounded corners*
20,1,$1+$1,$2,$3,$4,$5,0*
20,1,$1+$1,$4,$5,$6,$7,0*
20,1,$1+$1,$6,$7,$8,$9,0*
20,1,$1+$1,$8,$9,$2,$3,0*%
G04 Aperture macros list end*
%ADD10R,0.660000X0.280000*%
%ADD11R,1.500000X2.500000*%
%ADD12RoundRect,0.200000X0.275000X-0.200000X0.275000X0.200000X-0.275000X0.200000X-0.275000X-0.200000X0*%
%ADD13RoundRect,0.250000X-1.100000X0.325000X-1.100000X-0.325000X1.100000X-0.325000X1.100000X0.325000X0*%
%ADD14RoundRect,0.140000X-0.140000X-0.170000X0.140000X-0.170000X0.140000X0.170000X-0.140000X0.170000X0*%
%ADD15RoundRect,0.135000X0.135000X0.185000X-0.135000X0.185000X-0.135000X-0.185000X0.135000X-0.185000X0*%
%ADD16RoundRect,0.250000X0.250000X0.475000X-0.250000X0.475000X-0.250000X-0.475000X0.250000X-0.475000X0*%
%ADD17RoundRect,0.250000X-0.250000X-0.475000X0.250000X-0.475000X0.250000X0.475000X-0.250000X0.475000X0*%
%ADD18R,1.070000X0.530000*%
%ADD19R,1.400000X1.400000*%
%ADD20C,1.400000*%
%ADD21R,0.800000X0.400000*%
%ADD22R,2.000000X2.600000*%
%ADD23R,1.800000X2.000000*%
%ADD24RoundRect,0.225000X0.250000X-0.225000X0.250000X0.225000X-0.250000X0.225000X-0.250000X-0.225000X0*%
%ADD25RoundRect,0.250000X0.600000X0.725000X-0.600000X0.725000X-0.600000X-0.725000X0.600000X-0.725000X0*%
%ADD26O,1.700000X1.950000*%
%ADD27RoundRect,0.200000X0.200000X0.275000X-0.200000X0.275000X-0.200000X-0.275000X0.200000X-0.275000X0*%
%ADD28RoundRect,0.140000X0.140000X0.170000X-0.140000X0.170000X-0.140000X-0.170000X0.140000X-0.170000X0*%
%ADD29RoundRect,0.200000X-0.275000X0.200000X-0.275000X-0.200000X0.275000X-0.200000X0.275000X0.200000X0*%
%ADD30RoundRect,0.135000X-0.135000X-0.185000X0.135000X-0.185000X0.135000X0.185000X-0.135000X0.185000X0*%
%ADD31RoundRect,0.250000X-0.475000X0.250000X-0.475000X-0.250000X0.475000X-0.250000X0.475000X0.250000X0*%
%ADD32O,1.100000X1.700000*%
%ADD33R,0.700000X1.200000*%
%ADD34R,0.800000X1.200000*%
G04 APERTURE END LIST*
D10*
%TO.C,U1*%
X110833200Y-48004218D03*
X110833200Y-47504218D03*
X110833200Y-47004218D03*
X110833200Y-46504218D03*
X110833200Y-46004218D03*
X108013200Y-46004218D03*
X108013200Y-46504218D03*
X108013200Y-47004218D03*
X108013200Y-47504218D03*
X108013200Y-48004218D03*
D11*
X109423200Y-47004218D03*
%TD*%
D12*
%TO.C,R3*%
X112423600Y-51268818D03*
X112423600Y-49618818D03*
%TD*%
D13*
%TO.C,C12*%
X113538000Y-53643000D03*
X113538000Y-56593000D03*
%TD*%
D14*
%TO.C,C17*%
X104509600Y-53232218D03*
X105469600Y-53232218D03*
%TD*%
D15*
%TO.C,R16*%
X105499600Y-54248218D03*
X104479600Y-54248218D03*
%TD*%
D16*
%TO.C,C3*%
X106022800Y-48880718D03*
X104122800Y-48880718D03*
%TD*%
D17*
%TO.C,C2*%
X104122800Y-46848718D03*
X106022800Y-46848718D03*
%TD*%
D18*
%TO.C,U5*%
X108813600Y-55386218D03*
X108813600Y-54436218D03*
X108813600Y-53486218D03*
X106513600Y-53486218D03*
X106513600Y-54436218D03*
X106513600Y-55386218D03*
%TD*%
D19*
%TO.C,H1*%
X101600000Y-43180000D03*
D20*
X101600000Y-45720000D03*
X101600000Y-48260000D03*
X101600000Y-50800000D03*
X101600000Y-53340000D03*
X101600000Y-55880000D03*
X101600000Y-58420000D03*
%TD*%
D21*
%TO.C,Q1*%
X110865200Y-51591018D03*
X110865200Y-50931018D03*
X110865200Y-50281018D03*
X110865200Y-49631018D03*
X107665200Y-49631018D03*
X107665200Y-50281018D03*
X107665200Y-50931018D03*
X107665200Y-51591018D03*
D22*
X108915200Y-50611018D03*
%TD*%
D23*
%TO.C,L2*%
X105148600Y-59074218D03*
X109148600Y-59074218D03*
%TD*%
D24*
%TO.C,C13*%
X110998000Y-55131000D03*
X110998000Y-53581000D03*
%TD*%
D16*
%TO.C,C1*%
X114166000Y-46250818D03*
X112266000Y-46250818D03*
%TD*%
D25*
%TO.C,J1*%
X114140000Y-65913000D03*
D26*
X111640000Y-65913000D03*
X109140000Y-65913000D03*
X106640000Y-65913000D03*
X104140000Y-65913000D03*
%TD*%
D27*
%TO.C,R1*%
X114279800Y-48118718D03*
X112629800Y-48118718D03*
%TD*%
D16*
%TO.C,C4*%
X106022800Y-50912718D03*
X104122800Y-50912718D03*
%TD*%
D19*
%TO.C,H2*%
X116840000Y-43180000D03*
D20*
X116840000Y-45720000D03*
X116840000Y-48260000D03*
X116840000Y-50800000D03*
X116840000Y-53340000D03*
X116840000Y-55880000D03*
X116840000Y-58420000D03*
%TD*%
D28*
%TO.C,C14*%
X105469600Y-56280218D03*
X104509600Y-56280218D03*
%TD*%
D29*
%TO.C,R2*%
X114201600Y-49618818D03*
X114201600Y-51268818D03*
%TD*%
D30*
%TO.C,R17*%
X104479600Y-55264218D03*
X105499600Y-55264218D03*
%TD*%
D31*
%TO.C,C15*%
X111212600Y-58632218D03*
X111212600Y-60532218D03*
%TD*%
D32*
%TO.C,USB1*%
X113355200Y-43641018D03*
X113355200Y-39831018D03*
X104715200Y-43641018D03*
X104715200Y-39831018D03*
D33*
X109535200Y-43891018D03*
X107535200Y-43891018D03*
D34*
X106335200Y-43891018D03*
D33*
X108535200Y-43891018D03*
X110535200Y-43891018D03*
D34*
X111735200Y-43891018D03*
%TD*%
D31*
%TO.C,C16*%
X113244600Y-58632218D03*
X113244600Y-60532218D03*
%TD*%
M02*
