%TF.GenerationSoftware,KiCad,Pcbnew,8.0.8*%
%TF.CreationDate,2025-03-27T14:33:37-07:00*%
%TF.ProjectId,pepper_stepper,70657070-6572-45f7-9374-65707065722e,rev?*%
%TF.SameCoordinates,Original*%
%TF.FileFunction,Legend,Top*%
%TF.FilePolarity,Positive*%
%FSLAX46Y46*%
G04 Gerber Fmt 4.6, Leading zero omitted, Abs format (unit mm)*
G04 Created by KiCad (PCBNEW 8.0.8) date 2025-03-27 14:33:37*
%MOMM*%
%LPD*%
G01*
G04 APERTURE LIST*
G04 Aperture macros list*
%AMRoundRect*
0 Rectangle with rounded corners*
0 $1 Rounding radius*
0 $2 $3 $4 $5 $6 $7 $8 $9 X,Y pos of 4 corners*
0 Add a 4 corners polygon primitive as box body*
4,1,4,$2,$3,$4,$5,$6,$7,$8,$9,$2,$3,0*
0 Add four circle primitives for the rounded corners*
1,1,$1+$1,$2,$3*
1,1,$1+$1,$4,$5*
1,1,$1+$1,$6,$7*
1,1,$1+$1,$8,$9*
0 Add four rect primitives between the rounded corners*
20,1,$1+$1,$2,$3,$4,$5,0*
20,1,$1+$1,$4,$5,$6,$7,0*
20,1,$1+$1,$6,$7,$8,$9,0*
20,1,$1+$1,$8,$9,$2,$3,0*%
G04 Aperture macros list end*
%ADD10C,0.150000*%
%ADD11C,0.120000*%
%ADD12C,0.300000*%
%ADD13C,0.250000*%
%ADD14C,0.200000*%
%ADD15R,0.660000X0.280000*%
%ADD16R,1.500000X2.500000*%
%ADD17RoundRect,0.200000X0.275000X-0.200000X0.275000X0.200000X-0.275000X0.200000X-0.275000X-0.200000X0*%
%ADD18RoundRect,0.250000X-1.100000X0.325000X-1.100000X-0.325000X1.100000X-0.325000X1.100000X0.325000X0*%
%ADD19RoundRect,0.140000X-0.140000X-0.170000X0.140000X-0.170000X0.140000X0.170000X-0.140000X0.170000X0*%
%ADD20RoundRect,0.135000X0.135000X0.185000X-0.135000X0.185000X-0.135000X-0.185000X0.135000X-0.185000X0*%
%ADD21RoundRect,0.250000X0.250000X0.475000X-0.250000X0.475000X-0.250000X-0.475000X0.250000X-0.475000X0*%
%ADD22RoundRect,0.250000X-0.250000X-0.475000X0.250000X-0.475000X0.250000X0.475000X-0.250000X0.475000X0*%
%ADD23R,1.070000X0.530000*%
%ADD24R,1.400000X1.400000*%
%ADD25C,1.400000*%
%ADD26R,0.800000X0.400000*%
%ADD27R,2.000000X2.600000*%
%ADD28R,1.800000X2.000000*%
%ADD29RoundRect,0.225000X0.250000X-0.225000X0.250000X0.225000X-0.250000X0.225000X-0.250000X-0.225000X0*%
%ADD30RoundRect,0.250000X0.600000X0.725000X-0.600000X0.725000X-0.600000X-0.725000X0.600000X-0.725000X0*%
%ADD31O,1.700000X1.950000*%
%ADD32RoundRect,0.200000X0.200000X0.275000X-0.200000X0.275000X-0.200000X-0.275000X0.200000X-0.275000X0*%
%ADD33RoundRect,0.140000X0.140000X0.170000X-0.140000X0.170000X-0.140000X-0.170000X0.140000X-0.170000X0*%
%ADD34RoundRect,0.200000X-0.275000X0.200000X-0.275000X-0.200000X0.275000X-0.200000X0.275000X0.200000X0*%
%ADD35RoundRect,0.135000X-0.135000X-0.185000X0.135000X-0.185000X0.135000X0.185000X-0.135000X0.185000X0*%
%ADD36RoundRect,0.250000X-0.475000X0.250000X-0.475000X-0.250000X0.475000X-0.250000X0.475000X0.250000X0*%
%ADD37O,1.100000X1.700000*%
%ADD38R,0.700000X1.200000*%
%ADD39R,0.800000X1.200000*%
G04 APERTURE END LIST*
D10*
X106172095Y-44666819D02*
X106172095Y-45476342D01*
X106172095Y-45476342D02*
X106219714Y-45571580D01*
X106219714Y-45571580D02*
X106267333Y-45619200D01*
X106267333Y-45619200D02*
X106362571Y-45666819D01*
X106362571Y-45666819D02*
X106553047Y-45666819D01*
X106553047Y-45666819D02*
X106648285Y-45619200D01*
X106648285Y-45619200D02*
X106695904Y-45571580D01*
X106695904Y-45571580D02*
X106743523Y-45476342D01*
X106743523Y-45476342D02*
X106743523Y-44666819D01*
X107743523Y-45666819D02*
X107172095Y-45666819D01*
X107457809Y-45666819D02*
X107457809Y-44666819D01*
X107457809Y-44666819D02*
X107362571Y-44809676D01*
X107362571Y-44809676D02*
X107267333Y-44904914D01*
X107267333Y-44904914D02*
X107172095Y-44952533D01*
X112101333Y-53148637D02*
X111768000Y-52672446D01*
X111529905Y-53148637D02*
X111529905Y-52148637D01*
X111529905Y-52148637D02*
X111910857Y-52148637D01*
X111910857Y-52148637D02*
X112006095Y-52196256D01*
X112006095Y-52196256D02*
X112053714Y-52243875D01*
X112053714Y-52243875D02*
X112101333Y-52339113D01*
X112101333Y-52339113D02*
X112101333Y-52481970D01*
X112101333Y-52481970D02*
X112053714Y-52577208D01*
X112053714Y-52577208D02*
X112006095Y-52624827D01*
X112006095Y-52624827D02*
X111910857Y-52672446D01*
X111910857Y-52672446D02*
X111529905Y-52672446D01*
X112434667Y-52148637D02*
X113053714Y-52148637D01*
X113053714Y-52148637D02*
X112720381Y-52529589D01*
X112720381Y-52529589D02*
X112863238Y-52529589D01*
X112863238Y-52529589D02*
X112958476Y-52577208D01*
X112958476Y-52577208D02*
X113006095Y-52624827D01*
X113006095Y-52624827D02*
X113053714Y-52720065D01*
X113053714Y-52720065D02*
X113053714Y-52958160D01*
X113053714Y-52958160D02*
X113006095Y-53053398D01*
X113006095Y-53053398D02*
X112958476Y-53101018D01*
X112958476Y-53101018D02*
X112863238Y-53148637D01*
X112863238Y-53148637D02*
X112577524Y-53148637D01*
X112577524Y-53148637D02*
X112482286Y-53101018D01*
X112482286Y-53101018D02*
X112434667Y-53053398D01*
X110101142Y-57001580D02*
X110053523Y-57049200D01*
X110053523Y-57049200D02*
X109910666Y-57096819D01*
X109910666Y-57096819D02*
X109815428Y-57096819D01*
X109815428Y-57096819D02*
X109672571Y-57049200D01*
X109672571Y-57049200D02*
X109577333Y-56953961D01*
X109577333Y-56953961D02*
X109529714Y-56858723D01*
X109529714Y-56858723D02*
X109482095Y-56668247D01*
X109482095Y-56668247D02*
X109482095Y-56525390D01*
X109482095Y-56525390D02*
X109529714Y-56334914D01*
X109529714Y-56334914D02*
X109577333Y-56239676D01*
X109577333Y-56239676D02*
X109672571Y-56144438D01*
X109672571Y-56144438D02*
X109815428Y-56096819D01*
X109815428Y-56096819D02*
X109910666Y-56096819D01*
X109910666Y-56096819D02*
X110053523Y-56144438D01*
X110053523Y-56144438D02*
X110101142Y-56192057D01*
X111053523Y-57096819D02*
X110482095Y-57096819D01*
X110767809Y-57096819D02*
X110767809Y-56096819D01*
X110767809Y-56096819D02*
X110672571Y-56239676D01*
X110672571Y-56239676D02*
X110577333Y-56334914D01*
X110577333Y-56334914D02*
X110482095Y-56382533D01*
X111434476Y-56192057D02*
X111482095Y-56144438D01*
X111482095Y-56144438D02*
X111577333Y-56096819D01*
X111577333Y-56096819D02*
X111815428Y-56096819D01*
X111815428Y-56096819D02*
X111910666Y-56144438D01*
X111910666Y-56144438D02*
X111958285Y-56192057D01*
X111958285Y-56192057D02*
X112005904Y-56287295D01*
X112005904Y-56287295D02*
X112005904Y-56382533D01*
X112005904Y-56382533D02*
X111958285Y-56525390D01*
X111958285Y-56525390D02*
X111386857Y-57096819D01*
X111386857Y-57096819D02*
X112005904Y-57096819D01*
X102227142Y-53561398D02*
X102179523Y-53609018D01*
X102179523Y-53609018D02*
X102036666Y-53656637D01*
X102036666Y-53656637D02*
X101941428Y-53656637D01*
X101941428Y-53656637D02*
X101798571Y-53609018D01*
X101798571Y-53609018D02*
X101703333Y-53513779D01*
X101703333Y-53513779D02*
X101655714Y-53418541D01*
X101655714Y-53418541D02*
X101608095Y-53228065D01*
X101608095Y-53228065D02*
X101608095Y-53085208D01*
X101608095Y-53085208D02*
X101655714Y-52894732D01*
X101655714Y-52894732D02*
X101703333Y-52799494D01*
X101703333Y-52799494D02*
X101798571Y-52704256D01*
X101798571Y-52704256D02*
X101941428Y-52656637D01*
X101941428Y-52656637D02*
X102036666Y-52656637D01*
X102036666Y-52656637D02*
X102179523Y-52704256D01*
X102179523Y-52704256D02*
X102227142Y-52751875D01*
X103179523Y-53656637D02*
X102608095Y-53656637D01*
X102893809Y-53656637D02*
X102893809Y-52656637D01*
X102893809Y-52656637D02*
X102798571Y-52799494D01*
X102798571Y-52799494D02*
X102703333Y-52894732D01*
X102703333Y-52894732D02*
X102608095Y-52942351D01*
X103512857Y-52656637D02*
X104179523Y-52656637D01*
X104179523Y-52656637D02*
X103750952Y-53656637D01*
X102227142Y-54672637D02*
X101893809Y-54196446D01*
X101655714Y-54672637D02*
X101655714Y-53672637D01*
X101655714Y-53672637D02*
X102036666Y-53672637D01*
X102036666Y-53672637D02*
X102131904Y-53720256D01*
X102131904Y-53720256D02*
X102179523Y-53767875D01*
X102179523Y-53767875D02*
X102227142Y-53863113D01*
X102227142Y-53863113D02*
X102227142Y-54005970D01*
X102227142Y-54005970D02*
X102179523Y-54101208D01*
X102179523Y-54101208D02*
X102131904Y-54148827D01*
X102131904Y-54148827D02*
X102036666Y-54196446D01*
X102036666Y-54196446D02*
X101655714Y-54196446D01*
X103179523Y-54672637D02*
X102608095Y-54672637D01*
X102893809Y-54672637D02*
X102893809Y-53672637D01*
X102893809Y-53672637D02*
X102798571Y-53815494D01*
X102798571Y-53815494D02*
X102703333Y-53910732D01*
X102703333Y-53910732D02*
X102608095Y-53958351D01*
X104036666Y-53672637D02*
X103846190Y-53672637D01*
X103846190Y-53672637D02*
X103750952Y-53720256D01*
X103750952Y-53720256D02*
X103703333Y-53767875D01*
X103703333Y-53767875D02*
X103608095Y-53910732D01*
X103608095Y-53910732D02*
X103560476Y-54101208D01*
X103560476Y-54101208D02*
X103560476Y-54482160D01*
X103560476Y-54482160D02*
X103608095Y-54577398D01*
X103608095Y-54577398D02*
X103655714Y-54625018D01*
X103655714Y-54625018D02*
X103750952Y-54672637D01*
X103750952Y-54672637D02*
X103941428Y-54672637D01*
X103941428Y-54672637D02*
X104036666Y-54625018D01*
X104036666Y-54625018D02*
X104084285Y-54577398D01*
X104084285Y-54577398D02*
X104131904Y-54482160D01*
X104131904Y-54482160D02*
X104131904Y-54244065D01*
X104131904Y-54244065D02*
X104084285Y-54148827D01*
X104084285Y-54148827D02*
X104036666Y-54101208D01*
X104036666Y-54101208D02*
X103941428Y-54053589D01*
X103941428Y-54053589D02*
X103750952Y-54053589D01*
X103750952Y-54053589D02*
X103655714Y-54101208D01*
X103655714Y-54101208D02*
X103608095Y-54148827D01*
X103608095Y-54148827D02*
X103560476Y-54244065D01*
X107547580Y-49050484D02*
X107595200Y-49098103D01*
X107595200Y-49098103D02*
X107642819Y-49240960D01*
X107642819Y-49240960D02*
X107642819Y-49336198D01*
X107642819Y-49336198D02*
X107595200Y-49479055D01*
X107595200Y-49479055D02*
X107499961Y-49574293D01*
X107499961Y-49574293D02*
X107404723Y-49621912D01*
X107404723Y-49621912D02*
X107214247Y-49669531D01*
X107214247Y-49669531D02*
X107071390Y-49669531D01*
X107071390Y-49669531D02*
X106880914Y-49621912D01*
X106880914Y-49621912D02*
X106785676Y-49574293D01*
X106785676Y-49574293D02*
X106690438Y-49479055D01*
X106690438Y-49479055D02*
X106642819Y-49336198D01*
X106642819Y-49336198D02*
X106642819Y-49240960D01*
X106642819Y-49240960D02*
X106690438Y-49098103D01*
X106690438Y-49098103D02*
X106738057Y-49050484D01*
X106642819Y-48717150D02*
X106642819Y-48098103D01*
X106642819Y-48098103D02*
X107023771Y-48431436D01*
X107023771Y-48431436D02*
X107023771Y-48288579D01*
X107023771Y-48288579D02*
X107071390Y-48193341D01*
X107071390Y-48193341D02*
X107119009Y-48145722D01*
X107119009Y-48145722D02*
X107214247Y-48098103D01*
X107214247Y-48098103D02*
X107452342Y-48098103D01*
X107452342Y-48098103D02*
X107547580Y-48145722D01*
X107547580Y-48145722D02*
X107595200Y-48193341D01*
X107595200Y-48193341D02*
X107642819Y-48288579D01*
X107642819Y-48288579D02*
X107642819Y-48574293D01*
X107642819Y-48574293D02*
X107595200Y-48669531D01*
X107595200Y-48669531D02*
X107547580Y-48717150D01*
X104989333Y-45825580D02*
X104941714Y-45873200D01*
X104941714Y-45873200D02*
X104798857Y-45920819D01*
X104798857Y-45920819D02*
X104703619Y-45920819D01*
X104703619Y-45920819D02*
X104560762Y-45873200D01*
X104560762Y-45873200D02*
X104465524Y-45777961D01*
X104465524Y-45777961D02*
X104417905Y-45682723D01*
X104417905Y-45682723D02*
X104370286Y-45492247D01*
X104370286Y-45492247D02*
X104370286Y-45349390D01*
X104370286Y-45349390D02*
X104417905Y-45158914D01*
X104417905Y-45158914D02*
X104465524Y-45063676D01*
X104465524Y-45063676D02*
X104560762Y-44968438D01*
X104560762Y-44968438D02*
X104703619Y-44920819D01*
X104703619Y-44920819D02*
X104798857Y-44920819D01*
X104798857Y-44920819D02*
X104941714Y-44968438D01*
X104941714Y-44968438D02*
X104989333Y-45016057D01*
X105370286Y-45016057D02*
X105417905Y-44968438D01*
X105417905Y-44968438D02*
X105513143Y-44920819D01*
X105513143Y-44920819D02*
X105751238Y-44920819D01*
X105751238Y-44920819D02*
X105846476Y-44968438D01*
X105846476Y-44968438D02*
X105894095Y-45016057D01*
X105894095Y-45016057D02*
X105941714Y-45111295D01*
X105941714Y-45111295D02*
X105941714Y-45206533D01*
X105941714Y-45206533D02*
X105894095Y-45349390D01*
X105894095Y-45349390D02*
X105322667Y-45920819D01*
X105322667Y-45920819D02*
X105941714Y-45920819D01*
X107118419Y-55198122D02*
X107927942Y-55198122D01*
X107927942Y-55198122D02*
X108023180Y-55150503D01*
X108023180Y-55150503D02*
X108070800Y-55102884D01*
X108070800Y-55102884D02*
X108118419Y-55007646D01*
X108118419Y-55007646D02*
X108118419Y-54817170D01*
X108118419Y-54817170D02*
X108070800Y-54721932D01*
X108070800Y-54721932D02*
X108023180Y-54674313D01*
X108023180Y-54674313D02*
X107927942Y-54626694D01*
X107927942Y-54626694D02*
X107118419Y-54626694D01*
X107118419Y-53674313D02*
X107118419Y-54150503D01*
X107118419Y-54150503D02*
X107594609Y-54198122D01*
X107594609Y-54198122D02*
X107546990Y-54150503D01*
X107546990Y-54150503D02*
X107499371Y-54055265D01*
X107499371Y-54055265D02*
X107499371Y-53817170D01*
X107499371Y-53817170D02*
X107546990Y-53721932D01*
X107546990Y-53721932D02*
X107594609Y-53674313D01*
X107594609Y-53674313D02*
X107689847Y-53626694D01*
X107689847Y-53626694D02*
X107927942Y-53626694D01*
X107927942Y-53626694D02*
X108023180Y-53674313D01*
X108023180Y-53674313D02*
X108070800Y-53721932D01*
X108070800Y-53721932D02*
X108118419Y-53817170D01*
X108118419Y-53817170D02*
X108118419Y-54055265D01*
X108118419Y-54055265D02*
X108070800Y-54150503D01*
X108070800Y-54150503D02*
X108023180Y-54198122D01*
X104086819Y-45835722D02*
X103086819Y-45835722D01*
X103563009Y-45835722D02*
X103563009Y-45264294D01*
X104086819Y-45264294D02*
X103086819Y-45264294D01*
X104086819Y-44264294D02*
X104086819Y-44835722D01*
X104086819Y-44550008D02*
X103086819Y-44550008D01*
X103086819Y-44550008D02*
X103229676Y-44645246D01*
X103229676Y-44645246D02*
X103324914Y-44740484D01*
X103324914Y-44740484D02*
X103372533Y-44835722D01*
X106838761Y-52862875D02*
X106743523Y-52815256D01*
X106743523Y-52815256D02*
X106648285Y-52720018D01*
X106648285Y-52720018D02*
X106505428Y-52577160D01*
X106505428Y-52577160D02*
X106410190Y-52529541D01*
X106410190Y-52529541D02*
X106314952Y-52529541D01*
X106362571Y-52767637D02*
X106267333Y-52720018D01*
X106267333Y-52720018D02*
X106172095Y-52624779D01*
X106172095Y-52624779D02*
X106124476Y-52434303D01*
X106124476Y-52434303D02*
X106124476Y-52100970D01*
X106124476Y-52100970D02*
X106172095Y-51910494D01*
X106172095Y-51910494D02*
X106267333Y-51815256D01*
X106267333Y-51815256D02*
X106362571Y-51767637D01*
X106362571Y-51767637D02*
X106553047Y-51767637D01*
X106553047Y-51767637D02*
X106648285Y-51815256D01*
X106648285Y-51815256D02*
X106743523Y-51910494D01*
X106743523Y-51910494D02*
X106791142Y-52100970D01*
X106791142Y-52100970D02*
X106791142Y-52434303D01*
X106791142Y-52434303D02*
X106743523Y-52624779D01*
X106743523Y-52624779D02*
X106648285Y-52720018D01*
X106648285Y-52720018D02*
X106553047Y-52767637D01*
X106553047Y-52767637D02*
X106362571Y-52767637D01*
X107743523Y-52767637D02*
X107172095Y-52767637D01*
X107457809Y-52767637D02*
X107457809Y-51767637D01*
X107457809Y-51767637D02*
X107362571Y-51910494D01*
X107362571Y-51910494D02*
X107267333Y-52005732D01*
X107267333Y-52005732D02*
X107172095Y-52053351D01*
X103465333Y-61160819D02*
X102989143Y-61160819D01*
X102989143Y-61160819D02*
X102989143Y-60160819D01*
X103751048Y-60256057D02*
X103798667Y-60208438D01*
X103798667Y-60208438D02*
X103893905Y-60160819D01*
X103893905Y-60160819D02*
X104132000Y-60160819D01*
X104132000Y-60160819D02*
X104227238Y-60208438D01*
X104227238Y-60208438D02*
X104274857Y-60256057D01*
X104274857Y-60256057D02*
X104322476Y-60351295D01*
X104322476Y-60351295D02*
X104322476Y-60446533D01*
X104322476Y-60446533D02*
X104274857Y-60589390D01*
X104274857Y-60589390D02*
X103703429Y-61160819D01*
X103703429Y-61160819D02*
X104322476Y-61160819D01*
X110341580Y-54998857D02*
X110389200Y-55046476D01*
X110389200Y-55046476D02*
X110436819Y-55189333D01*
X110436819Y-55189333D02*
X110436819Y-55284571D01*
X110436819Y-55284571D02*
X110389200Y-55427428D01*
X110389200Y-55427428D02*
X110293961Y-55522666D01*
X110293961Y-55522666D02*
X110198723Y-55570285D01*
X110198723Y-55570285D02*
X110008247Y-55617904D01*
X110008247Y-55617904D02*
X109865390Y-55617904D01*
X109865390Y-55617904D02*
X109674914Y-55570285D01*
X109674914Y-55570285D02*
X109579676Y-55522666D01*
X109579676Y-55522666D02*
X109484438Y-55427428D01*
X109484438Y-55427428D02*
X109436819Y-55284571D01*
X109436819Y-55284571D02*
X109436819Y-55189333D01*
X109436819Y-55189333D02*
X109484438Y-55046476D01*
X109484438Y-55046476D02*
X109532057Y-54998857D01*
X110436819Y-54046476D02*
X110436819Y-54617904D01*
X110436819Y-54332190D02*
X109436819Y-54332190D01*
X109436819Y-54332190D02*
X109579676Y-54427428D01*
X109579676Y-54427428D02*
X109674914Y-54522666D01*
X109674914Y-54522666D02*
X109722533Y-54617904D01*
X109436819Y-53713142D02*
X109436819Y-53094095D01*
X109436819Y-53094095D02*
X109817771Y-53427428D01*
X109817771Y-53427428D02*
X109817771Y-53284571D01*
X109817771Y-53284571D02*
X109865390Y-53189333D01*
X109865390Y-53189333D02*
X109913009Y-53141714D01*
X109913009Y-53141714D02*
X110008247Y-53094095D01*
X110008247Y-53094095D02*
X110246342Y-53094095D01*
X110246342Y-53094095D02*
X110341580Y-53141714D01*
X110341580Y-53141714D02*
X110389200Y-53189333D01*
X110389200Y-53189333D02*
X110436819Y-53284571D01*
X110436819Y-53284571D02*
X110436819Y-53570285D01*
X110436819Y-53570285D02*
X110389200Y-53665523D01*
X110389200Y-53665523D02*
X110341580Y-53713142D01*
X112863333Y-45317580D02*
X112815714Y-45365200D01*
X112815714Y-45365200D02*
X112672857Y-45412819D01*
X112672857Y-45412819D02*
X112577619Y-45412819D01*
X112577619Y-45412819D02*
X112434762Y-45365200D01*
X112434762Y-45365200D02*
X112339524Y-45269961D01*
X112339524Y-45269961D02*
X112291905Y-45174723D01*
X112291905Y-45174723D02*
X112244286Y-44984247D01*
X112244286Y-44984247D02*
X112244286Y-44841390D01*
X112244286Y-44841390D02*
X112291905Y-44650914D01*
X112291905Y-44650914D02*
X112339524Y-44555676D01*
X112339524Y-44555676D02*
X112434762Y-44460438D01*
X112434762Y-44460438D02*
X112577619Y-44412819D01*
X112577619Y-44412819D02*
X112672857Y-44412819D01*
X112672857Y-44412819D02*
X112815714Y-44460438D01*
X112815714Y-44460438D02*
X112863333Y-44508057D01*
X113815714Y-45412819D02*
X113244286Y-45412819D01*
X113530000Y-45412819D02*
X113530000Y-44412819D01*
X113530000Y-44412819D02*
X113434762Y-44555676D01*
X113434762Y-44555676D02*
X113339524Y-44650914D01*
X113339524Y-44650914D02*
X113244286Y-44698533D01*
X103298666Y-65168257D02*
X103298666Y-65882542D01*
X103298666Y-65882542D02*
X103251047Y-66025399D01*
X103251047Y-66025399D02*
X103155809Y-66120638D01*
X103155809Y-66120638D02*
X103012952Y-66168257D01*
X103012952Y-66168257D02*
X102917714Y-66168257D01*
X104298666Y-66168257D02*
X103727238Y-66168257D01*
X104012952Y-66168257D02*
X104012952Y-65168257D01*
X104012952Y-65168257D02*
X103917714Y-65311114D01*
X103917714Y-65311114D02*
X103822476Y-65406352D01*
X103822476Y-65406352D02*
X103727238Y-65453971D01*
X112468819Y-48172666D02*
X111992628Y-48505999D01*
X112468819Y-48744094D02*
X111468819Y-48744094D01*
X111468819Y-48744094D02*
X111468819Y-48363142D01*
X111468819Y-48363142D02*
X111516438Y-48267904D01*
X111516438Y-48267904D02*
X111564057Y-48220285D01*
X111564057Y-48220285D02*
X111659295Y-48172666D01*
X111659295Y-48172666D02*
X111802152Y-48172666D01*
X111802152Y-48172666D02*
X111897390Y-48220285D01*
X111897390Y-48220285D02*
X111945009Y-48267904D01*
X111945009Y-48267904D02*
X111992628Y-48363142D01*
X111992628Y-48363142D02*
X111992628Y-48744094D01*
X112468819Y-47220285D02*
X112468819Y-47791713D01*
X112468819Y-47505999D02*
X111468819Y-47505999D01*
X111468819Y-47505999D02*
X111611676Y-47601237D01*
X111611676Y-47601237D02*
X111706914Y-47696475D01*
X111706914Y-47696475D02*
X111754533Y-47791713D01*
X104735333Y-52799398D02*
X104687714Y-52847018D01*
X104687714Y-52847018D02*
X104544857Y-52894637D01*
X104544857Y-52894637D02*
X104449619Y-52894637D01*
X104449619Y-52894637D02*
X104306762Y-52847018D01*
X104306762Y-52847018D02*
X104211524Y-52751779D01*
X104211524Y-52751779D02*
X104163905Y-52656541D01*
X104163905Y-52656541D02*
X104116286Y-52466065D01*
X104116286Y-52466065D02*
X104116286Y-52323208D01*
X104116286Y-52323208D02*
X104163905Y-52132732D01*
X104163905Y-52132732D02*
X104211524Y-52037494D01*
X104211524Y-52037494D02*
X104306762Y-51942256D01*
X104306762Y-51942256D02*
X104449619Y-51894637D01*
X104449619Y-51894637D02*
X104544857Y-51894637D01*
X104544857Y-51894637D02*
X104687714Y-51942256D01*
X104687714Y-51942256D02*
X104735333Y-51989875D01*
X105592476Y-52227970D02*
X105592476Y-52894637D01*
X105354381Y-51847018D02*
X105116286Y-52561303D01*
X105116286Y-52561303D02*
X105735333Y-52561303D01*
X115262819Y-45327722D02*
X114262819Y-45327722D01*
X114739009Y-45327722D02*
X114739009Y-44756294D01*
X115262819Y-44756294D02*
X114262819Y-44756294D01*
X114358057Y-44327722D02*
X114310438Y-44280103D01*
X114310438Y-44280103D02*
X114262819Y-44184865D01*
X114262819Y-44184865D02*
X114262819Y-43946770D01*
X114262819Y-43946770D02*
X114310438Y-43851532D01*
X114310438Y-43851532D02*
X114358057Y-43803913D01*
X114358057Y-43803913D02*
X114453295Y-43756294D01*
X114453295Y-43756294D02*
X114548533Y-43756294D01*
X114548533Y-43756294D02*
X114691390Y-43803913D01*
X114691390Y-43803913D02*
X115262819Y-44375341D01*
X115262819Y-44375341D02*
X115262819Y-43756294D01*
X103991580Y-58162675D02*
X104039200Y-58210294D01*
X104039200Y-58210294D02*
X104086819Y-58353151D01*
X104086819Y-58353151D02*
X104086819Y-58448389D01*
X104086819Y-58448389D02*
X104039200Y-58591246D01*
X104039200Y-58591246D02*
X103943961Y-58686484D01*
X103943961Y-58686484D02*
X103848723Y-58734103D01*
X103848723Y-58734103D02*
X103658247Y-58781722D01*
X103658247Y-58781722D02*
X103515390Y-58781722D01*
X103515390Y-58781722D02*
X103324914Y-58734103D01*
X103324914Y-58734103D02*
X103229676Y-58686484D01*
X103229676Y-58686484D02*
X103134438Y-58591246D01*
X103134438Y-58591246D02*
X103086819Y-58448389D01*
X103086819Y-58448389D02*
X103086819Y-58353151D01*
X103086819Y-58353151D02*
X103134438Y-58210294D01*
X103134438Y-58210294D02*
X103182057Y-58162675D01*
X104086819Y-57210294D02*
X104086819Y-57781722D01*
X104086819Y-57496008D02*
X103086819Y-57496008D01*
X103086819Y-57496008D02*
X103229676Y-57591246D01*
X103229676Y-57591246D02*
X103324914Y-57686484D01*
X103324914Y-57686484D02*
X103372533Y-57781722D01*
X103420152Y-56353151D02*
X104086819Y-56353151D01*
X103039200Y-56591246D02*
X103753485Y-56829341D01*
X103753485Y-56829341D02*
X103753485Y-56210294D01*
X114133333Y-53148637D02*
X113800000Y-52672446D01*
X113561905Y-53148637D02*
X113561905Y-52148637D01*
X113561905Y-52148637D02*
X113942857Y-52148637D01*
X113942857Y-52148637D02*
X114038095Y-52196256D01*
X114038095Y-52196256D02*
X114085714Y-52243875D01*
X114085714Y-52243875D02*
X114133333Y-52339113D01*
X114133333Y-52339113D02*
X114133333Y-52481970D01*
X114133333Y-52481970D02*
X114085714Y-52577208D01*
X114085714Y-52577208D02*
X114038095Y-52624827D01*
X114038095Y-52624827D02*
X113942857Y-52672446D01*
X113942857Y-52672446D02*
X113561905Y-52672446D01*
X114514286Y-52243875D02*
X114561905Y-52196256D01*
X114561905Y-52196256D02*
X114657143Y-52148637D01*
X114657143Y-52148637D02*
X114895238Y-52148637D01*
X114895238Y-52148637D02*
X114990476Y-52196256D01*
X114990476Y-52196256D02*
X115038095Y-52243875D01*
X115038095Y-52243875D02*
X115085714Y-52339113D01*
X115085714Y-52339113D02*
X115085714Y-52434351D01*
X115085714Y-52434351D02*
X115038095Y-52577208D01*
X115038095Y-52577208D02*
X114466667Y-53148637D01*
X114466667Y-53148637D02*
X115085714Y-53148637D01*
X102227142Y-55719037D02*
X101893809Y-55242846D01*
X101655714Y-55719037D02*
X101655714Y-54719037D01*
X101655714Y-54719037D02*
X102036666Y-54719037D01*
X102036666Y-54719037D02*
X102131904Y-54766656D01*
X102131904Y-54766656D02*
X102179523Y-54814275D01*
X102179523Y-54814275D02*
X102227142Y-54909513D01*
X102227142Y-54909513D02*
X102227142Y-55052370D01*
X102227142Y-55052370D02*
X102179523Y-55147608D01*
X102179523Y-55147608D02*
X102131904Y-55195227D01*
X102131904Y-55195227D02*
X102036666Y-55242846D01*
X102036666Y-55242846D02*
X101655714Y-55242846D01*
X103179523Y-55719037D02*
X102608095Y-55719037D01*
X102893809Y-55719037D02*
X102893809Y-54719037D01*
X102893809Y-54719037D02*
X102798571Y-54861894D01*
X102798571Y-54861894D02*
X102703333Y-54957132D01*
X102703333Y-54957132D02*
X102608095Y-55004751D01*
X103512857Y-54719037D02*
X104179523Y-54719037D01*
X104179523Y-54719037D02*
X103750952Y-55719037D01*
X110609142Y-62197398D02*
X110561523Y-62245018D01*
X110561523Y-62245018D02*
X110418666Y-62292637D01*
X110418666Y-62292637D02*
X110323428Y-62292637D01*
X110323428Y-62292637D02*
X110180571Y-62245018D01*
X110180571Y-62245018D02*
X110085333Y-62149779D01*
X110085333Y-62149779D02*
X110037714Y-62054541D01*
X110037714Y-62054541D02*
X109990095Y-61864065D01*
X109990095Y-61864065D02*
X109990095Y-61721208D01*
X109990095Y-61721208D02*
X110037714Y-61530732D01*
X110037714Y-61530732D02*
X110085333Y-61435494D01*
X110085333Y-61435494D02*
X110180571Y-61340256D01*
X110180571Y-61340256D02*
X110323428Y-61292637D01*
X110323428Y-61292637D02*
X110418666Y-61292637D01*
X110418666Y-61292637D02*
X110561523Y-61340256D01*
X110561523Y-61340256D02*
X110609142Y-61387875D01*
X111561523Y-62292637D02*
X110990095Y-62292637D01*
X111275809Y-62292637D02*
X111275809Y-61292637D01*
X111275809Y-61292637D02*
X111180571Y-61435494D01*
X111180571Y-61435494D02*
X111085333Y-61530732D01*
X111085333Y-61530732D02*
X110990095Y-61578351D01*
X112466285Y-61292637D02*
X111990095Y-61292637D01*
X111990095Y-61292637D02*
X111942476Y-61768827D01*
X111942476Y-61768827D02*
X111990095Y-61721208D01*
X111990095Y-61721208D02*
X112085333Y-61673589D01*
X112085333Y-61673589D02*
X112323428Y-61673589D01*
X112323428Y-61673589D02*
X112418666Y-61721208D01*
X112418666Y-61721208D02*
X112466285Y-61768827D01*
X112466285Y-61768827D02*
X112513904Y-61864065D01*
X112513904Y-61864065D02*
X112513904Y-62102160D01*
X112513904Y-62102160D02*
X112466285Y-62197398D01*
X112466285Y-62197398D02*
X112418666Y-62245018D01*
X112418666Y-62245018D02*
X112323428Y-62292637D01*
X112323428Y-62292637D02*
X112085333Y-62292637D01*
X112085333Y-62292637D02*
X111990095Y-62245018D01*
X111990095Y-62245018D02*
X111942476Y-62197398D01*
X107227905Y-41099637D02*
X107227905Y-41909160D01*
X107227905Y-41909160D02*
X107275524Y-42004398D01*
X107275524Y-42004398D02*
X107323143Y-42052018D01*
X107323143Y-42052018D02*
X107418381Y-42099637D01*
X107418381Y-42099637D02*
X107608857Y-42099637D01*
X107608857Y-42099637D02*
X107704095Y-42052018D01*
X107704095Y-42052018D02*
X107751714Y-42004398D01*
X107751714Y-42004398D02*
X107799333Y-41909160D01*
X107799333Y-41909160D02*
X107799333Y-41099637D01*
X108227905Y-42052018D02*
X108370762Y-42099637D01*
X108370762Y-42099637D02*
X108608857Y-42099637D01*
X108608857Y-42099637D02*
X108704095Y-42052018D01*
X108704095Y-42052018D02*
X108751714Y-42004398D01*
X108751714Y-42004398D02*
X108799333Y-41909160D01*
X108799333Y-41909160D02*
X108799333Y-41813922D01*
X108799333Y-41813922D02*
X108751714Y-41718684D01*
X108751714Y-41718684D02*
X108704095Y-41671065D01*
X108704095Y-41671065D02*
X108608857Y-41623446D01*
X108608857Y-41623446D02*
X108418381Y-41575827D01*
X108418381Y-41575827D02*
X108323143Y-41528208D01*
X108323143Y-41528208D02*
X108275524Y-41480589D01*
X108275524Y-41480589D02*
X108227905Y-41385351D01*
X108227905Y-41385351D02*
X108227905Y-41290113D01*
X108227905Y-41290113D02*
X108275524Y-41194875D01*
X108275524Y-41194875D02*
X108323143Y-41147256D01*
X108323143Y-41147256D02*
X108418381Y-41099637D01*
X108418381Y-41099637D02*
X108656476Y-41099637D01*
X108656476Y-41099637D02*
X108799333Y-41147256D01*
X109561238Y-41575827D02*
X109704095Y-41623446D01*
X109704095Y-41623446D02*
X109751714Y-41671065D01*
X109751714Y-41671065D02*
X109799333Y-41766303D01*
X109799333Y-41766303D02*
X109799333Y-41909160D01*
X109799333Y-41909160D02*
X109751714Y-42004398D01*
X109751714Y-42004398D02*
X109704095Y-42052018D01*
X109704095Y-42052018D02*
X109608857Y-42099637D01*
X109608857Y-42099637D02*
X109227905Y-42099637D01*
X109227905Y-42099637D02*
X109227905Y-41099637D01*
X109227905Y-41099637D02*
X109561238Y-41099637D01*
X109561238Y-41099637D02*
X109656476Y-41147256D01*
X109656476Y-41147256D02*
X109704095Y-41194875D01*
X109704095Y-41194875D02*
X109751714Y-41290113D01*
X109751714Y-41290113D02*
X109751714Y-41385351D01*
X109751714Y-41385351D02*
X109704095Y-41480589D01*
X109704095Y-41480589D02*
X109656476Y-41528208D01*
X109656476Y-41528208D02*
X109561238Y-41575827D01*
X109561238Y-41575827D02*
X109227905Y-41575827D01*
X110751714Y-42099637D02*
X110180286Y-42099637D01*
X110466000Y-42099637D02*
X110466000Y-41099637D01*
X110466000Y-41099637D02*
X110370762Y-41242494D01*
X110370762Y-41242494D02*
X110275524Y-41337732D01*
X110275524Y-41337732D02*
X110180286Y-41385351D01*
X115167580Y-60332857D02*
X115215200Y-60380476D01*
X115215200Y-60380476D02*
X115262819Y-60523333D01*
X115262819Y-60523333D02*
X115262819Y-60618571D01*
X115262819Y-60618571D02*
X115215200Y-60761428D01*
X115215200Y-60761428D02*
X115119961Y-60856666D01*
X115119961Y-60856666D02*
X115024723Y-60904285D01*
X115024723Y-60904285D02*
X114834247Y-60951904D01*
X114834247Y-60951904D02*
X114691390Y-60951904D01*
X114691390Y-60951904D02*
X114500914Y-60904285D01*
X114500914Y-60904285D02*
X114405676Y-60856666D01*
X114405676Y-60856666D02*
X114310438Y-60761428D01*
X114310438Y-60761428D02*
X114262819Y-60618571D01*
X114262819Y-60618571D02*
X114262819Y-60523333D01*
X114262819Y-60523333D02*
X114310438Y-60380476D01*
X114310438Y-60380476D02*
X114358057Y-60332857D01*
X115262819Y-59380476D02*
X115262819Y-59951904D01*
X115262819Y-59666190D02*
X114262819Y-59666190D01*
X114262819Y-59666190D02*
X114405676Y-59761428D01*
X114405676Y-59761428D02*
X114500914Y-59856666D01*
X114500914Y-59856666D02*
X114548533Y-59951904D01*
X114262819Y-58523333D02*
X114262819Y-58713809D01*
X114262819Y-58713809D02*
X114310438Y-58809047D01*
X114310438Y-58809047D02*
X114358057Y-58856666D01*
X114358057Y-58856666D02*
X114500914Y-58951904D01*
X114500914Y-58951904D02*
X114691390Y-58999523D01*
X114691390Y-58999523D02*
X115072342Y-58999523D01*
X115072342Y-58999523D02*
X115167580Y-58951904D01*
X115167580Y-58951904D02*
X115215200Y-58904285D01*
X115215200Y-58904285D02*
X115262819Y-58809047D01*
X115262819Y-58809047D02*
X115262819Y-58618571D01*
X115262819Y-58618571D02*
X115215200Y-58523333D01*
X115215200Y-58523333D02*
X115167580Y-58475714D01*
X115167580Y-58475714D02*
X115072342Y-58428095D01*
X115072342Y-58428095D02*
X114834247Y-58428095D01*
X114834247Y-58428095D02*
X114739009Y-58475714D01*
X114739009Y-58475714D02*
X114691390Y-58523333D01*
X114691390Y-58523333D02*
X114643771Y-58618571D01*
X114643771Y-58618571D02*
X114643771Y-58809047D01*
X114643771Y-58809047D02*
X114691390Y-58904285D01*
X114691390Y-58904285D02*
X114739009Y-58951904D01*
X114739009Y-58951904D02*
X114834247Y-58999523D01*
%TO.C,U1*%
X107843200Y-45424218D02*
X107843200Y-45674218D01*
X107843200Y-48574218D02*
X107843200Y-48334218D01*
X110993200Y-45424218D02*
X107843200Y-45424218D01*
X110993200Y-45674218D02*
X110993200Y-45424218D01*
X110993200Y-48334218D02*
X110993200Y-48574218D01*
X110993200Y-48574218D02*
X107843200Y-48574218D01*
X111533200Y-48004218D02*
G75*
G02*
X111393200Y-48004218I-70000J0D01*
G01*
X111393200Y-48004218D02*
G75*
G02*
X111533200Y-48004218I70000J0D01*
G01*
D11*
%TO.C,R3*%
X111901100Y-50681076D02*
X111901100Y-50206560D01*
X112946100Y-50681076D02*
X112946100Y-50206560D01*
%TO.C,C12*%
X112178000Y-54406748D02*
X112178000Y-55829252D01*
X114898000Y-54406748D02*
X114898000Y-55829252D01*
%TO.C,C17*%
X104881764Y-52872218D02*
X105097436Y-52872218D01*
X104881764Y-53592218D02*
X105097436Y-53592218D01*
%TO.C,R16*%
X105143241Y-53868218D02*
X104835959Y-53868218D01*
X105143241Y-54628218D02*
X104835959Y-54628218D01*
%TO.C,C3*%
X105334052Y-48145718D02*
X104811548Y-48145718D01*
X105334052Y-49615718D02*
X104811548Y-49615718D01*
%TO.C,C2*%
X104811548Y-46113718D02*
X105334052Y-46113718D01*
X104811548Y-47583718D02*
X105334052Y-47583718D01*
D10*
%TO.C,U5*%
X108553600Y-52896218D02*
X106773600Y-52896218D01*
X108553600Y-55976218D02*
X106773600Y-55976218D01*
D12*
X109113600Y-56106218D02*
G75*
G02*
X108813600Y-56106218I-150000J0D01*
G01*
X108813600Y-56106218D02*
G75*
G02*
X109113600Y-56106218I150000J0D01*
G01*
D13*
%TO.C,H1*%
X100330000Y-41910000D02*
X102820000Y-41910000D01*
X100330000Y-59690000D02*
X100330000Y-41910000D01*
X102750000Y-44450000D02*
X100460000Y-44450000D01*
X102870000Y-41910000D02*
X102870000Y-59690000D01*
X102870000Y-59690000D02*
X100330000Y-59690000D01*
D10*
%TO.C,Q1*%
X107725200Y-49051018D02*
X108915200Y-49051018D01*
X107725200Y-49191018D02*
X107725200Y-49051018D01*
X107725200Y-52201018D02*
X107725200Y-52051018D01*
X108915200Y-52201018D02*
X107725200Y-52201018D01*
X109625200Y-49051018D02*
X110825200Y-49051018D01*
X110815200Y-49251018D02*
X110825200Y-49051018D01*
X110815200Y-52201018D02*
X109625200Y-52201018D01*
X110815200Y-52201018D02*
X110815200Y-52011018D01*
D14*
X111675200Y-51591018D02*
G75*
G02*
X111475200Y-51591018I-100000J0D01*
G01*
X111475200Y-51591018D02*
G75*
G02*
X111675200Y-51591018I100000J0D01*
G01*
D13*
%TO.C,L2*%
X104858600Y-57044218D02*
X109438600Y-57044218D01*
X104858600Y-57844218D02*
X104858600Y-57044218D01*
X104858600Y-61104218D02*
X104858600Y-60304218D01*
X109438600Y-57044218D02*
X109438600Y-57844218D01*
X109438600Y-60304218D02*
X109438600Y-61104218D01*
X109438600Y-61104218D02*
X104858600Y-61104218D01*
D11*
%TO.C,C13*%
X110488000Y-54496580D02*
X110488000Y-54215420D01*
X111508000Y-54496580D02*
X111508000Y-54215420D01*
%TO.C,C1*%
X113477252Y-45515818D02*
X112954748Y-45515818D01*
X113477252Y-46985818D02*
X112954748Y-46985818D01*
%TO.C,J1*%
X101580000Y-62403000D02*
X101580000Y-68373000D01*
X101580000Y-68373000D02*
X116700000Y-68373000D01*
X101590000Y-66113000D02*
X102340000Y-66113000D01*
X101590000Y-67613000D02*
X101590000Y-68363000D01*
X101590000Y-68363000D02*
X103390000Y-68363000D01*
X102340000Y-63163000D02*
X109140000Y-63163000D01*
X102340000Y-66113000D02*
X102340000Y-63163000D01*
X103390000Y-67613000D02*
X101590000Y-67613000D01*
X103390000Y-68363000D02*
X103390000Y-67613000D01*
X104890000Y-67613000D02*
X104890000Y-68363000D01*
X104890000Y-68363000D02*
X113390000Y-68363000D01*
X113390000Y-67613000D02*
X104890000Y-67613000D01*
X113390000Y-68363000D02*
X113390000Y-67613000D01*
X114890000Y-67613000D02*
X114890000Y-68363000D01*
X114890000Y-68363000D02*
X116690000Y-68363000D01*
X115740000Y-68663000D02*
X116990000Y-68663000D01*
X115940000Y-63163000D02*
X109140000Y-63163000D01*
X115940000Y-66113000D02*
X115940000Y-63163000D01*
X116690000Y-66113000D02*
X115940000Y-66113000D01*
X116690000Y-67613000D02*
X114890000Y-67613000D01*
X116690000Y-68363000D02*
X116690000Y-67613000D01*
X116700000Y-62403000D02*
X101580000Y-62403000D01*
X116700000Y-68373000D02*
X116700000Y-62403000D01*
X116990000Y-68663000D02*
X116990000Y-67413000D01*
%TO.C,R1*%
X113692058Y-47596218D02*
X113217542Y-47596218D01*
X113692058Y-48641218D02*
X113217542Y-48641218D01*
%TO.C,C4*%
X105334052Y-50177718D02*
X104811548Y-50177718D01*
X105334052Y-51647718D02*
X104811548Y-51647718D01*
D13*
%TO.C,H2*%
X115570000Y-41910000D02*
X118060000Y-41910000D01*
X115570000Y-59690000D02*
X115570000Y-41910000D01*
X117990000Y-44450000D02*
X115700000Y-44450000D01*
X118110000Y-41910000D02*
X118110000Y-59690000D01*
X118110000Y-59690000D02*
X115570000Y-59690000D01*
D11*
%TO.C,C14*%
X105097436Y-55920218D02*
X104881764Y-55920218D01*
X105097436Y-56640218D02*
X104881764Y-56640218D01*
%TO.C,R2*%
X113679100Y-50206560D02*
X113679100Y-50681076D01*
X114724100Y-50206560D02*
X114724100Y-50681076D01*
%TO.C,R17*%
X104835959Y-54884218D02*
X105143241Y-54884218D01*
X104835959Y-55644218D02*
X105143241Y-55644218D01*
%TO.C,C15*%
X110477600Y-59320966D02*
X110477600Y-59843470D01*
X111947600Y-59320966D02*
X111947600Y-59843470D01*
D13*
%TO.C,USB1*%
X104535200Y-37241018D02*
X104535200Y-38641018D01*
X104535200Y-41041018D02*
X104535200Y-42491018D01*
X105705200Y-44041018D02*
X105495200Y-44041018D01*
X106275200Y-38411018D02*
X106775200Y-38411018D01*
X106775200Y-38411018D02*
X107175200Y-40511018D01*
X106775200Y-40911018D02*
X106275200Y-38411018D01*
X106975200Y-39711018D02*
X106575200Y-39711018D01*
X107175200Y-40511018D02*
X107695200Y-40511018D01*
X107695200Y-40511018D02*
X108105200Y-38411018D01*
X108035200Y-42241018D02*
X108035200Y-42641018D01*
X108035200Y-42641018D02*
X108635200Y-42641018D01*
X108075200Y-40911018D02*
X106775200Y-40911018D01*
X108105200Y-38411018D02*
X108575200Y-38411018D01*
X108275200Y-39711018D02*
X107875200Y-39711018D01*
X108575200Y-38411018D02*
X108075200Y-40911018D01*
X108635200Y-42641018D02*
X108635200Y-42841018D01*
X109435200Y-42641018D02*
X109435200Y-42841018D01*
X109555200Y-38411018D02*
X110045200Y-38411018D01*
X110035200Y-42241018D02*
X110035200Y-42641018D01*
X110035200Y-42641018D02*
X109435200Y-42641018D01*
X110045200Y-38411018D02*
X110445200Y-40511018D01*
X110045200Y-42241018D02*
X108025200Y-42241018D01*
X110055200Y-40911018D02*
X109555200Y-38411018D01*
X110255200Y-39711018D02*
X109855200Y-39711018D01*
X110445200Y-40511018D02*
X110975200Y-40511018D01*
X110975200Y-40511018D02*
X111375200Y-38411018D01*
X111355200Y-40911018D02*
X110055200Y-40911018D01*
X111375200Y-38411018D02*
X111855200Y-38411018D01*
X111555200Y-39711018D02*
X111155200Y-39711018D01*
X111855200Y-38411018D02*
X111355200Y-40911018D01*
X112575200Y-44041018D02*
X112365200Y-44041018D01*
X113535200Y-37241018D02*
X104535200Y-37241018D01*
X113535200Y-38641018D02*
X113535200Y-38661018D01*
X113535200Y-38661018D02*
X113535200Y-37241018D01*
X113535200Y-42441018D02*
X113535200Y-41001018D01*
X113535200Y-42441018D02*
X113535200Y-42481018D01*
D11*
%TO.C,C16*%
X112509600Y-59320966D02*
X112509600Y-59843470D01*
X113979600Y-59320966D02*
X113979600Y-59843470D01*
%TD*%
%LPC*%
D15*
%TO.C,U1*%
X110833200Y-48004218D03*
X110833200Y-47504218D03*
X110833200Y-47004218D03*
X110833200Y-46504218D03*
X110833200Y-46004218D03*
X108013200Y-46004218D03*
X108013200Y-46504218D03*
X108013200Y-47004218D03*
X108013200Y-47504218D03*
X108013200Y-48004218D03*
D16*
X109423200Y-47004218D03*
%TD*%
D17*
%TO.C,R3*%
X112423600Y-51268818D03*
X112423600Y-49618818D03*
%TD*%
D18*
%TO.C,C12*%
X113538000Y-53643000D03*
X113538000Y-56593000D03*
%TD*%
D19*
%TO.C,C17*%
X104509600Y-53232218D03*
X105469600Y-53232218D03*
%TD*%
D20*
%TO.C,R16*%
X105499600Y-54248218D03*
X104479600Y-54248218D03*
%TD*%
D21*
%TO.C,C3*%
X106022800Y-48880718D03*
X104122800Y-48880718D03*
%TD*%
D22*
%TO.C,C2*%
X104122800Y-46848718D03*
X106022800Y-46848718D03*
%TD*%
D23*
%TO.C,U5*%
X108813600Y-55386218D03*
X108813600Y-54436218D03*
X108813600Y-53486218D03*
X106513600Y-53486218D03*
X106513600Y-54436218D03*
X106513600Y-55386218D03*
%TD*%
D24*
%TO.C,H1*%
X101600000Y-43180000D03*
D25*
X101600000Y-45720000D03*
X101600000Y-48260000D03*
X101600000Y-50800000D03*
X101600000Y-53340000D03*
X101600000Y-55880000D03*
X101600000Y-58420000D03*
%TD*%
D26*
%TO.C,Q1*%
X110865200Y-51591018D03*
X110865200Y-50931018D03*
X110865200Y-50281018D03*
X110865200Y-49631018D03*
X107665200Y-49631018D03*
X107665200Y-50281018D03*
X107665200Y-50931018D03*
X107665200Y-51591018D03*
D27*
X108915200Y-50611018D03*
%TD*%
D28*
%TO.C,L2*%
X105148600Y-59074218D03*
X109148600Y-59074218D03*
%TD*%
D29*
%TO.C,C13*%
X110998000Y-55131000D03*
X110998000Y-53581000D03*
%TD*%
D21*
%TO.C,C1*%
X114166000Y-46250818D03*
X112266000Y-46250818D03*
%TD*%
D30*
%TO.C,J1*%
X114140000Y-65913000D03*
D31*
X111640000Y-65913000D03*
X109140000Y-65913000D03*
X106640000Y-65913000D03*
X104140000Y-65913000D03*
%TD*%
D32*
%TO.C,R1*%
X114279800Y-48118718D03*
X112629800Y-48118718D03*
%TD*%
D21*
%TO.C,C4*%
X106022800Y-50912718D03*
X104122800Y-50912718D03*
%TD*%
D24*
%TO.C,H2*%
X116840000Y-43180000D03*
D25*
X116840000Y-45720000D03*
X116840000Y-48260000D03*
X116840000Y-50800000D03*
X116840000Y-53340000D03*
X116840000Y-55880000D03*
X116840000Y-58420000D03*
%TD*%
D33*
%TO.C,C14*%
X105469600Y-56280218D03*
X104509600Y-56280218D03*
%TD*%
D34*
%TO.C,R2*%
X114201600Y-49618818D03*
X114201600Y-51268818D03*
%TD*%
D35*
%TO.C,R17*%
X104479600Y-55264218D03*
X105499600Y-55264218D03*
%TD*%
D36*
%TO.C,C15*%
X111212600Y-58632218D03*
X111212600Y-60532218D03*
%TD*%
D37*
%TO.C,USB1*%
X113355200Y-43641018D03*
X113355200Y-39831018D03*
X104715200Y-43641018D03*
X104715200Y-39831018D03*
D38*
X109535200Y-43891018D03*
X107535200Y-43891018D03*
D39*
X106335200Y-43891018D03*
D38*
X108535200Y-43891018D03*
X110535200Y-43891018D03*
D39*
X111735200Y-43891018D03*
%TD*%
D36*
%TO.C,C16*%
X113244600Y-58632218D03*
X113244600Y-60532218D03*
%TD*%
%LPD*%
M02*
