%TF.GenerationSoftware,KiCad,Pcbnew,8.0.8*%
%TF.CreationDate,2025-03-31T15:02:32-07:00*%
%TF.ProjectId,stoplight,73746f70-6c69-4676-9874-2e6b69636164,0.1*%
%TF.SameCoordinates,Original*%
%TF.FileFunction,Copper,L3,Inr*%
%TF.FilePolarity,Positive*%
%FSLAX46Y46*%
G04 Gerber Fmt 4.6, Leading zero omitted, Abs format (unit mm)*
G04 Created by KiCad (PCBNEW 8.0.8) date 2025-03-31 15:02:32*
%MOMM*%
%LPD*%
G01*
G04 APERTURE LIST*
G04 Aperture macros list*
%AMRoundRect*
0 Rectangle with rounded corners*
0 $1 Rounding radius*
0 $2 $3 $4 $5 $6 $7 $8 $9 X,Y pos of 4 corners*
0 Add a 4 corners polygon primitive as box body*
4,1,4,$2,$3,$4,$5,$6,$7,$8,$9,$2,$3,0*
0 Add four circle primitives for the rounded corners*
1,1,$1+$1,$2,$3*
1,1,$1+$1,$4,$5*
1,1,$1+$1,$6,$7*
1,1,$1+$1,$8,$9*
0 Add four rect primitives between the rounded corners*
20,1,$1+$1,$2,$3,$4,$5,0*
20,1,$1+$1,$4,$5,$6,$7,0*
20,1,$1+$1,$6,$7,$8,$9,0*
20,1,$1+$1,$8,$9,$2,$3,0*%
G04 Aperture macros list end*
%TA.AperFunction,ComponentPad*%
%ADD10RoundRect,0.250000X0.600000X0.725000X-0.600000X0.725000X-0.600000X-0.725000X0.600000X-0.725000X0*%
%TD*%
%TA.AperFunction,ComponentPad*%
%ADD11O,1.700000X1.950000*%
%TD*%
%TA.AperFunction,ComponentPad*%
%ADD12R,1.400000X1.400000*%
%TD*%
%TA.AperFunction,ComponentPad*%
%ADD13C,1.400000*%
%TD*%
%TA.AperFunction,ComponentPad*%
%ADD14O,1.100000X1.700000*%
%TD*%
%TA.AperFunction,ViaPad*%
%ADD15C,0.600000*%
%TD*%
%TA.AperFunction,ViaPad*%
%ADD16C,0.400000*%
%TD*%
%TA.AperFunction,Conductor*%
%ADD17C,0.200000*%
%TD*%
G04 APERTURE END LIST*
D10*
%TO.N,/A2*%
%TO.C,J1*%
X154000000Y-94300000D03*
D11*
%TO.N,/A1*%
X151500000Y-94300000D03*
%TO.N,/B1*%
X149000000Y-94300000D03*
%TO.N,/B2*%
X146500000Y-94300000D03*
%TD*%
D12*
%TO.N,/LED*%
%TO.C,H1*%
X142484800Y-71348982D03*
D13*
%TO.N,/INDEX*%
X142484800Y-73888982D03*
%TO.N,/DIAG*%
X142484800Y-76428982D03*
%TO.N,unconnected-(H1-Pad4)*%
X142484800Y-78968982D03*
%TO.N,/SDA*%
X142484800Y-81508982D03*
%TO.N,/SCL*%
X142484800Y-84048982D03*
%TO.N,Net-(H1-Pad7)*%
X142484800Y-86588982D03*
%TD*%
D12*
%TO.N,+5V*%
%TO.C,H2*%
X157724800Y-71348982D03*
D13*
%TO.N,GND*%
X157724800Y-73888982D03*
%TO.N,+3V3*%
X157724800Y-76428982D03*
%TO.N,/1-WIRE*%
X157724800Y-78968982D03*
%TO.N,/TACH*%
X157724800Y-81508982D03*
%TO.N,/PWM*%
X157724800Y-84048982D03*
%TO.N,/UART*%
X157724800Y-86588982D03*
%TD*%
D14*
%TO.N,GND*%
%TO.C,USB1*%
X154240000Y-71810000D03*
X154240000Y-68000000D03*
X145600000Y-71810000D03*
X145600000Y-68000000D03*
%TD*%
D15*
%TO.N,+3V3*%
X144771624Y-82417200D03*
X145659800Y-69813800D03*
X156708800Y-89890982D03*
X154988869Y-85906075D03*
X158500000Y-69394905D03*
X156708800Y-88701200D03*
%TO.N,VM*%
X153046495Y-89535977D03*
X150131800Y-81655200D03*
X157200000Y-93500000D03*
X143600000Y-93400000D03*
X155946800Y-82524982D03*
X146907600Y-78068800D03*
X146907600Y-76036800D03*
X146294800Y-79846800D03*
X147666400Y-77800000D03*
X152898800Y-81825664D03*
X147425800Y-89400000D03*
X147666400Y-78450000D03*
%TO.N,/SCL*%
X147971200Y-74855603D03*
%TO.N,/INDEX*%
X147907600Y-76978217D03*
D16*
%TO.N,/DIAG*%
X149342800Y-80990198D03*
D15*
%TO.N,/SDA*%
X147971200Y-74055600D03*
%TO.N,/1-WIRE*%
X155530222Y-70241560D03*
%TO.N,/UART*%
X154168780Y-83492983D03*
X143754800Y-88874982D03*
%TO.N,/A2*%
X153113399Y-87924763D03*
%TO.N,/B2*%
X147433402Y-87974800D03*
%TO.N,GND*%
X147818800Y-91800000D03*
X151628800Y-85688800D03*
X152644800Y-91800000D03*
X150200000Y-91800000D03*
X151613725Y-84454177D03*
X150866800Y-85688800D03*
X151628800Y-85064982D03*
%TD*%
D17*
%TO.N,/SCL*%
X145951997Y-74855603D02*
X145567800Y-75239800D01*
X142484800Y-83286982D02*
X142484800Y-84048982D01*
X145567800Y-75239800D02*
X145567800Y-80203982D01*
X145567800Y-80203982D02*
X142484800Y-83286982D01*
X147971200Y-74855603D02*
X145951997Y-74855603D01*
%TO.N,/INDEX*%
X147907600Y-76978217D02*
X148199800Y-76686017D01*
X148571200Y-75157400D02*
X148571200Y-73807071D01*
X148571200Y-73807071D02*
X148219729Y-73455600D01*
X148219729Y-73455600D02*
X142918182Y-73455600D01*
X148199800Y-76686017D02*
X148199800Y-75528800D01*
X148199800Y-75528800D02*
X148571200Y-75157400D01*
X142918182Y-73455600D02*
X142484800Y-73888982D01*
%TO.N,/SDA*%
X147971200Y-74055600D02*
X145863000Y-74055600D01*
X144923200Y-80086582D02*
X143500800Y-81508982D01*
X145863000Y-74055600D02*
X144923200Y-74995400D01*
X144923200Y-74995400D02*
X144923200Y-80086582D01*
X143500800Y-81508982D02*
X142484800Y-81508982D01*
%TO.N,/1-WIRE*%
X156261800Y-79621982D02*
X157277800Y-79621982D01*
X155499800Y-78859982D02*
X156261800Y-79621982D01*
X155499800Y-70271982D02*
X155499800Y-78859982D01*
X155530222Y-70241560D02*
X155499800Y-70271982D01*
X157277800Y-79621982D02*
X157785800Y-79113982D01*
%TO.N,/UART*%
X154168780Y-83492983D02*
X153200779Y-82524982D01*
X153200779Y-82524982D02*
X149088800Y-82524982D01*
X143754800Y-87858982D02*
X143754800Y-88874982D01*
X149088800Y-82524982D02*
X143754800Y-87858982D01*
%TD*%
%TA.AperFunction,Conductor*%
%TO.N,+3V3*%
G36*
X144921076Y-67104020D02*
G01*
X144957040Y-67153520D01*
X144957040Y-67214706D01*
X144945200Y-67239115D01*
X144890609Y-67320813D01*
X144890603Y-67320825D01*
X144830263Y-67466501D01*
X144830263Y-67466503D01*
X144799500Y-67621155D01*
X144799500Y-68378844D01*
X144830263Y-68533496D01*
X144830263Y-68533498D01*
X144890603Y-68679174D01*
X144890609Y-68679185D01*
X144943312Y-68758059D01*
X144978211Y-68810289D01*
X145089711Y-68921789D01*
X145167876Y-68974017D01*
X145220814Y-69009390D01*
X145220825Y-69009396D01*
X145274638Y-69031685D01*
X145366503Y-69069737D01*
X145521158Y-69100500D01*
X145521159Y-69100500D01*
X145678841Y-69100500D01*
X145678842Y-69100500D01*
X145833497Y-69069737D01*
X145979179Y-69009394D01*
X146110289Y-68921789D01*
X146221789Y-68810289D01*
X146309394Y-68679179D01*
X146369737Y-68533497D01*
X146400500Y-68378842D01*
X146400500Y-67621158D01*
X146369737Y-67466503D01*
X146349622Y-67417942D01*
X146309396Y-67320825D01*
X146309390Y-67320813D01*
X146254800Y-67239115D01*
X146238191Y-67180227D01*
X146259368Y-67122823D01*
X146310242Y-67088830D01*
X146337115Y-67085113D01*
X153502885Y-67085113D01*
X153561076Y-67104020D01*
X153597040Y-67153520D01*
X153597040Y-67214706D01*
X153585200Y-67239115D01*
X153530609Y-67320813D01*
X153530603Y-67320825D01*
X153470263Y-67466501D01*
X153470263Y-67466503D01*
X153439500Y-67621155D01*
X153439500Y-68378844D01*
X153470263Y-68533496D01*
X153470263Y-68533498D01*
X153530603Y-68679174D01*
X153530609Y-68679185D01*
X153583312Y-68758059D01*
X153618211Y-68810289D01*
X153729711Y-68921789D01*
X153807876Y-68974017D01*
X153860814Y-69009390D01*
X153860825Y-69009396D01*
X153914638Y-69031685D01*
X154006503Y-69069737D01*
X154161158Y-69100500D01*
X154161159Y-69100500D01*
X154318841Y-69100500D01*
X154318842Y-69100500D01*
X154473497Y-69069737D01*
X154619179Y-69009394D01*
X154750289Y-68921789D01*
X154861789Y-68810289D01*
X154949394Y-68679179D01*
X155009737Y-68533497D01*
X155040500Y-68378842D01*
X155040500Y-67621158D01*
X155009737Y-67466503D01*
X154989622Y-67417942D01*
X154949396Y-67320825D01*
X154949390Y-67320813D01*
X154894800Y-67239115D01*
X154878191Y-67180227D01*
X154899368Y-67122823D01*
X154950242Y-67088830D01*
X154977115Y-67085113D01*
X157785908Y-67085113D01*
X157847481Y-67085113D01*
X157856109Y-67085490D01*
X158020903Y-67099907D01*
X158037883Y-67102900D01*
X158193496Y-67144597D01*
X158209702Y-67150496D01*
X158355699Y-67218577D01*
X158370637Y-67227201D01*
X158370715Y-67227256D01*
X158502592Y-67319597D01*
X158515812Y-67330690D01*
X158629715Y-67444594D01*
X158640807Y-67457813D01*
X158733199Y-67589764D01*
X158741828Y-67604709D01*
X158809906Y-67750704D01*
X158815808Y-67766921D01*
X158857497Y-67922516D01*
X158860493Y-67939510D01*
X158874922Y-68104448D01*
X158875299Y-68113076D01*
X158875299Y-68180673D01*
X158875313Y-68180896D01*
X158876420Y-73869091D01*
X158870558Y-73887142D01*
X158876428Y-73908756D01*
X158876773Y-75677477D01*
X158857877Y-75735671D01*
X158808384Y-75771645D01*
X158770919Y-75776258D01*
X158733662Y-75773672D01*
X158124799Y-76382535D01*
X158124799Y-76376321D01*
X158097540Y-76274588D01*
X158044879Y-76183377D01*
X157970405Y-76108903D01*
X157879194Y-76056242D01*
X157777461Y-76028983D01*
X157771243Y-76028983D01*
X158378126Y-75422100D01*
X158261986Y-75350188D01*
X158261980Y-75350185D01*
X158054599Y-75269845D01*
X157835996Y-75228982D01*
X157613604Y-75228982D01*
X157395000Y-75269845D01*
X157187621Y-75350184D01*
X157187616Y-75350187D01*
X157071472Y-75422100D01*
X157678355Y-76028983D01*
X157672139Y-76028983D01*
X157570406Y-76056242D01*
X157479195Y-76108903D01*
X157404721Y-76183377D01*
X157352060Y-76274588D01*
X157324801Y-76376321D01*
X157324801Y-76382537D01*
X156715937Y-75773673D01*
X156700168Y-75794556D01*
X156601039Y-75993634D01*
X156540179Y-76207536D01*
X156519659Y-76428982D01*
X156540179Y-76650427D01*
X156601039Y-76864329D01*
X156700164Y-77063399D01*
X156700169Y-77063408D01*
X156715938Y-77084288D01*
X157324801Y-76475425D01*
X157324801Y-76481643D01*
X157352060Y-76583376D01*
X157404721Y-76674587D01*
X157479195Y-76749061D01*
X157570406Y-76801722D01*
X157672139Y-76828981D01*
X157678353Y-76828981D01*
X157071472Y-77435862D01*
X157187613Y-77507775D01*
X157187619Y-77507778D01*
X157395000Y-77588118D01*
X157613604Y-77628982D01*
X157835996Y-77628982D01*
X158054599Y-77588118D01*
X158261980Y-77507778D01*
X158261981Y-77507778D01*
X158378126Y-77435862D01*
X157771245Y-76828981D01*
X157777461Y-76828981D01*
X157879194Y-76801722D01*
X157970405Y-76749061D01*
X158044879Y-76674587D01*
X158097540Y-76583376D01*
X158124799Y-76481643D01*
X158124799Y-76475427D01*
X158733662Y-77084290D01*
X158771211Y-77081684D01*
X158830571Y-77096516D01*
X158869876Y-77143407D01*
X158877066Y-77180427D01*
X158877412Y-78959160D01*
X158874520Y-78968064D01*
X158877416Y-78978726D01*
X158880580Y-95218063D01*
X158880203Y-95226708D01*
X158865711Y-95392395D01*
X158862715Y-95409391D01*
X158820785Y-95565883D01*
X158814883Y-95582099D01*
X158746418Y-95728928D01*
X158737790Y-95743873D01*
X158644867Y-95876584D01*
X158633774Y-95889804D01*
X158519221Y-96004360D01*
X158506002Y-96015453D01*
X158373289Y-96108381D01*
X158358344Y-96117009D01*
X158211521Y-96185475D01*
X158195304Y-96191378D01*
X158038810Y-96233311D01*
X158021816Y-96236307D01*
X157856463Y-96250774D01*
X157847834Y-96251151D01*
X142456439Y-96251151D01*
X142430818Y-96247778D01*
X142423694Y-96245869D01*
X142423692Y-96245869D01*
X142362119Y-96245869D01*
X142353491Y-96245492D01*
X142248506Y-96236307D01*
X142188705Y-96231075D01*
X142171711Y-96228079D01*
X142016113Y-96186386D01*
X141999896Y-96180483D01*
X141853907Y-96112406D01*
X141838965Y-96103780D01*
X141707008Y-96011380D01*
X141693796Y-96000293D01*
X141579890Y-95886384D01*
X141568802Y-95873169D01*
X141476410Y-95741214D01*
X141467782Y-95726270D01*
X141399708Y-95580281D01*
X141393806Y-95564064D01*
X141383473Y-95525498D01*
X141352117Y-95408467D01*
X141349122Y-95391475D01*
X141334677Y-95226327D01*
X141334300Y-95217698D01*
X141334302Y-95156487D01*
X141334300Y-95156482D01*
X141334301Y-95150435D01*
X141334300Y-95150401D01*
X141334300Y-94088385D01*
X145399500Y-94088385D01*
X145399500Y-94511614D01*
X145426597Y-94682702D01*
X145426598Y-94682706D01*
X145480123Y-94847438D01*
X145480125Y-94847441D01*
X145480126Y-94847444D01*
X145480127Y-94847445D01*
X145558768Y-95001788D01*
X145660586Y-95141928D01*
X145783072Y-95264414D01*
X145923212Y-95366232D01*
X146077555Y-95444873D01*
X146077557Y-95444873D01*
X146077558Y-95444874D01*
X146077561Y-95444876D01*
X146242293Y-95498401D01*
X146242297Y-95498402D01*
X146413386Y-95525500D01*
X146413389Y-95525500D01*
X146586614Y-95525500D01*
X146757702Y-95498402D01*
X146757706Y-95498401D01*
X146922438Y-95444876D01*
X146922440Y-95444874D01*
X146922445Y-95444873D01*
X147076788Y-95366232D01*
X147216928Y-95264414D01*
X147339414Y-95141928D01*
X147441232Y-95001788D01*
X147519873Y-94847445D01*
X147519874Y-94847440D01*
X147519876Y-94847438D01*
X147573401Y-94682706D01*
X147573402Y-94682702D01*
X147600500Y-94511614D01*
X147600500Y-94088385D01*
X147899500Y-94088385D01*
X147899500Y-94511614D01*
X147926597Y-94682702D01*
X147926598Y-94682706D01*
X147980123Y-94847438D01*
X147980125Y-94847441D01*
X147980126Y-94847444D01*
X147980127Y-94847445D01*
X148058768Y-95001788D01*
X148160586Y-95141928D01*
X148283072Y-95264414D01*
X148423212Y-95366232D01*
X148577555Y-95444873D01*
X148577557Y-95444873D01*
X148577558Y-95444874D01*
X148577561Y-95444876D01*
X148742293Y-95498401D01*
X148742297Y-95498402D01*
X148913386Y-95525500D01*
X148913389Y-95525500D01*
X149086614Y-95525500D01*
X149257702Y-95498402D01*
X149257706Y-95498401D01*
X149422438Y-95444876D01*
X149422440Y-95444874D01*
X149422445Y-95444873D01*
X149576788Y-95366232D01*
X149716928Y-95264414D01*
X149839414Y-95141928D01*
X149941232Y-95001788D01*
X150019873Y-94847445D01*
X150019874Y-94847440D01*
X150019876Y-94847438D01*
X150073401Y-94682706D01*
X150073402Y-94682702D01*
X150100500Y-94511614D01*
X150100500Y-94088385D01*
X150399500Y-94088385D01*
X150399500Y-94511614D01*
X150426597Y-94682702D01*
X150426598Y-94682706D01*
X150480123Y-94847438D01*
X150480125Y-94847441D01*
X150480126Y-94847444D01*
X150480127Y-94847445D01*
X150558768Y-95001788D01*
X150660586Y-95141928D01*
X150783072Y-95264414D01*
X150923212Y-95366232D01*
X151077555Y-95444873D01*
X151077557Y-95444873D01*
X151077558Y-95444874D01*
X151077561Y-95444876D01*
X151242293Y-95498401D01*
X151242297Y-95498402D01*
X151413386Y-95525500D01*
X151413389Y-95525500D01*
X151586614Y-95525500D01*
X151757702Y-95498402D01*
X151757706Y-95498401D01*
X151922438Y-95444876D01*
X151922440Y-95444874D01*
X151922445Y-95444873D01*
X152076788Y-95366232D01*
X152216928Y-95264414D01*
X152339414Y-95141928D01*
X152441232Y-95001788D01*
X152519873Y-94847445D01*
X152519874Y-94847440D01*
X152519876Y-94847438D01*
X152573401Y-94682706D01*
X152573402Y-94682702D01*
X152600500Y-94511614D01*
X152600500Y-94088385D01*
X152573402Y-93917297D01*
X152573401Y-93917293D01*
X152519876Y-93752561D01*
X152519874Y-93752558D01*
X152519873Y-93752557D01*
X152519873Y-93752555D01*
X152441232Y-93598212D01*
X152389587Y-93527129D01*
X152899500Y-93527129D01*
X152899500Y-95072866D01*
X152899501Y-95072870D01*
X152905908Y-95132480D01*
X152905909Y-95132485D01*
X152956202Y-95267329D01*
X153030241Y-95366232D01*
X153042454Y-95382546D01*
X153042457Y-95382548D01*
X153042458Y-95382549D01*
X153157670Y-95468797D01*
X153292511Y-95519089D01*
X153292512Y-95519089D01*
X153292517Y-95519091D01*
X153352127Y-95525500D01*
X154647872Y-95525499D01*
X154707483Y-95519091D01*
X154774907Y-95493943D01*
X154842329Y-95468797D01*
X154842329Y-95468796D01*
X154842331Y-95468796D01*
X154957546Y-95382546D01*
X155043796Y-95267331D01*
X155058948Y-95226708D01*
X155085141Y-95156479D01*
X155094091Y-95132483D01*
X155100500Y-95072873D01*
X155100499Y-93527128D01*
X155097583Y-93499999D01*
X156644750Y-93499999D01*
X156644750Y-93500000D01*
X156663669Y-93643708D01*
X156663670Y-93643709D01*
X156719139Y-93777625D01*
X156807379Y-93892621D01*
X156922375Y-93980861D01*
X157056291Y-94036330D01*
X157200000Y-94055250D01*
X157343709Y-94036330D01*
X157477625Y-93980861D01*
X157592621Y-93892621D01*
X157680861Y-93777625D01*
X157736330Y-93643709D01*
X157755250Y-93500000D01*
X157750973Y-93467517D01*
X157736330Y-93356291D01*
X157680861Y-93222375D01*
X157592621Y-93107379D01*
X157477625Y-93019139D01*
X157477621Y-93019137D01*
X157343709Y-92963670D01*
X157343708Y-92963669D01*
X157200000Y-92944750D01*
X157056291Y-92963669D01*
X157056290Y-92963670D01*
X156922378Y-93019137D01*
X156922374Y-93019139D01*
X156807381Y-93107377D01*
X156807377Y-93107381D01*
X156719139Y-93222374D01*
X156719137Y-93222378D01*
X156663670Y-93356290D01*
X156663669Y-93356291D01*
X156644750Y-93499999D01*
X155097583Y-93499999D01*
X155094091Y-93467517D01*
X155068909Y-93400000D01*
X155043797Y-93332670D01*
X154957549Y-93217458D01*
X154957548Y-93217457D01*
X154957546Y-93217454D01*
X154957541Y-93217450D01*
X154842329Y-93131202D01*
X154707488Y-93080910D01*
X154707483Y-93080909D01*
X154707481Y-93080908D01*
X154707477Y-93080908D01*
X154676249Y-93077550D01*
X154647873Y-93074500D01*
X154647870Y-93074500D01*
X153352133Y-93074500D01*
X153352129Y-93074500D01*
X153352128Y-93074501D01*
X153344949Y-93075272D01*
X153292519Y-93080908D01*
X153292514Y-93080909D01*
X153157670Y-93131202D01*
X153042458Y-93217450D01*
X153042450Y-93217458D01*
X152956202Y-93332670D01*
X152905910Y-93467511D01*
X152905908Y-93467522D01*
X152899500Y-93527129D01*
X152389587Y-93527129D01*
X152339414Y-93458072D01*
X152216928Y-93335586D01*
X152076788Y-93233768D01*
X152076787Y-93233767D01*
X152076785Y-93233766D01*
X151922441Y-93155125D01*
X151922438Y-93155123D01*
X151757706Y-93101598D01*
X151757702Y-93101597D01*
X151586614Y-93074500D01*
X151586611Y-93074500D01*
X151413389Y-93074500D01*
X151413386Y-93074500D01*
X151242297Y-93101597D01*
X151242293Y-93101598D01*
X151077561Y-93155123D01*
X151077558Y-93155125D01*
X150923214Y-93233766D01*
X150783073Y-93335585D01*
X150660585Y-93458073D01*
X150558766Y-93598214D01*
X150480125Y-93752558D01*
X150480123Y-93752561D01*
X150426598Y-93917293D01*
X150426597Y-93917297D01*
X150399500Y-94088385D01*
X150100500Y-94088385D01*
X150073402Y-93917297D01*
X150073401Y-93917293D01*
X150019876Y-93752561D01*
X150019874Y-93752558D01*
X150019873Y-93752557D01*
X150019873Y-93752555D01*
X149941232Y-93598212D01*
X149839414Y-93458072D01*
X149716928Y-93335586D01*
X149576788Y-93233768D01*
X149576787Y-93233767D01*
X149576785Y-93233766D01*
X149422441Y-93155125D01*
X149422438Y-93155123D01*
X149257706Y-93101598D01*
X149257702Y-93101597D01*
X149086614Y-93074500D01*
X149086611Y-93074500D01*
X148913389Y-93074500D01*
X148913386Y-93074500D01*
X148742297Y-93101597D01*
X148742293Y-93101598D01*
X148577561Y-93155123D01*
X148577558Y-93155125D01*
X148423214Y-93233766D01*
X148283073Y-93335585D01*
X148160585Y-93458073D01*
X148058766Y-93598214D01*
X147980125Y-93752558D01*
X147980123Y-93752561D01*
X147926598Y-93917293D01*
X147926597Y-93917297D01*
X147899500Y-94088385D01*
X147600500Y-94088385D01*
X147573402Y-93917297D01*
X147573401Y-93917293D01*
X147519876Y-93752561D01*
X147519874Y-93752558D01*
X147519873Y-93752557D01*
X147519873Y-93752555D01*
X147441232Y-93598212D01*
X147339414Y-93458072D01*
X147216928Y-93335586D01*
X147076788Y-93233768D01*
X147076787Y-93233767D01*
X147076785Y-93233766D01*
X146922441Y-93155125D01*
X146922438Y-93155123D01*
X146757706Y-93101598D01*
X146757702Y-93101597D01*
X146586614Y-93074500D01*
X146586611Y-93074500D01*
X146413389Y-93074500D01*
X146413386Y-93074500D01*
X146242297Y-93101597D01*
X146242293Y-93101598D01*
X146077561Y-93155123D01*
X146077558Y-93155125D01*
X145923214Y-93233766D01*
X145783073Y-93335585D01*
X145660585Y-93458073D01*
X145558766Y-93598214D01*
X145480125Y-93752558D01*
X145480123Y-93752561D01*
X145426598Y-93917293D01*
X145426597Y-93917297D01*
X145399500Y-94088385D01*
X141334300Y-94088385D01*
X141334300Y-93399999D01*
X143044750Y-93399999D01*
X143044750Y-93400000D01*
X143063669Y-93543708D01*
X143063670Y-93543709D01*
X143105090Y-93643709D01*
X143119139Y-93677625D01*
X143207379Y-93792621D01*
X143322375Y-93880861D01*
X143456291Y-93936330D01*
X143600000Y-93955250D01*
X143743709Y-93936330D01*
X143877625Y-93880861D01*
X143992621Y-93792621D01*
X144080861Y-93677625D01*
X144136330Y-93543709D01*
X144155250Y-93400000D01*
X144149495Y-93356291D01*
X144136330Y-93256291D01*
X144080861Y-93122375D01*
X143992621Y-93007379D01*
X143877625Y-92919139D01*
X143877621Y-92919137D01*
X143743709Y-92863670D01*
X143743708Y-92863669D01*
X143600000Y-92844750D01*
X143456291Y-92863669D01*
X143456290Y-92863670D01*
X143322378Y-92919137D01*
X143322374Y-92919139D01*
X143207381Y-93007377D01*
X143207377Y-93007381D01*
X143119139Y-93122374D01*
X143119137Y-93122378D01*
X143063670Y-93256290D01*
X143063669Y-93256291D01*
X143044750Y-93399999D01*
X141334300Y-93399999D01*
X141334300Y-91799999D01*
X147263550Y-91799999D01*
X147263550Y-91800000D01*
X147282469Y-91943708D01*
X147282470Y-91943709D01*
X147337939Y-92077625D01*
X147426179Y-92192621D01*
X147541175Y-92280861D01*
X147675091Y-92336330D01*
X147818800Y-92355250D01*
X147962509Y-92336330D01*
X148096425Y-92280861D01*
X148211421Y-92192621D01*
X148299661Y-92077625D01*
X148355130Y-91943709D01*
X148374050Y-91800000D01*
X148374050Y-91799999D01*
X149644750Y-91799999D01*
X149644750Y-91800000D01*
X149663669Y-91943708D01*
X149663670Y-91943709D01*
X149719139Y-92077625D01*
X149807379Y-92192621D01*
X149922375Y-92280861D01*
X150056291Y-92336330D01*
X150200000Y-92355250D01*
X150343709Y-92336330D01*
X150477625Y-92280861D01*
X150592621Y-92192621D01*
X150680861Y-92077625D01*
X150736330Y-91943709D01*
X150755250Y-91800000D01*
X150755250Y-91799999D01*
X152089550Y-91799999D01*
X152089550Y-91800000D01*
X152108469Y-91943708D01*
X152108470Y-91943709D01*
X152163939Y-92077625D01*
X152252179Y-92192621D01*
X152367175Y-92280861D01*
X152501091Y-92336330D01*
X152644800Y-92355250D01*
X152788509Y-92336330D01*
X152922425Y-92280861D01*
X153037421Y-92192621D01*
X153125661Y-92077625D01*
X153181130Y-91943709D01*
X153200050Y-91800000D01*
X153181130Y-91656291D01*
X153125661Y-91522375D01*
X153037421Y-91407379D01*
X152922425Y-91319139D01*
X152922421Y-91319137D01*
X152788509Y-91263670D01*
X152788508Y-91263669D01*
X152644800Y-91244750D01*
X152501091Y-91263669D01*
X152501090Y-91263670D01*
X152367178Y-91319137D01*
X152367174Y-91319139D01*
X152252181Y-91407377D01*
X152252177Y-91407381D01*
X152163939Y-91522374D01*
X152163937Y-91522378D01*
X152108470Y-91656290D01*
X152108469Y-91656291D01*
X152089550Y-91799999D01*
X150755250Y-91799999D01*
X150736330Y-91656291D01*
X150680861Y-91522375D01*
X150592621Y-91407379D01*
X150477625Y-91319139D01*
X150477621Y-91319137D01*
X150343709Y-91263670D01*
X150343708Y-91263669D01*
X150200000Y-91244750D01*
X150056291Y-91263669D01*
X150056290Y-91263670D01*
X149922378Y-91319137D01*
X149922374Y-91319139D01*
X149807381Y-91407377D01*
X149807377Y-91407381D01*
X149719139Y-91522374D01*
X149719137Y-91522378D01*
X149663670Y-91656290D01*
X149663669Y-91656291D01*
X149644750Y-91799999D01*
X148374050Y-91799999D01*
X148355130Y-91656291D01*
X148299661Y-91522375D01*
X148211421Y-91407379D01*
X148096425Y-91319139D01*
X148096421Y-91319137D01*
X147962509Y-91263670D01*
X147962508Y-91263669D01*
X147818800Y-91244750D01*
X147675091Y-91263669D01*
X147675090Y-91263670D01*
X147541178Y-91319137D01*
X147541174Y-91319139D01*
X147426181Y-91407377D01*
X147426177Y-91407381D01*
X147337939Y-91522374D01*
X147337937Y-91522378D01*
X147282470Y-91656290D01*
X147282469Y-91656291D01*
X147263550Y-91799999D01*
X141334300Y-91799999D01*
X141334300Y-88874981D01*
X143199550Y-88874981D01*
X143199550Y-88874982D01*
X143218469Y-89018690D01*
X143218470Y-89018691D01*
X143261416Y-89122375D01*
X143273939Y-89152607D01*
X143362179Y-89267603D01*
X143477175Y-89355843D01*
X143611091Y-89411312D01*
X143754800Y-89430232D01*
X143898509Y-89411312D01*
X143925821Y-89399999D01*
X146870550Y-89399999D01*
X146870550Y-89400000D01*
X146889469Y-89543708D01*
X146889470Y-89543709D01*
X146944939Y-89677625D01*
X147033179Y-89792621D01*
X147148175Y-89880861D01*
X147282091Y-89936330D01*
X147425800Y-89955250D01*
X147569509Y-89936330D01*
X147703425Y-89880861D01*
X147818421Y-89792621D01*
X147906661Y-89677625D01*
X147962130Y-89543709D01*
X147963148Y-89535976D01*
X152491245Y-89535976D01*
X152491245Y-89535977D01*
X152510164Y-89679685D01*
X152510165Y-89679686D01*
X152556943Y-89792621D01*
X152565634Y-89813602D01*
X152653874Y-89928598D01*
X152768870Y-90016838D01*
X152902786Y-90072307D01*
X153046495Y-90091227D01*
X153190204Y-90072307D01*
X153324120Y-90016838D01*
X153439116Y-89928598D01*
X153527356Y-89813602D01*
X153582825Y-89679686D01*
X153601745Y-89535977D01*
X153582825Y-89392268D01*
X153527356Y-89258352D01*
X153439116Y-89143356D01*
X153324120Y-89055116D01*
X153324116Y-89055114D01*
X153190204Y-88999647D01*
X153190203Y-88999646D01*
X153046495Y-88980727D01*
X152902786Y-88999646D01*
X152902785Y-88999647D01*
X152768873Y-89055114D01*
X152768869Y-89055116D01*
X152653876Y-89143354D01*
X152653872Y-89143358D01*
X152565634Y-89258351D01*
X152565632Y-89258355D01*
X152510165Y-89392267D01*
X152510164Y-89392268D01*
X152491245Y-89535976D01*
X147963148Y-89535976D01*
X147981050Y-89400000D01*
X147962130Y-89256291D01*
X147906661Y-89122375D01*
X147818421Y-89007379D01*
X147703425Y-88919139D01*
X147703421Y-88919137D01*
X147569509Y-88863670D01*
X147569508Y-88863669D01*
X147425800Y-88844750D01*
X147282091Y-88863669D01*
X147282090Y-88863670D01*
X147148178Y-88919137D01*
X147148174Y-88919139D01*
X147033181Y-89007377D01*
X147033177Y-89007381D01*
X146944939Y-89122374D01*
X146944937Y-89122378D01*
X146889470Y-89256290D01*
X146889469Y-89256291D01*
X146870550Y-89399999D01*
X143925821Y-89399999D01*
X144032425Y-89355843D01*
X144147421Y-89267603D01*
X144235661Y-89152607D01*
X144291130Y-89018691D01*
X144310050Y-88874982D01*
X144291130Y-88731273D01*
X144235661Y-88597357D01*
X144147421Y-88482361D01*
X144147419Y-88482359D01*
X144147418Y-88482358D01*
X144144031Y-88479759D01*
X144109376Y-88429333D01*
X144105300Y-88401218D01*
X144105300Y-88045172D01*
X144124207Y-87986981D01*
X144134296Y-87975168D01*
X144134665Y-87974799D01*
X146878152Y-87974799D01*
X146878152Y-87974800D01*
X146897071Y-88118508D01*
X146897072Y-88118509D01*
X146931813Y-88202384D01*
X146952541Y-88252425D01*
X147040781Y-88367421D01*
X147155777Y-88455661D01*
X147289693Y-88511130D01*
X147433402Y-88530050D01*
X147577111Y-88511130D01*
X147711027Y-88455661D01*
X147826023Y-88367421D01*
X147914263Y-88252425D01*
X147969732Y-88118509D01*
X147988652Y-87974800D01*
X147982064Y-87924762D01*
X152558149Y-87924762D01*
X152558149Y-87924763D01*
X152577068Y-88068471D01*
X152577069Y-88068472D01*
X152632538Y-88202388D01*
X152720778Y-88317384D01*
X152835774Y-88405624D01*
X152969690Y-88461093D01*
X153113399Y-88480013D01*
X153257108Y-88461093D01*
X153391024Y-88405624D01*
X153506020Y-88317384D01*
X153594260Y-88202388D01*
X153649729Y-88068472D01*
X153668649Y-87924763D01*
X153656316Y-87831090D01*
X153649729Y-87781054D01*
X153594260Y-87647138D01*
X153506020Y-87532142D01*
X153391024Y-87443902D01*
X153391020Y-87443900D01*
X153257108Y-87388433D01*
X153257107Y-87388432D01*
X153113399Y-87369513D01*
X152969690Y-87388432D01*
X152969689Y-87388433D01*
X152835777Y-87443900D01*
X152835773Y-87443902D01*
X152720780Y-87532140D01*
X152720776Y-87532144D01*
X152632538Y-87647137D01*
X152632536Y-87647141D01*
X152577069Y-87781053D01*
X152577068Y-87781054D01*
X152558149Y-87924762D01*
X147982064Y-87924762D01*
X147969732Y-87831091D01*
X147914263Y-87697175D01*
X147826023Y-87582179D01*
X147711027Y-87493939D01*
X147711023Y-87493937D01*
X147577111Y-87438470D01*
X147577110Y-87438469D01*
X147433402Y-87419550D01*
X147289693Y-87438469D01*
X147289692Y-87438470D01*
X147155780Y-87493937D01*
X147155776Y-87493939D01*
X147040783Y-87582177D01*
X147040779Y-87582181D01*
X146952541Y-87697174D01*
X146952539Y-87697178D01*
X146897072Y-87831090D01*
X146897071Y-87831091D01*
X146878152Y-87974799D01*
X144134665Y-87974799D01*
X145520487Y-86588977D01*
X156769701Y-86588977D01*
X156769701Y-86588986D01*
X156788051Y-86775307D01*
X156788052Y-86775310D01*
X156842405Y-86954486D01*
X156842406Y-86954488D01*
X156930659Y-87119599D01*
X156930662Y-87119604D01*
X156930664Y-87119607D01*
X156980195Y-87179960D01*
X157049438Y-87264334D01*
X157049447Y-87264343D01*
X157116945Y-87319737D01*
X157194175Y-87383118D01*
X157194180Y-87383120D01*
X157194182Y-87383122D01*
X157359293Y-87471375D01*
X157359299Y-87471378D01*
X157538469Y-87525729D01*
X157538471Y-87525729D01*
X157538474Y-87525730D01*
X157724796Y-87544081D01*
X157724800Y-87544081D01*
X157724804Y-87544081D01*
X157911125Y-87525730D01*
X157911126Y-87525729D01*
X157911131Y-87525729D01*
X158090301Y-87471378D01*
X158255425Y-87383118D01*
X158400157Y-87264339D01*
X158518936Y-87119607D01*
X158607196Y-86954483D01*
X158661547Y-86775313D01*
X158679624Y-86591782D01*
X158679899Y-86588986D01*
X158679899Y-86588977D01*
X158661548Y-86402656D01*
X158661547Y-86402653D01*
X158661547Y-86402651D01*
X158607196Y-86223481D01*
X158607193Y-86223475D01*
X158518940Y-86058364D01*
X158518938Y-86058362D01*
X158518936Y-86058357D01*
X158443486Y-85966421D01*
X158400161Y-85913629D01*
X158400152Y-85913620D01*
X158301316Y-85832508D01*
X158255425Y-85794846D01*
X158255422Y-85794844D01*
X158255417Y-85794841D01*
X158090306Y-85706588D01*
X158090304Y-85706587D01*
X158031665Y-85688799D01*
X157911131Y-85652235D01*
X157911128Y-85652234D01*
X157911125Y-85652233D01*
X157724804Y-85633883D01*
X157724796Y-85633883D01*
X157538474Y-85652233D01*
X157538471Y-85652234D01*
X157359295Y-85706587D01*
X157359293Y-85706588D01*
X157194182Y-85794841D01*
X157194176Y-85794845D01*
X157049447Y-85913620D01*
X157049438Y-85913629D01*
X156930663Y-86058358D01*
X156930659Y-86058364D01*
X156842406Y-86223475D01*
X156842405Y-86223477D01*
X156788052Y-86402653D01*
X156788051Y-86402656D01*
X156769701Y-86588977D01*
X145520487Y-86588977D01*
X146420665Y-85688799D01*
X150311550Y-85688799D01*
X150311550Y-85688800D01*
X150330469Y-85832508D01*
X150330470Y-85832509D01*
X150364070Y-85913629D01*
X150385939Y-85966425D01*
X150474179Y-86081421D01*
X150589175Y-86169661D01*
X150723091Y-86225130D01*
X150866800Y-86244050D01*
X151010509Y-86225130D01*
X151144425Y-86169661D01*
X151156855Y-86160122D01*
X151187532Y-86136584D01*
X151245208Y-86116159D01*
X151303874Y-86133536D01*
X151308068Y-86136584D01*
X151351169Y-86169657D01*
X151351171Y-86169658D01*
X151351175Y-86169661D01*
X151485091Y-86225130D01*
X151628800Y-86244050D01*
X151772509Y-86225130D01*
X151906425Y-86169661D01*
X152021421Y-86081421D01*
X152109661Y-85966425D01*
X152165130Y-85832509D01*
X152184050Y-85688800D01*
X152165130Y-85545091D01*
X152111153Y-85414776D01*
X152106353Y-85353779D01*
X152111153Y-85339006D01*
X152128893Y-85296177D01*
X152165130Y-85208691D01*
X152184050Y-85064982D01*
X152165130Y-84921273D01*
X152109661Y-84787357D01*
X152107178Y-84781362D01*
X152109586Y-84780364D01*
X152099173Y-84731380D01*
X152106165Y-84703846D01*
X152150055Y-84597886D01*
X152168975Y-84454177D01*
X152163749Y-84414486D01*
X152150055Y-84310468D01*
X152094586Y-84176552D01*
X152006346Y-84061556D01*
X151989953Y-84048977D01*
X156769701Y-84048977D01*
X156769701Y-84048986D01*
X156788051Y-84235307D01*
X156788052Y-84235310D01*
X156842405Y-84414486D01*
X156842406Y-84414488D01*
X156930659Y-84579599D01*
X156930662Y-84579604D01*
X156930664Y-84579607D01*
X156980195Y-84639960D01*
X157049438Y-84724334D01*
X157049447Y-84724343D01*
X157104352Y-84769402D01*
X157194175Y-84843118D01*
X157194180Y-84843120D01*
X157194182Y-84843122D01*
X157340399Y-84921276D01*
X157359299Y-84931378D01*
X157538469Y-84985729D01*
X157538471Y-84985729D01*
X157538474Y-84985730D01*
X157724796Y-85004081D01*
X157724800Y-85004081D01*
X157724804Y-85004081D01*
X157911125Y-84985730D01*
X157911126Y-84985729D01*
X157911131Y-84985729D01*
X158090301Y-84931378D01*
X158255425Y-84843118D01*
X158400157Y-84724339D01*
X158518936Y-84579607D01*
X158607196Y-84414483D01*
X158661547Y-84235313D01*
X158667335Y-84176555D01*
X158679899Y-84048986D01*
X158679899Y-84048977D01*
X158661548Y-83862656D01*
X158661547Y-83862653D01*
X158661547Y-83862651D01*
X158607196Y-83683481D01*
X158582187Y-83636692D01*
X158518940Y-83518364D01*
X158518938Y-83518362D01*
X158518936Y-83518357D01*
X158454913Y-83440345D01*
X158400161Y-83373629D01*
X158400152Y-83373620D01*
X158315778Y-83304377D01*
X158255425Y-83254846D01*
X158255422Y-83254844D01*
X158255417Y-83254841D01*
X158090306Y-83166588D01*
X158090304Y-83166587D01*
X158088652Y-83166086D01*
X158000716Y-83139410D01*
X157911128Y-83112234D01*
X157911125Y-83112233D01*
X157724804Y-83093883D01*
X157724796Y-83093883D01*
X157538474Y-83112233D01*
X157538471Y-83112234D01*
X157359295Y-83166587D01*
X157359293Y-83166588D01*
X157194182Y-83254841D01*
X157194176Y-83254845D01*
X157049447Y-83373620D01*
X157049438Y-83373629D01*
X156930663Y-83518358D01*
X156930659Y-83518364D01*
X156842406Y-83683475D01*
X156842405Y-83683477D01*
X156788052Y-83862653D01*
X156788051Y-83862656D01*
X156769701Y-84048977D01*
X151989953Y-84048977D01*
X151891350Y-83973316D01*
X151891346Y-83973314D01*
X151757434Y-83917847D01*
X151757433Y-83917846D01*
X151613725Y-83898927D01*
X151470016Y-83917846D01*
X151470015Y-83917847D01*
X151336103Y-83973314D01*
X151336099Y-83973316D01*
X151221106Y-84061554D01*
X151221102Y-84061558D01*
X151132864Y-84176551D01*
X151132862Y-84176555D01*
X151077395Y-84310467D01*
X151077394Y-84310468D01*
X151058475Y-84454176D01*
X151058475Y-84454177D01*
X151077394Y-84597885D01*
X151077395Y-84597886D01*
X151135347Y-84737797D01*
X151132941Y-84738793D01*
X151143349Y-84787796D01*
X151136358Y-84815315D01*
X151092471Y-84921272D01*
X151092469Y-84921276D01*
X151074076Y-85060985D01*
X151047735Y-85116209D01*
X150993964Y-85145404D01*
X150963001Y-85146215D01*
X150866801Y-85133550D01*
X150866800Y-85133550D01*
X150723091Y-85152469D01*
X150723090Y-85152470D01*
X150589178Y-85207937D01*
X150589174Y-85207939D01*
X150474181Y-85296177D01*
X150474177Y-85296181D01*
X150385939Y-85411174D01*
X150385937Y-85411178D01*
X150330470Y-85545090D01*
X150330469Y-85545091D01*
X150311550Y-85688799D01*
X146420665Y-85688799D01*
X149204986Y-82904478D01*
X149259503Y-82876701D01*
X149274990Y-82875482D01*
X153014589Y-82875482D01*
X153072780Y-82894389D01*
X153084593Y-82904478D01*
X153585938Y-83405823D01*
X153613715Y-83460340D01*
X153614087Y-83488746D01*
X153613530Y-83492977D01*
X153613530Y-83492983D01*
X153632449Y-83636691D01*
X153632450Y-83636692D01*
X153687919Y-83770608D01*
X153776159Y-83885604D01*
X153891155Y-83973844D01*
X154025071Y-84029313D01*
X154168780Y-84048233D01*
X154312489Y-84029313D01*
X154446405Y-83973844D01*
X154561401Y-83885604D01*
X154649641Y-83770608D01*
X154705110Y-83636692D01*
X154724030Y-83492983D01*
X154705110Y-83349274D01*
X154649641Y-83215358D01*
X154561401Y-83100362D01*
X154446405Y-83012122D01*
X154446401Y-83012120D01*
X154312489Y-82956653D01*
X154312488Y-82956652D01*
X154168780Y-82937733D01*
X154168775Y-82937733D01*
X154164543Y-82938290D01*
X154104383Y-82927138D01*
X154081620Y-82910141D01*
X153795457Y-82623978D01*
X153696460Y-82524981D01*
X155391550Y-82524981D01*
X155391550Y-82524982D01*
X155410469Y-82668690D01*
X155410470Y-82668691D01*
X155465939Y-82802607D01*
X155554179Y-82917603D01*
X155669175Y-83005843D01*
X155803091Y-83061312D01*
X155946800Y-83080232D01*
X156090509Y-83061312D01*
X156224425Y-83005843D01*
X156339421Y-82917603D01*
X156427661Y-82802607D01*
X156483130Y-82668691D01*
X156502050Y-82524982D01*
X156483130Y-82381273D01*
X156427661Y-82247357D01*
X156339421Y-82132361D01*
X156224425Y-82044121D01*
X156224421Y-82044119D01*
X156090509Y-81988652D01*
X156090508Y-81988651D01*
X155946800Y-81969732D01*
X155803091Y-81988651D01*
X155803090Y-81988652D01*
X155669178Y-82044119D01*
X155669174Y-82044121D01*
X155554181Y-82132359D01*
X155554177Y-82132363D01*
X155465939Y-82247356D01*
X155465937Y-82247360D01*
X155410470Y-82381272D01*
X155410469Y-82381273D01*
X155391550Y-82524981D01*
X153696460Y-82524981D01*
X153415991Y-82244512D01*
X153413324Y-82242972D01*
X153411848Y-82241332D01*
X153410845Y-82240563D01*
X153410987Y-82240376D01*
X153372386Y-82197502D01*
X153365992Y-82136651D01*
X153377094Y-82107734D01*
X153379655Y-82103295D01*
X153379661Y-82103289D01*
X153435130Y-81969373D01*
X153454050Y-81825664D01*
X153450527Y-81798908D01*
X153435130Y-81681955D01*
X153379661Y-81548039D01*
X153349688Y-81508977D01*
X156769701Y-81508977D01*
X156769701Y-81508986D01*
X156788051Y-81695307D01*
X156788052Y-81695310D01*
X156788053Y-81695313D01*
X156837853Y-81859482D01*
X156842405Y-81874486D01*
X156842406Y-81874488D01*
X156930659Y-82039599D01*
X156930662Y-82039604D01*
X156930664Y-82039607D01*
X156957979Y-82072890D01*
X157049438Y-82184334D01*
X157049447Y-82184343D01*
X157116945Y-82239737D01*
X157194175Y-82303118D01*
X157194180Y-82303120D01*
X157194182Y-82303122D01*
X157359293Y-82391375D01*
X157359299Y-82391378D01*
X157538469Y-82445729D01*
X157538471Y-82445729D01*
X157538474Y-82445730D01*
X157724796Y-82464081D01*
X157724800Y-82464081D01*
X157724804Y-82464081D01*
X157911125Y-82445730D01*
X157911126Y-82445729D01*
X157911131Y-82445729D01*
X158090301Y-82391378D01*
X158255425Y-82303118D01*
X158400157Y-82184339D01*
X158518936Y-82039607D01*
X158607196Y-81874483D01*
X158661547Y-81695313D01*
X158676053Y-81548039D01*
X158679899Y-81508986D01*
X158679899Y-81508977D01*
X158661548Y-81322656D01*
X158661547Y-81322653D01*
X158661547Y-81322651D01*
X158607196Y-81143481D01*
X158593803Y-81118424D01*
X158518940Y-80978364D01*
X158518938Y-80978362D01*
X158518936Y-80978357D01*
X158423421Y-80861972D01*
X158400161Y-80833629D01*
X158400152Y-80833620D01*
X158315778Y-80764377D01*
X158255425Y-80714846D01*
X158255422Y-80714844D01*
X158255417Y-80714841D01*
X158090306Y-80626588D01*
X158090304Y-80626587D01*
X157911128Y-80572234D01*
X157911125Y-80572233D01*
X157724804Y-80553883D01*
X157724796Y-80553883D01*
X157538474Y-80572233D01*
X157538471Y-80572234D01*
X157359295Y-80626587D01*
X157359293Y-80626588D01*
X157194182Y-80714841D01*
X157194176Y-80714845D01*
X157049447Y-80833620D01*
X157049438Y-80833629D01*
X156930663Y-80978358D01*
X156930659Y-80978364D01*
X156842406Y-81143475D01*
X156842405Y-81143477D01*
X156788052Y-81322653D01*
X156788051Y-81322656D01*
X156769701Y-81508977D01*
X153349688Y-81508977D01*
X153291421Y-81433043D01*
X153176425Y-81344803D01*
X153176421Y-81344801D01*
X153042509Y-81289334D01*
X153042508Y-81289333D01*
X152898800Y-81270414D01*
X152755091Y-81289333D01*
X152755090Y-81289334D01*
X152621178Y-81344801D01*
X152621174Y-81344803D01*
X152506181Y-81433041D01*
X152506177Y-81433045D01*
X152417939Y-81548038D01*
X152417937Y-81548042D01*
X152362470Y-81681954D01*
X152362469Y-81681955D01*
X152343550Y-81825663D01*
X152343550Y-81825664D01*
X152362469Y-81969372D01*
X152362470Y-81969373D01*
X152390729Y-82037597D01*
X152395529Y-82098594D01*
X152363560Y-82150763D01*
X152307032Y-82174177D01*
X152299265Y-82174482D01*
X150627983Y-82174482D01*
X150569792Y-82155575D01*
X150533828Y-82106075D01*
X150533828Y-82044889D01*
X150549441Y-82015214D01*
X150569823Y-81988652D01*
X150612661Y-81932825D01*
X150668130Y-81798909D01*
X150687050Y-81655200D01*
X150668130Y-81511491D01*
X150612661Y-81377575D01*
X150524421Y-81262579D01*
X150409425Y-81174339D01*
X150409421Y-81174337D01*
X150275509Y-81118870D01*
X150275508Y-81118869D01*
X150131800Y-81099950D01*
X149988093Y-81118869D01*
X149988091Y-81118870D01*
X149928689Y-81143475D01*
X149926837Y-81144242D01*
X149865841Y-81149041D01*
X149813672Y-81117071D01*
X149790258Y-81060543D01*
X149790961Y-81038687D01*
X149797933Y-80990199D01*
X149797933Y-80990195D01*
X149779497Y-80861972D01*
X149725682Y-80744136D01*
X149725682Y-80744135D01*
X149640849Y-80646231D01*
X149640848Y-80646230D01*
X149640847Y-80646229D01*
X149531873Y-80576196D01*
X149531870Y-80576194D01*
X149531869Y-80576194D01*
X149518386Y-80572235D01*
X149407574Y-80539698D01*
X149407572Y-80539698D01*
X149278028Y-80539698D01*
X149278025Y-80539698D01*
X149153733Y-80576193D01*
X149153726Y-80576196D01*
X149044752Y-80646229D01*
X148959917Y-80744136D01*
X148906102Y-80861972D01*
X148887667Y-80990195D01*
X148887667Y-80990200D01*
X148906102Y-81118423D01*
X148920085Y-81149041D01*
X148959918Y-81236261D01*
X149034774Y-81322651D01*
X149044752Y-81334166D01*
X149112298Y-81377575D01*
X149153731Y-81404202D01*
X149278028Y-81440698D01*
X149278030Y-81440698D01*
X149407570Y-81440698D01*
X149407572Y-81440698D01*
X149466832Y-81423298D01*
X149527988Y-81425045D01*
X149576441Y-81462407D01*
X149593680Y-81521114D01*
X149592873Y-81531210D01*
X149576550Y-81655199D01*
X149576550Y-81655200D01*
X149595469Y-81798908D01*
X149595470Y-81798909D01*
X149626774Y-81874486D01*
X149650939Y-81932825D01*
X149678983Y-81969373D01*
X149714159Y-82015214D01*
X149734583Y-82072890D01*
X149717206Y-82131556D01*
X149668664Y-82168803D01*
X149635617Y-82174482D01*
X149042656Y-82174482D01*
X149014727Y-82181965D01*
X148958869Y-82196932D01*
X148953512Y-82198367D01*
X148953508Y-82198369D01*
X148873590Y-82244510D01*
X143474327Y-87643773D01*
X143449707Y-87686419D01*
X143449706Y-87686421D01*
X143428187Y-87723691D01*
X143428186Y-87723693D01*
X143428186Y-87723694D01*
X143412817Y-87781054D01*
X143404300Y-87812839D01*
X143404300Y-88401218D01*
X143385393Y-88459409D01*
X143365569Y-88479759D01*
X143362181Y-88482358D01*
X143273939Y-88597356D01*
X143273937Y-88597360D01*
X143218470Y-88731272D01*
X143218469Y-88731273D01*
X143199550Y-88874981D01*
X141334300Y-88874981D01*
X141334300Y-86620234D01*
X141343544Y-86591782D01*
X141342374Y-86587471D01*
X141523058Y-86587471D01*
X141531823Y-86610531D01*
X141548051Y-86775307D01*
X141548052Y-86775310D01*
X141602405Y-86954486D01*
X141602406Y-86954488D01*
X141690659Y-87119599D01*
X141690662Y-87119604D01*
X141690664Y-87119607D01*
X141740195Y-87179960D01*
X141809438Y-87264334D01*
X141809447Y-87264343D01*
X141876945Y-87319737D01*
X141954175Y-87383118D01*
X141954180Y-87383120D01*
X141954182Y-87383122D01*
X142119293Y-87471375D01*
X142119299Y-87471378D01*
X142298469Y-87525729D01*
X142298471Y-87525729D01*
X142298474Y-87525730D01*
X142484796Y-87544081D01*
X142484800Y-87544081D01*
X142484804Y-87544081D01*
X142671125Y-87525730D01*
X142671126Y-87525729D01*
X142671131Y-87525729D01*
X142850301Y-87471378D01*
X143015425Y-87383118D01*
X143160157Y-87264339D01*
X143278936Y-87119607D01*
X143367196Y-86954483D01*
X143421547Y-86775313D01*
X143439624Y-86591782D01*
X143439899Y-86588986D01*
X143439899Y-86588977D01*
X143421548Y-86402656D01*
X143421547Y-86402653D01*
X143421547Y-86402651D01*
X143367196Y-86223481D01*
X143367193Y-86223475D01*
X143278940Y-86058364D01*
X143278938Y-86058362D01*
X143278936Y-86058357D01*
X143203486Y-85966421D01*
X143160161Y-85913629D01*
X143160152Y-85913620D01*
X143061316Y-85832508D01*
X143015425Y-85794846D01*
X143015422Y-85794844D01*
X143015417Y-85794841D01*
X142850306Y-85706588D01*
X142850304Y-85706587D01*
X142791665Y-85688799D01*
X142671131Y-85652235D01*
X142671128Y-85652234D01*
X142671125Y-85652233D01*
X142484804Y-85633883D01*
X142484796Y-85633883D01*
X142298474Y-85652233D01*
X142298471Y-85652234D01*
X142119295Y-85706587D01*
X142119293Y-85706588D01*
X141954182Y-85794841D01*
X141954176Y-85794845D01*
X141809447Y-85913620D01*
X141809438Y-85913629D01*
X141690663Y-86058358D01*
X141690659Y-86058364D01*
X141602406Y-86223475D01*
X141602405Y-86223477D01*
X141548052Y-86402653D01*
X141548051Y-86402655D01*
X141531823Y-86567433D01*
X141523058Y-86587471D01*
X141342374Y-86587471D01*
X141334300Y-86557729D01*
X141334300Y-84080234D01*
X141343544Y-84051782D01*
X141334300Y-84017729D01*
X141334300Y-81540234D01*
X141343544Y-81511782D01*
X141334300Y-81477729D01*
X141334300Y-79000234D01*
X141343544Y-78971782D01*
X141342374Y-78967471D01*
X141523058Y-78967471D01*
X141531823Y-78990531D01*
X141548051Y-79155307D01*
X141548052Y-79155310D01*
X141602405Y-79334486D01*
X141602406Y-79334488D01*
X141690659Y-79499599D01*
X141690662Y-79499604D01*
X141690664Y-79499607D01*
X141740195Y-79559960D01*
X141809438Y-79644334D01*
X141809447Y-79644343D01*
X141876945Y-79699737D01*
X141954175Y-79763118D01*
X142119299Y-79851378D01*
X142298469Y-79905729D01*
X142298471Y-79905729D01*
X142298474Y-79905730D01*
X142484796Y-79924081D01*
X142484800Y-79924081D01*
X142484804Y-79924081D01*
X142671125Y-79905730D01*
X142671126Y-79905729D01*
X142671131Y-79905729D01*
X142850301Y-79851378D01*
X143015425Y-79763118D01*
X143160157Y-79644339D01*
X143278936Y-79499607D01*
X143367196Y-79334483D01*
X143421547Y-79155313D01*
X143429439Y-79075191D01*
X143439899Y-78968986D01*
X143439899Y-78968977D01*
X143421548Y-78782656D01*
X143421547Y-78782653D01*
X143421547Y-78782651D01*
X143367196Y-78603481D01*
X143351226Y-78573603D01*
X143278940Y-78438364D01*
X143278938Y-78438362D01*
X143278936Y-78438357D01*
X143170552Y-78306291D01*
X143160161Y-78293629D01*
X143160152Y-78293620D01*
X143061316Y-78212508D01*
X143015425Y-78174846D01*
X143015422Y-78174844D01*
X143015417Y-78174841D01*
X142850306Y-78086588D01*
X142850304Y-78086587D01*
X142791665Y-78068799D01*
X142671131Y-78032235D01*
X142671128Y-78032234D01*
X142671125Y-78032233D01*
X142484804Y-78013883D01*
X142484796Y-78013883D01*
X142298474Y-78032233D01*
X142298471Y-78032234D01*
X142119295Y-78086587D01*
X142119293Y-78086588D01*
X141954182Y-78174841D01*
X141954176Y-78174845D01*
X141809447Y-78293620D01*
X141809438Y-78293629D01*
X141690663Y-78438358D01*
X141690659Y-78438364D01*
X141602406Y-78603475D01*
X141602405Y-78603477D01*
X141548052Y-78782653D01*
X141548051Y-78782655D01*
X141531823Y-78947433D01*
X141523058Y-78967471D01*
X141342374Y-78967471D01*
X141334300Y-78937729D01*
X141334300Y-76460234D01*
X141343544Y-76431782D01*
X141342374Y-76427471D01*
X141523058Y-76427471D01*
X141531823Y-76450531D01*
X141548051Y-76615307D01*
X141548052Y-76615310D01*
X141602405Y-76794486D01*
X141602406Y-76794488D01*
X141690659Y-76959599D01*
X141690662Y-76959604D01*
X141690664Y-76959607D01*
X141705937Y-76978217D01*
X141809438Y-77104334D01*
X141809447Y-77104343D01*
X141857047Y-77143407D01*
X141954175Y-77223118D01*
X141954180Y-77223120D01*
X141954182Y-77223122D01*
X142119293Y-77311375D01*
X142119299Y-77311378D01*
X142298469Y-77365729D01*
X142298471Y-77365729D01*
X142298474Y-77365730D01*
X142484796Y-77384081D01*
X142484800Y-77384081D01*
X142484804Y-77384081D01*
X142671125Y-77365730D01*
X142671126Y-77365729D01*
X142671131Y-77365729D01*
X142850301Y-77311378D01*
X143015425Y-77223118D01*
X143160157Y-77104339D01*
X143278936Y-76959607D01*
X143367196Y-76794483D01*
X143421547Y-76615313D01*
X143423839Y-76592050D01*
X143439899Y-76428986D01*
X143439899Y-76428977D01*
X143421548Y-76242656D01*
X143421547Y-76242653D01*
X143421547Y-76242651D01*
X143367196Y-76063481D01*
X143278936Y-75898357D01*
X143215555Y-75821127D01*
X143160161Y-75753629D01*
X143160152Y-75753620D01*
X143027779Y-75644985D01*
X143015425Y-75634846D01*
X143015422Y-75634844D01*
X143015417Y-75634841D01*
X142850306Y-75546588D01*
X142850304Y-75546587D01*
X142671128Y-75492234D01*
X142671125Y-75492233D01*
X142484804Y-75473883D01*
X142484796Y-75473883D01*
X142298474Y-75492233D01*
X142298471Y-75492234D01*
X142119295Y-75546587D01*
X142119293Y-75546588D01*
X141954182Y-75634841D01*
X141954176Y-75634845D01*
X141809447Y-75753620D01*
X141809438Y-75753629D01*
X141690663Y-75898358D01*
X141690659Y-75898364D01*
X141602406Y-76063475D01*
X141602405Y-76063477D01*
X141548052Y-76242653D01*
X141548051Y-76242655D01*
X141531823Y-76407433D01*
X141523058Y-76427471D01*
X141342374Y-76427471D01*
X141334300Y-76397729D01*
X141334300Y-73920234D01*
X141343544Y-73891782D01*
X141342374Y-73887471D01*
X141523058Y-73887471D01*
X141531823Y-73910531D01*
X141548051Y-74075307D01*
X141548052Y-74075310D01*
X141602405Y-74254486D01*
X141602406Y-74254488D01*
X141690659Y-74419599D01*
X141690662Y-74419604D01*
X141690664Y-74419607D01*
X141714147Y-74448221D01*
X141809438Y-74564334D01*
X141809447Y-74564343D01*
X141876945Y-74619737D01*
X141954175Y-74683118D01*
X142119299Y-74771378D01*
X142298469Y-74825729D01*
X142298471Y-74825729D01*
X142298474Y-74825730D01*
X142484796Y-74844081D01*
X142484800Y-74844081D01*
X142484804Y-74844081D01*
X142671125Y-74825730D01*
X142671126Y-74825729D01*
X142671131Y-74825729D01*
X142850301Y-74771378D01*
X143015425Y-74683118D01*
X143160157Y-74564339D01*
X143278936Y-74419607D01*
X143367196Y-74254483D01*
X143421547Y-74075313D01*
X143421547Y-74075309D01*
X143421548Y-74075308D01*
X143439268Y-73895396D01*
X143463788Y-73839339D01*
X143516574Y-73808400D01*
X143537791Y-73806100D01*
X145377810Y-73806100D01*
X145436001Y-73825007D01*
X145471965Y-73874507D01*
X145471965Y-73935693D01*
X145447814Y-73975104D01*
X144642726Y-74780192D01*
X144599192Y-74855594D01*
X144599193Y-74855595D01*
X144596586Y-74860110D01*
X144596584Y-74860115D01*
X144572700Y-74949256D01*
X144572700Y-79900391D01*
X144553793Y-79958582D01*
X144543704Y-79970395D01*
X143462777Y-81051321D01*
X143408260Y-81079098D01*
X143347828Y-81069527D01*
X143305463Y-81027985D01*
X143278940Y-80978364D01*
X143278938Y-80978362D01*
X143278936Y-80978357D01*
X143183421Y-80861972D01*
X143160161Y-80833629D01*
X143160152Y-80833620D01*
X143075778Y-80764377D01*
X143015425Y-80714846D01*
X143015422Y-80714844D01*
X143015417Y-80714841D01*
X142850306Y-80626588D01*
X142850304Y-80626587D01*
X142671128Y-80572234D01*
X142671125Y-80572233D01*
X142484804Y-80553883D01*
X142484796Y-80553883D01*
X142298474Y-80572233D01*
X142298471Y-80572234D01*
X142119295Y-80626587D01*
X142119293Y-80626588D01*
X141954182Y-80714841D01*
X141954176Y-80714845D01*
X141809447Y-80833620D01*
X141809438Y-80833629D01*
X141690663Y-80978358D01*
X141690659Y-80978364D01*
X141602406Y-81143475D01*
X141602405Y-81143477D01*
X141548052Y-81322653D01*
X141548051Y-81322655D01*
X141531823Y-81487433D01*
X141523058Y-81507471D01*
X141531823Y-81530531D01*
X141548051Y-81695307D01*
X141548052Y-81695310D01*
X141548053Y-81695313D01*
X141597853Y-81859482D01*
X141602405Y-81874486D01*
X141602406Y-81874488D01*
X141690659Y-82039599D01*
X141690662Y-82039604D01*
X141690664Y-82039607D01*
X141717979Y-82072890D01*
X141809438Y-82184334D01*
X141809447Y-82184343D01*
X141876945Y-82239737D01*
X141954175Y-82303118D01*
X141954180Y-82303120D01*
X141954182Y-82303122D01*
X142119293Y-82391375D01*
X142119299Y-82391378D01*
X142298469Y-82445729D01*
X142298471Y-82445729D01*
X142298474Y-82445730D01*
X142484796Y-82464081D01*
X142484800Y-82464081D01*
X142484803Y-82464081D01*
X142572412Y-82455452D01*
X142632176Y-82468564D01*
X142672818Y-82514301D01*
X142678816Y-82575191D01*
X142652120Y-82623978D01*
X142204329Y-83071770D01*
X142204328Y-83071772D01*
X142180969Y-83112233D01*
X142180964Y-83112242D01*
X142175575Y-83121574D01*
X142130101Y-83162511D01*
X142120506Y-83166086D01*
X142119289Y-83166590D01*
X141954182Y-83254841D01*
X141954176Y-83254845D01*
X141809447Y-83373620D01*
X141809438Y-83373629D01*
X141690663Y-83518358D01*
X141690659Y-83518364D01*
X141602406Y-83683475D01*
X141602405Y-83683477D01*
X141548052Y-83862653D01*
X141548051Y-83862655D01*
X141531823Y-84027433D01*
X141523058Y-84047471D01*
X141531823Y-84070531D01*
X141548051Y-84235307D01*
X141548052Y-84235310D01*
X141602405Y-84414486D01*
X141602406Y-84414488D01*
X141690659Y-84579599D01*
X141690662Y-84579604D01*
X141690664Y-84579607D01*
X141740195Y-84639960D01*
X141809438Y-84724334D01*
X141809447Y-84724343D01*
X141864352Y-84769402D01*
X141954175Y-84843118D01*
X141954180Y-84843120D01*
X141954182Y-84843122D01*
X142100399Y-84921276D01*
X142119299Y-84931378D01*
X142298469Y-84985729D01*
X142298471Y-84985729D01*
X142298474Y-84985730D01*
X142484796Y-85004081D01*
X142484800Y-85004081D01*
X142484804Y-85004081D01*
X142671125Y-84985730D01*
X142671126Y-84985729D01*
X142671131Y-84985729D01*
X142850301Y-84931378D01*
X143015425Y-84843118D01*
X143160157Y-84724339D01*
X143278936Y-84579607D01*
X143367196Y-84414483D01*
X143421547Y-84235313D01*
X143427335Y-84176555D01*
X143439899Y-84048986D01*
X143439899Y-84048977D01*
X143421548Y-83862656D01*
X143421547Y-83862653D01*
X143421547Y-83862651D01*
X143367196Y-83683481D01*
X143342187Y-83636692D01*
X143278940Y-83518364D01*
X143278938Y-83518362D01*
X143278936Y-83518357D01*
X143214913Y-83440345D01*
X143160161Y-83373629D01*
X143160148Y-83373616D01*
X143098319Y-83322875D01*
X143065331Y-83271344D01*
X143068932Y-83210265D01*
X143091117Y-83176345D01*
X145848269Y-80419194D01*
X145880632Y-80363139D01*
X145926100Y-80322201D01*
X145986950Y-80315805D01*
X146015868Y-80326906D01*
X146017171Y-80327658D01*
X146017175Y-80327661D01*
X146151091Y-80383130D01*
X146294800Y-80402050D01*
X146438509Y-80383130D01*
X146572425Y-80327661D01*
X146687421Y-80239421D01*
X146775661Y-80124425D01*
X146831130Y-79990509D01*
X146850050Y-79846800D01*
X146831130Y-79703091D01*
X146775661Y-79569175D01*
X146687421Y-79454179D01*
X146572425Y-79365939D01*
X146572421Y-79365937D01*
X146438509Y-79310470D01*
X146438508Y-79310469D01*
X146294800Y-79291550D01*
X146151093Y-79310469D01*
X146055184Y-79350195D01*
X145994187Y-79354994D01*
X145942019Y-79323024D01*
X145918605Y-79266496D01*
X145918300Y-79258730D01*
X145918300Y-76036799D01*
X146352350Y-76036799D01*
X146352350Y-76036800D01*
X146371269Y-76180508D01*
X146371270Y-76180509D01*
X146397010Y-76242653D01*
X146426739Y-76314425D01*
X146514979Y-76429421D01*
X146629975Y-76517661D01*
X146763891Y-76573130D01*
X146907600Y-76592050D01*
X147051309Y-76573130D01*
X147185225Y-76517661D01*
X147300221Y-76429421D01*
X147388461Y-76314425D01*
X147443930Y-76180509D01*
X147462850Y-76036800D01*
X147443930Y-75893091D01*
X147388461Y-75759175D01*
X147300221Y-75644179D01*
X147185225Y-75555939D01*
X147185221Y-75555937D01*
X147051309Y-75500470D01*
X147051308Y-75500469D01*
X146907600Y-75481550D01*
X146763891Y-75500469D01*
X146763890Y-75500470D01*
X146629978Y-75555937D01*
X146629974Y-75555939D01*
X146514981Y-75644177D01*
X146514977Y-75644181D01*
X146426739Y-75759174D01*
X146426737Y-75759178D01*
X146371270Y-75893090D01*
X146371269Y-75893091D01*
X146352350Y-76036799D01*
X145918300Y-76036799D01*
X145918300Y-75425990D01*
X145937207Y-75367799D01*
X145947296Y-75355986D01*
X146068183Y-75235099D01*
X146122700Y-75207322D01*
X146138187Y-75206103D01*
X147497436Y-75206103D01*
X147555627Y-75225010D01*
X147575977Y-75244834D01*
X147578576Y-75248221D01*
X147578577Y-75248222D01*
X147578579Y-75248224D01*
X147693575Y-75336464D01*
X147789315Y-75376120D01*
X147835841Y-75415856D01*
X147850125Y-75475351D01*
X147849583Y-75480506D01*
X147849300Y-75482655D01*
X147849300Y-76343821D01*
X147830393Y-76402012D01*
X147780893Y-76437976D01*
X147765392Y-76441484D01*
X147763890Y-76441887D01*
X147629978Y-76497354D01*
X147629974Y-76497356D01*
X147514981Y-76585594D01*
X147514977Y-76585598D01*
X147426739Y-76700591D01*
X147426737Y-76700595D01*
X147371270Y-76834507D01*
X147371269Y-76834508D01*
X147352350Y-76978216D01*
X147352350Y-76978217D01*
X147371269Y-77121925D01*
X147371270Y-77121926D01*
X147408407Y-77211585D01*
X147413207Y-77272582D01*
X147381238Y-77324751D01*
X147377211Y-77328011D01*
X147273785Y-77407373D01*
X147273773Y-77407385D01*
X147193530Y-77511958D01*
X147143105Y-77546614D01*
X147081941Y-77545011D01*
X147077105Y-77543155D01*
X147051309Y-77532470D01*
X147051306Y-77532469D01*
X147051308Y-77532469D01*
X146907600Y-77513550D01*
X146763891Y-77532469D01*
X146763890Y-77532470D01*
X146629978Y-77587937D01*
X146629974Y-77587939D01*
X146514981Y-77676177D01*
X146514977Y-77676181D01*
X146426739Y-77791174D01*
X146426737Y-77791178D01*
X146371270Y-77925090D01*
X146371269Y-77925091D01*
X146352350Y-78068799D01*
X146352350Y-78068800D01*
X146371269Y-78212508D01*
X146371270Y-78212509D01*
X146404870Y-78293629D01*
X146426739Y-78346425D01*
X146514979Y-78461421D01*
X146629975Y-78549661D01*
X146763891Y-78605130D01*
X146907599Y-78624050D01*
X146907599Y-78624049D01*
X146907600Y-78624050D01*
X147051309Y-78605130D01*
X147051309Y-78605129D01*
X147055167Y-78604622D01*
X147115327Y-78615772D01*
X147157445Y-78660154D01*
X147159553Y-78664889D01*
X147185538Y-78727624D01*
X147185539Y-78727625D01*
X147273779Y-78842621D01*
X147388775Y-78930861D01*
X147522691Y-78986330D01*
X147666400Y-79005250D01*
X147810109Y-78986330D01*
X147944025Y-78930861D01*
X148059021Y-78842621D01*
X148147261Y-78727625D01*
X148202730Y-78593709D01*
X148221650Y-78450000D01*
X148202730Y-78306291D01*
X148148284Y-78174845D01*
X148144778Y-78166380D01*
X148146601Y-78165624D01*
X148135766Y-78114655D01*
X148145722Y-78084011D01*
X148144778Y-78083620D01*
X148166062Y-78032234D01*
X148202730Y-77943709D01*
X148221650Y-77800000D01*
X148202730Y-77656291D01*
X148165591Y-77566630D01*
X148160792Y-77505634D01*
X148192761Y-77453465D01*
X148196775Y-77450215D01*
X148300221Y-77370838D01*
X148388461Y-77255842D01*
X148443930Y-77121926D01*
X148462850Y-76978217D01*
X148462102Y-76972538D01*
X148473250Y-76912379D01*
X148478485Y-76904320D01*
X148480270Y-76901229D01*
X148526414Y-76821305D01*
X148542035Y-76763005D01*
X148550300Y-76732161D01*
X148550300Y-75714989D01*
X148569207Y-75656798D01*
X148579290Y-75644991D01*
X148851670Y-75372612D01*
X148897814Y-75292688D01*
X148903935Y-75269845D01*
X148909729Y-75248223D01*
X148915948Y-75225010D01*
X148921700Y-75203544D01*
X148921700Y-73760927D01*
X148897814Y-73671783D01*
X148885300Y-73650108D01*
X148885299Y-73650106D01*
X148885299Y-73650105D01*
X148866497Y-73617541D01*
X148851670Y-73591859D01*
X148434941Y-73175130D01*
X148355017Y-73128986D01*
X148265873Y-73105100D01*
X148265871Y-73105100D01*
X145705688Y-73105100D01*
X145647497Y-73086193D01*
X145611533Y-73036693D01*
X145611533Y-72975507D01*
X145647497Y-72926007D01*
X145686374Y-72909002D01*
X145709015Y-72904497D01*
X145833497Y-72879737D01*
X145979179Y-72819394D01*
X146110289Y-72731789D01*
X146221789Y-72620289D01*
X146309394Y-72489179D01*
X146369737Y-72343497D01*
X146400500Y-72188842D01*
X146400500Y-71431158D01*
X146400499Y-71431155D01*
X153439500Y-71431155D01*
X153439500Y-72188844D01*
X153470263Y-72343496D01*
X153470263Y-72343498D01*
X153530603Y-72489174D01*
X153530609Y-72489185D01*
X153583312Y-72568059D01*
X153618211Y-72620289D01*
X153729711Y-72731789D01*
X153807876Y-72784017D01*
X153860814Y-72819390D01*
X153860825Y-72819396D01*
X153914638Y-72841685D01*
X154006503Y-72879737D01*
X154161158Y-72910500D01*
X154161159Y-72910500D01*
X154318841Y-72910500D01*
X154318842Y-72910500D01*
X154473497Y-72879737D01*
X154619179Y-72819394D01*
X154750289Y-72731789D01*
X154861789Y-72620289D01*
X154949394Y-72489179D01*
X154958835Y-72466383D01*
X154998571Y-72419858D01*
X155058066Y-72405574D01*
X155114594Y-72428988D01*
X155146564Y-72481156D01*
X155149300Y-72504269D01*
X155149300Y-78906125D01*
X155170790Y-78986329D01*
X155173185Y-78995269D01*
X155173187Y-78995273D01*
X155219328Y-79075191D01*
X155219330Y-79075194D01*
X156046588Y-79902452D01*
X156126512Y-79948596D01*
X156215656Y-79972482D01*
X156215657Y-79972482D01*
X156215658Y-79972482D01*
X157323942Y-79972482D01*
X157323944Y-79972482D01*
X157413088Y-79948596D01*
X157468170Y-79916794D01*
X157528015Y-79904073D01*
X157536988Y-79905434D01*
X157538459Y-79905726D01*
X157538469Y-79905729D01*
X157538478Y-79905729D01*
X157538479Y-79905730D01*
X157724796Y-79924081D01*
X157724800Y-79924081D01*
X157724804Y-79924081D01*
X157911125Y-79905730D01*
X157911126Y-79905729D01*
X157911131Y-79905729D01*
X158090301Y-79851378D01*
X158255425Y-79763118D01*
X158400157Y-79644339D01*
X158518936Y-79499607D01*
X158607196Y-79334483D01*
X158661547Y-79155313D01*
X158669439Y-79075191D01*
X158679893Y-78969042D01*
X158679923Y-78968972D01*
X158679889Y-78968882D01*
X158679808Y-78968064D01*
X158667454Y-78842621D01*
X158661548Y-78782656D01*
X158661547Y-78782653D01*
X158661547Y-78782651D01*
X158607196Y-78603481D01*
X158591226Y-78573603D01*
X158518940Y-78438364D01*
X158518938Y-78438362D01*
X158518936Y-78438357D01*
X158410552Y-78306291D01*
X158400161Y-78293629D01*
X158400152Y-78293620D01*
X158301316Y-78212508D01*
X158255425Y-78174846D01*
X158255422Y-78174844D01*
X158255417Y-78174841D01*
X158090306Y-78086588D01*
X158090304Y-78086587D01*
X158031665Y-78068799D01*
X157911131Y-78032235D01*
X157911128Y-78032234D01*
X157911125Y-78032233D01*
X157724804Y-78013883D01*
X157724796Y-78013883D01*
X157538474Y-78032233D01*
X157538471Y-78032234D01*
X157359295Y-78086587D01*
X157359293Y-78086588D01*
X157194182Y-78174841D01*
X157194176Y-78174845D01*
X157049447Y-78293620D01*
X157049438Y-78293629D01*
X156930663Y-78438358D01*
X156930659Y-78438364D01*
X156842406Y-78603475D01*
X156842405Y-78603477D01*
X156788052Y-78782653D01*
X156788051Y-78782656D01*
X156769701Y-78968977D01*
X156769701Y-78968986D01*
X156788529Y-79160154D01*
X156786779Y-79160326D01*
X156780432Y-79213934D01*
X156738897Y-79258862D01*
X156690528Y-79271482D01*
X156447990Y-79271482D01*
X156389799Y-79252575D01*
X156377986Y-79242486D01*
X155879296Y-78743796D01*
X155851519Y-78689279D01*
X155850300Y-78673792D01*
X155850300Y-73888977D01*
X156769701Y-73888977D01*
X156769701Y-73888986D01*
X156788051Y-74075307D01*
X156788052Y-74075310D01*
X156842405Y-74254486D01*
X156842406Y-74254488D01*
X156930659Y-74419599D01*
X156930662Y-74419604D01*
X156930664Y-74419607D01*
X156954147Y-74448221D01*
X157049438Y-74564334D01*
X157049447Y-74564343D01*
X157116945Y-74619737D01*
X157194175Y-74683118D01*
X157359299Y-74771378D01*
X157538469Y-74825729D01*
X157538471Y-74825729D01*
X157538474Y-74825730D01*
X157724796Y-74844081D01*
X157724800Y-74844081D01*
X157724804Y-74844081D01*
X157911125Y-74825730D01*
X157911126Y-74825729D01*
X157911131Y-74825729D01*
X158090301Y-74771378D01*
X158255425Y-74683118D01*
X158400157Y-74564339D01*
X158518936Y-74419607D01*
X158607196Y-74254483D01*
X158661547Y-74075313D01*
X158661547Y-74075308D01*
X158661548Y-74075307D01*
X158676821Y-73920234D01*
X158678905Y-73899071D01*
X158683021Y-73889660D01*
X158678897Y-73878813D01*
X158677776Y-73867433D01*
X158667287Y-73760927D01*
X158661548Y-73702656D01*
X158661547Y-73702653D01*
X158661547Y-73702651D01*
X158607196Y-73523481D01*
X158518936Y-73358357D01*
X158455555Y-73281127D01*
X158400161Y-73213629D01*
X158400152Y-73213620D01*
X158315778Y-73144377D01*
X158255425Y-73094846D01*
X158255422Y-73094844D01*
X158255417Y-73094841D01*
X158090306Y-73006588D01*
X158090304Y-73006587D01*
X157911128Y-72952234D01*
X157911125Y-72952233D01*
X157724804Y-72933883D01*
X157724796Y-72933883D01*
X157538474Y-72952233D01*
X157538471Y-72952234D01*
X157359295Y-73006587D01*
X157359293Y-73006588D01*
X157194182Y-73094841D01*
X157194176Y-73094845D01*
X157049447Y-73213620D01*
X157049438Y-73213629D01*
X156930663Y-73358358D01*
X156930659Y-73358364D01*
X156842406Y-73523475D01*
X156842405Y-73523477D01*
X156788052Y-73702653D01*
X156788051Y-73702656D01*
X156769701Y-73888977D01*
X155850300Y-73888977D01*
X155850300Y-70738666D01*
X155869207Y-70680475D01*
X155889033Y-70660124D01*
X155922843Y-70634181D01*
X155930418Y-70624309D01*
X156774300Y-70624309D01*
X156774300Y-72073654D01*
X156774301Y-72073666D01*
X156788833Y-72146718D01*
X156788835Y-72146724D01*
X156844197Y-72229581D01*
X156844199Y-72229583D01*
X156927060Y-72284948D01*
X156982608Y-72295997D01*
X157000115Y-72299480D01*
X157000120Y-72299480D01*
X157000126Y-72299482D01*
X157000127Y-72299482D01*
X158449473Y-72299482D01*
X158449474Y-72299482D01*
X158522540Y-72284948D01*
X158605401Y-72229583D01*
X158660766Y-72146722D01*
X158675300Y-72073656D01*
X158675300Y-70624308D01*
X158660766Y-70551242D01*
X158605401Y-70468381D01*
X158605399Y-70468379D01*
X158522542Y-70413017D01*
X158522540Y-70413016D01*
X158522537Y-70413015D01*
X158522536Y-70413015D01*
X158449484Y-70398483D01*
X158449474Y-70398482D01*
X157000126Y-70398482D01*
X157000125Y-70398482D01*
X157000115Y-70398483D01*
X156927063Y-70413015D01*
X156927057Y-70413017D01*
X156844200Y-70468379D01*
X156844197Y-70468382D01*
X156788835Y-70551239D01*
X156788833Y-70551245D01*
X156774301Y-70624297D01*
X156774300Y-70624309D01*
X155930418Y-70624309D01*
X156011083Y-70519185D01*
X156066552Y-70385269D01*
X156085472Y-70241560D01*
X156066552Y-70097851D01*
X156011083Y-69963935D01*
X155922843Y-69848939D01*
X155807847Y-69760699D01*
X155807843Y-69760697D01*
X155673931Y-69705230D01*
X155673930Y-69705229D01*
X155530222Y-69686310D01*
X155386513Y-69705229D01*
X155386512Y-69705230D01*
X155252600Y-69760697D01*
X155252596Y-69760699D01*
X155137603Y-69848937D01*
X155137599Y-69848941D01*
X155049361Y-69963934D01*
X155049359Y-69963938D01*
X154993892Y-70097850D01*
X154993891Y-70097851D01*
X154974972Y-70241559D01*
X154974972Y-70241560D01*
X154993891Y-70385268D01*
X154993892Y-70385269D01*
X155028317Y-70468381D01*
X155049361Y-70519185D01*
X155128842Y-70622767D01*
X155149266Y-70680441D01*
X155149300Y-70683033D01*
X155149300Y-71115730D01*
X155130393Y-71173921D01*
X155080893Y-71209885D01*
X155019707Y-71209885D01*
X154970207Y-71173921D01*
X154958836Y-71153615D01*
X154949396Y-71130825D01*
X154949390Y-71130814D01*
X154914017Y-71077876D01*
X154861789Y-70999711D01*
X154750289Y-70888211D01*
X154698059Y-70853312D01*
X154619185Y-70800609D01*
X154619174Y-70800603D01*
X154473497Y-70740263D01*
X154318844Y-70709500D01*
X154318842Y-70709500D01*
X154161158Y-70709500D01*
X154161155Y-70709500D01*
X154006503Y-70740263D01*
X154006501Y-70740263D01*
X153860825Y-70800603D01*
X153860814Y-70800609D01*
X153729711Y-70888211D01*
X153729707Y-70888214D01*
X153618214Y-70999707D01*
X153618211Y-70999711D01*
X153530609Y-71130814D01*
X153530603Y-71130825D01*
X153470263Y-71276501D01*
X153470263Y-71276503D01*
X153439500Y-71431155D01*
X146400499Y-71431155D01*
X146369737Y-71276503D01*
X146342143Y-71209885D01*
X146309396Y-71130825D01*
X146309390Y-71130814D01*
X146274017Y-71077876D01*
X146221789Y-70999711D01*
X146110289Y-70888211D01*
X146058059Y-70853312D01*
X145979185Y-70800609D01*
X145979174Y-70800603D01*
X145833497Y-70740263D01*
X145678844Y-70709500D01*
X145678842Y-70709500D01*
X145521158Y-70709500D01*
X145521155Y-70709500D01*
X145366503Y-70740263D01*
X145366501Y-70740263D01*
X145220825Y-70800603D01*
X145220814Y-70800609D01*
X145089711Y-70888211D01*
X145089707Y-70888214D01*
X144978214Y-70999707D01*
X144978211Y-70999711D01*
X144890609Y-71130814D01*
X144890603Y-71130825D01*
X144830263Y-71276501D01*
X144830263Y-71276503D01*
X144799500Y-71431155D01*
X144799500Y-72188844D01*
X144830263Y-72343496D01*
X144830263Y-72343498D01*
X144890603Y-72489174D01*
X144890609Y-72489185D01*
X144943312Y-72568059D01*
X144978211Y-72620289D01*
X145089711Y-72731789D01*
X145167876Y-72784017D01*
X145220814Y-72819390D01*
X145220825Y-72819396D01*
X145274638Y-72841685D01*
X145366503Y-72879737D01*
X145482145Y-72902739D01*
X145513626Y-72909002D01*
X145567010Y-72938899D01*
X145592626Y-72994464D01*
X145580689Y-73054474D01*
X145535759Y-73096006D01*
X145494312Y-73105100D01*
X143059407Y-73105100D01*
X143012739Y-73093410D01*
X142850306Y-73006588D01*
X142850304Y-73006587D01*
X142671128Y-72952234D01*
X142671125Y-72952233D01*
X142484804Y-72933883D01*
X142484796Y-72933883D01*
X142298474Y-72952233D01*
X142298471Y-72952234D01*
X142119295Y-73006587D01*
X142119293Y-73006588D01*
X141954182Y-73094841D01*
X141954176Y-73094845D01*
X141809447Y-73213620D01*
X141809438Y-73213629D01*
X141690663Y-73358358D01*
X141690659Y-73358364D01*
X141602406Y-73523475D01*
X141602405Y-73523477D01*
X141548052Y-73702653D01*
X141548051Y-73702655D01*
X141531823Y-73867433D01*
X141523058Y-73887471D01*
X141342374Y-73887471D01*
X141334300Y-73857729D01*
X141334300Y-70624309D01*
X141534300Y-70624309D01*
X141534300Y-72073654D01*
X141534301Y-72073666D01*
X141548833Y-72146718D01*
X141548835Y-72146724D01*
X141604197Y-72229581D01*
X141604199Y-72229583D01*
X141687060Y-72284948D01*
X141742608Y-72295997D01*
X141760115Y-72299480D01*
X141760120Y-72299480D01*
X141760126Y-72299482D01*
X141760127Y-72299482D01*
X143209473Y-72299482D01*
X143209474Y-72299482D01*
X143282540Y-72284948D01*
X143365401Y-72229583D01*
X143420766Y-72146722D01*
X143435300Y-72073656D01*
X143435300Y-70624308D01*
X143420766Y-70551242D01*
X143365401Y-70468381D01*
X143365399Y-70468379D01*
X143282542Y-70413017D01*
X143282540Y-70413016D01*
X143282537Y-70413015D01*
X143282536Y-70413015D01*
X143209484Y-70398483D01*
X143209474Y-70398482D01*
X141760126Y-70398482D01*
X141760125Y-70398482D01*
X141760115Y-70398483D01*
X141687063Y-70413015D01*
X141687057Y-70413017D01*
X141604200Y-70468379D01*
X141604197Y-70468382D01*
X141548835Y-70551239D01*
X141548833Y-70551245D01*
X141534301Y-70624297D01*
X141534300Y-70624309D01*
X141334300Y-70624309D01*
X141334300Y-68174504D01*
X141334301Y-68174501D01*
X141334300Y-68112926D01*
X141334677Y-68104299D01*
X141340064Y-68042721D01*
X141349094Y-67939510D01*
X141352086Y-67922535D01*
X141393783Y-67766921D01*
X141399676Y-67750729D01*
X141467761Y-67604727D01*
X141476386Y-67589791D01*
X141476405Y-67589764D01*
X141568781Y-67457842D01*
X141579864Y-67444633D01*
X141693782Y-67330723D01*
X141706981Y-67319648D01*
X141838945Y-67227253D01*
X141853883Y-67218630D01*
X141999875Y-67150560D01*
X142016083Y-67144661D01*
X142171687Y-67102977D01*
X142188662Y-67099984D01*
X142354472Y-67085488D01*
X142363070Y-67085113D01*
X142423659Y-67085118D01*
X142423664Y-67085116D01*
X142429991Y-67085117D01*
X142430070Y-67085113D01*
X144862885Y-67085113D01*
X144921076Y-67104020D01*
G37*
%TD.AperFunction*%
%TD*%
M02*
