%TF.GenerationSoftware,KiCad,Pcbnew,8.0.8*%
%TF.CreationDate,2025-03-31T18:12:56-07:00*%
%TF.ProjectId,stoplight,73746f70-6c69-4676-9874-2e6b69636164,0.1*%
%TF.SameCoordinates,Original*%
%TF.FileFunction,Copper,L3,Inr*%
%TF.FilePolarity,Positive*%
%FSLAX46Y46*%
G04 Gerber Fmt 4.6, Leading zero omitted, Abs format (unit mm)*
G04 Created by KiCad (PCBNEW 8.0.8) date 2025-03-31 18:12:56*
%MOMM*%
%LPD*%
G01*
G04 APERTURE LIST*
G04 Aperture macros list*
%AMRoundRect*
0 Rectangle with rounded corners*
0 $1 Rounding radius*
0 $2 $3 $4 $5 $6 $7 $8 $9 X,Y pos of 4 corners*
0 Add a 4 corners polygon primitive as box body*
4,1,4,$2,$3,$4,$5,$6,$7,$8,$9,$2,$3,0*
0 Add four circle primitives for the rounded corners*
1,1,$1+$1,$2,$3*
1,1,$1+$1,$4,$5*
1,1,$1+$1,$6,$7*
1,1,$1+$1,$8,$9*
0 Add four rect primitives between the rounded corners*
20,1,$1+$1,$2,$3,$4,$5,0*
20,1,$1+$1,$4,$5,$6,$7,0*
20,1,$1+$1,$6,$7,$8,$9,0*
20,1,$1+$1,$8,$9,$2,$3,0*%
G04 Aperture macros list end*
%TA.AperFunction,ComponentPad*%
%ADD10RoundRect,0.250000X0.600000X0.725000X-0.600000X0.725000X-0.600000X-0.725000X0.600000X-0.725000X0*%
%TD*%
%TA.AperFunction,ComponentPad*%
%ADD11O,1.700000X1.950000*%
%TD*%
%TA.AperFunction,ComponentPad*%
%ADD12R,1.400000X1.400000*%
%TD*%
%TA.AperFunction,ComponentPad*%
%ADD13C,1.400000*%
%TD*%
%TA.AperFunction,ComponentPad*%
%ADD14O,1.100000X1.700000*%
%TD*%
%TA.AperFunction,ViaPad*%
%ADD15C,0.600000*%
%TD*%
%TA.AperFunction,ViaPad*%
%ADD16C,0.500000*%
%TD*%
%TA.AperFunction,Conductor*%
%ADD17C,0.200000*%
%TD*%
G04 APERTURE END LIST*
D10*
%TO.N,/A2*%
%TO.C,J1*%
X154000000Y-94300000D03*
D11*
%TO.N,/A1*%
X151500000Y-94300000D03*
%TO.N,/B1*%
X149000000Y-94300000D03*
%TO.N,/B2*%
X146500000Y-94300000D03*
%TD*%
D12*
%TO.N,/LED*%
%TO.C,H1*%
X142484800Y-71348982D03*
D13*
%TO.N,/INDEX*%
X142484800Y-73888982D03*
%TO.N,/DIAG*%
X142484800Y-76428982D03*
%TO.N,unconnected-(H1-Pad4)*%
X142484800Y-78968982D03*
%TO.N,/SDA*%
X142484800Y-81508982D03*
%TO.N,/SCL*%
X142484800Y-84048982D03*
%TO.N,Net-(H1-Pad7)*%
X142484800Y-86588982D03*
%TD*%
D12*
%TO.N,+5V*%
%TO.C,H2*%
X157724800Y-71348982D03*
D13*
%TO.N,GND*%
X157724800Y-73888982D03*
%TO.N,+3V3*%
X157724800Y-76428982D03*
%TO.N,/1-WIRE*%
X157724800Y-78968982D03*
%TO.N,/TACH*%
X157724800Y-81508982D03*
%TO.N,/PWM*%
X157724800Y-84048982D03*
%TO.N,/UART*%
X157724800Y-86588982D03*
%TD*%
D14*
%TO.N,GND*%
%TO.C,USB1*%
X154240000Y-71810000D03*
X154240000Y-68000000D03*
X145600000Y-71810000D03*
X145600000Y-68000000D03*
%TD*%
D15*
%TO.N,+3V3*%
X157400000Y-89400000D03*
X156000000Y-89400000D03*
X144771624Y-82417200D03*
X145659800Y-69813800D03*
X156708800Y-89400000D03*
X154988869Y-85906075D03*
X156000000Y-90100000D03*
X157400000Y-88700000D03*
X156010000Y-88701200D03*
X158500000Y-69400000D03*
X156708800Y-90101200D03*
X157400000Y-90100000D03*
X156708800Y-88701200D03*
%TO.N,VM*%
X153242473Y-89904461D03*
X156800000Y-94900000D03*
X147234613Y-76040153D03*
X155946800Y-82524982D03*
X146625617Y-76040153D03*
X146907600Y-78068800D03*
X144100000Y-94600000D03*
X146294800Y-79846800D03*
X147666400Y-77800000D03*
X152760639Y-81924982D03*
X152800000Y-81150000D03*
X147100000Y-89900000D03*
X147666400Y-78450000D03*
%TO.N,/SCL*%
X147971200Y-74855603D03*
%TO.N,/INDEX*%
X148200000Y-76900000D03*
D16*
%TO.N,/DIAG*%
X146158325Y-78101838D03*
D15*
%TO.N,/SDA*%
X147971200Y-74055600D03*
%TO.N,/1-WIRE*%
X155530222Y-70241560D03*
%TO.N,/UART*%
X154168780Y-83492983D03*
X143754800Y-88874982D03*
%TO.N,/A2*%
X154300000Y-89900000D03*
%TO.N,/B2*%
X146100000Y-89900000D03*
%TO.N,GND*%
X151628800Y-85688800D03*
X150200000Y-92400000D03*
X151613725Y-84454177D03*
X152700000Y-93300000D03*
X147700000Y-93300000D03*
X148850000Y-84350000D03*
X149550000Y-84350000D03*
X151628800Y-85064982D03*
%TD*%
D17*
%TO.N,/SCL*%
X145600000Y-80171782D02*
X142484800Y-83286982D01*
X146109847Y-75040153D02*
X145600000Y-75550000D01*
X147971200Y-74855603D02*
X147786650Y-75040153D01*
X142484800Y-83286982D02*
X142484800Y-84048982D01*
X145600000Y-75550000D02*
X145600000Y-80171782D01*
X147786650Y-75040153D02*
X146109847Y-75040153D01*
%TO.N,/INDEX*%
X148971200Y-75269818D02*
X148971200Y-73641385D01*
X148971200Y-73641385D02*
X148385415Y-73055600D01*
X143318182Y-73055600D02*
X142484800Y-73888982D01*
X148385415Y-73055600D02*
X143318182Y-73055600D01*
X148200000Y-76041018D02*
X148971200Y-75269818D01*
X148200000Y-76900000D02*
X148200000Y-76041018D01*
%TO.N,/DIAG*%
X147722671Y-73455600D02*
X146938118Y-74240153D01*
X146938118Y-74240153D02*
X144673629Y-74240153D01*
X144673629Y-74240153D02*
X142484800Y-76428982D01*
X147707221Y-75440153D02*
X147722671Y-75455603D01*
X146025617Y-75690069D02*
X146275533Y-75440153D01*
X146158325Y-78101838D02*
X146025617Y-77969130D01*
X148571200Y-73807071D02*
X148219729Y-73455600D01*
X146025617Y-77969130D02*
X146025617Y-75690069D01*
X148571200Y-75104132D02*
X148571200Y-73807071D01*
X148219729Y-75455603D02*
X148571200Y-75104132D01*
X147722671Y-75455603D02*
X148219729Y-75455603D01*
X148219729Y-73455600D02*
X147722671Y-73455600D01*
X146275533Y-75440153D02*
X147707221Y-75440153D01*
%TO.N,/SDA*%
X144923200Y-75576800D02*
X144923200Y-80086582D01*
X143500800Y-81508982D02*
X142484800Y-81508982D01*
X147722671Y-74255603D02*
X147338121Y-74640153D01*
X147771197Y-74255603D02*
X147722671Y-74255603D01*
X147971200Y-74055600D02*
X147771197Y-74255603D01*
X147338121Y-74640153D02*
X145859847Y-74640153D01*
X145859847Y-74640153D02*
X144923200Y-75576800D01*
X144923200Y-80086582D02*
X143500800Y-81508982D01*
%TO.N,/1-WIRE*%
X156261800Y-79621982D02*
X157277800Y-79621982D01*
X155499800Y-78859982D02*
X156261800Y-79621982D01*
X155499800Y-70271982D02*
X155499800Y-78859982D01*
X155530222Y-70241560D02*
X155499800Y-70271982D01*
X157277800Y-79621982D02*
X157785800Y-79113982D01*
%TO.N,/UART*%
X154168780Y-83492983D02*
X153200779Y-82524982D01*
X153200779Y-82524982D02*
X149088800Y-82524982D01*
X143754800Y-87858982D02*
X143754800Y-88874982D01*
X149088800Y-82524982D02*
X143754800Y-87858982D01*
%TD*%
%TA.AperFunction,Conductor*%
%TO.N,+3V3*%
G36*
X144921076Y-67104020D02*
G01*
X144957040Y-67153520D01*
X144957040Y-67214706D01*
X144945200Y-67239115D01*
X144890609Y-67320813D01*
X144890603Y-67320825D01*
X144830263Y-67466501D01*
X144830263Y-67466503D01*
X144799500Y-67621155D01*
X144799500Y-68378844D01*
X144830263Y-68533496D01*
X144830263Y-68533498D01*
X144890603Y-68679174D01*
X144890609Y-68679185D01*
X144943312Y-68758059D01*
X144978211Y-68810289D01*
X145089711Y-68921789D01*
X145167876Y-68974017D01*
X145220814Y-69009390D01*
X145220825Y-69009396D01*
X145274638Y-69031685D01*
X145366503Y-69069737D01*
X145521158Y-69100500D01*
X145521159Y-69100500D01*
X145678841Y-69100500D01*
X145678842Y-69100500D01*
X145833497Y-69069737D01*
X145979179Y-69009394D01*
X146110289Y-68921789D01*
X146221789Y-68810289D01*
X146309394Y-68679179D01*
X146369737Y-68533497D01*
X146400500Y-68378842D01*
X146400500Y-67621158D01*
X146369737Y-67466503D01*
X146349622Y-67417942D01*
X146309396Y-67320825D01*
X146309390Y-67320813D01*
X146254800Y-67239115D01*
X146238191Y-67180227D01*
X146259368Y-67122823D01*
X146310242Y-67088830D01*
X146337115Y-67085113D01*
X153502885Y-67085113D01*
X153561076Y-67104020D01*
X153597040Y-67153520D01*
X153597040Y-67214706D01*
X153585200Y-67239115D01*
X153530609Y-67320813D01*
X153530603Y-67320825D01*
X153470263Y-67466501D01*
X153470263Y-67466503D01*
X153439500Y-67621155D01*
X153439500Y-68378844D01*
X153470263Y-68533496D01*
X153470263Y-68533498D01*
X153530603Y-68679174D01*
X153530609Y-68679185D01*
X153583312Y-68758059D01*
X153618211Y-68810289D01*
X153729711Y-68921789D01*
X153807876Y-68974017D01*
X153860814Y-69009390D01*
X153860825Y-69009396D01*
X153914638Y-69031685D01*
X154006503Y-69069737D01*
X154161158Y-69100500D01*
X154161159Y-69100500D01*
X154318841Y-69100500D01*
X154318842Y-69100500D01*
X154473497Y-69069737D01*
X154619179Y-69009394D01*
X154750289Y-68921789D01*
X154861789Y-68810289D01*
X154949394Y-68679179D01*
X155009737Y-68533497D01*
X155040500Y-68378842D01*
X155040500Y-67621158D01*
X155009737Y-67466503D01*
X154989622Y-67417942D01*
X154949396Y-67320825D01*
X154949390Y-67320813D01*
X154894800Y-67239115D01*
X154878191Y-67180227D01*
X154899368Y-67122823D01*
X154950242Y-67088830D01*
X154977115Y-67085113D01*
X157785908Y-67085113D01*
X157847481Y-67085113D01*
X157856109Y-67085490D01*
X158020903Y-67099907D01*
X158037883Y-67102900D01*
X158193496Y-67144597D01*
X158209702Y-67150496D01*
X158355699Y-67218577D01*
X158370637Y-67227201D01*
X158370715Y-67227256D01*
X158502592Y-67319597D01*
X158515812Y-67330690D01*
X158629715Y-67444594D01*
X158640807Y-67457813D01*
X158733199Y-67589764D01*
X158741828Y-67604709D01*
X158809906Y-67750704D01*
X158815808Y-67766921D01*
X158857497Y-67922516D01*
X158860493Y-67939510D01*
X158874922Y-68104448D01*
X158875299Y-68113076D01*
X158875299Y-68180673D01*
X158875313Y-68180896D01*
X158876420Y-73869091D01*
X158870558Y-73887142D01*
X158876428Y-73908756D01*
X158876773Y-75677477D01*
X158857877Y-75735671D01*
X158808384Y-75771645D01*
X158770919Y-75776258D01*
X158733662Y-75773672D01*
X158124799Y-76382535D01*
X158124799Y-76376321D01*
X158097540Y-76274588D01*
X158044879Y-76183377D01*
X157970405Y-76108903D01*
X157879194Y-76056242D01*
X157777461Y-76028983D01*
X157771243Y-76028983D01*
X158378126Y-75422100D01*
X158261986Y-75350188D01*
X158261980Y-75350185D01*
X158054599Y-75269845D01*
X157835996Y-75228982D01*
X157613604Y-75228982D01*
X157395000Y-75269845D01*
X157187621Y-75350184D01*
X157187616Y-75350187D01*
X157071472Y-75422100D01*
X157678355Y-76028983D01*
X157672139Y-76028983D01*
X157570406Y-76056242D01*
X157479195Y-76108903D01*
X157404721Y-76183377D01*
X157352060Y-76274588D01*
X157324801Y-76376321D01*
X157324801Y-76382537D01*
X156715937Y-75773673D01*
X156700168Y-75794556D01*
X156601039Y-75993634D01*
X156540179Y-76207536D01*
X156519659Y-76428982D01*
X156540179Y-76650427D01*
X156601039Y-76864329D01*
X156700164Y-77063399D01*
X156700169Y-77063408D01*
X156715938Y-77084288D01*
X157324801Y-76475425D01*
X157324801Y-76481643D01*
X157352060Y-76583376D01*
X157404721Y-76674587D01*
X157479195Y-76749061D01*
X157570406Y-76801722D01*
X157672139Y-76828981D01*
X157678353Y-76828981D01*
X157071472Y-77435862D01*
X157187613Y-77507775D01*
X157187619Y-77507778D01*
X157395000Y-77588118D01*
X157613604Y-77628982D01*
X157835996Y-77628982D01*
X158054599Y-77588118D01*
X158261980Y-77507778D01*
X158261981Y-77507778D01*
X158378126Y-77435862D01*
X157771245Y-76828981D01*
X157777461Y-76828981D01*
X157879194Y-76801722D01*
X157970405Y-76749061D01*
X158044879Y-76674587D01*
X158097540Y-76583376D01*
X158124799Y-76481643D01*
X158124799Y-76475427D01*
X158733662Y-77084290D01*
X158771211Y-77081684D01*
X158830571Y-77096516D01*
X158869876Y-77143407D01*
X158877066Y-77180427D01*
X158877412Y-78959160D01*
X158874520Y-78968064D01*
X158877416Y-78978726D01*
X158880580Y-95218063D01*
X158880203Y-95226708D01*
X158865711Y-95392395D01*
X158862715Y-95409391D01*
X158820785Y-95565883D01*
X158814883Y-95582099D01*
X158746418Y-95728928D01*
X158737790Y-95743873D01*
X158644867Y-95876584D01*
X158633774Y-95889804D01*
X158519221Y-96004360D01*
X158506002Y-96015453D01*
X158373289Y-96108381D01*
X158358344Y-96117009D01*
X158211521Y-96185475D01*
X158195304Y-96191378D01*
X158038810Y-96233311D01*
X158021816Y-96236307D01*
X157856463Y-96250774D01*
X157847834Y-96251151D01*
X142456439Y-96251151D01*
X142430818Y-96247778D01*
X142423694Y-96245869D01*
X142423692Y-96245869D01*
X142362119Y-96245869D01*
X142353491Y-96245492D01*
X142248506Y-96236307D01*
X142188705Y-96231075D01*
X142171711Y-96228079D01*
X142016113Y-96186386D01*
X141999896Y-96180483D01*
X141853907Y-96112406D01*
X141838965Y-96103780D01*
X141707008Y-96011380D01*
X141693796Y-96000293D01*
X141579890Y-95886384D01*
X141568802Y-95873169D01*
X141476410Y-95741214D01*
X141467782Y-95726270D01*
X141399708Y-95580281D01*
X141393806Y-95564064D01*
X141383473Y-95525498D01*
X141352117Y-95408467D01*
X141349122Y-95391475D01*
X141334677Y-95226327D01*
X141334300Y-95217698D01*
X141334301Y-95177621D01*
X141334302Y-95156487D01*
X141334300Y-95156482D01*
X141334301Y-95150435D01*
X141334300Y-95150401D01*
X141334300Y-94599999D01*
X143544750Y-94599999D01*
X143544750Y-94600000D01*
X143563669Y-94743708D01*
X143563670Y-94743709D01*
X143606636Y-94847441D01*
X143619139Y-94877625D01*
X143707379Y-94992621D01*
X143822375Y-95080861D01*
X143956291Y-95136330D01*
X144100000Y-95155250D01*
X144243709Y-95136330D01*
X144377625Y-95080861D01*
X144492621Y-94992621D01*
X144580861Y-94877625D01*
X144636330Y-94743709D01*
X144655250Y-94600000D01*
X144636330Y-94456291D01*
X144580861Y-94322375D01*
X144492621Y-94207379D01*
X144377625Y-94119139D01*
X144377621Y-94119137D01*
X144303378Y-94088385D01*
X145399500Y-94088385D01*
X145399500Y-94511614D01*
X145426597Y-94682702D01*
X145426598Y-94682706D01*
X145480123Y-94847438D01*
X145480125Y-94847441D01*
X145554097Y-94992622D01*
X145558768Y-95001788D01*
X145660586Y-95141928D01*
X145783072Y-95264414D01*
X145923212Y-95366232D01*
X146077555Y-95444873D01*
X146077557Y-95444873D01*
X146077558Y-95444874D01*
X146077561Y-95444876D01*
X146242293Y-95498401D01*
X146242297Y-95498402D01*
X146413386Y-95525500D01*
X146413389Y-95525500D01*
X146586614Y-95525500D01*
X146757702Y-95498402D01*
X146757706Y-95498401D01*
X146922438Y-95444876D01*
X146922440Y-95444874D01*
X146922445Y-95444873D01*
X147076788Y-95366232D01*
X147216928Y-95264414D01*
X147339414Y-95141928D01*
X147441232Y-95001788D01*
X147519873Y-94847445D01*
X147519874Y-94847440D01*
X147519876Y-94847438D01*
X147573401Y-94682706D01*
X147573402Y-94682702D01*
X147600500Y-94511614D01*
X147600500Y-94088385D01*
X147581409Y-93967851D01*
X147590980Y-93907419D01*
X147634245Y-93864154D01*
X147692112Y-93854211D01*
X147700000Y-93855250D01*
X147810018Y-93840765D01*
X147870177Y-93851915D01*
X147912295Y-93896297D01*
X147920720Y-93954405D01*
X147899500Y-94088385D01*
X147899500Y-94511614D01*
X147926597Y-94682702D01*
X147926598Y-94682706D01*
X147980123Y-94847438D01*
X147980125Y-94847441D01*
X148054097Y-94992622D01*
X148058768Y-95001788D01*
X148160586Y-95141928D01*
X148283072Y-95264414D01*
X148423212Y-95366232D01*
X148577555Y-95444873D01*
X148577557Y-95444873D01*
X148577558Y-95444874D01*
X148577561Y-95444876D01*
X148742293Y-95498401D01*
X148742297Y-95498402D01*
X148913386Y-95525500D01*
X148913389Y-95525500D01*
X149086614Y-95525500D01*
X149257702Y-95498402D01*
X149257706Y-95498401D01*
X149422438Y-95444876D01*
X149422440Y-95444874D01*
X149422445Y-95444873D01*
X149576788Y-95366232D01*
X149716928Y-95264414D01*
X149839414Y-95141928D01*
X149941232Y-95001788D01*
X150019873Y-94847445D01*
X150019874Y-94847440D01*
X150019876Y-94847438D01*
X150073401Y-94682706D01*
X150073402Y-94682702D01*
X150100500Y-94511614D01*
X150100500Y-94088385D01*
X150399500Y-94088385D01*
X150399500Y-94511614D01*
X150426597Y-94682702D01*
X150426598Y-94682706D01*
X150480123Y-94847438D01*
X150480125Y-94847441D01*
X150554097Y-94992622D01*
X150558768Y-95001788D01*
X150660586Y-95141928D01*
X150783072Y-95264414D01*
X150923212Y-95366232D01*
X151077555Y-95444873D01*
X151077557Y-95444873D01*
X151077558Y-95444874D01*
X151077561Y-95444876D01*
X151242293Y-95498401D01*
X151242297Y-95498402D01*
X151413386Y-95525500D01*
X151413389Y-95525500D01*
X151586614Y-95525500D01*
X151757702Y-95498402D01*
X151757706Y-95498401D01*
X151922438Y-95444876D01*
X151922440Y-95444874D01*
X151922445Y-95444873D01*
X152076788Y-95366232D01*
X152216928Y-95264414D01*
X152339414Y-95141928D01*
X152441232Y-95001788D01*
X152519873Y-94847445D01*
X152519874Y-94847440D01*
X152519876Y-94847438D01*
X152573401Y-94682706D01*
X152573402Y-94682702D01*
X152600500Y-94511614D01*
X152600500Y-94088385D01*
X152581409Y-93967851D01*
X152590980Y-93907419D01*
X152634245Y-93864154D01*
X152692112Y-93854211D01*
X152700000Y-93855250D01*
X152787580Y-93843719D01*
X152847738Y-93854869D01*
X152889855Y-93899250D01*
X152899500Y-93941872D01*
X152899500Y-95072866D01*
X152899501Y-95072870D01*
X152905908Y-95132480D01*
X152905909Y-95132485D01*
X152956202Y-95267329D01*
X153041193Y-95380862D01*
X153042454Y-95382546D01*
X153042457Y-95382548D01*
X153042458Y-95382549D01*
X153157670Y-95468797D01*
X153292511Y-95519089D01*
X153292512Y-95519089D01*
X153292517Y-95519091D01*
X153352127Y-95525500D01*
X154647872Y-95525499D01*
X154707483Y-95519091D01*
X154774907Y-95493943D01*
X154842329Y-95468797D01*
X154842329Y-95468796D01*
X154842331Y-95468796D01*
X154957546Y-95382546D01*
X155043796Y-95267331D01*
X155058948Y-95226708D01*
X155085141Y-95156479D01*
X155094091Y-95132483D01*
X155100500Y-95072873D01*
X155100500Y-94899999D01*
X156244750Y-94899999D01*
X156244750Y-94900000D01*
X156263669Y-95043708D01*
X156263670Y-95043709D01*
X156307876Y-95150435D01*
X156319139Y-95177625D01*
X156407379Y-95292621D01*
X156522375Y-95380861D01*
X156656291Y-95436330D01*
X156800000Y-95455250D01*
X156943709Y-95436330D01*
X157077625Y-95380861D01*
X157192621Y-95292621D01*
X157280861Y-95177625D01*
X157336330Y-95043709D01*
X157355250Y-94900000D01*
X157336330Y-94756291D01*
X157280861Y-94622375D01*
X157192621Y-94507379D01*
X157077625Y-94419139D01*
X157077621Y-94419137D01*
X156943709Y-94363670D01*
X156943708Y-94363669D01*
X156800000Y-94344750D01*
X156656291Y-94363669D01*
X156656290Y-94363670D01*
X156522378Y-94419137D01*
X156522374Y-94419139D01*
X156407381Y-94507377D01*
X156407377Y-94507381D01*
X156319139Y-94622374D01*
X156319137Y-94622378D01*
X156263670Y-94756290D01*
X156263669Y-94756291D01*
X156244750Y-94899999D01*
X155100500Y-94899999D01*
X155100499Y-93527128D01*
X155094091Y-93467517D01*
X155090568Y-93458072D01*
X155043797Y-93332670D01*
X154957549Y-93217458D01*
X154957548Y-93217457D01*
X154957546Y-93217454D01*
X154945183Y-93208199D01*
X154842329Y-93131202D01*
X154707488Y-93080910D01*
X154707483Y-93080909D01*
X154707481Y-93080908D01*
X154707477Y-93080908D01*
X154676249Y-93077550D01*
X154647873Y-93074500D01*
X154647870Y-93074500D01*
X153352133Y-93074500D01*
X153352129Y-93074500D01*
X153352128Y-93074501D01*
X153292517Y-93080909D01*
X153286359Y-93081571D01*
X153286150Y-93079633D01*
X153233888Y-93075320D01*
X153187514Y-93035406D01*
X153181237Y-93023027D01*
X153180860Y-93022374D01*
X153092621Y-92907379D01*
X152977625Y-92819139D01*
X152977621Y-92819137D01*
X152843709Y-92763670D01*
X152843708Y-92763669D01*
X152700000Y-92744750D01*
X152556291Y-92763669D01*
X152556290Y-92763670D01*
X152422378Y-92819137D01*
X152422374Y-92819139D01*
X152307381Y-92907377D01*
X152307377Y-92907381D01*
X152219139Y-93022374D01*
X152219137Y-93022378D01*
X152163014Y-93157874D01*
X152123278Y-93204400D01*
X152063783Y-93218684D01*
X152026606Y-93208199D01*
X151922445Y-93155127D01*
X151922444Y-93155126D01*
X151922441Y-93155125D01*
X151922438Y-93155123D01*
X151757706Y-93101598D01*
X151757702Y-93101597D01*
X151586614Y-93074500D01*
X151586611Y-93074500D01*
X151413389Y-93074500D01*
X151413386Y-93074500D01*
X151242297Y-93101597D01*
X151242293Y-93101598D01*
X151077561Y-93155123D01*
X151077558Y-93155125D01*
X150923214Y-93233766D01*
X150783073Y-93335585D01*
X150660585Y-93458073D01*
X150558766Y-93598214D01*
X150480125Y-93752558D01*
X150480123Y-93752561D01*
X150426598Y-93917293D01*
X150426597Y-93917297D01*
X150399500Y-94088385D01*
X150100500Y-94088385D01*
X150073402Y-93917297D01*
X150073401Y-93917293D01*
X150019876Y-93752561D01*
X150019874Y-93752558D01*
X150019873Y-93752557D01*
X150019873Y-93752555D01*
X149941232Y-93598212D01*
X149839414Y-93458072D01*
X149716928Y-93335586D01*
X149576788Y-93233768D01*
X149576787Y-93233767D01*
X149576785Y-93233766D01*
X149424729Y-93156291D01*
X149422445Y-93155127D01*
X149422444Y-93155126D01*
X149422441Y-93155125D01*
X149422438Y-93155123D01*
X149257706Y-93101598D01*
X149257702Y-93101597D01*
X149086614Y-93074500D01*
X149086611Y-93074500D01*
X148913389Y-93074500D01*
X148913386Y-93074500D01*
X148742297Y-93101597D01*
X148742293Y-93101598D01*
X148577561Y-93155123D01*
X148577558Y-93155125D01*
X148423212Y-93233767D01*
X148423208Y-93233769D01*
X148396577Y-93253119D01*
X148338387Y-93272026D01*
X148280196Y-93253118D01*
X148244232Y-93203618D01*
X148240234Y-93185947D01*
X148236330Y-93156292D01*
X148236330Y-93156291D01*
X148180861Y-93022375D01*
X148092621Y-92907379D01*
X147977625Y-92819139D01*
X147977621Y-92819137D01*
X147843709Y-92763670D01*
X147843708Y-92763669D01*
X147700000Y-92744750D01*
X147556291Y-92763669D01*
X147556290Y-92763670D01*
X147422378Y-92819137D01*
X147422374Y-92819139D01*
X147307381Y-92907377D01*
X147307377Y-92907381D01*
X147219139Y-93022374D01*
X147219137Y-93022378D01*
X147163014Y-93157874D01*
X147123278Y-93204400D01*
X147063783Y-93218684D01*
X147026606Y-93208199D01*
X146922445Y-93155127D01*
X146922444Y-93155126D01*
X146922441Y-93155125D01*
X146922438Y-93155123D01*
X146757706Y-93101598D01*
X146757702Y-93101597D01*
X146586614Y-93074500D01*
X146586611Y-93074500D01*
X146413389Y-93074500D01*
X146413386Y-93074500D01*
X146242297Y-93101597D01*
X146242293Y-93101598D01*
X146077561Y-93155123D01*
X146077558Y-93155125D01*
X145923214Y-93233766D01*
X145783073Y-93335585D01*
X145660585Y-93458073D01*
X145558766Y-93598214D01*
X145480125Y-93752558D01*
X145480123Y-93752561D01*
X145426598Y-93917293D01*
X145426597Y-93917297D01*
X145399500Y-94088385D01*
X144303378Y-94088385D01*
X144243709Y-94063670D01*
X144243708Y-94063669D01*
X144100000Y-94044750D01*
X143956291Y-94063669D01*
X143956290Y-94063670D01*
X143822378Y-94119137D01*
X143822374Y-94119139D01*
X143707381Y-94207377D01*
X143707377Y-94207381D01*
X143619139Y-94322374D01*
X143619137Y-94322378D01*
X143563670Y-94456290D01*
X143563669Y-94456291D01*
X143544750Y-94599999D01*
X141334300Y-94599999D01*
X141334300Y-92399999D01*
X149644750Y-92399999D01*
X149644750Y-92400000D01*
X149663669Y-92543708D01*
X149663670Y-92543709D01*
X149719139Y-92677625D01*
X149807379Y-92792621D01*
X149922375Y-92880861D01*
X150056291Y-92936330D01*
X150200000Y-92955250D01*
X150343709Y-92936330D01*
X150477625Y-92880861D01*
X150592621Y-92792621D01*
X150680861Y-92677625D01*
X150736330Y-92543709D01*
X150755250Y-92400000D01*
X150736330Y-92256291D01*
X150680861Y-92122375D01*
X150592621Y-92007379D01*
X150477625Y-91919139D01*
X150477621Y-91919137D01*
X150343709Y-91863670D01*
X150343708Y-91863669D01*
X150200000Y-91844750D01*
X150056291Y-91863669D01*
X150056290Y-91863670D01*
X149922378Y-91919137D01*
X149922374Y-91919139D01*
X149807381Y-92007377D01*
X149807377Y-92007381D01*
X149719139Y-92122374D01*
X149719137Y-92122378D01*
X149663670Y-92256290D01*
X149663669Y-92256291D01*
X149644750Y-92399999D01*
X141334300Y-92399999D01*
X141334300Y-89899999D01*
X145544750Y-89899999D01*
X145544750Y-89900000D01*
X145563669Y-90043708D01*
X145563670Y-90043709D01*
X145599999Y-90131418D01*
X145619139Y-90177625D01*
X145707379Y-90292621D01*
X145822375Y-90380861D01*
X145956291Y-90436330D01*
X146100000Y-90455250D01*
X146243709Y-90436330D01*
X146377625Y-90380861D01*
X146492621Y-90292621D01*
X146521458Y-90255039D01*
X146571882Y-90220384D01*
X146633047Y-90221985D01*
X146678541Y-90255039D01*
X146707379Y-90292621D01*
X146822375Y-90380861D01*
X146956291Y-90436330D01*
X147100000Y-90455250D01*
X147243709Y-90436330D01*
X147377625Y-90380861D01*
X147492621Y-90292621D01*
X147580861Y-90177625D01*
X147636330Y-90043709D01*
X147654663Y-89904460D01*
X152687223Y-89904460D01*
X152687223Y-89904461D01*
X152706142Y-90048169D01*
X152706143Y-90048170D01*
X152759762Y-90177621D01*
X152761612Y-90182086D01*
X152849852Y-90297082D01*
X152964848Y-90385322D01*
X153098764Y-90440791D01*
X153242473Y-90459711D01*
X153386182Y-90440791D01*
X153520098Y-90385322D01*
X153635094Y-90297082D01*
X153694409Y-90219781D01*
X153744829Y-90185129D01*
X153805993Y-90186730D01*
X153851488Y-90219783D01*
X153907379Y-90292621D01*
X154022375Y-90380861D01*
X154156291Y-90436330D01*
X154300000Y-90455250D01*
X154443709Y-90436330D01*
X154577625Y-90380861D01*
X154692621Y-90292621D01*
X154780861Y-90177625D01*
X154836330Y-90043709D01*
X154855250Y-89900000D01*
X154836330Y-89756291D01*
X154780861Y-89622375D01*
X154692621Y-89507379D01*
X154577625Y-89419139D01*
X154577621Y-89419137D01*
X154443709Y-89363670D01*
X154443708Y-89363669D01*
X154300000Y-89344750D01*
X154156291Y-89363669D01*
X154156290Y-89363670D01*
X154022378Y-89419137D01*
X154022374Y-89419139D01*
X153907381Y-89507377D01*
X153907373Y-89507385D01*
X153848065Y-89584676D01*
X153797640Y-89619331D01*
X153736476Y-89617729D01*
X153690983Y-89584675D01*
X153635094Y-89511840D01*
X153520098Y-89423600D01*
X153520094Y-89423598D01*
X153386182Y-89368131D01*
X153386181Y-89368130D01*
X153242473Y-89349211D01*
X153098764Y-89368130D01*
X153098763Y-89368131D01*
X152964851Y-89423598D01*
X152964847Y-89423600D01*
X152849854Y-89511838D01*
X152849850Y-89511842D01*
X152761612Y-89626835D01*
X152761610Y-89626839D01*
X152706143Y-89760751D01*
X152706142Y-89760752D01*
X152687223Y-89904460D01*
X147654663Y-89904460D01*
X147655250Y-89900000D01*
X147636330Y-89756291D01*
X147580861Y-89622375D01*
X147492621Y-89507379D01*
X147377625Y-89419139D01*
X147377621Y-89419137D01*
X147243709Y-89363670D01*
X147243708Y-89363669D01*
X147100000Y-89344750D01*
X146956291Y-89363669D01*
X146956290Y-89363670D01*
X146822378Y-89419137D01*
X146822374Y-89419139D01*
X146707381Y-89507377D01*
X146707373Y-89507385D01*
X146678541Y-89544960D01*
X146628117Y-89579615D01*
X146566952Y-89578013D01*
X146521459Y-89544960D01*
X146492626Y-89507385D01*
X146492624Y-89507383D01*
X146492621Y-89507379D01*
X146377625Y-89419139D01*
X146377621Y-89419137D01*
X146243709Y-89363670D01*
X146243708Y-89363669D01*
X146100000Y-89344750D01*
X145956291Y-89363669D01*
X145956290Y-89363670D01*
X145822378Y-89419137D01*
X145822374Y-89419139D01*
X145707381Y-89507377D01*
X145707377Y-89507381D01*
X145619139Y-89622374D01*
X145619137Y-89622378D01*
X145563670Y-89756290D01*
X145563669Y-89756291D01*
X145544750Y-89899999D01*
X141334300Y-89899999D01*
X141334300Y-88874981D01*
X143199550Y-88874981D01*
X143199550Y-88874982D01*
X143218469Y-89018690D01*
X143218470Y-89018691D01*
X143273939Y-89152607D01*
X143362179Y-89267603D01*
X143477175Y-89355843D01*
X143611091Y-89411312D01*
X143754800Y-89430232D01*
X143898509Y-89411312D01*
X144032425Y-89355843D01*
X144147421Y-89267603D01*
X144235661Y-89152607D01*
X144291130Y-89018691D01*
X144310050Y-88874982D01*
X144291130Y-88731273D01*
X144235661Y-88597357D01*
X144147421Y-88482361D01*
X144147419Y-88482359D01*
X144147418Y-88482358D01*
X144144031Y-88479759D01*
X144109376Y-88429333D01*
X144105300Y-88401218D01*
X144105300Y-88045172D01*
X144124207Y-87986981D01*
X144134296Y-87975168D01*
X145520487Y-86588977D01*
X156769701Y-86588977D01*
X156769701Y-86588986D01*
X156788051Y-86775307D01*
X156788052Y-86775310D01*
X156842405Y-86954486D01*
X156842406Y-86954488D01*
X156930659Y-87119599D01*
X156930662Y-87119604D01*
X156930664Y-87119607D01*
X156980195Y-87179960D01*
X157049438Y-87264334D01*
X157049447Y-87264343D01*
X157116945Y-87319737D01*
X157194175Y-87383118D01*
X157359299Y-87471378D01*
X157538469Y-87525729D01*
X157538471Y-87525729D01*
X157538474Y-87525730D01*
X157724796Y-87544081D01*
X157724800Y-87544081D01*
X157724804Y-87544081D01*
X157911125Y-87525730D01*
X157911126Y-87525729D01*
X157911131Y-87525729D01*
X158090301Y-87471378D01*
X158255425Y-87383118D01*
X158400157Y-87264339D01*
X158518936Y-87119607D01*
X158607196Y-86954483D01*
X158661547Y-86775313D01*
X158679624Y-86591782D01*
X158679899Y-86588986D01*
X158679899Y-86588977D01*
X158661548Y-86402656D01*
X158661547Y-86402653D01*
X158661547Y-86402651D01*
X158607196Y-86223481D01*
X158607193Y-86223475D01*
X158518940Y-86058364D01*
X158518938Y-86058362D01*
X158518936Y-86058357D01*
X158443486Y-85966421D01*
X158400161Y-85913629D01*
X158400152Y-85913620D01*
X158301316Y-85832508D01*
X158255425Y-85794846D01*
X158255422Y-85794844D01*
X158255417Y-85794841D01*
X158090306Y-85706588D01*
X158090304Y-85706587D01*
X158031665Y-85688799D01*
X157911131Y-85652235D01*
X157911128Y-85652234D01*
X157911125Y-85652233D01*
X157724804Y-85633883D01*
X157724796Y-85633883D01*
X157538474Y-85652233D01*
X157538471Y-85652234D01*
X157359295Y-85706587D01*
X157359293Y-85706588D01*
X157194182Y-85794841D01*
X157194176Y-85794845D01*
X157049447Y-85913620D01*
X157049438Y-85913629D01*
X156930663Y-86058358D01*
X156930659Y-86058364D01*
X156842406Y-86223475D01*
X156842405Y-86223477D01*
X156788052Y-86402653D01*
X156788051Y-86402656D01*
X156769701Y-86588977D01*
X145520487Y-86588977D01*
X147759465Y-84349999D01*
X148294750Y-84349999D01*
X148294750Y-84350000D01*
X148313669Y-84493708D01*
X148313670Y-84493709D01*
X148349249Y-84579607D01*
X148369139Y-84627625D01*
X148457379Y-84742621D01*
X148572375Y-84830861D01*
X148706291Y-84886330D01*
X148850000Y-84905250D01*
X148993709Y-84886330D01*
X149127625Y-84830861D01*
X149139730Y-84821571D01*
X149197406Y-84801146D01*
X149256072Y-84818522D01*
X149260260Y-84821565D01*
X149272375Y-84830861D01*
X149406291Y-84886330D01*
X149550000Y-84905250D01*
X149693709Y-84886330D01*
X149827625Y-84830861D01*
X149942621Y-84742621D01*
X150030861Y-84627625D01*
X150086330Y-84493709D01*
X150091535Y-84454176D01*
X151058475Y-84454176D01*
X151058475Y-84454177D01*
X151077394Y-84597885D01*
X151077395Y-84597886D01*
X151135347Y-84737797D01*
X151132941Y-84738793D01*
X151143349Y-84787796D01*
X151136358Y-84815315D01*
X151092471Y-84921272D01*
X151092469Y-84921276D01*
X151073550Y-85064981D01*
X151073550Y-85064982D01*
X151092469Y-85208690D01*
X151092470Y-85208691D01*
X151146447Y-85339006D01*
X151151247Y-85400003D01*
X151146447Y-85414776D01*
X151092470Y-85545090D01*
X151092469Y-85545091D01*
X151073550Y-85688799D01*
X151073550Y-85688800D01*
X151092469Y-85832508D01*
X151092470Y-85832509D01*
X151126070Y-85913629D01*
X151147939Y-85966425D01*
X151236179Y-86081421D01*
X151351175Y-86169661D01*
X151485091Y-86225130D01*
X151628800Y-86244050D01*
X151772509Y-86225130D01*
X151906425Y-86169661D01*
X152021421Y-86081421D01*
X152109661Y-85966425D01*
X152165130Y-85832509D01*
X152184050Y-85688800D01*
X152165130Y-85545091D01*
X152111153Y-85414776D01*
X152106353Y-85353779D01*
X152111153Y-85339006D01*
X152127622Y-85299243D01*
X152165130Y-85208691D01*
X152184050Y-85064982D01*
X152165130Y-84921273D01*
X152109661Y-84787357D01*
X152107178Y-84781362D01*
X152109586Y-84780364D01*
X152099173Y-84731380D01*
X152106165Y-84703846D01*
X152150055Y-84597886D01*
X152168975Y-84454177D01*
X152163749Y-84414486D01*
X152150055Y-84310468D01*
X152094586Y-84176552D01*
X152006346Y-84061556D01*
X151989953Y-84048977D01*
X156769701Y-84048977D01*
X156769701Y-84048986D01*
X156788051Y-84235307D01*
X156788052Y-84235310D01*
X156842405Y-84414486D01*
X156842406Y-84414488D01*
X156930659Y-84579599D01*
X156930662Y-84579604D01*
X156930664Y-84579607D01*
X156970068Y-84627621D01*
X157049438Y-84724334D01*
X157049447Y-84724343D01*
X157104352Y-84769402D01*
X157194175Y-84843118D01*
X157194180Y-84843120D01*
X157194182Y-84843122D01*
X157340399Y-84921276D01*
X157359299Y-84931378D01*
X157538469Y-84985729D01*
X157538471Y-84985729D01*
X157538474Y-84985730D01*
X157724796Y-85004081D01*
X157724800Y-85004081D01*
X157724804Y-85004081D01*
X157911125Y-84985730D01*
X157911126Y-84985729D01*
X157911131Y-84985729D01*
X158090301Y-84931378D01*
X158255425Y-84843118D01*
X158400157Y-84724339D01*
X158518936Y-84579607D01*
X158607196Y-84414483D01*
X158661547Y-84235313D01*
X158664406Y-84206291D01*
X158679899Y-84048986D01*
X158679899Y-84048977D01*
X158661548Y-83862656D01*
X158661547Y-83862653D01*
X158661547Y-83862651D01*
X158607196Y-83683481D01*
X158582187Y-83636692D01*
X158518940Y-83518364D01*
X158518938Y-83518362D01*
X158518936Y-83518357D01*
X158454913Y-83440345D01*
X158400161Y-83373629D01*
X158400152Y-83373620D01*
X158315778Y-83304377D01*
X158255425Y-83254846D01*
X158255422Y-83254844D01*
X158255417Y-83254841D01*
X158090306Y-83166588D01*
X158090304Y-83166587D01*
X158088652Y-83166086D01*
X158000716Y-83139410D01*
X157911128Y-83112234D01*
X157911125Y-83112233D01*
X157724804Y-83093883D01*
X157724796Y-83093883D01*
X157538474Y-83112233D01*
X157538471Y-83112234D01*
X157359295Y-83166587D01*
X157359293Y-83166588D01*
X157194182Y-83254841D01*
X157194176Y-83254845D01*
X157049447Y-83373620D01*
X157049438Y-83373629D01*
X156930663Y-83518358D01*
X156930659Y-83518364D01*
X156842406Y-83683475D01*
X156842405Y-83683477D01*
X156788052Y-83862653D01*
X156788051Y-83862656D01*
X156769701Y-84048977D01*
X151989953Y-84048977D01*
X151891350Y-83973316D01*
X151891346Y-83973314D01*
X151757434Y-83917847D01*
X151757433Y-83917846D01*
X151613725Y-83898927D01*
X151470016Y-83917846D01*
X151470015Y-83917847D01*
X151336103Y-83973314D01*
X151336099Y-83973316D01*
X151221106Y-84061554D01*
X151221102Y-84061558D01*
X151132864Y-84176551D01*
X151132862Y-84176555D01*
X151077395Y-84310467D01*
X151077394Y-84310468D01*
X151058475Y-84454176D01*
X150091535Y-84454176D01*
X150105250Y-84350000D01*
X150100045Y-84310468D01*
X150086330Y-84206291D01*
X150030861Y-84072375D01*
X149942621Y-83957379D01*
X149827625Y-83869139D01*
X149827621Y-83869137D01*
X149693709Y-83813670D01*
X149693708Y-83813669D01*
X149550000Y-83794750D01*
X149406291Y-83813669D01*
X149406290Y-83813670D01*
X149272378Y-83869137D01*
X149272375Y-83869139D01*
X149260265Y-83878431D01*
X149202588Y-83898853D01*
X149143923Y-83881473D01*
X149139735Y-83878431D01*
X149136487Y-83875939D01*
X149127625Y-83869139D01*
X149127622Y-83869137D01*
X149127621Y-83869137D01*
X148993709Y-83813670D01*
X148993708Y-83813669D01*
X148850000Y-83794750D01*
X148706291Y-83813669D01*
X148706290Y-83813670D01*
X148572378Y-83869137D01*
X148572374Y-83869139D01*
X148457381Y-83957377D01*
X148457377Y-83957381D01*
X148369139Y-84072374D01*
X148369137Y-84072378D01*
X148313670Y-84206290D01*
X148313669Y-84206291D01*
X148294750Y-84349999D01*
X147759465Y-84349999D01*
X149204986Y-82904478D01*
X149259503Y-82876701D01*
X149274990Y-82875482D01*
X153014589Y-82875482D01*
X153072780Y-82894389D01*
X153084593Y-82904478D01*
X153585938Y-83405823D01*
X153613715Y-83460340D01*
X153614087Y-83488746D01*
X153613530Y-83492977D01*
X153613530Y-83492983D01*
X153632449Y-83636691D01*
X153632450Y-83636692D01*
X153687919Y-83770608D01*
X153776159Y-83885604D01*
X153891155Y-83973844D01*
X154025071Y-84029313D01*
X154168780Y-84048233D01*
X154312489Y-84029313D01*
X154446405Y-83973844D01*
X154561401Y-83885604D01*
X154649641Y-83770608D01*
X154705110Y-83636692D01*
X154724030Y-83492983D01*
X154705110Y-83349274D01*
X154649641Y-83215358D01*
X154561401Y-83100362D01*
X154446405Y-83012122D01*
X154446401Y-83012120D01*
X154312489Y-82956653D01*
X154312488Y-82956652D01*
X154168780Y-82937733D01*
X154168775Y-82937733D01*
X154164543Y-82938290D01*
X154104383Y-82927138D01*
X154081620Y-82910141D01*
X153795457Y-82623978D01*
X153696460Y-82524981D01*
X155391550Y-82524981D01*
X155391550Y-82524982D01*
X155410469Y-82668690D01*
X155410470Y-82668691D01*
X155465939Y-82802607D01*
X155554179Y-82917603D01*
X155669175Y-83005843D01*
X155803091Y-83061312D01*
X155946800Y-83080232D01*
X156090509Y-83061312D01*
X156224425Y-83005843D01*
X156339421Y-82917603D01*
X156427661Y-82802607D01*
X156483130Y-82668691D01*
X156502050Y-82524982D01*
X156483130Y-82381273D01*
X156427661Y-82247357D01*
X156339421Y-82132361D01*
X156224425Y-82044121D01*
X156224421Y-82044119D01*
X156090509Y-81988652D01*
X156090508Y-81988651D01*
X155946800Y-81969732D01*
X155803091Y-81988651D01*
X155803090Y-81988652D01*
X155669178Y-82044119D01*
X155669174Y-82044121D01*
X155554181Y-82132359D01*
X155554177Y-82132363D01*
X155465939Y-82247356D01*
X155465937Y-82247360D01*
X155410470Y-82381272D01*
X155410469Y-82381273D01*
X155391550Y-82524981D01*
X153696460Y-82524981D01*
X153415991Y-82244512D01*
X153336353Y-82198533D01*
X153295414Y-82153065D01*
X153289018Y-82092215D01*
X153294388Y-82074921D01*
X153296969Y-82068691D01*
X153315889Y-81924982D01*
X153296969Y-81781273D01*
X153241500Y-81647357D01*
X153223121Y-81623405D01*
X153202697Y-81565732D01*
X153219508Y-81508977D01*
X156769701Y-81508977D01*
X156769701Y-81508986D01*
X156788051Y-81695307D01*
X156788052Y-81695310D01*
X156788053Y-81695313D01*
X156837853Y-81859482D01*
X156842405Y-81874486D01*
X156842406Y-81874488D01*
X156930659Y-82039599D01*
X156930662Y-82039604D01*
X156930664Y-82039607D01*
X156980195Y-82099960D01*
X157049438Y-82184334D01*
X157049447Y-82184343D01*
X157116945Y-82239737D01*
X157194175Y-82303118D01*
X157194180Y-82303120D01*
X157194182Y-82303122D01*
X157359293Y-82391375D01*
X157359299Y-82391378D01*
X157538469Y-82445729D01*
X157538471Y-82445729D01*
X157538474Y-82445730D01*
X157724796Y-82464081D01*
X157724800Y-82464081D01*
X157724804Y-82464081D01*
X157911125Y-82445730D01*
X157911126Y-82445729D01*
X157911131Y-82445729D01*
X158090301Y-82391378D01*
X158255425Y-82303118D01*
X158400157Y-82184339D01*
X158518936Y-82039607D01*
X158607196Y-81874483D01*
X158661547Y-81695313D01*
X158666271Y-81647357D01*
X158679899Y-81508986D01*
X158679899Y-81508977D01*
X158661548Y-81322656D01*
X158661547Y-81322653D01*
X158661547Y-81322651D01*
X158607196Y-81143481D01*
X158533867Y-81006291D01*
X158518940Y-80978364D01*
X158518938Y-80978362D01*
X158518936Y-80978357D01*
X158431961Y-80872378D01*
X158400161Y-80833629D01*
X158400152Y-80833620D01*
X158307249Y-80757377D01*
X158255425Y-80714846D01*
X158255422Y-80714844D01*
X158255417Y-80714841D01*
X158090306Y-80626588D01*
X158090304Y-80626587D01*
X158047719Y-80613669D01*
X158000716Y-80599410D01*
X157911128Y-80572234D01*
X157911125Y-80572233D01*
X157724804Y-80553883D01*
X157724796Y-80553883D01*
X157538474Y-80572233D01*
X157538471Y-80572234D01*
X157359295Y-80626587D01*
X157359293Y-80626588D01*
X157194182Y-80714841D01*
X157194176Y-80714845D01*
X157049447Y-80833620D01*
X157049438Y-80833629D01*
X156930663Y-80978358D01*
X156930659Y-80978364D01*
X156842406Y-81143475D01*
X156842405Y-81143477D01*
X156788052Y-81322653D01*
X156788051Y-81322656D01*
X156769701Y-81508977D01*
X153219508Y-81508977D01*
X153220074Y-81507066D01*
X153223122Y-81502871D01*
X153242415Y-81477729D01*
X153280861Y-81427625D01*
X153336330Y-81293709D01*
X153355250Y-81150000D01*
X153354737Y-81146107D01*
X153336330Y-81006291D01*
X153280861Y-80872375D01*
X153192621Y-80757379D01*
X153077625Y-80669139D01*
X153077621Y-80669137D01*
X152943709Y-80613670D01*
X152943708Y-80613669D01*
X152800000Y-80594750D01*
X152656291Y-80613669D01*
X152656290Y-80613670D01*
X152522378Y-80669137D01*
X152522374Y-80669139D01*
X152407381Y-80757377D01*
X152407377Y-80757381D01*
X152319139Y-80872374D01*
X152319137Y-80872378D01*
X152263670Y-81006290D01*
X152263669Y-81006291D01*
X152244750Y-81149999D01*
X152244750Y-81150000D01*
X152263669Y-81293708D01*
X152263670Y-81293709D01*
X152319139Y-81427625D01*
X152337518Y-81451577D01*
X152357941Y-81509250D01*
X152340564Y-81567916D01*
X152337517Y-81572109D01*
X152279781Y-81647352D01*
X152279776Y-81647360D01*
X152224309Y-81781272D01*
X152224308Y-81781273D01*
X152205389Y-81924981D01*
X152205389Y-81924982D01*
X152213771Y-81988652D01*
X152223502Y-82062560D01*
X152212352Y-82122720D01*
X152167970Y-82164838D01*
X152125349Y-82174482D01*
X149042656Y-82174482D01*
X149014727Y-82181965D01*
X148958869Y-82196932D01*
X148953512Y-82198367D01*
X148953508Y-82198369D01*
X148873590Y-82244510D01*
X143474330Y-87643770D01*
X143428186Y-87723694D01*
X143404300Y-87812839D01*
X143404300Y-88401218D01*
X143385393Y-88459409D01*
X143365569Y-88479759D01*
X143362181Y-88482358D01*
X143273939Y-88597356D01*
X143273937Y-88597360D01*
X143218470Y-88731272D01*
X143218469Y-88731273D01*
X143199550Y-88874981D01*
X141334300Y-88874981D01*
X141334300Y-86620234D01*
X141343544Y-86591782D01*
X141342374Y-86587471D01*
X141523058Y-86587471D01*
X141531823Y-86610531D01*
X141548051Y-86775307D01*
X141548052Y-86775310D01*
X141602405Y-86954486D01*
X141602406Y-86954488D01*
X141690659Y-87119599D01*
X141690662Y-87119604D01*
X141690664Y-87119607D01*
X141740195Y-87179960D01*
X141809438Y-87264334D01*
X141809447Y-87264343D01*
X141876945Y-87319737D01*
X141954175Y-87383118D01*
X142119299Y-87471378D01*
X142298469Y-87525729D01*
X142298471Y-87525729D01*
X142298474Y-87525730D01*
X142484796Y-87544081D01*
X142484800Y-87544081D01*
X142484804Y-87544081D01*
X142671125Y-87525730D01*
X142671126Y-87525729D01*
X142671131Y-87525729D01*
X142850301Y-87471378D01*
X143015425Y-87383118D01*
X143160157Y-87264339D01*
X143278936Y-87119607D01*
X143367196Y-86954483D01*
X143421547Y-86775313D01*
X143439624Y-86591782D01*
X143439899Y-86588986D01*
X143439899Y-86588977D01*
X143421548Y-86402656D01*
X143421547Y-86402653D01*
X143421547Y-86402651D01*
X143367196Y-86223481D01*
X143367193Y-86223475D01*
X143278940Y-86058364D01*
X143278938Y-86058362D01*
X143278936Y-86058357D01*
X143203486Y-85966421D01*
X143160161Y-85913629D01*
X143160152Y-85913620D01*
X143061316Y-85832508D01*
X143015425Y-85794846D01*
X143015422Y-85794844D01*
X143015417Y-85794841D01*
X142850306Y-85706588D01*
X142850304Y-85706587D01*
X142791665Y-85688799D01*
X142671131Y-85652235D01*
X142671128Y-85652234D01*
X142671125Y-85652233D01*
X142484804Y-85633883D01*
X142484796Y-85633883D01*
X142298474Y-85652233D01*
X142298471Y-85652234D01*
X142119295Y-85706587D01*
X142119293Y-85706588D01*
X141954182Y-85794841D01*
X141954176Y-85794845D01*
X141809447Y-85913620D01*
X141809438Y-85913629D01*
X141690663Y-86058358D01*
X141690659Y-86058364D01*
X141602406Y-86223475D01*
X141602405Y-86223477D01*
X141548052Y-86402653D01*
X141548051Y-86402655D01*
X141531823Y-86567433D01*
X141523058Y-86587471D01*
X141342374Y-86587471D01*
X141334300Y-86557729D01*
X141334300Y-84080234D01*
X141343544Y-84051782D01*
X141334300Y-84017729D01*
X141334300Y-81540234D01*
X141343544Y-81511782D01*
X141334300Y-81477729D01*
X141334300Y-79000234D01*
X141343544Y-78971782D01*
X141342374Y-78967471D01*
X141523058Y-78967471D01*
X141531823Y-78990531D01*
X141548051Y-79155307D01*
X141548052Y-79155310D01*
X141602405Y-79334486D01*
X141602406Y-79334488D01*
X141690659Y-79499599D01*
X141690662Y-79499604D01*
X141690664Y-79499607D01*
X141740195Y-79559960D01*
X141809438Y-79644334D01*
X141809447Y-79644343D01*
X141876945Y-79699737D01*
X141954175Y-79763118D01*
X142119299Y-79851378D01*
X142298469Y-79905729D01*
X142298471Y-79905729D01*
X142298474Y-79905730D01*
X142484796Y-79924081D01*
X142484800Y-79924081D01*
X142484804Y-79924081D01*
X142671125Y-79905730D01*
X142671126Y-79905729D01*
X142671131Y-79905729D01*
X142850301Y-79851378D01*
X143015425Y-79763118D01*
X143160157Y-79644339D01*
X143278936Y-79499607D01*
X143367196Y-79334483D01*
X143421547Y-79155313D01*
X143429439Y-79075191D01*
X143439899Y-78968986D01*
X143439899Y-78968977D01*
X143421548Y-78782656D01*
X143421547Y-78782653D01*
X143421547Y-78782651D01*
X143367196Y-78603481D01*
X143345262Y-78562445D01*
X143278940Y-78438364D01*
X143278938Y-78438362D01*
X143278936Y-78438357D01*
X143170552Y-78306291D01*
X143160161Y-78293629D01*
X143160152Y-78293620D01*
X143075778Y-78224377D01*
X143015425Y-78174846D01*
X143015422Y-78174844D01*
X143015417Y-78174841D01*
X142850306Y-78086588D01*
X142850304Y-78086587D01*
X142671128Y-78032234D01*
X142671125Y-78032233D01*
X142484804Y-78013883D01*
X142484796Y-78013883D01*
X142298474Y-78032233D01*
X142298471Y-78032234D01*
X142119295Y-78086587D01*
X142119293Y-78086588D01*
X141954182Y-78174841D01*
X141954176Y-78174845D01*
X141809447Y-78293620D01*
X141809438Y-78293629D01*
X141690663Y-78438358D01*
X141690659Y-78438364D01*
X141602406Y-78603475D01*
X141602405Y-78603477D01*
X141548052Y-78782653D01*
X141548051Y-78782655D01*
X141531823Y-78947433D01*
X141523058Y-78967471D01*
X141342374Y-78967471D01*
X141334300Y-78937729D01*
X141334300Y-76460234D01*
X141343544Y-76431782D01*
X141334300Y-76397729D01*
X141334300Y-73920234D01*
X141343544Y-73891782D01*
X141342374Y-73887471D01*
X141523058Y-73887471D01*
X141531823Y-73910531D01*
X141548051Y-74075307D01*
X141548052Y-74075310D01*
X141602405Y-74254486D01*
X141602406Y-74254488D01*
X141690659Y-74419599D01*
X141690662Y-74419604D01*
X141690664Y-74419607D01*
X141740195Y-74479960D01*
X141809438Y-74564334D01*
X141809447Y-74564343D01*
X141864545Y-74609560D01*
X141954175Y-74683118D01*
X142119299Y-74771378D01*
X142298469Y-74825729D01*
X142298471Y-74825729D01*
X142298474Y-74825730D01*
X142484796Y-74844081D01*
X142484800Y-74844081D01*
X142484804Y-74844081D01*
X142671125Y-74825730D01*
X142671126Y-74825729D01*
X142671131Y-74825729D01*
X142850301Y-74771378D01*
X143015425Y-74683118D01*
X143160157Y-74564339D01*
X143278936Y-74419607D01*
X143367196Y-74254483D01*
X143421547Y-74075313D01*
X143437481Y-73913539D01*
X143439899Y-73888986D01*
X143439899Y-73888977D01*
X143421548Y-73702656D01*
X143421547Y-73702654D01*
X143421547Y-73702653D01*
X143421547Y-73702651D01*
X143379483Y-73563985D01*
X143380684Y-73502814D01*
X143404216Y-73465246D01*
X143434370Y-73435094D01*
X143488887Y-73407318D01*
X143504371Y-73406100D01*
X147037481Y-73406100D01*
X147095672Y-73425007D01*
X147131636Y-73474507D01*
X147131636Y-73535693D01*
X147107485Y-73575104D01*
X146821932Y-73860657D01*
X146767415Y-73888434D01*
X146751928Y-73889653D01*
X144627485Y-73889653D01*
X144549567Y-73910531D01*
X144538341Y-73913539D01*
X144458417Y-73959683D01*
X142908534Y-75509564D01*
X142854017Y-75537341D01*
X142809792Y-75534297D01*
X142671131Y-75492234D01*
X142671125Y-75492233D01*
X142484804Y-75473883D01*
X142484796Y-75473883D01*
X142298474Y-75492233D01*
X142298471Y-75492234D01*
X142119295Y-75546587D01*
X142119293Y-75546588D01*
X141954182Y-75634841D01*
X141954176Y-75634845D01*
X141809447Y-75753620D01*
X141809438Y-75753629D01*
X141690663Y-75898358D01*
X141690659Y-75898364D01*
X141602406Y-76063475D01*
X141602405Y-76063477D01*
X141548052Y-76242653D01*
X141548051Y-76242655D01*
X141531823Y-76407433D01*
X141523058Y-76427471D01*
X141531823Y-76450531D01*
X141548051Y-76615307D01*
X141548052Y-76615310D01*
X141602405Y-76794486D01*
X141602406Y-76794488D01*
X141690659Y-76959599D01*
X141690662Y-76959604D01*
X141690664Y-76959607D01*
X141740195Y-77019960D01*
X141809438Y-77104334D01*
X141809447Y-77104343D01*
X141857047Y-77143407D01*
X141954175Y-77223118D01*
X141954180Y-77223120D01*
X141954182Y-77223122D01*
X142119293Y-77311375D01*
X142119299Y-77311378D01*
X142298469Y-77365729D01*
X142298471Y-77365729D01*
X142298474Y-77365730D01*
X142484796Y-77384081D01*
X142484800Y-77384081D01*
X142484804Y-77384081D01*
X142671125Y-77365730D01*
X142671126Y-77365729D01*
X142671131Y-77365729D01*
X142850301Y-77311378D01*
X143015425Y-77223118D01*
X143160157Y-77104339D01*
X143278936Y-76959607D01*
X143367196Y-76794483D01*
X143421547Y-76615313D01*
X143424899Y-76581288D01*
X143439899Y-76428986D01*
X143439899Y-76428977D01*
X143421548Y-76242656D01*
X143421547Y-76242650D01*
X143379484Y-76103987D01*
X143380685Y-76042814D01*
X143404215Y-76005247D01*
X144789815Y-74619649D01*
X144844332Y-74591872D01*
X144859819Y-74590653D01*
X145174657Y-74590653D01*
X145232848Y-74609560D01*
X145268812Y-74659060D01*
X145268812Y-74720246D01*
X145244661Y-74759657D01*
X144642729Y-75361589D01*
X144614286Y-75410852D01*
X144614287Y-75410853D01*
X144596586Y-75441510D01*
X144572700Y-75530657D01*
X144572700Y-79900391D01*
X144553793Y-79958582D01*
X144543704Y-79970395D01*
X143462777Y-81051321D01*
X143408260Y-81079098D01*
X143347828Y-81069527D01*
X143305463Y-81027985D01*
X143278940Y-80978364D01*
X143278938Y-80978362D01*
X143278936Y-80978357D01*
X143191961Y-80872378D01*
X143160161Y-80833629D01*
X143160152Y-80833620D01*
X143067249Y-80757377D01*
X143015425Y-80714846D01*
X143015422Y-80714844D01*
X143015417Y-80714841D01*
X142850306Y-80626588D01*
X142850304Y-80626587D01*
X142807719Y-80613669D01*
X142760716Y-80599410D01*
X142671128Y-80572234D01*
X142671125Y-80572233D01*
X142484804Y-80553883D01*
X142484796Y-80553883D01*
X142298474Y-80572233D01*
X142298471Y-80572234D01*
X142119295Y-80626587D01*
X142119293Y-80626588D01*
X141954182Y-80714841D01*
X141954176Y-80714845D01*
X141809447Y-80833620D01*
X141809438Y-80833629D01*
X141690663Y-80978358D01*
X141690659Y-80978364D01*
X141602406Y-81143475D01*
X141602405Y-81143477D01*
X141548052Y-81322653D01*
X141548051Y-81322655D01*
X141531823Y-81487433D01*
X141523058Y-81507471D01*
X141531823Y-81530531D01*
X141548051Y-81695307D01*
X141548052Y-81695310D01*
X141548053Y-81695313D01*
X141597853Y-81859482D01*
X141602405Y-81874486D01*
X141602406Y-81874488D01*
X141690659Y-82039599D01*
X141690662Y-82039604D01*
X141690664Y-82039607D01*
X141740195Y-82099960D01*
X141809438Y-82184334D01*
X141809447Y-82184343D01*
X141876945Y-82239737D01*
X141954175Y-82303118D01*
X141954180Y-82303120D01*
X141954182Y-82303122D01*
X142119293Y-82391375D01*
X142119299Y-82391378D01*
X142298469Y-82445729D01*
X142298471Y-82445729D01*
X142298474Y-82445730D01*
X142484796Y-82464081D01*
X142484800Y-82464081D01*
X142484803Y-82464081D01*
X142572412Y-82455452D01*
X142632176Y-82468564D01*
X142672818Y-82514301D01*
X142678816Y-82575191D01*
X142652120Y-82623978D01*
X142204329Y-83071770D01*
X142204328Y-83071772D01*
X142180969Y-83112233D01*
X142180964Y-83112242D01*
X142175575Y-83121574D01*
X142130101Y-83162511D01*
X142120506Y-83166086D01*
X142119289Y-83166590D01*
X141954182Y-83254841D01*
X141954176Y-83254845D01*
X141809447Y-83373620D01*
X141809438Y-83373629D01*
X141690663Y-83518358D01*
X141690659Y-83518364D01*
X141602406Y-83683475D01*
X141602405Y-83683477D01*
X141548052Y-83862653D01*
X141548051Y-83862655D01*
X141531823Y-84027433D01*
X141523058Y-84047471D01*
X141531823Y-84070531D01*
X141548051Y-84235307D01*
X141548052Y-84235310D01*
X141602405Y-84414486D01*
X141602406Y-84414488D01*
X141690659Y-84579599D01*
X141690662Y-84579604D01*
X141690664Y-84579607D01*
X141730068Y-84627621D01*
X141809438Y-84724334D01*
X141809447Y-84724343D01*
X141864352Y-84769402D01*
X141954175Y-84843118D01*
X141954180Y-84843120D01*
X141954182Y-84843122D01*
X142100399Y-84921276D01*
X142119299Y-84931378D01*
X142298469Y-84985729D01*
X142298471Y-84985729D01*
X142298474Y-84985730D01*
X142484796Y-85004081D01*
X142484800Y-85004081D01*
X142484804Y-85004081D01*
X142671125Y-84985730D01*
X142671126Y-84985729D01*
X142671131Y-84985729D01*
X142850301Y-84931378D01*
X143015425Y-84843118D01*
X143160157Y-84724339D01*
X143278936Y-84579607D01*
X143367196Y-84414483D01*
X143421547Y-84235313D01*
X143424406Y-84206291D01*
X143439899Y-84048986D01*
X143439899Y-84048977D01*
X143421548Y-83862656D01*
X143421547Y-83862653D01*
X143421547Y-83862651D01*
X143367196Y-83683481D01*
X143342187Y-83636692D01*
X143278940Y-83518364D01*
X143278938Y-83518362D01*
X143278936Y-83518357D01*
X143214913Y-83440345D01*
X143160161Y-83373629D01*
X143160148Y-83373616D01*
X143098319Y-83322875D01*
X143065331Y-83271344D01*
X143068932Y-83210265D01*
X143091117Y-83176345D01*
X145880470Y-80386994D01*
X145891087Y-80368603D01*
X145936553Y-80327663D01*
X145997403Y-80321266D01*
X146014708Y-80326639D01*
X146017174Y-80327660D01*
X146017175Y-80327661D01*
X146151091Y-80383130D01*
X146294800Y-80402050D01*
X146438509Y-80383130D01*
X146572425Y-80327661D01*
X146687421Y-80239421D01*
X146775661Y-80124425D01*
X146831130Y-79990509D01*
X146850050Y-79846800D01*
X146831130Y-79703091D01*
X146775661Y-79569175D01*
X146687421Y-79454179D01*
X146572425Y-79365939D01*
X146572421Y-79365937D01*
X146438509Y-79310470D01*
X146438508Y-79310469D01*
X146294800Y-79291550D01*
X146151093Y-79310469D01*
X146151091Y-79310470D01*
X146093111Y-79334486D01*
X146087384Y-79336858D01*
X146026388Y-79341657D01*
X145974219Y-79309687D01*
X145950805Y-79253159D01*
X145950500Y-79245393D01*
X145950500Y-78694693D01*
X145969407Y-78636502D01*
X146018907Y-78600538D01*
X146077393Y-78599704D01*
X146086364Y-78602338D01*
X146086365Y-78602338D01*
X146230284Y-78602338D01*
X146230286Y-78602338D01*
X146368378Y-78561791D01*
X146460782Y-78502406D01*
X146519955Y-78486852D01*
X146574571Y-78507149D01*
X146623375Y-78544596D01*
X146629975Y-78549661D01*
X146763891Y-78605130D01*
X146907599Y-78624050D01*
X146907599Y-78624049D01*
X146907600Y-78624050D01*
X147051309Y-78605130D01*
X147051309Y-78605129D01*
X147055167Y-78604622D01*
X147115327Y-78615772D01*
X147157445Y-78660154D01*
X147159553Y-78664889D01*
X147185538Y-78727624D01*
X147185539Y-78727625D01*
X147273779Y-78842621D01*
X147388775Y-78930861D01*
X147522691Y-78986330D01*
X147666400Y-79005250D01*
X147810109Y-78986330D01*
X147944025Y-78930861D01*
X148059021Y-78842621D01*
X148147261Y-78727625D01*
X148202730Y-78593709D01*
X148221650Y-78450000D01*
X148202730Y-78306291D01*
X148148284Y-78174845D01*
X148144778Y-78166380D01*
X148146601Y-78165624D01*
X148135766Y-78114655D01*
X148145722Y-78084011D01*
X148144778Y-78083620D01*
X148166062Y-78032234D01*
X148202730Y-77943709D01*
X148221650Y-77800000D01*
X148202730Y-77656291D01*
X148172993Y-77584500D01*
X148168193Y-77523506D01*
X148200163Y-77471337D01*
X148251534Y-77448465D01*
X148343709Y-77436330D01*
X148477625Y-77380861D01*
X148592621Y-77292621D01*
X148680861Y-77177625D01*
X148736330Y-77043709D01*
X148755250Y-76900000D01*
X148736330Y-76756291D01*
X148680861Y-76622375D01*
X148592621Y-76507379D01*
X148592619Y-76507377D01*
X148592618Y-76507376D01*
X148589231Y-76504777D01*
X148554576Y-76454351D01*
X148550500Y-76426236D01*
X148550500Y-76227207D01*
X148569407Y-76169016D01*
X148579490Y-76157209D01*
X149251669Y-75485031D01*
X149297814Y-75405106D01*
X149301344Y-75391933D01*
X149321700Y-75315962D01*
X149321700Y-73595241D01*
X149297814Y-73506097D01*
X149294496Y-73500350D01*
X149294494Y-73500346D01*
X149294494Y-73500345D01*
X149268557Y-73455422D01*
X149251670Y-73426173D01*
X148600627Y-72775130D01*
X148520703Y-72728986D01*
X148431559Y-72705100D01*
X148431557Y-72705100D01*
X146350336Y-72705100D01*
X146292145Y-72686193D01*
X146256181Y-72636693D01*
X146256181Y-72575507D01*
X146268021Y-72551098D01*
X146309390Y-72489185D01*
X146309390Y-72489184D01*
X146309394Y-72489179D01*
X146369737Y-72343497D01*
X146400500Y-72188842D01*
X146400500Y-71431158D01*
X146400499Y-71431155D01*
X153439500Y-71431155D01*
X153439500Y-72188844D01*
X153470263Y-72343496D01*
X153470263Y-72343498D01*
X153530603Y-72489174D01*
X153530609Y-72489185D01*
X153571979Y-72551098D01*
X153618211Y-72620289D01*
X153729711Y-72731789D01*
X153807876Y-72784017D01*
X153860814Y-72819390D01*
X153860825Y-72819396D01*
X153914638Y-72841685D01*
X154006503Y-72879737D01*
X154161158Y-72910500D01*
X154161159Y-72910500D01*
X154318841Y-72910500D01*
X154318842Y-72910500D01*
X154473497Y-72879737D01*
X154619179Y-72819394D01*
X154750289Y-72731789D01*
X154861789Y-72620289D01*
X154949394Y-72489179D01*
X154958835Y-72466383D01*
X154998571Y-72419858D01*
X155058066Y-72405574D01*
X155114594Y-72428988D01*
X155146564Y-72481156D01*
X155149300Y-72504269D01*
X155149300Y-78906125D01*
X155170790Y-78986329D01*
X155173185Y-78995269D01*
X155173187Y-78995273D01*
X155219328Y-79075191D01*
X155219330Y-79075194D01*
X156046588Y-79902452D01*
X156126512Y-79948596D01*
X156215656Y-79972482D01*
X156215657Y-79972482D01*
X156215658Y-79972482D01*
X157323942Y-79972482D01*
X157323944Y-79972482D01*
X157413088Y-79948596D01*
X157468170Y-79916794D01*
X157528015Y-79904073D01*
X157536988Y-79905434D01*
X157538459Y-79905726D01*
X157538469Y-79905729D01*
X157538478Y-79905729D01*
X157538479Y-79905730D01*
X157724796Y-79924081D01*
X157724800Y-79924081D01*
X157724804Y-79924081D01*
X157911125Y-79905730D01*
X157911126Y-79905729D01*
X157911131Y-79905729D01*
X158090301Y-79851378D01*
X158255425Y-79763118D01*
X158400157Y-79644339D01*
X158518936Y-79499607D01*
X158607196Y-79334483D01*
X158661547Y-79155313D01*
X158669439Y-79075191D01*
X158679893Y-78969042D01*
X158679923Y-78968972D01*
X158679889Y-78968882D01*
X158679808Y-78968064D01*
X158667454Y-78842621D01*
X158661548Y-78782656D01*
X158661547Y-78782653D01*
X158661547Y-78782651D01*
X158607196Y-78603481D01*
X158585262Y-78562445D01*
X158518940Y-78438364D01*
X158518938Y-78438362D01*
X158518936Y-78438357D01*
X158410552Y-78306291D01*
X158400161Y-78293629D01*
X158400152Y-78293620D01*
X158315778Y-78224377D01*
X158255425Y-78174846D01*
X158255422Y-78174844D01*
X158255417Y-78174841D01*
X158090306Y-78086588D01*
X158090304Y-78086587D01*
X157911128Y-78032234D01*
X157911125Y-78032233D01*
X157724804Y-78013883D01*
X157724796Y-78013883D01*
X157538474Y-78032233D01*
X157538471Y-78032234D01*
X157359295Y-78086587D01*
X157359293Y-78086588D01*
X157194182Y-78174841D01*
X157194176Y-78174845D01*
X157049447Y-78293620D01*
X157049438Y-78293629D01*
X156930663Y-78438358D01*
X156930659Y-78438364D01*
X156842406Y-78603475D01*
X156842405Y-78603477D01*
X156788052Y-78782653D01*
X156788051Y-78782656D01*
X156769701Y-78968977D01*
X156769701Y-78968986D01*
X156788529Y-79160154D01*
X156786779Y-79160326D01*
X156780432Y-79213934D01*
X156738897Y-79258862D01*
X156690528Y-79271482D01*
X156447990Y-79271482D01*
X156389799Y-79252575D01*
X156377986Y-79242486D01*
X155879296Y-78743796D01*
X155851519Y-78689279D01*
X155850300Y-78673792D01*
X155850300Y-73888977D01*
X156769701Y-73888977D01*
X156769701Y-73888986D01*
X156788051Y-74075307D01*
X156788052Y-74075310D01*
X156842405Y-74254486D01*
X156842406Y-74254488D01*
X156930659Y-74419599D01*
X156930662Y-74419604D01*
X156930664Y-74419607D01*
X156980195Y-74479960D01*
X157049438Y-74564334D01*
X157049447Y-74564343D01*
X157104545Y-74609560D01*
X157194175Y-74683118D01*
X157359299Y-74771378D01*
X157538469Y-74825729D01*
X157538471Y-74825729D01*
X157538474Y-74825730D01*
X157724796Y-74844081D01*
X157724800Y-74844081D01*
X157724804Y-74844081D01*
X157911125Y-74825730D01*
X157911126Y-74825729D01*
X157911131Y-74825729D01*
X158090301Y-74771378D01*
X158255425Y-74683118D01*
X158400157Y-74564339D01*
X158518936Y-74419607D01*
X158607196Y-74254483D01*
X158661547Y-74075313D01*
X158678905Y-73899071D01*
X158683021Y-73889660D01*
X158678897Y-73878813D01*
X158677776Y-73867433D01*
X158670830Y-73796912D01*
X158661548Y-73702656D01*
X158661547Y-73702653D01*
X158661547Y-73702651D01*
X158607196Y-73523481D01*
X158597903Y-73506095D01*
X158518940Y-73358364D01*
X158518938Y-73358362D01*
X158518936Y-73358357D01*
X158455555Y-73281127D01*
X158400161Y-73213629D01*
X158400152Y-73213620D01*
X158315778Y-73144377D01*
X158255425Y-73094846D01*
X158255422Y-73094844D01*
X158255417Y-73094841D01*
X158090306Y-73006588D01*
X158090304Y-73006587D01*
X158059824Y-72997341D01*
X157911131Y-72952235D01*
X157911128Y-72952234D01*
X157911125Y-72952233D01*
X157724804Y-72933883D01*
X157724796Y-72933883D01*
X157538474Y-72952233D01*
X157538471Y-72952234D01*
X157359295Y-73006587D01*
X157359293Y-73006588D01*
X157194182Y-73094841D01*
X157194176Y-73094845D01*
X157049447Y-73213620D01*
X157049438Y-73213629D01*
X156930663Y-73358358D01*
X156930659Y-73358364D01*
X156842406Y-73523475D01*
X156842405Y-73523477D01*
X156788052Y-73702653D01*
X156788051Y-73702656D01*
X156769701Y-73888977D01*
X155850300Y-73888977D01*
X155850300Y-70738666D01*
X155869207Y-70680475D01*
X155889033Y-70660124D01*
X155922843Y-70634181D01*
X155930418Y-70624309D01*
X156774300Y-70624309D01*
X156774300Y-72073654D01*
X156774301Y-72073666D01*
X156788833Y-72146718D01*
X156788835Y-72146724D01*
X156844197Y-72229581D01*
X156844199Y-72229583D01*
X156927060Y-72284948D01*
X156982608Y-72295997D01*
X157000115Y-72299480D01*
X157000120Y-72299480D01*
X157000126Y-72299482D01*
X157000127Y-72299482D01*
X158449473Y-72299482D01*
X158449474Y-72299482D01*
X158522540Y-72284948D01*
X158605401Y-72229583D01*
X158660766Y-72146722D01*
X158675300Y-72073656D01*
X158675300Y-70624308D01*
X158660766Y-70551242D01*
X158605401Y-70468381D01*
X158605399Y-70468379D01*
X158522542Y-70413017D01*
X158522540Y-70413016D01*
X158522537Y-70413015D01*
X158522536Y-70413015D01*
X158449484Y-70398483D01*
X158449474Y-70398482D01*
X157000126Y-70398482D01*
X157000125Y-70398482D01*
X157000115Y-70398483D01*
X156927063Y-70413015D01*
X156927057Y-70413017D01*
X156844200Y-70468379D01*
X156844197Y-70468382D01*
X156788835Y-70551239D01*
X156788833Y-70551245D01*
X156774301Y-70624297D01*
X156774300Y-70624309D01*
X155930418Y-70624309D01*
X156011083Y-70519185D01*
X156066552Y-70385269D01*
X156085472Y-70241560D01*
X156066552Y-70097851D01*
X156011083Y-69963935D01*
X155922843Y-69848939D01*
X155807847Y-69760699D01*
X155807843Y-69760697D01*
X155673931Y-69705230D01*
X155673930Y-69705229D01*
X155530222Y-69686310D01*
X155386513Y-69705229D01*
X155386512Y-69705230D01*
X155252600Y-69760697D01*
X155252596Y-69760699D01*
X155137603Y-69848937D01*
X155137599Y-69848941D01*
X155049361Y-69963934D01*
X155049359Y-69963938D01*
X154993892Y-70097850D01*
X154993891Y-70097851D01*
X154974972Y-70241559D01*
X154974972Y-70241560D01*
X154993891Y-70385268D01*
X154993892Y-70385269D01*
X155028317Y-70468381D01*
X155049361Y-70519185D01*
X155128842Y-70622767D01*
X155149266Y-70680441D01*
X155149300Y-70683033D01*
X155149300Y-71115730D01*
X155130393Y-71173921D01*
X155080893Y-71209885D01*
X155019707Y-71209885D01*
X154970207Y-71173921D01*
X154958836Y-71153615D01*
X154949396Y-71130825D01*
X154949390Y-71130814D01*
X154914017Y-71077876D01*
X154861789Y-70999711D01*
X154750289Y-70888211D01*
X154698059Y-70853312D01*
X154619185Y-70800609D01*
X154619174Y-70800603D01*
X154473497Y-70740263D01*
X154318844Y-70709500D01*
X154318842Y-70709500D01*
X154161158Y-70709500D01*
X154161155Y-70709500D01*
X154006503Y-70740263D01*
X154006501Y-70740263D01*
X153860825Y-70800603D01*
X153860814Y-70800609D01*
X153729711Y-70888211D01*
X153729707Y-70888214D01*
X153618214Y-70999707D01*
X153618211Y-70999711D01*
X153530609Y-71130814D01*
X153530603Y-71130825D01*
X153470263Y-71276501D01*
X153470263Y-71276503D01*
X153439500Y-71431155D01*
X146400499Y-71431155D01*
X146369737Y-71276503D01*
X146342143Y-71209885D01*
X146309396Y-71130825D01*
X146309390Y-71130814D01*
X146274017Y-71077876D01*
X146221789Y-70999711D01*
X146110289Y-70888211D01*
X146058059Y-70853312D01*
X145979185Y-70800609D01*
X145979174Y-70800603D01*
X145833497Y-70740263D01*
X145678844Y-70709500D01*
X145678842Y-70709500D01*
X145521158Y-70709500D01*
X145521155Y-70709500D01*
X145366503Y-70740263D01*
X145366501Y-70740263D01*
X145220825Y-70800603D01*
X145220814Y-70800609D01*
X145089711Y-70888211D01*
X145089707Y-70888214D01*
X144978214Y-70999707D01*
X144978211Y-70999711D01*
X144890609Y-71130814D01*
X144890603Y-71130825D01*
X144830263Y-71276501D01*
X144830263Y-71276503D01*
X144799500Y-71431155D01*
X144799500Y-72188844D01*
X144830263Y-72343496D01*
X144830263Y-72343498D01*
X144890603Y-72489174D01*
X144890609Y-72489185D01*
X144931979Y-72551098D01*
X144948588Y-72609986D01*
X144927411Y-72667390D01*
X144876538Y-72701383D01*
X144849664Y-72705100D01*
X143272038Y-72705100D01*
X143182894Y-72728986D01*
X143102967Y-72775132D01*
X142908534Y-72969564D01*
X142854018Y-72997341D01*
X142809793Y-72994297D01*
X142671131Y-72952234D01*
X142671125Y-72952233D01*
X142484804Y-72933883D01*
X142484796Y-72933883D01*
X142298474Y-72952233D01*
X142298471Y-72952234D01*
X142119295Y-73006587D01*
X142119293Y-73006588D01*
X141954182Y-73094841D01*
X141954176Y-73094845D01*
X141809447Y-73213620D01*
X141809438Y-73213629D01*
X141690663Y-73358358D01*
X141690659Y-73358364D01*
X141602406Y-73523475D01*
X141602405Y-73523477D01*
X141548052Y-73702653D01*
X141548051Y-73702655D01*
X141531823Y-73867433D01*
X141523058Y-73887471D01*
X141342374Y-73887471D01*
X141334300Y-73857729D01*
X141334300Y-70624309D01*
X141534300Y-70624309D01*
X141534300Y-72073654D01*
X141534301Y-72073666D01*
X141548833Y-72146718D01*
X141548835Y-72146724D01*
X141604197Y-72229581D01*
X141604199Y-72229583D01*
X141687060Y-72284948D01*
X141742608Y-72295997D01*
X141760115Y-72299480D01*
X141760120Y-72299480D01*
X141760126Y-72299482D01*
X141760127Y-72299482D01*
X143209473Y-72299482D01*
X143209474Y-72299482D01*
X143282540Y-72284948D01*
X143365401Y-72229583D01*
X143420766Y-72146722D01*
X143435300Y-72073656D01*
X143435300Y-70624308D01*
X143420766Y-70551242D01*
X143365401Y-70468381D01*
X143365399Y-70468379D01*
X143282542Y-70413017D01*
X143282540Y-70413016D01*
X143282537Y-70413015D01*
X143282536Y-70413015D01*
X143209484Y-70398483D01*
X143209474Y-70398482D01*
X141760126Y-70398482D01*
X141760125Y-70398482D01*
X141760115Y-70398483D01*
X141687063Y-70413015D01*
X141687057Y-70413017D01*
X141604200Y-70468379D01*
X141604197Y-70468382D01*
X141548835Y-70551239D01*
X141548833Y-70551245D01*
X141534301Y-70624297D01*
X141534300Y-70624309D01*
X141334300Y-70624309D01*
X141334300Y-68174504D01*
X141334301Y-68174501D01*
X141334300Y-68112926D01*
X141334677Y-68104299D01*
X141340064Y-68042721D01*
X141349094Y-67939510D01*
X141352086Y-67922535D01*
X141393783Y-67766921D01*
X141399676Y-67750729D01*
X141467761Y-67604727D01*
X141476386Y-67589791D01*
X141476405Y-67589764D01*
X141568781Y-67457842D01*
X141579864Y-67444633D01*
X141693782Y-67330723D01*
X141706981Y-67319648D01*
X141838945Y-67227253D01*
X141853883Y-67218630D01*
X141999875Y-67150560D01*
X142016083Y-67144661D01*
X142171687Y-67102977D01*
X142188662Y-67099984D01*
X142354472Y-67085488D01*
X142363070Y-67085113D01*
X142423659Y-67085118D01*
X142423664Y-67085116D01*
X142429991Y-67085117D01*
X142430070Y-67085113D01*
X144862885Y-67085113D01*
X144921076Y-67104020D01*
G37*
%TD.AperFunction*%
%TD*%
M02*
