%TF.GenerationSoftware,KiCad,Pcbnew,8.0.8*%
%TF.CreationDate,2025-03-31T18:12:56-07:00*%
%TF.ProjectId,stoplight,73746f70-6c69-4676-9874-2e6b69636164,0.1*%
%TF.SameCoordinates,Original*%
%TF.FileFunction,Copper,L2,Inr*%
%TF.FilePolarity,Positive*%
%FSLAX46Y46*%
G04 Gerber Fmt 4.6, Leading zero omitted, Abs format (unit mm)*
G04 Created by KiCad (PCBNEW 8.0.8) date 2025-03-31 18:12:56*
%MOMM*%
%LPD*%
G01*
G04 APERTURE LIST*
G04 Aperture macros list*
%AMRoundRect*
0 Rectangle with rounded corners*
0 $1 Rounding radius*
0 $2 $3 $4 $5 $6 $7 $8 $9 X,Y pos of 4 corners*
0 Add a 4 corners polygon primitive as box body*
4,1,4,$2,$3,$4,$5,$6,$7,$8,$9,$2,$3,0*
0 Add four circle primitives for the rounded corners*
1,1,$1+$1,$2,$3*
1,1,$1+$1,$4,$5*
1,1,$1+$1,$6,$7*
1,1,$1+$1,$8,$9*
0 Add four rect primitives between the rounded corners*
20,1,$1+$1,$2,$3,$4,$5,0*
20,1,$1+$1,$4,$5,$6,$7,0*
20,1,$1+$1,$6,$7,$8,$9,0*
20,1,$1+$1,$8,$9,$2,$3,0*%
G04 Aperture macros list end*
%TA.AperFunction,ComponentPad*%
%ADD10RoundRect,0.250000X0.600000X0.725000X-0.600000X0.725000X-0.600000X-0.725000X0.600000X-0.725000X0*%
%TD*%
%TA.AperFunction,ComponentPad*%
%ADD11O,1.700000X1.950000*%
%TD*%
%TA.AperFunction,ComponentPad*%
%ADD12R,1.400000X1.400000*%
%TD*%
%TA.AperFunction,ComponentPad*%
%ADD13C,1.400000*%
%TD*%
%TA.AperFunction,ComponentPad*%
%ADD14O,1.100000X1.700000*%
%TD*%
%TA.AperFunction,ViaPad*%
%ADD15C,0.600000*%
%TD*%
%TA.AperFunction,ViaPad*%
%ADD16C,0.500000*%
%TD*%
%TA.AperFunction,Conductor*%
%ADD17C,0.200000*%
%TD*%
%TA.AperFunction,Conductor*%
%ADD18C,0.600000*%
%TD*%
%TA.AperFunction,Conductor*%
%ADD19C,0.500000*%
%TD*%
G04 APERTURE END LIST*
D10*
%TO.N,/A2*%
%TO.C,J1*%
X154000000Y-94300000D03*
D11*
%TO.N,/A1*%
X151500000Y-94300000D03*
%TO.N,/B1*%
X149000000Y-94300000D03*
%TO.N,/B2*%
X146500000Y-94300000D03*
%TD*%
D12*
%TO.N,/LED*%
%TO.C,H1*%
X142484800Y-71348982D03*
D13*
%TO.N,/INDEX*%
X142484800Y-73888982D03*
%TO.N,/DIAG*%
X142484800Y-76428982D03*
%TO.N,unconnected-(H1-Pad4)*%
X142484800Y-78968982D03*
%TO.N,/SDA*%
X142484800Y-81508982D03*
%TO.N,/SCL*%
X142484800Y-84048982D03*
%TO.N,Net-(H1-Pad7)*%
X142484800Y-86588982D03*
%TD*%
D12*
%TO.N,+5V*%
%TO.C,H2*%
X157724800Y-71348982D03*
D13*
%TO.N,GND*%
X157724800Y-73888982D03*
%TO.N,+3V3*%
X157724800Y-76428982D03*
%TO.N,/1-WIRE*%
X157724800Y-78968982D03*
%TO.N,/TACH*%
X157724800Y-81508982D03*
%TO.N,/PWM*%
X157724800Y-84048982D03*
%TO.N,/UART*%
X157724800Y-86588982D03*
%TD*%
D14*
%TO.N,GND*%
%TO.C,USB1*%
X154240000Y-71810000D03*
X154240000Y-68000000D03*
X145600000Y-71810000D03*
X145600000Y-68000000D03*
%TD*%
D15*
%TO.N,+3V3*%
X157400000Y-89400000D03*
X156000000Y-89400000D03*
X144771624Y-82417200D03*
X145659800Y-69813800D03*
X156708800Y-89400000D03*
X154988869Y-85906075D03*
X156000000Y-90100000D03*
X157400000Y-88700000D03*
X156010000Y-88701200D03*
X158500000Y-69400000D03*
X156708800Y-90101200D03*
X157400000Y-90100000D03*
X156708800Y-88701200D03*
%TO.N,VM*%
X153242473Y-89904461D03*
X156800000Y-94900000D03*
X147234613Y-76040153D03*
X155946800Y-82524982D03*
X146625617Y-76040153D03*
X146907600Y-78068800D03*
X144100000Y-94600000D03*
X146294800Y-79846800D03*
X147666400Y-77800000D03*
X152760639Y-81924982D03*
X152800000Y-81150000D03*
X147100000Y-89900000D03*
X147666400Y-78450000D03*
%TO.N,/SCL*%
X147971200Y-74855603D03*
%TO.N,/INDEX*%
X148200000Y-76900000D03*
D16*
%TO.N,/DIAG*%
X146158325Y-78101838D03*
D15*
%TO.N,/SDA*%
X147971200Y-74055600D03*
%TO.N,/1-WIRE*%
X155530222Y-70241560D03*
%TO.N,/UART*%
X154168780Y-83492983D03*
X143754800Y-88874982D03*
%TO.N,/A2*%
X154300000Y-89900000D03*
%TO.N,/B2*%
X146100000Y-89900000D03*
%TO.N,GND*%
X151628800Y-85688800D03*
X150200000Y-92400000D03*
X151613725Y-84454177D03*
X152700000Y-93300000D03*
X147700000Y-93300000D03*
X148850000Y-84350000D03*
X149550000Y-84350000D03*
X151628800Y-85064982D03*
%TD*%
D17*
%TO.N,/UART*%
X154814982Y-86588982D02*
X157724800Y-86588982D01*
X154168780Y-85942780D02*
X154814982Y-86588982D01*
X154168780Y-83492983D02*
X154168780Y-85942780D01*
D18*
%TO.N,/B2*%
X146100000Y-89900000D02*
X146100000Y-93600000D01*
D19*
X146100000Y-93600000D02*
X146581982Y-94081982D01*
D18*
%TO.N,/A2*%
X154300000Y-89900000D02*
X154300000Y-93700000D01*
D19*
X154300000Y-93700000D02*
X154000000Y-94000000D01*
%TD*%
%TA.AperFunction,Conductor*%
%TO.N,VM*%
G36*
X144921076Y-67104020D02*
G01*
X144957040Y-67153520D01*
X144957040Y-67214706D01*
X144945200Y-67239115D01*
X144890609Y-67320813D01*
X144890603Y-67320825D01*
X144830263Y-67466501D01*
X144830263Y-67466503D01*
X144799500Y-67621155D01*
X144799500Y-68378844D01*
X144830263Y-68533496D01*
X144830263Y-68533498D01*
X144890603Y-68679174D01*
X144890609Y-68679185D01*
X144943312Y-68758059D01*
X144978211Y-68810289D01*
X145089711Y-68921789D01*
X145167876Y-68974017D01*
X145220814Y-69009390D01*
X145220825Y-69009396D01*
X145274638Y-69031685D01*
X145366503Y-69069737D01*
X145486283Y-69093563D01*
X145539666Y-69123459D01*
X145565282Y-69179024D01*
X145553345Y-69239033D01*
X145508416Y-69280566D01*
X145504854Y-69282124D01*
X145382175Y-69332938D01*
X145382174Y-69332939D01*
X145267181Y-69421177D01*
X145267177Y-69421181D01*
X145178939Y-69536174D01*
X145178937Y-69536178D01*
X145123470Y-69670090D01*
X145123469Y-69670091D01*
X145104550Y-69813799D01*
X145104550Y-69813800D01*
X145123469Y-69957508D01*
X145123470Y-69957509D01*
X145133053Y-69980646D01*
X145178939Y-70091425D01*
X145267179Y-70206421D01*
X145382175Y-70294661D01*
X145516091Y-70350130D01*
X145659800Y-70369050D01*
X145803509Y-70350130D01*
X145937425Y-70294661D01*
X146006629Y-70241559D01*
X154974972Y-70241559D01*
X154974972Y-70241560D01*
X154993891Y-70385268D01*
X154993892Y-70385269D01*
X155028317Y-70468381D01*
X155049361Y-70519185D01*
X155137601Y-70634181D01*
X155252597Y-70722421D01*
X155386513Y-70777890D01*
X155530222Y-70796810D01*
X155673931Y-70777890D01*
X155807847Y-70722421D01*
X155922843Y-70634181D01*
X155930418Y-70624309D01*
X156774300Y-70624309D01*
X156774300Y-72073654D01*
X156774301Y-72073666D01*
X156788833Y-72146718D01*
X156788835Y-72146724D01*
X156844197Y-72229581D01*
X156844199Y-72229583D01*
X156927060Y-72284948D01*
X156982608Y-72295997D01*
X157000115Y-72299480D01*
X157000120Y-72299480D01*
X157000126Y-72299482D01*
X157000127Y-72299482D01*
X158449473Y-72299482D01*
X158449474Y-72299482D01*
X158522540Y-72284948D01*
X158605401Y-72229583D01*
X158660766Y-72146722D01*
X158675300Y-72073656D01*
X158675300Y-70624308D01*
X158660766Y-70551242D01*
X158605401Y-70468381D01*
X158605399Y-70468379D01*
X158522542Y-70413017D01*
X158522540Y-70413016D01*
X158522537Y-70413015D01*
X158522536Y-70413015D01*
X158449484Y-70398483D01*
X158449474Y-70398482D01*
X157000126Y-70398482D01*
X157000125Y-70398482D01*
X157000115Y-70398483D01*
X156927063Y-70413015D01*
X156927057Y-70413017D01*
X156844200Y-70468379D01*
X156844197Y-70468382D01*
X156788835Y-70551239D01*
X156788833Y-70551245D01*
X156774301Y-70624297D01*
X156774300Y-70624309D01*
X155930418Y-70624309D01*
X156011083Y-70519185D01*
X156066552Y-70385269D01*
X156085472Y-70241560D01*
X156066552Y-70097851D01*
X156011083Y-69963935D01*
X155922843Y-69848939D01*
X155807847Y-69760699D01*
X155807843Y-69760697D01*
X155673931Y-69705230D01*
X155673930Y-69705229D01*
X155530222Y-69686310D01*
X155386513Y-69705229D01*
X155386512Y-69705230D01*
X155252600Y-69760697D01*
X155252596Y-69760699D01*
X155137603Y-69848937D01*
X155137599Y-69848941D01*
X155049361Y-69963934D01*
X155049359Y-69963938D01*
X154993892Y-70097850D01*
X154993891Y-70097851D01*
X154974972Y-70241559D01*
X146006629Y-70241559D01*
X146052421Y-70206421D01*
X146140661Y-70091425D01*
X146196130Y-69957509D01*
X146215050Y-69813800D01*
X146196130Y-69670091D01*
X146140661Y-69536175D01*
X146052421Y-69421179D01*
X145937425Y-69332939D01*
X145937423Y-69332938D01*
X145937421Y-69332937D01*
X145803509Y-69277470D01*
X145803510Y-69277470D01*
X145787636Y-69275380D01*
X145732412Y-69249036D01*
X145703219Y-69195265D01*
X145711208Y-69134603D01*
X145753327Y-69090222D01*
X145781243Y-69080130D01*
X145833497Y-69069737D01*
X145979179Y-69009394D01*
X146110289Y-68921789D01*
X146221789Y-68810289D01*
X146309394Y-68679179D01*
X146369737Y-68533497D01*
X146400500Y-68378842D01*
X146400500Y-67621158D01*
X146369737Y-67466503D01*
X146349622Y-67417942D01*
X146309396Y-67320825D01*
X146309390Y-67320813D01*
X146254800Y-67239115D01*
X146238191Y-67180227D01*
X146259368Y-67122823D01*
X146310242Y-67088830D01*
X146337115Y-67085113D01*
X153502885Y-67085113D01*
X153561076Y-67104020D01*
X153597040Y-67153520D01*
X153597040Y-67214706D01*
X153585200Y-67239115D01*
X153530609Y-67320813D01*
X153530603Y-67320825D01*
X153470263Y-67466501D01*
X153470263Y-67466503D01*
X153439500Y-67621155D01*
X153439500Y-68378844D01*
X153470263Y-68533496D01*
X153470263Y-68533498D01*
X153530603Y-68679174D01*
X153530609Y-68679185D01*
X153583312Y-68758059D01*
X153618211Y-68810289D01*
X153729711Y-68921789D01*
X153807876Y-68974017D01*
X153860814Y-69009390D01*
X153860825Y-69009396D01*
X153914638Y-69031685D01*
X154006503Y-69069737D01*
X154161158Y-69100500D01*
X154161159Y-69100500D01*
X154318841Y-69100500D01*
X154318842Y-69100500D01*
X154473497Y-69069737D01*
X154619179Y-69009394D01*
X154750289Y-68921789D01*
X154861789Y-68810289D01*
X154949394Y-68679179D01*
X155009737Y-68533497D01*
X155040500Y-68378842D01*
X155040500Y-67621158D01*
X155009737Y-67466503D01*
X154989622Y-67417942D01*
X154949396Y-67320825D01*
X154949390Y-67320813D01*
X154894800Y-67239115D01*
X154878191Y-67180227D01*
X154899368Y-67122823D01*
X154950242Y-67088830D01*
X154977115Y-67085113D01*
X157785908Y-67085113D01*
X157847481Y-67085113D01*
X157856109Y-67085490D01*
X158020903Y-67099907D01*
X158037883Y-67102900D01*
X158193496Y-67144597D01*
X158209702Y-67150496D01*
X158355699Y-67218577D01*
X158370637Y-67227201D01*
X158370715Y-67227256D01*
X158502592Y-67319597D01*
X158515812Y-67330690D01*
X158629715Y-67444594D01*
X158640807Y-67457813D01*
X158733199Y-67589764D01*
X158741828Y-67604709D01*
X158809906Y-67750704D01*
X158815808Y-67766921D01*
X158857497Y-67922516D01*
X158860493Y-67939510D01*
X158874922Y-68104448D01*
X158875299Y-68113076D01*
X158875299Y-68180673D01*
X158875313Y-68180896D01*
X158875436Y-68811471D01*
X158856540Y-68869665D01*
X158807047Y-68905639D01*
X158745862Y-68905651D01*
X158738551Y-68902954D01*
X158643709Y-68863670D01*
X158643708Y-68863669D01*
X158500000Y-68844750D01*
X158356291Y-68863669D01*
X158356290Y-68863670D01*
X158222378Y-68919137D01*
X158222374Y-68919139D01*
X158107381Y-69007377D01*
X158107377Y-69007381D01*
X158019139Y-69122374D01*
X158019137Y-69122378D01*
X157963670Y-69256290D01*
X157963669Y-69256291D01*
X157944750Y-69399999D01*
X157944750Y-69400000D01*
X157963669Y-69543708D01*
X157963670Y-69543709D01*
X158019139Y-69677625D01*
X158107379Y-69792621D01*
X158222375Y-69880861D01*
X158356291Y-69936330D01*
X158500000Y-69955250D01*
X158643709Y-69936330D01*
X158738782Y-69896949D01*
X158799776Y-69892149D01*
X158851945Y-69924119D01*
X158875360Y-69980646D01*
X158875665Y-69988395D01*
X158876421Y-73869097D01*
X158870561Y-73887142D01*
X158876429Y-73908749D01*
X158876917Y-76414131D01*
X158872542Y-76427603D01*
X158876923Y-76443735D01*
X158877413Y-78959165D01*
X158874522Y-78968066D01*
X158877416Y-78978721D01*
X158880580Y-95218063D01*
X158880203Y-95226708D01*
X158865711Y-95392395D01*
X158862715Y-95409391D01*
X158820785Y-95565883D01*
X158814883Y-95582099D01*
X158746418Y-95728928D01*
X158737790Y-95743873D01*
X158644867Y-95876584D01*
X158633774Y-95889804D01*
X158519221Y-96004360D01*
X158506002Y-96015453D01*
X158373289Y-96108381D01*
X158358344Y-96117009D01*
X158211521Y-96185475D01*
X158195304Y-96191378D01*
X158038810Y-96233311D01*
X158021816Y-96236307D01*
X157856463Y-96250774D01*
X157847834Y-96251151D01*
X142456439Y-96251151D01*
X142430818Y-96247778D01*
X142423694Y-96245869D01*
X142423692Y-96245869D01*
X142362119Y-96245869D01*
X142353491Y-96245492D01*
X142248506Y-96236307D01*
X142188705Y-96231075D01*
X142171711Y-96228079D01*
X142016113Y-96186386D01*
X141999896Y-96180483D01*
X141853907Y-96112406D01*
X141838965Y-96103780D01*
X141707008Y-96011380D01*
X141693796Y-96000293D01*
X141579890Y-95886384D01*
X141568802Y-95873169D01*
X141476410Y-95741214D01*
X141467782Y-95726270D01*
X141399708Y-95580281D01*
X141393806Y-95564064D01*
X141383473Y-95525498D01*
X141352117Y-95408467D01*
X141349122Y-95391475D01*
X141334677Y-95226327D01*
X141334300Y-95217698D01*
X141334302Y-95156487D01*
X141334300Y-95156482D01*
X141334301Y-95150435D01*
X141334300Y-95150401D01*
X141334300Y-94088385D01*
X145399500Y-94088385D01*
X145399500Y-94511614D01*
X145426597Y-94682702D01*
X145426598Y-94682706D01*
X145480123Y-94847438D01*
X145480125Y-94847441D01*
X145480126Y-94847444D01*
X145480127Y-94847445D01*
X145558768Y-95001788D01*
X145660586Y-95141928D01*
X145783072Y-95264414D01*
X145923212Y-95366232D01*
X146077555Y-95444873D01*
X146077557Y-95444873D01*
X146077558Y-95444874D01*
X146077561Y-95444876D01*
X146242293Y-95498401D01*
X146242297Y-95498402D01*
X146413386Y-95525500D01*
X146413389Y-95525500D01*
X146586614Y-95525500D01*
X146757702Y-95498402D01*
X146757706Y-95498401D01*
X146922438Y-95444876D01*
X146922440Y-95444874D01*
X146922445Y-95444873D01*
X147076788Y-95366232D01*
X147216928Y-95264414D01*
X147339414Y-95141928D01*
X147441232Y-95001788D01*
X147519873Y-94847445D01*
X147519874Y-94847440D01*
X147519876Y-94847438D01*
X147573401Y-94682706D01*
X147573402Y-94682702D01*
X147600500Y-94511614D01*
X147600500Y-94088385D01*
X147581409Y-93967851D01*
X147590980Y-93907419D01*
X147634245Y-93864154D01*
X147692112Y-93854211D01*
X147700000Y-93855250D01*
X147810018Y-93840765D01*
X147870177Y-93851915D01*
X147912295Y-93896297D01*
X147920720Y-93954405D01*
X147899500Y-94088385D01*
X147899500Y-94511614D01*
X147926597Y-94682702D01*
X147926598Y-94682706D01*
X147980123Y-94847438D01*
X147980125Y-94847441D01*
X147980126Y-94847444D01*
X147980127Y-94847445D01*
X148058768Y-95001788D01*
X148160586Y-95141928D01*
X148283072Y-95264414D01*
X148423212Y-95366232D01*
X148577555Y-95444873D01*
X148577557Y-95444873D01*
X148577558Y-95444874D01*
X148577561Y-95444876D01*
X148742293Y-95498401D01*
X148742297Y-95498402D01*
X148913386Y-95525500D01*
X148913389Y-95525500D01*
X149086614Y-95525500D01*
X149257702Y-95498402D01*
X149257706Y-95498401D01*
X149422438Y-95444876D01*
X149422440Y-95444874D01*
X149422445Y-95444873D01*
X149576788Y-95366232D01*
X149716928Y-95264414D01*
X149839414Y-95141928D01*
X149941232Y-95001788D01*
X150019873Y-94847445D01*
X150019874Y-94847440D01*
X150019876Y-94847438D01*
X150073401Y-94682706D01*
X150073402Y-94682702D01*
X150100500Y-94511614D01*
X150100500Y-94088385D01*
X150399500Y-94088385D01*
X150399500Y-94511614D01*
X150426597Y-94682702D01*
X150426598Y-94682706D01*
X150480123Y-94847438D01*
X150480125Y-94847441D01*
X150480126Y-94847444D01*
X150480127Y-94847445D01*
X150558768Y-95001788D01*
X150660586Y-95141928D01*
X150783072Y-95264414D01*
X150923212Y-95366232D01*
X151077555Y-95444873D01*
X151077557Y-95444873D01*
X151077558Y-95444874D01*
X151077561Y-95444876D01*
X151242293Y-95498401D01*
X151242297Y-95498402D01*
X151413386Y-95525500D01*
X151413389Y-95525500D01*
X151586614Y-95525500D01*
X151757702Y-95498402D01*
X151757706Y-95498401D01*
X151922438Y-95444876D01*
X151922440Y-95444874D01*
X151922445Y-95444873D01*
X152076788Y-95366232D01*
X152216928Y-95264414D01*
X152339414Y-95141928D01*
X152441232Y-95001788D01*
X152519873Y-94847445D01*
X152519874Y-94847440D01*
X152519876Y-94847438D01*
X152573401Y-94682706D01*
X152573402Y-94682702D01*
X152600500Y-94511614D01*
X152600500Y-94088385D01*
X152581409Y-93967851D01*
X152590980Y-93907419D01*
X152634245Y-93864154D01*
X152692112Y-93854211D01*
X152700000Y-93855250D01*
X152787580Y-93843719D01*
X152847738Y-93854869D01*
X152889855Y-93899250D01*
X152899500Y-93941872D01*
X152899500Y-95072866D01*
X152899501Y-95072870D01*
X152905908Y-95132480D01*
X152905909Y-95132485D01*
X152956202Y-95267329D01*
X153030241Y-95366232D01*
X153042454Y-95382546D01*
X153042457Y-95382548D01*
X153042458Y-95382549D01*
X153157670Y-95468797D01*
X153292511Y-95519089D01*
X153292512Y-95519089D01*
X153292517Y-95519091D01*
X153352127Y-95525500D01*
X154647872Y-95525499D01*
X154707483Y-95519091D01*
X154774907Y-95493943D01*
X154842329Y-95468797D01*
X154842329Y-95468796D01*
X154842331Y-95468796D01*
X154957546Y-95382546D01*
X155043796Y-95267331D01*
X155058948Y-95226708D01*
X155085141Y-95156479D01*
X155094091Y-95132483D01*
X155100500Y-95072873D01*
X155100499Y-93527128D01*
X155094091Y-93467517D01*
X155090568Y-93458072D01*
X155043797Y-93332670D01*
X154957549Y-93217458D01*
X154957548Y-93217457D01*
X154957546Y-93217454D01*
X154890170Y-93167016D01*
X154854918Y-93117007D01*
X154850500Y-93087763D01*
X154850500Y-89942567D01*
X154851347Y-89929644D01*
X154855250Y-89899999D01*
X154851347Y-89870353D01*
X154850500Y-89857431D01*
X154850500Y-89827525D01*
X154845876Y-89810270D01*
X154842755Y-89798623D01*
X154840231Y-89785929D01*
X154836330Y-89756291D01*
X154836329Y-89756288D01*
X154824887Y-89728666D01*
X154820725Y-89716408D01*
X154812984Y-89687515D01*
X154812983Y-89687513D01*
X154812982Y-89687510D01*
X154798035Y-89661623D01*
X154792306Y-89650007D01*
X154780861Y-89622375D01*
X154762650Y-89598641D01*
X154755464Y-89587888D01*
X154740509Y-89561985D01*
X154740507Y-89561983D01*
X154719359Y-89540834D01*
X154710822Y-89531099D01*
X154692620Y-89507378D01*
X154668895Y-89489173D01*
X154659159Y-89480635D01*
X154638015Y-89459491D01*
X154612114Y-89444536D01*
X154601350Y-89437343D01*
X154577626Y-89419139D01*
X154549994Y-89407693D01*
X154538385Y-89401968D01*
X154534974Y-89399999D01*
X155444750Y-89399999D01*
X155444750Y-89400000D01*
X155463669Y-89543708D01*
X155463670Y-89543709D01*
X155496253Y-89622374D01*
X155519139Y-89677625D01*
X155519141Y-89677627D01*
X155528431Y-89689735D01*
X155548853Y-89747412D01*
X155531473Y-89806077D01*
X155528431Y-89810265D01*
X155519139Y-89822375D01*
X155519137Y-89822378D01*
X155463670Y-89956290D01*
X155463669Y-89956291D01*
X155444750Y-90099999D01*
X155444750Y-90100000D01*
X155463669Y-90243708D01*
X155463670Y-90243709D01*
X155519139Y-90377625D01*
X155607379Y-90492621D01*
X155722375Y-90580861D01*
X155856291Y-90636330D01*
X156000000Y-90655250D01*
X156143709Y-90636330D01*
X156277625Y-90580861D01*
X156293350Y-90568794D01*
X156351025Y-90548370D01*
X156409691Y-90565747D01*
X156413886Y-90568795D01*
X156431169Y-90582057D01*
X156431171Y-90582058D01*
X156431175Y-90582061D01*
X156565091Y-90637530D01*
X156708800Y-90656450D01*
X156852509Y-90637530D01*
X156986425Y-90582061D01*
X156994910Y-90575549D01*
X157052582Y-90555122D01*
X157111249Y-90572495D01*
X157115444Y-90575542D01*
X157122375Y-90580861D01*
X157256291Y-90636330D01*
X157400000Y-90655250D01*
X157543709Y-90636330D01*
X157677625Y-90580861D01*
X157792621Y-90492621D01*
X157880861Y-90377625D01*
X157936330Y-90243709D01*
X157955250Y-90100000D01*
X157936330Y-89956291D01*
X157880861Y-89822375D01*
X157871571Y-89810269D01*
X157851146Y-89752594D01*
X157868522Y-89693928D01*
X157871565Y-89689739D01*
X157880861Y-89677625D01*
X157936330Y-89543709D01*
X157955250Y-89400000D01*
X157953540Y-89387015D01*
X157936330Y-89256291D01*
X157880861Y-89122375D01*
X157871571Y-89110269D01*
X157851146Y-89052594D01*
X157868522Y-88993928D01*
X157871572Y-88989730D01*
X157880859Y-88977627D01*
X157880861Y-88977625D01*
X157936330Y-88843709D01*
X157955250Y-88700000D01*
X157936330Y-88556291D01*
X157880861Y-88422375D01*
X157792621Y-88307379D01*
X157677625Y-88219139D01*
X157677621Y-88219137D01*
X157543709Y-88163670D01*
X157543708Y-88163669D01*
X157400000Y-88144750D01*
X157256291Y-88163669D01*
X157256290Y-88163670D01*
X157122378Y-88219137D01*
X157122370Y-88219141D01*
X157113882Y-88225655D01*
X157056206Y-88246077D01*
X156997541Y-88228697D01*
X156993354Y-88225655D01*
X156986429Y-88220341D01*
X156986421Y-88220337D01*
X156852509Y-88164870D01*
X156852508Y-88164869D01*
X156708800Y-88145950D01*
X156565091Y-88164869D01*
X156565090Y-88164870D01*
X156431178Y-88220337D01*
X156431174Y-88220339D01*
X156419666Y-88229170D01*
X156361989Y-88249593D01*
X156303324Y-88232214D01*
X156299134Y-88229170D01*
X156287625Y-88220339D01*
X156287621Y-88220337D01*
X156153709Y-88164870D01*
X156153708Y-88164869D01*
X156010000Y-88145950D01*
X155866291Y-88164869D01*
X155866290Y-88164870D01*
X155732378Y-88220337D01*
X155732374Y-88220339D01*
X155617381Y-88308577D01*
X155617377Y-88308581D01*
X155529139Y-88423574D01*
X155529137Y-88423578D01*
X155473670Y-88557490D01*
X155473669Y-88557491D01*
X155454750Y-88701199D01*
X155454750Y-88701200D01*
X155473669Y-88844908D01*
X155473670Y-88844909D01*
X155529137Y-88978821D01*
X155529139Y-88978825D01*
X155532969Y-88983816D01*
X155553393Y-89041492D01*
X155536016Y-89100158D01*
X155532970Y-89104350D01*
X155519139Y-89122374D01*
X155519137Y-89122378D01*
X155463670Y-89256290D01*
X155463669Y-89256291D01*
X155444750Y-89399999D01*
X154534974Y-89399999D01*
X154512487Y-89387017D01*
X154512486Y-89387016D01*
X154512485Y-89387016D01*
X154483586Y-89379272D01*
X154471335Y-89375113D01*
X154443709Y-89363670D01*
X154443707Y-89363669D01*
X154443705Y-89363669D01*
X154414064Y-89359767D01*
X154401365Y-89357241D01*
X154396144Y-89355842D01*
X154372475Y-89349500D01*
X154372474Y-89349500D01*
X154342568Y-89349500D01*
X154329646Y-89348653D01*
X154300000Y-89344750D01*
X154270354Y-89348653D01*
X154257432Y-89349500D01*
X154227525Y-89349500D01*
X154220815Y-89351297D01*
X154198631Y-89357241D01*
X154185938Y-89359766D01*
X154156290Y-89363670D01*
X154156284Y-89363672D01*
X154128656Y-89375115D01*
X154116398Y-89379276D01*
X154087517Y-89387015D01*
X154087512Y-89387017D01*
X154061622Y-89401964D01*
X154050014Y-89407689D01*
X154022374Y-89419138D01*
X153998641Y-89437348D01*
X153987885Y-89444535D01*
X153961985Y-89459490D01*
X153940840Y-89480635D01*
X153931108Y-89489170D01*
X153907382Y-89507376D01*
X153907376Y-89507382D01*
X153889170Y-89531108D01*
X153880635Y-89540840D01*
X153859490Y-89561985D01*
X153844535Y-89587885D01*
X153837348Y-89598641D01*
X153819138Y-89622374D01*
X153807689Y-89650014D01*
X153801964Y-89661622D01*
X153787017Y-89687512D01*
X153787015Y-89687517D01*
X153779276Y-89716398D01*
X153775115Y-89728656D01*
X153763672Y-89756284D01*
X153763670Y-89756290D01*
X153759766Y-89785938D01*
X153757241Y-89798631D01*
X153749501Y-89827521D01*
X153749500Y-89827525D01*
X153749500Y-89857431D01*
X153748653Y-89870353D01*
X153744750Y-89899999D01*
X153748653Y-89929644D01*
X153749500Y-89942567D01*
X153749500Y-92975500D01*
X153730593Y-93033691D01*
X153681093Y-93069655D01*
X153650500Y-93074500D01*
X153352133Y-93074500D01*
X153352129Y-93074500D01*
X153352128Y-93074501D01*
X153292517Y-93080909D01*
X153286359Y-93081571D01*
X153286150Y-93079633D01*
X153233888Y-93075320D01*
X153187514Y-93035406D01*
X153181237Y-93023027D01*
X153180860Y-93022374D01*
X153144892Y-92975500D01*
X153092621Y-92907379D01*
X152977625Y-92819139D01*
X152977621Y-92819137D01*
X152843709Y-92763670D01*
X152843708Y-92763669D01*
X152700000Y-92744750D01*
X152556291Y-92763669D01*
X152556290Y-92763670D01*
X152422378Y-92819137D01*
X152422374Y-92819139D01*
X152307381Y-92907377D01*
X152307377Y-92907381D01*
X152219139Y-93022374D01*
X152219137Y-93022378D01*
X152163014Y-93157874D01*
X152123278Y-93204400D01*
X152063783Y-93218684D01*
X152026606Y-93208199D01*
X151922445Y-93155127D01*
X151922444Y-93155126D01*
X151922441Y-93155125D01*
X151922438Y-93155123D01*
X151757706Y-93101598D01*
X151757702Y-93101597D01*
X151586614Y-93074500D01*
X151586611Y-93074500D01*
X151413389Y-93074500D01*
X151413386Y-93074500D01*
X151242297Y-93101597D01*
X151242293Y-93101598D01*
X151077561Y-93155123D01*
X151077558Y-93155125D01*
X150923214Y-93233766D01*
X150783073Y-93335585D01*
X150660585Y-93458073D01*
X150558766Y-93598214D01*
X150480125Y-93752558D01*
X150480123Y-93752561D01*
X150426598Y-93917293D01*
X150426597Y-93917297D01*
X150399500Y-94088385D01*
X150100500Y-94088385D01*
X150073402Y-93917297D01*
X150073401Y-93917293D01*
X150019876Y-93752561D01*
X150019874Y-93752558D01*
X150019873Y-93752557D01*
X150019873Y-93752555D01*
X149941232Y-93598212D01*
X149839414Y-93458072D01*
X149716928Y-93335586D01*
X149576788Y-93233768D01*
X149576787Y-93233767D01*
X149576785Y-93233766D01*
X149424729Y-93156291D01*
X149422445Y-93155127D01*
X149422444Y-93155126D01*
X149422441Y-93155125D01*
X149422438Y-93155123D01*
X149257706Y-93101598D01*
X149257702Y-93101597D01*
X149086614Y-93074500D01*
X149086611Y-93074500D01*
X148913389Y-93074500D01*
X148913386Y-93074500D01*
X148742297Y-93101597D01*
X148742293Y-93101598D01*
X148577561Y-93155123D01*
X148577558Y-93155125D01*
X148423212Y-93233767D01*
X148423208Y-93233769D01*
X148396577Y-93253119D01*
X148338387Y-93272026D01*
X148280196Y-93253118D01*
X148244232Y-93203618D01*
X148240234Y-93185947D01*
X148236330Y-93156292D01*
X148236330Y-93156291D01*
X148180861Y-93022375D01*
X148092621Y-92907379D01*
X147977625Y-92819139D01*
X147977621Y-92819137D01*
X147843709Y-92763670D01*
X147843708Y-92763669D01*
X147700000Y-92744750D01*
X147556291Y-92763669D01*
X147556290Y-92763670D01*
X147422378Y-92819137D01*
X147422374Y-92819139D01*
X147307381Y-92907377D01*
X147307377Y-92907381D01*
X147219139Y-93022374D01*
X147219137Y-93022378D01*
X147163014Y-93157874D01*
X147123278Y-93204400D01*
X147063783Y-93218684D01*
X147026606Y-93208199D01*
X146922445Y-93155127D01*
X146922444Y-93155126D01*
X146922441Y-93155125D01*
X146922438Y-93155123D01*
X146757705Y-93101598D01*
X146734011Y-93097845D01*
X146679495Y-93070066D01*
X146651718Y-93015549D01*
X146650500Y-93000064D01*
X146650500Y-92399999D01*
X149644750Y-92399999D01*
X149644750Y-92400000D01*
X149663669Y-92543708D01*
X149663670Y-92543709D01*
X149719139Y-92677625D01*
X149807379Y-92792621D01*
X149922375Y-92880861D01*
X150056291Y-92936330D01*
X150200000Y-92955250D01*
X150343709Y-92936330D01*
X150477625Y-92880861D01*
X150592621Y-92792621D01*
X150680861Y-92677625D01*
X150736330Y-92543709D01*
X150755250Y-92400000D01*
X150736330Y-92256291D01*
X150680861Y-92122375D01*
X150592621Y-92007379D01*
X150477625Y-91919139D01*
X150477621Y-91919137D01*
X150343709Y-91863670D01*
X150343708Y-91863669D01*
X150200000Y-91844750D01*
X150056291Y-91863669D01*
X150056290Y-91863670D01*
X149922378Y-91919137D01*
X149922374Y-91919139D01*
X149807381Y-92007377D01*
X149807377Y-92007381D01*
X149719139Y-92122374D01*
X149719137Y-92122378D01*
X149663670Y-92256290D01*
X149663669Y-92256291D01*
X149644750Y-92399999D01*
X146650500Y-92399999D01*
X146650500Y-89942567D01*
X146651347Y-89929644D01*
X146655250Y-89899999D01*
X146651347Y-89870353D01*
X146650500Y-89857431D01*
X146650500Y-89827525D01*
X146645876Y-89810270D01*
X146642755Y-89798623D01*
X146640231Y-89785929D01*
X146636330Y-89756291D01*
X146636329Y-89756288D01*
X146624887Y-89728666D01*
X146620725Y-89716408D01*
X146612984Y-89687515D01*
X146612983Y-89687513D01*
X146612982Y-89687510D01*
X146598035Y-89661623D01*
X146592306Y-89650007D01*
X146580861Y-89622375D01*
X146562650Y-89598641D01*
X146555464Y-89587888D01*
X146540509Y-89561985D01*
X146540507Y-89561983D01*
X146519359Y-89540834D01*
X146510822Y-89531099D01*
X146492620Y-89507378D01*
X146468895Y-89489173D01*
X146459159Y-89480635D01*
X146438015Y-89459491D01*
X146412114Y-89444536D01*
X146401350Y-89437343D01*
X146377626Y-89419139D01*
X146349994Y-89407693D01*
X146338385Y-89401968D01*
X146312487Y-89387017D01*
X146312486Y-89387016D01*
X146312485Y-89387016D01*
X146283586Y-89379272D01*
X146271335Y-89375113D01*
X146243709Y-89363670D01*
X146243707Y-89363669D01*
X146243705Y-89363669D01*
X146214064Y-89359767D01*
X146201365Y-89357241D01*
X146196144Y-89355842D01*
X146172475Y-89349500D01*
X146172474Y-89349500D01*
X146142568Y-89349500D01*
X146129646Y-89348653D01*
X146100000Y-89344750D01*
X146070354Y-89348653D01*
X146057432Y-89349500D01*
X146027525Y-89349500D01*
X146020815Y-89351297D01*
X145998631Y-89357241D01*
X145985938Y-89359766D01*
X145956290Y-89363670D01*
X145956284Y-89363672D01*
X145928656Y-89375115D01*
X145916398Y-89379276D01*
X145887517Y-89387015D01*
X145887512Y-89387017D01*
X145861622Y-89401964D01*
X145850014Y-89407689D01*
X145822374Y-89419138D01*
X145798641Y-89437348D01*
X145787885Y-89444535D01*
X145761985Y-89459490D01*
X145740840Y-89480635D01*
X145731108Y-89489170D01*
X145707382Y-89507376D01*
X145707376Y-89507382D01*
X145689170Y-89531108D01*
X145680635Y-89540840D01*
X145659490Y-89561985D01*
X145644535Y-89587885D01*
X145637348Y-89598641D01*
X145619138Y-89622374D01*
X145607689Y-89650014D01*
X145601964Y-89661622D01*
X145587017Y-89687512D01*
X145587015Y-89687517D01*
X145579276Y-89716398D01*
X145575115Y-89728656D01*
X145563672Y-89756284D01*
X145563670Y-89756290D01*
X145559766Y-89785938D01*
X145557241Y-89798631D01*
X145549501Y-89827521D01*
X145549500Y-89827525D01*
X145549500Y-89857431D01*
X145548653Y-89870353D01*
X145544750Y-89899999D01*
X145548653Y-89929644D01*
X145549500Y-89942567D01*
X145549500Y-93592632D01*
X145538710Y-93637576D01*
X145480127Y-93752552D01*
X145480123Y-93752561D01*
X145426598Y-93917293D01*
X145426597Y-93917297D01*
X145399500Y-94088385D01*
X141334300Y-94088385D01*
X141334300Y-88874981D01*
X143199550Y-88874981D01*
X143199550Y-88874982D01*
X143218469Y-89018690D01*
X143218470Y-89018691D01*
X143261416Y-89122375D01*
X143273939Y-89152607D01*
X143362179Y-89267603D01*
X143477175Y-89355843D01*
X143611091Y-89411312D01*
X143754800Y-89430232D01*
X143898509Y-89411312D01*
X144032425Y-89355843D01*
X144147421Y-89267603D01*
X144235661Y-89152607D01*
X144291130Y-89018691D01*
X144310050Y-88874982D01*
X144291130Y-88731273D01*
X144235661Y-88597357D01*
X144147421Y-88482361D01*
X144032425Y-88394121D01*
X144032421Y-88394119D01*
X143898509Y-88338652D01*
X143898508Y-88338651D01*
X143754800Y-88319732D01*
X143611091Y-88338651D01*
X143611090Y-88338652D01*
X143477178Y-88394119D01*
X143477174Y-88394121D01*
X143362181Y-88482359D01*
X143362177Y-88482363D01*
X143273939Y-88597356D01*
X143273937Y-88597360D01*
X143218470Y-88731272D01*
X143218469Y-88731273D01*
X143199550Y-88874981D01*
X141334300Y-88874981D01*
X141334300Y-86620234D01*
X141343544Y-86591782D01*
X141342374Y-86587471D01*
X141523058Y-86587471D01*
X141531823Y-86610531D01*
X141548051Y-86775307D01*
X141548052Y-86775310D01*
X141548053Y-86775313D01*
X141597853Y-86939482D01*
X141602405Y-86954486D01*
X141602406Y-86954488D01*
X141690659Y-87119599D01*
X141690662Y-87119604D01*
X141690664Y-87119607D01*
X141740195Y-87179960D01*
X141809438Y-87264334D01*
X141809447Y-87264343D01*
X141876945Y-87319737D01*
X141954175Y-87383118D01*
X142119299Y-87471378D01*
X142298469Y-87525729D01*
X142298471Y-87525729D01*
X142298474Y-87525730D01*
X142484796Y-87544081D01*
X142484800Y-87544081D01*
X142484804Y-87544081D01*
X142671125Y-87525730D01*
X142671126Y-87525729D01*
X142671131Y-87525729D01*
X142850301Y-87471378D01*
X143015425Y-87383118D01*
X143160157Y-87264339D01*
X143278936Y-87119607D01*
X143367196Y-86954483D01*
X143421547Y-86775313D01*
X143439624Y-86591782D01*
X143439899Y-86588986D01*
X143439899Y-86588977D01*
X143421548Y-86402656D01*
X143421547Y-86402653D01*
X143421547Y-86402651D01*
X143367196Y-86223481D01*
X143365108Y-86219575D01*
X143278940Y-86058364D01*
X143278938Y-86058362D01*
X143278936Y-86058357D01*
X143203486Y-85966421D01*
X143160161Y-85913629D01*
X143160152Y-85913620D01*
X143061316Y-85832508D01*
X143015425Y-85794846D01*
X143015422Y-85794844D01*
X143015417Y-85794841D01*
X142850306Y-85706588D01*
X142850304Y-85706587D01*
X142791665Y-85688799D01*
X142671131Y-85652235D01*
X142671128Y-85652234D01*
X142671125Y-85652233D01*
X142484804Y-85633883D01*
X142484796Y-85633883D01*
X142298474Y-85652233D01*
X142298471Y-85652234D01*
X142119295Y-85706587D01*
X142119293Y-85706588D01*
X141954182Y-85794841D01*
X141954176Y-85794845D01*
X141809447Y-85913620D01*
X141809438Y-85913629D01*
X141690663Y-86058358D01*
X141690659Y-86058364D01*
X141602406Y-86223475D01*
X141602405Y-86223477D01*
X141548052Y-86402653D01*
X141548051Y-86402655D01*
X141531823Y-86567433D01*
X141523058Y-86587471D01*
X141342374Y-86587471D01*
X141334300Y-86557729D01*
X141334300Y-84080234D01*
X141343544Y-84051782D01*
X141342374Y-84047471D01*
X141523058Y-84047471D01*
X141531823Y-84070531D01*
X141548051Y-84235307D01*
X141548052Y-84235310D01*
X141602405Y-84414486D01*
X141602406Y-84414488D01*
X141690659Y-84579599D01*
X141690662Y-84579604D01*
X141690664Y-84579607D01*
X141730068Y-84627621D01*
X141809438Y-84724334D01*
X141809447Y-84724343D01*
X141864352Y-84769402D01*
X141954175Y-84843118D01*
X141954180Y-84843120D01*
X141954182Y-84843122D01*
X142100399Y-84921276D01*
X142119299Y-84931378D01*
X142298469Y-84985729D01*
X142298471Y-84985729D01*
X142298474Y-84985730D01*
X142484796Y-85004081D01*
X142484800Y-85004081D01*
X142484804Y-85004081D01*
X142671125Y-84985730D01*
X142671126Y-84985729D01*
X142671131Y-84985729D01*
X142850301Y-84931378D01*
X143015425Y-84843118D01*
X143160157Y-84724339D01*
X143278936Y-84579607D01*
X143367196Y-84414483D01*
X143386757Y-84349999D01*
X148294750Y-84349999D01*
X148294750Y-84350000D01*
X148313669Y-84493708D01*
X148313670Y-84493709D01*
X148349249Y-84579607D01*
X148369139Y-84627625D01*
X148457379Y-84742621D01*
X148572375Y-84830861D01*
X148706291Y-84886330D01*
X148850000Y-84905250D01*
X148993709Y-84886330D01*
X149127625Y-84830861D01*
X149139730Y-84821571D01*
X149197406Y-84801146D01*
X149256072Y-84818522D01*
X149260260Y-84821565D01*
X149272375Y-84830861D01*
X149406291Y-84886330D01*
X149550000Y-84905250D01*
X149693709Y-84886330D01*
X149827625Y-84830861D01*
X149942621Y-84742621D01*
X150030861Y-84627625D01*
X150086330Y-84493709D01*
X150091535Y-84454176D01*
X151058475Y-84454176D01*
X151058475Y-84454177D01*
X151077394Y-84597885D01*
X151077395Y-84597886D01*
X151135347Y-84737797D01*
X151132941Y-84738793D01*
X151143349Y-84787796D01*
X151136358Y-84815315D01*
X151092471Y-84921272D01*
X151092469Y-84921276D01*
X151073550Y-85064981D01*
X151073550Y-85064982D01*
X151092469Y-85208690D01*
X151092470Y-85208691D01*
X151146447Y-85339006D01*
X151151247Y-85400003D01*
X151146447Y-85414776D01*
X151092470Y-85545090D01*
X151092469Y-85545091D01*
X151073550Y-85688799D01*
X151073550Y-85688800D01*
X151092469Y-85832508D01*
X151092470Y-85832509D01*
X151126070Y-85913629D01*
X151147939Y-85966425D01*
X151236179Y-86081421D01*
X151351175Y-86169661D01*
X151485091Y-86225130D01*
X151628800Y-86244050D01*
X151772509Y-86225130D01*
X151906425Y-86169661D01*
X152021421Y-86081421D01*
X152109661Y-85966425D01*
X152165130Y-85832509D01*
X152184050Y-85688800D01*
X152176104Y-85628449D01*
X152165130Y-85545091D01*
X152134278Y-85470607D01*
X152111153Y-85414776D01*
X152106353Y-85353779D01*
X152111153Y-85339006D01*
X152127622Y-85299243D01*
X152165130Y-85208691D01*
X152184050Y-85064982D01*
X152165130Y-84921273D01*
X152109661Y-84787357D01*
X152107178Y-84781362D01*
X152109586Y-84780364D01*
X152099173Y-84731380D01*
X152106165Y-84703846D01*
X152150055Y-84597886D01*
X152168975Y-84454177D01*
X152163749Y-84414486D01*
X152150055Y-84310468D01*
X152094586Y-84176552D01*
X152006346Y-84061556D01*
X151891350Y-83973316D01*
X151891346Y-83973314D01*
X151757434Y-83917847D01*
X151757433Y-83917846D01*
X151613725Y-83898927D01*
X151470016Y-83917846D01*
X151470015Y-83917847D01*
X151336103Y-83973314D01*
X151336099Y-83973316D01*
X151221106Y-84061554D01*
X151221102Y-84061558D01*
X151132864Y-84176551D01*
X151132862Y-84176555D01*
X151077395Y-84310467D01*
X151077394Y-84310468D01*
X151058475Y-84454176D01*
X150091535Y-84454176D01*
X150105250Y-84350000D01*
X150100045Y-84310468D01*
X150086330Y-84206291D01*
X150030861Y-84072375D01*
X149942621Y-83957379D01*
X149827625Y-83869139D01*
X149827621Y-83869137D01*
X149693709Y-83813670D01*
X149693708Y-83813669D01*
X149550000Y-83794750D01*
X149406291Y-83813669D01*
X149406290Y-83813670D01*
X149272378Y-83869137D01*
X149272375Y-83869139D01*
X149260265Y-83878431D01*
X149202588Y-83898853D01*
X149143923Y-83881473D01*
X149139735Y-83878431D01*
X149136487Y-83875939D01*
X149127625Y-83869139D01*
X149127622Y-83869137D01*
X149127621Y-83869137D01*
X148993709Y-83813670D01*
X148993708Y-83813669D01*
X148850000Y-83794750D01*
X148706291Y-83813669D01*
X148706290Y-83813670D01*
X148572378Y-83869137D01*
X148572374Y-83869139D01*
X148457381Y-83957377D01*
X148457377Y-83957381D01*
X148369139Y-84072374D01*
X148369137Y-84072378D01*
X148313670Y-84206290D01*
X148313669Y-84206291D01*
X148294750Y-84349999D01*
X143386757Y-84349999D01*
X143421547Y-84235313D01*
X143424406Y-84206291D01*
X143439899Y-84048986D01*
X143439899Y-84048977D01*
X143421548Y-83862656D01*
X143421547Y-83862653D01*
X143421547Y-83862651D01*
X143367196Y-83683481D01*
X143342187Y-83636692D01*
X143278940Y-83518364D01*
X143278938Y-83518362D01*
X143278936Y-83518357D01*
X143258111Y-83492982D01*
X153613530Y-83492982D01*
X153613530Y-83492983D01*
X153632449Y-83636691D01*
X153632450Y-83636692D01*
X153687919Y-83770608D01*
X153687921Y-83770611D01*
X153687922Y-83770612D01*
X153776155Y-83885600D01*
X153776157Y-83885601D01*
X153776159Y-83885604D01*
X153779543Y-83888200D01*
X153814201Y-83938621D01*
X153818280Y-83966745D01*
X153818280Y-85988924D01*
X153842166Y-86078068D01*
X153888310Y-86157992D01*
X154599770Y-86869452D01*
X154679694Y-86915596D01*
X154768838Y-86939482D01*
X154768839Y-86939482D01*
X154861126Y-86939482D01*
X156775047Y-86939482D01*
X156833238Y-86958389D01*
X156862357Y-86991814D01*
X156930659Y-87119599D01*
X156930662Y-87119604D01*
X156930664Y-87119607D01*
X156980195Y-87179960D01*
X157049438Y-87264334D01*
X157049447Y-87264343D01*
X157116945Y-87319737D01*
X157194175Y-87383118D01*
X157359299Y-87471378D01*
X157538469Y-87525729D01*
X157538471Y-87525729D01*
X157538474Y-87525730D01*
X157724796Y-87544081D01*
X157724800Y-87544081D01*
X157724804Y-87544081D01*
X157911125Y-87525730D01*
X157911126Y-87525729D01*
X157911131Y-87525729D01*
X158090301Y-87471378D01*
X158255425Y-87383118D01*
X158400157Y-87264339D01*
X158518936Y-87119607D01*
X158607196Y-86954483D01*
X158661547Y-86775313D01*
X158679624Y-86591782D01*
X158679899Y-86588986D01*
X158679899Y-86588977D01*
X158661548Y-86402656D01*
X158661547Y-86402653D01*
X158661547Y-86402651D01*
X158607196Y-86223481D01*
X158605108Y-86219575D01*
X158518940Y-86058364D01*
X158518938Y-86058362D01*
X158518936Y-86058357D01*
X158443486Y-85966421D01*
X158400161Y-85913629D01*
X158400152Y-85913620D01*
X158301316Y-85832508D01*
X158255425Y-85794846D01*
X158255422Y-85794844D01*
X158255417Y-85794841D01*
X158090306Y-85706588D01*
X158090304Y-85706587D01*
X158031665Y-85688799D01*
X157911131Y-85652235D01*
X157911128Y-85652234D01*
X157911125Y-85652233D01*
X157724804Y-85633883D01*
X157724796Y-85633883D01*
X157538474Y-85652233D01*
X157538471Y-85652234D01*
X157359295Y-85706587D01*
X157359293Y-85706588D01*
X157194182Y-85794841D01*
X157194176Y-85794845D01*
X157049447Y-85913620D01*
X157049438Y-85913629D01*
X156930663Y-86058358D01*
X156930659Y-86058364D01*
X156862357Y-86186150D01*
X156818252Y-86228557D01*
X156775047Y-86238482D01*
X155595202Y-86238482D01*
X155537011Y-86219575D01*
X155501047Y-86170075D01*
X155501047Y-86108889D01*
X155503731Y-86101611D01*
X155525199Y-86049784D01*
X155544119Y-85906075D01*
X155529474Y-85794841D01*
X155525199Y-85762366D01*
X155469730Y-85628450D01*
X155381490Y-85513454D01*
X155266494Y-85425214D01*
X155266490Y-85425212D01*
X155132578Y-85369745D01*
X155132577Y-85369744D01*
X154988869Y-85350825D01*
X154845160Y-85369744D01*
X154845159Y-85369745D01*
X154711247Y-85425212D01*
X154711239Y-85425216D01*
X154678546Y-85450303D01*
X154620870Y-85470726D01*
X154562205Y-85453348D01*
X154524958Y-85404806D01*
X154519280Y-85371760D01*
X154519280Y-84048977D01*
X156769701Y-84048977D01*
X156769701Y-84048986D01*
X156788051Y-84235307D01*
X156788052Y-84235310D01*
X156842405Y-84414486D01*
X156842406Y-84414488D01*
X156930659Y-84579599D01*
X156930662Y-84579604D01*
X156930664Y-84579607D01*
X156970068Y-84627621D01*
X157049438Y-84724334D01*
X157049447Y-84724343D01*
X157104352Y-84769402D01*
X157194175Y-84843118D01*
X157194180Y-84843120D01*
X157194182Y-84843122D01*
X157340399Y-84921276D01*
X157359299Y-84931378D01*
X157538469Y-84985729D01*
X157538471Y-84985729D01*
X157538474Y-84985730D01*
X157724796Y-85004081D01*
X157724800Y-85004081D01*
X157724804Y-85004081D01*
X157911125Y-84985730D01*
X157911126Y-84985729D01*
X157911131Y-84985729D01*
X158090301Y-84931378D01*
X158255425Y-84843118D01*
X158400157Y-84724339D01*
X158518936Y-84579607D01*
X158607196Y-84414483D01*
X158661547Y-84235313D01*
X158664406Y-84206291D01*
X158679899Y-84048986D01*
X158679899Y-84048977D01*
X158661548Y-83862656D01*
X158661547Y-83862653D01*
X158661547Y-83862651D01*
X158607196Y-83683481D01*
X158582187Y-83636692D01*
X158518940Y-83518364D01*
X158518938Y-83518362D01*
X158518936Y-83518357D01*
X158455555Y-83441127D01*
X158400161Y-83373629D01*
X158400152Y-83373620D01*
X158315778Y-83304377D01*
X158255425Y-83254846D01*
X158255422Y-83254844D01*
X158255417Y-83254841D01*
X158090306Y-83166588D01*
X158090304Y-83166587D01*
X157911128Y-83112234D01*
X157911125Y-83112233D01*
X157724804Y-83093883D01*
X157724796Y-83093883D01*
X157538474Y-83112233D01*
X157538471Y-83112234D01*
X157359295Y-83166587D01*
X157359293Y-83166588D01*
X157194182Y-83254841D01*
X157194176Y-83254845D01*
X157049447Y-83373620D01*
X157049438Y-83373629D01*
X156930663Y-83518358D01*
X156930659Y-83518364D01*
X156842406Y-83683475D01*
X156842405Y-83683477D01*
X156788052Y-83862653D01*
X156788051Y-83862656D01*
X156769701Y-84048977D01*
X154519280Y-84048977D01*
X154519280Y-83966745D01*
X154538187Y-83908554D01*
X154558014Y-83888202D01*
X154561401Y-83885604D01*
X154649641Y-83770608D01*
X154705110Y-83636692D01*
X154724030Y-83492983D01*
X154705110Y-83349274D01*
X154649641Y-83215358D01*
X154561401Y-83100362D01*
X154446405Y-83012122D01*
X154446401Y-83012120D01*
X154312489Y-82956653D01*
X154312488Y-82956652D01*
X154168780Y-82937733D01*
X154025071Y-82956652D01*
X154025070Y-82956653D01*
X153891158Y-83012120D01*
X153891154Y-83012122D01*
X153776161Y-83100360D01*
X153776157Y-83100364D01*
X153687919Y-83215357D01*
X153687917Y-83215361D01*
X153632450Y-83349273D01*
X153632449Y-83349274D01*
X153613530Y-83492982D01*
X143258111Y-83492982D01*
X143215555Y-83441127D01*
X143160161Y-83373629D01*
X143160152Y-83373620D01*
X143075778Y-83304377D01*
X143015425Y-83254846D01*
X143015422Y-83254844D01*
X143015417Y-83254841D01*
X142850306Y-83166588D01*
X142850304Y-83166587D01*
X142671128Y-83112234D01*
X142671125Y-83112233D01*
X142484804Y-83093883D01*
X142484796Y-83093883D01*
X142298474Y-83112233D01*
X142298471Y-83112234D01*
X142119295Y-83166587D01*
X142119293Y-83166588D01*
X141954182Y-83254841D01*
X141954176Y-83254845D01*
X141809447Y-83373620D01*
X141809438Y-83373629D01*
X141690663Y-83518358D01*
X141690659Y-83518364D01*
X141602406Y-83683475D01*
X141602405Y-83683477D01*
X141548052Y-83862653D01*
X141548051Y-83862655D01*
X141531823Y-84027433D01*
X141523058Y-84047471D01*
X141342374Y-84047471D01*
X141334300Y-84017729D01*
X141334300Y-81540234D01*
X141343544Y-81511782D01*
X141342374Y-81507471D01*
X141523058Y-81507471D01*
X141531823Y-81530531D01*
X141548051Y-81695307D01*
X141548052Y-81695310D01*
X141602405Y-81874486D01*
X141602406Y-81874488D01*
X141690659Y-82039599D01*
X141690662Y-82039604D01*
X141690664Y-82039607D01*
X141740195Y-82099960D01*
X141809438Y-82184334D01*
X141809447Y-82184343D01*
X141876945Y-82239737D01*
X141954175Y-82303118D01*
X142119299Y-82391378D01*
X142298469Y-82445729D01*
X142298471Y-82445729D01*
X142298474Y-82445730D01*
X142484796Y-82464081D01*
X142484800Y-82464081D01*
X142484804Y-82464081D01*
X142671125Y-82445730D01*
X142671126Y-82445729D01*
X142671131Y-82445729D01*
X142765181Y-82417199D01*
X144216374Y-82417199D01*
X144216374Y-82417200D01*
X144235293Y-82560908D01*
X144235294Y-82560909D01*
X144290763Y-82694825D01*
X144379003Y-82809821D01*
X144493999Y-82898061D01*
X144627915Y-82953530D01*
X144771624Y-82972450D01*
X144915333Y-82953530D01*
X145049249Y-82898061D01*
X145164245Y-82809821D01*
X145252485Y-82694825D01*
X145307954Y-82560909D01*
X145326874Y-82417200D01*
X145323474Y-82391378D01*
X145307954Y-82273491D01*
X145252485Y-82139575D01*
X145164245Y-82024579D01*
X145049249Y-81936339D01*
X145049245Y-81936337D01*
X144915333Y-81880870D01*
X144915332Y-81880869D01*
X144771624Y-81861950D01*
X144627915Y-81880869D01*
X144627914Y-81880870D01*
X144494002Y-81936337D01*
X144493998Y-81936339D01*
X144379005Y-82024577D01*
X144379001Y-82024581D01*
X144290763Y-82139574D01*
X144290761Y-82139578D01*
X144235294Y-82273490D01*
X144235293Y-82273491D01*
X144216374Y-82417199D01*
X142765181Y-82417199D01*
X142850301Y-82391378D01*
X143015425Y-82303118D01*
X143160157Y-82184339D01*
X143278936Y-82039607D01*
X143367196Y-81874483D01*
X143421547Y-81695313D01*
X143439624Y-81511782D01*
X143439899Y-81508986D01*
X143439899Y-81508977D01*
X156769701Y-81508977D01*
X156769701Y-81508986D01*
X156788051Y-81695307D01*
X156788052Y-81695310D01*
X156842405Y-81874486D01*
X156842406Y-81874488D01*
X156930659Y-82039599D01*
X156930662Y-82039604D01*
X156930664Y-82039607D01*
X156980195Y-82099960D01*
X157049438Y-82184334D01*
X157049447Y-82184343D01*
X157116945Y-82239737D01*
X157194175Y-82303118D01*
X157359299Y-82391378D01*
X157538469Y-82445729D01*
X157538471Y-82445729D01*
X157538474Y-82445730D01*
X157724796Y-82464081D01*
X157724800Y-82464081D01*
X157724804Y-82464081D01*
X157911125Y-82445730D01*
X157911126Y-82445729D01*
X157911131Y-82445729D01*
X158090301Y-82391378D01*
X158255425Y-82303118D01*
X158400157Y-82184339D01*
X158518936Y-82039607D01*
X158607196Y-81874483D01*
X158661547Y-81695313D01*
X158679624Y-81511782D01*
X158679899Y-81508986D01*
X158679899Y-81508977D01*
X158661548Y-81322656D01*
X158661547Y-81322653D01*
X158661547Y-81322651D01*
X158607196Y-81143481D01*
X158518936Y-80978357D01*
X158455555Y-80901127D01*
X158400161Y-80833629D01*
X158400152Y-80833620D01*
X158315778Y-80764377D01*
X158255425Y-80714846D01*
X158255422Y-80714844D01*
X158255417Y-80714841D01*
X158090306Y-80626588D01*
X158090304Y-80626587D01*
X157911128Y-80572234D01*
X157911125Y-80572233D01*
X157724804Y-80553883D01*
X157724796Y-80553883D01*
X157538474Y-80572233D01*
X157538471Y-80572234D01*
X157359295Y-80626587D01*
X157359293Y-80626588D01*
X157194182Y-80714841D01*
X157194176Y-80714845D01*
X157049447Y-80833620D01*
X157049438Y-80833629D01*
X156930663Y-80978358D01*
X156930659Y-80978364D01*
X156842406Y-81143475D01*
X156842405Y-81143477D01*
X156788052Y-81322653D01*
X156788051Y-81322656D01*
X156769701Y-81508977D01*
X143439899Y-81508977D01*
X143421548Y-81322656D01*
X143421547Y-81322653D01*
X143421547Y-81322651D01*
X143367196Y-81143481D01*
X143278936Y-80978357D01*
X143215555Y-80901127D01*
X143160161Y-80833629D01*
X143160152Y-80833620D01*
X143075778Y-80764377D01*
X143015425Y-80714846D01*
X143015422Y-80714844D01*
X143015417Y-80714841D01*
X142850306Y-80626588D01*
X142850304Y-80626587D01*
X142671128Y-80572234D01*
X142671125Y-80572233D01*
X142484804Y-80553883D01*
X142484796Y-80553883D01*
X142298474Y-80572233D01*
X142298471Y-80572234D01*
X142119295Y-80626587D01*
X142119293Y-80626588D01*
X141954182Y-80714841D01*
X141954176Y-80714845D01*
X141809447Y-80833620D01*
X141809438Y-80833629D01*
X141690663Y-80978358D01*
X141690659Y-80978364D01*
X141602406Y-81143475D01*
X141602405Y-81143477D01*
X141548052Y-81322653D01*
X141548051Y-81322655D01*
X141531823Y-81487433D01*
X141523058Y-81507471D01*
X141342374Y-81507471D01*
X141334300Y-81477729D01*
X141334300Y-79000234D01*
X141343544Y-78971782D01*
X141342374Y-78967471D01*
X141523058Y-78967471D01*
X141531823Y-78990531D01*
X141548051Y-79155307D01*
X141548052Y-79155310D01*
X141602405Y-79334486D01*
X141602406Y-79334488D01*
X141690659Y-79499599D01*
X141690662Y-79499604D01*
X141690664Y-79499607D01*
X141740195Y-79559960D01*
X141809438Y-79644334D01*
X141809447Y-79644343D01*
X141876945Y-79699737D01*
X141954175Y-79763118D01*
X142119299Y-79851378D01*
X142298469Y-79905729D01*
X142298471Y-79905729D01*
X142298474Y-79905730D01*
X142484796Y-79924081D01*
X142484800Y-79924081D01*
X142484804Y-79924081D01*
X142671125Y-79905730D01*
X142671126Y-79905729D01*
X142671131Y-79905729D01*
X142850301Y-79851378D01*
X143015425Y-79763118D01*
X143160157Y-79644339D01*
X143278936Y-79499607D01*
X143367196Y-79334483D01*
X143421547Y-79155313D01*
X143439624Y-78971782D01*
X143439899Y-78968986D01*
X143439899Y-78968977D01*
X156769701Y-78968977D01*
X156769701Y-78968986D01*
X156788051Y-79155307D01*
X156788052Y-79155310D01*
X156842405Y-79334486D01*
X156842406Y-79334488D01*
X156930659Y-79499599D01*
X156930662Y-79499604D01*
X156930664Y-79499607D01*
X156980195Y-79559960D01*
X157049438Y-79644334D01*
X157049447Y-79644343D01*
X157116945Y-79699737D01*
X157194175Y-79763118D01*
X157359299Y-79851378D01*
X157538469Y-79905729D01*
X157538471Y-79905729D01*
X157538474Y-79905730D01*
X157724796Y-79924081D01*
X157724800Y-79924081D01*
X157724804Y-79924081D01*
X157911125Y-79905730D01*
X157911126Y-79905729D01*
X157911131Y-79905729D01*
X158090301Y-79851378D01*
X158255425Y-79763118D01*
X158400157Y-79644339D01*
X158518936Y-79499607D01*
X158607196Y-79334483D01*
X158661547Y-79155313D01*
X158679893Y-78969035D01*
X158679921Y-78968970D01*
X158679890Y-78968887D01*
X158661548Y-78782656D01*
X158661547Y-78782653D01*
X158661547Y-78782651D01*
X158607196Y-78603481D01*
X158606585Y-78602337D01*
X158518940Y-78438364D01*
X158518938Y-78438362D01*
X158518936Y-78438357D01*
X158455555Y-78361127D01*
X158400161Y-78293629D01*
X158400152Y-78293620D01*
X158315778Y-78224377D01*
X158255425Y-78174846D01*
X158255422Y-78174844D01*
X158255417Y-78174841D01*
X158090306Y-78086588D01*
X158090304Y-78086587D01*
X157911128Y-78032234D01*
X157911125Y-78032233D01*
X157724804Y-78013883D01*
X157724796Y-78013883D01*
X157538474Y-78032233D01*
X157538471Y-78032234D01*
X157359295Y-78086587D01*
X157359293Y-78086588D01*
X157194182Y-78174841D01*
X157194176Y-78174845D01*
X157049447Y-78293620D01*
X157049438Y-78293629D01*
X156930663Y-78438358D01*
X156930659Y-78438364D01*
X156842406Y-78603475D01*
X156842405Y-78603477D01*
X156788052Y-78782653D01*
X156788051Y-78782656D01*
X156769701Y-78968977D01*
X143439899Y-78968977D01*
X143421548Y-78782656D01*
X143421547Y-78782653D01*
X143421547Y-78782651D01*
X143367196Y-78603481D01*
X143366585Y-78602337D01*
X143278940Y-78438364D01*
X143278938Y-78438362D01*
X143278936Y-78438357D01*
X143215555Y-78361127D01*
X143160161Y-78293629D01*
X143160152Y-78293620D01*
X143075778Y-78224377D01*
X143015425Y-78174846D01*
X143015422Y-78174844D01*
X143015417Y-78174841D01*
X142878831Y-78101835D01*
X145652678Y-78101835D01*
X145652678Y-78101840D01*
X145673159Y-78244294D01*
X145695690Y-78293629D01*
X145732948Y-78375211D01*
X145787664Y-78438357D01*
X145827198Y-78483982D01*
X145948267Y-78561788D01*
X145948272Y-78561791D01*
X146054728Y-78593049D01*
X146086360Y-78602337D01*
X146086361Y-78602337D01*
X146086364Y-78602338D01*
X146086366Y-78602338D01*
X146230284Y-78602338D01*
X146230286Y-78602338D01*
X146368378Y-78561791D01*
X146489453Y-78483981D01*
X146583702Y-78375211D01*
X146643490Y-78244295D01*
X146663972Y-78101838D01*
X146661779Y-78086588D01*
X146643490Y-77959381D01*
X146583702Y-77828466D01*
X146583702Y-77828465D01*
X146489453Y-77719695D01*
X146489452Y-77719694D01*
X146489451Y-77719693D01*
X146368382Y-77641887D01*
X146368379Y-77641885D01*
X146368378Y-77641885D01*
X146368375Y-77641884D01*
X146230289Y-77601338D01*
X146230286Y-77601338D01*
X146086364Y-77601338D01*
X146086360Y-77601338D01*
X145948274Y-77641884D01*
X145948267Y-77641887D01*
X145827198Y-77719693D01*
X145732947Y-77828466D01*
X145673159Y-77959381D01*
X145652678Y-78101835D01*
X142878831Y-78101835D01*
X142850306Y-78086588D01*
X142850304Y-78086587D01*
X142671128Y-78032234D01*
X142671125Y-78032233D01*
X142484804Y-78013883D01*
X142484796Y-78013883D01*
X142298474Y-78032233D01*
X142298471Y-78032234D01*
X142119295Y-78086587D01*
X142119293Y-78086588D01*
X141954182Y-78174841D01*
X141954176Y-78174845D01*
X141809447Y-78293620D01*
X141809438Y-78293629D01*
X141690663Y-78438358D01*
X141690659Y-78438364D01*
X141602406Y-78603475D01*
X141602405Y-78603477D01*
X141548052Y-78782653D01*
X141548051Y-78782655D01*
X141531823Y-78947433D01*
X141523058Y-78967471D01*
X141342374Y-78967471D01*
X141334300Y-78937729D01*
X141334300Y-76460234D01*
X141343544Y-76431782D01*
X141342374Y-76427471D01*
X141523058Y-76427471D01*
X141531823Y-76450531D01*
X141548051Y-76615307D01*
X141548052Y-76615310D01*
X141602405Y-76794486D01*
X141602406Y-76794488D01*
X141690659Y-76959599D01*
X141690662Y-76959604D01*
X141690664Y-76959607D01*
X141740195Y-77019960D01*
X141809438Y-77104334D01*
X141809447Y-77104343D01*
X141876945Y-77159737D01*
X141954175Y-77223118D01*
X141954180Y-77223120D01*
X141954182Y-77223122D01*
X142119293Y-77311375D01*
X142119299Y-77311378D01*
X142298469Y-77365729D01*
X142298471Y-77365729D01*
X142298474Y-77365730D01*
X142484796Y-77384081D01*
X142484800Y-77384081D01*
X142484804Y-77384081D01*
X142671125Y-77365730D01*
X142671126Y-77365729D01*
X142671131Y-77365729D01*
X142850301Y-77311378D01*
X143015425Y-77223118D01*
X143160157Y-77104339D01*
X143278936Y-76959607D01*
X143310797Y-76899999D01*
X147644750Y-76899999D01*
X147644750Y-76900000D01*
X147663669Y-77043708D01*
X147663670Y-77043709D01*
X147719139Y-77177625D01*
X147807379Y-77292621D01*
X147922375Y-77380861D01*
X148056291Y-77436330D01*
X148200000Y-77455250D01*
X148343709Y-77436330D01*
X148477625Y-77380861D01*
X148592621Y-77292621D01*
X148680861Y-77177625D01*
X148736330Y-77043709D01*
X148755250Y-76900000D01*
X148736330Y-76756291D01*
X148680861Y-76622375D01*
X148592621Y-76507379D01*
X148490446Y-76428977D01*
X156769701Y-76428977D01*
X156769701Y-76428986D01*
X156788051Y-76615307D01*
X156788052Y-76615310D01*
X156842405Y-76794486D01*
X156842406Y-76794488D01*
X156930659Y-76959599D01*
X156930662Y-76959604D01*
X156930664Y-76959607D01*
X156980195Y-77019960D01*
X157049438Y-77104334D01*
X157049447Y-77104343D01*
X157116945Y-77159737D01*
X157194175Y-77223118D01*
X157194180Y-77223120D01*
X157194182Y-77223122D01*
X157359293Y-77311375D01*
X157359299Y-77311378D01*
X157538469Y-77365729D01*
X157538471Y-77365729D01*
X157538474Y-77365730D01*
X157724796Y-77384081D01*
X157724800Y-77384081D01*
X157724804Y-77384081D01*
X157911125Y-77365730D01*
X157911126Y-77365729D01*
X157911131Y-77365729D01*
X158090301Y-77311378D01*
X158255425Y-77223118D01*
X158400157Y-77104339D01*
X158518936Y-76959607D01*
X158607196Y-76794483D01*
X158661547Y-76615313D01*
X158672178Y-76507381D01*
X158679400Y-76434051D01*
X158681471Y-76429315D01*
X158679394Y-76423853D01*
X158661548Y-76242656D01*
X158661547Y-76242653D01*
X158661547Y-76242651D01*
X158607196Y-76063481D01*
X158518936Y-75898357D01*
X158455555Y-75821127D01*
X158400161Y-75753629D01*
X158400152Y-75753620D01*
X158315778Y-75684377D01*
X158255425Y-75634846D01*
X158255422Y-75634844D01*
X158255417Y-75634841D01*
X158090306Y-75546588D01*
X158090304Y-75546587D01*
X157911128Y-75492234D01*
X157911125Y-75492233D01*
X157724804Y-75473883D01*
X157724796Y-75473883D01*
X157538474Y-75492233D01*
X157538471Y-75492234D01*
X157359295Y-75546587D01*
X157359293Y-75546588D01*
X157194182Y-75634841D01*
X157194176Y-75634845D01*
X157049447Y-75753620D01*
X157049438Y-75753629D01*
X156930663Y-75898358D01*
X156930659Y-75898364D01*
X156842406Y-76063475D01*
X156842405Y-76063477D01*
X156788052Y-76242653D01*
X156788051Y-76242656D01*
X156769701Y-76428977D01*
X148490446Y-76428977D01*
X148477625Y-76419139D01*
X148477621Y-76419137D01*
X148343709Y-76363670D01*
X148343708Y-76363669D01*
X148200000Y-76344750D01*
X148056291Y-76363669D01*
X148056290Y-76363670D01*
X147922378Y-76419137D01*
X147922374Y-76419139D01*
X147807381Y-76507377D01*
X147807377Y-76507381D01*
X147719139Y-76622374D01*
X147719137Y-76622378D01*
X147663670Y-76756290D01*
X147663669Y-76756291D01*
X147644750Y-76899999D01*
X143310797Y-76899999D01*
X143367196Y-76794483D01*
X143421547Y-76615313D01*
X143432178Y-76507381D01*
X143439899Y-76428986D01*
X143439899Y-76428977D01*
X143421548Y-76242656D01*
X143421547Y-76242653D01*
X143421547Y-76242651D01*
X143367196Y-76063481D01*
X143278936Y-75898357D01*
X143215555Y-75821127D01*
X143160161Y-75753629D01*
X143160152Y-75753620D01*
X143075778Y-75684377D01*
X143015425Y-75634846D01*
X143015422Y-75634844D01*
X143015417Y-75634841D01*
X142850306Y-75546588D01*
X142850304Y-75546587D01*
X142671128Y-75492234D01*
X142671125Y-75492233D01*
X142484804Y-75473883D01*
X142484796Y-75473883D01*
X142298474Y-75492233D01*
X142298471Y-75492234D01*
X142119295Y-75546587D01*
X142119293Y-75546588D01*
X141954182Y-75634841D01*
X141954176Y-75634845D01*
X141809447Y-75753620D01*
X141809438Y-75753629D01*
X141690663Y-75898358D01*
X141690659Y-75898364D01*
X141602406Y-76063475D01*
X141602405Y-76063477D01*
X141548052Y-76242653D01*
X141548051Y-76242655D01*
X141531823Y-76407433D01*
X141523058Y-76427471D01*
X141342374Y-76427471D01*
X141334300Y-76397729D01*
X141334300Y-73920234D01*
X141343544Y-73891782D01*
X141342374Y-73887471D01*
X141523058Y-73887471D01*
X141531823Y-73910531D01*
X141548051Y-74075307D01*
X141548052Y-74075310D01*
X141602405Y-74254486D01*
X141602406Y-74254488D01*
X141690659Y-74419599D01*
X141690662Y-74419604D01*
X141690664Y-74419607D01*
X141720204Y-74455601D01*
X141809438Y-74564334D01*
X141809447Y-74564343D01*
X141876945Y-74619737D01*
X141954175Y-74683118D01*
X141954180Y-74683120D01*
X141954182Y-74683122D01*
X142008011Y-74711894D01*
X142119299Y-74771378D01*
X142298469Y-74825729D01*
X142298471Y-74825729D01*
X142298474Y-74825730D01*
X142484796Y-74844081D01*
X142484800Y-74844081D01*
X142484804Y-74844081D01*
X142671125Y-74825730D01*
X142671126Y-74825729D01*
X142671131Y-74825729D01*
X142850301Y-74771378D01*
X143015425Y-74683118D01*
X143160157Y-74564339D01*
X143278936Y-74419607D01*
X143367196Y-74254483D01*
X143421547Y-74075313D01*
X143423489Y-74055599D01*
X147415950Y-74055599D01*
X147415950Y-74055600D01*
X147434869Y-74199308D01*
X147434870Y-74199309D01*
X147457725Y-74254488D01*
X147490339Y-74333225D01*
X147490340Y-74333226D01*
X147490342Y-74333229D01*
X147537996Y-74395334D01*
X147558420Y-74453010D01*
X147541042Y-74511675D01*
X147537997Y-74515868D01*
X147490339Y-74577978D01*
X147490337Y-74577981D01*
X147434870Y-74711893D01*
X147434869Y-74711894D01*
X147415950Y-74855602D01*
X147415950Y-74855603D01*
X147434869Y-74999311D01*
X147434870Y-74999312D01*
X147490339Y-75133228D01*
X147578579Y-75248224D01*
X147693575Y-75336464D01*
X147827491Y-75391933D01*
X147971200Y-75410853D01*
X148114909Y-75391933D01*
X148248825Y-75336464D01*
X148363821Y-75248224D01*
X148452061Y-75133228D01*
X148507530Y-74999312D01*
X148526450Y-74855603D01*
X148507530Y-74711894D01*
X148452061Y-74577978D01*
X148452058Y-74577974D01*
X148452057Y-74577972D01*
X148404403Y-74515869D01*
X148383978Y-74458193D01*
X148401355Y-74399527D01*
X148404378Y-74395365D01*
X148452061Y-74333225D01*
X148507530Y-74199309D01*
X148526450Y-74055600D01*
X148507530Y-73911891D01*
X148498039Y-73888977D01*
X156769701Y-73888977D01*
X156769701Y-73888986D01*
X156788051Y-74075307D01*
X156788052Y-74075310D01*
X156842405Y-74254486D01*
X156842406Y-74254488D01*
X156930659Y-74419599D01*
X156930662Y-74419604D01*
X156930664Y-74419607D01*
X156960204Y-74455601D01*
X157049438Y-74564334D01*
X157049447Y-74564343D01*
X157116945Y-74619737D01*
X157194175Y-74683118D01*
X157194180Y-74683120D01*
X157194182Y-74683122D01*
X157248011Y-74711894D01*
X157359299Y-74771378D01*
X157538469Y-74825729D01*
X157538471Y-74825729D01*
X157538474Y-74825730D01*
X157724796Y-74844081D01*
X157724800Y-74844081D01*
X157724804Y-74844081D01*
X157911125Y-74825730D01*
X157911126Y-74825729D01*
X157911131Y-74825729D01*
X158090301Y-74771378D01*
X158255425Y-74683118D01*
X158400157Y-74564339D01*
X158518936Y-74419607D01*
X158607196Y-74254483D01*
X158661547Y-74075313D01*
X158678906Y-73899065D01*
X158683019Y-73889659D01*
X158678898Y-73878819D01*
X158661548Y-73702656D01*
X158661547Y-73702653D01*
X158661547Y-73702651D01*
X158607196Y-73523481D01*
X158604945Y-73519269D01*
X158518940Y-73358364D01*
X158518938Y-73358362D01*
X158518936Y-73358357D01*
X158455555Y-73281127D01*
X158400161Y-73213629D01*
X158400152Y-73213620D01*
X158315778Y-73144377D01*
X158255425Y-73094846D01*
X158255422Y-73094844D01*
X158255417Y-73094841D01*
X158090306Y-73006588D01*
X158090304Y-73006587D01*
X157911128Y-72952234D01*
X157911125Y-72952233D01*
X157724804Y-72933883D01*
X157724796Y-72933883D01*
X157538474Y-72952233D01*
X157538471Y-72952234D01*
X157359295Y-73006587D01*
X157359293Y-73006588D01*
X157194182Y-73094841D01*
X157194176Y-73094845D01*
X157049447Y-73213620D01*
X157049438Y-73213629D01*
X156930663Y-73358358D01*
X156930659Y-73358364D01*
X156842406Y-73523475D01*
X156842405Y-73523477D01*
X156788052Y-73702653D01*
X156788051Y-73702656D01*
X156769701Y-73888977D01*
X148498039Y-73888977D01*
X148452061Y-73777975D01*
X148363821Y-73662979D01*
X148248825Y-73574739D01*
X148248821Y-73574737D01*
X148114909Y-73519270D01*
X148114908Y-73519269D01*
X147971200Y-73500350D01*
X147827491Y-73519269D01*
X147827490Y-73519270D01*
X147693578Y-73574737D01*
X147693574Y-73574739D01*
X147578581Y-73662977D01*
X147578577Y-73662981D01*
X147490339Y-73777974D01*
X147490337Y-73777978D01*
X147434870Y-73911890D01*
X147434869Y-73911891D01*
X147415950Y-74055599D01*
X143423489Y-74055599D01*
X143437953Y-73908749D01*
X143439899Y-73888986D01*
X143439899Y-73888977D01*
X143421548Y-73702656D01*
X143421547Y-73702653D01*
X143421547Y-73702651D01*
X143367196Y-73523481D01*
X143364945Y-73519269D01*
X143278940Y-73358364D01*
X143278938Y-73358362D01*
X143278936Y-73358357D01*
X143215555Y-73281127D01*
X143160161Y-73213629D01*
X143160152Y-73213620D01*
X143075778Y-73144377D01*
X143015425Y-73094846D01*
X143015422Y-73094844D01*
X143015417Y-73094841D01*
X142850306Y-73006588D01*
X142850304Y-73006587D01*
X142671128Y-72952234D01*
X142671125Y-72952233D01*
X142484804Y-72933883D01*
X142484796Y-72933883D01*
X142298474Y-72952233D01*
X142298471Y-72952234D01*
X142119295Y-73006587D01*
X142119293Y-73006588D01*
X141954182Y-73094841D01*
X141954176Y-73094845D01*
X141809447Y-73213620D01*
X141809438Y-73213629D01*
X141690663Y-73358358D01*
X141690659Y-73358364D01*
X141602406Y-73523475D01*
X141602405Y-73523477D01*
X141548052Y-73702653D01*
X141548051Y-73702655D01*
X141531823Y-73867433D01*
X141523058Y-73887471D01*
X141342374Y-73887471D01*
X141334300Y-73857729D01*
X141334300Y-70624309D01*
X141534300Y-70624309D01*
X141534300Y-72073654D01*
X141534301Y-72073666D01*
X141548833Y-72146718D01*
X141548835Y-72146724D01*
X141604197Y-72229581D01*
X141604199Y-72229583D01*
X141687060Y-72284948D01*
X141742608Y-72295997D01*
X141760115Y-72299480D01*
X141760120Y-72299480D01*
X141760126Y-72299482D01*
X141760127Y-72299482D01*
X143209473Y-72299482D01*
X143209474Y-72299482D01*
X143282540Y-72284948D01*
X143365401Y-72229583D01*
X143420766Y-72146722D01*
X143435300Y-72073656D01*
X143435300Y-71431155D01*
X144799500Y-71431155D01*
X144799500Y-72188844D01*
X144830263Y-72343496D01*
X144830263Y-72343498D01*
X144890603Y-72489174D01*
X144890609Y-72489185D01*
X144943312Y-72568059D01*
X144978211Y-72620289D01*
X145089711Y-72731789D01*
X145167876Y-72784017D01*
X145220814Y-72819390D01*
X145220825Y-72819396D01*
X145274638Y-72841685D01*
X145366503Y-72879737D01*
X145521158Y-72910500D01*
X145521159Y-72910500D01*
X145678841Y-72910500D01*
X145678842Y-72910500D01*
X145833497Y-72879737D01*
X145979179Y-72819394D01*
X146110289Y-72731789D01*
X146221789Y-72620289D01*
X146309394Y-72489179D01*
X146369737Y-72343497D01*
X146400500Y-72188842D01*
X146400500Y-71431158D01*
X146400499Y-71431155D01*
X153439500Y-71431155D01*
X153439500Y-72188844D01*
X153470263Y-72343496D01*
X153470263Y-72343498D01*
X153530603Y-72489174D01*
X153530609Y-72489185D01*
X153583312Y-72568059D01*
X153618211Y-72620289D01*
X153729711Y-72731789D01*
X153807876Y-72784017D01*
X153860814Y-72819390D01*
X153860825Y-72819396D01*
X153914638Y-72841685D01*
X154006503Y-72879737D01*
X154161158Y-72910500D01*
X154161159Y-72910500D01*
X154318841Y-72910500D01*
X154318842Y-72910500D01*
X154473497Y-72879737D01*
X154619179Y-72819394D01*
X154750289Y-72731789D01*
X154861789Y-72620289D01*
X154949394Y-72489179D01*
X155009737Y-72343497D01*
X155040500Y-72188842D01*
X155040500Y-71431158D01*
X155009737Y-71276503D01*
X154949394Y-71130821D01*
X154949393Y-71130819D01*
X154949390Y-71130814D01*
X154914017Y-71077876D01*
X154861789Y-70999711D01*
X154750289Y-70888211D01*
X154698059Y-70853312D01*
X154619185Y-70800609D01*
X154619174Y-70800603D01*
X154473497Y-70740263D01*
X154318844Y-70709500D01*
X154318842Y-70709500D01*
X154161158Y-70709500D01*
X154161155Y-70709500D01*
X154006503Y-70740263D01*
X154006501Y-70740263D01*
X153860825Y-70800603D01*
X153860814Y-70800609D01*
X153729711Y-70888211D01*
X153729707Y-70888214D01*
X153618214Y-70999707D01*
X153618211Y-70999711D01*
X153530609Y-71130814D01*
X153530603Y-71130825D01*
X153470263Y-71276501D01*
X153470263Y-71276503D01*
X153439500Y-71431155D01*
X146400499Y-71431155D01*
X146369737Y-71276503D01*
X146309394Y-71130821D01*
X146309393Y-71130819D01*
X146309390Y-71130814D01*
X146274017Y-71077876D01*
X146221789Y-70999711D01*
X146110289Y-70888211D01*
X146058059Y-70853312D01*
X145979185Y-70800609D01*
X145979174Y-70800603D01*
X145833497Y-70740263D01*
X145678844Y-70709500D01*
X145678842Y-70709500D01*
X145521158Y-70709500D01*
X145521155Y-70709500D01*
X145366503Y-70740263D01*
X145366501Y-70740263D01*
X145220825Y-70800603D01*
X145220814Y-70800609D01*
X145089711Y-70888211D01*
X145089707Y-70888214D01*
X144978214Y-70999707D01*
X144978211Y-70999711D01*
X144890609Y-71130814D01*
X144890603Y-71130825D01*
X144830263Y-71276501D01*
X144830263Y-71276503D01*
X144799500Y-71431155D01*
X143435300Y-71431155D01*
X143435300Y-70624308D01*
X143420766Y-70551242D01*
X143365401Y-70468381D01*
X143365399Y-70468379D01*
X143282542Y-70413017D01*
X143282540Y-70413016D01*
X143282537Y-70413015D01*
X143282536Y-70413015D01*
X143209484Y-70398483D01*
X143209474Y-70398482D01*
X141760126Y-70398482D01*
X141760125Y-70398482D01*
X141760115Y-70398483D01*
X141687063Y-70413015D01*
X141687057Y-70413017D01*
X141604200Y-70468379D01*
X141604197Y-70468382D01*
X141548835Y-70551239D01*
X141548833Y-70551245D01*
X141534301Y-70624297D01*
X141534300Y-70624309D01*
X141334300Y-70624309D01*
X141334300Y-68174504D01*
X141334301Y-68174501D01*
X141334300Y-68112926D01*
X141334677Y-68104299D01*
X141340064Y-68042721D01*
X141349094Y-67939510D01*
X141352086Y-67922535D01*
X141393783Y-67766921D01*
X141399676Y-67750729D01*
X141467761Y-67604727D01*
X141476386Y-67589791D01*
X141476405Y-67589764D01*
X141568781Y-67457842D01*
X141579864Y-67444633D01*
X141693782Y-67330723D01*
X141706981Y-67319648D01*
X141838945Y-67227253D01*
X141853883Y-67218630D01*
X141999875Y-67150560D01*
X142016083Y-67144661D01*
X142171687Y-67102977D01*
X142188662Y-67099984D01*
X142354472Y-67085488D01*
X142363070Y-67085113D01*
X142423659Y-67085118D01*
X142423664Y-67085116D01*
X142429991Y-67085117D01*
X142430070Y-67085113D01*
X144862885Y-67085113D01*
X144921076Y-67104020D01*
G37*
%TD.AperFunction*%
%TD*%
M02*
