%TF.GenerationSoftware,KiCad,Pcbnew,8.0.8*%
%TF.CreationDate,2025-03-31T15:02:32-07:00*%
%TF.ProjectId,stoplight,73746f70-6c69-4676-9874-2e6b69636164,0.1*%
%TF.SameCoordinates,Original*%
%TF.FileFunction,Legend,Top*%
%TF.FilePolarity,Positive*%
%FSLAX46Y46*%
G04 Gerber Fmt 4.6, Leading zero omitted, Abs format (unit mm)*
G04 Created by KiCad (PCBNEW 8.0.8) date 2025-03-31 15:02:32*
%MOMM*%
%LPD*%
G01*
G04 APERTURE LIST*
G04 Aperture macros list*
%AMRoundRect*
0 Rectangle with rounded corners*
0 $1 Rounding radius*
0 $2 $3 $4 $5 $6 $7 $8 $9 X,Y pos of 4 corners*
0 Add a 4 corners polygon primitive as box body*
4,1,4,$2,$3,$4,$5,$6,$7,$8,$9,$2,$3,0*
0 Add four circle primitives for the rounded corners*
1,1,$1+$1,$2,$3*
1,1,$1+$1,$4,$5*
1,1,$1+$1,$6,$7*
1,1,$1+$1,$8,$9*
0 Add four rect primitives between the rounded corners*
20,1,$1+$1,$2,$3,$4,$5,0*
20,1,$1+$1,$4,$5,$6,$7,0*
20,1,$1+$1,$6,$7,$8,$9,0*
20,1,$1+$1,$8,$9,$2,$3,0*%
G04 Aperture macros list end*
%ADD10C,0.250000*%
%ADD11C,0.150000*%
%ADD12C,0.120000*%
%ADD13C,0.300000*%
%ADD14C,0.200000*%
%ADD15C,0.080000*%
%ADD16C,0.000000*%
%ADD17R,0.660000X0.280000*%
%ADD18R,1.500000X2.500000*%
%ADD19RoundRect,0.200000X0.275000X-0.200000X0.275000X0.200000X-0.275000X0.200000X-0.275000X-0.200000X0*%
%ADD20RoundRect,0.250000X-1.100000X0.325000X-1.100000X-0.325000X1.100000X-0.325000X1.100000X0.325000X0*%
%ADD21RoundRect,0.140000X-0.140000X-0.170000X0.140000X-0.170000X0.140000X0.170000X-0.140000X0.170000X0*%
%ADD22RoundRect,0.135000X0.135000X0.185000X-0.135000X0.185000X-0.135000X-0.185000X0.135000X-0.185000X0*%
%ADD23RoundRect,0.140000X0.170000X-0.140000X0.170000X0.140000X-0.170000X0.140000X-0.170000X-0.140000X0*%
%ADD24RoundRect,0.250000X0.250000X0.475000X-0.250000X0.475000X-0.250000X-0.475000X0.250000X-0.475000X0*%
%ADD25RoundRect,0.250000X-0.250000X-0.475000X0.250000X-0.475000X0.250000X0.475000X-0.250000X0.475000X0*%
%ADD26R,1.070000X0.530000*%
%ADD27RoundRect,0.250000X0.600000X0.725000X-0.600000X0.725000X-0.600000X-0.725000X0.600000X-0.725000X0*%
%ADD28O,1.700000X1.950000*%
%ADD29R,1.400000X1.400000*%
%ADD30C,1.400000*%
%ADD31R,0.800000X0.400000*%
%ADD32R,2.000000X2.600000*%
%ADD33R,1.800000X2.000000*%
%ADD34RoundRect,0.135000X-0.135000X-0.185000X0.135000X-0.185000X0.135000X0.185000X-0.135000X0.185000X0*%
%ADD35RoundRect,0.225000X0.250000X-0.225000X0.250000X0.225000X-0.250000X0.225000X-0.250000X-0.225000X0*%
%ADD36R,0.640000X0.540000*%
%ADD37RoundRect,0.200000X0.200000X0.275000X-0.200000X0.275000X-0.200000X-0.275000X0.200000X-0.275000X0*%
%ADD38RoundRect,0.140000X0.140000X0.170000X-0.140000X0.170000X-0.140000X-0.170000X0.140000X-0.170000X0*%
%ADD39RoundRect,0.200000X-0.275000X0.200000X-0.275000X-0.200000X0.275000X-0.200000X0.275000X0.200000X0*%
%ADD40RoundRect,0.250000X-0.475000X0.250000X-0.475000X-0.250000X0.475000X-0.250000X0.475000X0.250000X0*%
%ADD41O,1.100000X1.700000*%
%ADD42R,0.700000X1.200000*%
%ADD43R,0.800000X1.200000*%
G04 APERTURE END LIST*
D10*
X142917000Y-95445050D02*
X142964619Y-95302193D01*
X142964619Y-95302193D02*
X142964619Y-95064098D01*
X142964619Y-95064098D02*
X142917000Y-94968860D01*
X142917000Y-94968860D02*
X142869380Y-94921241D01*
X142869380Y-94921241D02*
X142774142Y-94873622D01*
X142774142Y-94873622D02*
X142678904Y-94873622D01*
X142678904Y-94873622D02*
X142583666Y-94921241D01*
X142583666Y-94921241D02*
X142536047Y-94968860D01*
X142536047Y-94968860D02*
X142488428Y-95064098D01*
X142488428Y-95064098D02*
X142440809Y-95254574D01*
X142440809Y-95254574D02*
X142393190Y-95349812D01*
X142393190Y-95349812D02*
X142345571Y-95397431D01*
X142345571Y-95397431D02*
X142250333Y-95445050D01*
X142250333Y-95445050D02*
X142155095Y-95445050D01*
X142155095Y-95445050D02*
X142059857Y-95397431D01*
X142059857Y-95397431D02*
X142012238Y-95349812D01*
X142012238Y-95349812D02*
X141964619Y-95254574D01*
X141964619Y-95254574D02*
X141964619Y-95016479D01*
X141964619Y-95016479D02*
X142012238Y-94873622D01*
X142297952Y-94587907D02*
X142297952Y-94206955D01*
X141964619Y-94445050D02*
X142821761Y-94445050D01*
X142821761Y-94445050D02*
X142917000Y-94397431D01*
X142917000Y-94397431D02*
X142964619Y-94302193D01*
X142964619Y-94302193D02*
X142964619Y-94206955D01*
X142964619Y-93730764D02*
X142917000Y-93826002D01*
X142917000Y-93826002D02*
X142869380Y-93873621D01*
X142869380Y-93873621D02*
X142774142Y-93921240D01*
X142774142Y-93921240D02*
X142488428Y-93921240D01*
X142488428Y-93921240D02*
X142393190Y-93873621D01*
X142393190Y-93873621D02*
X142345571Y-93826002D01*
X142345571Y-93826002D02*
X142297952Y-93730764D01*
X142297952Y-93730764D02*
X142297952Y-93587907D01*
X142297952Y-93587907D02*
X142345571Y-93492669D01*
X142345571Y-93492669D02*
X142393190Y-93445050D01*
X142393190Y-93445050D02*
X142488428Y-93397431D01*
X142488428Y-93397431D02*
X142774142Y-93397431D01*
X142774142Y-93397431D02*
X142869380Y-93445050D01*
X142869380Y-93445050D02*
X142917000Y-93492669D01*
X142917000Y-93492669D02*
X142964619Y-93587907D01*
X142964619Y-93587907D02*
X142964619Y-93730764D01*
X142297952Y-92968859D02*
X143297952Y-92968859D01*
X142345571Y-92968859D02*
X142297952Y-92873621D01*
X142297952Y-92873621D02*
X142297952Y-92683145D01*
X142297952Y-92683145D02*
X142345571Y-92587907D01*
X142345571Y-92587907D02*
X142393190Y-92540288D01*
X142393190Y-92540288D02*
X142488428Y-92492669D01*
X142488428Y-92492669D02*
X142774142Y-92492669D01*
X142774142Y-92492669D02*
X142869380Y-92540288D01*
X142869380Y-92540288D02*
X142917000Y-92587907D01*
X142917000Y-92587907D02*
X142964619Y-92683145D01*
X142964619Y-92683145D02*
X142964619Y-92873621D01*
X142964619Y-92873621D02*
X142917000Y-92968859D01*
X142964619Y-91587907D02*
X142964619Y-92064097D01*
X142964619Y-92064097D02*
X141964619Y-92064097D01*
X142964619Y-91254573D02*
X142297952Y-91254573D01*
X141964619Y-91254573D02*
X142012238Y-91302192D01*
X142012238Y-91302192D02*
X142059857Y-91254573D01*
X142059857Y-91254573D02*
X142012238Y-91206954D01*
X142012238Y-91206954D02*
X141964619Y-91254573D01*
X141964619Y-91254573D02*
X142059857Y-91254573D01*
X142297952Y-90349812D02*
X143107476Y-90349812D01*
X143107476Y-90349812D02*
X143202714Y-90397431D01*
X143202714Y-90397431D02*
X143250333Y-90445050D01*
X143250333Y-90445050D02*
X143297952Y-90540288D01*
X143297952Y-90540288D02*
X143297952Y-90683145D01*
X143297952Y-90683145D02*
X143250333Y-90778383D01*
X142917000Y-90349812D02*
X142964619Y-90445050D01*
X142964619Y-90445050D02*
X142964619Y-90635526D01*
X142964619Y-90635526D02*
X142917000Y-90730764D01*
X142917000Y-90730764D02*
X142869380Y-90778383D01*
X142869380Y-90778383D02*
X142774142Y-90826002D01*
X142774142Y-90826002D02*
X142488428Y-90826002D01*
X142488428Y-90826002D02*
X142393190Y-90778383D01*
X142393190Y-90778383D02*
X142345571Y-90730764D01*
X142345571Y-90730764D02*
X142297952Y-90635526D01*
X142297952Y-90635526D02*
X142297952Y-90445050D01*
X142297952Y-90445050D02*
X142345571Y-90349812D01*
X142964619Y-89873621D02*
X141964619Y-89873621D01*
X142964619Y-89445050D02*
X142440809Y-89445050D01*
X142440809Y-89445050D02*
X142345571Y-89492669D01*
X142345571Y-89492669D02*
X142297952Y-89587907D01*
X142297952Y-89587907D02*
X142297952Y-89730764D01*
X142297952Y-89730764D02*
X142345571Y-89826002D01*
X142345571Y-89826002D02*
X142393190Y-89873621D01*
X142297952Y-89111716D02*
X142297952Y-88730764D01*
X141964619Y-88968859D02*
X142821761Y-88968859D01*
X142821761Y-88968859D02*
X142917000Y-88921240D01*
X142917000Y-88921240D02*
X142964619Y-88826002D01*
X142964619Y-88826002D02*
X142964619Y-88730764D01*
X157635380Y-90202568D02*
X158302047Y-90202568D01*
X158111571Y-90202568D02*
X158206809Y-90250187D01*
X158206809Y-90250187D02*
X158254428Y-90297806D01*
X158254428Y-90297806D02*
X158302047Y-90393044D01*
X158302047Y-90393044D02*
X158302047Y-90488282D01*
X157683000Y-91202568D02*
X157635380Y-91107330D01*
X157635380Y-91107330D02*
X157635380Y-90916854D01*
X157635380Y-90916854D02*
X157683000Y-90821616D01*
X157683000Y-90821616D02*
X157778238Y-90773997D01*
X157778238Y-90773997D02*
X158159190Y-90773997D01*
X158159190Y-90773997D02*
X158254428Y-90821616D01*
X158254428Y-90821616D02*
X158302047Y-90916854D01*
X158302047Y-90916854D02*
X158302047Y-91107330D01*
X158302047Y-91107330D02*
X158254428Y-91202568D01*
X158254428Y-91202568D02*
X158159190Y-91250187D01*
X158159190Y-91250187D02*
X158063952Y-91250187D01*
X158063952Y-91250187D02*
X157968714Y-90773997D01*
X158302047Y-91583521D02*
X157635380Y-91821616D01*
X157635380Y-91821616D02*
X158302047Y-92059711D01*
X158635380Y-92631140D02*
X158635380Y-92726378D01*
X158635380Y-92726378D02*
X158587761Y-92821616D01*
X158587761Y-92821616D02*
X158540142Y-92869235D01*
X158540142Y-92869235D02*
X158444904Y-92916854D01*
X158444904Y-92916854D02*
X158254428Y-92964473D01*
X158254428Y-92964473D02*
X158016333Y-92964473D01*
X158016333Y-92964473D02*
X157825857Y-92916854D01*
X157825857Y-92916854D02*
X157730619Y-92869235D01*
X157730619Y-92869235D02*
X157683000Y-92821616D01*
X157683000Y-92821616D02*
X157635380Y-92726378D01*
X157635380Y-92726378D02*
X157635380Y-92631140D01*
X157635380Y-92631140D02*
X157683000Y-92535902D01*
X157683000Y-92535902D02*
X157730619Y-92488283D01*
X157730619Y-92488283D02*
X157825857Y-92440664D01*
X157825857Y-92440664D02*
X158016333Y-92393045D01*
X158016333Y-92393045D02*
X158254428Y-92393045D01*
X158254428Y-92393045D02*
X158444904Y-92440664D01*
X158444904Y-92440664D02*
X158540142Y-92488283D01*
X158540142Y-92488283D02*
X158587761Y-92535902D01*
X158587761Y-92535902D02*
X158635380Y-92631140D01*
X157730619Y-93393045D02*
X157683000Y-93440664D01*
X157683000Y-93440664D02*
X157635380Y-93393045D01*
X157635380Y-93393045D02*
X157683000Y-93345426D01*
X157683000Y-93345426D02*
X157730619Y-93393045D01*
X157730619Y-93393045D02*
X157635380Y-93393045D01*
X157635380Y-94393044D02*
X157635380Y-93821616D01*
X157635380Y-94107330D02*
X158635380Y-94107330D01*
X158635380Y-94107330D02*
X158492523Y-94012092D01*
X158492523Y-94012092D02*
X158397285Y-93916854D01*
X158397285Y-93916854D02*
X158349666Y-93821616D01*
D11*
X147056895Y-72835801D02*
X147056895Y-73645324D01*
X147056895Y-73645324D02*
X147104514Y-73740562D01*
X147104514Y-73740562D02*
X147152133Y-73788182D01*
X147152133Y-73788182D02*
X147247371Y-73835801D01*
X147247371Y-73835801D02*
X147437847Y-73835801D01*
X147437847Y-73835801D02*
X147533085Y-73788182D01*
X147533085Y-73788182D02*
X147580704Y-73740562D01*
X147580704Y-73740562D02*
X147628323Y-73645324D01*
X147628323Y-73645324D02*
X147628323Y-72835801D01*
X148628323Y-73835801D02*
X148056895Y-73835801D01*
X148342609Y-73835801D02*
X148342609Y-72835801D01*
X148342609Y-72835801D02*
X148247371Y-72978658D01*
X148247371Y-72978658D02*
X148152133Y-73073896D01*
X148152133Y-73073896D02*
X148056895Y-73121515D01*
X152986133Y-81317619D02*
X152652800Y-80841428D01*
X152414705Y-81317619D02*
X152414705Y-80317619D01*
X152414705Y-80317619D02*
X152795657Y-80317619D01*
X152795657Y-80317619D02*
X152890895Y-80365238D01*
X152890895Y-80365238D02*
X152938514Y-80412857D01*
X152938514Y-80412857D02*
X152986133Y-80508095D01*
X152986133Y-80508095D02*
X152986133Y-80650952D01*
X152986133Y-80650952D02*
X152938514Y-80746190D01*
X152938514Y-80746190D02*
X152890895Y-80793809D01*
X152890895Y-80793809D02*
X152795657Y-80841428D01*
X152795657Y-80841428D02*
X152414705Y-80841428D01*
X153319467Y-80317619D02*
X153938514Y-80317619D01*
X153938514Y-80317619D02*
X153605181Y-80698571D01*
X153605181Y-80698571D02*
X153748038Y-80698571D01*
X153748038Y-80698571D02*
X153843276Y-80746190D01*
X153843276Y-80746190D02*
X153890895Y-80793809D01*
X153890895Y-80793809D02*
X153938514Y-80889047D01*
X153938514Y-80889047D02*
X153938514Y-81127142D01*
X153938514Y-81127142D02*
X153890895Y-81222380D01*
X153890895Y-81222380D02*
X153843276Y-81270000D01*
X153843276Y-81270000D02*
X153748038Y-81317619D01*
X153748038Y-81317619D02*
X153462324Y-81317619D01*
X153462324Y-81317619D02*
X153367086Y-81270000D01*
X153367086Y-81270000D02*
X153319467Y-81222380D01*
X150985942Y-85170562D02*
X150938323Y-85218182D01*
X150938323Y-85218182D02*
X150795466Y-85265801D01*
X150795466Y-85265801D02*
X150700228Y-85265801D01*
X150700228Y-85265801D02*
X150557371Y-85218182D01*
X150557371Y-85218182D02*
X150462133Y-85122943D01*
X150462133Y-85122943D02*
X150414514Y-85027705D01*
X150414514Y-85027705D02*
X150366895Y-84837229D01*
X150366895Y-84837229D02*
X150366895Y-84694372D01*
X150366895Y-84694372D02*
X150414514Y-84503896D01*
X150414514Y-84503896D02*
X150462133Y-84408658D01*
X150462133Y-84408658D02*
X150557371Y-84313420D01*
X150557371Y-84313420D02*
X150700228Y-84265801D01*
X150700228Y-84265801D02*
X150795466Y-84265801D01*
X150795466Y-84265801D02*
X150938323Y-84313420D01*
X150938323Y-84313420D02*
X150985942Y-84361039D01*
X151938323Y-85265801D02*
X151366895Y-85265801D01*
X151652609Y-85265801D02*
X151652609Y-84265801D01*
X151652609Y-84265801D02*
X151557371Y-84408658D01*
X151557371Y-84408658D02*
X151462133Y-84503896D01*
X151462133Y-84503896D02*
X151366895Y-84551515D01*
X152319276Y-84361039D02*
X152366895Y-84313420D01*
X152366895Y-84313420D02*
X152462133Y-84265801D01*
X152462133Y-84265801D02*
X152700228Y-84265801D01*
X152700228Y-84265801D02*
X152795466Y-84313420D01*
X152795466Y-84313420D02*
X152843085Y-84361039D01*
X152843085Y-84361039D02*
X152890704Y-84456277D01*
X152890704Y-84456277D02*
X152890704Y-84551515D01*
X152890704Y-84551515D02*
X152843085Y-84694372D01*
X152843085Y-84694372D02*
X152271657Y-85265801D01*
X152271657Y-85265801D02*
X152890704Y-85265801D01*
X143111942Y-81730380D02*
X143064323Y-81778000D01*
X143064323Y-81778000D02*
X142921466Y-81825619D01*
X142921466Y-81825619D02*
X142826228Y-81825619D01*
X142826228Y-81825619D02*
X142683371Y-81778000D01*
X142683371Y-81778000D02*
X142588133Y-81682761D01*
X142588133Y-81682761D02*
X142540514Y-81587523D01*
X142540514Y-81587523D02*
X142492895Y-81397047D01*
X142492895Y-81397047D02*
X142492895Y-81254190D01*
X142492895Y-81254190D02*
X142540514Y-81063714D01*
X142540514Y-81063714D02*
X142588133Y-80968476D01*
X142588133Y-80968476D02*
X142683371Y-80873238D01*
X142683371Y-80873238D02*
X142826228Y-80825619D01*
X142826228Y-80825619D02*
X142921466Y-80825619D01*
X142921466Y-80825619D02*
X143064323Y-80873238D01*
X143064323Y-80873238D02*
X143111942Y-80920857D01*
X144064323Y-81825619D02*
X143492895Y-81825619D01*
X143778609Y-81825619D02*
X143778609Y-80825619D01*
X143778609Y-80825619D02*
X143683371Y-80968476D01*
X143683371Y-80968476D02*
X143588133Y-81063714D01*
X143588133Y-81063714D02*
X143492895Y-81111333D01*
X144397657Y-80825619D02*
X145064323Y-80825619D01*
X145064323Y-80825619D02*
X144635752Y-81825619D01*
X143111942Y-82841619D02*
X142778609Y-82365428D01*
X142540514Y-82841619D02*
X142540514Y-81841619D01*
X142540514Y-81841619D02*
X142921466Y-81841619D01*
X142921466Y-81841619D02*
X143016704Y-81889238D01*
X143016704Y-81889238D02*
X143064323Y-81936857D01*
X143064323Y-81936857D02*
X143111942Y-82032095D01*
X143111942Y-82032095D02*
X143111942Y-82174952D01*
X143111942Y-82174952D02*
X143064323Y-82270190D01*
X143064323Y-82270190D02*
X143016704Y-82317809D01*
X143016704Y-82317809D02*
X142921466Y-82365428D01*
X142921466Y-82365428D02*
X142540514Y-82365428D01*
X144064323Y-82841619D02*
X143492895Y-82841619D01*
X143778609Y-82841619D02*
X143778609Y-81841619D01*
X143778609Y-81841619D02*
X143683371Y-81984476D01*
X143683371Y-81984476D02*
X143588133Y-82079714D01*
X143588133Y-82079714D02*
X143492895Y-82127333D01*
X144921466Y-81841619D02*
X144730990Y-81841619D01*
X144730990Y-81841619D02*
X144635752Y-81889238D01*
X144635752Y-81889238D02*
X144588133Y-81936857D01*
X144588133Y-81936857D02*
X144492895Y-82079714D01*
X144492895Y-82079714D02*
X144445276Y-82270190D01*
X144445276Y-82270190D02*
X144445276Y-82651142D01*
X144445276Y-82651142D02*
X144492895Y-82746380D01*
X144492895Y-82746380D02*
X144540514Y-82794000D01*
X144540514Y-82794000D02*
X144635752Y-82841619D01*
X144635752Y-82841619D02*
X144826228Y-82841619D01*
X144826228Y-82841619D02*
X144921466Y-82794000D01*
X144921466Y-82794000D02*
X144969085Y-82746380D01*
X144969085Y-82746380D02*
X145016704Y-82651142D01*
X145016704Y-82651142D02*
X145016704Y-82413047D01*
X145016704Y-82413047D02*
X144969085Y-82317809D01*
X144969085Y-82317809D02*
X144921466Y-82270190D01*
X144921466Y-82270190D02*
X144826228Y-82222571D01*
X144826228Y-82222571D02*
X144635752Y-82222571D01*
X144635752Y-82222571D02*
X144540514Y-82270190D01*
X144540514Y-82270190D02*
X144492895Y-82317809D01*
X144492895Y-82317809D02*
X144445276Y-82413047D01*
X157499999Y-66869771D02*
X157499999Y-67298342D01*
X157499999Y-67298342D02*
X157471428Y-67384057D01*
X157471428Y-67384057D02*
X157414285Y-67441200D01*
X157414285Y-67441200D02*
X157328571Y-67469771D01*
X157328571Y-67469771D02*
X157271428Y-67469771D01*
X157785714Y-67469771D02*
X157785714Y-66869771D01*
X157785714Y-66869771D02*
X158014285Y-66869771D01*
X158014285Y-66869771D02*
X158071428Y-66898342D01*
X158071428Y-66898342D02*
X158099999Y-66926914D01*
X158099999Y-66926914D02*
X158128571Y-66984057D01*
X158128571Y-66984057D02*
X158128571Y-67069771D01*
X158128571Y-67069771D02*
X158099999Y-67126914D01*
X158099999Y-67126914D02*
X158071428Y-67155485D01*
X158071428Y-67155485D02*
X158014285Y-67184057D01*
X158014285Y-67184057D02*
X157785714Y-67184057D01*
X158699999Y-67469771D02*
X158357142Y-67469771D01*
X158528571Y-67469771D02*
X158528571Y-66869771D01*
X158528571Y-66869771D02*
X158471428Y-66955485D01*
X158471428Y-66955485D02*
X158414285Y-67012628D01*
X158414285Y-67012628D02*
X158357142Y-67041200D01*
X148432380Y-77219466D02*
X148480000Y-77267085D01*
X148480000Y-77267085D02*
X148527619Y-77409942D01*
X148527619Y-77409942D02*
X148527619Y-77505180D01*
X148527619Y-77505180D02*
X148480000Y-77648037D01*
X148480000Y-77648037D02*
X148384761Y-77743275D01*
X148384761Y-77743275D02*
X148289523Y-77790894D01*
X148289523Y-77790894D02*
X148099047Y-77838513D01*
X148099047Y-77838513D02*
X147956190Y-77838513D01*
X147956190Y-77838513D02*
X147765714Y-77790894D01*
X147765714Y-77790894D02*
X147670476Y-77743275D01*
X147670476Y-77743275D02*
X147575238Y-77648037D01*
X147575238Y-77648037D02*
X147527619Y-77505180D01*
X147527619Y-77505180D02*
X147527619Y-77409942D01*
X147527619Y-77409942D02*
X147575238Y-77267085D01*
X147575238Y-77267085D02*
X147622857Y-77219466D01*
X147527619Y-76886132D02*
X147527619Y-76267085D01*
X147527619Y-76267085D02*
X147908571Y-76600418D01*
X147908571Y-76600418D02*
X147908571Y-76457561D01*
X147908571Y-76457561D02*
X147956190Y-76362323D01*
X147956190Y-76362323D02*
X148003809Y-76314704D01*
X148003809Y-76314704D02*
X148099047Y-76267085D01*
X148099047Y-76267085D02*
X148337142Y-76267085D01*
X148337142Y-76267085D02*
X148432380Y-76314704D01*
X148432380Y-76314704D02*
X148480000Y-76362323D01*
X148480000Y-76362323D02*
X148527619Y-76457561D01*
X148527619Y-76457561D02*
X148527619Y-76743275D01*
X148527619Y-76743275D02*
X148480000Y-76838513D01*
X148480000Y-76838513D02*
X148432380Y-76886132D01*
X145874133Y-73994562D02*
X145826514Y-74042182D01*
X145826514Y-74042182D02*
X145683657Y-74089801D01*
X145683657Y-74089801D02*
X145588419Y-74089801D01*
X145588419Y-74089801D02*
X145445562Y-74042182D01*
X145445562Y-74042182D02*
X145350324Y-73946943D01*
X145350324Y-73946943D02*
X145302705Y-73851705D01*
X145302705Y-73851705D02*
X145255086Y-73661229D01*
X145255086Y-73661229D02*
X145255086Y-73518372D01*
X145255086Y-73518372D02*
X145302705Y-73327896D01*
X145302705Y-73327896D02*
X145350324Y-73232658D01*
X145350324Y-73232658D02*
X145445562Y-73137420D01*
X145445562Y-73137420D02*
X145588419Y-73089801D01*
X145588419Y-73089801D02*
X145683657Y-73089801D01*
X145683657Y-73089801D02*
X145826514Y-73137420D01*
X145826514Y-73137420D02*
X145874133Y-73185039D01*
X146255086Y-73185039D02*
X146302705Y-73137420D01*
X146302705Y-73137420D02*
X146397943Y-73089801D01*
X146397943Y-73089801D02*
X146636038Y-73089801D01*
X146636038Y-73089801D02*
X146731276Y-73137420D01*
X146731276Y-73137420D02*
X146778895Y-73185039D01*
X146778895Y-73185039D02*
X146826514Y-73280277D01*
X146826514Y-73280277D02*
X146826514Y-73375515D01*
X146826514Y-73375515D02*
X146778895Y-73518372D01*
X146778895Y-73518372D02*
X146207467Y-74089801D01*
X146207467Y-74089801D02*
X146826514Y-74089801D01*
X148003219Y-83367104D02*
X148812742Y-83367104D01*
X148812742Y-83367104D02*
X148907980Y-83319485D01*
X148907980Y-83319485D02*
X148955600Y-83271866D01*
X148955600Y-83271866D02*
X149003219Y-83176628D01*
X149003219Y-83176628D02*
X149003219Y-82986152D01*
X149003219Y-82986152D02*
X148955600Y-82890914D01*
X148955600Y-82890914D02*
X148907980Y-82843295D01*
X148907980Y-82843295D02*
X148812742Y-82795676D01*
X148812742Y-82795676D02*
X148003219Y-82795676D01*
X148003219Y-81843295D02*
X148003219Y-82319485D01*
X148003219Y-82319485D02*
X148479409Y-82367104D01*
X148479409Y-82367104D02*
X148431790Y-82319485D01*
X148431790Y-82319485D02*
X148384171Y-82224247D01*
X148384171Y-82224247D02*
X148384171Y-81986152D01*
X148384171Y-81986152D02*
X148431790Y-81890914D01*
X148431790Y-81890914D02*
X148479409Y-81843295D01*
X148479409Y-81843295D02*
X148574647Y-81795676D01*
X148574647Y-81795676D02*
X148812742Y-81795676D01*
X148812742Y-81795676D02*
X148907980Y-81843295D01*
X148907980Y-81843295D02*
X148955600Y-81890914D01*
X148955600Y-81890914D02*
X149003219Y-81986152D01*
X149003219Y-81986152D02*
X149003219Y-82224247D01*
X149003219Y-82224247D02*
X148955600Y-82319485D01*
X148955600Y-82319485D02*
X148907980Y-82367104D01*
X150166666Y-92054819D02*
X150166666Y-92769104D01*
X150166666Y-92769104D02*
X150119047Y-92911961D01*
X150119047Y-92911961D02*
X150023809Y-93007200D01*
X150023809Y-93007200D02*
X149880952Y-93054819D01*
X149880952Y-93054819D02*
X149785714Y-93054819D01*
X151166666Y-93054819D02*
X150595238Y-93054819D01*
X150880952Y-93054819D02*
X150880952Y-92054819D01*
X150880952Y-92054819D02*
X150785714Y-92197676D01*
X150785714Y-92197676D02*
X150690476Y-92292914D01*
X150690476Y-92292914D02*
X150595238Y-92340533D01*
X144971619Y-73561904D02*
X143971619Y-73561904D01*
X144447809Y-73561904D02*
X144447809Y-72990476D01*
X144971619Y-72990476D02*
X143971619Y-72990476D01*
X144971619Y-71990476D02*
X144971619Y-72561904D01*
X144971619Y-72276190D02*
X143971619Y-72276190D01*
X143971619Y-72276190D02*
X144114476Y-72371428D01*
X144114476Y-72371428D02*
X144209714Y-72466666D01*
X144209714Y-72466666D02*
X144257333Y-72561904D01*
X147723561Y-81031857D02*
X147628323Y-80984238D01*
X147628323Y-80984238D02*
X147533085Y-80889000D01*
X147533085Y-80889000D02*
X147390228Y-80746142D01*
X147390228Y-80746142D02*
X147294990Y-80698523D01*
X147294990Y-80698523D02*
X147199752Y-80698523D01*
X147247371Y-80936619D02*
X147152133Y-80889000D01*
X147152133Y-80889000D02*
X147056895Y-80793761D01*
X147056895Y-80793761D02*
X147009276Y-80603285D01*
X147009276Y-80603285D02*
X147009276Y-80269952D01*
X147009276Y-80269952D02*
X147056895Y-80079476D01*
X147056895Y-80079476D02*
X147152133Y-79984238D01*
X147152133Y-79984238D02*
X147247371Y-79936619D01*
X147247371Y-79936619D02*
X147437847Y-79936619D01*
X147437847Y-79936619D02*
X147533085Y-79984238D01*
X147533085Y-79984238D02*
X147628323Y-80079476D01*
X147628323Y-80079476D02*
X147675942Y-80269952D01*
X147675942Y-80269952D02*
X147675942Y-80603285D01*
X147675942Y-80603285D02*
X147628323Y-80793761D01*
X147628323Y-80793761D02*
X147533085Y-80889000D01*
X147533085Y-80889000D02*
X147437847Y-80936619D01*
X147437847Y-80936619D02*
X147247371Y-80936619D01*
X148628323Y-80936619D02*
X148056895Y-80936619D01*
X148342609Y-80936619D02*
X148342609Y-79936619D01*
X148342609Y-79936619D02*
X148247371Y-80079476D01*
X148247371Y-80079476D02*
X148152133Y-80174714D01*
X148152133Y-80174714D02*
X148056895Y-80222333D01*
X144350133Y-89329801D02*
X143873943Y-89329801D01*
X143873943Y-89329801D02*
X143873943Y-88329801D01*
X144635848Y-88425039D02*
X144683467Y-88377420D01*
X144683467Y-88377420D02*
X144778705Y-88329801D01*
X144778705Y-88329801D02*
X145016800Y-88329801D01*
X145016800Y-88329801D02*
X145112038Y-88377420D01*
X145112038Y-88377420D02*
X145159657Y-88425039D01*
X145159657Y-88425039D02*
X145207276Y-88520277D01*
X145207276Y-88520277D02*
X145207276Y-88615515D01*
X145207276Y-88615515D02*
X145159657Y-88758372D01*
X145159657Y-88758372D02*
X144588229Y-89329801D01*
X144588229Y-89329801D02*
X145207276Y-89329801D01*
X155754819Y-70542857D02*
X155278628Y-70876190D01*
X155754819Y-71114285D02*
X154754819Y-71114285D01*
X154754819Y-71114285D02*
X154754819Y-70733333D01*
X154754819Y-70733333D02*
X154802438Y-70638095D01*
X154802438Y-70638095D02*
X154850057Y-70590476D01*
X154850057Y-70590476D02*
X154945295Y-70542857D01*
X154945295Y-70542857D02*
X155088152Y-70542857D01*
X155088152Y-70542857D02*
X155183390Y-70590476D01*
X155183390Y-70590476D02*
X155231009Y-70638095D01*
X155231009Y-70638095D02*
X155278628Y-70733333D01*
X155278628Y-70733333D02*
X155278628Y-71114285D01*
X155754819Y-69590476D02*
X155754819Y-70161904D01*
X155754819Y-69876190D02*
X154754819Y-69876190D01*
X154754819Y-69876190D02*
X154897676Y-69971428D01*
X154897676Y-69971428D02*
X154992914Y-70066666D01*
X154992914Y-70066666D02*
X155040533Y-70161904D01*
X154754819Y-69257142D02*
X154754819Y-68638095D01*
X154754819Y-68638095D02*
X155135771Y-68971428D01*
X155135771Y-68971428D02*
X155135771Y-68828571D01*
X155135771Y-68828571D02*
X155183390Y-68733333D01*
X155183390Y-68733333D02*
X155231009Y-68685714D01*
X155231009Y-68685714D02*
X155326247Y-68638095D01*
X155326247Y-68638095D02*
X155564342Y-68638095D01*
X155564342Y-68638095D02*
X155659580Y-68685714D01*
X155659580Y-68685714D02*
X155707200Y-68733333D01*
X155707200Y-68733333D02*
X155754819Y-68828571D01*
X155754819Y-68828571D02*
X155754819Y-69114285D01*
X155754819Y-69114285D02*
X155707200Y-69209523D01*
X155707200Y-69209523D02*
X155659580Y-69257142D01*
X151226380Y-83167839D02*
X151274000Y-83215458D01*
X151274000Y-83215458D02*
X151321619Y-83358315D01*
X151321619Y-83358315D02*
X151321619Y-83453553D01*
X151321619Y-83453553D02*
X151274000Y-83596410D01*
X151274000Y-83596410D02*
X151178761Y-83691648D01*
X151178761Y-83691648D02*
X151083523Y-83739267D01*
X151083523Y-83739267D02*
X150893047Y-83786886D01*
X150893047Y-83786886D02*
X150750190Y-83786886D01*
X150750190Y-83786886D02*
X150559714Y-83739267D01*
X150559714Y-83739267D02*
X150464476Y-83691648D01*
X150464476Y-83691648D02*
X150369238Y-83596410D01*
X150369238Y-83596410D02*
X150321619Y-83453553D01*
X150321619Y-83453553D02*
X150321619Y-83358315D01*
X150321619Y-83358315D02*
X150369238Y-83215458D01*
X150369238Y-83215458D02*
X150416857Y-83167839D01*
X151321619Y-82215458D02*
X151321619Y-82786886D01*
X151321619Y-82501172D02*
X150321619Y-82501172D01*
X150321619Y-82501172D02*
X150464476Y-82596410D01*
X150464476Y-82596410D02*
X150559714Y-82691648D01*
X150559714Y-82691648D02*
X150607333Y-82786886D01*
X150321619Y-81882124D02*
X150321619Y-81263077D01*
X150321619Y-81263077D02*
X150702571Y-81596410D01*
X150702571Y-81596410D02*
X150702571Y-81453553D01*
X150702571Y-81453553D02*
X150750190Y-81358315D01*
X150750190Y-81358315D02*
X150797809Y-81310696D01*
X150797809Y-81310696D02*
X150893047Y-81263077D01*
X150893047Y-81263077D02*
X151131142Y-81263077D01*
X151131142Y-81263077D02*
X151226380Y-81310696D01*
X151226380Y-81310696D02*
X151274000Y-81358315D01*
X151274000Y-81358315D02*
X151321619Y-81453553D01*
X151321619Y-81453553D02*
X151321619Y-81739267D01*
X151321619Y-81739267D02*
X151274000Y-81834505D01*
X151274000Y-81834505D02*
X151226380Y-81882124D01*
X153748133Y-73486562D02*
X153700514Y-73534182D01*
X153700514Y-73534182D02*
X153557657Y-73581801D01*
X153557657Y-73581801D02*
X153462419Y-73581801D01*
X153462419Y-73581801D02*
X153319562Y-73534182D01*
X153319562Y-73534182D02*
X153224324Y-73438943D01*
X153224324Y-73438943D02*
X153176705Y-73343705D01*
X153176705Y-73343705D02*
X153129086Y-73153229D01*
X153129086Y-73153229D02*
X153129086Y-73010372D01*
X153129086Y-73010372D02*
X153176705Y-72819896D01*
X153176705Y-72819896D02*
X153224324Y-72724658D01*
X153224324Y-72724658D02*
X153319562Y-72629420D01*
X153319562Y-72629420D02*
X153462419Y-72581801D01*
X153462419Y-72581801D02*
X153557657Y-72581801D01*
X153557657Y-72581801D02*
X153700514Y-72629420D01*
X153700514Y-72629420D02*
X153748133Y-72677039D01*
X154700514Y-73581801D02*
X154129086Y-73581801D01*
X154414800Y-73581801D02*
X154414800Y-72581801D01*
X154414800Y-72581801D02*
X154319562Y-72724658D01*
X154319562Y-72724658D02*
X154224324Y-72819896D01*
X154224324Y-72819896D02*
X154129086Y-72867515D01*
X155128571Y-67369771D02*
X154842857Y-67369771D01*
X154842857Y-67369771D02*
X154842857Y-66769771D01*
X155328571Y-67055485D02*
X155528571Y-67055485D01*
X155614285Y-67369771D02*
X155328571Y-67369771D01*
X155328571Y-67369771D02*
X155328571Y-66769771D01*
X155328571Y-66769771D02*
X155614285Y-66769771D01*
X155871428Y-67369771D02*
X155871428Y-66769771D01*
X155871428Y-66769771D02*
X156014285Y-66769771D01*
X156014285Y-66769771D02*
X156099999Y-66798342D01*
X156099999Y-66798342D02*
X156157142Y-66855485D01*
X156157142Y-66855485D02*
X156185713Y-66912628D01*
X156185713Y-66912628D02*
X156214285Y-67026914D01*
X156214285Y-67026914D02*
X156214285Y-67112628D01*
X156214285Y-67112628D02*
X156185713Y-67226914D01*
X156185713Y-67226914D02*
X156157142Y-67284057D01*
X156157142Y-67284057D02*
X156099999Y-67341200D01*
X156099999Y-67341200D02*
X156014285Y-67369771D01*
X156014285Y-67369771D02*
X155871428Y-67369771D01*
X156785713Y-67369771D02*
X156442856Y-67369771D01*
X156614285Y-67369771D02*
X156614285Y-66769771D01*
X156614285Y-66769771D02*
X156557142Y-66855485D01*
X156557142Y-66855485D02*
X156499999Y-66912628D01*
X156499999Y-66912628D02*
X156442856Y-66941200D01*
X153353619Y-76341648D02*
X152877428Y-76674981D01*
X153353619Y-76913076D02*
X152353619Y-76913076D01*
X152353619Y-76913076D02*
X152353619Y-76532124D01*
X152353619Y-76532124D02*
X152401238Y-76436886D01*
X152401238Y-76436886D02*
X152448857Y-76389267D01*
X152448857Y-76389267D02*
X152544095Y-76341648D01*
X152544095Y-76341648D02*
X152686952Y-76341648D01*
X152686952Y-76341648D02*
X152782190Y-76389267D01*
X152782190Y-76389267D02*
X152829809Y-76436886D01*
X152829809Y-76436886D02*
X152877428Y-76532124D01*
X152877428Y-76532124D02*
X152877428Y-76913076D01*
X153353619Y-75389267D02*
X153353619Y-75960695D01*
X153353619Y-75674981D02*
X152353619Y-75674981D01*
X152353619Y-75674981D02*
X152496476Y-75770219D01*
X152496476Y-75770219D02*
X152591714Y-75865457D01*
X152591714Y-75865457D02*
X152639333Y-75960695D01*
X145620133Y-80968380D02*
X145572514Y-81016000D01*
X145572514Y-81016000D02*
X145429657Y-81063619D01*
X145429657Y-81063619D02*
X145334419Y-81063619D01*
X145334419Y-81063619D02*
X145191562Y-81016000D01*
X145191562Y-81016000D02*
X145096324Y-80920761D01*
X145096324Y-80920761D02*
X145048705Y-80825523D01*
X145048705Y-80825523D02*
X145001086Y-80635047D01*
X145001086Y-80635047D02*
X145001086Y-80492190D01*
X145001086Y-80492190D02*
X145048705Y-80301714D01*
X145048705Y-80301714D02*
X145096324Y-80206476D01*
X145096324Y-80206476D02*
X145191562Y-80111238D01*
X145191562Y-80111238D02*
X145334419Y-80063619D01*
X145334419Y-80063619D02*
X145429657Y-80063619D01*
X145429657Y-80063619D02*
X145572514Y-80111238D01*
X145572514Y-80111238D02*
X145620133Y-80158857D01*
X146477276Y-80396952D02*
X146477276Y-81063619D01*
X146239181Y-80016000D02*
X146001086Y-80730285D01*
X146001086Y-80730285D02*
X146620133Y-80730285D01*
X156154819Y-73461904D02*
X155154819Y-73461904D01*
X155631009Y-73461904D02*
X155631009Y-72890476D01*
X156154819Y-72890476D02*
X155154819Y-72890476D01*
X155250057Y-72461904D02*
X155202438Y-72414285D01*
X155202438Y-72414285D02*
X155154819Y-72319047D01*
X155154819Y-72319047D02*
X155154819Y-72080952D01*
X155154819Y-72080952D02*
X155202438Y-71985714D01*
X155202438Y-71985714D02*
X155250057Y-71938095D01*
X155250057Y-71938095D02*
X155345295Y-71890476D01*
X155345295Y-71890476D02*
X155440533Y-71890476D01*
X155440533Y-71890476D02*
X155583390Y-71938095D01*
X155583390Y-71938095D02*
X156154819Y-72509523D01*
X156154819Y-72509523D02*
X156154819Y-71890476D01*
X144876380Y-86331657D02*
X144924000Y-86379276D01*
X144924000Y-86379276D02*
X144971619Y-86522133D01*
X144971619Y-86522133D02*
X144971619Y-86617371D01*
X144971619Y-86617371D02*
X144924000Y-86760228D01*
X144924000Y-86760228D02*
X144828761Y-86855466D01*
X144828761Y-86855466D02*
X144733523Y-86903085D01*
X144733523Y-86903085D02*
X144543047Y-86950704D01*
X144543047Y-86950704D02*
X144400190Y-86950704D01*
X144400190Y-86950704D02*
X144209714Y-86903085D01*
X144209714Y-86903085D02*
X144114476Y-86855466D01*
X144114476Y-86855466D02*
X144019238Y-86760228D01*
X144019238Y-86760228D02*
X143971619Y-86617371D01*
X143971619Y-86617371D02*
X143971619Y-86522133D01*
X143971619Y-86522133D02*
X144019238Y-86379276D01*
X144019238Y-86379276D02*
X144066857Y-86331657D01*
X144971619Y-85379276D02*
X144971619Y-85950704D01*
X144971619Y-85664990D02*
X143971619Y-85664990D01*
X143971619Y-85664990D02*
X144114476Y-85760228D01*
X144114476Y-85760228D02*
X144209714Y-85855466D01*
X144209714Y-85855466D02*
X144257333Y-85950704D01*
X144304952Y-84522133D02*
X144971619Y-84522133D01*
X143924000Y-84760228D02*
X144638285Y-84998323D01*
X144638285Y-84998323D02*
X144638285Y-84379276D01*
X155018133Y-81317619D02*
X154684800Y-80841428D01*
X154446705Y-81317619D02*
X154446705Y-80317619D01*
X154446705Y-80317619D02*
X154827657Y-80317619D01*
X154827657Y-80317619D02*
X154922895Y-80365238D01*
X154922895Y-80365238D02*
X154970514Y-80412857D01*
X154970514Y-80412857D02*
X155018133Y-80508095D01*
X155018133Y-80508095D02*
X155018133Y-80650952D01*
X155018133Y-80650952D02*
X154970514Y-80746190D01*
X154970514Y-80746190D02*
X154922895Y-80793809D01*
X154922895Y-80793809D02*
X154827657Y-80841428D01*
X154827657Y-80841428D02*
X154446705Y-80841428D01*
X155399086Y-80412857D02*
X155446705Y-80365238D01*
X155446705Y-80365238D02*
X155541943Y-80317619D01*
X155541943Y-80317619D02*
X155780038Y-80317619D01*
X155780038Y-80317619D02*
X155875276Y-80365238D01*
X155875276Y-80365238D02*
X155922895Y-80412857D01*
X155922895Y-80412857D02*
X155970514Y-80508095D01*
X155970514Y-80508095D02*
X155970514Y-80603333D01*
X155970514Y-80603333D02*
X155922895Y-80746190D01*
X155922895Y-80746190D02*
X155351467Y-81317619D01*
X155351467Y-81317619D02*
X155970514Y-81317619D01*
X143111942Y-83888019D02*
X142778609Y-83411828D01*
X142540514Y-83888019D02*
X142540514Y-82888019D01*
X142540514Y-82888019D02*
X142921466Y-82888019D01*
X142921466Y-82888019D02*
X143016704Y-82935638D01*
X143016704Y-82935638D02*
X143064323Y-82983257D01*
X143064323Y-82983257D02*
X143111942Y-83078495D01*
X143111942Y-83078495D02*
X143111942Y-83221352D01*
X143111942Y-83221352D02*
X143064323Y-83316590D01*
X143064323Y-83316590D02*
X143016704Y-83364209D01*
X143016704Y-83364209D02*
X142921466Y-83411828D01*
X142921466Y-83411828D02*
X142540514Y-83411828D01*
X144064323Y-83888019D02*
X143492895Y-83888019D01*
X143778609Y-83888019D02*
X143778609Y-82888019D01*
X143778609Y-82888019D02*
X143683371Y-83030876D01*
X143683371Y-83030876D02*
X143588133Y-83126114D01*
X143588133Y-83126114D02*
X143492895Y-83173733D01*
X144397657Y-82888019D02*
X145064323Y-82888019D01*
X145064323Y-82888019D02*
X144635752Y-83888019D01*
X151493942Y-90366380D02*
X151446323Y-90414000D01*
X151446323Y-90414000D02*
X151303466Y-90461619D01*
X151303466Y-90461619D02*
X151208228Y-90461619D01*
X151208228Y-90461619D02*
X151065371Y-90414000D01*
X151065371Y-90414000D02*
X150970133Y-90318761D01*
X150970133Y-90318761D02*
X150922514Y-90223523D01*
X150922514Y-90223523D02*
X150874895Y-90033047D01*
X150874895Y-90033047D02*
X150874895Y-89890190D01*
X150874895Y-89890190D02*
X150922514Y-89699714D01*
X150922514Y-89699714D02*
X150970133Y-89604476D01*
X150970133Y-89604476D02*
X151065371Y-89509238D01*
X151065371Y-89509238D02*
X151208228Y-89461619D01*
X151208228Y-89461619D02*
X151303466Y-89461619D01*
X151303466Y-89461619D02*
X151446323Y-89509238D01*
X151446323Y-89509238D02*
X151493942Y-89556857D01*
X152446323Y-90461619D02*
X151874895Y-90461619D01*
X152160609Y-90461619D02*
X152160609Y-89461619D01*
X152160609Y-89461619D02*
X152065371Y-89604476D01*
X152065371Y-89604476D02*
X151970133Y-89699714D01*
X151970133Y-89699714D02*
X151874895Y-89747333D01*
X153351085Y-89461619D02*
X152874895Y-89461619D01*
X152874895Y-89461619D02*
X152827276Y-89937809D01*
X152827276Y-89937809D02*
X152874895Y-89890190D01*
X152874895Y-89890190D02*
X152970133Y-89842571D01*
X152970133Y-89842571D02*
X153208228Y-89842571D01*
X153208228Y-89842571D02*
X153303466Y-89890190D01*
X153303466Y-89890190D02*
X153351085Y-89937809D01*
X153351085Y-89937809D02*
X153398704Y-90033047D01*
X153398704Y-90033047D02*
X153398704Y-90271142D01*
X153398704Y-90271142D02*
X153351085Y-90366380D01*
X153351085Y-90366380D02*
X153303466Y-90414000D01*
X153303466Y-90414000D02*
X153208228Y-90461619D01*
X153208228Y-90461619D02*
X152970133Y-90461619D01*
X152970133Y-90461619D02*
X152874895Y-90414000D01*
X152874895Y-90414000D02*
X152827276Y-90366380D01*
X148112705Y-69268619D02*
X148112705Y-70078142D01*
X148112705Y-70078142D02*
X148160324Y-70173380D01*
X148160324Y-70173380D02*
X148207943Y-70221000D01*
X148207943Y-70221000D02*
X148303181Y-70268619D01*
X148303181Y-70268619D02*
X148493657Y-70268619D01*
X148493657Y-70268619D02*
X148588895Y-70221000D01*
X148588895Y-70221000D02*
X148636514Y-70173380D01*
X148636514Y-70173380D02*
X148684133Y-70078142D01*
X148684133Y-70078142D02*
X148684133Y-69268619D01*
X149112705Y-70221000D02*
X149255562Y-70268619D01*
X149255562Y-70268619D02*
X149493657Y-70268619D01*
X149493657Y-70268619D02*
X149588895Y-70221000D01*
X149588895Y-70221000D02*
X149636514Y-70173380D01*
X149636514Y-70173380D02*
X149684133Y-70078142D01*
X149684133Y-70078142D02*
X149684133Y-69982904D01*
X149684133Y-69982904D02*
X149636514Y-69887666D01*
X149636514Y-69887666D02*
X149588895Y-69840047D01*
X149588895Y-69840047D02*
X149493657Y-69792428D01*
X149493657Y-69792428D02*
X149303181Y-69744809D01*
X149303181Y-69744809D02*
X149207943Y-69697190D01*
X149207943Y-69697190D02*
X149160324Y-69649571D01*
X149160324Y-69649571D02*
X149112705Y-69554333D01*
X149112705Y-69554333D02*
X149112705Y-69459095D01*
X149112705Y-69459095D02*
X149160324Y-69363857D01*
X149160324Y-69363857D02*
X149207943Y-69316238D01*
X149207943Y-69316238D02*
X149303181Y-69268619D01*
X149303181Y-69268619D02*
X149541276Y-69268619D01*
X149541276Y-69268619D02*
X149684133Y-69316238D01*
X150446038Y-69744809D02*
X150588895Y-69792428D01*
X150588895Y-69792428D02*
X150636514Y-69840047D01*
X150636514Y-69840047D02*
X150684133Y-69935285D01*
X150684133Y-69935285D02*
X150684133Y-70078142D01*
X150684133Y-70078142D02*
X150636514Y-70173380D01*
X150636514Y-70173380D02*
X150588895Y-70221000D01*
X150588895Y-70221000D02*
X150493657Y-70268619D01*
X150493657Y-70268619D02*
X150112705Y-70268619D01*
X150112705Y-70268619D02*
X150112705Y-69268619D01*
X150112705Y-69268619D02*
X150446038Y-69268619D01*
X150446038Y-69268619D02*
X150541276Y-69316238D01*
X150541276Y-69316238D02*
X150588895Y-69363857D01*
X150588895Y-69363857D02*
X150636514Y-69459095D01*
X150636514Y-69459095D02*
X150636514Y-69554333D01*
X150636514Y-69554333D02*
X150588895Y-69649571D01*
X150588895Y-69649571D02*
X150541276Y-69697190D01*
X150541276Y-69697190D02*
X150446038Y-69744809D01*
X150446038Y-69744809D02*
X150112705Y-69744809D01*
X151636514Y-70268619D02*
X151065086Y-70268619D01*
X151350800Y-70268619D02*
X151350800Y-69268619D01*
X151350800Y-69268619D02*
X151255562Y-69411476D01*
X151255562Y-69411476D02*
X151160324Y-69506714D01*
X151160324Y-69506714D02*
X151065086Y-69554333D01*
X156052380Y-88501839D02*
X156100000Y-88549458D01*
X156100000Y-88549458D02*
X156147619Y-88692315D01*
X156147619Y-88692315D02*
X156147619Y-88787553D01*
X156147619Y-88787553D02*
X156100000Y-88930410D01*
X156100000Y-88930410D02*
X156004761Y-89025648D01*
X156004761Y-89025648D02*
X155909523Y-89073267D01*
X155909523Y-89073267D02*
X155719047Y-89120886D01*
X155719047Y-89120886D02*
X155576190Y-89120886D01*
X155576190Y-89120886D02*
X155385714Y-89073267D01*
X155385714Y-89073267D02*
X155290476Y-89025648D01*
X155290476Y-89025648D02*
X155195238Y-88930410D01*
X155195238Y-88930410D02*
X155147619Y-88787553D01*
X155147619Y-88787553D02*
X155147619Y-88692315D01*
X155147619Y-88692315D02*
X155195238Y-88549458D01*
X155195238Y-88549458D02*
X155242857Y-88501839D01*
X156147619Y-87549458D02*
X156147619Y-88120886D01*
X156147619Y-87835172D02*
X155147619Y-87835172D01*
X155147619Y-87835172D02*
X155290476Y-87930410D01*
X155290476Y-87930410D02*
X155385714Y-88025648D01*
X155385714Y-88025648D02*
X155433333Y-88120886D01*
X155147619Y-86692315D02*
X155147619Y-86882791D01*
X155147619Y-86882791D02*
X155195238Y-86978029D01*
X155195238Y-86978029D02*
X155242857Y-87025648D01*
X155242857Y-87025648D02*
X155385714Y-87120886D01*
X155385714Y-87120886D02*
X155576190Y-87168505D01*
X155576190Y-87168505D02*
X155957142Y-87168505D01*
X155957142Y-87168505D02*
X156052380Y-87120886D01*
X156052380Y-87120886D02*
X156100000Y-87073267D01*
X156100000Y-87073267D02*
X156147619Y-86978029D01*
X156147619Y-86978029D02*
X156147619Y-86787553D01*
X156147619Y-86787553D02*
X156100000Y-86692315D01*
X156100000Y-86692315D02*
X156052380Y-86644696D01*
X156052380Y-86644696D02*
X155957142Y-86597077D01*
X155957142Y-86597077D02*
X155719047Y-86597077D01*
X155719047Y-86597077D02*
X155623809Y-86644696D01*
X155623809Y-86644696D02*
X155576190Y-86692315D01*
X155576190Y-86692315D02*
X155528571Y-86787553D01*
X155528571Y-86787553D02*
X155528571Y-86978029D01*
X155528571Y-86978029D02*
X155576190Y-87073267D01*
X155576190Y-87073267D02*
X155623809Y-87120886D01*
X155623809Y-87120886D02*
X155719047Y-87168505D01*
%TO.C,U1*%
X148728000Y-73593200D02*
X148728000Y-73843200D01*
X148728000Y-76743200D02*
X148728000Y-76503200D01*
X151878000Y-73593200D02*
X148728000Y-73593200D01*
X151878000Y-73843200D02*
X151878000Y-73593200D01*
X151878000Y-76503200D02*
X151878000Y-76743200D01*
X151878000Y-76743200D02*
X148728000Y-76743200D01*
X152418000Y-76173200D02*
G75*
G02*
X152278000Y-76173200I-70000J0D01*
G01*
X152278000Y-76173200D02*
G75*
G02*
X152418000Y-76173200I70000J0D01*
G01*
D12*
%TO.C,R3*%
X152785900Y-78850058D02*
X152785900Y-78375542D01*
X153830900Y-78850058D02*
X153830900Y-78375542D01*
%TO.C,C12*%
X153062800Y-82575730D02*
X153062800Y-83998234D01*
X155782800Y-82575730D02*
X155782800Y-83998234D01*
%TO.C,C17*%
X145766564Y-81041200D02*
X145982236Y-81041200D01*
X145766564Y-81761200D02*
X145982236Y-81761200D01*
%TO.C,R16*%
X146028041Y-82037200D02*
X145720759Y-82037200D01*
X146028041Y-82797200D02*
X145720759Y-82797200D01*
%TO.C,JP1*%
X158140000Y-69300000D02*
X158140000Y-67700000D01*
X158860000Y-67700000D02*
X158140000Y-67700000D01*
X158860000Y-69300000D02*
X158140000Y-69300000D01*
X158860000Y-69300000D02*
X158860000Y-67700000D01*
%TO.C,C3*%
X146218852Y-76314700D02*
X145696348Y-76314700D01*
X146218852Y-77784700D02*
X145696348Y-77784700D01*
%TO.C,C2*%
X145696348Y-74282700D02*
X146218852Y-74282700D01*
X145696348Y-75752700D02*
X146218852Y-75752700D01*
D11*
%TO.C,U5*%
X149438400Y-81065200D02*
X147658400Y-81065200D01*
X149438400Y-84145200D02*
X147658400Y-84145200D01*
D13*
X149998400Y-84275200D02*
G75*
G02*
X149698400Y-84275200I-150000J0D01*
G01*
X149698400Y-84275200D02*
G75*
G02*
X149998400Y-84275200I150000J0D01*
G01*
D12*
%TO.C,J1*%
X143940000Y-90790000D02*
X143940000Y-96760000D01*
X143940000Y-96760000D02*
X156560000Y-96760000D01*
X143950000Y-94500000D02*
X144700000Y-94500000D01*
X143950000Y-96000000D02*
X143950000Y-96750000D01*
X143950000Y-96750000D02*
X145750000Y-96750000D01*
X144700000Y-91550000D02*
X150250000Y-91550000D01*
X144700000Y-94500000D02*
X144700000Y-91550000D01*
X145750000Y-96000000D02*
X143950000Y-96000000D01*
X145750000Y-96750000D02*
X145750000Y-96000000D01*
X147250000Y-96000000D02*
X147250000Y-96750000D01*
X147250000Y-96750000D02*
X153250000Y-96750000D01*
X153250000Y-96000000D02*
X147250000Y-96000000D01*
X153250000Y-96750000D02*
X153250000Y-96000000D01*
X154750000Y-96000000D02*
X154750000Y-96750000D01*
X154750000Y-96750000D02*
X156550000Y-96750000D01*
X155600000Y-97050000D02*
X156850000Y-97050000D01*
X155800000Y-91550000D02*
X150250000Y-91550000D01*
X155800000Y-94500000D02*
X155800000Y-91550000D01*
X156550000Y-94500000D02*
X155800000Y-94500000D01*
X156550000Y-96000000D02*
X154750000Y-96000000D01*
X156550000Y-96750000D02*
X156550000Y-96000000D01*
X156560000Y-90790000D02*
X143940000Y-90790000D01*
X156560000Y-96760000D02*
X156560000Y-90790000D01*
X156850000Y-97050000D02*
X156850000Y-95800000D01*
D10*
%TO.C,H1*%
X141214800Y-70078982D02*
X143704800Y-70078982D01*
X141214800Y-87858982D02*
X141214800Y-70078982D01*
X143634800Y-72618982D02*
X141344800Y-72618982D01*
X143754800Y-70078982D02*
X143754800Y-87858982D01*
X143754800Y-87858982D02*
X141214800Y-87858982D01*
D11*
%TO.C,Q1*%
X148610000Y-77220000D02*
X149800000Y-77220000D01*
X148610000Y-77360000D02*
X148610000Y-77220000D01*
X148610000Y-80370000D02*
X148610000Y-80220000D01*
X149800000Y-80370000D02*
X148610000Y-80370000D01*
X150510000Y-77220000D02*
X151710000Y-77220000D01*
X151700000Y-77420000D02*
X151710000Y-77220000D01*
X151700000Y-80370000D02*
X150510000Y-80370000D01*
X151700000Y-80370000D02*
X151700000Y-80180000D01*
D14*
X152560000Y-79760000D02*
G75*
G02*
X152360000Y-79760000I-100000J0D01*
G01*
X152360000Y-79760000D02*
G75*
G02*
X152560000Y-79760000I100000J0D01*
G01*
D10*
%TO.C,L2*%
X145743400Y-85213200D02*
X150323400Y-85213200D01*
X145743400Y-86013200D02*
X145743400Y-85213200D01*
X145743400Y-89273200D02*
X145743400Y-88473200D01*
X150323400Y-85213200D02*
X150323400Y-86013200D01*
X150323400Y-88473200D02*
X150323400Y-89273200D01*
X150323400Y-89273200D02*
X145743400Y-89273200D01*
D12*
%TO.C,R13*%
X156646359Y-68620000D02*
X156953641Y-68620000D01*
X156646359Y-69380000D02*
X156953641Y-69380000D01*
%TO.C,C13*%
X151372800Y-82665562D02*
X151372800Y-82384402D01*
X152392800Y-82665562D02*
X152392800Y-82384402D01*
%TO.C,C1*%
X154362052Y-73684800D02*
X153839548Y-73684800D01*
X154362052Y-75154800D02*
X153839548Y-75154800D01*
D11*
%TO.C,LED1*%
X155710000Y-67650000D02*
X155870000Y-67500000D01*
X155710000Y-68350000D02*
X155710000Y-67650000D01*
X155870000Y-67500000D02*
X156500000Y-67500000D01*
X155870000Y-68500000D02*
X155710000Y-68350000D01*
X156500000Y-68500000D02*
X155870000Y-68500000D01*
X157100000Y-68500000D02*
X157890000Y-68500000D01*
X157890000Y-67500000D02*
X157100000Y-67500000D01*
X157890000Y-68500000D02*
X157890000Y-67500000D01*
D15*
X156840000Y-67500000D02*
G75*
G02*
X156760000Y-67500000I-40000J0D01*
G01*
X156760000Y-67500000D02*
G75*
G02*
X156840000Y-67500000I40000J0D01*
G01*
X156840000Y-68500000D02*
G75*
G02*
X156760000Y-68500000I-40000J0D01*
G01*
X156760000Y-68500000D02*
G75*
G02*
X156840000Y-68500000I40000J0D01*
G01*
D12*
%TO.C,R1*%
X154576858Y-75765200D02*
X154102342Y-75765200D01*
X154576858Y-76810200D02*
X154102342Y-76810200D01*
%TO.C,C4*%
X146218852Y-78346700D02*
X145696348Y-78346700D01*
X146218852Y-79816700D02*
X145696348Y-79816700D01*
D10*
%TO.C,H2*%
X156454800Y-70078982D02*
X158944800Y-70078982D01*
X156454800Y-87858982D02*
X156454800Y-70078982D01*
X158874800Y-72618982D02*
X156584800Y-72618982D01*
X158994800Y-70078982D02*
X158994800Y-87858982D01*
X158994800Y-87858982D02*
X156454800Y-87858982D01*
D12*
%TO.C,C14*%
X145982236Y-84089200D02*
X145766564Y-84089200D01*
X145982236Y-84809200D02*
X145766564Y-84809200D01*
%TO.C,R2*%
X154563900Y-78375542D02*
X154563900Y-78850058D01*
X155608900Y-78375542D02*
X155608900Y-78850058D01*
%TO.C,R17*%
X145720759Y-83053200D02*
X146028041Y-83053200D01*
X145720759Y-83813200D02*
X146028041Y-83813200D01*
%TO.C,C15*%
X151362400Y-87489948D02*
X151362400Y-88012452D01*
X152832400Y-87489948D02*
X152832400Y-88012452D01*
D10*
%TO.C,USB1*%
X145420000Y-65410000D02*
X145420000Y-66810000D01*
X145420000Y-69210000D02*
X145420000Y-70660000D01*
X146590000Y-72210000D02*
X146380000Y-72210000D01*
X147160000Y-66580000D02*
X147660000Y-66580000D01*
X147660000Y-66580000D02*
X148060000Y-68680000D01*
X147660000Y-69080000D02*
X147160000Y-66580000D01*
X147860000Y-67880000D02*
X147460000Y-67880000D01*
X148060000Y-68680000D02*
X148580000Y-68680000D01*
X148580000Y-68680000D02*
X148990000Y-66580000D01*
X148920000Y-70410000D02*
X148920000Y-70810000D01*
X148920000Y-70810000D02*
X149520000Y-70810000D01*
X148960000Y-69080000D02*
X147660000Y-69080000D01*
X148990000Y-66580000D02*
X149460000Y-66580000D01*
X149160000Y-67880000D02*
X148760000Y-67880000D01*
X149460000Y-66580000D02*
X148960000Y-69080000D01*
X149520000Y-70810000D02*
X149520000Y-71010000D01*
X150320000Y-70810000D02*
X150320000Y-71010000D01*
X150440000Y-66580000D02*
X150930000Y-66580000D01*
X150920000Y-70410000D02*
X150920000Y-70810000D01*
X150920000Y-70810000D02*
X150320000Y-70810000D01*
X150930000Y-66580000D02*
X151330000Y-68680000D01*
X150930000Y-70410000D02*
X148910000Y-70410000D01*
X150940000Y-69080000D02*
X150440000Y-66580000D01*
X151140000Y-67880000D02*
X150740000Y-67880000D01*
X151330000Y-68680000D02*
X151860000Y-68680000D01*
X151860000Y-68680000D02*
X152260000Y-66580000D01*
X152240000Y-69080000D02*
X150940000Y-69080000D01*
X152260000Y-66580000D02*
X152740000Y-66580000D01*
X152440000Y-67880000D02*
X152040000Y-67880000D01*
X152740000Y-66580000D02*
X152240000Y-69080000D01*
X153460000Y-72210000D02*
X153250000Y-72210000D01*
X154420000Y-65410000D02*
X145420000Y-65410000D01*
X154420000Y-66810000D02*
X154420000Y-66830000D01*
X154420000Y-66830000D02*
X154420000Y-65410000D01*
X154420000Y-70610000D02*
X154420000Y-69170000D01*
X154420000Y-70610000D02*
X154420000Y-70650000D01*
D12*
%TO.C,C16*%
X153394400Y-87489948D02*
X153394400Y-88012452D01*
X154864400Y-87489948D02*
X154864400Y-88012452D01*
%TD*%
%LPC*%
D16*
%TO.C,JP1*%
G36*
X158650000Y-68750000D02*
G01*
X158350000Y-68750000D01*
X158350000Y-68250000D01*
X158650000Y-68250000D01*
X158650000Y-68750000D01*
G37*
%TD*%
D17*
%TO.C,U1*%
X151718000Y-76173200D03*
X151718000Y-75673200D03*
X151718000Y-75173200D03*
X151718000Y-74673200D03*
X151718000Y-74173200D03*
X148898000Y-74173200D03*
X148898000Y-74673200D03*
X148898000Y-75173200D03*
X148898000Y-75673200D03*
X148898000Y-76173200D03*
D18*
X150308000Y-75173200D03*
%TD*%
D19*
%TO.C,R3*%
X153308400Y-79437800D03*
X153308400Y-77787800D03*
%TD*%
D20*
%TO.C,C12*%
X154422800Y-81811982D03*
X154422800Y-84761982D03*
%TD*%
D21*
%TO.C,C17*%
X145394400Y-81401200D03*
X146354400Y-81401200D03*
%TD*%
D22*
%TO.C,R16*%
X146384400Y-82417200D03*
X145364400Y-82417200D03*
%TD*%
D23*
%TO.C,JP1*%
X158500000Y-68980000D03*
X158500000Y-68020000D03*
%TD*%
D24*
%TO.C,C3*%
X146907600Y-77049700D03*
X145007600Y-77049700D03*
%TD*%
D25*
%TO.C,C2*%
X145007600Y-75017700D03*
X146907600Y-75017700D03*
%TD*%
D26*
%TO.C,U5*%
X149698400Y-83555200D03*
X149698400Y-82605200D03*
X149698400Y-81655200D03*
X147398400Y-81655200D03*
X147398400Y-82605200D03*
X147398400Y-83555200D03*
%TD*%
D27*
%TO.C,J1*%
X154000000Y-94300000D03*
D28*
X151500000Y-94300000D03*
X149000000Y-94300000D03*
X146500000Y-94300000D03*
%TD*%
D29*
%TO.C,H1*%
X142484800Y-71348982D03*
D30*
X142484800Y-73888982D03*
X142484800Y-76428982D03*
X142484800Y-78968982D03*
X142484800Y-81508982D03*
X142484800Y-84048982D03*
X142484800Y-86588982D03*
%TD*%
D31*
%TO.C,Q1*%
X151750000Y-79760000D03*
X151750000Y-79100000D03*
X151750000Y-78450000D03*
X151750000Y-77800000D03*
X148550000Y-77800000D03*
X148550000Y-78450000D03*
X148550000Y-79100000D03*
X148550000Y-79760000D03*
D32*
X149800000Y-78780000D03*
%TD*%
D33*
%TO.C,L2*%
X146033400Y-87243200D03*
X150033400Y-87243200D03*
%TD*%
D34*
%TO.C,R13*%
X156290000Y-69000000D03*
X157310000Y-69000000D03*
%TD*%
D35*
%TO.C,C13*%
X151882800Y-83299982D03*
X151882800Y-81749982D03*
%TD*%
D24*
%TO.C,C1*%
X155050800Y-74419800D03*
X153150800Y-74419800D03*
%TD*%
D36*
%TO.C,LED1*%
X156260000Y-68000000D03*
X157340000Y-68000000D03*
%TD*%
D37*
%TO.C,R1*%
X155164600Y-76287700D03*
X153514600Y-76287700D03*
%TD*%
D24*
%TO.C,C4*%
X146907600Y-79081700D03*
X145007600Y-79081700D03*
%TD*%
D29*
%TO.C,H2*%
X157724800Y-71348982D03*
D30*
X157724800Y-73888982D03*
X157724800Y-76428982D03*
X157724800Y-78968982D03*
X157724800Y-81508982D03*
X157724800Y-84048982D03*
X157724800Y-86588982D03*
%TD*%
D38*
%TO.C,C14*%
X146354400Y-84449200D03*
X145394400Y-84449200D03*
%TD*%
D39*
%TO.C,R2*%
X155086400Y-77787800D03*
X155086400Y-79437800D03*
%TD*%
D34*
%TO.C,R17*%
X145364400Y-83433200D03*
X146384400Y-83433200D03*
%TD*%
D40*
%TO.C,C15*%
X152097400Y-86801200D03*
X152097400Y-88701200D03*
%TD*%
D41*
%TO.C,USB1*%
X154240000Y-71810000D03*
X154240000Y-68000000D03*
X145600000Y-71810000D03*
X145600000Y-68000000D03*
D42*
X150420000Y-72060000D03*
X148420000Y-72060000D03*
D43*
X147220000Y-72060000D03*
D42*
X149420000Y-72060000D03*
X151420000Y-72060000D03*
D43*
X152620000Y-72060000D03*
%TD*%
D40*
%TO.C,C16*%
X154129400Y-86801200D03*
X154129400Y-88701200D03*
%TD*%
%LPD*%
M02*
