M48
; DRILL file {KiCad 8.0.8} date 2025-03-31T15:02:32-0700
; FORMAT={-:-/ absolute / inch / decimal}
; #@! TF.CreationDate,2025-03-31T15:02:32-07:00
; #@! TF.GenerationSoftware,Kicad,Pcbnew,8.0.8
; #@! TF.FileFunction,Plated,1,4,PTH
FMAT,2
INCH
; #@! TA.AperFunction,Plated,PTH,ViaDrill
T1C0.0079
; #@! TA.AperFunction,Plated,PTH,ViaDrill
T2C0.0118
; #@! TA.AperFunction,Plated,PTH,ComponentDrill
T3C0.0276
; #@! TA.AperFunction,Plated,PTH,ComponentDrill
T4C0.0315
; #@! TA.AperFunction,Plated,PTH,ComponentDrill
T5C0.0374
%
G90
G05
T1
X5.8796Y-3.1886
T2
X5.6535Y-3.6772
X5.6596Y-3.499
X5.6997Y-3.2448
X5.7346Y-2.7486
X5.7596Y-3.1436
X5.7838Y-2.9936
X5.7838Y-3.0736
X5.8042Y-3.5197
X5.8045Y-3.4636
X5.8136Y-3.063
X5.8136Y-3.0886
X5.8196Y-3.6142
X5.8231Y-3.0306
X5.8256Y-2.9156
X5.8256Y-2.9471
X5.9107Y-3.2148
X5.9134Y-3.6142
X5.9396Y-3.3736
X5.969Y-3.325
X5.9696Y-3.349
X5.9696Y-3.3736
X6.0096Y-3.6142
X6.0196Y-3.2215
X6.0255Y-3.525
X6.0281Y-3.4616
X6.0696Y-3.2871
X6.1019Y-3.3821
X6.1232Y-2.7654
X6.1396Y-3.249
X6.1696Y-3.4922
X6.1696Y-3.539
X6.189Y-3.6811
X6.2402Y-2.7321
T4
X5.6096Y-2.809
X5.6096Y-2.909
X5.6096Y-3.009
X5.6096Y-3.109
X5.6096Y-3.209
X5.6096Y-3.309
X5.6096Y-3.409
X6.2096Y-2.809
X6.2096Y-2.909
X6.2096Y-3.009
X6.2096Y-3.109
X6.2096Y-3.209
X6.2096Y-3.309
X6.2096Y-3.409
T5
X5.7677Y-3.7126
X5.8661Y-3.7126
X5.9646Y-3.7126
X6.063Y-3.7126
T3
G00X5.7323Y-2.687
M15
G01X5.7323Y-2.6673
M16
G05
G00X5.7323Y-2.837
M15
G01X5.7323Y-2.8173
M16
G05
G00X6.0724Y-2.687
M15
G01X6.0724Y-2.6673
M16
G05
G00X6.0724Y-2.837
M15
G01X6.0724Y-2.8173
M16
G05
M30
