%TF.GenerationSoftware,KiCad,Pcbnew,8.0.8*%
%TF.CreationDate,2025-03-31T18:12:56-07:00*%
%TF.ProjectId,stoplight,73746f70-6c69-4676-9874-2e6b69636164,0.1*%
%TF.SameCoordinates,Original*%
%TF.FileFunction,Copper,L1,Top*%
%TF.FilePolarity,Positive*%
%FSLAX46Y46*%
G04 Gerber Fmt 4.6, Leading zero omitted, Abs format (unit mm)*
G04 Created by KiCad (PCBNEW 8.0.8) date 2025-03-31 18:12:56*
%MOMM*%
%LPD*%
G01*
G04 APERTURE LIST*
G04 Aperture macros list*
%AMRoundRect*
0 Rectangle with rounded corners*
0 $1 Rounding radius*
0 $2 $3 $4 $5 $6 $7 $8 $9 X,Y pos of 4 corners*
0 Add a 4 corners polygon primitive as box body*
4,1,4,$2,$3,$4,$5,$6,$7,$8,$9,$2,$3,0*
0 Add four circle primitives for the rounded corners*
1,1,$1+$1,$2,$3*
1,1,$1+$1,$4,$5*
1,1,$1+$1,$6,$7*
1,1,$1+$1,$8,$9*
0 Add four rect primitives between the rounded corners*
20,1,$1+$1,$2,$3,$4,$5,0*
20,1,$1+$1,$4,$5,$6,$7,0*
20,1,$1+$1,$6,$7,$8,$9,0*
20,1,$1+$1,$8,$9,$2,$3,0*%
G04 Aperture macros list end*
%TA.AperFunction,EtchedComponent*%
%ADD10C,0.000000*%
%TD*%
%TA.AperFunction,SMDPad,CuDef*%
%ADD11R,0.660000X0.280000*%
%TD*%
%TA.AperFunction,SMDPad,CuDef*%
%ADD12R,1.500000X2.500000*%
%TD*%
%TA.AperFunction,SMDPad,CuDef*%
%ADD13RoundRect,0.200000X0.275000X-0.200000X0.275000X0.200000X-0.275000X0.200000X-0.275000X-0.200000X0*%
%TD*%
%TA.AperFunction,SMDPad,CuDef*%
%ADD14RoundRect,0.250000X-1.100000X0.325000X-1.100000X-0.325000X1.100000X-0.325000X1.100000X0.325000X0*%
%TD*%
%TA.AperFunction,SMDPad,CuDef*%
%ADD15RoundRect,0.140000X-0.140000X-0.170000X0.140000X-0.170000X0.140000X0.170000X-0.140000X0.170000X0*%
%TD*%
%TA.AperFunction,SMDPad,CuDef*%
%ADD16RoundRect,0.135000X0.135000X0.185000X-0.135000X0.185000X-0.135000X-0.185000X0.135000X-0.185000X0*%
%TD*%
%TA.AperFunction,SMDPad,CuDef*%
%ADD17RoundRect,0.140000X0.170000X-0.140000X0.170000X0.140000X-0.170000X0.140000X-0.170000X-0.140000X0*%
%TD*%
%TA.AperFunction,SMDPad,CuDef*%
%ADD18RoundRect,0.250000X0.250000X0.475000X-0.250000X0.475000X-0.250000X-0.475000X0.250000X-0.475000X0*%
%TD*%
%TA.AperFunction,SMDPad,CuDef*%
%ADD19RoundRect,0.250000X-0.250000X-0.475000X0.250000X-0.475000X0.250000X0.475000X-0.250000X0.475000X0*%
%TD*%
%TA.AperFunction,SMDPad,CuDef*%
%ADD20R,1.070000X0.530000*%
%TD*%
%TA.AperFunction,ComponentPad*%
%ADD21RoundRect,0.250000X0.600000X0.725000X-0.600000X0.725000X-0.600000X-0.725000X0.600000X-0.725000X0*%
%TD*%
%TA.AperFunction,ComponentPad*%
%ADD22O,1.700000X1.950000*%
%TD*%
%TA.AperFunction,ComponentPad*%
%ADD23R,1.400000X1.400000*%
%TD*%
%TA.AperFunction,ComponentPad*%
%ADD24C,1.400000*%
%TD*%
%TA.AperFunction,SMDPad,CuDef*%
%ADD25R,0.800000X0.400000*%
%TD*%
%TA.AperFunction,SMDPad,CuDef*%
%ADD26R,2.000000X2.600000*%
%TD*%
%TA.AperFunction,SMDPad,CuDef*%
%ADD27R,1.800000X2.000000*%
%TD*%
%TA.AperFunction,SMDPad,CuDef*%
%ADD28RoundRect,0.135000X-0.135000X-0.185000X0.135000X-0.185000X0.135000X0.185000X-0.135000X0.185000X0*%
%TD*%
%TA.AperFunction,SMDPad,CuDef*%
%ADD29RoundRect,0.225000X0.250000X-0.225000X0.250000X0.225000X-0.250000X0.225000X-0.250000X-0.225000X0*%
%TD*%
%TA.AperFunction,SMDPad,CuDef*%
%ADD30R,0.640000X0.540000*%
%TD*%
%TA.AperFunction,SMDPad,CuDef*%
%ADD31RoundRect,0.200000X0.200000X0.275000X-0.200000X0.275000X-0.200000X-0.275000X0.200000X-0.275000X0*%
%TD*%
%TA.AperFunction,SMDPad,CuDef*%
%ADD32RoundRect,0.140000X0.140000X0.170000X-0.140000X0.170000X-0.140000X-0.170000X0.140000X-0.170000X0*%
%TD*%
%TA.AperFunction,SMDPad,CuDef*%
%ADD33RoundRect,0.200000X-0.275000X0.200000X-0.275000X-0.200000X0.275000X-0.200000X0.275000X0.200000X0*%
%TD*%
%TA.AperFunction,SMDPad,CuDef*%
%ADD34RoundRect,0.250000X-0.475000X0.250000X-0.475000X-0.250000X0.475000X-0.250000X0.475000X0.250000X0*%
%TD*%
%TA.AperFunction,ComponentPad*%
%ADD35O,1.100000X1.700000*%
%TD*%
%TA.AperFunction,SMDPad,CuDef*%
%ADD36R,0.700000X1.200000*%
%TD*%
%TA.AperFunction,SMDPad,CuDef*%
%ADD37R,0.800000X1.200000*%
%TD*%
%TA.AperFunction,ViaPad*%
%ADD38C,0.600000*%
%TD*%
%TA.AperFunction,ViaPad*%
%ADD39C,0.500000*%
%TD*%
%TA.AperFunction,Conductor*%
%ADD40C,0.200000*%
%TD*%
%TA.AperFunction,Conductor*%
%ADD41C,0.400000*%
%TD*%
%TA.AperFunction,Conductor*%
%ADD42C,0.500000*%
%TD*%
G04 APERTURE END LIST*
D10*
%TA.AperFunction,EtchedComponent*%
%TO.C,JP1*%
G36*
X158650000Y-68750000D02*
G01*
X158350000Y-68750000D01*
X158350000Y-68250000D01*
X158650000Y-68250000D01*
X158650000Y-68750000D01*
G37*
%TD.AperFunction*%
%TD*%
D11*
%TO.P,U2,1,VIN*%
%TO.N,Net-(U2-VIN)*%
X151718000Y-76173200D03*
%TO.P,U2,2,D+*%
%TO.N,unconnected-(U2-D+-Pad2)*%
X151718000Y-75673200D03*
%TO.P,U2,3,D-*%
%TO.N,unconnected-(U2-D--Pad3)*%
X151718000Y-75173200D03*
%TO.P,U2,4,CC1*%
%TO.N,/CC1*%
X151718000Y-74673200D03*
%TO.P,U2,5,CC2*%
%TO.N,/CC2*%
X151718000Y-74173200D03*
%TO.P,U2,6,SDA*%
%TO.N,/SDA*%
X148898000Y-74173200D03*
%TO.P,U2,7,SCL*%
%TO.N,/SCL*%
X148898000Y-74673200D03*
%TO.P,U2,8,VSET*%
%TO.N,GND*%
X148898000Y-75173200D03*
%TO.P,U2,9,ISET*%
X148898000Y-75673200D03*
%TO.P,U2,10,GATE*%
%TO.N,Net-(U2-GATE)*%
X148898000Y-76173200D03*
D12*
%TO.P,U2,11,GND*%
%TO.N,GND*%
X150308000Y-75173200D03*
%TD*%
D13*
%TO.P,R3,1*%
%TO.N,Net-(Q1-G)*%
X153308400Y-79437800D03*
%TO.P,R3,2*%
%TO.N,Net-(U2-GATE)*%
X153308400Y-77787800D03*
%TD*%
D14*
%TO.P,C1,1*%
%TO.N,VM*%
X154422800Y-81811982D03*
%TO.P,C1,2*%
%TO.N,GND*%
X154422800Y-84761982D03*
%TD*%
D15*
%TO.P,C8,1*%
%TO.N,+3V3*%
X145394400Y-81401200D03*
%TO.P,C8,2*%
%TO.N,Net-(U1-FB)*%
X146354400Y-81401200D03*
%TD*%
D16*
%TO.P,R5,1*%
%TO.N,Net-(U1-FB)*%
X146384400Y-82417200D03*
%TO.P,R5,2*%
%TO.N,+3V3*%
X145364400Y-82417200D03*
%TD*%
D17*
%TO.P,JP1,1,A*%
%TO.N,+3V3*%
X158500000Y-68980000D03*
%TO.P,JP1,2,B*%
%TO.N,Net-(JP1-B)*%
X158500000Y-68020000D03*
%TD*%
D18*
%TO.P,C6,1*%
%TO.N,VM*%
X146907600Y-77049700D03*
%TO.P,C6,2*%
%TO.N,GND*%
X145007600Y-77049700D03*
%TD*%
D19*
%TO.P,C5,1*%
%TO.N,GND*%
X145007600Y-75017700D03*
%TO.P,C5,2*%
%TO.N,VM*%
X146907600Y-75017700D03*
%TD*%
D20*
%TO.P,U1,1,GND*%
%TO.N,GND*%
X149698400Y-83555200D03*
%TO.P,U1,2,SW*%
%TO.N,Net-(U1-SW)*%
X149698400Y-82605200D03*
%TO.P,U1,3,VIN*%
%TO.N,VM*%
X149698400Y-81655200D03*
%TO.P,U1,4,FB*%
%TO.N,Net-(U1-FB)*%
X147398400Y-81655200D03*
%TO.P,U1,5,EN*%
%TO.N,unconnected-(U1-EN-Pad5)*%
X147398400Y-82605200D03*
%TO.P,U1,6,BOOT*%
%TO.N,Net-(U1-BOOT)*%
X147398400Y-83555200D03*
%TD*%
D21*
%TO.P,J1,1,Pin_1*%
%TO.N,/A2*%
X154000000Y-94300000D03*
D22*
%TO.P,J1,2,Pin_2*%
%TO.N,/A1*%
X151500000Y-94300000D03*
%TO.P,J1,3,Pin_3*%
%TO.N,/B1*%
X149000000Y-94300000D03*
%TO.P,J1,4,Pin_4*%
%TO.N,/B2*%
X146500000Y-94300000D03*
%TD*%
D23*
%TO.P,H1,1,1*%
%TO.N,/LED*%
X142484800Y-71348982D03*
D24*
%TO.P,H1,2,2*%
%TO.N,/INDEX*%
X142484800Y-73888982D03*
%TO.P,H1,3,3*%
%TO.N,/DIAG*%
X142484800Y-76428982D03*
%TO.P,H1,4,4*%
%TO.N,unconnected-(H1-Pad4)*%
X142484800Y-78968982D03*
%TO.P,H1,5,5*%
%TO.N,/SDA*%
X142484800Y-81508982D03*
%TO.P,H1,6,6*%
%TO.N,/SCL*%
X142484800Y-84048982D03*
%TO.P,H1,7,7*%
%TO.N,Net-(H1-Pad7)*%
X142484800Y-86588982D03*
%TD*%
D25*
%TO.P,Q1,1,S*%
%TO.N,Net-(Q1-S-Pad1)*%
X151750000Y-79760000D03*
%TO.P,Q1,2,S*%
X151750000Y-79100000D03*
%TO.P,Q1,3,S*%
X151750000Y-78450000D03*
%TO.P,Q1,4,G*%
%TO.N,Net-(Q1-G)*%
X151750000Y-77800000D03*
%TO.P,Q1,5,D*%
%TO.N,VM*%
X148550000Y-77800000D03*
%TO.P,Q1,6,D*%
X148550000Y-78450000D03*
%TO.P,Q1,7,D*%
X148550000Y-79100000D03*
%TO.P,Q1,8,D*%
X148550000Y-79760000D03*
D26*
%TO.P,Q1,9,D*%
X149800000Y-78780000D03*
%TD*%
D27*
%TO.P,L1,1,1*%
%TO.N,Net-(U1-SW)*%
X146033400Y-87243200D03*
%TO.P,L1,2,2*%
%TO.N,+3V3*%
X150033400Y-87243200D03*
%TD*%
D28*
%TO.P,R14,1*%
%TO.N,Net-(LED1-K)*%
X156290000Y-69000000D03*
%TO.P,R14,2*%
%TO.N,GND*%
X157310000Y-69000000D03*
%TD*%
D29*
%TO.P,C2,1*%
%TO.N,GND*%
X151882800Y-83299982D03*
%TO.P,C2,2*%
%TO.N,VM*%
X151882800Y-81749982D03*
%TD*%
D18*
%TO.P,C3,1*%
%TO.N,GND*%
X155050800Y-74419800D03*
%TO.P,C3,2*%
%TO.N,Net-(U2-VIN)*%
X153150800Y-74419800D03*
%TD*%
D30*
%TO.P,LED1,1,K*%
%TO.N,Net-(LED1-K)*%
X156260000Y-68000000D03*
%TO.P,LED1,2,A*%
%TO.N,Net-(JP1-B)*%
X157340000Y-68000000D03*
%TD*%
D31*
%TO.P,R1,1*%
%TO.N,Net-(Q1-S-Pad1)*%
X155164600Y-76287700D03*
%TO.P,R1,2*%
%TO.N,Net-(U2-VIN)*%
X153514600Y-76287700D03*
%TD*%
D18*
%TO.P,C9,1*%
%TO.N,VM*%
X146907600Y-79081700D03*
%TO.P,C9,2*%
%TO.N,GND*%
X145007600Y-79081700D03*
%TD*%
D23*
%TO.P,H2,1,1*%
%TO.N,+5V*%
X157724800Y-71348982D03*
D24*
%TO.P,H2,2,2*%
%TO.N,GND*%
X157724800Y-73888982D03*
%TO.P,H2,3,3*%
%TO.N,+3V3*%
X157724800Y-76428982D03*
%TO.P,H2,4,4*%
%TO.N,/1-WIRE*%
X157724800Y-78968982D03*
%TO.P,H2,5,5*%
%TO.N,/TACH*%
X157724800Y-81508982D03*
%TO.P,H2,6,6*%
%TO.N,/PWM*%
X157724800Y-84048982D03*
%TO.P,H2,7,7*%
%TO.N,/UART*%
X157724800Y-86588982D03*
%TD*%
D32*
%TO.P,C4,1*%
%TO.N,Net-(U1-BOOT)*%
X146354400Y-84449200D03*
%TO.P,C4,2*%
%TO.N,Net-(U1-SW)*%
X145394400Y-84449200D03*
%TD*%
D33*
%TO.P,R2,1*%
%TO.N,Net-(Q1-S-Pad1)*%
X155086400Y-77787800D03*
%TO.P,R2,2*%
%TO.N,Net-(Q1-G)*%
X155086400Y-79437800D03*
%TD*%
D28*
%TO.P,R4,1*%
%TO.N,GND*%
X145364400Y-83433200D03*
%TO.P,R4,2*%
%TO.N,Net-(U1-FB)*%
X146384400Y-83433200D03*
%TD*%
D34*
%TO.P,C7,1*%
%TO.N,GND*%
X152097400Y-86801200D03*
%TO.P,C7,2*%
%TO.N,+3V3*%
X152097400Y-88701200D03*
%TD*%
D35*
%TO.P,USB1,7,EH*%
%TO.N,GND*%
X154240000Y-71810000D03*
X154240000Y-68000000D03*
X145600000Y-71810000D03*
X145600000Y-68000000D03*
D36*
%TO.P,USB1,A5,CC1*%
%TO.N,/CC1*%
X150420000Y-72060000D03*
%TO.P,USB1,A9,VBUS*%
%TO.N,Net-(Q1-S-Pad1)*%
X148420000Y-72060000D03*
D37*
%TO.P,USB1,A12,GND*%
%TO.N,GND*%
X147220000Y-72060000D03*
D36*
%TO.P,USB1,B5,CC2*%
%TO.N,/CC2*%
X149420000Y-72060000D03*
%TO.P,USB1,B9,VBUS*%
%TO.N,Net-(Q1-S-Pad1)*%
X151420000Y-72060000D03*
D37*
%TO.P,USB1,B12,GND*%
%TO.N,GND*%
X152620000Y-72060000D03*
%TD*%
D34*
%TO.P,C10,1*%
%TO.N,GND*%
X154129400Y-86801200D03*
%TO.P,C10,2*%
%TO.N,+3V3*%
X154129400Y-88701200D03*
%TD*%
D38*
%TO.N,+3V3*%
X157400000Y-89400000D03*
X156000000Y-89400000D03*
X144771624Y-82417200D03*
X145659800Y-69813800D03*
X156708800Y-89400000D03*
X154988869Y-85906075D03*
X156000000Y-90100000D03*
X157400000Y-88700000D03*
X156010000Y-88701200D03*
X158500000Y-69400000D03*
X156708800Y-90101200D03*
X157400000Y-90100000D03*
X156708800Y-88701200D03*
%TO.N,VM*%
X153242473Y-89904461D03*
X156800000Y-94900000D03*
X147234613Y-76040153D03*
X155946800Y-82524982D03*
X146625617Y-76040153D03*
X146907600Y-78068800D03*
X144100000Y-94600000D03*
X146294800Y-79846800D03*
X147666400Y-77800000D03*
X152760639Y-81924982D03*
X152800000Y-81150000D03*
X147100000Y-89900000D03*
X147666400Y-78450000D03*
%TO.N,/SCL*%
X147971200Y-74855603D03*
%TO.N,/INDEX*%
X148200000Y-76900000D03*
D39*
%TO.N,/DIAG*%
X146158325Y-78101838D03*
D38*
%TO.N,/SDA*%
X147971200Y-74055600D03*
%TO.N,/1-WIRE*%
X155530222Y-70241560D03*
%TO.N,/UART*%
X154168780Y-83492983D03*
X143754800Y-88874982D03*
%TO.N,/A2*%
X154300000Y-89900000D03*
%TO.N,/B2*%
X146100000Y-89900000D03*
%TO.N,GND*%
X151628800Y-85688800D03*
X150200000Y-92400000D03*
X151613725Y-84454177D03*
X152700000Y-93300000D03*
X147700000Y-93300000D03*
X148850000Y-84350000D03*
X149550000Y-84350000D03*
X151628800Y-85064982D03*
%TD*%
D40*
%TO.N,Net-(U2-VIN)*%
X151718000Y-76173200D02*
X153400100Y-76173200D01*
X153400100Y-76173200D02*
X153514600Y-76287700D01*
D41*
X153514600Y-75774782D02*
X153514600Y-76287700D01*
X153150800Y-75410982D02*
X153514600Y-75774782D01*
X153150800Y-74419800D02*
X153150800Y-75410982D01*
D40*
X153514600Y-76287700D02*
X153260600Y-76033700D01*
D42*
%TO.N,+3V3*%
X145364400Y-82417200D02*
X144771624Y-82417200D01*
D40*
X145394400Y-82387200D02*
X145364400Y-82417200D01*
X145394400Y-81401200D02*
X145394400Y-82387200D01*
D42*
X149393600Y-87883000D02*
X150033400Y-87243200D01*
D40*
X158500000Y-69400000D02*
X158500000Y-69050000D01*
D42*
%TO.N,VM*%
X152760639Y-81924982D02*
X152859957Y-81825664D01*
D40*
X153361864Y-81825664D02*
X153375546Y-81811982D01*
D42*
X148550000Y-79100000D02*
X147666400Y-79100000D01*
X148550000Y-78450000D02*
X147666400Y-78450000D01*
X149800000Y-79650000D02*
X151275000Y-81125000D01*
X146907600Y-78322800D02*
X146907600Y-78068800D01*
X152057800Y-81924982D02*
X151788018Y-81655200D01*
X146925900Y-79100000D02*
X146907600Y-79081700D01*
X152859957Y-81825664D02*
X153361864Y-81825664D01*
X149800000Y-78780000D02*
X149800000Y-79650000D01*
X146907600Y-78028800D02*
X146907600Y-77049700D01*
X151788018Y-81655200D02*
X150131800Y-81655200D01*
X153051800Y-81958200D02*
X154276582Y-81958200D01*
X155946800Y-82524982D02*
X155233800Y-81811982D01*
X148550000Y-79760000D02*
X147666400Y-79760000D01*
X147666400Y-79100000D02*
X146925900Y-79100000D01*
X147666400Y-77800000D02*
X147136400Y-77800000D01*
X147585900Y-79760000D02*
X146907600Y-79081700D01*
X146907600Y-76036800D02*
X146907600Y-75017700D01*
X147136400Y-77800000D02*
X146907600Y-78028800D01*
X147666400Y-78450000D02*
X147034800Y-78450000D01*
X151350000Y-81200000D02*
X155400000Y-81200000D01*
X148550000Y-77800000D02*
X147666400Y-77800000D01*
D40*
X153375546Y-81811982D02*
X154422800Y-81811982D01*
X154422800Y-81811982D02*
X155233800Y-81811982D01*
D42*
X152760639Y-81924982D02*
X152057800Y-81924982D01*
D40*
X146294800Y-79846800D02*
X146294800Y-79694500D01*
D42*
X146907600Y-79081700D02*
X146907600Y-78322800D01*
X154276582Y-81958200D02*
X154422800Y-81811982D01*
X154110818Y-81500000D02*
X154422800Y-81811982D01*
X147666400Y-79760000D02*
X147585900Y-79760000D01*
X151275000Y-81125000D02*
X151650000Y-81500000D01*
D40*
X146294800Y-79694500D02*
X146907600Y-79081700D01*
D42*
X155400000Y-81200000D02*
X155450000Y-81250000D01*
X146907600Y-78068800D02*
X146907600Y-76036800D01*
X147034800Y-78450000D02*
X146907600Y-78322800D01*
X151650000Y-81500000D02*
X154110818Y-81500000D01*
D40*
X149800000Y-81553600D02*
X149698400Y-81655200D01*
D42*
X151275000Y-81125000D02*
X151350000Y-81200000D01*
%TO.N,Net-(U1-SW)*%
X150200000Y-85100000D02*
X150850000Y-84450000D01*
D40*
X145394400Y-84926582D02*
X146033400Y-85565582D01*
D42*
X146033400Y-86088382D02*
X147021782Y-85100000D01*
D40*
X145394400Y-84449200D02*
X145394400Y-84926582D01*
D42*
X150850000Y-83006800D02*
X150448400Y-82605200D01*
X150850000Y-84450000D02*
X150850000Y-83006800D01*
X147021782Y-85100000D02*
X150200000Y-85100000D01*
X146033400Y-87243200D02*
X146033400Y-86088382D01*
X150448400Y-82605200D02*
X149698400Y-82605200D01*
D40*
X146033400Y-85565582D02*
X146033400Y-87243200D01*
%TO.N,Net-(U1-BOOT)*%
X146504400Y-84449200D02*
X147398400Y-83555200D01*
X146354400Y-84449200D02*
X146504400Y-84449200D01*
%TO.N,Net-(U1-FB)*%
X146354400Y-81401200D02*
X146354400Y-81713458D01*
X146354400Y-83403200D02*
X146384400Y-83433200D01*
X147398400Y-81655200D02*
X146412658Y-81655200D01*
X146412658Y-81655200D02*
X146354400Y-81713458D01*
X146354400Y-81713458D02*
X146354400Y-83403200D01*
%TO.N,/SCL*%
X148153603Y-74673200D02*
X147971200Y-74855603D01*
X148898000Y-74673200D02*
X148153603Y-74673200D01*
%TO.N,/SDA*%
X147971200Y-74055600D02*
X148088800Y-74173200D01*
X148088800Y-74173200D02*
X148898000Y-74173200D01*
D42*
%TO.N,Net-(Q1-S-Pad1)*%
X148420000Y-71210000D02*
X148420000Y-72060000D01*
D40*
X155086400Y-77787800D02*
X155987600Y-77787800D01*
D42*
X151872400Y-70510000D02*
X154738000Y-70510000D01*
D40*
X151420000Y-71510000D02*
X151070000Y-71160000D01*
D42*
X151420000Y-72060000D02*
X151420000Y-70962400D01*
X152277800Y-80287800D02*
X151750000Y-79760000D01*
X156011400Y-79985400D02*
X155709000Y-80287800D01*
D40*
X155987600Y-77787800D02*
X156011400Y-77764000D01*
D42*
X151420000Y-70962400D02*
X151872400Y-70510000D01*
D40*
X148420000Y-71590100D02*
X148420000Y-72060000D01*
D41*
X155164600Y-76287700D02*
X156008300Y-76287700D01*
D42*
X151750000Y-79760000D02*
X151750000Y-78450000D01*
D40*
X151070000Y-71160000D02*
X148850100Y-71160000D01*
D42*
X151420000Y-70962400D02*
X148667600Y-70962400D01*
X148667600Y-70962400D02*
X148420000Y-71210000D01*
X154738000Y-70510000D02*
X156011400Y-71783400D01*
X155709000Y-80287800D02*
X152277800Y-80287800D01*
D40*
X156008300Y-76287700D02*
X156011400Y-76290800D01*
D42*
X156011400Y-71783400D02*
X156011400Y-76290800D01*
X156011400Y-77764000D02*
X156011400Y-79985400D01*
D40*
X151420000Y-72060000D02*
X151420000Y-71510000D01*
D42*
X156011400Y-76290800D02*
X156011400Y-77764000D01*
D40*
X151478400Y-71924500D02*
X151606400Y-72052500D01*
X148850100Y-71160000D02*
X148420000Y-71590100D01*
%TO.N,Net-(Q1-G)*%
X151750000Y-77800000D02*
X152300000Y-77800000D01*
X152533400Y-78033400D02*
X152533400Y-78662800D01*
X152533400Y-78662800D02*
X153308400Y-79437800D01*
X152300000Y-77800000D02*
X152533400Y-78033400D01*
X155086400Y-79437800D02*
X153308400Y-79437800D01*
%TO.N,Net-(U2-GATE)*%
X153308400Y-77787800D02*
X152457582Y-76936982D01*
X148898000Y-76363200D02*
X148898000Y-76173200D01*
X149471782Y-76936982D02*
X148898000Y-76363200D01*
X152457582Y-76936982D02*
X149471782Y-76936982D01*
%TO.N,/CC2*%
X149420000Y-72507200D02*
X150272800Y-73360000D01*
X151238000Y-73360000D02*
X151718000Y-73840000D01*
X149420000Y-72060000D02*
X149420000Y-72507200D01*
X150272800Y-73360000D02*
X151238000Y-73360000D01*
X151718000Y-73840000D02*
X151718000Y-74173200D01*
%TO.N,/CC1*%
X152350800Y-74603600D02*
X152350800Y-73885200D01*
X152350800Y-73885200D02*
X151425600Y-72960000D01*
X150420000Y-72860000D02*
X150420000Y-72060000D01*
X152281200Y-74673200D02*
X152350800Y-74603600D01*
X150520000Y-72960000D02*
X150420000Y-72860000D01*
X151718000Y-74673200D02*
X152281200Y-74673200D01*
X151425600Y-72960000D02*
X150520000Y-72960000D01*
D42*
%TO.N,GND*%
X154240000Y-73563782D02*
X154181891Y-73621891D01*
X154240000Y-73126982D02*
X154240000Y-73563782D01*
X155050800Y-74419800D02*
X154979800Y-74419800D01*
X154129400Y-86801200D02*
X154129400Y-85055382D01*
X154129400Y-85055382D02*
X154422800Y-84761982D01*
X154240000Y-73126982D02*
X155184800Y-73126982D01*
X152620000Y-72060000D02*
X152691000Y-72060000D01*
D40*
X149808000Y-75673200D02*
X150308000Y-75173200D01*
D42*
X154240000Y-71810000D02*
X154240000Y-73126982D01*
X150308000Y-74173017D02*
X149428583Y-73293600D01*
D40*
X148898000Y-75173200D02*
X150308000Y-75173200D01*
D42*
X154979800Y-74419800D02*
X154181891Y-73621891D01*
X150308000Y-75173200D02*
X150308000Y-74173017D01*
X147803600Y-73293600D02*
X147220000Y-72710000D01*
X154181891Y-73621891D02*
X152620000Y-72060000D01*
D40*
X148898000Y-75673200D02*
X149808000Y-75673200D01*
D42*
X147220000Y-72710000D02*
X147220000Y-72060000D01*
X149428583Y-73293600D02*
X147803600Y-73293600D01*
D40*
X152870000Y-71810000D02*
X152620000Y-72060000D01*
X152706400Y-71952500D02*
X152678400Y-71924500D01*
%TO.N,Net-(LED1-K)*%
X156260000Y-68000000D02*
X156260000Y-68970000D01*
X156260000Y-68970000D02*
X156290000Y-69000000D01*
%TO.N,Net-(JP1-B)*%
X157340000Y-68000000D02*
X157390000Y-67950000D01*
X157390000Y-67950000D02*
X158500000Y-67950000D01*
%TD*%
%TA.AperFunction,Conductor*%
%TO.N,VM*%
G36*
X150334113Y-79829257D02*
G01*
X150363676Y-79855456D01*
X150432932Y-79940110D01*
X151592663Y-81357682D01*
X151619877Y-81422033D01*
X151607980Y-81490883D01*
X151560749Y-81542370D01*
X151501728Y-81560097D01*
X149292439Y-81649951D01*
X149224655Y-81633007D01*
X149176792Y-81582106D01*
X149163400Y-81526053D01*
X149163400Y-81390308D01*
X149163400Y-81390200D01*
X149160888Y-79940107D01*
X149180457Y-79873036D01*
X149233181Y-79827190D01*
X149284139Y-79815897D01*
X150266958Y-79809976D01*
X150334113Y-79829257D01*
G37*
%TD.AperFunction*%
%TD*%
%TA.AperFunction,Conductor*%
%TO.N,+3V3*%
G36*
X150068685Y-87312352D02*
G01*
X150125333Y-87349566D01*
X150867259Y-88207964D01*
X150900006Y-88245852D01*
X157780631Y-88256182D01*
X157847639Y-88275967D01*
X157893315Y-88328840D01*
X157904443Y-88380410D01*
X157900227Y-90676228D01*
X157880419Y-90743231D01*
X157827531Y-90788889D01*
X157776227Y-90800000D01*
X155324000Y-90800000D01*
X155256961Y-90780315D01*
X155211206Y-90727511D01*
X155200000Y-90676000D01*
X155200000Y-89199999D01*
X149255260Y-89198711D01*
X149188225Y-89179012D01*
X149142481Y-89126198D01*
X149131287Y-89074399D01*
X149133279Y-88290599D01*
X149153134Y-88223612D01*
X149165103Y-88207974D01*
X149939352Y-87347697D01*
X149998828Y-87311038D01*
X150068685Y-87312352D01*
G37*
%TD.AperFunction*%
%TD*%
%TA.AperFunction,Conductor*%
%TO.N,GND*%
G36*
X144628209Y-67104020D02*
G01*
X144664173Y-67153520D01*
X144664173Y-67214706D01*
X144661482Y-67221999D01*
X144590349Y-67393727D01*
X144550000Y-67596581D01*
X144550000Y-67749999D01*
X144550001Y-67750000D01*
X145249988Y-67750000D01*
X145249988Y-68250000D01*
X144550001Y-68250000D01*
X144550000Y-68250001D01*
X144550000Y-68403418D01*
X144590349Y-68606272D01*
X144669501Y-68797360D01*
X144669508Y-68797374D01*
X144784405Y-68969329D01*
X144930670Y-69115594D01*
X145102625Y-69230491D01*
X145102642Y-69230500D01*
X145219322Y-69278830D01*
X145265848Y-69318566D01*
X145280132Y-69378061D01*
X145259979Y-69430561D01*
X145178942Y-69536170D01*
X145178937Y-69536178D01*
X145123470Y-69670090D01*
X145123469Y-69670091D01*
X145104550Y-69813799D01*
X145104550Y-69813800D01*
X145123469Y-69957508D01*
X145123470Y-69957509D01*
X145134417Y-69983939D01*
X145178939Y-70091425D01*
X145267179Y-70206421D01*
X145382175Y-70294661D01*
X145387436Y-70296840D01*
X145433963Y-70336574D01*
X145448249Y-70396068D01*
X145424837Y-70452597D01*
X145372670Y-70484569D01*
X145368869Y-70485403D01*
X145293726Y-70500350D01*
X145102639Y-70579501D01*
X145102625Y-70579508D01*
X144930670Y-70694405D01*
X144784405Y-70840670D01*
X144669508Y-71012625D01*
X144669501Y-71012639D01*
X144590349Y-71203727D01*
X144550000Y-71406581D01*
X144550000Y-71559999D01*
X144550001Y-71560000D01*
X145249988Y-71560000D01*
X145249988Y-72060000D01*
X144550001Y-72060000D01*
X144550000Y-72060001D01*
X144550000Y-72213418D01*
X144590349Y-72416272D01*
X144669501Y-72607360D01*
X144669508Y-72607374D01*
X144784405Y-72779329D01*
X144930670Y-72925594D01*
X145102625Y-73040491D01*
X145102639Y-73040498D01*
X145293723Y-73119648D01*
X145293730Y-73119650D01*
X145350000Y-73130842D01*
X145350000Y-72304978D01*
X145385088Y-72340066D01*
X145464901Y-72386146D01*
X145553920Y-72409999D01*
X145646080Y-72409999D01*
X145735099Y-72386146D01*
X145814912Y-72340066D01*
X145850000Y-72304978D01*
X145850000Y-73130841D01*
X145906269Y-73119650D01*
X145906276Y-73119648D01*
X146097360Y-73040498D01*
X146097369Y-73040494D01*
X146273379Y-72922887D01*
X146274578Y-72924682D01*
X146323624Y-72905466D01*
X146382833Y-72920893D01*
X146408742Y-72944963D01*
X146462807Y-73017184D01*
X146462815Y-73017192D01*
X146577909Y-73103352D01*
X146577911Y-73103353D01*
X146712618Y-73153596D01*
X146712629Y-73153598D01*
X146772176Y-73160000D01*
X146969999Y-73160000D01*
X146970000Y-73159999D01*
X146970000Y-70960001D01*
X146969999Y-70960000D01*
X146772176Y-70960000D01*
X146712629Y-70966401D01*
X146712623Y-70966402D01*
X146615492Y-71002629D01*
X146554363Y-71005248D01*
X146503369Y-70971436D01*
X146498581Y-70964871D01*
X146415591Y-70840667D01*
X146269329Y-70694405D01*
X146097374Y-70579508D01*
X146097360Y-70579501D01*
X145906269Y-70500348D01*
X145902366Y-70499164D01*
X145852173Y-70464173D01*
X145832134Y-70406362D01*
X145849902Y-70347814D01*
X145893227Y-70312968D01*
X145937425Y-70294661D01*
X146052421Y-70206421D01*
X146140661Y-70091425D01*
X146196130Y-69957509D01*
X146215050Y-69813800D01*
X146196130Y-69670091D01*
X146140661Y-69536175D01*
X146052421Y-69421179D01*
X146052416Y-69421175D01*
X146052415Y-69421174D01*
X146042829Y-69413818D01*
X146008175Y-69363392D01*
X146009779Y-69302228D01*
X146047028Y-69253687D01*
X146065215Y-69243813D01*
X146097362Y-69230497D01*
X146097374Y-69230491D01*
X146269329Y-69115594D01*
X146415594Y-68969329D01*
X146530491Y-68797374D01*
X146530498Y-68797360D01*
X146609650Y-68606272D01*
X146649999Y-68403418D01*
X146650000Y-68403413D01*
X146650000Y-68250001D01*
X146649999Y-68250000D01*
X145950012Y-68250000D01*
X145950012Y-67750000D01*
X146649999Y-67750000D01*
X146650000Y-67749999D01*
X146650000Y-67596586D01*
X146649999Y-67596581D01*
X146609650Y-67393727D01*
X146538518Y-67221999D01*
X146533717Y-67161002D01*
X146565687Y-67108833D01*
X146622215Y-67085418D01*
X146629982Y-67085113D01*
X153210018Y-67085113D01*
X153268209Y-67104020D01*
X153304173Y-67153520D01*
X153304173Y-67214706D01*
X153301482Y-67221999D01*
X153230349Y-67393727D01*
X153190000Y-67596581D01*
X153190000Y-67749999D01*
X153190001Y-67750000D01*
X153889988Y-67750000D01*
X153889988Y-68250000D01*
X153190001Y-68250000D01*
X153190000Y-68250001D01*
X153190000Y-68403418D01*
X153230349Y-68606272D01*
X153309501Y-68797360D01*
X153309508Y-68797374D01*
X153424405Y-68969329D01*
X153570670Y-69115594D01*
X153742625Y-69230491D01*
X153742639Y-69230498D01*
X153933723Y-69309648D01*
X153933730Y-69309650D01*
X153990000Y-69320842D01*
X153990000Y-68494978D01*
X154025088Y-68530066D01*
X154104901Y-68576146D01*
X154193920Y-68599999D01*
X154286080Y-68599999D01*
X154375099Y-68576146D01*
X154454912Y-68530066D01*
X154490000Y-68494978D01*
X154490000Y-69320841D01*
X154546269Y-69309650D01*
X154546276Y-69309648D01*
X154737360Y-69230498D01*
X154737374Y-69230491D01*
X154909329Y-69115594D01*
X155055594Y-68969329D01*
X155170491Y-68797374D01*
X155170498Y-68797360D01*
X155249650Y-68606272D01*
X155289999Y-68403418D01*
X155290000Y-68403413D01*
X155290000Y-68250001D01*
X155289999Y-68250000D01*
X154590012Y-68250000D01*
X154590012Y-67750000D01*
X155289999Y-67750000D01*
X155290000Y-67749999D01*
X155290000Y-67596586D01*
X155289999Y-67596581D01*
X155249650Y-67393727D01*
X155178518Y-67221999D01*
X155173717Y-67161002D01*
X155205687Y-67108833D01*
X155262215Y-67085418D01*
X155269982Y-67085113D01*
X157785908Y-67085113D01*
X157847481Y-67085113D01*
X157856109Y-67085490D01*
X158020903Y-67099907D01*
X158037883Y-67102900D01*
X158193496Y-67144597D01*
X158209702Y-67150496D01*
X158355699Y-67218577D01*
X158370637Y-67227201D01*
X158488035Y-67309404D01*
X158524857Y-67358269D01*
X158525925Y-67419445D01*
X158490831Y-67469565D01*
X158432979Y-67489485D01*
X158431252Y-67489500D01*
X158299263Y-67489500D01*
X158207825Y-67503983D01*
X158207821Y-67503984D01*
X158097610Y-67560140D01*
X158097609Y-67560140D01*
X158097609Y-67560141D01*
X158087244Y-67570505D01*
X158032730Y-67598281D01*
X158017243Y-67599500D01*
X157926994Y-67599500D01*
X157868803Y-67580593D01*
X157844679Y-67555502D01*
X157840603Y-67549402D01*
X157840601Y-67549399D01*
X157819202Y-67535101D01*
X157757742Y-67494035D01*
X157757740Y-67494034D01*
X157757737Y-67494033D01*
X157757736Y-67494033D01*
X157684684Y-67479501D01*
X157684674Y-67479500D01*
X156995326Y-67479500D01*
X156995325Y-67479500D01*
X156995315Y-67479501D01*
X156922263Y-67494033D01*
X156922257Y-67494035D01*
X156855001Y-67538974D01*
X156796112Y-67555582D01*
X156744999Y-67538974D01*
X156677742Y-67494035D01*
X156677740Y-67494034D01*
X156677737Y-67494033D01*
X156677736Y-67494033D01*
X156604684Y-67479501D01*
X156604674Y-67479500D01*
X155915326Y-67479500D01*
X155915325Y-67479500D01*
X155915315Y-67479501D01*
X155842263Y-67494033D01*
X155842257Y-67494035D01*
X155759400Y-67549397D01*
X155759397Y-67549400D01*
X155704035Y-67632257D01*
X155704033Y-67632263D01*
X155689501Y-67705315D01*
X155689500Y-67705327D01*
X155689500Y-68294672D01*
X155689501Y-68294684D01*
X155704033Y-68367736D01*
X155704035Y-68367742D01*
X155759397Y-68450599D01*
X155759402Y-68450604D01*
X155796489Y-68475384D01*
X155834369Y-68523433D01*
X155836772Y-68584571D01*
X155830430Y-68601180D01*
X155780418Y-68703482D01*
X155769500Y-68778418D01*
X155769500Y-69221582D01*
X155780418Y-69296518D01*
X155836924Y-69412102D01*
X155927898Y-69503076D01*
X156043482Y-69559582D01*
X156118418Y-69570500D01*
X156118421Y-69570500D01*
X156461578Y-69570500D01*
X156461582Y-69570500D01*
X156536518Y-69559582D01*
X156550457Y-69552767D01*
X156611035Y-69544193D01*
X156665086Y-69572865D01*
X156666686Y-69574710D01*
X156782714Y-69690738D01*
X156920804Y-69772404D01*
X157059999Y-69812844D01*
X157060000Y-69812844D01*
X157060000Y-69099000D01*
X157078907Y-69040809D01*
X157128407Y-69004845D01*
X157159000Y-69000000D01*
X157461000Y-69000000D01*
X157519191Y-69018907D01*
X157555155Y-69068407D01*
X157560000Y-69099000D01*
X157560000Y-69812844D01*
X157699195Y-69772404D01*
X157699196Y-69772404D01*
X157837285Y-69690738D01*
X157866144Y-69661879D01*
X157920661Y-69634101D01*
X157981093Y-69643672D01*
X158013116Y-69674067D01*
X158015189Y-69672477D01*
X158019138Y-69677624D01*
X158019139Y-69677625D01*
X158107379Y-69792621D01*
X158222375Y-69880861D01*
X158356291Y-69936330D01*
X158500000Y-69955250D01*
X158643709Y-69936330D01*
X158738782Y-69896949D01*
X158799776Y-69892149D01*
X158851945Y-69924119D01*
X158875360Y-69980646D01*
X158875665Y-69988395D01*
X158876278Y-73137442D01*
X158857382Y-73195636D01*
X158807889Y-73231610D01*
X158770425Y-73236224D01*
X158733662Y-73233672D01*
X158124799Y-73842535D01*
X158124799Y-73836321D01*
X158097540Y-73734588D01*
X158044879Y-73643377D01*
X157970405Y-73568903D01*
X157879194Y-73516242D01*
X157777461Y-73488983D01*
X157771243Y-73488983D01*
X158378126Y-72882100D01*
X158261986Y-72810188D01*
X158261980Y-72810185D01*
X158054599Y-72729845D01*
X157835996Y-72688982D01*
X157613604Y-72688982D01*
X157395000Y-72729845D01*
X157187621Y-72810184D01*
X157187616Y-72810187D01*
X157071472Y-72882100D01*
X157678355Y-73488983D01*
X157672139Y-73488983D01*
X157570406Y-73516242D01*
X157479195Y-73568903D01*
X157404721Y-73643377D01*
X157352060Y-73734588D01*
X157324801Y-73836321D01*
X157324801Y-73842537D01*
X156715937Y-73233673D01*
X156700168Y-73254556D01*
X156699520Y-73255858D01*
X156699092Y-73256292D01*
X156697760Y-73258446D01*
X156697274Y-73258145D01*
X156656657Y-73299519D01*
X156596316Y-73309648D01*
X156541545Y-73282374D01*
X156513266Y-73228116D01*
X156511900Y-73211728D01*
X156511900Y-71717509D01*
X156496223Y-71659000D01*
X156477792Y-71590214D01*
X156477790Y-71590211D01*
X156477790Y-71590209D01*
X156411903Y-71476090D01*
X156411899Y-71476085D01*
X156318714Y-71382899D01*
X156318714Y-71382900D01*
X155803016Y-70867202D01*
X155775239Y-70812685D01*
X155784810Y-70752253D01*
X155812751Y-70718657D01*
X155922843Y-70634181D01*
X155930418Y-70624309D01*
X156774300Y-70624309D01*
X156774300Y-72073654D01*
X156774301Y-72073666D01*
X156788833Y-72146718D01*
X156788835Y-72146724D01*
X156844197Y-72229581D01*
X156844199Y-72229583D01*
X156927060Y-72284948D01*
X156982608Y-72295997D01*
X157000115Y-72299480D01*
X157000120Y-72299480D01*
X157000126Y-72299482D01*
X157000127Y-72299482D01*
X158449473Y-72299482D01*
X158449474Y-72299482D01*
X158522540Y-72284948D01*
X158605401Y-72229583D01*
X158660766Y-72146722D01*
X158675300Y-72073656D01*
X158675300Y-70624308D01*
X158660766Y-70551242D01*
X158605401Y-70468381D01*
X158605400Y-70468380D01*
X158605399Y-70468379D01*
X158522542Y-70413017D01*
X158522540Y-70413016D01*
X158522537Y-70413015D01*
X158522536Y-70413015D01*
X158449484Y-70398483D01*
X158449474Y-70398482D01*
X157000126Y-70398482D01*
X157000125Y-70398482D01*
X157000115Y-70398483D01*
X156927063Y-70413015D01*
X156927057Y-70413017D01*
X156844200Y-70468379D01*
X156844199Y-70468381D01*
X156788835Y-70551239D01*
X156788833Y-70551245D01*
X156774301Y-70624297D01*
X156774300Y-70624309D01*
X155930418Y-70624309D01*
X156011083Y-70519185D01*
X156066552Y-70385269D01*
X156085472Y-70241560D01*
X156066552Y-70097851D01*
X156011083Y-69963935D01*
X155922843Y-69848939D01*
X155807847Y-69760699D01*
X155807843Y-69760697D01*
X155673931Y-69705230D01*
X155673930Y-69705229D01*
X155530222Y-69686310D01*
X155386513Y-69705229D01*
X155386512Y-69705230D01*
X155252600Y-69760697D01*
X155252596Y-69760699D01*
X155137603Y-69848937D01*
X155137599Y-69848941D01*
X155049361Y-69963934D01*
X155049360Y-69963936D01*
X155041075Y-69983939D01*
X155001338Y-70030465D01*
X154941843Y-70044748D01*
X154923995Y-70041681D01*
X154803892Y-70009500D01*
X151938292Y-70009500D01*
X151806507Y-70009500D01*
X151728600Y-70030374D01*
X151679209Y-70043609D01*
X151565090Y-70109496D01*
X151565084Y-70109500D01*
X151477543Y-70197040D01*
X151477544Y-70197041D01*
X151477541Y-70197044D01*
X151477540Y-70197043D01*
X151241683Y-70432903D01*
X151187166Y-70460681D01*
X151171679Y-70461900D01*
X148601707Y-70461900D01*
X148577519Y-70468380D01*
X148577520Y-70468381D01*
X148474414Y-70496008D01*
X148474412Y-70496008D01*
X148474408Y-70496010D01*
X148360290Y-70561896D01*
X148360285Y-70561900D01*
X148267099Y-70655085D01*
X148267100Y-70655086D01*
X148267099Y-70655087D01*
X148112686Y-70809499D01*
X148112686Y-70809500D01*
X148112685Y-70809499D01*
X148019500Y-70902685D01*
X148019498Y-70902687D01*
X147979342Y-70972240D01*
X147933872Y-71013180D01*
X147873022Y-71019575D01*
X147859010Y-71015497D01*
X147727381Y-70966403D01*
X147727370Y-70966401D01*
X147667824Y-70960000D01*
X147470001Y-70960000D01*
X147470000Y-70960001D01*
X147470000Y-73159999D01*
X147470001Y-73160000D01*
X147667824Y-73160000D01*
X147727370Y-73153598D01*
X147727381Y-73153596D01*
X147862088Y-73103353D01*
X147862090Y-73103352D01*
X147977184Y-73017192D01*
X147977192Y-73017184D01*
X148027359Y-72950171D01*
X148077368Y-72914918D01*
X148106612Y-72910500D01*
X148794673Y-72910500D01*
X148794674Y-72910500D01*
X148867740Y-72895966D01*
X148867746Y-72895961D01*
X148876752Y-72892233D01*
X148877586Y-72894248D01*
X148923880Y-72881189D01*
X148962610Y-72893773D01*
X148963248Y-72892233D01*
X148972255Y-72895962D01*
X148972260Y-72895966D01*
X149020019Y-72905466D01*
X149045315Y-72910498D01*
X149045320Y-72910498D01*
X149045326Y-72910500D01*
X149286610Y-72910500D01*
X149344801Y-72929407D01*
X149356613Y-72939496D01*
X149671314Y-73254196D01*
X149699092Y-73308713D01*
X149689521Y-73369145D01*
X149646256Y-73412410D01*
X149601311Y-73423200D01*
X149510176Y-73423200D01*
X149450629Y-73429601D01*
X149450618Y-73429603D01*
X149315911Y-73479846D01*
X149315909Y-73479847D01*
X149200815Y-73566007D01*
X149200807Y-73566015D01*
X149114647Y-73681110D01*
X149100779Y-73718295D01*
X149062729Y-73766210D01*
X149008020Y-73782700D01*
X148543326Y-73782700D01*
X148543325Y-73782700D01*
X148543313Y-73782701D01*
X148527667Y-73785813D01*
X148466906Y-73778620D01*
X148429816Y-73748983D01*
X148363826Y-73662985D01*
X148363824Y-73662983D01*
X148363821Y-73662979D01*
X148248825Y-73574739D01*
X148248821Y-73574737D01*
X148114909Y-73519270D01*
X148114908Y-73519269D01*
X147971200Y-73500350D01*
X147827491Y-73519269D01*
X147827490Y-73519270D01*
X147693578Y-73574737D01*
X147693574Y-73574739D01*
X147578581Y-73662977D01*
X147578577Y-73662981D01*
X147490339Y-73777974D01*
X147490337Y-73777978D01*
X147434870Y-73911890D01*
X147425998Y-73979279D01*
X147399657Y-74034503D01*
X147345886Y-74063698D01*
X147293249Y-74059114D01*
X147265088Y-74048610D01*
X147265083Y-74048609D01*
X147265081Y-74048608D01*
X147265077Y-74048608D01*
X147233849Y-74045250D01*
X147205473Y-74042200D01*
X147205470Y-74042200D01*
X146609733Y-74042200D01*
X146609729Y-74042200D01*
X146609728Y-74042201D01*
X146602549Y-74042972D01*
X146550119Y-74048608D01*
X146550114Y-74048609D01*
X146415270Y-74098902D01*
X146300058Y-74185150D01*
X146300050Y-74185158D01*
X146213803Y-74300369D01*
X146181601Y-74386709D01*
X146143551Y-74434623D01*
X146084604Y-74451021D01*
X146027276Y-74429639D01*
X145994868Y-74383252D01*
X145941956Y-74223575D01*
X145849919Y-74074359D01*
X145725940Y-73950380D01*
X145576724Y-73858343D01*
X145410293Y-73803193D01*
X145307587Y-73792700D01*
X145257601Y-73792700D01*
X145257600Y-73792701D01*
X145257600Y-80306698D01*
X145257601Y-80306699D01*
X145307586Y-80306699D01*
X145410287Y-80296207D01*
X145410299Y-80296204D01*
X145576725Y-80241056D01*
X145722387Y-80151210D01*
X145781840Y-80136753D01*
X145838436Y-80160003D01*
X145852900Y-80175200D01*
X145902179Y-80239421D01*
X146017175Y-80327661D01*
X146151091Y-80383130D01*
X146294800Y-80402050D01*
X146438509Y-80383130D01*
X146572425Y-80327661D01*
X146687421Y-80239421D01*
X146775661Y-80124425D01*
X146778191Y-80118315D01*
X146817926Y-80071789D01*
X146869656Y-80057199D01*
X147134277Y-80057199D01*
X147192468Y-80076106D01*
X147204280Y-80086195D01*
X147278585Y-80160499D01*
X147278590Y-80160503D01*
X147392710Y-80226390D01*
X147392708Y-80226390D01*
X147392712Y-80226391D01*
X147392714Y-80226392D01*
X147520008Y-80260500D01*
X147520010Y-80260500D01*
X148589217Y-80260500D01*
X148644217Y-80277183D01*
X148702260Y-80315966D01*
X148757808Y-80327015D01*
X148775315Y-80330498D01*
X148775320Y-80330498D01*
X148775326Y-80330500D01*
X148807235Y-80330500D01*
X148865426Y-80349407D01*
X148901390Y-80398907D01*
X148906235Y-80429329D01*
X148907900Y-81390643D01*
X148907900Y-81526054D01*
X148912220Y-81562724D01*
X148912900Y-81574307D01*
X148912900Y-81944872D01*
X148912901Y-81944884D01*
X148927433Y-82017936D01*
X148927436Y-82017945D01*
X148965692Y-82075200D01*
X148982300Y-82134088D01*
X148965692Y-82185200D01*
X148927436Y-82242454D01*
X148927433Y-82242463D01*
X148912901Y-82315515D01*
X148912900Y-82315527D01*
X148912900Y-82803587D01*
X148893993Y-82861778D01*
X148873230Y-82882840D01*
X148806212Y-82933010D01*
X148806207Y-82933015D01*
X148720047Y-83048109D01*
X148720046Y-83048111D01*
X148669803Y-83182818D01*
X148669801Y-83182829D01*
X148663400Y-83242375D01*
X148663400Y-83305199D01*
X148663401Y-83305200D01*
X149599400Y-83305200D01*
X149657591Y-83324107D01*
X149693555Y-83373607D01*
X149698400Y-83404200D01*
X149698400Y-83555199D01*
X149698401Y-83555200D01*
X149849400Y-83555200D01*
X149907591Y-83574107D01*
X149943555Y-83623607D01*
X149948400Y-83654200D01*
X149948400Y-84320199D01*
X149948401Y-84320200D01*
X150032978Y-84320200D01*
X150091169Y-84339107D01*
X150127133Y-84388607D01*
X150127133Y-84449793D01*
X150102982Y-84489204D01*
X150021682Y-84570504D01*
X149967165Y-84598281D01*
X149951678Y-84599500D01*
X147088789Y-84599500D01*
X147030598Y-84580593D01*
X146994634Y-84531093D01*
X146994634Y-84469907D01*
X147018786Y-84430496D01*
X147349587Y-84099696D01*
X147404103Y-84071919D01*
X147419590Y-84070700D01*
X147958073Y-84070700D01*
X147958074Y-84070700D01*
X148031140Y-84056166D01*
X148114001Y-84000801D01*
X148169366Y-83917940D01*
X148179295Y-83868024D01*
X148663399Y-83868024D01*
X148669801Y-83927570D01*
X148669803Y-83927581D01*
X148720046Y-84062288D01*
X148720047Y-84062290D01*
X148806207Y-84177384D01*
X148806215Y-84177392D01*
X148921309Y-84263552D01*
X148921311Y-84263553D01*
X149056018Y-84313796D01*
X149056029Y-84313798D01*
X149115576Y-84320200D01*
X149448399Y-84320200D01*
X149448400Y-84320199D01*
X149448400Y-83805201D01*
X149448399Y-83805200D01*
X148663401Y-83805200D01*
X148663400Y-83805201D01*
X148663400Y-83868024D01*
X148663399Y-83868024D01*
X148179295Y-83868024D01*
X148183900Y-83844874D01*
X148183900Y-83265526D01*
X148169366Y-83192460D01*
X148131106Y-83135199D01*
X148114499Y-83076313D01*
X148131107Y-83025199D01*
X148169366Y-82967940D01*
X148183900Y-82894874D01*
X148183900Y-82315526D01*
X148169366Y-82242460D01*
X148131106Y-82185199D01*
X148114499Y-82126313D01*
X148131107Y-82075199D01*
X148169366Y-82017940D01*
X148183900Y-81944874D01*
X148183900Y-81365526D01*
X148169366Y-81292460D01*
X148114001Y-81209599D01*
X148113999Y-81209597D01*
X148031142Y-81154235D01*
X148031140Y-81154234D01*
X148031137Y-81154233D01*
X148031136Y-81154233D01*
X147958084Y-81139701D01*
X147958074Y-81139700D01*
X147958073Y-81139700D01*
X146946714Y-81139700D01*
X146888523Y-81120793D01*
X146858505Y-81085646D01*
X146843812Y-81056809D01*
X146814259Y-80998809D01*
X146726791Y-80911341D01*
X146616575Y-80855183D01*
X146616576Y-80855183D01*
X146525136Y-80840700D01*
X146183662Y-80840700D01*
X146092225Y-80855183D01*
X146092221Y-80855184D01*
X145982010Y-80911340D01*
X145982009Y-80911340D01*
X145982009Y-80911341D01*
X145944401Y-80948948D01*
X145889887Y-80976724D01*
X145829455Y-80967153D01*
X145804399Y-80948949D01*
X145766791Y-80911341D01*
X145656575Y-80855183D01*
X145656576Y-80855183D01*
X145565136Y-80840700D01*
X145223662Y-80840700D01*
X145132225Y-80855183D01*
X145132221Y-80855184D01*
X145022010Y-80911340D01*
X144934540Y-80998810D01*
X144878383Y-81109023D01*
X144863900Y-81200463D01*
X144863900Y-81601937D01*
X144878383Y-81693374D01*
X144878384Y-81693379D01*
X144892702Y-81721479D01*
X144902273Y-81781911D01*
X144874495Y-81836427D01*
X144819978Y-81864204D01*
X144791569Y-81864575D01*
X144771624Y-81861950D01*
X144771623Y-81861950D01*
X144627915Y-81880869D01*
X144627914Y-81880870D01*
X144494002Y-81936337D01*
X144493998Y-81936339D01*
X144379005Y-82024577D01*
X144379001Y-82024581D01*
X144290763Y-82139574D01*
X144290761Y-82139578D01*
X144235294Y-82273490D01*
X144235293Y-82273491D01*
X144216374Y-82417199D01*
X144216374Y-82417200D01*
X144235293Y-82560908D01*
X144235294Y-82560909D01*
X144279937Y-82668690D01*
X144290763Y-82694825D01*
X144379003Y-82809821D01*
X144493999Y-82898061D01*
X144569057Y-82929150D01*
X144615581Y-82968884D01*
X144629865Y-83028379D01*
X144626239Y-83048232D01*
X144597234Y-83148069D01*
X144597232Y-83148078D01*
X144594469Y-83183199D01*
X144594470Y-83183200D01*
X145265400Y-83183200D01*
X145323591Y-83202107D01*
X145359555Y-83251607D01*
X145364400Y-83282200D01*
X145364400Y-83584200D01*
X145345493Y-83642391D01*
X145295993Y-83678355D01*
X145265400Y-83683200D01*
X144594469Y-83683200D01*
X144597232Y-83718321D01*
X144597234Y-83718327D01*
X144641995Y-83872395D01*
X144641995Y-83872396D01*
X144723661Y-84010485D01*
X144841516Y-84128340D01*
X144839253Y-84130602D01*
X144866534Y-84170347D01*
X144869375Y-84213894D01*
X144863900Y-84248461D01*
X144863900Y-84649937D01*
X144878383Y-84741374D01*
X144878384Y-84741378D01*
X144886504Y-84757314D01*
X144934541Y-84851591D01*
X145020833Y-84937883D01*
X145046454Y-84982261D01*
X145067784Y-85061866D01*
X145067785Y-85061868D01*
X145067786Y-85061870D01*
X145113930Y-85141794D01*
X145378242Y-85406106D01*
X145623741Y-85651605D01*
X145651518Y-85706122D01*
X145641947Y-85766554D01*
X145634080Y-85779021D01*
X145567009Y-85895192D01*
X145567008Y-85895196D01*
X145560543Y-85919323D01*
X145527220Y-85970637D01*
X145470099Y-85992564D01*
X145464917Y-85992700D01*
X145108726Y-85992700D01*
X145108725Y-85992700D01*
X145108715Y-85992701D01*
X145035663Y-86007233D01*
X145035657Y-86007235D01*
X144952800Y-86062597D01*
X144952797Y-86062600D01*
X144897435Y-86145457D01*
X144897433Y-86145463D01*
X144882901Y-86218515D01*
X144882900Y-86218527D01*
X144882900Y-88267872D01*
X144882901Y-88267884D01*
X144897433Y-88340936D01*
X144897435Y-88340942D01*
X144952797Y-88423799D01*
X144952799Y-88423801D01*
X145035660Y-88479166D01*
X145091208Y-88490215D01*
X145108715Y-88493698D01*
X145108720Y-88493698D01*
X145108726Y-88493700D01*
X145108727Y-88493700D01*
X146958073Y-88493700D01*
X146958074Y-88493700D01*
X147031140Y-88479166D01*
X147114001Y-88423801D01*
X147169366Y-88340940D01*
X147183900Y-88267874D01*
X147183900Y-86218526D01*
X147169366Y-86145460D01*
X147114001Y-86062599D01*
X147113999Y-86062597D01*
X147031142Y-86007235D01*
X147022135Y-86003505D01*
X147023487Y-86000239D01*
X146985246Y-85978804D01*
X146959652Y-85923229D01*
X146971612Y-85863224D01*
X146987961Y-85841633D01*
X147200099Y-85629495D01*
X147254615Y-85601719D01*
X147270102Y-85600500D01*
X150265890Y-85600500D01*
X150265892Y-85600500D01*
X150393186Y-85566392D01*
X150393188Y-85566390D01*
X150393190Y-85566390D01*
X150507309Y-85500503D01*
X150507309Y-85500502D01*
X150507314Y-85500500D01*
X151250500Y-84757314D01*
X151259701Y-84741378D01*
X151316390Y-84643190D01*
X151316390Y-84643188D01*
X151316392Y-84643186D01*
X151350500Y-84515892D01*
X151350500Y-84384107D01*
X151350500Y-84332303D01*
X151369407Y-84274112D01*
X151418907Y-84238148D01*
X151480093Y-84238148D01*
X151480646Y-84238330D01*
X151485198Y-84239838D01*
X151584477Y-84249981D01*
X151632800Y-84249980D01*
X151632800Y-83549983D01*
X152132800Y-83549983D01*
X152132800Y-84249980D01*
X152132801Y-84249981D01*
X152181122Y-84249981D01*
X152280397Y-84239839D01*
X152280409Y-84239836D01*
X152441283Y-84186528D01*
X152442831Y-84185807D01*
X152443832Y-84185683D01*
X152446757Y-84184715D01*
X152446951Y-84185300D01*
X152503560Y-84178348D01*
X152557075Y-84208010D01*
X152582935Y-84263461D01*
X152583160Y-84285592D01*
X152572800Y-84386994D01*
X152572800Y-84511981D01*
X152572801Y-84511982D01*
X156272798Y-84511982D01*
X156272799Y-84511981D01*
X156272799Y-84386995D01*
X156262307Y-84284294D01*
X156262304Y-84284282D01*
X156207156Y-84117857D01*
X156164671Y-84048977D01*
X156769701Y-84048977D01*
X156769701Y-84048986D01*
X156788051Y-84235307D01*
X156788052Y-84235310D01*
X156796592Y-84263461D01*
X156833189Y-84384107D01*
X156842405Y-84414486D01*
X156842406Y-84414488D01*
X156930659Y-84579599D01*
X156930662Y-84579604D01*
X156930664Y-84579607D01*
X156946990Y-84599500D01*
X157049438Y-84724334D01*
X157049447Y-84724343D01*
X157089617Y-84757309D01*
X157194175Y-84843118D01*
X157359299Y-84931378D01*
X157538469Y-84985729D01*
X157538471Y-84985729D01*
X157538474Y-84985730D01*
X157724796Y-85004081D01*
X157724800Y-85004081D01*
X157724804Y-85004081D01*
X157911125Y-84985730D01*
X157911126Y-84985729D01*
X157911131Y-84985729D01*
X158090301Y-84931378D01*
X158255425Y-84843118D01*
X158400157Y-84724339D01*
X158518936Y-84579607D01*
X158607196Y-84414483D01*
X158661547Y-84235313D01*
X158664237Y-84208010D01*
X158679899Y-84048986D01*
X158679899Y-84048977D01*
X158661548Y-83862656D01*
X158661547Y-83862653D01*
X158661547Y-83862651D01*
X158607196Y-83683481D01*
X158603913Y-83677338D01*
X158518940Y-83518364D01*
X158518938Y-83518362D01*
X158518936Y-83518357D01*
X158455555Y-83441127D01*
X158400161Y-83373629D01*
X158400152Y-83373620D01*
X158310422Y-83299981D01*
X158255425Y-83254846D01*
X158255422Y-83254844D01*
X158255417Y-83254841D01*
X158090306Y-83166588D01*
X158090304Y-83166587D01*
X157911128Y-83112234D01*
X157911125Y-83112233D01*
X157724804Y-83093883D01*
X157724796Y-83093883D01*
X157538474Y-83112233D01*
X157538471Y-83112234D01*
X157359295Y-83166587D01*
X157359293Y-83166588D01*
X157194182Y-83254841D01*
X157194176Y-83254845D01*
X157049447Y-83373620D01*
X157049438Y-83373629D01*
X156930663Y-83518358D01*
X156930659Y-83518364D01*
X156842406Y-83683475D01*
X156842405Y-83683477D01*
X156788052Y-83862653D01*
X156788051Y-83862656D01*
X156769701Y-84048977D01*
X156164671Y-84048977D01*
X156115119Y-83968641D01*
X155991140Y-83844662D01*
X155841924Y-83752625D01*
X155675493Y-83697475D01*
X155572787Y-83686982D01*
X154811377Y-83686982D01*
X154753186Y-83668075D01*
X154717222Y-83618575D01*
X154713224Y-83575059D01*
X154713350Y-83574107D01*
X154724030Y-83492983D01*
X154705110Y-83349274D01*
X154649641Y-83215358D01*
X154561401Y-83100362D01*
X154446405Y-83012122D01*
X154446401Y-83012120D01*
X154312489Y-82956653D01*
X154312488Y-82956652D01*
X154168780Y-82937733D01*
X154025071Y-82956652D01*
X154025070Y-82956653D01*
X153891158Y-83012120D01*
X153891154Y-83012122D01*
X153776161Y-83100360D01*
X153776157Y-83100364D01*
X153687919Y-83215357D01*
X153687917Y-83215361D01*
X153632450Y-83349273D01*
X153632449Y-83349274D01*
X153613530Y-83492982D01*
X153613530Y-83492984D01*
X153624335Y-83575061D01*
X153613185Y-83635221D01*
X153568802Y-83677338D01*
X153526182Y-83686982D01*
X153272813Y-83686982D01*
X153170112Y-83697474D01*
X153170100Y-83697477D01*
X153003672Y-83752626D01*
X152999295Y-83755326D01*
X152939841Y-83769780D01*
X152883247Y-83746526D01*
X152851129Y-83694449D01*
X152848840Y-83661000D01*
X152857800Y-83573304D01*
X152857800Y-83549983D01*
X152857799Y-83549982D01*
X152132801Y-83549982D01*
X152132800Y-83549983D01*
X151632800Y-83549983D01*
X151632800Y-83398982D01*
X151651707Y-83340791D01*
X151701207Y-83304827D01*
X151731800Y-83299982D01*
X151882799Y-83299982D01*
X151882800Y-83299981D01*
X151882800Y-83148982D01*
X151901707Y-83090791D01*
X151951207Y-83054827D01*
X151981800Y-83049982D01*
X152857798Y-83049982D01*
X152857799Y-83049981D01*
X152857799Y-83026659D01*
X152847657Y-82927384D01*
X152847654Y-82927372D01*
X152794345Y-82766494D01*
X152708791Y-82627792D01*
X152694334Y-82568339D01*
X152717584Y-82511743D01*
X152769659Y-82479622D01*
X152780129Y-82477666D01*
X152795723Y-82475613D01*
X152880413Y-82464463D01*
X152940573Y-82475613D01*
X152963339Y-82492612D01*
X152965251Y-82494524D01*
X152965254Y-82494528D01*
X152965257Y-82494530D01*
X152965258Y-82494531D01*
X153080470Y-82580779D01*
X153215311Y-82631071D01*
X153215312Y-82631071D01*
X153215317Y-82631073D01*
X153274927Y-82637482D01*
X155310477Y-82637481D01*
X155368668Y-82656388D01*
X155380481Y-82666477D01*
X155416184Y-82702180D01*
X155437644Y-82734298D01*
X155465939Y-82802607D01*
X155554179Y-82917603D01*
X155669175Y-83005843D01*
X155803091Y-83061312D01*
X155946800Y-83080232D01*
X156090509Y-83061312D01*
X156224425Y-83005843D01*
X156339421Y-82917603D01*
X156427661Y-82802607D01*
X156483130Y-82668691D01*
X156502050Y-82524982D01*
X156496158Y-82480232D01*
X156483130Y-82381273D01*
X156427661Y-82247357D01*
X156339421Y-82132361D01*
X156224425Y-82044121D01*
X156224423Y-82044120D01*
X156156114Y-82015825D01*
X156123998Y-81994366D01*
X156052294Y-81922663D01*
X156024518Y-81868147D01*
X156023299Y-81852660D01*
X156023299Y-81508977D01*
X156769701Y-81508977D01*
X156769701Y-81508986D01*
X156788051Y-81695307D01*
X156788052Y-81695310D01*
X156842405Y-81874486D01*
X156842406Y-81874488D01*
X156930659Y-82039599D01*
X156930662Y-82039604D01*
X156930664Y-82039607D01*
X156934368Y-82044120D01*
X157049438Y-82184334D01*
X157049447Y-82184343D01*
X157080412Y-82209755D01*
X157194175Y-82303118D01*
X157194180Y-82303120D01*
X157194182Y-82303122D01*
X157359293Y-82391375D01*
X157359299Y-82391378D01*
X157538469Y-82445729D01*
X157538471Y-82445729D01*
X157538474Y-82445730D01*
X157724796Y-82464081D01*
X157724800Y-82464081D01*
X157724804Y-82464081D01*
X157911125Y-82445730D01*
X157911126Y-82445729D01*
X157911131Y-82445729D01*
X158090301Y-82391378D01*
X158255425Y-82303118D01*
X158400157Y-82184339D01*
X158518936Y-82039607D01*
X158607196Y-81874483D01*
X158661547Y-81695313D01*
X158661738Y-81693379D01*
X158679899Y-81508986D01*
X158679899Y-81508977D01*
X158661548Y-81322656D01*
X158661547Y-81322653D01*
X158661547Y-81322651D01*
X158607196Y-81143481D01*
X158550996Y-81038337D01*
X158518940Y-80978364D01*
X158518938Y-80978362D01*
X158518936Y-80978357D01*
X158431389Y-80871681D01*
X158400161Y-80833629D01*
X158400152Y-80833620D01*
X158303368Y-80754192D01*
X158255425Y-80714846D01*
X158255422Y-80714844D01*
X158255417Y-80714841D01*
X158090306Y-80626588D01*
X158090304Y-80626587D01*
X157911128Y-80572234D01*
X157911125Y-80572233D01*
X157724804Y-80553883D01*
X157724796Y-80553883D01*
X157538474Y-80572233D01*
X157538471Y-80572234D01*
X157359295Y-80626587D01*
X157359293Y-80626588D01*
X157194182Y-80714841D01*
X157194176Y-80714845D01*
X157049447Y-80833620D01*
X157049438Y-80833629D01*
X156930663Y-80978358D01*
X156930659Y-80978364D01*
X156842406Y-81143475D01*
X156842405Y-81143477D01*
X156788052Y-81322653D01*
X156788051Y-81322656D01*
X156769701Y-81508977D01*
X156023299Y-81508977D01*
X156023299Y-81439115D01*
X156023299Y-81439110D01*
X156016891Y-81379499D01*
X156011680Y-81365527D01*
X155966596Y-81244650D01*
X155963204Y-81238438D01*
X155965947Y-81236939D01*
X155950509Y-81191561D01*
X155950500Y-81190198D01*
X155950500Y-81184109D01*
X155950500Y-81184108D01*
X155916392Y-81056814D01*
X155916390Y-81056811D01*
X155916390Y-81056809D01*
X155850503Y-80942690D01*
X155850501Y-80942688D01*
X155850500Y-80942686D01*
X155834009Y-80926195D01*
X155806234Y-80871681D01*
X155815805Y-80811249D01*
X155859070Y-80767984D01*
X155878387Y-80760568D01*
X155902186Y-80754192D01*
X155902188Y-80754190D01*
X155902190Y-80754190D01*
X156016309Y-80688303D01*
X156016309Y-80688302D01*
X156016314Y-80688300D01*
X156318712Y-80385901D01*
X156318714Y-80385900D01*
X156411900Y-80292714D01*
X156430441Y-80260601D01*
X156441725Y-80241056D01*
X156477792Y-80178586D01*
X156482771Y-80160003D01*
X156494458Y-80116391D01*
X156506408Y-80071789D01*
X156511900Y-80051293D01*
X156511900Y-79919508D01*
X156511900Y-78968977D01*
X156769701Y-78968977D01*
X156769701Y-78968986D01*
X156788051Y-79155307D01*
X156788052Y-79155310D01*
X156788053Y-79155313D01*
X156839428Y-79324674D01*
X156842405Y-79334486D01*
X156842406Y-79334488D01*
X156930659Y-79499599D01*
X156930662Y-79499604D01*
X156930664Y-79499607D01*
X156959978Y-79535326D01*
X157049438Y-79644334D01*
X157049447Y-79644343D01*
X157107598Y-79692066D01*
X157194175Y-79763118D01*
X157194180Y-79763120D01*
X157194182Y-79763122D01*
X157350734Y-79846800D01*
X157359299Y-79851378D01*
X157538469Y-79905729D01*
X157538471Y-79905729D01*
X157538474Y-79905730D01*
X157724796Y-79924081D01*
X157724800Y-79924081D01*
X157724804Y-79924081D01*
X157911125Y-79905730D01*
X157911126Y-79905729D01*
X157911131Y-79905729D01*
X158090301Y-79851378D01*
X158255425Y-79763118D01*
X158400157Y-79644339D01*
X158518936Y-79499607D01*
X158607196Y-79334483D01*
X158661547Y-79155313D01*
X158679893Y-78969036D01*
X158679922Y-78968971D01*
X158679890Y-78968887D01*
X158661548Y-78782655D01*
X158661547Y-78782653D01*
X158661547Y-78782651D01*
X158607196Y-78603481D01*
X158606585Y-78602338D01*
X158518940Y-78438364D01*
X158518938Y-78438362D01*
X158518936Y-78438357D01*
X158413550Y-78309944D01*
X158400161Y-78293629D01*
X158400152Y-78293620D01*
X158286906Y-78200682D01*
X158255425Y-78174846D01*
X158255422Y-78174844D01*
X158255417Y-78174841D01*
X158090306Y-78086588D01*
X158090304Y-78086587D01*
X157911128Y-78032234D01*
X157911125Y-78032233D01*
X157724804Y-78013883D01*
X157724796Y-78013883D01*
X157538474Y-78032233D01*
X157538471Y-78032234D01*
X157359295Y-78086587D01*
X157359293Y-78086588D01*
X157194182Y-78174841D01*
X157194176Y-78174845D01*
X157049447Y-78293620D01*
X157049438Y-78293629D01*
X156930663Y-78438358D01*
X156930659Y-78438364D01*
X156842406Y-78603475D01*
X156842405Y-78603477D01*
X156788052Y-78782653D01*
X156788051Y-78782656D01*
X156769701Y-78968977D01*
X156511900Y-78968977D01*
X156511900Y-77698108D01*
X156511900Y-76428977D01*
X156769701Y-76428977D01*
X156769701Y-76428986D01*
X156788051Y-76615307D01*
X156788052Y-76615310D01*
X156842405Y-76794486D01*
X156842406Y-76794488D01*
X156930659Y-76959599D01*
X156930662Y-76959604D01*
X156930664Y-76959607D01*
X156968419Y-77005611D01*
X157049438Y-77104334D01*
X157049447Y-77104343D01*
X157107754Y-77152194D01*
X157194175Y-77223118D01*
X157194180Y-77223120D01*
X157194182Y-77223122D01*
X157359293Y-77311375D01*
X157359299Y-77311378D01*
X157538469Y-77365729D01*
X157538471Y-77365729D01*
X157538474Y-77365730D01*
X157724796Y-77384081D01*
X157724800Y-77384081D01*
X157724804Y-77384081D01*
X157911125Y-77365730D01*
X157911126Y-77365729D01*
X157911131Y-77365729D01*
X158090301Y-77311378D01*
X158255425Y-77223118D01*
X158400157Y-77104339D01*
X158518936Y-76959607D01*
X158607196Y-76794483D01*
X158661547Y-76615313D01*
X158666631Y-76563700D01*
X158671623Y-76513005D01*
X158679399Y-76434050D01*
X158681471Y-76429314D01*
X158679394Y-76423852D01*
X158661548Y-76242656D01*
X158661547Y-76242653D01*
X158661547Y-76242651D01*
X158607196Y-76063481D01*
X158594727Y-76040153D01*
X158518940Y-75898364D01*
X158518938Y-75898362D01*
X158518936Y-75898357D01*
X158455555Y-75821127D01*
X158400161Y-75753629D01*
X158400152Y-75753620D01*
X158278145Y-75653492D01*
X158255425Y-75634846D01*
X158255422Y-75634844D01*
X158255417Y-75634841D01*
X158090306Y-75546588D01*
X158090304Y-75546587D01*
X158077444Y-75542686D01*
X157964835Y-75508526D01*
X157911128Y-75492234D01*
X157911125Y-75492233D01*
X157724804Y-75473883D01*
X157724796Y-75473883D01*
X157538474Y-75492233D01*
X157538471Y-75492234D01*
X157359295Y-75546587D01*
X157359293Y-75546588D01*
X157194182Y-75634841D01*
X157194176Y-75634845D01*
X157049447Y-75753620D01*
X157049438Y-75753629D01*
X156930663Y-75898358D01*
X156930659Y-75898364D01*
X156842406Y-76063475D01*
X156842405Y-76063477D01*
X156788052Y-76242653D01*
X156788051Y-76242656D01*
X156769701Y-76428977D01*
X156511900Y-76428977D01*
X156511900Y-76224908D01*
X156511900Y-74566235D01*
X156530807Y-74508044D01*
X156580307Y-74472080D01*
X156641493Y-74472080D01*
X156690993Y-74508044D01*
X156699524Y-74522112D01*
X156700168Y-74523406D01*
X156700169Y-74523408D01*
X156715938Y-74544288D01*
X157324801Y-73935425D01*
X157324801Y-73941643D01*
X157352060Y-74043376D01*
X157404721Y-74134587D01*
X157479195Y-74209061D01*
X157570406Y-74261722D01*
X157672139Y-74288981D01*
X157678353Y-74288981D01*
X157071472Y-74895862D01*
X157187613Y-74967775D01*
X157187619Y-74967778D01*
X157395000Y-75048118D01*
X157613604Y-75088982D01*
X157835996Y-75088982D01*
X158054599Y-75048118D01*
X158261980Y-74967778D01*
X158261981Y-74967778D01*
X158378126Y-74895862D01*
X157771245Y-74288981D01*
X157777461Y-74288981D01*
X157879194Y-74261722D01*
X157970405Y-74209061D01*
X158044879Y-74134587D01*
X158097540Y-74043376D01*
X158124799Y-73941643D01*
X158124799Y-73935427D01*
X158733661Y-74544289D01*
X158770716Y-74541718D01*
X158830076Y-74556550D01*
X158869381Y-74603441D01*
X158876571Y-74640461D01*
X158876917Y-76414130D01*
X158872541Y-76427605D01*
X158876922Y-76443736D01*
X158877413Y-78959164D01*
X158874522Y-78968066D01*
X158877416Y-78978722D01*
X158880580Y-95218063D01*
X158880203Y-95226708D01*
X158865711Y-95392395D01*
X158862715Y-95409391D01*
X158820785Y-95565883D01*
X158814883Y-95582099D01*
X158746418Y-95728928D01*
X158737790Y-95743873D01*
X158644867Y-95876584D01*
X158633774Y-95889804D01*
X158519221Y-96004360D01*
X158506002Y-96015453D01*
X158373289Y-96108381D01*
X158358344Y-96117009D01*
X158211521Y-96185475D01*
X158195304Y-96191378D01*
X158038810Y-96233311D01*
X158021816Y-96236307D01*
X157856463Y-96250774D01*
X157847834Y-96251151D01*
X142456439Y-96251151D01*
X142430818Y-96247778D01*
X142423694Y-96245869D01*
X142423692Y-96245869D01*
X142362119Y-96245869D01*
X142353491Y-96245492D01*
X142248506Y-96236307D01*
X142188705Y-96231075D01*
X142171711Y-96228079D01*
X142016113Y-96186386D01*
X141999896Y-96180483D01*
X141853907Y-96112406D01*
X141838965Y-96103780D01*
X141707008Y-96011380D01*
X141693796Y-96000293D01*
X141579890Y-95886384D01*
X141568802Y-95873169D01*
X141476410Y-95741214D01*
X141467782Y-95726270D01*
X141399708Y-95580281D01*
X141393806Y-95564064D01*
X141383473Y-95525498D01*
X141352117Y-95408467D01*
X141349122Y-95391475D01*
X141334677Y-95226327D01*
X141334300Y-95217698D01*
X141334301Y-95177621D01*
X141334302Y-95156487D01*
X141334300Y-95156482D01*
X141334301Y-95150435D01*
X141334300Y-95150401D01*
X141334300Y-94599999D01*
X143544750Y-94599999D01*
X143544750Y-94600000D01*
X143563669Y-94743708D01*
X143563670Y-94743709D01*
X143606636Y-94847441D01*
X143619139Y-94877625D01*
X143707379Y-94992621D01*
X143822375Y-95080861D01*
X143956291Y-95136330D01*
X144100000Y-95155250D01*
X144243709Y-95136330D01*
X144377625Y-95080861D01*
X144492621Y-94992621D01*
X144580861Y-94877625D01*
X144636330Y-94743709D01*
X144655250Y-94600000D01*
X144636330Y-94456291D01*
X144580861Y-94322375D01*
X144492621Y-94207379D01*
X144377625Y-94119139D01*
X144377621Y-94119137D01*
X144303378Y-94088385D01*
X145399500Y-94088385D01*
X145399500Y-94511614D01*
X145426597Y-94682702D01*
X145426598Y-94682706D01*
X145480123Y-94847438D01*
X145480125Y-94847441D01*
X145554097Y-94992622D01*
X145558768Y-95001788D01*
X145660586Y-95141928D01*
X145783072Y-95264414D01*
X145923212Y-95366232D01*
X146077555Y-95444873D01*
X146077557Y-95444873D01*
X146077558Y-95444874D01*
X146077561Y-95444876D01*
X146242293Y-95498401D01*
X146242297Y-95498402D01*
X146413386Y-95525500D01*
X146413389Y-95525500D01*
X146586614Y-95525500D01*
X146757702Y-95498402D01*
X146757706Y-95498401D01*
X146922438Y-95444876D01*
X146922440Y-95444874D01*
X146922445Y-95444873D01*
X147076788Y-95366232D01*
X147216928Y-95264414D01*
X147339414Y-95141928D01*
X147441232Y-95001788D01*
X147519873Y-94847445D01*
X147519874Y-94847440D01*
X147519876Y-94847438D01*
X147573401Y-94682706D01*
X147573402Y-94682702D01*
X147600500Y-94511614D01*
X147600500Y-94088385D01*
X147899500Y-94088385D01*
X147899500Y-94511614D01*
X147926597Y-94682702D01*
X147926598Y-94682706D01*
X147980123Y-94847438D01*
X147980125Y-94847441D01*
X148054097Y-94992622D01*
X148058768Y-95001788D01*
X148160586Y-95141928D01*
X148283072Y-95264414D01*
X148423212Y-95366232D01*
X148577555Y-95444873D01*
X148577557Y-95444873D01*
X148577558Y-95444874D01*
X148577561Y-95444876D01*
X148742293Y-95498401D01*
X148742297Y-95498402D01*
X148913386Y-95525500D01*
X148913389Y-95525500D01*
X149086614Y-95525500D01*
X149257702Y-95498402D01*
X149257706Y-95498401D01*
X149422438Y-95444876D01*
X149422440Y-95444874D01*
X149422445Y-95444873D01*
X149576788Y-95366232D01*
X149716928Y-95264414D01*
X149839414Y-95141928D01*
X149941232Y-95001788D01*
X150019873Y-94847445D01*
X150019874Y-94847440D01*
X150019876Y-94847438D01*
X150073401Y-94682706D01*
X150073402Y-94682702D01*
X150100500Y-94511614D01*
X150100500Y-94088385D01*
X150399500Y-94088385D01*
X150399500Y-94511614D01*
X150426597Y-94682702D01*
X150426598Y-94682706D01*
X150480123Y-94847438D01*
X150480125Y-94847441D01*
X150554097Y-94992622D01*
X150558768Y-95001788D01*
X150660586Y-95141928D01*
X150783072Y-95264414D01*
X150923212Y-95366232D01*
X151077555Y-95444873D01*
X151077557Y-95444873D01*
X151077558Y-95444874D01*
X151077561Y-95444876D01*
X151242293Y-95498401D01*
X151242297Y-95498402D01*
X151413386Y-95525500D01*
X151413389Y-95525500D01*
X151586614Y-95525500D01*
X151757702Y-95498402D01*
X151757706Y-95498401D01*
X151922438Y-95444876D01*
X151922440Y-95444874D01*
X151922445Y-95444873D01*
X152076788Y-95366232D01*
X152216928Y-95264414D01*
X152339414Y-95141928D01*
X152441232Y-95001788D01*
X152519873Y-94847445D01*
X152519874Y-94847440D01*
X152519876Y-94847438D01*
X152573401Y-94682706D01*
X152573402Y-94682702D01*
X152600500Y-94511614D01*
X152600500Y-94088385D01*
X152573402Y-93917297D01*
X152573401Y-93917293D01*
X152519876Y-93752561D01*
X152519874Y-93752558D01*
X152519873Y-93752557D01*
X152519873Y-93752555D01*
X152441232Y-93598212D01*
X152389587Y-93527129D01*
X152899500Y-93527129D01*
X152899500Y-95072866D01*
X152899501Y-95072870D01*
X152905908Y-95132480D01*
X152905909Y-95132485D01*
X152956202Y-95267329D01*
X153041193Y-95380862D01*
X153042454Y-95382546D01*
X153042457Y-95382548D01*
X153042458Y-95382549D01*
X153157670Y-95468797D01*
X153292511Y-95519089D01*
X153292512Y-95519089D01*
X153292517Y-95519091D01*
X153352127Y-95525500D01*
X154647872Y-95525499D01*
X154707483Y-95519091D01*
X154774907Y-95493943D01*
X154842329Y-95468797D01*
X154842329Y-95468796D01*
X154842331Y-95468796D01*
X154957546Y-95382546D01*
X155043796Y-95267331D01*
X155058948Y-95226708D01*
X155085141Y-95156479D01*
X155094091Y-95132483D01*
X155100500Y-95072873D01*
X155100500Y-94899999D01*
X156244750Y-94899999D01*
X156244750Y-94900000D01*
X156263669Y-95043708D01*
X156263670Y-95043709D01*
X156307876Y-95150435D01*
X156319139Y-95177625D01*
X156407379Y-95292621D01*
X156522375Y-95380861D01*
X156656291Y-95436330D01*
X156800000Y-95455250D01*
X156943709Y-95436330D01*
X157077625Y-95380861D01*
X157192621Y-95292621D01*
X157280861Y-95177625D01*
X157336330Y-95043709D01*
X157355250Y-94900000D01*
X157336330Y-94756291D01*
X157280861Y-94622375D01*
X157192621Y-94507379D01*
X157077625Y-94419139D01*
X157077621Y-94419137D01*
X156943709Y-94363670D01*
X156943708Y-94363669D01*
X156800000Y-94344750D01*
X156656291Y-94363669D01*
X156656290Y-94363670D01*
X156522378Y-94419137D01*
X156522374Y-94419139D01*
X156407381Y-94507377D01*
X156407377Y-94507381D01*
X156319139Y-94622374D01*
X156319137Y-94622378D01*
X156263670Y-94756290D01*
X156263669Y-94756291D01*
X156244750Y-94899999D01*
X155100500Y-94899999D01*
X155100499Y-93527128D01*
X155094091Y-93467517D01*
X155090568Y-93458072D01*
X155043797Y-93332670D01*
X154957549Y-93217458D01*
X154957548Y-93217457D01*
X154957546Y-93217454D01*
X154957541Y-93217450D01*
X154842329Y-93131202D01*
X154707488Y-93080910D01*
X154707483Y-93080909D01*
X154707481Y-93080908D01*
X154707477Y-93080908D01*
X154676249Y-93077550D01*
X154647873Y-93074500D01*
X154647870Y-93074500D01*
X153352133Y-93074500D01*
X153352129Y-93074500D01*
X153352128Y-93074501D01*
X153344949Y-93075272D01*
X153292519Y-93080908D01*
X153292514Y-93080909D01*
X153157670Y-93131202D01*
X153042458Y-93217450D01*
X153042450Y-93217458D01*
X152956202Y-93332670D01*
X152905910Y-93467511D01*
X152905908Y-93467522D01*
X152899500Y-93527129D01*
X152389587Y-93527129D01*
X152339414Y-93458072D01*
X152216928Y-93335586D01*
X152076788Y-93233768D01*
X152076787Y-93233767D01*
X152076785Y-93233766D01*
X151922441Y-93155125D01*
X151922438Y-93155123D01*
X151757706Y-93101598D01*
X151757702Y-93101597D01*
X151586614Y-93074500D01*
X151586611Y-93074500D01*
X151413389Y-93074500D01*
X151413386Y-93074500D01*
X151242297Y-93101597D01*
X151242293Y-93101598D01*
X151077561Y-93155123D01*
X151077558Y-93155125D01*
X150923214Y-93233766D01*
X150783073Y-93335585D01*
X150660585Y-93458073D01*
X150558766Y-93598214D01*
X150480125Y-93752558D01*
X150480123Y-93752561D01*
X150426598Y-93917293D01*
X150426597Y-93917297D01*
X150399500Y-94088385D01*
X150100500Y-94088385D01*
X150073402Y-93917297D01*
X150073401Y-93917293D01*
X150019876Y-93752561D01*
X150019874Y-93752558D01*
X150019873Y-93752557D01*
X150019873Y-93752555D01*
X149941232Y-93598212D01*
X149839414Y-93458072D01*
X149716928Y-93335586D01*
X149576788Y-93233768D01*
X149576787Y-93233767D01*
X149576785Y-93233766D01*
X149422441Y-93155125D01*
X149422438Y-93155123D01*
X149257706Y-93101598D01*
X149257702Y-93101597D01*
X149086614Y-93074500D01*
X149086611Y-93074500D01*
X148913389Y-93074500D01*
X148913386Y-93074500D01*
X148742297Y-93101597D01*
X148742293Y-93101598D01*
X148577561Y-93155123D01*
X148577558Y-93155125D01*
X148423214Y-93233766D01*
X148283073Y-93335585D01*
X148160585Y-93458073D01*
X148058766Y-93598214D01*
X147980125Y-93752558D01*
X147980123Y-93752561D01*
X147926598Y-93917293D01*
X147926597Y-93917297D01*
X147899500Y-94088385D01*
X147600500Y-94088385D01*
X147573402Y-93917297D01*
X147573401Y-93917293D01*
X147519876Y-93752561D01*
X147519874Y-93752558D01*
X147519873Y-93752557D01*
X147519873Y-93752555D01*
X147441232Y-93598212D01*
X147339414Y-93458072D01*
X147216928Y-93335586D01*
X147076788Y-93233768D01*
X147076787Y-93233767D01*
X147076785Y-93233766D01*
X146922441Y-93155125D01*
X146922438Y-93155123D01*
X146757706Y-93101598D01*
X146757702Y-93101597D01*
X146586614Y-93074500D01*
X146586611Y-93074500D01*
X146413389Y-93074500D01*
X146413386Y-93074500D01*
X146242297Y-93101597D01*
X146242293Y-93101598D01*
X146077561Y-93155123D01*
X146077558Y-93155125D01*
X145923214Y-93233766D01*
X145783073Y-93335585D01*
X145660585Y-93458073D01*
X145558766Y-93598214D01*
X145480125Y-93752558D01*
X145480123Y-93752561D01*
X145426598Y-93917293D01*
X145426597Y-93917297D01*
X145399500Y-94088385D01*
X144303378Y-94088385D01*
X144243709Y-94063670D01*
X144243708Y-94063669D01*
X144100000Y-94044750D01*
X143956291Y-94063669D01*
X143956290Y-94063670D01*
X143822378Y-94119137D01*
X143822374Y-94119139D01*
X143707381Y-94207377D01*
X143707377Y-94207381D01*
X143619139Y-94322374D01*
X143619137Y-94322378D01*
X143563670Y-94456290D01*
X143563669Y-94456291D01*
X143544750Y-94599999D01*
X141334300Y-94599999D01*
X141334300Y-89899999D01*
X145544750Y-89899999D01*
X145544750Y-89900000D01*
X145563669Y-90043708D01*
X145563670Y-90043709D01*
X145599999Y-90131418D01*
X145619139Y-90177625D01*
X145707379Y-90292621D01*
X145822375Y-90380861D01*
X145956291Y-90436330D01*
X146100000Y-90455250D01*
X146243709Y-90436330D01*
X146377625Y-90380861D01*
X146492621Y-90292621D01*
X146521458Y-90255039D01*
X146571882Y-90220384D01*
X146633047Y-90221985D01*
X146678541Y-90255039D01*
X146707379Y-90292621D01*
X146822375Y-90380861D01*
X146956291Y-90436330D01*
X147100000Y-90455250D01*
X147243709Y-90436330D01*
X147377625Y-90380861D01*
X147492621Y-90292621D01*
X147580861Y-90177625D01*
X147636330Y-90043709D01*
X147655250Y-89900000D01*
X147636330Y-89756291D01*
X147580861Y-89622375D01*
X147492621Y-89507379D01*
X147377625Y-89419139D01*
X147377621Y-89419137D01*
X147243709Y-89363670D01*
X147243708Y-89363669D01*
X147100000Y-89344750D01*
X146956291Y-89363669D01*
X146956290Y-89363670D01*
X146822378Y-89419137D01*
X146822374Y-89419139D01*
X146707381Y-89507377D01*
X146707373Y-89507385D01*
X146678541Y-89544960D01*
X146628117Y-89579615D01*
X146566952Y-89578013D01*
X146521459Y-89544960D01*
X146492626Y-89507385D01*
X146492624Y-89507383D01*
X146492621Y-89507379D01*
X146377625Y-89419139D01*
X146377621Y-89419137D01*
X146243709Y-89363670D01*
X146243708Y-89363669D01*
X146100000Y-89344750D01*
X145956291Y-89363669D01*
X145956290Y-89363670D01*
X145822378Y-89419137D01*
X145822374Y-89419139D01*
X145707381Y-89507377D01*
X145707377Y-89507381D01*
X145619139Y-89622374D01*
X145619137Y-89622378D01*
X145563670Y-89756290D01*
X145563669Y-89756291D01*
X145544750Y-89899999D01*
X141334300Y-89899999D01*
X141334300Y-88874981D01*
X143199550Y-88874981D01*
X143199550Y-88874982D01*
X143218469Y-89018690D01*
X143218470Y-89018691D01*
X143263900Y-89128372D01*
X143273939Y-89152607D01*
X143362179Y-89267603D01*
X143477175Y-89355843D01*
X143611091Y-89411312D01*
X143754800Y-89430232D01*
X143898509Y-89411312D01*
X144032425Y-89355843D01*
X144147421Y-89267603D01*
X144235661Y-89152607D01*
X144268321Y-89073758D01*
X148875788Y-89073758D01*
X148879980Y-89113472D01*
X148881552Y-89128368D01*
X148892746Y-89180167D01*
X148900039Y-89206833D01*
X148934627Y-89267603D01*
X148949352Y-89293474D01*
X148995092Y-89346284D01*
X148995095Y-89346287D01*
X148995096Y-89346288D01*
X149027864Y-89377920D01*
X149027866Y-89377921D01*
X149091663Y-89411311D01*
X149116189Y-89424147D01*
X149136642Y-89430157D01*
X149183214Y-89443844D01*
X149183220Y-89443844D01*
X149183224Y-89443846D01*
X149255205Y-89454211D01*
X152692771Y-89454954D01*
X152750956Y-89473874D01*
X152786909Y-89523382D01*
X152786896Y-89584567D01*
X152771293Y-89614218D01*
X152761614Y-89626832D01*
X152761610Y-89626839D01*
X152706143Y-89760751D01*
X152706142Y-89760752D01*
X152687223Y-89904460D01*
X152687223Y-89904461D01*
X152706142Y-90048169D01*
X152706143Y-90048170D01*
X152759762Y-90177621D01*
X152761612Y-90182086D01*
X152849852Y-90297082D01*
X152964848Y-90385322D01*
X153098764Y-90440791D01*
X153242473Y-90459711D01*
X153386182Y-90440791D01*
X153520098Y-90385322D01*
X153635094Y-90297082D01*
X153694409Y-90219781D01*
X153744829Y-90185129D01*
X153805993Y-90186730D01*
X153851488Y-90219783D01*
X153907379Y-90292621D01*
X154022375Y-90380861D01*
X154156291Y-90436330D01*
X154300000Y-90455250D01*
X154443709Y-90436330D01*
X154577625Y-90380861D01*
X154692621Y-90292621D01*
X154766959Y-90195742D01*
X154817383Y-90161088D01*
X154878547Y-90162690D01*
X154927089Y-90199937D01*
X154944500Y-90256011D01*
X154944500Y-90675996D01*
X154944499Y-90675996D01*
X154950340Y-90730322D01*
X154961538Y-90781796D01*
X154961550Y-90781846D01*
X154968780Y-90808196D01*
X154968782Y-90808202D01*
X155018107Y-90894821D01*
X155018117Y-90894834D01*
X155063852Y-90947616D01*
X155063861Y-90947626D01*
X155096641Y-90979257D01*
X155096644Y-90979259D01*
X155184974Y-91025464D01*
X155184976Y-91025465D01*
X155252015Y-91045150D01*
X155292006Y-91050900D01*
X155323996Y-91055500D01*
X155324000Y-91055500D01*
X157776225Y-91055500D01*
X157776227Y-91055500D01*
X157830307Y-91049711D01*
X157881611Y-91038600D01*
X157907773Y-91031462D01*
X157994493Y-90982290D01*
X158047381Y-90936632D01*
X158079066Y-90903916D01*
X158125436Y-90815665D01*
X158145244Y-90748662D01*
X158155727Y-90676697D01*
X158159943Y-88380879D01*
X158154195Y-88326518D01*
X158143067Y-88274948D01*
X158135861Y-88248517D01*
X158133663Y-88244643D01*
X158086664Y-88161819D01*
X158086663Y-88161818D01*
X158086662Y-88161817D01*
X158086660Y-88161813D01*
X158040984Y-88108940D01*
X158008257Y-88077266D01*
X158008256Y-88077265D01*
X158008253Y-88077263D01*
X157919997Y-88030928D01*
X157919994Y-88030926D01*
X157919991Y-88030925D01*
X157852983Y-88011140D01*
X157852978Y-88011139D01*
X157852974Y-88011138D01*
X157781011Y-88000681D01*
X154834558Y-87996257D01*
X154800112Y-87990016D01*
X154794455Y-87987906D01*
X154760390Y-87975200D01*
X154712477Y-87937152D01*
X154696078Y-87878205D01*
X154717459Y-87820877D01*
X154763847Y-87788468D01*
X154923524Y-87735556D01*
X155072740Y-87643519D01*
X155196719Y-87519540D01*
X155288756Y-87370324D01*
X155343906Y-87203893D01*
X155354400Y-87101187D01*
X155354400Y-87051201D01*
X155354399Y-87051200D01*
X152196400Y-87051200D01*
X152138209Y-87032293D01*
X152102245Y-86982793D01*
X152097400Y-86952200D01*
X152097400Y-86801201D01*
X152097399Y-86801200D01*
X151946400Y-86801200D01*
X151888209Y-86782293D01*
X151852245Y-86732793D01*
X151847400Y-86702200D01*
X151847400Y-86588977D01*
X156769701Y-86588977D01*
X156769701Y-86588986D01*
X156788051Y-86775307D01*
X156788052Y-86775310D01*
X156788053Y-86775313D01*
X156841711Y-86952200D01*
X156842405Y-86954486D01*
X156842406Y-86954488D01*
X156930659Y-87119599D01*
X156930662Y-87119604D01*
X156930664Y-87119607D01*
X156980195Y-87179960D01*
X157049438Y-87264334D01*
X157049447Y-87264343D01*
X157116945Y-87319737D01*
X157194175Y-87383118D01*
X157359299Y-87471378D01*
X157538469Y-87525729D01*
X157538471Y-87525729D01*
X157538474Y-87525730D01*
X157724796Y-87544081D01*
X157724800Y-87544081D01*
X157724804Y-87544081D01*
X157911125Y-87525730D01*
X157911126Y-87525729D01*
X157911131Y-87525729D01*
X158090301Y-87471378D01*
X158255425Y-87383118D01*
X158400157Y-87264339D01*
X158518936Y-87119607D01*
X158607196Y-86954483D01*
X158661547Y-86775313D01*
X158679624Y-86591782D01*
X158679899Y-86588986D01*
X158679899Y-86588977D01*
X158661548Y-86402656D01*
X158661547Y-86402653D01*
X158661547Y-86402651D01*
X158607196Y-86223481D01*
X158521204Y-86062600D01*
X158518940Y-86058364D01*
X158518938Y-86058362D01*
X158518936Y-86058357D01*
X158446946Y-85970637D01*
X158400161Y-85913629D01*
X158400152Y-85913620D01*
X158275953Y-85811693D01*
X158255425Y-85794846D01*
X158255422Y-85794844D01*
X158255417Y-85794841D01*
X158090306Y-85706588D01*
X158090304Y-85706587D01*
X157911128Y-85652234D01*
X157911125Y-85652233D01*
X157724804Y-85633883D01*
X157724796Y-85633883D01*
X157538474Y-85652233D01*
X157538471Y-85652234D01*
X157359295Y-85706587D01*
X157359293Y-85706588D01*
X157194182Y-85794841D01*
X157194176Y-85794845D01*
X157049447Y-85913620D01*
X157049438Y-85913629D01*
X156930663Y-86058358D01*
X156930659Y-86058364D01*
X156842406Y-86223475D01*
X156842405Y-86223477D01*
X156788052Y-86402653D01*
X156788051Y-86402656D01*
X156769701Y-86588977D01*
X151847400Y-86588977D01*
X151847400Y-85801201D01*
X152347400Y-85801201D01*
X152347400Y-86551199D01*
X152347401Y-86551200D01*
X155354398Y-86551200D01*
X155354399Y-86551199D01*
X155354399Y-86501213D01*
X155343357Y-86393127D01*
X155344545Y-86393005D01*
X155350261Y-86337865D01*
X155377230Y-86303606D01*
X155376905Y-86303281D01*
X155379642Y-86300543D01*
X155380497Y-86299457D01*
X155381490Y-86298696D01*
X155469730Y-86183700D01*
X155525199Y-86049784D01*
X155542731Y-85916616D01*
X155569072Y-85861392D01*
X155622843Y-85832197D01*
X155630823Y-85831052D01*
X155675487Y-85826489D01*
X155675499Y-85826486D01*
X155841924Y-85771338D01*
X155991140Y-85679301D01*
X156115119Y-85555322D01*
X156207156Y-85406106D01*
X156262306Y-85239675D01*
X156272800Y-85136969D01*
X156272800Y-85011983D01*
X156272799Y-85011982D01*
X152572802Y-85011982D01*
X152572801Y-85011983D01*
X152572801Y-85136968D01*
X152583292Y-85239669D01*
X152583295Y-85239681D01*
X152638443Y-85406106D01*
X152730480Y-85555322D01*
X152821204Y-85646046D01*
X152848981Y-85700563D01*
X152839410Y-85760995D01*
X152796145Y-85804260D01*
X152735713Y-85813831D01*
X152730435Y-85812560D01*
X152730379Y-85812825D01*
X152725093Y-85811693D01*
X152622387Y-85801200D01*
X152347401Y-85801200D01*
X152347400Y-85801201D01*
X151847400Y-85801201D01*
X151847399Y-85801200D01*
X151572413Y-85801200D01*
X151469712Y-85811692D01*
X151469700Y-85811695D01*
X151303275Y-85866843D01*
X151154058Y-85958881D01*
X151154054Y-85958883D01*
X151130638Y-85982300D01*
X151076121Y-86010076D01*
X151041332Y-86005968D01*
X151040702Y-86009136D01*
X150958084Y-85992701D01*
X150958074Y-85992700D01*
X149108726Y-85992700D01*
X149108725Y-85992700D01*
X149108715Y-85992701D01*
X149035663Y-86007233D01*
X149035657Y-86007235D01*
X148952800Y-86062597D01*
X148952797Y-86062600D01*
X148897435Y-86145457D01*
X148897433Y-86145463D01*
X148882901Y-86218515D01*
X148882900Y-86218527D01*
X148882900Y-88247765D01*
X148881856Y-88262103D01*
X148877780Y-88289949D01*
X148877780Y-88289950D01*
X148875788Y-89073758D01*
X144268321Y-89073758D01*
X144291130Y-89018691D01*
X144310050Y-88874982D01*
X144291130Y-88731273D01*
X144235661Y-88597357D01*
X144147421Y-88482361D01*
X144032425Y-88394121D01*
X144032421Y-88394119D01*
X143898509Y-88338652D01*
X143898508Y-88338651D01*
X143754800Y-88319732D01*
X143611091Y-88338651D01*
X143611090Y-88338652D01*
X143477178Y-88394119D01*
X143477174Y-88394121D01*
X143362181Y-88482359D01*
X143362177Y-88482363D01*
X143273939Y-88597356D01*
X143273937Y-88597360D01*
X143218470Y-88731272D01*
X143218469Y-88731273D01*
X143199550Y-88874981D01*
X141334300Y-88874981D01*
X141334300Y-86620234D01*
X141343544Y-86591782D01*
X141342374Y-86587471D01*
X141523058Y-86587471D01*
X141531823Y-86610531D01*
X141548051Y-86775307D01*
X141548052Y-86775310D01*
X141548053Y-86775313D01*
X141601711Y-86952200D01*
X141602405Y-86954486D01*
X141602406Y-86954488D01*
X141690659Y-87119599D01*
X141690662Y-87119604D01*
X141690664Y-87119607D01*
X141740195Y-87179960D01*
X141809438Y-87264334D01*
X141809447Y-87264343D01*
X141876945Y-87319737D01*
X141954175Y-87383118D01*
X142119299Y-87471378D01*
X142298469Y-87525729D01*
X142298471Y-87525729D01*
X142298474Y-87525730D01*
X142484796Y-87544081D01*
X142484800Y-87544081D01*
X142484804Y-87544081D01*
X142671125Y-87525730D01*
X142671126Y-87525729D01*
X142671131Y-87525729D01*
X142850301Y-87471378D01*
X143015425Y-87383118D01*
X143160157Y-87264339D01*
X143278936Y-87119607D01*
X143367196Y-86954483D01*
X143421547Y-86775313D01*
X143439624Y-86591782D01*
X143439899Y-86588986D01*
X143439899Y-86588977D01*
X143421548Y-86402656D01*
X143421547Y-86402653D01*
X143421547Y-86402651D01*
X143367196Y-86223481D01*
X143281204Y-86062600D01*
X143278940Y-86058364D01*
X143278938Y-86058362D01*
X143278936Y-86058357D01*
X143206946Y-85970637D01*
X143160161Y-85913629D01*
X143160152Y-85913620D01*
X143035953Y-85811693D01*
X143015425Y-85794846D01*
X143015422Y-85794844D01*
X143015417Y-85794841D01*
X142850306Y-85706588D01*
X142850304Y-85706587D01*
X142671128Y-85652234D01*
X142671125Y-85652233D01*
X142484804Y-85633883D01*
X142484796Y-85633883D01*
X142298474Y-85652233D01*
X142298471Y-85652234D01*
X142119295Y-85706587D01*
X142119293Y-85706588D01*
X141954182Y-85794841D01*
X141954176Y-85794845D01*
X141809447Y-85913620D01*
X141809438Y-85913629D01*
X141690663Y-86058358D01*
X141690659Y-86058364D01*
X141602406Y-86223475D01*
X141602405Y-86223477D01*
X141548052Y-86402653D01*
X141548051Y-86402655D01*
X141531823Y-86567433D01*
X141523058Y-86587471D01*
X141342374Y-86587471D01*
X141334300Y-86557729D01*
X141334300Y-84080234D01*
X141343544Y-84051782D01*
X141342374Y-84047471D01*
X141523058Y-84047471D01*
X141531823Y-84070531D01*
X141548051Y-84235307D01*
X141548052Y-84235310D01*
X141556592Y-84263461D01*
X141593189Y-84384107D01*
X141602405Y-84414486D01*
X141602406Y-84414488D01*
X141690659Y-84579599D01*
X141690662Y-84579604D01*
X141690664Y-84579607D01*
X141706990Y-84599500D01*
X141809438Y-84724334D01*
X141809447Y-84724343D01*
X141849617Y-84757309D01*
X141954175Y-84843118D01*
X142119299Y-84931378D01*
X142298469Y-84985729D01*
X142298471Y-84985729D01*
X142298474Y-84985730D01*
X142484796Y-85004081D01*
X142484800Y-85004081D01*
X142484804Y-85004081D01*
X142671125Y-84985730D01*
X142671126Y-84985729D01*
X142671131Y-84985729D01*
X142850301Y-84931378D01*
X143015425Y-84843118D01*
X143160157Y-84724339D01*
X143278936Y-84579607D01*
X143367196Y-84414483D01*
X143421547Y-84235313D01*
X143424237Y-84208010D01*
X143439899Y-84048986D01*
X143439899Y-84048977D01*
X143421548Y-83862656D01*
X143421547Y-83862653D01*
X143421547Y-83862651D01*
X143367196Y-83683481D01*
X143363913Y-83677338D01*
X143278940Y-83518364D01*
X143278938Y-83518362D01*
X143278936Y-83518357D01*
X143215555Y-83441127D01*
X143160161Y-83373629D01*
X143160152Y-83373620D01*
X143070422Y-83299981D01*
X143015425Y-83254846D01*
X143015422Y-83254844D01*
X143015417Y-83254841D01*
X142850306Y-83166588D01*
X142850304Y-83166587D01*
X142671128Y-83112234D01*
X142671125Y-83112233D01*
X142484804Y-83093883D01*
X142484796Y-83093883D01*
X142298474Y-83112233D01*
X142298471Y-83112234D01*
X142119295Y-83166587D01*
X142119293Y-83166588D01*
X141954182Y-83254841D01*
X141954176Y-83254845D01*
X141809447Y-83373620D01*
X141809438Y-83373629D01*
X141690663Y-83518358D01*
X141690659Y-83518364D01*
X141602406Y-83683475D01*
X141602405Y-83683477D01*
X141548052Y-83862653D01*
X141548051Y-83862655D01*
X141531823Y-84027433D01*
X141523058Y-84047471D01*
X141342374Y-84047471D01*
X141334300Y-84017729D01*
X141334300Y-81540234D01*
X141343544Y-81511782D01*
X141342374Y-81507471D01*
X141523058Y-81507471D01*
X141531823Y-81530531D01*
X141548051Y-81695307D01*
X141548052Y-81695310D01*
X141602405Y-81874486D01*
X141602406Y-81874488D01*
X141690659Y-82039599D01*
X141690662Y-82039604D01*
X141690664Y-82039607D01*
X141694368Y-82044120D01*
X141809438Y-82184334D01*
X141809447Y-82184343D01*
X141840412Y-82209755D01*
X141954175Y-82303118D01*
X141954180Y-82303120D01*
X141954182Y-82303122D01*
X142119293Y-82391375D01*
X142119299Y-82391378D01*
X142298469Y-82445729D01*
X142298471Y-82445729D01*
X142298474Y-82445730D01*
X142484796Y-82464081D01*
X142484800Y-82464081D01*
X142484804Y-82464081D01*
X142671125Y-82445730D01*
X142671126Y-82445729D01*
X142671131Y-82445729D01*
X142850301Y-82391378D01*
X143015425Y-82303118D01*
X143160157Y-82184339D01*
X143278936Y-82039607D01*
X143367196Y-81874483D01*
X143421547Y-81695313D01*
X143421738Y-81693379D01*
X143439899Y-81508986D01*
X143439899Y-81508977D01*
X143421548Y-81322656D01*
X143421547Y-81322653D01*
X143421547Y-81322651D01*
X143367196Y-81143481D01*
X143310996Y-81038337D01*
X143278940Y-80978364D01*
X143278938Y-80978362D01*
X143278936Y-80978357D01*
X143191389Y-80871681D01*
X143160161Y-80833629D01*
X143160152Y-80833620D01*
X143063368Y-80754192D01*
X143015425Y-80714846D01*
X143015422Y-80714844D01*
X143015417Y-80714841D01*
X142850306Y-80626588D01*
X142850304Y-80626587D01*
X142671128Y-80572234D01*
X142671125Y-80572233D01*
X142484804Y-80553883D01*
X142484796Y-80553883D01*
X142298474Y-80572233D01*
X142298471Y-80572234D01*
X142119295Y-80626587D01*
X142119293Y-80626588D01*
X141954182Y-80714841D01*
X141954176Y-80714845D01*
X141809447Y-80833620D01*
X141809438Y-80833629D01*
X141690663Y-80978358D01*
X141690659Y-80978364D01*
X141602406Y-81143475D01*
X141602405Y-81143477D01*
X141548052Y-81322653D01*
X141548051Y-81322655D01*
X141531823Y-81487433D01*
X141523058Y-81507471D01*
X141342374Y-81507471D01*
X141334300Y-81477729D01*
X141334300Y-79000234D01*
X141343544Y-78971782D01*
X141342374Y-78967471D01*
X141523058Y-78967471D01*
X141531823Y-78990531D01*
X141548051Y-79155307D01*
X141548052Y-79155310D01*
X141548053Y-79155313D01*
X141599428Y-79324674D01*
X141602405Y-79334486D01*
X141602406Y-79334488D01*
X141690659Y-79499599D01*
X141690662Y-79499604D01*
X141690664Y-79499607D01*
X141719978Y-79535326D01*
X141809438Y-79644334D01*
X141809447Y-79644343D01*
X141867598Y-79692066D01*
X141954175Y-79763118D01*
X141954180Y-79763120D01*
X141954182Y-79763122D01*
X142110734Y-79846800D01*
X142119299Y-79851378D01*
X142298469Y-79905729D01*
X142298471Y-79905729D01*
X142298474Y-79905730D01*
X142484796Y-79924081D01*
X142484800Y-79924081D01*
X142484804Y-79924081D01*
X142671125Y-79905730D01*
X142671126Y-79905729D01*
X142671131Y-79905729D01*
X142850301Y-79851378D01*
X143015425Y-79763118D01*
X143160157Y-79644339D01*
X143278936Y-79499607D01*
X143367196Y-79334483D01*
X143368040Y-79331701D01*
X144007601Y-79331701D01*
X144007601Y-79606686D01*
X144018092Y-79709387D01*
X144018095Y-79709399D01*
X144073243Y-79875824D01*
X144165280Y-80025040D01*
X144289259Y-80149019D01*
X144438475Y-80241056D01*
X144604906Y-80296206D01*
X144707613Y-80306699D01*
X144757600Y-80306698D01*
X144757600Y-79331701D01*
X144757599Y-79331700D01*
X144007602Y-79331700D01*
X144007601Y-79331701D01*
X143368040Y-79331701D01*
X143421547Y-79155313D01*
X143434325Y-79025582D01*
X143439899Y-78968986D01*
X143439899Y-78968977D01*
X143421548Y-78782656D01*
X143421547Y-78782653D01*
X143421547Y-78782651D01*
X143367196Y-78603481D01*
X143366585Y-78602338D01*
X143342198Y-78556712D01*
X144007600Y-78556712D01*
X144007600Y-78831699D01*
X144007601Y-78831700D01*
X144757599Y-78831700D01*
X144757600Y-78831699D01*
X144757600Y-77299701D01*
X144757599Y-77299700D01*
X144007602Y-77299700D01*
X144007601Y-77299701D01*
X144007601Y-77574686D01*
X144018092Y-77677387D01*
X144018095Y-77677399D01*
X144073243Y-77843824D01*
X144165281Y-77993041D01*
X144165285Y-77993047D01*
X144167940Y-77995702D01*
X144195713Y-78050220D01*
X144186137Y-78110652D01*
X144167940Y-78135698D01*
X144165285Y-78138352D01*
X144165281Y-78138358D01*
X144073243Y-78287575D01*
X144018093Y-78454006D01*
X144007600Y-78556712D01*
X143342198Y-78556712D01*
X143278940Y-78438364D01*
X143278938Y-78438362D01*
X143278936Y-78438357D01*
X143173550Y-78309944D01*
X143160161Y-78293629D01*
X143160152Y-78293620D01*
X143046906Y-78200682D01*
X143015425Y-78174846D01*
X143015422Y-78174844D01*
X143015417Y-78174841D01*
X142850306Y-78086588D01*
X142850304Y-78086587D01*
X142671128Y-78032234D01*
X142671125Y-78032233D01*
X142484804Y-78013883D01*
X142484796Y-78013883D01*
X142298474Y-78032233D01*
X142298471Y-78032234D01*
X142119295Y-78086587D01*
X142119293Y-78086588D01*
X141954182Y-78174841D01*
X141954176Y-78174845D01*
X141809447Y-78293620D01*
X141809438Y-78293629D01*
X141690663Y-78438358D01*
X141690659Y-78438364D01*
X141602406Y-78603475D01*
X141602405Y-78603477D01*
X141548052Y-78782653D01*
X141548051Y-78782655D01*
X141531823Y-78947433D01*
X141523058Y-78967471D01*
X141342374Y-78967471D01*
X141334300Y-78937729D01*
X141334300Y-76460234D01*
X141343544Y-76431782D01*
X141342374Y-76427471D01*
X141523058Y-76427471D01*
X141531823Y-76450531D01*
X141548051Y-76615307D01*
X141548052Y-76615310D01*
X141602405Y-76794486D01*
X141602406Y-76794488D01*
X141690659Y-76959599D01*
X141690662Y-76959604D01*
X141690664Y-76959607D01*
X141728419Y-77005611D01*
X141809438Y-77104334D01*
X141809447Y-77104343D01*
X141867754Y-77152194D01*
X141954175Y-77223118D01*
X141954180Y-77223120D01*
X141954182Y-77223122D01*
X142119293Y-77311375D01*
X142119299Y-77311378D01*
X142298469Y-77365729D01*
X142298471Y-77365729D01*
X142298474Y-77365730D01*
X142484796Y-77384081D01*
X142484800Y-77384081D01*
X142484804Y-77384081D01*
X142671125Y-77365730D01*
X142671126Y-77365729D01*
X142671131Y-77365729D01*
X142850301Y-77311378D01*
X143015425Y-77223118D01*
X143160157Y-77104339D01*
X143278936Y-76959607D01*
X143367196Y-76794483D01*
X143421547Y-76615313D01*
X143426631Y-76563700D01*
X143430471Y-76524712D01*
X144007600Y-76524712D01*
X144007600Y-76799699D01*
X144007601Y-76799700D01*
X144757599Y-76799700D01*
X144757600Y-76799699D01*
X144757600Y-75267701D01*
X144757599Y-75267700D01*
X144007602Y-75267700D01*
X144007601Y-75267701D01*
X144007601Y-75542686D01*
X144018092Y-75645387D01*
X144018095Y-75645399D01*
X144073243Y-75811824D01*
X144165281Y-75961041D01*
X144165285Y-75961047D01*
X144167940Y-75963702D01*
X144195713Y-76018220D01*
X144186137Y-76078652D01*
X144167940Y-76103698D01*
X144165285Y-76106352D01*
X144165281Y-76106358D01*
X144073243Y-76255575D01*
X144018093Y-76422006D01*
X144007600Y-76524712D01*
X143430471Y-76524712D01*
X143439899Y-76428986D01*
X143439899Y-76428977D01*
X143421548Y-76242656D01*
X143421547Y-76242653D01*
X143421547Y-76242651D01*
X143367196Y-76063481D01*
X143354727Y-76040153D01*
X143278940Y-75898364D01*
X143278938Y-75898362D01*
X143278936Y-75898357D01*
X143215555Y-75821127D01*
X143160161Y-75753629D01*
X143160152Y-75753620D01*
X143038145Y-75653492D01*
X143015425Y-75634846D01*
X143015422Y-75634844D01*
X143015417Y-75634841D01*
X142850306Y-75546588D01*
X142850304Y-75546587D01*
X142837444Y-75542686D01*
X142724835Y-75508526D01*
X142671128Y-75492234D01*
X142671125Y-75492233D01*
X142484804Y-75473883D01*
X142484796Y-75473883D01*
X142298474Y-75492233D01*
X142298471Y-75492234D01*
X142119295Y-75546587D01*
X142119293Y-75546588D01*
X141954182Y-75634841D01*
X141954176Y-75634845D01*
X141809447Y-75753620D01*
X141809438Y-75753629D01*
X141690663Y-75898358D01*
X141690659Y-75898364D01*
X141602406Y-76063475D01*
X141602405Y-76063477D01*
X141548052Y-76242653D01*
X141548051Y-76242655D01*
X141531823Y-76407433D01*
X141523058Y-76427471D01*
X141342374Y-76427471D01*
X141334300Y-76397729D01*
X141334300Y-73920234D01*
X141343544Y-73891782D01*
X141342374Y-73887471D01*
X141523058Y-73887471D01*
X141531823Y-73910531D01*
X141548051Y-74075307D01*
X141548052Y-74075310D01*
X141602405Y-74254486D01*
X141602406Y-74254488D01*
X141690659Y-74419599D01*
X141690662Y-74419604D01*
X141690664Y-74419607D01*
X141716445Y-74451021D01*
X141809438Y-74564334D01*
X141809447Y-74564343D01*
X141876945Y-74619737D01*
X141954175Y-74683118D01*
X142119299Y-74771378D01*
X142298469Y-74825729D01*
X142298471Y-74825729D01*
X142298474Y-74825730D01*
X142484796Y-74844081D01*
X142484800Y-74844081D01*
X142484804Y-74844081D01*
X142671125Y-74825730D01*
X142671126Y-74825729D01*
X142671131Y-74825729D01*
X142850301Y-74771378D01*
X143015425Y-74683118D01*
X143160157Y-74564339D01*
X143218940Y-74492712D01*
X144007600Y-74492712D01*
X144007600Y-74767699D01*
X144007601Y-74767700D01*
X144757599Y-74767700D01*
X144757600Y-74767699D01*
X144757600Y-73792699D01*
X144707615Y-73792700D01*
X144707612Y-73792701D01*
X144604912Y-73803192D01*
X144604900Y-73803195D01*
X144438475Y-73858343D01*
X144289259Y-73950380D01*
X144165280Y-74074359D01*
X144073243Y-74223575D01*
X144018093Y-74390006D01*
X144007600Y-74492712D01*
X143218940Y-74492712D01*
X143278936Y-74419607D01*
X143367196Y-74254483D01*
X143421547Y-74075313D01*
X143423143Y-74059114D01*
X143439899Y-73888986D01*
X143439899Y-73888977D01*
X143421548Y-73702656D01*
X143421547Y-73702653D01*
X143421547Y-73702651D01*
X143367196Y-73523481D01*
X143355181Y-73501002D01*
X143278940Y-73358364D01*
X143278938Y-73358362D01*
X143278936Y-73358357D01*
X143194817Y-73255858D01*
X143160161Y-73213629D01*
X143160152Y-73213620D01*
X143059285Y-73130841D01*
X143015425Y-73094846D01*
X143015422Y-73094844D01*
X143015417Y-73094841D01*
X142850306Y-73006588D01*
X142850304Y-73006587D01*
X142671128Y-72952234D01*
X142671125Y-72952233D01*
X142484804Y-72933883D01*
X142484796Y-72933883D01*
X142298474Y-72952233D01*
X142298471Y-72952234D01*
X142119295Y-73006587D01*
X142119293Y-73006588D01*
X141954182Y-73094841D01*
X141954176Y-73094845D01*
X141809447Y-73213620D01*
X141809438Y-73213629D01*
X141690663Y-73358358D01*
X141690659Y-73358364D01*
X141602406Y-73523475D01*
X141602405Y-73523477D01*
X141548052Y-73702653D01*
X141548051Y-73702655D01*
X141531823Y-73867433D01*
X141523058Y-73887471D01*
X141342374Y-73887471D01*
X141334300Y-73857729D01*
X141334300Y-70624309D01*
X141534300Y-70624309D01*
X141534300Y-72073654D01*
X141534301Y-72073666D01*
X141548833Y-72146718D01*
X141548835Y-72146724D01*
X141604197Y-72229581D01*
X141604199Y-72229583D01*
X141687060Y-72284948D01*
X141742608Y-72295997D01*
X141760115Y-72299480D01*
X141760120Y-72299480D01*
X141760126Y-72299482D01*
X141760127Y-72299482D01*
X143209473Y-72299482D01*
X143209474Y-72299482D01*
X143282540Y-72284948D01*
X143365401Y-72229583D01*
X143420766Y-72146722D01*
X143435300Y-72073656D01*
X143435300Y-70624308D01*
X143420766Y-70551242D01*
X143365401Y-70468381D01*
X143365400Y-70468380D01*
X143365399Y-70468379D01*
X143282542Y-70413017D01*
X143282540Y-70413016D01*
X143282537Y-70413015D01*
X143282536Y-70413015D01*
X143209484Y-70398483D01*
X143209474Y-70398482D01*
X141760126Y-70398482D01*
X141760125Y-70398482D01*
X141760115Y-70398483D01*
X141687063Y-70413015D01*
X141687057Y-70413017D01*
X141604200Y-70468379D01*
X141604199Y-70468381D01*
X141548835Y-70551239D01*
X141548833Y-70551245D01*
X141534301Y-70624297D01*
X141534300Y-70624309D01*
X141334300Y-70624309D01*
X141334300Y-68174504D01*
X141334301Y-68174501D01*
X141334300Y-68112926D01*
X141334677Y-68104299D01*
X141340064Y-68042721D01*
X141349093Y-67939511D01*
X141352086Y-67922535D01*
X141393782Y-67766924D01*
X141399676Y-67750729D01*
X141467761Y-67604727D01*
X141476386Y-67589791D01*
X141482827Y-67580593D01*
X141568781Y-67457842D01*
X141579864Y-67444633D01*
X141693782Y-67330723D01*
X141706981Y-67319648D01*
X141838945Y-67227253D01*
X141853883Y-67218630D01*
X141999875Y-67150560D01*
X142016083Y-67144661D01*
X142171687Y-67102977D01*
X142188662Y-67099984D01*
X142354472Y-67085488D01*
X142363070Y-67085113D01*
X142423659Y-67085118D01*
X142423664Y-67085116D01*
X142429991Y-67085117D01*
X142430070Y-67085113D01*
X144570018Y-67085113D01*
X144628209Y-67104020D01*
G37*
%TD.AperFunction*%
%TA.AperFunction,Conductor*%
G36*
X147794967Y-75378461D02*
G01*
X147827491Y-75391933D01*
X147977633Y-75411700D01*
X147977385Y-75413577D01*
X148027191Y-75429760D01*
X148063155Y-75479260D01*
X148068000Y-75509853D01*
X148068000Y-75533199D01*
X148068001Y-75533200D01*
X148799000Y-75533200D01*
X148857191Y-75552107D01*
X148893155Y-75601607D01*
X148898000Y-75632200D01*
X148898000Y-75683700D01*
X148879093Y-75741891D01*
X148829593Y-75777855D01*
X148799000Y-75782700D01*
X148543326Y-75782700D01*
X148543325Y-75782700D01*
X148543315Y-75782701D01*
X148470263Y-75797233D01*
X148470261Y-75797233D01*
X148470260Y-75797234D01*
X148470259Y-75797234D01*
X148461248Y-75800967D01*
X148460736Y-75799731D01*
X148416333Y-75813200D01*
X148068001Y-75813200D01*
X148068000Y-75813201D01*
X148068000Y-75861024D01*
X148067999Y-75861024D01*
X148074401Y-75920570D01*
X148074403Y-75920581D01*
X148124646Y-76055288D01*
X148124647Y-76055290D01*
X148210807Y-76170384D01*
X148210810Y-76170387D01*
X148212672Y-76171781D01*
X148213790Y-76173367D01*
X148215818Y-76175395D01*
X148215467Y-76175745D01*
X148247927Y-76221789D01*
X148247055Y-76282968D01*
X148210390Y-76331951D01*
X148166269Y-76349190D01*
X148056291Y-76363670D01*
X148056290Y-76363670D01*
X147922378Y-76419137D01*
X147922370Y-76419142D01*
X147826662Y-76492581D01*
X147768986Y-76513005D01*
X147710320Y-76495627D01*
X147673073Y-76447086D01*
X147671472Y-76385921D01*
X147687852Y-76353774D01*
X147715474Y-76317778D01*
X147770943Y-76183862D01*
X147789863Y-76040153D01*
X147786975Y-76018220D01*
X147770943Y-75896444D01*
X147715474Y-75762528D01*
X147665183Y-75696988D01*
X147644759Y-75639312D01*
X147650285Y-75606210D01*
X147650267Y-75606206D01*
X147650330Y-75605936D01*
X147650967Y-75602123D01*
X147651691Y-75600183D01*
X147658100Y-75540573D01*
X147658099Y-75469930D01*
X147677006Y-75411742D01*
X147726505Y-75375778D01*
X147787690Y-75375777D01*
X147794967Y-75378461D01*
G37*
%TD.AperFunction*%
%TA.AperFunction,Conductor*%
G36*
X150267191Y-74942107D02*
G01*
X150303155Y-74991607D01*
X150308000Y-75022200D01*
X150308000Y-75324200D01*
X150289093Y-75382391D01*
X150239593Y-75418355D01*
X150209000Y-75423200D01*
X149052000Y-75423200D01*
X148993809Y-75404293D01*
X148957845Y-75354793D01*
X148953000Y-75324200D01*
X148953000Y-75313201D01*
X148926996Y-75287197D01*
X148899219Y-75232680D01*
X148898000Y-75217193D01*
X148898000Y-75162700D01*
X148916907Y-75104509D01*
X148966407Y-75068545D01*
X148997000Y-75063700D01*
X149252673Y-75063700D01*
X149252674Y-75063700D01*
X149325740Y-75049166D01*
X149408601Y-74993801D01*
X149426375Y-74967200D01*
X149474424Y-74929320D01*
X149508691Y-74923200D01*
X150209000Y-74923200D01*
X150267191Y-74942107D01*
G37*
%TD.AperFunction*%
%TA.AperFunction,Conductor*%
G36*
X155459004Y-71938818D02*
G01*
X155481904Y-71961718D01*
X155509681Y-72016235D01*
X155510900Y-72031722D01*
X155510900Y-73101528D01*
X155491993Y-73159719D01*
X155442493Y-73195683D01*
X155401839Y-73200015D01*
X155350789Y-73194800D01*
X155300801Y-73194800D01*
X155300800Y-73194801D01*
X155300800Y-74320800D01*
X155281893Y-74378991D01*
X155232393Y-74414955D01*
X155201800Y-74419800D01*
X154899800Y-74419800D01*
X154841609Y-74400893D01*
X154805645Y-74351393D01*
X154800800Y-74320800D01*
X154800800Y-73194799D01*
X154785400Y-73179400D01*
X154774603Y-73175892D01*
X154738639Y-73126392D01*
X154738639Y-73065206D01*
X154774603Y-73015706D01*
X154777793Y-73013483D01*
X154909332Y-72925591D01*
X155055594Y-72779329D01*
X155170491Y-72607374D01*
X155170498Y-72607360D01*
X155249650Y-72416272D01*
X155289999Y-72213418D01*
X155290000Y-72213413D01*
X155290000Y-72008822D01*
X155308907Y-71950631D01*
X155358407Y-71914667D01*
X155419593Y-71914667D01*
X155459004Y-71938818D01*
G37*
%TD.AperFunction*%
%TA.AperFunction,Conductor*%
G36*
X152829191Y-72078907D02*
G01*
X152865155Y-72128407D01*
X152870000Y-72159000D01*
X152870000Y-73159999D01*
X152870001Y-73160000D01*
X153067824Y-73160000D01*
X153127370Y-73153598D01*
X153127381Y-73153596D01*
X153262088Y-73103353D01*
X153262090Y-73103352D01*
X153377184Y-73017192D01*
X153377190Y-73017186D01*
X153431255Y-72944964D01*
X153481263Y-72909710D01*
X153542442Y-72910584D01*
X153566059Y-72923727D01*
X153566620Y-72922888D01*
X153742625Y-73040491D01*
X153742639Y-73040498D01*
X153933723Y-73119648D01*
X153933730Y-73119650D01*
X153990000Y-73130842D01*
X153990000Y-72304978D01*
X154025088Y-72340066D01*
X154104901Y-72386146D01*
X154193920Y-72409999D01*
X154286080Y-72409999D01*
X154375099Y-72386146D01*
X154454912Y-72340066D01*
X154490000Y-72304978D01*
X154490000Y-73146133D01*
X154502367Y-73165454D01*
X154498763Y-73226533D01*
X154459946Y-73273829D01*
X154458547Y-73274708D01*
X154332460Y-73352479D01*
X154208480Y-73476459D01*
X154116443Y-73625674D01*
X154063531Y-73785353D01*
X154027279Y-73834642D01*
X153968979Y-73853210D01*
X153910900Y-73833964D01*
X153876799Y-73788811D01*
X153844596Y-73702469D01*
X153815038Y-73662985D01*
X153758349Y-73587258D01*
X153758348Y-73587257D01*
X153758346Y-73587254D01*
X153742260Y-73575212D01*
X153643129Y-73501002D01*
X153508288Y-73450710D01*
X153508283Y-73450709D01*
X153508281Y-73450708D01*
X153508277Y-73450708D01*
X153477049Y-73447350D01*
X153448673Y-73444300D01*
X153448670Y-73444300D01*
X152852933Y-73444300D01*
X152852929Y-73444300D01*
X152852928Y-73444301D01*
X152845749Y-73445072D01*
X152793319Y-73450708D01*
X152793314Y-73450709D01*
X152658470Y-73501002D01*
X152614946Y-73533584D01*
X152557030Y-73553320D01*
X152498576Y-73535245D01*
X152485614Y-73524333D01*
X152290285Y-73329003D01*
X152262508Y-73274487D01*
X152272079Y-73214055D01*
X152315344Y-73170790D01*
X152360289Y-73160000D01*
X152369999Y-73160000D01*
X152370000Y-73159999D01*
X152370000Y-72159000D01*
X152388907Y-72100809D01*
X152438407Y-72064845D01*
X152469000Y-72060000D01*
X152771000Y-72060000D01*
X152829191Y-72078907D01*
G37*
%TD.AperFunction*%
%TD*%
M02*
