%TF.GenerationSoftware,KiCad,Pcbnew,8.0.8*%
%TF.CreationDate,2025-03-31T18:12:56-07:00*%
%TF.ProjectId,stoplight,73746f70-6c69-4676-9874-2e6b69636164,0.1*%
%TF.SameCoordinates,Original*%
%TF.FileFunction,Copper,L4,Bot*%
%TF.FilePolarity,Positive*%
%FSLAX46Y46*%
G04 Gerber Fmt 4.6, Leading zero omitted, Abs format (unit mm)*
G04 Created by KiCad (PCBNEW 8.0.8) date 2025-03-31 18:12:56*
%MOMM*%
%LPD*%
G01*
G04 APERTURE LIST*
G04 Aperture macros list*
%AMRoundRect*
0 Rectangle with rounded corners*
0 $1 Rounding radius*
0 $2 $3 $4 $5 $6 $7 $8 $9 X,Y pos of 4 corners*
0 Add a 4 corners polygon primitive as box body*
4,1,4,$2,$3,$4,$5,$6,$7,$8,$9,$2,$3,0*
0 Add four circle primitives for the rounded corners*
1,1,$1+$1,$2,$3*
1,1,$1+$1,$4,$5*
1,1,$1+$1,$6,$7*
1,1,$1+$1,$8,$9*
0 Add four rect primitives between the rounded corners*
20,1,$1+$1,$2,$3,$4,$5,0*
20,1,$1+$1,$4,$5,$6,$7,0*
20,1,$1+$1,$6,$7,$8,$9,0*
20,1,$1+$1,$8,$9,$2,$3,0*%
G04 Aperture macros list end*
%TA.AperFunction,ComponentPad*%
%ADD10RoundRect,0.250000X0.600000X0.725000X-0.600000X0.725000X-0.600000X-0.725000X0.600000X-0.725000X0*%
%TD*%
%TA.AperFunction,ComponentPad*%
%ADD11O,1.700000X1.950000*%
%TD*%
%TA.AperFunction,ComponentPad*%
%ADD12R,1.400000X1.400000*%
%TD*%
%TA.AperFunction,ComponentPad*%
%ADD13C,1.400000*%
%TD*%
%TA.AperFunction,ComponentPad*%
%ADD14O,1.100000X1.700000*%
%TD*%
%TA.AperFunction,SMDPad,CuDef*%
%ADD15RoundRect,0.250000X-0.475000X0.250000X-0.475000X-0.250000X0.475000X-0.250000X0.475000X0.250000X0*%
%TD*%
%TA.AperFunction,SMDPad,CuDef*%
%ADD16RoundRect,0.140000X0.170000X-0.140000X0.170000X0.140000X-0.170000X0.140000X-0.170000X-0.140000X0*%
%TD*%
%TA.AperFunction,SMDPad,CuDef*%
%ADD17R,1.130000X1.380000*%
%TD*%
%TA.AperFunction,SMDPad,CuDef*%
%ADD18RoundRect,0.135000X-0.185000X0.135000X-0.185000X-0.135000X0.185000X-0.135000X0.185000X0.135000X0*%
%TD*%
%TA.AperFunction,SMDPad,CuDef*%
%ADD19RoundRect,0.140000X-0.140000X-0.170000X0.140000X-0.170000X0.140000X0.170000X-0.140000X0.170000X0*%
%TD*%
%TA.AperFunction,SMDPad,CuDef*%
%ADD20RoundRect,0.225000X-0.250000X0.225000X-0.250000X-0.225000X0.250000X-0.225000X0.250000X0.225000X0*%
%TD*%
%TA.AperFunction,SMDPad,CuDef*%
%ADD21RoundRect,0.200000X0.275000X-0.200000X0.275000X0.200000X-0.275000X0.200000X-0.275000X-0.200000X0*%
%TD*%
%TA.AperFunction,SMDPad,CuDef*%
%ADD22R,1.400000X0.410000*%
%TD*%
%TA.AperFunction,SMDPad,CuDef*%
%ADD23RoundRect,0.135000X0.185000X-0.135000X0.185000X0.135000X-0.185000X0.135000X-0.185000X-0.135000X0*%
%TD*%
%TA.AperFunction,SMDPad,CuDef*%
%ADD24O,0.900000X0.280000*%
%TD*%
%TA.AperFunction,SMDPad,CuDef*%
%ADD25O,0.280000X0.900000*%
%TD*%
%TA.AperFunction,SMDPad,CuDef*%
%ADD26R,3.500000X3.500000*%
%TD*%
%TA.AperFunction,SMDPad,CuDef*%
%ADD27RoundRect,0.225000X0.250000X-0.225000X0.250000X0.225000X-0.250000X0.225000X-0.250000X-0.225000X0*%
%TD*%
%TA.AperFunction,ViaPad*%
%ADD28C,0.600000*%
%TD*%
%TA.AperFunction,ViaPad*%
%ADD29C,0.500000*%
%TD*%
%TA.AperFunction,Conductor*%
%ADD30C,0.600000*%
%TD*%
%TA.AperFunction,Conductor*%
%ADD31C,0.400000*%
%TD*%
%TA.AperFunction,Conductor*%
%ADD32C,0.200000*%
%TD*%
%TA.AperFunction,Conductor*%
%ADD33C,0.500000*%
%TD*%
%TA.AperFunction,Conductor*%
%ADD34C,0.300000*%
%TD*%
G04 APERTURE END LIST*
D10*
%TO.P,J1,1,Pin_1*%
%TO.N,/A2*%
X154000000Y-94300000D03*
D11*
%TO.P,J1,2,Pin_2*%
%TO.N,/A1*%
X151500000Y-94300000D03*
%TO.P,J1,3,Pin_3*%
%TO.N,/B1*%
X149000000Y-94300000D03*
%TO.P,J1,4,Pin_4*%
%TO.N,/B2*%
X146500000Y-94300000D03*
%TD*%
D12*
%TO.P,H1,1,1*%
%TO.N,/LED*%
X142484800Y-71348982D03*
D13*
%TO.P,H1,2,2*%
%TO.N,/INDEX*%
X142484800Y-73888982D03*
%TO.P,H1,3,3*%
%TO.N,/DIAG*%
X142484800Y-76428982D03*
%TO.P,H1,4,4*%
%TO.N,unconnected-(H1-Pad4)*%
X142484800Y-78968982D03*
%TO.P,H1,5,5*%
%TO.N,/SDA*%
X142484800Y-81508982D03*
%TO.P,H1,6,6*%
%TO.N,/SCL*%
X142484800Y-84048982D03*
%TO.P,H1,7,7*%
%TO.N,Net-(H1-Pad7)*%
X142484800Y-86588982D03*
%TD*%
D12*
%TO.P,H2,1,1*%
%TO.N,+5V*%
X157724800Y-71348982D03*
D13*
%TO.P,H2,2,2*%
%TO.N,GND*%
X157724800Y-73888982D03*
%TO.P,H2,3,3*%
%TO.N,+3V3*%
X157724800Y-76428982D03*
%TO.P,H2,4,4*%
%TO.N,/1-WIRE*%
X157724800Y-78968982D03*
%TO.P,H2,5,5*%
%TO.N,/TACH*%
X157724800Y-81508982D03*
%TO.P,H2,6,6*%
%TO.N,/PWM*%
X157724800Y-84048982D03*
%TO.P,H2,7,7*%
%TO.N,/UART*%
X157724800Y-86588982D03*
%TD*%
D14*
%TO.P,USB1,7,EH*%
%TO.N,GND*%
X154240000Y-71810000D03*
X154240000Y-68000000D03*
X145600000Y-71810000D03*
X145600000Y-68000000D03*
%TD*%
D15*
%TO.P,C18,1*%
%TO.N,GND*%
X156800000Y-92000000D03*
%TO.P,C18,2*%
%TO.N,VM*%
X156800000Y-93900000D03*
%TD*%
D16*
%TO.P,C15,1*%
%TO.N,GND*%
X147800000Y-90480000D03*
%TO.P,C15,2*%
%TO.N,VM*%
X147800000Y-89520000D03*
%TD*%
D17*
%TO.P,R9,1,1*%
%TO.N,Net-(U3-BRA)*%
X152600000Y-92000000D03*
%TO.P,R9,2,2*%
%TO.N,GND*%
X154600000Y-92000000D03*
%TD*%
D18*
%TO.P,R6,1*%
%TO.N,GND*%
X151374800Y-79971800D03*
%TO.P,R6,2*%
%TO.N,Net-(U3-CLK)*%
X151374800Y-80991800D03*
%TD*%
D19*
%TO.P,C17,1*%
%TO.N,+3V3*%
X154196800Y-84302982D03*
%TO.P,C17,2*%
%TO.N,GND*%
X155156800Y-84302982D03*
%TD*%
D16*
%TO.P,C11,1*%
%TO.N,Net-(U3-CPO)*%
X146294800Y-85914800D03*
%TO.P,C11,2*%
%TO.N,Net-(U3-CPI)*%
X146294800Y-84954800D03*
%TD*%
D20*
%TO.P,C14,1*%
%TO.N,GND*%
X144100000Y-92025000D03*
%TO.P,C14,2*%
%TO.N,VM*%
X144100000Y-93575000D03*
%TD*%
D18*
%TO.P,R12,1*%
%TO.N,+3V3*%
X156200800Y-77950982D03*
%TO.P,R12,2*%
%TO.N,/1-WIRE*%
X156200800Y-78970982D03*
%TD*%
%TO.P,R7,1*%
%TO.N,GND*%
X154168800Y-79982982D03*
%TO.P,R7,2*%
%TO.N,/UART*%
X154168800Y-81002982D03*
%TD*%
%TO.P,R11,1*%
%TO.N,+3V3*%
X143754800Y-83728982D03*
%TO.P,R11,2*%
%TO.N,/SCL*%
X143754800Y-84748982D03*
%TD*%
D21*
%TO.P,R13,1*%
%TO.N,/UART*%
X143754800Y-87476982D03*
%TO.P,R13,2*%
%TO.N,Net-(H1-Pad7)*%
X143754800Y-85826982D03*
%TD*%
D22*
%TO.P,U4,1,DQ*%
%TO.N,/1-WIRE*%
X152150800Y-69214800D03*
%TO.P,U4,2,NC*%
%TO.N,unconnected-(U4-NC-Pad2)*%
X152150800Y-69864800D03*
%TO.P,U4,3,NC*%
%TO.N,unconnected-(U4-NC-Pad3)*%
X152150800Y-70524800D03*
%TO.P,U4,4,GND*%
%TO.N,GND*%
X152150800Y-71174800D03*
%TO.P,U4,5,NC*%
%TO.N,unconnected-(U4-NC-Pad5)*%
X147550800Y-71174800D03*
%TO.P,U4,6,NC*%
%TO.N,unconnected-(U4-NC-Pad6)*%
X147550800Y-70524800D03*
%TO.P,U4,7,NC*%
%TO.N,unconnected-(U4-NC-Pad7)*%
X147550800Y-69864800D03*
%TO.P,U4,8,VDD*%
%TO.N,+3V3*%
X147550800Y-69214800D03*
%TD*%
D17*
%TO.P,R8,1,1*%
%TO.N,Net-(U3-BRB)*%
X147800000Y-92000000D03*
%TO.P,R8,2,2*%
%TO.N,GND*%
X145800000Y-92000000D03*
%TD*%
D16*
%TO.P,C12,1*%
%TO.N,Net-(U3-VCP)*%
X146294800Y-84084800D03*
%TO.P,C12,2*%
%TO.N,VM*%
X146294800Y-83124800D03*
%TD*%
D23*
%TO.P,R10,1*%
%TO.N,+3V3*%
X143754800Y-82208982D03*
%TO.P,R10,2*%
%TO.N,/SDA*%
X143754800Y-81188982D03*
%TD*%
D24*
%TO.P,U3,1,OB2*%
%TO.N,/B2*%
X147731800Y-87188800D03*
%TO.P,U3,2,ENN*%
%TO.N,GND*%
X147731800Y-86688800D03*
%TO.P,U3,3,GND*%
X147731800Y-86188800D03*
%TO.P,U3,4,CPO*%
%TO.N,Net-(U3-CPO)*%
X147731800Y-85688800D03*
%TO.P,U3,5,CPI*%
%TO.N,Net-(U3-CPI)*%
X147731800Y-85188800D03*
%TO.P,U3,6,VCP*%
%TO.N,Net-(U3-VCP)*%
X147731800Y-84688800D03*
%TO.P,U3,7,SPREAD*%
%TO.N,unconnected-(U3-SPREAD-Pad7)*%
X147731800Y-84188800D03*
D25*
%TO.P,U3,8,5VOUT*%
%TO.N,Net-(U3-5VOUT)*%
X148731800Y-83188800D03*
%TO.P,U3,9,MS1_AD0*%
%TO.N,unconnected-(U3-MS1_AD0-Pad9)*%
X149231800Y-83188800D03*
%TO.P,U3,10,MS2_AD1*%
%TO.N,unconnected-(U3-MS2_AD1-Pad10)*%
X149731800Y-83188800D03*
%TO.P,U3,11,DIAG*%
%TO.N,/DIAG*%
X150231800Y-83188800D03*
%TO.P,U3,12,INDEX*%
%TO.N,/INDEX*%
X150731800Y-83188800D03*
%TO.P,U3,13,CLK*%
%TO.N,Net-(U3-CLK)*%
X151231800Y-83188800D03*
%TO.P,U3,14,PDN_UART*%
%TO.N,/UART*%
X151731800Y-83188800D03*
D24*
%TO.P,U3,15,VCC_IO*%
%TO.N,+3V3*%
X152731800Y-84188800D03*
%TO.P,U3,16,STEP*%
%TO.N,unconnected-(U3-STEP-Pad16)*%
X152731800Y-84688800D03*
%TO.P,U3,17,VREF*%
%TO.N,unconnected-(U3-VREF-Pad17)*%
X152731800Y-85188800D03*
%TO.P,U3,18,GND*%
%TO.N,GND*%
X152731800Y-85688800D03*
%TO.P,U3,19,DIR*%
%TO.N,unconnected-(U3-DIR-Pad19)*%
X152731800Y-86188800D03*
%TO.P,U3,20,STDBY*%
%TO.N,unconnected-(U3-STDBY-Pad20)*%
X152731800Y-86688800D03*
%TO.P,U3,21,OA2*%
%TO.N,/A2*%
X152731800Y-87188800D03*
D25*
%TO.P,U3,22,VS*%
%TO.N,VM*%
X151731800Y-88188800D03*
%TO.P,U3,23,BRA*%
%TO.N,Net-(U3-BRA)*%
X151231800Y-88188800D03*
%TO.P,U3,24,OA1*%
%TO.N,/A1*%
X150731800Y-88188800D03*
%TO.P,U3,25,UNUSED*%
%TO.N,GND*%
X150231800Y-88188800D03*
%TO.P,U3,26,OB1*%
%TO.N,/B1*%
X149731800Y-88188800D03*
%TO.P,U3,27,BRB*%
%TO.N,Net-(U3-BRB)*%
X149231800Y-88188800D03*
%TO.P,U3,28,VS*%
%TO.N,VM*%
X148731800Y-88188800D03*
D26*
%TO.P,U3,29,EP*%
%TO.N,GND*%
X150231800Y-85688800D03*
%TD*%
D27*
%TO.P,C13,1*%
%TO.N,Net-(U3-5VOUT)*%
X147564800Y-82537982D03*
%TO.P,C13,2*%
%TO.N,GND*%
X147564800Y-80987982D03*
%TD*%
D16*
%TO.P,C16,1*%
%TO.N,GND*%
X152600000Y-90480000D03*
%TO.P,C16,2*%
%TO.N,VM*%
X152600000Y-89520000D03*
%TD*%
D28*
%TO.N,+3V3*%
X157400000Y-89400000D03*
X156000000Y-89400000D03*
X144771624Y-82417200D03*
X145659800Y-69813800D03*
X156708800Y-89400000D03*
X154988869Y-85906075D03*
X156000000Y-90100000D03*
X157400000Y-88700000D03*
X156010000Y-88701200D03*
X158500000Y-69400000D03*
X156708800Y-90101200D03*
X157400000Y-90100000D03*
X156708800Y-88701200D03*
%TO.N,VM*%
X153242473Y-89904461D03*
X156800000Y-94900000D03*
X147234613Y-76040153D03*
X155946800Y-82524982D03*
X146625617Y-76040153D03*
X146907600Y-78068800D03*
X144100000Y-94600000D03*
X146294800Y-79846800D03*
X147666400Y-77800000D03*
X152760639Y-81924982D03*
X152800000Y-81150000D03*
X147100000Y-89900000D03*
X147666400Y-78450000D03*
%TO.N,/SCL*%
X147971200Y-74855603D03*
%TO.N,/INDEX*%
X148200000Y-76900000D03*
D29*
%TO.N,/DIAG*%
X146158325Y-78101838D03*
D28*
%TO.N,/SDA*%
X147971200Y-74055600D03*
%TO.N,/1-WIRE*%
X155530222Y-70241560D03*
%TO.N,/UART*%
X154168780Y-83492983D03*
X143754800Y-88874982D03*
%TO.N,/A2*%
X154300000Y-89900000D03*
%TO.N,/B2*%
X146100000Y-89900000D03*
%TO.N,GND*%
X151628800Y-85688800D03*
X150200000Y-92400000D03*
X151613725Y-84454177D03*
X152700000Y-93300000D03*
X147700000Y-93300000D03*
X148850000Y-84350000D03*
X149550000Y-84350000D03*
X151628800Y-85064982D03*
%TD*%
D30*
%TO.N,/B1*%
X149300000Y-90200000D02*
X149300000Y-91700000D01*
X149300000Y-91700000D02*
X149000000Y-92000000D01*
X149000000Y-92000000D02*
X149000000Y-94000000D01*
D31*
X149730812Y-89560095D02*
X149300000Y-89990907D01*
X149300000Y-89990907D02*
X149300000Y-90200000D01*
D30*
%TO.N,/A1*%
X150950000Y-90200000D02*
X150950000Y-91550000D01*
X150950000Y-91550000D02*
X151400000Y-92000000D01*
X151400000Y-92000000D02*
X151400000Y-93900000D01*
D31*
X150800000Y-89400000D02*
X150950000Y-89550000D01*
X150950000Y-89550000D02*
X150950000Y-90200000D01*
D32*
%TO.N,+3V3*%
X154196800Y-85114006D02*
X154196800Y-84302982D01*
X147550800Y-69214800D02*
X146258800Y-69214800D01*
X143754800Y-83434024D02*
X143754800Y-83728982D01*
X154196800Y-84302982D02*
X154082618Y-84188800D01*
X144771624Y-82417200D02*
X144039218Y-82417200D01*
X154082618Y-84188800D02*
X152731800Y-84188800D01*
X146258800Y-69214800D02*
X145659800Y-69813800D01*
X157218800Y-77950982D02*
X157724800Y-77444982D01*
X144771624Y-82417200D02*
X143754800Y-83434024D01*
X156200800Y-77950982D02*
X157218800Y-77950982D01*
X157724800Y-77444982D02*
X157724800Y-76428982D01*
X154988869Y-85906075D02*
X154196800Y-85114006D01*
X144039218Y-82417200D02*
X143754800Y-82132782D01*
D33*
%TO.N,VM*%
X153242473Y-89904461D02*
X151950000Y-88611988D01*
X151950000Y-88611988D02*
X151950000Y-88100000D01*
X147100000Y-89900000D02*
X147100000Y-89820600D01*
D32*
X148620800Y-88188800D02*
X148731800Y-88188800D01*
D33*
X144100000Y-93575000D02*
X144100000Y-94600000D01*
X147100000Y-89820600D02*
X148641800Y-88278800D01*
X156800000Y-93900000D02*
X156800000Y-94900000D01*
D32*
X146294800Y-79846800D02*
X146294800Y-83124800D01*
%TO.N,Net-(U3-5VOUT)*%
X148215618Y-83188800D02*
X148731800Y-83188800D01*
X147564800Y-82537982D02*
X148215618Y-83188800D01*
%TO.N,Net-(U3-CPI)*%
X147731800Y-85188800D02*
X146528800Y-85188800D01*
X146528800Y-85188800D02*
X146294800Y-84954800D01*
%TO.N,Net-(U3-CPO)*%
X147731800Y-85688800D02*
X146520800Y-85688800D01*
X146520800Y-85688800D02*
X146294800Y-85914800D01*
%TO.N,Net-(U3-VCP)*%
X146595800Y-84084800D02*
X147199800Y-84688800D01*
X147199800Y-84688800D02*
X147731800Y-84688800D01*
X146294800Y-84084800D02*
X146595800Y-84084800D01*
%TO.N,Net-(H1-Pad7)*%
X143754800Y-85826982D02*
X142928800Y-85826982D01*
X142928800Y-85826982D02*
X142103800Y-86651982D01*
%TO.N,/SCL*%
X143754800Y-84748982D02*
X143184800Y-84748982D01*
X142166800Y-84048982D02*
X142103800Y-84111982D01*
X143184800Y-84748982D02*
X142484800Y-84048982D01*
X142484800Y-84048982D02*
X142166800Y-84048982D01*
%TO.N,/INDEX*%
X150731800Y-81406671D02*
X150731800Y-83188800D01*
X148326800Y-77026800D02*
X148326800Y-79001671D01*
X148326800Y-79001671D02*
X150731800Y-81406671D01*
X148200000Y-76900000D02*
X148326800Y-77026800D01*
%TO.N,/DIAG*%
X150231800Y-81472356D02*
X150231800Y-83188800D01*
X147417871Y-79050000D02*
X147809444Y-79050000D01*
X146307600Y-78251113D02*
X146307600Y-78317329D01*
X147809444Y-79050000D02*
X150231800Y-81472356D01*
X147036671Y-78668800D02*
X147417871Y-79050000D01*
X146307600Y-78317329D02*
X146659071Y-78668800D01*
X146158325Y-78101838D02*
X146307600Y-78251113D01*
X146659071Y-78668800D02*
X147036671Y-78668800D01*
%TO.N,/SDA*%
X142486800Y-81188982D02*
X142103800Y-81571982D01*
X143754800Y-81188982D02*
X142486800Y-81188982D01*
%TO.N,/1-WIRE*%
X154503462Y-69214800D02*
X152150800Y-69214800D01*
X155530222Y-70241560D02*
X154503462Y-69214800D01*
X157722800Y-78970982D02*
X157724800Y-78968982D01*
X156200800Y-78970982D02*
X157722800Y-78970982D01*
%TO.N,/UART*%
X154022618Y-83286982D02*
X151829982Y-83286982D01*
X151829982Y-83286982D02*
X151731800Y-83188800D01*
X154120800Y-81050982D02*
X154120800Y-83188800D01*
X154168780Y-83492983D02*
X154120800Y-83445003D01*
X154120800Y-83445003D02*
X154120800Y-83188800D01*
X154120800Y-83188800D02*
X154022618Y-83286982D01*
X154168800Y-81002982D02*
X154120800Y-81050982D01*
X143754800Y-88874982D02*
X143754800Y-87476982D01*
D34*
%TO.N,/B1*%
X149730812Y-88842716D02*
X149730812Y-89560095D01*
D31*
X149000000Y-94000000D02*
X149081982Y-94081982D01*
D32*
X149731800Y-88188800D02*
X149731800Y-88841728D01*
X149731800Y-88841728D02*
X149730812Y-88842716D01*
D34*
%TO.N,/B2*%
X147731800Y-87466800D02*
X147731800Y-87188800D01*
%TO.N,/A1*%
X150800000Y-89400000D02*
X150731800Y-89331800D01*
X150731800Y-89331800D02*
X150731800Y-88188800D01*
X150730812Y-88189788D02*
X150731800Y-88188800D01*
D31*
X151400000Y-93900000D02*
X151500000Y-94000000D01*
D32*
%TO.N,Net-(U3-CLK)*%
X151282800Y-81577135D02*
X151282800Y-83137800D01*
X151374800Y-81485135D02*
X151282800Y-81577135D01*
X151282800Y-83137800D02*
X151231800Y-83188800D01*
X151374800Y-80991800D02*
X151374800Y-81485135D01*
D31*
%TO.N,Net-(U3-BRB)*%
X148600000Y-89500000D02*
X148600000Y-91200000D01*
D32*
X149231800Y-88188800D02*
X149231800Y-88868200D01*
X149231800Y-88868200D02*
X149100000Y-89000000D01*
D31*
X148600000Y-91200000D02*
X147800000Y-92000000D01*
X149100000Y-89000000D02*
X148600000Y-89500000D01*
%TO.N,Net-(U3-BRA)*%
X151800000Y-91200000D02*
X152600000Y-92000000D01*
D32*
X151231800Y-88188800D02*
X151231800Y-88831800D01*
D31*
X151300000Y-88900000D02*
X151800000Y-89400000D01*
X151800000Y-89400000D02*
X151800000Y-91200000D01*
D32*
X151231800Y-88831800D02*
X151300000Y-88900000D01*
%TO.N,GND*%
X151628800Y-85688800D02*
X150866800Y-85688800D01*
X148580800Y-86188800D02*
X149731800Y-86188800D01*
X145800000Y-92500000D02*
X145800000Y-92000000D01*
X150231800Y-88188800D02*
X150231800Y-90068200D01*
X147731800Y-86188800D02*
X147202982Y-86188800D01*
X149731800Y-86188800D02*
X150231800Y-85688800D01*
X147731800Y-86188800D02*
X148580800Y-86188800D01*
X152700000Y-93400000D02*
X153110000Y-92990000D01*
X152731800Y-85688800D02*
X151628800Y-85688800D01*
D33*
X145200000Y-92600000D02*
X145200000Y-93800000D01*
D32*
X150231800Y-88188800D02*
X150231800Y-85688800D01*
D33*
X145800000Y-92000000D02*
X145200000Y-92600000D01*
X154600000Y-92000000D02*
X155400000Y-92800000D01*
D32*
X153610000Y-92990000D02*
X154600000Y-92000000D01*
X149231800Y-86688800D02*
X150231800Y-85688800D01*
X150866800Y-85688800D02*
X150231800Y-85688800D01*
X147731800Y-86688800D02*
X148580800Y-86688800D01*
X147700000Y-93748654D02*
X146976346Y-93025000D01*
X148580800Y-86688800D02*
X149231800Y-86688800D01*
X150231800Y-90068200D02*
X150200000Y-90100000D01*
D33*
X145200000Y-93800000D02*
X145025000Y-93975000D01*
D32*
X152700000Y-93500000D02*
X152700000Y-93400000D01*
X147202982Y-86188800D02*
X146802800Y-86588982D01*
X146325000Y-93025000D02*
X145800000Y-92500000D01*
X146976346Y-93025000D02*
X146325000Y-93025000D01*
D33*
X155400000Y-92800000D02*
X155400000Y-94300000D01*
D32*
X153110000Y-92990000D02*
X153610000Y-92990000D01*
D30*
%TO.N,/A2*%
X154300000Y-89900000D02*
X154300000Y-89300000D01*
X154300000Y-89300000D02*
X152700000Y-87700000D01*
D33*
X152700000Y-87700000D02*
X152700000Y-87400000D01*
D30*
%TO.N,/B2*%
X146100000Y-89500000D02*
X147731800Y-87868200D01*
X146100000Y-89900000D02*
X146100000Y-89500000D01*
D33*
X147731800Y-87868200D02*
X147731800Y-87466800D01*
%TD*%
%TA.AperFunction,Conductor*%
%TO.N,GND*%
G36*
X144628209Y-67104020D02*
G01*
X144664173Y-67153520D01*
X144664173Y-67214706D01*
X144661482Y-67221999D01*
X144590349Y-67393727D01*
X144550000Y-67596581D01*
X144550000Y-67749999D01*
X144550001Y-67750000D01*
X145249988Y-67750000D01*
X145249988Y-68250000D01*
X144550001Y-68250000D01*
X144550000Y-68250001D01*
X144550000Y-68403418D01*
X144590349Y-68606272D01*
X144669501Y-68797360D01*
X144669508Y-68797374D01*
X144784405Y-68969329D01*
X144930670Y-69115594D01*
X145102625Y-69230491D01*
X145102642Y-69230500D01*
X145219322Y-69278830D01*
X145265848Y-69318566D01*
X145280132Y-69378061D01*
X145259979Y-69430561D01*
X145178942Y-69536170D01*
X145178937Y-69536178D01*
X145123470Y-69670090D01*
X145123469Y-69670091D01*
X145104550Y-69813799D01*
X145104550Y-69813800D01*
X145123469Y-69957508D01*
X145123470Y-69957509D01*
X145133053Y-69980646D01*
X145178939Y-70091425D01*
X145267179Y-70206421D01*
X145382175Y-70294661D01*
X145387436Y-70296840D01*
X145433963Y-70336574D01*
X145448249Y-70396068D01*
X145424837Y-70452597D01*
X145372670Y-70484569D01*
X145368869Y-70485403D01*
X145293726Y-70500350D01*
X145102639Y-70579501D01*
X145102625Y-70579508D01*
X144930670Y-70694405D01*
X144784405Y-70840670D01*
X144669508Y-71012625D01*
X144669501Y-71012639D01*
X144590349Y-71203727D01*
X144550000Y-71406581D01*
X144550000Y-71559999D01*
X144550001Y-71560000D01*
X145249988Y-71560000D01*
X145249988Y-72060000D01*
X144550001Y-72060000D01*
X144550000Y-72060001D01*
X144550000Y-72213418D01*
X144590349Y-72416272D01*
X144669501Y-72607360D01*
X144669508Y-72607374D01*
X144784405Y-72779329D01*
X144930670Y-72925594D01*
X145102625Y-73040491D01*
X145102639Y-73040498D01*
X145293723Y-73119648D01*
X145293730Y-73119650D01*
X145350000Y-73130842D01*
X145350000Y-72304978D01*
X145385088Y-72340066D01*
X145464901Y-72386146D01*
X145553920Y-72409999D01*
X145646080Y-72409999D01*
X145735099Y-72386146D01*
X145814912Y-72340066D01*
X145850000Y-72304978D01*
X145850000Y-73130841D01*
X145906269Y-73119650D01*
X145906276Y-73119648D01*
X146097360Y-73040498D01*
X146097374Y-73040491D01*
X146269329Y-72925594D01*
X146415594Y-72779329D01*
X146530491Y-72607374D01*
X146530498Y-72607360D01*
X146609650Y-72416272D01*
X146649999Y-72213418D01*
X146650000Y-72213413D01*
X146650000Y-72060001D01*
X146649999Y-72060000D01*
X145950012Y-72060000D01*
X145950012Y-71560000D01*
X146639568Y-71560000D01*
X146694568Y-71576683D01*
X146753060Y-71615766D01*
X146808608Y-71626815D01*
X146826115Y-71630298D01*
X146826120Y-71630298D01*
X146826126Y-71630300D01*
X146826127Y-71630300D01*
X148275473Y-71630300D01*
X148275474Y-71630300D01*
X148348540Y-71615766D01*
X148431401Y-71560401D01*
X148486766Y-71477540D01*
X148496695Y-71427624D01*
X150950799Y-71427624D01*
X150957201Y-71487170D01*
X150957203Y-71487181D01*
X151007446Y-71621888D01*
X151007447Y-71621890D01*
X151093607Y-71736984D01*
X151093615Y-71736992D01*
X151208709Y-71823152D01*
X151208711Y-71823153D01*
X151343418Y-71873396D01*
X151343429Y-71873398D01*
X151402976Y-71879800D01*
X151945799Y-71879800D01*
X151945800Y-71879799D01*
X151945800Y-71379801D01*
X151945799Y-71379800D01*
X150950801Y-71379800D01*
X150950800Y-71379801D01*
X150950800Y-71427624D01*
X150950799Y-71427624D01*
X148496695Y-71427624D01*
X148501300Y-71404474D01*
X148501300Y-70945126D01*
X148501299Y-70945124D01*
X148501299Y-70945117D01*
X148486180Y-70869116D01*
X148486180Y-70830484D01*
X148487530Y-70823701D01*
X148496642Y-70777890D01*
X148501299Y-70754482D01*
X148501300Y-70754472D01*
X148501300Y-70295127D01*
X148501299Y-70295118D01*
X148490645Y-70241560D01*
X148486766Y-70222060D01*
X148486765Y-70222058D01*
X148485185Y-70214116D01*
X148485185Y-70175484D01*
X148486765Y-70167541D01*
X148486766Y-70167540D01*
X148496044Y-70120896D01*
X148501299Y-70094481D01*
X148501300Y-70094472D01*
X148501300Y-69635127D01*
X148501299Y-69635117D01*
X148486180Y-69559116D01*
X148486180Y-69520484D01*
X148501299Y-69444482D01*
X148501300Y-69444472D01*
X148501300Y-68985127D01*
X148501298Y-68985115D01*
X148488174Y-68919139D01*
X148486766Y-68912060D01*
X148458439Y-68869665D01*
X148431402Y-68829200D01*
X148431399Y-68829197D01*
X148348542Y-68773835D01*
X148348540Y-68773834D01*
X148348537Y-68773833D01*
X148348536Y-68773833D01*
X148275484Y-68759301D01*
X148275474Y-68759300D01*
X146826126Y-68759300D01*
X146826125Y-68759300D01*
X146826115Y-68759301D01*
X146753063Y-68773833D01*
X146753054Y-68773836D01*
X146730158Y-68789135D01*
X146671270Y-68805742D01*
X146613867Y-68784563D01*
X146579875Y-68733688D01*
X146582279Y-68672550D01*
X146583695Y-68668931D01*
X146609650Y-68606270D01*
X146649999Y-68403418D01*
X146650000Y-68403413D01*
X146650000Y-68250001D01*
X146649999Y-68250000D01*
X145950012Y-68250000D01*
X145950012Y-67750000D01*
X146649999Y-67750000D01*
X146650000Y-67749999D01*
X146650000Y-67596586D01*
X146649999Y-67596581D01*
X146609650Y-67393727D01*
X146538518Y-67221999D01*
X146533717Y-67161002D01*
X146565687Y-67108833D01*
X146622215Y-67085418D01*
X146629982Y-67085113D01*
X153210018Y-67085113D01*
X153268209Y-67104020D01*
X153304173Y-67153520D01*
X153304173Y-67214706D01*
X153301482Y-67221999D01*
X153230349Y-67393727D01*
X153190000Y-67596581D01*
X153190000Y-67749999D01*
X153190001Y-67750000D01*
X153889988Y-67750000D01*
X153889988Y-68250000D01*
X153190001Y-68250000D01*
X153190000Y-68250001D01*
X153190000Y-68403418D01*
X153230350Y-68606273D01*
X153230350Y-68606275D01*
X153280528Y-68727415D01*
X153285329Y-68788411D01*
X153253359Y-68840580D01*
X153196831Y-68863995D01*
X153189064Y-68864300D01*
X153107509Y-68864300D01*
X153049318Y-68845393D01*
X153037503Y-68835301D01*
X153031400Y-68829198D01*
X152948542Y-68773835D01*
X152948540Y-68773834D01*
X152948537Y-68773833D01*
X152948536Y-68773833D01*
X152875484Y-68759301D01*
X152875474Y-68759300D01*
X151426126Y-68759300D01*
X151426125Y-68759300D01*
X151426115Y-68759301D01*
X151353063Y-68773833D01*
X151353057Y-68773835D01*
X151270200Y-68829197D01*
X151270197Y-68829200D01*
X151214835Y-68912057D01*
X151214833Y-68912063D01*
X151200301Y-68985115D01*
X151200300Y-68985127D01*
X151200300Y-69444476D01*
X151215420Y-69520486D01*
X151215420Y-69559114D01*
X151200300Y-69635123D01*
X151200300Y-69635126D01*
X151200300Y-70094474D01*
X151214834Y-70167540D01*
X151214834Y-70167541D01*
X151216415Y-70175485D01*
X151216415Y-70214115D01*
X151214834Y-70222058D01*
X151214834Y-70222060D01*
X151210955Y-70241560D01*
X151200300Y-70295125D01*
X151200300Y-70483187D01*
X151181393Y-70541378D01*
X151160630Y-70562440D01*
X151093612Y-70612610D01*
X151093607Y-70612615D01*
X151007447Y-70727709D01*
X151007446Y-70727711D01*
X150957203Y-70862418D01*
X150957201Y-70862429D01*
X150950800Y-70921975D01*
X150950800Y-70969799D01*
X150950801Y-70969800D01*
X151363588Y-70969800D01*
X151382900Y-70971701D01*
X151426126Y-70980300D01*
X151426127Y-70980300D01*
X152051800Y-70980300D01*
X152109991Y-70999207D01*
X152145955Y-71048707D01*
X152150800Y-71079300D01*
X152150800Y-71174799D01*
X152150801Y-71174800D01*
X152256800Y-71174800D01*
X152314991Y-71193707D01*
X152350955Y-71243207D01*
X152355800Y-71273800D01*
X152355800Y-71879799D01*
X152355801Y-71879800D01*
X152898624Y-71879800D01*
X152958170Y-71873398D01*
X152958178Y-71873396D01*
X153056403Y-71836761D01*
X153117532Y-71834141D01*
X153168527Y-71867952D01*
X153189909Y-71925279D01*
X153190000Y-71929519D01*
X153190000Y-72213418D01*
X153230349Y-72416272D01*
X153309501Y-72607360D01*
X153309508Y-72607374D01*
X153424405Y-72779329D01*
X153570670Y-72925594D01*
X153742625Y-73040491D01*
X153742639Y-73040498D01*
X153933723Y-73119648D01*
X153933730Y-73119650D01*
X153990000Y-73130842D01*
X153990000Y-72304978D01*
X154025088Y-72340066D01*
X154104901Y-72386146D01*
X154193920Y-72409999D01*
X154286080Y-72409999D01*
X154375099Y-72386146D01*
X154454912Y-72340066D01*
X154490000Y-72304978D01*
X154490000Y-73130841D01*
X154546269Y-73119650D01*
X154546276Y-73119648D01*
X154737360Y-73040498D01*
X154737374Y-73040491D01*
X154909329Y-72925594D01*
X155055594Y-72779329D01*
X155170491Y-72607374D01*
X155170498Y-72607360D01*
X155249650Y-72416272D01*
X155289999Y-72213418D01*
X155290000Y-72213413D01*
X155290000Y-72060001D01*
X155289999Y-72060000D01*
X154590012Y-72060000D01*
X154590012Y-71560000D01*
X155289999Y-71560000D01*
X155290000Y-71559999D01*
X155290000Y-71406586D01*
X155289999Y-71406581D01*
X155249650Y-71203727D01*
X155170498Y-71012639D01*
X155170491Y-71012625D01*
X155055594Y-70840670D01*
X154909329Y-70694405D01*
X154737374Y-70579508D01*
X154737360Y-70579501D01*
X154546274Y-70500350D01*
X154490000Y-70489156D01*
X154490000Y-71315022D01*
X154454912Y-71279934D01*
X154375099Y-71233854D01*
X154286080Y-71210001D01*
X154193920Y-71210001D01*
X154104901Y-71233854D01*
X154025088Y-71279934D01*
X153990000Y-71315022D01*
X153990000Y-70489156D01*
X153933725Y-70500350D01*
X153742639Y-70579501D01*
X153742625Y-70579508D01*
X153570668Y-70694406D01*
X153469150Y-70795924D01*
X153414634Y-70823701D01*
X153354202Y-70814129D01*
X153310937Y-70770865D01*
X153306389Y-70760516D01*
X153294153Y-70727711D01*
X153294152Y-70727709D01*
X153207992Y-70612615D01*
X153207987Y-70612610D01*
X153140970Y-70562440D01*
X153105718Y-70512430D01*
X153101300Y-70483187D01*
X153101300Y-70295127D01*
X153101299Y-70295118D01*
X153090645Y-70241560D01*
X153086766Y-70222060D01*
X153086765Y-70222058D01*
X153085185Y-70214116D01*
X153085185Y-70175484D01*
X153086765Y-70167541D01*
X153086766Y-70167540D01*
X153096044Y-70120896D01*
X153101299Y-70094481D01*
X153101300Y-70094472D01*
X153101300Y-69664300D01*
X153120207Y-69606109D01*
X153169707Y-69570145D01*
X153200300Y-69565300D01*
X154317272Y-69565300D01*
X154375463Y-69584207D01*
X154387276Y-69594296D01*
X154947380Y-70154400D01*
X154975157Y-70208917D01*
X154975529Y-70237323D01*
X154974972Y-70241554D01*
X154974972Y-70241560D01*
X154993891Y-70385268D01*
X154993892Y-70385269D01*
X155041558Y-70500348D01*
X155049361Y-70519185D01*
X155137601Y-70634181D01*
X155252597Y-70722421D01*
X155386513Y-70777890D01*
X155530222Y-70796810D01*
X155673931Y-70777890D01*
X155807847Y-70722421D01*
X155922843Y-70634181D01*
X155930418Y-70624309D01*
X156774300Y-70624309D01*
X156774300Y-72073654D01*
X156774301Y-72073666D01*
X156788833Y-72146718D01*
X156788835Y-72146724D01*
X156844197Y-72229581D01*
X156844199Y-72229583D01*
X156927060Y-72284948D01*
X156982608Y-72295997D01*
X157000115Y-72299480D01*
X157000120Y-72299480D01*
X157000126Y-72299482D01*
X157000127Y-72299482D01*
X158449473Y-72299482D01*
X158449474Y-72299482D01*
X158522540Y-72284948D01*
X158605401Y-72229583D01*
X158660766Y-72146722D01*
X158675300Y-72073656D01*
X158675300Y-70624308D01*
X158660766Y-70551242D01*
X158626762Y-70500350D01*
X158605402Y-70468382D01*
X158605399Y-70468379D01*
X158522542Y-70413017D01*
X158522540Y-70413016D01*
X158522537Y-70413015D01*
X158522536Y-70413015D01*
X158449484Y-70398483D01*
X158449474Y-70398482D01*
X157000126Y-70398482D01*
X157000125Y-70398482D01*
X157000115Y-70398483D01*
X156927063Y-70413015D01*
X156927057Y-70413017D01*
X156844200Y-70468379D01*
X156844197Y-70468382D01*
X156788835Y-70551239D01*
X156788833Y-70551245D01*
X156774301Y-70624297D01*
X156774300Y-70624309D01*
X155930418Y-70624309D01*
X156011083Y-70519185D01*
X156066552Y-70385269D01*
X156085472Y-70241560D01*
X156066552Y-70097851D01*
X156011083Y-69963935D01*
X155922843Y-69848939D01*
X155807847Y-69760699D01*
X155807843Y-69760697D01*
X155673931Y-69705230D01*
X155673930Y-69705229D01*
X155530222Y-69686310D01*
X155530217Y-69686310D01*
X155525985Y-69686867D01*
X155465825Y-69675715D01*
X155443062Y-69658718D01*
X154974638Y-69190294D01*
X154946861Y-69135777D01*
X154956432Y-69075345D01*
X154974638Y-69050286D01*
X155055594Y-68969329D01*
X155170491Y-68797374D01*
X155170498Y-68797360D01*
X155249650Y-68606272D01*
X155289999Y-68403418D01*
X155290000Y-68403413D01*
X155290000Y-68250001D01*
X155289999Y-68250000D01*
X154590012Y-68250000D01*
X154590012Y-67750000D01*
X155289999Y-67750000D01*
X155290000Y-67749999D01*
X155290000Y-67596586D01*
X155289999Y-67596581D01*
X155249650Y-67393727D01*
X155178518Y-67221999D01*
X155173717Y-67161002D01*
X155205687Y-67108833D01*
X155262215Y-67085418D01*
X155269982Y-67085113D01*
X157785908Y-67085113D01*
X157847481Y-67085113D01*
X157856109Y-67085490D01*
X158020903Y-67099907D01*
X158037883Y-67102900D01*
X158193496Y-67144597D01*
X158209702Y-67150496D01*
X158355699Y-67218577D01*
X158370637Y-67227201D01*
X158370715Y-67227256D01*
X158502592Y-67319597D01*
X158515812Y-67330690D01*
X158629715Y-67444594D01*
X158640807Y-67457813D01*
X158733199Y-67589764D01*
X158741828Y-67604709D01*
X158809906Y-67750704D01*
X158815808Y-67766921D01*
X158857497Y-67922516D01*
X158860493Y-67939510D01*
X158874922Y-68104448D01*
X158875299Y-68113076D01*
X158875299Y-68180673D01*
X158875313Y-68180896D01*
X158875436Y-68811471D01*
X158856540Y-68869665D01*
X158807047Y-68905639D01*
X158745862Y-68905651D01*
X158738551Y-68902954D01*
X158643709Y-68863670D01*
X158643708Y-68863669D01*
X158500000Y-68844750D01*
X158356291Y-68863669D01*
X158356290Y-68863670D01*
X158222378Y-68919137D01*
X158222374Y-68919139D01*
X158107381Y-69007377D01*
X158107377Y-69007381D01*
X158019139Y-69122374D01*
X158019137Y-69122378D01*
X157963670Y-69256290D01*
X157963669Y-69256291D01*
X157944750Y-69399999D01*
X157944750Y-69400000D01*
X157963669Y-69543708D01*
X157963670Y-69543709D01*
X158013619Y-69664300D01*
X158019139Y-69677625D01*
X158107379Y-69792621D01*
X158222375Y-69880861D01*
X158356291Y-69936330D01*
X158500000Y-69955250D01*
X158643709Y-69936330D01*
X158738782Y-69896949D01*
X158799776Y-69892149D01*
X158851945Y-69924119D01*
X158875360Y-69980646D01*
X158875665Y-69988395D01*
X158876278Y-73137442D01*
X158857382Y-73195636D01*
X158807889Y-73231610D01*
X158770425Y-73236224D01*
X158733662Y-73233672D01*
X158124799Y-73842535D01*
X158124799Y-73836321D01*
X158097540Y-73734588D01*
X158044879Y-73643377D01*
X157970405Y-73568903D01*
X157879194Y-73516242D01*
X157777461Y-73488983D01*
X157771243Y-73488983D01*
X158378126Y-72882100D01*
X158261986Y-72810188D01*
X158261980Y-72810185D01*
X158054599Y-72729845D01*
X157835996Y-72688982D01*
X157613604Y-72688982D01*
X157395000Y-72729845D01*
X157187621Y-72810184D01*
X157187616Y-72810187D01*
X157071472Y-72882100D01*
X157678355Y-73488983D01*
X157672139Y-73488983D01*
X157570406Y-73516242D01*
X157479195Y-73568903D01*
X157404721Y-73643377D01*
X157352060Y-73734588D01*
X157324801Y-73836321D01*
X157324801Y-73842537D01*
X156715937Y-73233673D01*
X156700168Y-73254556D01*
X156601039Y-73453634D01*
X156540179Y-73667536D01*
X156519659Y-73888982D01*
X156540179Y-74110427D01*
X156601039Y-74324329D01*
X156700164Y-74523399D01*
X156700169Y-74523408D01*
X156715938Y-74544288D01*
X157324801Y-73935425D01*
X157324801Y-73941643D01*
X157352060Y-74043376D01*
X157404721Y-74134587D01*
X157479195Y-74209061D01*
X157570406Y-74261722D01*
X157672139Y-74288981D01*
X157678353Y-74288981D01*
X157071472Y-74895862D01*
X157187613Y-74967775D01*
X157187619Y-74967778D01*
X157395000Y-75048118D01*
X157613604Y-75088982D01*
X157835996Y-75088982D01*
X158054599Y-75048118D01*
X158261980Y-74967778D01*
X158261981Y-74967778D01*
X158378126Y-74895862D01*
X157771245Y-74288981D01*
X157777461Y-74288981D01*
X157879194Y-74261722D01*
X157970405Y-74209061D01*
X158044879Y-74134587D01*
X158097540Y-74043376D01*
X158124799Y-73941643D01*
X158124799Y-73935427D01*
X158733661Y-74544289D01*
X158770716Y-74541718D01*
X158830076Y-74556550D01*
X158869381Y-74603441D01*
X158876571Y-74640461D01*
X158876917Y-76414130D01*
X158872541Y-76427605D01*
X158876922Y-76443736D01*
X158877413Y-78959164D01*
X158874522Y-78968066D01*
X158877416Y-78978722D01*
X158880580Y-95218063D01*
X158880203Y-95226708D01*
X158865711Y-95392395D01*
X158862715Y-95409391D01*
X158820785Y-95565883D01*
X158814883Y-95582099D01*
X158746418Y-95728928D01*
X158737790Y-95743873D01*
X158644867Y-95876584D01*
X158633774Y-95889804D01*
X158519221Y-96004360D01*
X158506002Y-96015453D01*
X158373289Y-96108381D01*
X158358344Y-96117009D01*
X158211521Y-96185475D01*
X158195304Y-96191378D01*
X158038810Y-96233311D01*
X158021816Y-96236307D01*
X157856463Y-96250774D01*
X157847834Y-96251151D01*
X142456439Y-96251151D01*
X142430818Y-96247778D01*
X142423694Y-96245869D01*
X142423692Y-96245869D01*
X142362119Y-96245869D01*
X142353491Y-96245492D01*
X142248506Y-96236307D01*
X142188705Y-96231075D01*
X142171711Y-96228079D01*
X142016113Y-96186386D01*
X141999896Y-96180483D01*
X141853907Y-96112406D01*
X141838965Y-96103780D01*
X141707008Y-96011380D01*
X141693796Y-96000293D01*
X141579890Y-95886384D01*
X141568802Y-95873169D01*
X141476410Y-95741214D01*
X141467782Y-95726270D01*
X141399708Y-95580281D01*
X141393806Y-95564064D01*
X141383473Y-95525498D01*
X141352117Y-95408467D01*
X141349122Y-95391475D01*
X141334677Y-95226327D01*
X141334300Y-95217698D01*
X141334301Y-95177621D01*
X141334302Y-95156487D01*
X141334300Y-95156482D01*
X141334301Y-95150435D01*
X141334300Y-95150401D01*
X141334300Y-92275001D01*
X143125001Y-92275001D01*
X143125001Y-92298322D01*
X143135142Y-92397597D01*
X143135145Y-92397609D01*
X143188454Y-92558487D01*
X143277425Y-92702729D01*
X143397269Y-92822573D01*
X143478551Y-92872709D01*
X143518152Y-92919350D01*
X143522775Y-92980360D01*
X143505832Y-93016297D01*
X143428373Y-93119771D01*
X143380587Y-93247887D01*
X143377533Y-93276304D01*
X143375516Y-93295070D01*
X143374500Y-93304518D01*
X143374500Y-93845478D01*
X143374501Y-93845484D01*
X143380587Y-93902111D01*
X143380587Y-93902112D01*
X143380588Y-93902114D01*
X143428372Y-94030226D01*
X143510313Y-94139687D01*
X143559828Y-94176753D01*
X143595082Y-94226762D01*
X143599500Y-94256007D01*
X143599500Y-94350096D01*
X143591965Y-94387978D01*
X143590163Y-94392331D01*
X143563669Y-94456293D01*
X143544750Y-94599999D01*
X143544750Y-94600000D01*
X143563669Y-94743708D01*
X143563670Y-94743709D01*
X143606636Y-94847441D01*
X143619139Y-94877625D01*
X143707379Y-94992621D01*
X143822375Y-95080861D01*
X143956291Y-95136330D01*
X144100000Y-95155250D01*
X144243709Y-95136330D01*
X144377625Y-95080861D01*
X144492621Y-94992621D01*
X144580861Y-94877625D01*
X144636330Y-94743709D01*
X144655250Y-94600000D01*
X144636330Y-94456291D01*
X144608034Y-94387978D01*
X144600500Y-94350096D01*
X144600500Y-94256007D01*
X144619407Y-94197816D01*
X144640172Y-94176753D01*
X144689687Y-94139687D01*
X144771628Y-94030226D01*
X144819412Y-93902114D01*
X144825500Y-93845485D01*
X144825499Y-93304516D01*
X144819412Y-93247886D01*
X144810763Y-93224699D01*
X144808142Y-93163573D01*
X144841952Y-93112577D01*
X144899279Y-93091194D01*
X144958227Y-93107591D01*
X144962850Y-93110850D01*
X144992909Y-93133352D01*
X144992911Y-93133353D01*
X145127618Y-93183596D01*
X145127629Y-93183598D01*
X145187176Y-93190000D01*
X145689651Y-93190000D01*
X145747842Y-93208907D01*
X145783806Y-93258407D01*
X145783806Y-93319593D01*
X145759656Y-93359001D01*
X145660586Y-93458072D01*
X145660585Y-93458073D01*
X145558766Y-93598214D01*
X145480125Y-93752558D01*
X145480123Y-93752561D01*
X145426598Y-93917293D01*
X145426597Y-93917297D01*
X145399500Y-94088385D01*
X145399500Y-94511614D01*
X145426597Y-94682702D01*
X145426598Y-94682706D01*
X145480123Y-94847438D01*
X145480125Y-94847441D01*
X145554097Y-94992622D01*
X145558768Y-95001788D01*
X145660586Y-95141928D01*
X145783072Y-95264414D01*
X145923212Y-95366232D01*
X146077555Y-95444873D01*
X146077557Y-95444873D01*
X146077558Y-95444874D01*
X146077561Y-95444876D01*
X146242293Y-95498401D01*
X146242297Y-95498402D01*
X146413386Y-95525500D01*
X146413389Y-95525500D01*
X146586614Y-95525500D01*
X146757702Y-95498402D01*
X146757706Y-95498401D01*
X146922438Y-95444876D01*
X146922440Y-95444874D01*
X146922445Y-95444873D01*
X147076788Y-95366232D01*
X147216928Y-95264414D01*
X147339414Y-95141928D01*
X147441232Y-95001788D01*
X147519873Y-94847445D01*
X147519874Y-94847440D01*
X147519876Y-94847438D01*
X147573401Y-94682706D01*
X147573402Y-94682702D01*
X147600500Y-94511614D01*
X147600500Y-94088385D01*
X147573402Y-93917297D01*
X147573401Y-93917293D01*
X147519876Y-93752561D01*
X147519874Y-93752558D01*
X147519873Y-93752557D01*
X147519873Y-93752555D01*
X147441232Y-93598212D01*
X147339414Y-93458072D01*
X147216928Y-93335586D01*
X147076788Y-93233768D01*
X147076787Y-93233767D01*
X147076785Y-93233766D01*
X146922441Y-93155125D01*
X146922438Y-93155123D01*
X146827934Y-93124417D01*
X146778434Y-93088453D01*
X146759527Y-93030262D01*
X146778435Y-92972072D01*
X146779274Y-92970933D01*
X146808352Y-92932090D01*
X146843610Y-92837556D01*
X146881661Y-92789641D01*
X146940607Y-92773243D01*
X146997935Y-92794624D01*
X147018685Y-92817151D01*
X147054397Y-92870599D01*
X147054400Y-92870602D01*
X147127358Y-92919350D01*
X147137260Y-92925966D01*
X147179439Y-92934356D01*
X147210315Y-92940498D01*
X147210320Y-92940498D01*
X147210326Y-92940500D01*
X147210327Y-92940500D01*
X148350500Y-92940500D01*
X148408691Y-92959407D01*
X148444655Y-93008907D01*
X148449500Y-93039500D01*
X148449500Y-93164225D01*
X148430593Y-93222416D01*
X148408691Y-93244317D01*
X148283077Y-93335581D01*
X148160585Y-93458073D01*
X148058766Y-93598214D01*
X147980125Y-93752558D01*
X147980123Y-93752561D01*
X147926598Y-93917293D01*
X147926597Y-93917297D01*
X147899500Y-94088385D01*
X147899500Y-94511614D01*
X147926597Y-94682702D01*
X147926598Y-94682706D01*
X147980123Y-94847438D01*
X147980125Y-94847441D01*
X148054097Y-94992622D01*
X148058768Y-95001788D01*
X148160586Y-95141928D01*
X148283072Y-95264414D01*
X148423212Y-95366232D01*
X148577555Y-95444873D01*
X148577557Y-95444873D01*
X148577558Y-95444874D01*
X148577561Y-95444876D01*
X148742293Y-95498401D01*
X148742297Y-95498402D01*
X148913386Y-95525500D01*
X148913389Y-95525500D01*
X149086614Y-95525500D01*
X149257702Y-95498402D01*
X149257706Y-95498401D01*
X149422438Y-95444876D01*
X149422440Y-95444874D01*
X149422445Y-95444873D01*
X149576788Y-95366232D01*
X149716928Y-95264414D01*
X149839414Y-95141928D01*
X149941232Y-95001788D01*
X150019873Y-94847445D01*
X150019874Y-94847440D01*
X150019876Y-94847438D01*
X150073401Y-94682706D01*
X150073402Y-94682702D01*
X150100500Y-94511614D01*
X150100500Y-94088385D01*
X150073402Y-93917297D01*
X150073401Y-93917293D01*
X150019876Y-93752561D01*
X150019874Y-93752558D01*
X150019873Y-93752557D01*
X150019873Y-93752555D01*
X149941232Y-93598212D01*
X149839414Y-93458072D01*
X149716928Y-93335586D01*
X149716924Y-93335583D01*
X149716922Y-93335581D01*
X149591309Y-93244317D01*
X149555345Y-93194817D01*
X149550500Y-93164225D01*
X149550500Y-92269032D01*
X149569407Y-92210841D01*
X149579490Y-92199034D01*
X149740510Y-92038015D01*
X149812984Y-91912485D01*
X149819541Y-91888015D01*
X149819542Y-91888013D01*
X149849823Y-91775000D01*
X149850500Y-91772475D01*
X149850500Y-90127525D01*
X149850500Y-90121036D01*
X149853043Y-90121036D01*
X149862186Y-90071601D01*
X149879199Y-90048809D01*
X150091301Y-89836709D01*
X150150611Y-89733982D01*
X150181311Y-89619404D01*
X150181311Y-89583596D01*
X150200218Y-89525405D01*
X150249718Y-89489441D01*
X150310904Y-89489441D01*
X150360404Y-89525405D01*
X150375936Y-89557970D01*
X150379818Y-89572457D01*
X150380202Y-89573891D01*
X150439507Y-89676609D01*
X150439509Y-89676611D01*
X150439511Y-89676614D01*
X150470505Y-89707608D01*
X150498281Y-89762123D01*
X150499500Y-89777610D01*
X150499500Y-89852761D01*
X150486237Y-89902260D01*
X150437016Y-89987513D01*
X150399500Y-90127525D01*
X150399500Y-91622477D01*
X150410086Y-91661983D01*
X150410086Y-91661984D01*
X150410087Y-91661984D01*
X150410087Y-91661985D01*
X150437016Y-91762485D01*
X150509490Y-91888015D01*
X150820505Y-92199030D01*
X150848281Y-92253545D01*
X150849500Y-92269032D01*
X150849500Y-93236879D01*
X150830593Y-93295070D01*
X150808693Y-93316970D01*
X150783076Y-93335582D01*
X150660585Y-93458073D01*
X150558766Y-93598214D01*
X150480125Y-93752558D01*
X150480123Y-93752561D01*
X150426598Y-93917293D01*
X150426597Y-93917297D01*
X150399500Y-94088385D01*
X150399500Y-94511614D01*
X150426597Y-94682702D01*
X150426598Y-94682706D01*
X150480123Y-94847438D01*
X150480125Y-94847441D01*
X150554097Y-94992622D01*
X150558768Y-95001788D01*
X150660586Y-95141928D01*
X150783072Y-95264414D01*
X150923212Y-95366232D01*
X151077555Y-95444873D01*
X151077557Y-95444873D01*
X151077558Y-95444874D01*
X151077561Y-95444876D01*
X151242293Y-95498401D01*
X151242297Y-95498402D01*
X151413386Y-95525500D01*
X151413389Y-95525500D01*
X151586614Y-95525500D01*
X151757702Y-95498402D01*
X151757706Y-95498401D01*
X151922438Y-95444876D01*
X151922440Y-95444874D01*
X151922445Y-95444873D01*
X152076788Y-95366232D01*
X152216928Y-95264414D01*
X152339414Y-95141928D01*
X152441232Y-95001788D01*
X152519873Y-94847445D01*
X152519874Y-94847440D01*
X152519876Y-94847438D01*
X152573401Y-94682706D01*
X152573402Y-94682702D01*
X152600500Y-94511614D01*
X152600500Y-94088385D01*
X152573402Y-93917297D01*
X152573401Y-93917293D01*
X152519876Y-93752561D01*
X152519874Y-93752558D01*
X152519873Y-93752557D01*
X152519873Y-93752555D01*
X152441232Y-93598212D01*
X152339414Y-93458072D01*
X152216928Y-93335586D01*
X152076788Y-93233768D01*
X152076784Y-93233765D01*
X152076777Y-93233761D01*
X152004555Y-93196962D01*
X151961290Y-93153698D01*
X151950500Y-93108753D01*
X151950500Y-93039500D01*
X151969407Y-92981309D01*
X152018907Y-92945345D01*
X152049500Y-92940500D01*
X153120245Y-92940500D01*
X153178436Y-92959407D01*
X153214400Y-93008907D01*
X153214400Y-93070093D01*
X153178436Y-93119593D01*
X153163714Y-93127495D01*
X153163885Y-93127809D01*
X153157671Y-93131201D01*
X153042458Y-93217450D01*
X153042450Y-93217458D01*
X152956202Y-93332670D01*
X152905910Y-93467511D01*
X152905908Y-93467522D01*
X152899500Y-93527129D01*
X152899500Y-95072866D01*
X152899501Y-95072870D01*
X152905908Y-95132480D01*
X152905909Y-95132485D01*
X152956202Y-95267329D01*
X153041193Y-95380862D01*
X153042454Y-95382546D01*
X153042457Y-95382548D01*
X153042458Y-95382549D01*
X153157670Y-95468797D01*
X153292511Y-95519089D01*
X153292512Y-95519089D01*
X153292517Y-95519091D01*
X153352127Y-95525500D01*
X154647872Y-95525499D01*
X154707483Y-95519091D01*
X154774907Y-95493943D01*
X154842329Y-95468797D01*
X154842329Y-95468796D01*
X154842331Y-95468796D01*
X154957546Y-95382546D01*
X155043796Y-95267331D01*
X155058948Y-95226708D01*
X155085141Y-95156479D01*
X155094091Y-95132483D01*
X155100500Y-95072873D01*
X155100499Y-93527128D01*
X155094091Y-93467517D01*
X155071770Y-93407670D01*
X155041322Y-93326034D01*
X155043732Y-93325134D01*
X155034566Y-93276304D01*
X155060780Y-93221018D01*
X155114484Y-93191700D01*
X155132749Y-93190000D01*
X155212824Y-93190000D01*
X155272370Y-93183598D01*
X155272381Y-93183596D01*
X155407088Y-93133353D01*
X155407090Y-93133352D01*
X155522184Y-93047192D01*
X155522192Y-93047184D01*
X155608352Y-92932090D01*
X155608353Y-92932088D01*
X155646359Y-92830189D01*
X155684409Y-92782274D01*
X155743356Y-92765876D01*
X155800684Y-92787257D01*
X155809121Y-92794781D01*
X155856659Y-92842319D01*
X156005875Y-92934356D01*
X156165552Y-92987268D01*
X156214842Y-93023519D01*
X156233410Y-93081819D01*
X156214165Y-93139899D01*
X156169009Y-93174001D01*
X156082669Y-93206203D01*
X155967458Y-93292450D01*
X155967450Y-93292458D01*
X155881202Y-93407670D01*
X155830910Y-93542511D01*
X155830908Y-93542522D01*
X155824500Y-93602129D01*
X155824500Y-94197866D01*
X155824501Y-94197870D01*
X155830908Y-94257480D01*
X155830909Y-94257485D01*
X155881202Y-94392329D01*
X155929084Y-94456291D01*
X155967454Y-94507546D01*
X155967457Y-94507548D01*
X155967458Y-94507549D01*
X156082670Y-94593797D01*
X156153589Y-94620247D01*
X156202486Y-94638484D01*
X156250400Y-94676534D01*
X156266798Y-94735481D01*
X156264061Y-94753318D01*
X156244750Y-94899999D01*
X156244750Y-94900000D01*
X156263669Y-95043708D01*
X156263670Y-95043709D01*
X156307876Y-95150435D01*
X156319139Y-95177625D01*
X156407379Y-95292621D01*
X156522375Y-95380861D01*
X156656291Y-95436330D01*
X156800000Y-95455250D01*
X156943709Y-95436330D01*
X157077625Y-95380861D01*
X157192621Y-95292621D01*
X157280861Y-95177625D01*
X157336330Y-95043709D01*
X157355250Y-94900000D01*
X157336330Y-94756291D01*
X157336329Y-94756290D01*
X157335483Y-94749858D01*
X157336861Y-94749676D01*
X157339684Y-94695768D01*
X157378187Y-94648216D01*
X157397500Y-94638489D01*
X157517331Y-94593796D01*
X157632546Y-94507546D01*
X157718796Y-94392331D01*
X157769091Y-94257483D01*
X157775500Y-94197873D01*
X157775499Y-93602128D01*
X157769091Y-93542517D01*
X157741116Y-93467511D01*
X157718797Y-93407670D01*
X157632549Y-93292458D01*
X157632548Y-93292457D01*
X157632546Y-93292454D01*
X157625692Y-93287323D01*
X157517329Y-93206202D01*
X157430991Y-93174001D01*
X157383076Y-93135951D01*
X157366678Y-93077004D01*
X157388059Y-93019676D01*
X157434447Y-92987268D01*
X157594124Y-92934356D01*
X157743340Y-92842319D01*
X157867319Y-92718340D01*
X157959356Y-92569124D01*
X158014506Y-92402693D01*
X158025000Y-92299987D01*
X158025000Y-92250001D01*
X158024999Y-92250000D01*
X154699000Y-92250000D01*
X154640809Y-92231093D01*
X154604845Y-92181593D01*
X154600000Y-92151000D01*
X154600000Y-92000001D01*
X154599999Y-92000000D01*
X154449000Y-92000000D01*
X154390809Y-91981093D01*
X154354845Y-91931593D01*
X154350000Y-91901000D01*
X154350000Y-90810001D01*
X154850000Y-90810001D01*
X154850000Y-91749999D01*
X154850001Y-91750000D01*
X156549999Y-91750000D01*
X156550000Y-91749999D01*
X156550000Y-91000001D01*
X157050000Y-91000001D01*
X157050000Y-91749999D01*
X157050001Y-91750000D01*
X158024998Y-91750000D01*
X158024999Y-91749999D01*
X158024999Y-91700013D01*
X158014507Y-91597312D01*
X158014504Y-91597300D01*
X157959356Y-91430875D01*
X157867319Y-91281659D01*
X157743340Y-91157680D01*
X157594124Y-91065643D01*
X157427693Y-91010493D01*
X157324987Y-91000000D01*
X157050001Y-91000000D01*
X157050000Y-91000001D01*
X156550000Y-91000001D01*
X156549999Y-91000000D01*
X156275013Y-91000000D01*
X156172312Y-91010492D01*
X156172300Y-91010495D01*
X156005875Y-91065643D01*
X155856658Y-91157681D01*
X155856655Y-91157683D01*
X155809120Y-91205218D01*
X155754603Y-91232995D01*
X155694171Y-91223423D01*
X155650907Y-91180158D01*
X155646359Y-91169810D01*
X155608353Y-91067911D01*
X155608352Y-91067909D01*
X155522192Y-90952815D01*
X155522184Y-90952807D01*
X155407090Y-90866647D01*
X155407088Y-90866646D01*
X155272381Y-90816403D01*
X155272370Y-90816401D01*
X155212824Y-90810000D01*
X154850001Y-90810000D01*
X154850000Y-90810001D01*
X154350000Y-90810001D01*
X154349999Y-90810000D01*
X153987176Y-90810000D01*
X153927629Y-90816401D01*
X153927618Y-90816403D01*
X153792911Y-90866646D01*
X153792909Y-90866647D01*
X153677815Y-90952807D01*
X153677807Y-90952815D01*
X153591647Y-91067909D01*
X153556388Y-91162444D01*
X153518337Y-91210358D01*
X153459390Y-91226756D01*
X153402063Y-91205374D01*
X153381314Y-91182847D01*
X153345604Y-91129402D01*
X153345598Y-91129396D01*
X153327956Y-91117608D01*
X153290077Y-91069558D01*
X153287675Y-91008420D01*
X153297745Y-90984897D01*
X153362031Y-90876195D01*
X153404504Y-90730000D01*
X152699000Y-90730000D01*
X152640809Y-90711093D01*
X152604845Y-90661593D01*
X152600000Y-90631000D01*
X152600000Y-90329000D01*
X152618907Y-90270809D01*
X152668407Y-90234845D01*
X152699000Y-90230000D01*
X152749557Y-90230000D01*
X152807748Y-90248907D01*
X152828099Y-90268733D01*
X152846429Y-90292622D01*
X152849852Y-90297082D01*
X152964848Y-90385322D01*
X153098764Y-90440791D01*
X153242473Y-90459711D01*
X153386182Y-90440791D01*
X153520098Y-90385322D01*
X153635094Y-90297082D01*
X153692410Y-90222385D01*
X153742831Y-90187733D01*
X153803995Y-90189334D01*
X153852537Y-90226581D01*
X153856684Y-90233154D01*
X153859490Y-90238014D01*
X153880635Y-90259159D01*
X153889173Y-90268895D01*
X153907378Y-90292620D01*
X153907379Y-90292621D01*
X153928370Y-90308728D01*
X153931099Y-90310822D01*
X153940834Y-90319359D01*
X153961983Y-90340507D01*
X153961985Y-90340509D01*
X153987888Y-90355464D01*
X153998642Y-90362650D01*
X154022375Y-90380861D01*
X154049995Y-90392301D01*
X154050007Y-90392306D01*
X154061623Y-90398035D01*
X154087510Y-90412982D01*
X154087513Y-90412983D01*
X154087515Y-90412984D01*
X154116408Y-90420725D01*
X154128666Y-90424887D01*
X154156288Y-90436329D01*
X154156291Y-90436330D01*
X154185934Y-90440232D01*
X154198623Y-90442755D01*
X154227525Y-90450500D01*
X154257432Y-90450500D01*
X154270354Y-90451347D01*
X154300000Y-90455250D01*
X154329646Y-90451347D01*
X154342568Y-90450500D01*
X154372474Y-90450500D01*
X154372475Y-90450500D01*
X154401372Y-90442756D01*
X154414066Y-90440231D01*
X154443709Y-90436330D01*
X154471349Y-90424880D01*
X154483589Y-90420725D01*
X154512485Y-90412984D01*
X154524649Y-90405960D01*
X154538382Y-90398032D01*
X154549994Y-90392305D01*
X154577625Y-90380861D01*
X154601358Y-90362649D01*
X154612105Y-90355467D01*
X154638015Y-90340509D01*
X154659158Y-90319364D01*
X154668896Y-90310825D01*
X154668900Y-90310822D01*
X154692621Y-90292621D01*
X154710826Y-90268894D01*
X154719366Y-90259157D01*
X154721660Y-90256863D01*
X154740509Y-90238015D01*
X154755467Y-90212105D01*
X154762649Y-90201358D01*
X154780861Y-90177625D01*
X154792305Y-90149994D01*
X154798032Y-90138382D01*
X154812982Y-90112488D01*
X154812984Y-90112485D01*
X154820725Y-90083589D01*
X154824880Y-90071349D01*
X154836330Y-90043709D01*
X154840232Y-90014064D01*
X154842758Y-90001365D01*
X154850500Y-89972475D01*
X154850500Y-89942567D01*
X154851347Y-89929644D01*
X154855250Y-89899999D01*
X154851347Y-89870353D01*
X154850500Y-89857431D01*
X154850500Y-89399999D01*
X155444750Y-89399999D01*
X155444750Y-89400000D01*
X155463669Y-89543708D01*
X155463670Y-89543709D01*
X155495022Y-89619402D01*
X155519139Y-89677625D01*
X155519141Y-89677627D01*
X155528431Y-89689735D01*
X155548853Y-89747412D01*
X155531473Y-89806077D01*
X155528431Y-89810265D01*
X155519139Y-89822375D01*
X155519137Y-89822378D01*
X155463670Y-89956290D01*
X155463669Y-89956291D01*
X155444750Y-90099999D01*
X155444750Y-90100000D01*
X155463669Y-90243708D01*
X155463670Y-90243709D01*
X155511301Y-90358704D01*
X155519139Y-90377625D01*
X155607379Y-90492621D01*
X155722375Y-90580861D01*
X155856291Y-90636330D01*
X156000000Y-90655250D01*
X156143709Y-90636330D01*
X156277625Y-90580861D01*
X156293350Y-90568794D01*
X156351025Y-90548370D01*
X156409691Y-90565747D01*
X156413886Y-90568795D01*
X156431169Y-90582057D01*
X156431171Y-90582058D01*
X156431175Y-90582061D01*
X156565091Y-90637530D01*
X156708800Y-90656450D01*
X156852509Y-90637530D01*
X156986425Y-90582061D01*
X156994910Y-90575549D01*
X157052582Y-90555122D01*
X157111249Y-90572495D01*
X157115444Y-90575542D01*
X157122375Y-90580861D01*
X157256291Y-90636330D01*
X157400000Y-90655250D01*
X157543709Y-90636330D01*
X157677625Y-90580861D01*
X157792621Y-90492621D01*
X157880861Y-90377625D01*
X157936330Y-90243709D01*
X157955250Y-90100000D01*
X157953090Y-90083597D01*
X157936330Y-89956291D01*
X157880861Y-89822375D01*
X157871571Y-89810269D01*
X157851146Y-89752594D01*
X157868522Y-89693928D01*
X157871565Y-89689739D01*
X157880861Y-89677625D01*
X157936330Y-89543709D01*
X157955250Y-89400000D01*
X157953655Y-89387888D01*
X157936330Y-89256291D01*
X157880861Y-89122375D01*
X157871571Y-89110269D01*
X157851146Y-89052594D01*
X157868522Y-88993928D01*
X157871572Y-88989730D01*
X157880859Y-88977627D01*
X157880861Y-88977625D01*
X157936330Y-88843709D01*
X157955250Y-88700000D01*
X157936330Y-88556291D01*
X157880861Y-88422375D01*
X157792621Y-88307379D01*
X157677625Y-88219139D01*
X157677621Y-88219137D01*
X157543709Y-88163670D01*
X157543708Y-88163669D01*
X157400000Y-88144750D01*
X157256291Y-88163669D01*
X157256290Y-88163670D01*
X157122378Y-88219137D01*
X157122370Y-88219141D01*
X157113882Y-88225655D01*
X157056206Y-88246077D01*
X156997541Y-88228697D01*
X156993354Y-88225655D01*
X156986429Y-88220341D01*
X156986421Y-88220337D01*
X156852509Y-88164870D01*
X156852508Y-88164869D01*
X156708800Y-88145950D01*
X156565091Y-88164869D01*
X156565090Y-88164870D01*
X156431178Y-88220337D01*
X156431174Y-88220339D01*
X156419666Y-88229170D01*
X156361989Y-88249593D01*
X156303324Y-88232214D01*
X156299134Y-88229170D01*
X156287625Y-88220339D01*
X156287621Y-88220337D01*
X156153709Y-88164870D01*
X156153708Y-88164869D01*
X156010000Y-88145950D01*
X155866291Y-88164869D01*
X155866290Y-88164870D01*
X155732378Y-88220337D01*
X155732374Y-88220339D01*
X155617381Y-88308577D01*
X155617377Y-88308581D01*
X155529139Y-88423574D01*
X155529137Y-88423578D01*
X155473670Y-88557490D01*
X155473669Y-88557491D01*
X155454750Y-88701199D01*
X155454750Y-88701200D01*
X155473669Y-88844908D01*
X155473670Y-88844909D01*
X155529137Y-88978821D01*
X155529139Y-88978825D01*
X155532969Y-88983816D01*
X155553393Y-89041492D01*
X155536016Y-89100158D01*
X155532970Y-89104350D01*
X155519139Y-89122374D01*
X155519137Y-89122378D01*
X155463670Y-89256290D01*
X155463669Y-89256291D01*
X155444750Y-89399999D01*
X154850500Y-89399999D01*
X154850500Y-89227525D01*
X154832938Y-89161985D01*
X154812984Y-89087515D01*
X154797180Y-89060141D01*
X154740510Y-88961985D01*
X153350691Y-87572166D01*
X153322914Y-87517649D01*
X153332485Y-87457217D01*
X153350693Y-87432157D01*
X153354278Y-87428573D01*
X153405688Y-87339528D01*
X153432300Y-87240210D01*
X153432300Y-87137390D01*
X153405688Y-87038072D01*
X153376951Y-86988299D01*
X153364230Y-86928452D01*
X153376952Y-86889300D01*
X153384445Y-86876322D01*
X153405688Y-86839528D01*
X153432300Y-86740210D01*
X153432300Y-86637390D01*
X153419328Y-86588977D01*
X156769701Y-86588977D01*
X156769701Y-86588986D01*
X156788051Y-86775307D01*
X156788052Y-86775310D01*
X156842405Y-86954486D01*
X156842406Y-86954488D01*
X156930659Y-87119599D01*
X156930662Y-87119604D01*
X156930664Y-87119607D01*
X156945259Y-87137391D01*
X157049438Y-87264334D01*
X157049447Y-87264343D01*
X157116945Y-87319737D01*
X157194175Y-87383118D01*
X157194180Y-87383120D01*
X157194182Y-87383122D01*
X157359293Y-87471375D01*
X157359299Y-87471378D01*
X157538469Y-87525729D01*
X157538471Y-87525729D01*
X157538474Y-87525730D01*
X157724796Y-87544081D01*
X157724800Y-87544081D01*
X157724804Y-87544081D01*
X157911125Y-87525730D01*
X157911126Y-87525729D01*
X157911131Y-87525729D01*
X158090301Y-87471378D01*
X158255425Y-87383118D01*
X158400157Y-87264339D01*
X158518936Y-87119607D01*
X158607196Y-86954483D01*
X158661547Y-86775313D01*
X158665005Y-86740210D01*
X158679899Y-86588986D01*
X158679899Y-86588977D01*
X158661548Y-86402656D01*
X158661547Y-86402653D01*
X158661547Y-86402651D01*
X158607196Y-86223481D01*
X158547438Y-86111681D01*
X158518940Y-86058364D01*
X158518938Y-86058362D01*
X158518936Y-86058357D01*
X158429211Y-85949027D01*
X158400161Y-85913629D01*
X158400152Y-85913620D01*
X158284753Y-85818915D01*
X158255425Y-85794846D01*
X158255422Y-85794844D01*
X158255417Y-85794841D01*
X158090306Y-85706588D01*
X158090304Y-85706587D01*
X158047640Y-85693645D01*
X157911131Y-85652235D01*
X157911128Y-85652234D01*
X157911125Y-85652233D01*
X157724804Y-85633883D01*
X157724796Y-85633883D01*
X157538474Y-85652233D01*
X157538471Y-85652234D01*
X157359295Y-85706587D01*
X157359293Y-85706588D01*
X157194182Y-85794841D01*
X157194176Y-85794845D01*
X157049447Y-85913620D01*
X157049438Y-85913629D01*
X156930663Y-86058358D01*
X156930659Y-86058364D01*
X156842406Y-86223475D01*
X156842405Y-86223477D01*
X156788052Y-86402653D01*
X156788051Y-86402656D01*
X156769701Y-86588977D01*
X153419328Y-86588977D01*
X153405688Y-86538072D01*
X153376951Y-86488299D01*
X153364230Y-86428452D01*
X153376952Y-86389300D01*
X153378317Y-86386936D01*
X153405688Y-86339528D01*
X153432300Y-86240210D01*
X153432300Y-86240207D01*
X153433147Y-86233776D01*
X153435646Y-86234105D01*
X153451207Y-86186213D01*
X153461297Y-86174400D01*
X153538913Y-86096784D01*
X153538921Y-86096775D01*
X153608957Y-85991960D01*
X153608963Y-85991949D01*
X153657204Y-85875481D01*
X153666491Y-85828800D01*
X153220071Y-85828800D01*
X153194448Y-85825427D01*
X153192529Y-85824913D01*
X153192528Y-85824912D01*
X153093210Y-85798300D01*
X152370390Y-85798300D01*
X152271072Y-85824912D01*
X152182024Y-85876324D01*
X152148544Y-85909804D01*
X152094027Y-85937581D01*
X152078541Y-85938800D01*
X150481801Y-85938800D01*
X150481800Y-85938801D01*
X150481800Y-87535541D01*
X150462893Y-87593732D01*
X150452804Y-87605544D01*
X150419324Y-87639024D01*
X150419322Y-87639026D01*
X150419322Y-87639027D01*
X150367912Y-87728072D01*
X150358906Y-87761685D01*
X150341300Y-87827391D01*
X150341300Y-88083018D01*
X150337927Y-88108639D01*
X150330312Y-88137058D01*
X150330312Y-88242516D01*
X150330453Y-88243588D01*
X150331300Y-88256509D01*
X150331300Y-89329697D01*
X150312393Y-89387888D01*
X150262893Y-89423852D01*
X150201707Y-89423852D01*
X150152207Y-89387888D01*
X150146565Y-89379200D01*
X150144577Y-89375757D01*
X150131312Y-89326254D01*
X150131312Y-88789990D01*
X150107521Y-88701199D01*
X150104019Y-88688129D01*
X150104018Y-88688127D01*
X150102339Y-88681861D01*
X150104709Y-88681225D01*
X150100738Y-88630812D01*
X150101361Y-88628353D01*
X150122300Y-88550210D01*
X150122300Y-87827390D01*
X150095688Y-87728072D01*
X150044278Y-87639027D01*
X150032777Y-87627526D01*
X150010796Y-87605544D01*
X149983019Y-87551027D01*
X149981800Y-87535541D01*
X149981800Y-85787800D01*
X150000707Y-85729609D01*
X150050207Y-85693645D01*
X150080800Y-85688800D01*
X150231799Y-85688800D01*
X150231800Y-85688799D01*
X150231800Y-85537800D01*
X150250707Y-85479609D01*
X150300207Y-85443645D01*
X150330800Y-85438800D01*
X152078541Y-85438800D01*
X152136732Y-85457707D01*
X152148544Y-85467796D01*
X152181117Y-85500368D01*
X152182027Y-85501278D01*
X152271072Y-85552688D01*
X152370390Y-85579300D01*
X152370392Y-85579300D01*
X153093208Y-85579300D01*
X153093210Y-85579300D01*
X153192528Y-85552688D01*
X153192529Y-85552686D01*
X153194448Y-85552173D01*
X153220071Y-85548800D01*
X153666491Y-85548800D01*
X153657204Y-85502118D01*
X153608963Y-85385650D01*
X153608957Y-85385639D01*
X153538921Y-85280824D01*
X153461296Y-85203199D01*
X153433519Y-85148682D01*
X153433121Y-85143628D01*
X153432300Y-85137392D01*
X153432300Y-85137390D01*
X153405688Y-85038072D01*
X153376951Y-84988299D01*
X153364230Y-84928452D01*
X153376952Y-84889300D01*
X153389044Y-84868356D01*
X153405688Y-84839528D01*
X153432300Y-84740210D01*
X153432300Y-84638300D01*
X153451207Y-84580109D01*
X153500707Y-84544145D01*
X153531300Y-84539300D01*
X153591655Y-84539300D01*
X153649846Y-84558207D01*
X153679864Y-84593354D01*
X153730445Y-84692623D01*
X153736941Y-84705373D01*
X153817305Y-84785737D01*
X153845081Y-84840252D01*
X153846300Y-84855739D01*
X153846300Y-85160149D01*
X153863458Y-85224187D01*
X153870186Y-85249295D01*
X153870187Y-85249297D01*
X153916328Y-85329215D01*
X153916330Y-85329218D01*
X154166412Y-85579300D01*
X154406027Y-85818915D01*
X154433804Y-85873432D01*
X154434176Y-85901838D01*
X154433619Y-85906069D01*
X154433619Y-85906075D01*
X154452538Y-86049783D01*
X154452539Y-86049784D01*
X154505223Y-86176978D01*
X154508008Y-86183700D01*
X154596248Y-86298696D01*
X154711244Y-86386936D01*
X154845160Y-86442405D01*
X154988869Y-86461325D01*
X155132578Y-86442405D01*
X155266494Y-86386936D01*
X155381490Y-86298696D01*
X155469730Y-86183700D01*
X155525199Y-86049784D01*
X155544119Y-85906075D01*
X155533433Y-85824912D01*
X155525199Y-85762366D01*
X155469730Y-85628450D01*
X155381490Y-85513454D01*
X155266494Y-85425214D01*
X155266490Y-85425212D01*
X155132578Y-85369745D01*
X155132577Y-85369744D01*
X154988869Y-85350825D01*
X154988864Y-85350825D01*
X154984632Y-85351382D01*
X154924472Y-85340230D01*
X154901709Y-85323233D01*
X154861338Y-85282862D01*
X154833561Y-85228345D01*
X154843132Y-85167913D01*
X154871901Y-85133689D01*
X154906800Y-85107486D01*
X154906800Y-84552983D01*
X155406800Y-84552983D01*
X155406800Y-85107486D01*
X155552997Y-85065012D01*
X155552998Y-85065012D01*
X155692174Y-84982703D01*
X155806521Y-84868356D01*
X155888830Y-84729180D01*
X155888830Y-84729179D01*
X155933944Y-84573894D01*
X155935591Y-84552982D01*
X155406801Y-84552982D01*
X155406800Y-84552983D01*
X154906800Y-84552983D01*
X154906800Y-84052981D01*
X155406800Y-84052981D01*
X155406801Y-84052982D01*
X155935589Y-84052982D01*
X155935274Y-84048977D01*
X156769701Y-84048977D01*
X156769701Y-84048986D01*
X156788051Y-84235307D01*
X156788052Y-84235310D01*
X156788053Y-84235313D01*
X156819666Y-84339528D01*
X156842405Y-84414486D01*
X156842406Y-84414488D01*
X156930659Y-84579599D01*
X156930662Y-84579604D01*
X156930664Y-84579607D01*
X156978832Y-84638300D01*
X157049438Y-84724334D01*
X157049447Y-84724343D01*
X157116945Y-84779737D01*
X157194175Y-84843118D01*
X157194180Y-84843120D01*
X157194182Y-84843122D01*
X157354051Y-84928573D01*
X157359299Y-84931378D01*
X157538469Y-84985729D01*
X157538471Y-84985729D01*
X157538474Y-84985730D01*
X157724796Y-85004081D01*
X157724800Y-85004081D01*
X157724804Y-85004081D01*
X157911125Y-84985730D01*
X157911126Y-84985729D01*
X157911131Y-84985729D01*
X158090301Y-84931378D01*
X158255425Y-84843118D01*
X158400157Y-84724339D01*
X158518936Y-84579607D01*
X158607196Y-84414483D01*
X158661547Y-84235313D01*
X158662930Y-84221280D01*
X158679899Y-84048986D01*
X158679899Y-84048977D01*
X158661548Y-83862656D01*
X158661547Y-83862653D01*
X158661547Y-83862651D01*
X158607196Y-83683481D01*
X158602558Y-83674804D01*
X158518940Y-83518364D01*
X158518938Y-83518362D01*
X158518936Y-83518357D01*
X158429955Y-83409934D01*
X158400161Y-83373629D01*
X158400152Y-83373620D01*
X158305003Y-83295534D01*
X158255425Y-83254846D01*
X158255422Y-83254844D01*
X158255417Y-83254841D01*
X158090306Y-83166588D01*
X158090304Y-83166587D01*
X157911128Y-83112234D01*
X157911125Y-83112233D01*
X157724804Y-83093883D01*
X157724796Y-83093883D01*
X157538474Y-83112233D01*
X157538471Y-83112234D01*
X157359295Y-83166587D01*
X157359293Y-83166588D01*
X157194182Y-83254841D01*
X157194176Y-83254845D01*
X157049447Y-83373620D01*
X157049438Y-83373629D01*
X156930663Y-83518358D01*
X156930659Y-83518364D01*
X156842406Y-83683475D01*
X156842405Y-83683477D01*
X156788052Y-83862653D01*
X156788051Y-83862656D01*
X156769701Y-84048977D01*
X155935274Y-84048977D01*
X155933944Y-84032069D01*
X155933943Y-84032061D01*
X155888830Y-83876784D01*
X155888830Y-83876783D01*
X155806521Y-83737607D01*
X155692174Y-83623260D01*
X155552998Y-83540951D01*
X155552994Y-83540950D01*
X155406800Y-83498476D01*
X155406800Y-84052981D01*
X154906800Y-84052981D01*
X154906800Y-83498475D01*
X154842182Y-83517249D01*
X154781027Y-83515327D01*
X154732681Y-83477826D01*
X154716410Y-83435104D01*
X154705110Y-83349274D01*
X154649641Y-83215358D01*
X154561401Y-83100362D01*
X154561400Y-83100361D01*
X154561397Y-83100357D01*
X154510032Y-83060943D01*
X154475377Y-83010518D01*
X154471300Y-82982402D01*
X154471300Y-82524981D01*
X155391550Y-82524981D01*
X155391550Y-82524982D01*
X155410469Y-82668690D01*
X155410470Y-82668691D01*
X155463984Y-82797889D01*
X155465939Y-82802607D01*
X155554179Y-82917603D01*
X155669175Y-83005843D01*
X155803091Y-83061312D01*
X155946800Y-83080232D01*
X156090509Y-83061312D01*
X156224425Y-83005843D01*
X156339421Y-82917603D01*
X156427661Y-82802607D01*
X156483130Y-82668691D01*
X156502050Y-82524982D01*
X156496158Y-82480232D01*
X156483130Y-82381273D01*
X156427661Y-82247357D01*
X156339421Y-82132361D01*
X156224425Y-82044121D01*
X156224421Y-82044119D01*
X156090509Y-81988652D01*
X156090508Y-81988651D01*
X155946800Y-81969732D01*
X155803091Y-81988651D01*
X155803090Y-81988652D01*
X155669178Y-82044119D01*
X155669174Y-82044121D01*
X155554181Y-82132359D01*
X155554177Y-82132363D01*
X155465939Y-82247356D01*
X155465937Y-82247360D01*
X155410470Y-82381272D01*
X155410469Y-82381273D01*
X155391550Y-82524981D01*
X154471300Y-82524981D01*
X154471300Y-81571437D01*
X154490207Y-81513246D01*
X154495290Y-81508977D01*
X156769701Y-81508977D01*
X156769701Y-81508986D01*
X156788051Y-81695307D01*
X156788052Y-81695310D01*
X156788053Y-81695313D01*
X156830636Y-81835691D01*
X156842405Y-81874486D01*
X156842406Y-81874488D01*
X156930659Y-82039599D01*
X156930662Y-82039604D01*
X156930664Y-82039607D01*
X156934369Y-82044121D01*
X157049438Y-82184334D01*
X157049447Y-82184343D01*
X157111862Y-82235565D01*
X157194175Y-82303118D01*
X157194180Y-82303120D01*
X157194182Y-82303122D01*
X157355411Y-82389300D01*
X157359299Y-82391378D01*
X157538469Y-82445729D01*
X157538471Y-82445729D01*
X157538474Y-82445730D01*
X157724796Y-82464081D01*
X157724800Y-82464081D01*
X157724804Y-82464081D01*
X157911125Y-82445730D01*
X157911126Y-82445729D01*
X157911131Y-82445729D01*
X158090301Y-82391378D01*
X158255425Y-82303118D01*
X158400157Y-82184339D01*
X158518936Y-82039607D01*
X158607196Y-81874483D01*
X158661547Y-81695313D01*
X158662930Y-81681280D01*
X158679899Y-81508986D01*
X158679899Y-81508977D01*
X158661548Y-81322656D01*
X158661547Y-81322653D01*
X158661547Y-81322651D01*
X158607196Y-81143481D01*
X158604791Y-81138982D01*
X158518940Y-80978364D01*
X158518938Y-80978362D01*
X158518936Y-80978357D01*
X158431961Y-80872378D01*
X158400161Y-80833629D01*
X158400152Y-80833620D01*
X158292511Y-80745282D01*
X158255425Y-80714846D01*
X158255422Y-80714844D01*
X158255417Y-80714841D01*
X158090306Y-80626588D01*
X158090304Y-80626587D01*
X158058502Y-80616940D01*
X158000716Y-80599410D01*
X157911128Y-80572234D01*
X157911125Y-80572233D01*
X157724804Y-80553883D01*
X157724796Y-80553883D01*
X157538474Y-80572233D01*
X157538471Y-80572234D01*
X157359295Y-80626587D01*
X157359293Y-80626588D01*
X157194182Y-80714841D01*
X157194176Y-80714845D01*
X157049447Y-80833620D01*
X157049438Y-80833629D01*
X156930663Y-80978358D01*
X156930659Y-80978364D01*
X156842406Y-81143475D01*
X156842405Y-81143477D01*
X156788052Y-81322653D01*
X156788051Y-81322656D01*
X156769701Y-81508977D01*
X154495290Y-81508977D01*
X154526819Y-81482497D01*
X154580902Y-81456058D01*
X154671876Y-81365084D01*
X154728382Y-81249500D01*
X154739300Y-81174564D01*
X154739300Y-80831400D01*
X154728382Y-80756464D01*
X154721566Y-80742521D01*
X154712994Y-80681944D01*
X154741667Y-80627893D01*
X154743513Y-80626292D01*
X154859538Y-80510267D01*
X154941204Y-80372178D01*
X154941204Y-80372177D01*
X154981644Y-80232982D01*
X153355955Y-80232982D01*
X153396395Y-80372177D01*
X153396395Y-80372178D01*
X153478061Y-80510267D01*
X153595916Y-80628122D01*
X153594022Y-80630015D01*
X153622161Y-80671418D01*
X153620242Y-80732573D01*
X153616034Y-80742521D01*
X153609218Y-80756462D01*
X153609084Y-80757381D01*
X153598300Y-80831400D01*
X153598300Y-81174564D01*
X153609218Y-81249500D01*
X153665724Y-81365084D01*
X153741305Y-81440665D01*
X153769081Y-81495180D01*
X153770300Y-81510667D01*
X153770300Y-82837482D01*
X153751393Y-82895673D01*
X153701893Y-82931637D01*
X153671300Y-82936482D01*
X152221300Y-82936482D01*
X152163109Y-82917575D01*
X152127145Y-82868075D01*
X152122300Y-82837482D01*
X152122300Y-82827391D01*
X152122300Y-82827390D01*
X152095688Y-82728072D01*
X152044278Y-82639027D01*
X151971573Y-82566322D01*
X151882528Y-82514912D01*
X151783210Y-82488300D01*
X151732300Y-82488300D01*
X151674109Y-82469393D01*
X151638145Y-82419893D01*
X151633300Y-82389300D01*
X151633300Y-81924981D01*
X152205389Y-81924981D01*
X152205389Y-81924982D01*
X152224308Y-82068690D01*
X152224309Y-82068691D01*
X152260025Y-82154920D01*
X152279778Y-82202607D01*
X152368018Y-82317603D01*
X152483014Y-82405843D01*
X152616930Y-82461312D01*
X152760639Y-82480232D01*
X152904348Y-82461312D01*
X153038264Y-82405843D01*
X153153260Y-82317603D01*
X153241500Y-82202607D01*
X153296969Y-82068691D01*
X153315889Y-81924982D01*
X153310081Y-81880870D01*
X153296969Y-81781273D01*
X153241500Y-81647357D01*
X153223121Y-81623405D01*
X153202697Y-81565732D01*
X153220074Y-81507066D01*
X153223122Y-81502871D01*
X153238757Y-81482496D01*
X153280861Y-81427625D01*
X153336330Y-81293709D01*
X153355250Y-81150000D01*
X153353799Y-81138982D01*
X153336330Y-81006291D01*
X153280861Y-80872375D01*
X153192621Y-80757379D01*
X153077625Y-80669139D01*
X153077621Y-80669137D01*
X152943709Y-80613670D01*
X152943708Y-80613669D01*
X152800000Y-80594750D01*
X152656291Y-80613669D01*
X152656290Y-80613670D01*
X152522378Y-80669137D01*
X152522374Y-80669139D01*
X152407381Y-80757377D01*
X152407377Y-80757381D01*
X152319139Y-80872374D01*
X152319137Y-80872378D01*
X152263670Y-81006290D01*
X152263669Y-81006291D01*
X152244750Y-81149999D01*
X152244750Y-81150000D01*
X152263669Y-81293708D01*
X152263670Y-81293709D01*
X152291370Y-81360585D01*
X152319139Y-81427625D01*
X152337518Y-81451577D01*
X152357941Y-81509250D01*
X152340564Y-81567916D01*
X152337517Y-81572109D01*
X152279781Y-81647352D01*
X152279776Y-81647360D01*
X152224309Y-81781272D01*
X152224308Y-81781273D01*
X152205389Y-81924981D01*
X151633300Y-81924981D01*
X151633300Y-81762584D01*
X151652207Y-81704393D01*
X151653759Y-81702315D01*
X151655265Y-81700351D01*
X151655270Y-81700347D01*
X151701414Y-81620423D01*
X151725300Y-81531278D01*
X151725300Y-81531275D01*
X151726147Y-81524844D01*
X151729056Y-81525227D01*
X151744207Y-81478599D01*
X151780821Y-81447849D01*
X151782756Y-81446902D01*
X151786902Y-81444876D01*
X151877876Y-81353902D01*
X151934382Y-81238318D01*
X151945300Y-81163382D01*
X151945300Y-80820218D01*
X151934382Y-80745282D01*
X151927566Y-80731339D01*
X151918994Y-80670762D01*
X151947667Y-80616711D01*
X151949513Y-80615110D01*
X152065538Y-80499085D01*
X152147204Y-80360996D01*
X152147204Y-80360995D01*
X152187644Y-80221800D01*
X150561955Y-80221800D01*
X150602395Y-80360995D01*
X150602395Y-80360996D01*
X150684061Y-80499085D01*
X150801916Y-80616940D01*
X150800022Y-80618833D01*
X150828161Y-80660236D01*
X150826242Y-80721391D01*
X150822034Y-80731339D01*
X150815218Y-80745280D01*
X150815218Y-80745282D01*
X150813456Y-80757379D01*
X150811985Y-80767474D01*
X150784885Y-80822331D01*
X150730717Y-80850782D01*
X150670171Y-80841960D01*
X150644015Y-80823204D01*
X149553792Y-79732981D01*
X153355955Y-79732981D01*
X153355956Y-79732982D01*
X153918799Y-79732982D01*
X153918800Y-79732981D01*
X154418800Y-79732981D01*
X154418801Y-79732982D01*
X154981644Y-79732982D01*
X154981644Y-79732981D01*
X154941204Y-79593786D01*
X154941204Y-79593785D01*
X154859538Y-79455696D01*
X154746085Y-79342243D01*
X154607995Y-79260577D01*
X154453924Y-79215815D01*
X154418800Y-79213050D01*
X154418800Y-79732981D01*
X153918800Y-79732981D01*
X153918800Y-79213050D01*
X153883675Y-79215815D01*
X153729604Y-79260577D01*
X153729603Y-79260577D01*
X153591514Y-79342243D01*
X153478061Y-79455696D01*
X153396395Y-79593785D01*
X153396395Y-79593786D01*
X153355955Y-79732981D01*
X149553792Y-79732981D01*
X149542610Y-79721799D01*
X150561955Y-79721799D01*
X150561956Y-79721800D01*
X151124799Y-79721800D01*
X151124800Y-79721799D01*
X151624800Y-79721799D01*
X151624801Y-79721800D01*
X152187644Y-79721800D01*
X152187644Y-79721799D01*
X152147204Y-79582604D01*
X152147204Y-79582603D01*
X152065538Y-79444514D01*
X151952085Y-79331061D01*
X151813995Y-79249395D01*
X151659924Y-79204633D01*
X151624800Y-79201868D01*
X151624800Y-79721799D01*
X151124800Y-79721799D01*
X151124800Y-79201868D01*
X151089675Y-79204633D01*
X150935604Y-79249395D01*
X150935603Y-79249395D01*
X150797514Y-79331061D01*
X150684061Y-79444514D01*
X150602395Y-79582603D01*
X150602395Y-79582604D01*
X150561955Y-79721799D01*
X149542610Y-79721799D01*
X148706296Y-78885485D01*
X148678519Y-78830968D01*
X148677300Y-78815481D01*
X148677300Y-77779400D01*
X155630300Y-77779400D01*
X155630300Y-78122564D01*
X155641218Y-78197500D01*
X155697724Y-78313084D01*
X155775620Y-78390980D01*
X155803396Y-78445495D01*
X155793825Y-78505927D01*
X155775621Y-78530982D01*
X155706995Y-78599609D01*
X155697723Y-78608881D01*
X155692052Y-78620482D01*
X155641218Y-78724464D01*
X155630300Y-78799400D01*
X155630300Y-79142564D01*
X155641218Y-79217500D01*
X155697724Y-79333084D01*
X155788698Y-79424058D01*
X155904282Y-79480564D01*
X155979218Y-79491482D01*
X155979221Y-79491482D01*
X156422378Y-79491482D01*
X156422382Y-79491482D01*
X156497318Y-79480564D01*
X156612902Y-79424058D01*
X156686483Y-79350476D01*
X156740998Y-79322701D01*
X156756485Y-79321482D01*
X156776116Y-79321482D01*
X156834307Y-79340389D01*
X156863426Y-79373814D01*
X156930659Y-79499599D01*
X156930662Y-79499604D01*
X156930664Y-79499607D01*
X156980195Y-79559960D01*
X157049438Y-79644334D01*
X157049447Y-79644343D01*
X157116945Y-79699737D01*
X157194175Y-79763118D01*
X157359299Y-79851378D01*
X157538469Y-79905729D01*
X157538471Y-79905729D01*
X157538474Y-79905730D01*
X157724796Y-79924081D01*
X157724800Y-79924081D01*
X157724804Y-79924081D01*
X157911125Y-79905730D01*
X157911126Y-79905729D01*
X157911131Y-79905729D01*
X158090301Y-79851378D01*
X158255425Y-79763118D01*
X158400157Y-79644339D01*
X158518936Y-79499607D01*
X158607196Y-79334483D01*
X158661547Y-79155313D01*
X158679893Y-78969036D01*
X158679922Y-78968971D01*
X158679890Y-78968887D01*
X158661548Y-78782655D01*
X158661547Y-78782653D01*
X158661547Y-78782651D01*
X158607196Y-78603481D01*
X158606585Y-78602338D01*
X158518940Y-78438364D01*
X158518938Y-78438362D01*
X158518936Y-78438357D01*
X158416127Y-78313084D01*
X158400161Y-78293629D01*
X158400152Y-78293620D01*
X158315778Y-78224377D01*
X158255425Y-78174846D01*
X158255422Y-78174844D01*
X158255417Y-78174841D01*
X158090306Y-78086588D01*
X158090304Y-78086587D01*
X157911128Y-78032234D01*
X157911125Y-78032233D01*
X157866455Y-78027834D01*
X157810398Y-78003314D01*
X157779459Y-77950527D01*
X157785456Y-77889637D01*
X157806156Y-77859307D01*
X158005270Y-77660194D01*
X158051414Y-77580270D01*
X158056401Y-77561658D01*
X158075300Y-77491126D01*
X158075300Y-77378734D01*
X158094207Y-77320543D01*
X158127628Y-77291426D01*
X158255425Y-77223118D01*
X158400157Y-77104339D01*
X158518936Y-76959607D01*
X158607196Y-76794483D01*
X158661547Y-76615313D01*
X158665372Y-76576483D01*
X158670385Y-76525575D01*
X158679399Y-76434050D01*
X158681471Y-76429314D01*
X158679394Y-76423852D01*
X158661548Y-76242656D01*
X158661547Y-76242653D01*
X158661547Y-76242651D01*
X158607196Y-76063481D01*
X158594727Y-76040153D01*
X158518940Y-75898364D01*
X158518938Y-75898362D01*
X158518936Y-75898357D01*
X158455555Y-75821127D01*
X158400161Y-75753629D01*
X158400152Y-75753620D01*
X158270885Y-75647534D01*
X158255425Y-75634846D01*
X158255422Y-75634844D01*
X158255417Y-75634841D01*
X158090306Y-75546588D01*
X158090304Y-75546587D01*
X157911128Y-75492234D01*
X157911125Y-75492233D01*
X157724804Y-75473883D01*
X157724796Y-75473883D01*
X157538474Y-75492233D01*
X157538471Y-75492234D01*
X157359295Y-75546587D01*
X157359293Y-75546588D01*
X157194182Y-75634841D01*
X157194176Y-75634845D01*
X157049447Y-75753620D01*
X157049438Y-75753629D01*
X156930663Y-75898358D01*
X156930659Y-75898364D01*
X156842406Y-76063475D01*
X156842405Y-76063477D01*
X156788052Y-76242653D01*
X156788051Y-76242656D01*
X156769701Y-76428977D01*
X156769701Y-76428986D01*
X156788051Y-76615307D01*
X156788052Y-76615310D01*
X156842405Y-76794486D01*
X156842406Y-76794488D01*
X156930659Y-76959599D01*
X156930662Y-76959604D01*
X156930664Y-76959607D01*
X156980195Y-77019960D01*
X157049438Y-77104334D01*
X157049447Y-77104343D01*
X157116945Y-77159737D01*
X157194175Y-77223118D01*
X157243804Y-77249645D01*
X157286211Y-77293749D01*
X157294594Y-77354358D01*
X157267140Y-77406958D01*
X157102615Y-77571485D01*
X157048099Y-77599263D01*
X157032611Y-77600482D01*
X156756485Y-77600482D01*
X156698294Y-77581575D01*
X156686487Y-77571491D01*
X156612902Y-77497906D01*
X156497318Y-77441400D01*
X156422382Y-77430482D01*
X155979218Y-77430482D01*
X155904282Y-77441400D01*
X155788699Y-77497905D01*
X155697723Y-77588881D01*
X155657503Y-77671152D01*
X155641218Y-77704464D01*
X155630300Y-77779400D01*
X148677300Y-77779400D01*
X148677300Y-77205913D01*
X148684836Y-77168028D01*
X148736330Y-77043709D01*
X148755250Y-76900000D01*
X148736330Y-76756291D01*
X148680861Y-76622375D01*
X148592621Y-76507379D01*
X148477625Y-76419139D01*
X148477621Y-76419137D01*
X148343709Y-76363670D01*
X148343708Y-76363669D01*
X148200000Y-76344750D01*
X148056291Y-76363669D01*
X148056290Y-76363670D01*
X147922378Y-76419137D01*
X147922370Y-76419142D01*
X147826664Y-76492580D01*
X147768988Y-76513004D01*
X147762004Y-76510935D01*
X147763138Y-76554231D01*
X147746758Y-76586381D01*
X147719139Y-76622375D01*
X147719137Y-76622378D01*
X147663670Y-76756290D01*
X147663669Y-76756291D01*
X147644750Y-76899999D01*
X147644750Y-76900000D01*
X147663669Y-77043708D01*
X147663670Y-77043709D01*
X147693405Y-77115497D01*
X147698205Y-77176494D01*
X147666236Y-77228663D01*
X147614863Y-77251535D01*
X147522691Y-77263669D01*
X147522690Y-77263670D01*
X147388778Y-77319137D01*
X147388774Y-77319139D01*
X147273781Y-77407377D01*
X147273773Y-77407385D01*
X147193530Y-77511958D01*
X147143105Y-77546614D01*
X147081941Y-77545011D01*
X147077105Y-77543155D01*
X147051309Y-77532470D01*
X147051306Y-77532469D01*
X147051308Y-77532469D01*
X146907600Y-77513550D01*
X146763891Y-77532469D01*
X146763890Y-77532470D01*
X146629978Y-77587937D01*
X146629970Y-77587942D01*
X146527709Y-77666410D01*
X146470034Y-77686834D01*
X146413919Y-77671152D01*
X146368382Y-77641887D01*
X146368379Y-77641885D01*
X146368378Y-77641885D01*
X146368375Y-77641884D01*
X146230289Y-77601338D01*
X146230286Y-77601338D01*
X146086364Y-77601338D01*
X146086360Y-77601338D01*
X145948274Y-77641884D01*
X145948267Y-77641887D01*
X145827198Y-77719693D01*
X145732947Y-77828466D01*
X145673159Y-77959381D01*
X145652678Y-78101835D01*
X145652678Y-78101840D01*
X145673159Y-78244294D01*
X145704574Y-78313082D01*
X145732948Y-78375211D01*
X145807631Y-78461400D01*
X145827198Y-78483982D01*
X145879985Y-78517906D01*
X145948272Y-78561791D01*
X146077072Y-78599609D01*
X146119183Y-78624595D01*
X146293989Y-78799400D01*
X146443859Y-78949270D01*
X146460996Y-78959164D01*
X146494871Y-78978722D01*
X146508049Y-78986330D01*
X146523783Y-78995414D01*
X146612927Y-79019300D01*
X146850481Y-79019300D01*
X146908672Y-79038207D01*
X146920484Y-79048296D01*
X147074057Y-79201868D01*
X147202659Y-79330470D01*
X147282583Y-79376614D01*
X147371727Y-79400500D01*
X147623254Y-79400500D01*
X147681445Y-79419407D01*
X147693258Y-79429496D01*
X148189716Y-79925954D01*
X148217493Y-79980471D01*
X148207922Y-80040903D01*
X148164657Y-80084168D01*
X148104225Y-80093739D01*
X148088572Y-80089933D01*
X147962403Y-80048125D01*
X147863123Y-80037982D01*
X147814801Y-80037982D01*
X147814800Y-80037983D01*
X147814800Y-80737981D01*
X147814801Y-80737982D01*
X148539798Y-80737982D01*
X148539799Y-80737981D01*
X148539799Y-80714659D01*
X148529657Y-80615384D01*
X148529654Y-80615372D01*
X148487848Y-80489209D01*
X148487492Y-80428025D01*
X148523167Y-80378316D01*
X148581247Y-80359071D01*
X148639546Y-80377639D01*
X148651827Y-80388065D01*
X149852304Y-81588542D01*
X149880081Y-81643059D01*
X149881300Y-81658546D01*
X149881300Y-82389300D01*
X149862393Y-82447491D01*
X149812893Y-82483455D01*
X149782300Y-82488300D01*
X149680390Y-82488300D01*
X149630731Y-82501606D01*
X149581070Y-82514912D01*
X149531299Y-82543648D01*
X149471451Y-82556369D01*
X149432301Y-82543648D01*
X149382529Y-82514912D01*
X149349422Y-82506041D01*
X149283210Y-82488300D01*
X149180390Y-82488300D01*
X149130731Y-82501606D01*
X149081070Y-82514912D01*
X149031299Y-82543648D01*
X148971451Y-82556369D01*
X148932301Y-82543648D01*
X148882529Y-82514912D01*
X148849422Y-82506041D01*
X148783210Y-82488300D01*
X148680390Y-82488300D01*
X148581072Y-82514912D01*
X148492027Y-82566322D01*
X148459300Y-82599048D01*
X148404786Y-82626824D01*
X148344354Y-82617253D01*
X148301089Y-82573988D01*
X148290299Y-82529043D01*
X148290299Y-82267503D01*
X148290299Y-82267498D01*
X148284212Y-82210868D01*
X148236428Y-82082756D01*
X148158966Y-81979279D01*
X148139231Y-81921366D01*
X148157306Y-81862911D01*
X148186248Y-81835692D01*
X148267530Y-81785555D01*
X148387374Y-81665711D01*
X148476345Y-81521469D01*
X148529656Y-81360585D01*
X148539800Y-81261305D01*
X148539800Y-81237983D01*
X148539799Y-81237982D01*
X147663800Y-81237982D01*
X147605609Y-81219075D01*
X147569645Y-81169575D01*
X147564800Y-81138982D01*
X147564800Y-80987983D01*
X147564799Y-80987982D01*
X147413800Y-80987982D01*
X147355609Y-80969075D01*
X147319645Y-80919575D01*
X147314800Y-80888982D01*
X147314800Y-80037981D01*
X147266479Y-80037982D01*
X147266476Y-80037983D01*
X147167202Y-80048124D01*
X147167190Y-80048127D01*
X147006315Y-80101435D01*
X146969913Y-80123889D01*
X146910460Y-80138345D01*
X146853864Y-80115095D01*
X146821743Y-80063019D01*
X146826365Y-80002010D01*
X146831130Y-79990509D01*
X146850050Y-79846800D01*
X146831130Y-79703091D01*
X146775661Y-79569175D01*
X146687421Y-79454179D01*
X146572425Y-79365939D01*
X146572421Y-79365937D01*
X146438509Y-79310470D01*
X146438508Y-79310469D01*
X146294800Y-79291550D01*
X146151091Y-79310469D01*
X146151090Y-79310470D01*
X146017178Y-79365937D01*
X146017174Y-79365939D01*
X145902181Y-79454177D01*
X145902177Y-79454181D01*
X145813939Y-79569174D01*
X145813937Y-79569178D01*
X145758470Y-79703090D01*
X145758469Y-79703091D01*
X145739550Y-79846799D01*
X145739550Y-79846800D01*
X145758469Y-79990508D01*
X145758470Y-79990509D01*
X145801228Y-80093739D01*
X145813939Y-80124425D01*
X145813941Y-80124428D01*
X145813942Y-80124429D01*
X145902175Y-80239417D01*
X145902177Y-80239418D01*
X145902179Y-80239421D01*
X145905563Y-80242017D01*
X145940221Y-80292438D01*
X145944300Y-80320562D01*
X145944300Y-82577834D01*
X145925393Y-82636025D01*
X145898018Y-82659404D01*
X145898713Y-82660361D01*
X145892411Y-82664939D01*
X145804940Y-82752410D01*
X145748783Y-82862623D01*
X145734300Y-82954063D01*
X145734300Y-83295537D01*
X145748783Y-83386974D01*
X145748784Y-83386978D01*
X145791349Y-83470516D01*
X145804941Y-83497191D01*
X145842548Y-83534798D01*
X145870324Y-83589313D01*
X145860753Y-83649745D01*
X145842549Y-83674800D01*
X145820640Y-83696710D01*
X145804940Y-83712410D01*
X145748783Y-83822623D01*
X145734300Y-83914063D01*
X145734300Y-84255537D01*
X145748783Y-84346974D01*
X145748784Y-84346978D01*
X145769116Y-84386880D01*
X145800781Y-84449027D01*
X145804942Y-84457192D01*
X145808154Y-84461614D01*
X145827058Y-84519806D01*
X145808154Y-84577986D01*
X145804942Y-84582407D01*
X145748783Y-84692623D01*
X145734300Y-84784063D01*
X145734300Y-85125537D01*
X145748783Y-85216974D01*
X145748784Y-85216978D01*
X145781316Y-85280824D01*
X145804941Y-85327191D01*
X145842548Y-85364798D01*
X145870324Y-85419313D01*
X145860753Y-85479745D01*
X145842549Y-85504800D01*
X145809550Y-85537800D01*
X145804940Y-85542410D01*
X145748783Y-85652623D01*
X145734300Y-85744063D01*
X145734300Y-86085537D01*
X145748783Y-86176974D01*
X145748784Y-86176978D01*
X145780827Y-86239865D01*
X145804941Y-86287191D01*
X145892409Y-86374659D01*
X146002625Y-86430817D01*
X146094065Y-86445300D01*
X146495534Y-86445299D01*
X146495537Y-86445299D01*
X146522132Y-86441086D01*
X146586975Y-86430817D01*
X146665061Y-86391029D01*
X146725492Y-86381458D01*
X146780009Y-86409235D01*
X146807787Y-86463751D01*
X146807104Y-86498554D01*
X146797109Y-86548800D01*
X147632800Y-86548800D01*
X147690991Y-86567707D01*
X147726955Y-86617207D01*
X147731800Y-86647800D01*
X147731800Y-86698206D01*
X147712893Y-86756397D01*
X147663393Y-86792361D01*
X147658428Y-86793831D01*
X147654346Y-86794925D01*
X147628718Y-86798300D01*
X147370390Y-86798300D01*
X147271072Y-86824912D01*
X147271070Y-86824913D01*
X147269152Y-86825427D01*
X147243529Y-86828800D01*
X146797109Y-86828800D01*
X146806395Y-86875481D01*
X146854636Y-86991949D01*
X146854642Y-86991960D01*
X146924678Y-87096775D01*
X146924686Y-87096784D01*
X147002303Y-87174400D01*
X147030081Y-87228916D01*
X147030479Y-87233974D01*
X147031299Y-87240207D01*
X147031300Y-87240210D01*
X147057912Y-87339528D01*
X147109322Y-87428573D01*
X147181109Y-87500360D01*
X147208885Y-87554875D01*
X147199314Y-87615307D01*
X147181108Y-87640366D01*
X145659488Y-89161987D01*
X145602539Y-89260625D01*
X145602540Y-89260626D01*
X145587016Y-89287514D01*
X145549500Y-89427525D01*
X145549500Y-89857431D01*
X145548653Y-89870353D01*
X145544750Y-89899999D01*
X145548653Y-89929644D01*
X145549500Y-89942567D01*
X145549500Y-89972475D01*
X145553530Y-89987515D01*
X145557241Y-90001365D01*
X145559766Y-90014063D01*
X145563670Y-90043709D01*
X145566483Y-90050500D01*
X145575113Y-90071335D01*
X145579272Y-90083586D01*
X145587016Y-90112485D01*
X145587017Y-90112486D01*
X145587017Y-90112487D01*
X145601968Y-90138385D01*
X145607693Y-90149994D01*
X145619139Y-90177626D01*
X145637343Y-90201350D01*
X145644536Y-90212114D01*
X145659491Y-90238015D01*
X145680635Y-90259159D01*
X145689173Y-90268895D01*
X145707378Y-90292620D01*
X145707379Y-90292621D01*
X145728370Y-90308728D01*
X145731099Y-90310822D01*
X145740834Y-90319359D01*
X145761983Y-90340507D01*
X145761985Y-90340509D01*
X145787888Y-90355464D01*
X145798642Y-90362650D01*
X145822375Y-90380861D01*
X145849995Y-90392301D01*
X145850007Y-90392306D01*
X145861623Y-90398035D01*
X145887510Y-90412982D01*
X145887513Y-90412983D01*
X145887515Y-90412984D01*
X145916408Y-90420725D01*
X145928666Y-90424887D01*
X145956288Y-90436329D01*
X145956291Y-90436330D01*
X145985934Y-90440232D01*
X145998623Y-90442755D01*
X146027525Y-90450500D01*
X146057432Y-90450500D01*
X146070354Y-90451347D01*
X146100000Y-90455250D01*
X146129646Y-90451347D01*
X146142568Y-90450500D01*
X146172474Y-90450500D01*
X146172475Y-90450500D01*
X146201372Y-90442756D01*
X146214066Y-90440231D01*
X146243709Y-90436330D01*
X146271349Y-90424880D01*
X146283589Y-90420725D01*
X146312485Y-90412984D01*
X146324649Y-90405960D01*
X146338382Y-90398032D01*
X146349994Y-90392305D01*
X146377625Y-90380861D01*
X146401358Y-90362649D01*
X146412105Y-90355467D01*
X146438015Y-90340509D01*
X146459158Y-90319364D01*
X146468896Y-90310825D01*
X146468900Y-90310822D01*
X146492621Y-90292621D01*
X146510826Y-90268894D01*
X146519355Y-90259167D01*
X146531398Y-90247125D01*
X146585912Y-90219350D01*
X146646344Y-90228921D01*
X146679940Y-90256862D01*
X146707379Y-90292621D01*
X146822375Y-90380861D01*
X146956291Y-90436330D01*
X147100000Y-90455250D01*
X147243709Y-90436330D01*
X147377625Y-90380861D01*
X147492621Y-90292621D01*
X147510951Y-90268732D01*
X147561375Y-90234077D01*
X147589493Y-90230000D01*
X147701000Y-90230000D01*
X147759191Y-90248907D01*
X147795155Y-90298407D01*
X147800000Y-90329000D01*
X147800000Y-90631000D01*
X147781093Y-90689191D01*
X147731593Y-90725155D01*
X147701000Y-90730000D01*
X146995495Y-90730000D01*
X147037968Y-90876194D01*
X147102255Y-90984898D01*
X147115602Y-91044610D01*
X147091302Y-91100763D01*
X147072044Y-91117607D01*
X147054403Y-91129394D01*
X147054397Y-91129400D01*
X147018685Y-91182848D01*
X146970635Y-91220728D01*
X146909496Y-91223130D01*
X146858623Y-91189137D01*
X146843611Y-91162443D01*
X146808353Y-91067911D01*
X146808352Y-91067909D01*
X146722192Y-90952815D01*
X146722184Y-90952807D01*
X146607090Y-90866647D01*
X146607088Y-90866646D01*
X146472381Y-90816403D01*
X146472370Y-90816401D01*
X146412824Y-90810000D01*
X146050001Y-90810000D01*
X146050000Y-90810001D01*
X146050000Y-91901000D01*
X146031093Y-91959191D01*
X145981593Y-91995155D01*
X145951000Y-92000000D01*
X145800001Y-92000000D01*
X145800000Y-92000001D01*
X145800000Y-92151000D01*
X145781093Y-92209191D01*
X145731593Y-92245155D01*
X145701000Y-92250000D01*
X145176154Y-92250000D01*
X145129480Y-92273781D01*
X145113993Y-92275000D01*
X143125002Y-92275000D01*
X143125001Y-92275001D01*
X141334300Y-92275001D01*
X141334300Y-91751676D01*
X143125000Y-91751676D01*
X143125000Y-91774999D01*
X143125001Y-91775000D01*
X143849999Y-91775000D01*
X143850000Y-91774999D01*
X143850000Y-91075001D01*
X144350000Y-91075001D01*
X144350000Y-91774999D01*
X144350001Y-91775000D01*
X144633846Y-91775000D01*
X144680520Y-91751219D01*
X144696007Y-91750000D01*
X145549999Y-91750000D01*
X145550000Y-91749999D01*
X145550000Y-90810001D01*
X145549999Y-90810000D01*
X145187176Y-90810000D01*
X145127629Y-90816401D01*
X145127618Y-90816403D01*
X144992911Y-90866646D01*
X144992909Y-90866647D01*
X144877815Y-90952807D01*
X144877807Y-90952815D01*
X144791647Y-91067908D01*
X144786919Y-91080585D01*
X144748865Y-91128497D01*
X144689917Y-91144891D01*
X144663023Y-91139957D01*
X144497603Y-91085143D01*
X144398323Y-91075000D01*
X144350001Y-91075000D01*
X144350000Y-91075001D01*
X143850000Y-91075001D01*
X143850000Y-91074999D01*
X143801679Y-91075000D01*
X143801676Y-91075001D01*
X143702402Y-91085142D01*
X143702390Y-91085145D01*
X143541512Y-91138454D01*
X143397270Y-91227425D01*
X143277425Y-91347270D01*
X143188454Y-91491512D01*
X143135143Y-91652396D01*
X143125000Y-91751676D01*
X141334300Y-91751676D01*
X141334300Y-86620234D01*
X141343544Y-86591782D01*
X141334300Y-86557729D01*
X141334300Y-84080234D01*
X141343544Y-84051782D01*
X141334300Y-84017729D01*
X141334300Y-81540234D01*
X141343544Y-81511782D01*
X141342374Y-81507471D01*
X141523058Y-81507471D01*
X141531823Y-81530531D01*
X141548051Y-81695307D01*
X141548052Y-81695310D01*
X141548053Y-81695313D01*
X141590636Y-81835691D01*
X141602405Y-81874486D01*
X141602406Y-81874488D01*
X141690659Y-82039599D01*
X141690662Y-82039604D01*
X141690664Y-82039607D01*
X141694369Y-82044121D01*
X141809438Y-82184334D01*
X141809447Y-82184343D01*
X141871862Y-82235565D01*
X141954175Y-82303118D01*
X141954180Y-82303120D01*
X141954182Y-82303122D01*
X142115411Y-82389300D01*
X142119299Y-82391378D01*
X142298469Y-82445729D01*
X142298471Y-82445729D01*
X142298474Y-82445730D01*
X142484796Y-82464081D01*
X142484800Y-82464081D01*
X142484804Y-82464081D01*
X142671125Y-82445730D01*
X142671126Y-82445729D01*
X142671131Y-82445729D01*
X142850301Y-82391378D01*
X143015425Y-82303118D01*
X143022496Y-82297314D01*
X143079472Y-82275015D01*
X143138674Y-82290463D01*
X143177490Y-82337760D01*
X143184300Y-82373843D01*
X143184300Y-82380564D01*
X143195218Y-82455500D01*
X143251724Y-82571084D01*
X143342698Y-82662058D01*
X143458282Y-82718564D01*
X143533218Y-82729482D01*
X143724651Y-82729482D01*
X143782842Y-82748389D01*
X143818806Y-82797889D01*
X143818806Y-82859075D01*
X143794654Y-82898486D01*
X143497994Y-83195145D01*
X143464773Y-83215174D01*
X143465189Y-83216024D01*
X143458283Y-83219399D01*
X143458282Y-83219400D01*
X143395186Y-83250245D01*
X143342697Y-83275906D01*
X143270192Y-83348411D01*
X143215675Y-83376188D01*
X143155243Y-83366616D01*
X143137384Y-83354935D01*
X143065003Y-83295534D01*
X143015425Y-83254846D01*
X143015422Y-83254844D01*
X143015417Y-83254841D01*
X142850306Y-83166588D01*
X142850304Y-83166587D01*
X142671128Y-83112234D01*
X142671125Y-83112233D01*
X142484804Y-83093883D01*
X142484796Y-83093883D01*
X142298474Y-83112233D01*
X142298471Y-83112234D01*
X142119295Y-83166587D01*
X142119293Y-83166588D01*
X141954182Y-83254841D01*
X141954176Y-83254845D01*
X141809447Y-83373620D01*
X141809438Y-83373629D01*
X141690663Y-83518358D01*
X141690659Y-83518364D01*
X141602406Y-83683475D01*
X141602405Y-83683477D01*
X141548052Y-83862653D01*
X141548051Y-83862655D01*
X141531823Y-84027433D01*
X141523058Y-84047471D01*
X141531823Y-84070531D01*
X141548051Y-84235307D01*
X141548052Y-84235310D01*
X141548053Y-84235313D01*
X141579666Y-84339528D01*
X141602405Y-84414486D01*
X141602406Y-84414488D01*
X141690659Y-84579599D01*
X141690662Y-84579604D01*
X141690664Y-84579607D01*
X141738832Y-84638300D01*
X141809438Y-84724334D01*
X141809447Y-84724343D01*
X141876945Y-84779737D01*
X141954175Y-84843118D01*
X141954180Y-84843120D01*
X141954182Y-84843122D01*
X142114051Y-84928573D01*
X142119299Y-84931378D01*
X142298469Y-84985729D01*
X142298471Y-84985729D01*
X142298474Y-84985730D01*
X142484796Y-85004081D01*
X142484800Y-85004081D01*
X142484804Y-85004081D01*
X142671125Y-84985730D01*
X142671126Y-84985729D01*
X142671131Y-84985729D01*
X142809793Y-84943666D01*
X142870966Y-84944867D01*
X142908534Y-84968399D01*
X142969586Y-85029450D01*
X142969591Y-85029454D01*
X143049508Y-85075594D01*
X143049506Y-85075594D01*
X143049510Y-85075595D01*
X143049512Y-85075596D01*
X143138656Y-85099482D01*
X143138658Y-85099482D01*
X143145090Y-85100329D01*
X143144784Y-85102650D01*
X143193223Y-85118389D01*
X143229187Y-85167889D01*
X143229187Y-85229075D01*
X143193820Y-85278137D01*
X143157655Y-85304827D01*
X143157645Y-85304837D01*
X143077007Y-85414098D01*
X143073542Y-85420656D01*
X143071301Y-85419472D01*
X143041324Y-85458853D01*
X142984935Y-85476482D01*
X142882656Y-85476482D01*
X142793512Y-85500368D01*
X142713588Y-85546512D01*
X142646645Y-85613454D01*
X142592128Y-85641230D01*
X142566939Y-85641972D01*
X142484803Y-85633883D01*
X142484796Y-85633883D01*
X142298474Y-85652233D01*
X142298471Y-85652234D01*
X142119295Y-85706587D01*
X142119293Y-85706588D01*
X141954182Y-85794841D01*
X141954176Y-85794845D01*
X141809447Y-85913620D01*
X141809438Y-85913629D01*
X141690663Y-86058358D01*
X141690659Y-86058364D01*
X141602406Y-86223475D01*
X141602405Y-86223477D01*
X141548052Y-86402653D01*
X141548051Y-86402655D01*
X141531823Y-86567433D01*
X141523058Y-86587471D01*
X141531823Y-86610531D01*
X141548051Y-86775307D01*
X141548052Y-86775310D01*
X141602405Y-86954486D01*
X141602406Y-86954488D01*
X141690659Y-87119599D01*
X141690662Y-87119604D01*
X141690664Y-87119607D01*
X141705259Y-87137391D01*
X141809438Y-87264334D01*
X141809447Y-87264343D01*
X141876945Y-87319737D01*
X141954175Y-87383118D01*
X141954180Y-87383120D01*
X141954182Y-87383122D01*
X142119293Y-87471375D01*
X142119299Y-87471378D01*
X142298469Y-87525729D01*
X142298471Y-87525729D01*
X142298474Y-87525730D01*
X142484796Y-87544081D01*
X142484800Y-87544081D01*
X142484804Y-87544081D01*
X142671125Y-87525730D01*
X142671126Y-87525729D01*
X142671131Y-87525729D01*
X142850301Y-87471378D01*
X142883633Y-87453561D01*
X142943863Y-87442805D01*
X142998915Y-87469507D01*
X143027758Y-87523467D01*
X143029300Y-87540872D01*
X143029300Y-87731256D01*
X143032153Y-87761676D01*
X143032155Y-87761685D01*
X143077007Y-87889865D01*
X143157645Y-87999126D01*
X143157647Y-87999128D01*
X143157650Y-87999132D01*
X143157653Y-87999134D01*
X143157655Y-87999136D01*
X143266916Y-88079774D01*
X143266917Y-88079774D01*
X143266918Y-88079775D01*
X143313435Y-88096052D01*
X143337998Y-88104647D01*
X143386678Y-88141712D01*
X143404300Y-88198091D01*
X143404300Y-88401218D01*
X143385393Y-88459409D01*
X143365569Y-88479759D01*
X143362181Y-88482358D01*
X143273939Y-88597356D01*
X143273937Y-88597360D01*
X143218470Y-88731272D01*
X143218469Y-88731273D01*
X143199550Y-88874981D01*
X143199550Y-88874982D01*
X143218469Y-89018690D01*
X143218470Y-89018691D01*
X143261416Y-89122375D01*
X143273939Y-89152607D01*
X143362179Y-89267603D01*
X143477175Y-89355843D01*
X143611091Y-89411312D01*
X143754800Y-89430232D01*
X143898509Y-89411312D01*
X144032425Y-89355843D01*
X144147421Y-89267603D01*
X144235661Y-89152607D01*
X144291130Y-89018691D01*
X144310050Y-88874982D01*
X144291130Y-88731273D01*
X144235661Y-88597357D01*
X144147421Y-88482361D01*
X144147419Y-88482359D01*
X144147418Y-88482358D01*
X144144031Y-88479759D01*
X144109376Y-88429333D01*
X144105300Y-88401218D01*
X144105300Y-88198091D01*
X144124207Y-88139900D01*
X144171602Y-88104647D01*
X144183252Y-88100570D01*
X144242682Y-88079775D01*
X144351950Y-87999132D01*
X144432593Y-87889864D01*
X144477446Y-87761681D01*
X144480299Y-87731255D01*
X144480300Y-87731255D01*
X144480300Y-87222709D01*
X144480299Y-87222707D01*
X144477446Y-87192287D01*
X144477446Y-87192283D01*
X144432593Y-87064100D01*
X144413381Y-87038069D01*
X144351954Y-86954837D01*
X144351952Y-86954835D01*
X144351950Y-86954832D01*
X144351946Y-86954829D01*
X144351944Y-86954827D01*
X144242683Y-86874189D01*
X144114503Y-86829337D01*
X144114494Y-86829335D01*
X144084074Y-86826482D01*
X144084066Y-86826482D01*
X143525737Y-86826482D01*
X143467546Y-86807575D01*
X143431582Y-86758075D01*
X143427214Y-86717778D01*
X143439899Y-86588985D01*
X143439899Y-86588977D01*
X143439624Y-86586185D01*
X143439899Y-86584931D01*
X143439899Y-86584118D01*
X143440078Y-86584118D01*
X143452737Y-86526421D01*
X143498474Y-86485779D01*
X143538147Y-86477482D01*
X144084073Y-86477482D01*
X144084073Y-86477481D01*
X144114499Y-86474628D01*
X144242682Y-86429775D01*
X144351950Y-86349132D01*
X144432593Y-86239864D01*
X144477446Y-86111681D01*
X144480299Y-86081255D01*
X144480300Y-86081255D01*
X144480300Y-85572709D01*
X144480299Y-85572707D01*
X144477446Y-85542283D01*
X144432593Y-85414100D01*
X144396205Y-85364796D01*
X144351954Y-85304837D01*
X144351952Y-85304835D01*
X144351950Y-85304832D01*
X144351946Y-85304829D01*
X144351944Y-85304827D01*
X144278156Y-85250369D01*
X144242563Y-85200601D01*
X144243021Y-85139418D01*
X144256381Y-85113176D01*
X144257871Y-85111088D01*
X144257876Y-85111084D01*
X144314382Y-84995500D01*
X144325300Y-84920564D01*
X144325300Y-84577400D01*
X144314382Y-84502464D01*
X144257876Y-84386880D01*
X144179979Y-84308983D01*
X144152204Y-84254469D01*
X144161775Y-84194037D01*
X144179978Y-84168981D01*
X144257876Y-84091084D01*
X144314382Y-83975500D01*
X144325300Y-83900564D01*
X144325300Y-83557400D01*
X144314382Y-83482464D01*
X144308539Y-83470513D01*
X144299967Y-83409934D01*
X144327473Y-83357030D01*
X144684464Y-83000039D01*
X144738979Y-82972264D01*
X144767393Y-82971893D01*
X144771622Y-82972450D01*
X144771624Y-82972450D01*
X144915333Y-82953530D01*
X145049249Y-82898061D01*
X145164245Y-82809821D01*
X145252485Y-82694825D01*
X145307954Y-82560909D01*
X145326874Y-82417200D01*
X145323474Y-82391378D01*
X145307954Y-82273491D01*
X145252485Y-82139575D01*
X145164245Y-82024579D01*
X145049249Y-81936339D01*
X145049245Y-81936337D01*
X144915333Y-81880870D01*
X144915332Y-81880869D01*
X144771624Y-81861950D01*
X144627915Y-81880869D01*
X144627914Y-81880870D01*
X144494002Y-81936337D01*
X144493999Y-81936339D01*
X144450132Y-81969999D01*
X144392456Y-81990422D01*
X144333790Y-81973044D01*
X144300925Y-81934939D01*
X144257876Y-81846880D01*
X144179979Y-81768983D01*
X144152204Y-81714469D01*
X144161775Y-81654037D01*
X144179978Y-81628981D01*
X144257876Y-81551084D01*
X144314382Y-81435500D01*
X144325300Y-81360564D01*
X144325300Y-81017400D01*
X144314382Y-80942464D01*
X144257876Y-80826880D01*
X144166902Y-80735906D01*
X144051318Y-80679400D01*
X143976382Y-80668482D01*
X143533218Y-80668482D01*
X143458282Y-80679400D01*
X143342699Y-80735905D01*
X143342696Y-80735907D01*
X143270192Y-80808411D01*
X143215675Y-80836188D01*
X143155243Y-80826616D01*
X143137384Y-80814935D01*
X143052511Y-80745282D01*
X143015425Y-80714846D01*
X143015422Y-80714844D01*
X143015417Y-80714841D01*
X142850306Y-80626588D01*
X142850304Y-80626587D01*
X142818502Y-80616940D01*
X142760716Y-80599410D01*
X142671128Y-80572234D01*
X142671125Y-80572233D01*
X142484804Y-80553883D01*
X142484796Y-80553883D01*
X142298474Y-80572233D01*
X142298471Y-80572234D01*
X142119295Y-80626587D01*
X142119293Y-80626588D01*
X141954182Y-80714841D01*
X141954176Y-80714845D01*
X141809447Y-80833620D01*
X141809438Y-80833629D01*
X141690663Y-80978358D01*
X141690659Y-80978364D01*
X141602406Y-81143475D01*
X141602405Y-81143477D01*
X141548052Y-81322653D01*
X141548051Y-81322655D01*
X141531823Y-81487433D01*
X141523058Y-81507471D01*
X141342374Y-81507471D01*
X141334300Y-81477729D01*
X141334300Y-79000234D01*
X141343544Y-78971782D01*
X141342374Y-78967471D01*
X141523058Y-78967471D01*
X141531823Y-78990531D01*
X141548051Y-79155307D01*
X141548052Y-79155310D01*
X141602405Y-79334486D01*
X141602406Y-79334488D01*
X141690659Y-79499599D01*
X141690662Y-79499604D01*
X141690664Y-79499607D01*
X141740195Y-79559960D01*
X141809438Y-79644334D01*
X141809447Y-79644343D01*
X141876945Y-79699737D01*
X141954175Y-79763118D01*
X142119299Y-79851378D01*
X142298469Y-79905729D01*
X142298471Y-79905729D01*
X142298474Y-79905730D01*
X142484796Y-79924081D01*
X142484800Y-79924081D01*
X142484804Y-79924081D01*
X142671125Y-79905730D01*
X142671126Y-79905729D01*
X142671131Y-79905729D01*
X142850301Y-79851378D01*
X143015425Y-79763118D01*
X143160157Y-79644339D01*
X143278936Y-79499607D01*
X143367196Y-79334483D01*
X143421547Y-79155313D01*
X143432088Y-79048296D01*
X143439899Y-78968986D01*
X143439899Y-78968977D01*
X143421548Y-78782656D01*
X143421547Y-78782653D01*
X143421547Y-78782651D01*
X143367196Y-78603481D01*
X143366585Y-78602338D01*
X143278940Y-78438364D01*
X143278938Y-78438362D01*
X143278936Y-78438357D01*
X143176127Y-78313084D01*
X143160161Y-78293629D01*
X143160152Y-78293620D01*
X143075778Y-78224377D01*
X143015425Y-78174846D01*
X143015422Y-78174844D01*
X143015417Y-78174841D01*
X142850306Y-78086588D01*
X142850304Y-78086587D01*
X142671128Y-78032234D01*
X142671125Y-78032233D01*
X142484804Y-78013883D01*
X142484796Y-78013883D01*
X142298474Y-78032233D01*
X142298471Y-78032234D01*
X142119295Y-78086587D01*
X142119293Y-78086588D01*
X141954182Y-78174841D01*
X141954176Y-78174845D01*
X141809447Y-78293620D01*
X141809438Y-78293629D01*
X141690663Y-78438358D01*
X141690659Y-78438364D01*
X141602406Y-78603475D01*
X141602405Y-78603477D01*
X141548052Y-78782653D01*
X141548051Y-78782655D01*
X141531823Y-78947433D01*
X141523058Y-78967471D01*
X141342374Y-78967471D01*
X141334300Y-78937729D01*
X141334300Y-76460234D01*
X141343544Y-76431782D01*
X141342374Y-76427471D01*
X141523058Y-76427471D01*
X141531823Y-76450531D01*
X141548051Y-76615307D01*
X141548052Y-76615310D01*
X141602405Y-76794486D01*
X141602406Y-76794488D01*
X141690659Y-76959599D01*
X141690662Y-76959604D01*
X141690664Y-76959607D01*
X141740195Y-77019960D01*
X141809438Y-77104334D01*
X141809447Y-77104343D01*
X141876945Y-77159737D01*
X141954175Y-77223118D01*
X141954180Y-77223120D01*
X141954182Y-77223122D01*
X142086317Y-77293749D01*
X142119299Y-77311378D01*
X142298469Y-77365729D01*
X142298471Y-77365729D01*
X142298474Y-77365730D01*
X142484796Y-77384081D01*
X142484800Y-77384081D01*
X142484804Y-77384081D01*
X142671125Y-77365730D01*
X142671126Y-77365729D01*
X142671131Y-77365729D01*
X142850301Y-77311378D01*
X143015425Y-77223118D01*
X143160157Y-77104339D01*
X143278936Y-76959607D01*
X143367196Y-76794483D01*
X143421547Y-76615313D01*
X143425372Y-76576483D01*
X143439899Y-76428986D01*
X143439899Y-76428977D01*
X143421548Y-76242656D01*
X143421547Y-76242653D01*
X143421547Y-76242651D01*
X143367196Y-76063481D01*
X143354727Y-76040153D01*
X143354726Y-76040152D01*
X146070367Y-76040152D01*
X146070367Y-76040153D01*
X146089286Y-76183861D01*
X146089287Y-76183862D01*
X146144756Y-76317778D01*
X146232996Y-76432774D01*
X146347992Y-76521014D01*
X146481908Y-76576483D01*
X146625617Y-76595403D01*
X146769326Y-76576483D01*
X146892230Y-76525574D01*
X146953227Y-76520774D01*
X146967997Y-76525574D01*
X147090904Y-76576483D01*
X147234613Y-76595403D01*
X147378322Y-76576483D01*
X147512238Y-76521014D01*
X147607948Y-76447572D01*
X147665622Y-76427148D01*
X147672607Y-76429217D01*
X147671474Y-76385920D01*
X147687854Y-76353772D01*
X147715474Y-76317778D01*
X147770943Y-76183862D01*
X147789863Y-76040153D01*
X147770943Y-75896444D01*
X147715474Y-75762528D01*
X147627234Y-75647532D01*
X147512238Y-75559292D01*
X147512234Y-75559290D01*
X147378322Y-75503823D01*
X147378321Y-75503822D01*
X147234613Y-75484903D01*
X147090907Y-75503822D01*
X147090904Y-75503822D01*
X147090904Y-75503823D01*
X146967999Y-75554731D01*
X146907003Y-75559530D01*
X146892232Y-75554731D01*
X146769326Y-75503823D01*
X146769323Y-75503822D01*
X146769322Y-75503822D01*
X146625617Y-75484903D01*
X146481908Y-75503822D01*
X146481907Y-75503823D01*
X146347995Y-75559290D01*
X146347991Y-75559292D01*
X146232998Y-75647530D01*
X146232994Y-75647534D01*
X146144756Y-75762527D01*
X146144754Y-75762531D01*
X146089287Y-75896443D01*
X146089286Y-75896444D01*
X146070367Y-76040152D01*
X143354726Y-76040152D01*
X143278940Y-75898364D01*
X143278938Y-75898362D01*
X143278936Y-75898357D01*
X143215555Y-75821127D01*
X143160161Y-75753629D01*
X143160152Y-75753620D01*
X143030885Y-75647534D01*
X143015425Y-75634846D01*
X143015422Y-75634844D01*
X143015417Y-75634841D01*
X142850306Y-75546588D01*
X142850304Y-75546587D01*
X142671128Y-75492234D01*
X142671125Y-75492233D01*
X142484804Y-75473883D01*
X142484796Y-75473883D01*
X142298474Y-75492233D01*
X142298471Y-75492234D01*
X142119295Y-75546587D01*
X142119293Y-75546588D01*
X141954182Y-75634841D01*
X141954176Y-75634845D01*
X141809447Y-75753620D01*
X141809438Y-75753629D01*
X141690663Y-75898358D01*
X141690659Y-75898364D01*
X141602406Y-76063475D01*
X141602405Y-76063477D01*
X141548052Y-76242653D01*
X141548051Y-76242655D01*
X141531823Y-76407433D01*
X141523058Y-76427471D01*
X141342374Y-76427471D01*
X141334300Y-76397729D01*
X141334300Y-73920234D01*
X141343544Y-73891782D01*
X141342374Y-73887471D01*
X141523058Y-73887471D01*
X141531823Y-73910531D01*
X141548051Y-74075307D01*
X141548052Y-74075310D01*
X141602405Y-74254486D01*
X141602406Y-74254488D01*
X141690659Y-74419599D01*
X141690662Y-74419604D01*
X141690664Y-74419607D01*
X141720204Y-74455601D01*
X141809438Y-74564334D01*
X141809447Y-74564343D01*
X141876945Y-74619737D01*
X141954175Y-74683118D01*
X141954180Y-74683120D01*
X141954182Y-74683122D01*
X142008011Y-74711894D01*
X142119299Y-74771378D01*
X142298469Y-74825729D01*
X142298471Y-74825729D01*
X142298474Y-74825730D01*
X142484796Y-74844081D01*
X142484800Y-74844081D01*
X142484804Y-74844081D01*
X142671125Y-74825730D01*
X142671126Y-74825729D01*
X142671131Y-74825729D01*
X142850301Y-74771378D01*
X143015425Y-74683118D01*
X143160157Y-74564339D01*
X143278936Y-74419607D01*
X143367196Y-74254483D01*
X143421547Y-74075313D01*
X143423489Y-74055599D01*
X147415950Y-74055599D01*
X147415950Y-74055600D01*
X147434869Y-74199308D01*
X147434870Y-74199309D01*
X147457725Y-74254488D01*
X147490339Y-74333225D01*
X147490340Y-74333226D01*
X147490342Y-74333229D01*
X147537996Y-74395334D01*
X147558420Y-74453010D01*
X147541042Y-74511675D01*
X147537997Y-74515868D01*
X147490339Y-74577978D01*
X147490337Y-74577981D01*
X147434870Y-74711893D01*
X147434869Y-74711894D01*
X147415950Y-74855602D01*
X147415950Y-74855603D01*
X147434869Y-74999311D01*
X147434870Y-74999312D01*
X147490339Y-75133228D01*
X147578579Y-75248224D01*
X147693575Y-75336464D01*
X147827491Y-75391933D01*
X147971200Y-75410853D01*
X148114909Y-75391933D01*
X148248825Y-75336464D01*
X148363821Y-75248224D01*
X148452061Y-75133228D01*
X148507530Y-74999312D01*
X148526450Y-74855603D01*
X148507530Y-74711894D01*
X148452061Y-74577978D01*
X148452058Y-74577974D01*
X148452057Y-74577972D01*
X148404403Y-74515869D01*
X148383978Y-74458193D01*
X148401355Y-74399527D01*
X148404378Y-74395365D01*
X148452061Y-74333225D01*
X148507530Y-74199309D01*
X148526450Y-74055600D01*
X148507530Y-73911891D01*
X148452061Y-73777975D01*
X148363821Y-73662979D01*
X148248825Y-73574739D01*
X148248821Y-73574737D01*
X148114909Y-73519270D01*
X148114908Y-73519269D01*
X147971200Y-73500350D01*
X147827491Y-73519269D01*
X147827490Y-73519270D01*
X147693578Y-73574737D01*
X147693574Y-73574739D01*
X147578581Y-73662977D01*
X147578577Y-73662981D01*
X147490339Y-73777974D01*
X147490337Y-73777978D01*
X147434870Y-73911890D01*
X147434869Y-73911891D01*
X147415950Y-74055599D01*
X143423489Y-74055599D01*
X143434713Y-73941643D01*
X143439899Y-73888986D01*
X143439899Y-73888977D01*
X143421548Y-73702656D01*
X143421547Y-73702653D01*
X143421547Y-73702651D01*
X143367196Y-73523481D01*
X143363327Y-73516242D01*
X143278940Y-73358364D01*
X143278938Y-73358362D01*
X143278936Y-73358357D01*
X143215555Y-73281127D01*
X143160161Y-73213629D01*
X143160152Y-73213620D01*
X143059285Y-73130841D01*
X143015425Y-73094846D01*
X143015422Y-73094844D01*
X143015417Y-73094841D01*
X142850306Y-73006588D01*
X142850304Y-73006587D01*
X142671128Y-72952234D01*
X142671125Y-72952233D01*
X142484804Y-72933883D01*
X142484796Y-72933883D01*
X142298474Y-72952233D01*
X142298471Y-72952234D01*
X142119295Y-73006587D01*
X142119293Y-73006588D01*
X141954182Y-73094841D01*
X141954176Y-73094845D01*
X141809447Y-73213620D01*
X141809438Y-73213629D01*
X141690663Y-73358358D01*
X141690659Y-73358364D01*
X141602406Y-73523475D01*
X141602405Y-73523477D01*
X141548052Y-73702653D01*
X141548051Y-73702655D01*
X141531823Y-73867433D01*
X141523058Y-73887471D01*
X141342374Y-73887471D01*
X141334300Y-73857729D01*
X141334300Y-70624309D01*
X141534300Y-70624309D01*
X141534300Y-72073654D01*
X141534301Y-72073666D01*
X141548833Y-72146718D01*
X141548835Y-72146724D01*
X141604197Y-72229581D01*
X141604199Y-72229583D01*
X141687060Y-72284948D01*
X141742608Y-72295997D01*
X141760115Y-72299480D01*
X141760120Y-72299480D01*
X141760126Y-72299482D01*
X141760127Y-72299482D01*
X143209473Y-72299482D01*
X143209474Y-72299482D01*
X143282540Y-72284948D01*
X143365401Y-72229583D01*
X143420766Y-72146722D01*
X143435300Y-72073656D01*
X143435300Y-70624308D01*
X143420766Y-70551242D01*
X143386762Y-70500350D01*
X143365402Y-70468382D01*
X143365399Y-70468379D01*
X143282542Y-70413017D01*
X143282540Y-70413016D01*
X143282537Y-70413015D01*
X143282536Y-70413015D01*
X143209484Y-70398483D01*
X143209474Y-70398482D01*
X141760126Y-70398482D01*
X141760125Y-70398482D01*
X141760115Y-70398483D01*
X141687063Y-70413015D01*
X141687057Y-70413017D01*
X141604200Y-70468379D01*
X141604197Y-70468382D01*
X141548835Y-70551239D01*
X141548833Y-70551245D01*
X141534301Y-70624297D01*
X141534300Y-70624309D01*
X141334300Y-70624309D01*
X141334300Y-68174504D01*
X141334301Y-68174501D01*
X141334300Y-68112926D01*
X141334677Y-68104299D01*
X141340064Y-68042721D01*
X141349094Y-67939510D01*
X141352086Y-67922535D01*
X141393783Y-67766921D01*
X141399676Y-67750729D01*
X141467761Y-67604727D01*
X141476386Y-67589791D01*
X141560314Y-67469934D01*
X141568781Y-67457842D01*
X141579864Y-67444633D01*
X141693782Y-67330723D01*
X141706981Y-67319648D01*
X141838945Y-67227253D01*
X141853883Y-67218630D01*
X141999875Y-67150560D01*
X142016083Y-67144661D01*
X142171687Y-67102977D01*
X142188662Y-67099984D01*
X142354472Y-67085488D01*
X142363070Y-67085113D01*
X142423659Y-67085118D01*
X142423664Y-67085116D01*
X142429991Y-67085117D01*
X142430070Y-67085113D01*
X144570018Y-67085113D01*
X144628209Y-67104020D01*
G37*
%TD.AperFunction*%
%TD*%
M02*
