%TF.GenerationSoftware,KiCad,Pcbnew,8.0.8*%
%TF.CreationDate,2025-03-31T15:02:32-07:00*%
%TF.ProjectId,stoplight,73746f70-6c69-4676-9874-2e6b69636164,0.1*%
%TF.SameCoordinates,Original*%
%TF.FileFunction,Soldermask,Bot*%
%TF.FilePolarity,Negative*%
%FSLAX46Y46*%
G04 Gerber Fmt 4.6, Leading zero omitted, Abs format (unit mm)*
G04 Created by KiCad (PCBNEW 8.0.8) date 2025-03-31 15:02:32*
%MOMM*%
%LPD*%
G01*
G04 APERTURE LIST*
G04 Aperture macros list*
%AMRoundRect*
0 Rectangle with rounded corners*
0 $1 Rounding radius*
0 $2 $3 $4 $5 $6 $7 $8 $9 X,Y pos of 4 corners*
0 Add a 4 corners polygon primitive as box body*
4,1,4,$2,$3,$4,$5,$6,$7,$8,$9,$2,$3,0*
0 Add four circle primitives for the rounded corners*
1,1,$1+$1,$2,$3*
1,1,$1+$1,$4,$5*
1,1,$1+$1,$6,$7*
1,1,$1+$1,$8,$9*
0 Add four rect primitives between the rounded corners*
20,1,$1+$1,$2,$3,$4,$5,0*
20,1,$1+$1,$4,$5,$6,$7,0*
20,1,$1+$1,$6,$7,$8,$9,0*
20,1,$1+$1,$8,$9,$2,$3,0*%
G04 Aperture macros list end*
%ADD10RoundRect,0.250000X0.600000X0.725000X-0.600000X0.725000X-0.600000X-0.725000X0.600000X-0.725000X0*%
%ADD11O,1.700000X1.950000*%
%ADD12R,1.400000X1.400000*%
%ADD13C,1.400000*%
%ADD14O,1.100000X1.700000*%
%ADD15RoundRect,0.250000X-0.250000X-0.475000X0.250000X-0.475000X0.250000X0.475000X-0.250000X0.475000X0*%
%ADD16RoundRect,0.140000X-0.140000X-0.170000X0.140000X-0.170000X0.140000X0.170000X-0.140000X0.170000X0*%
%ADD17R,1.130000X1.380000*%
%ADD18RoundRect,0.135000X-0.185000X0.135000X-0.185000X-0.135000X0.185000X-0.135000X0.185000X0.135000X0*%
%ADD19RoundRect,0.140000X0.170000X-0.140000X0.170000X0.140000X-0.170000X0.140000X-0.170000X-0.140000X0*%
%ADD20RoundRect,0.225000X0.225000X0.250000X-0.225000X0.250000X-0.225000X-0.250000X0.225000X-0.250000X0*%
%ADD21RoundRect,0.200000X0.275000X-0.200000X0.275000X0.200000X-0.275000X0.200000X-0.275000X-0.200000X0*%
%ADD22R,1.400000X0.410000*%
%ADD23RoundRect,0.135000X0.185000X-0.135000X0.185000X0.135000X-0.185000X0.135000X-0.185000X-0.135000X0*%
%ADD24O,0.900000X0.280000*%
%ADD25O,0.280000X0.900000*%
%ADD26R,3.500000X3.500000*%
%ADD27RoundRect,0.225000X0.250000X-0.225000X0.250000X0.225000X-0.250000X0.225000X-0.250000X-0.225000X0*%
%ADD28RoundRect,0.140000X0.140000X0.170000X-0.140000X0.170000X-0.140000X-0.170000X0.140000X-0.170000X0*%
G04 APERTURE END LIST*
D10*
%TO.C,J1*%
X154000000Y-94300000D03*
D11*
X151500000Y-94300000D03*
X149000000Y-94300000D03*
X146500000Y-94300000D03*
%TD*%
D12*
%TO.C,H1*%
X142484800Y-71348982D03*
D13*
X142484800Y-73888982D03*
X142484800Y-76428982D03*
X142484800Y-78968982D03*
X142484800Y-81508982D03*
X142484800Y-84048982D03*
X142484800Y-86588982D03*
%TD*%
D12*
%TO.C,H2*%
X157724800Y-71348982D03*
D13*
X157724800Y-73888982D03*
X157724800Y-76428982D03*
X157724800Y-78968982D03*
X157724800Y-81508982D03*
X157724800Y-84048982D03*
X157724800Y-86588982D03*
%TD*%
D14*
%TO.C,USB1*%
X154240000Y-71810000D03*
X154240000Y-68000000D03*
X145600000Y-71810000D03*
X145600000Y-68000000D03*
%TD*%
D15*
%TO.C,C18*%
X155250000Y-92200000D03*
X157150000Y-92200000D03*
%TD*%
D16*
%TO.C,C9*%
X145560800Y-88112982D03*
X146520800Y-88112982D03*
%TD*%
D17*
%TO.C,R7*%
X152025800Y-90514800D03*
X154025800Y-90514800D03*
%TD*%
D18*
%TO.C,R4*%
X151374800Y-79971800D03*
X151374800Y-80991800D03*
%TD*%
D16*
%TO.C,C11*%
X154196800Y-84302982D03*
X155156800Y-84302982D03*
%TD*%
D19*
%TO.C,C6*%
X146294800Y-85914800D03*
X146294800Y-84954800D03*
%TD*%
D20*
%TO.C,C8*%
X145175000Y-92400000D03*
X143625000Y-92400000D03*
%TD*%
D18*
%TO.C,R10*%
X156200800Y-77950982D03*
X156200800Y-78970982D03*
%TD*%
%TO.C,R5*%
X154168800Y-79982982D03*
X154168800Y-81002982D03*
%TD*%
%TO.C,R9*%
X143754800Y-83728982D03*
X143754800Y-84748982D03*
%TD*%
D21*
%TO.C,R11*%
X143754800Y-87476982D03*
X143754800Y-85826982D03*
%TD*%
D22*
%TO.C,U4*%
X152150800Y-69214800D03*
X152150800Y-69864800D03*
X152150800Y-70524800D03*
X152150800Y-71174800D03*
X147550800Y-71174800D03*
X147550800Y-70524800D03*
X147550800Y-69864800D03*
X147550800Y-69214800D03*
%TD*%
D17*
%TO.C,R6*%
X148437800Y-90514800D03*
X146437800Y-90514800D03*
%TD*%
D19*
%TO.C,C7*%
X146294800Y-84084800D03*
X146294800Y-83124800D03*
%TD*%
D23*
%TO.C,R8*%
X143754800Y-82208982D03*
X143754800Y-81188982D03*
%TD*%
D24*
%TO.C,U3*%
X147731800Y-87188800D03*
X147731800Y-86688800D03*
X147731800Y-86188800D03*
X147731800Y-85688800D03*
X147731800Y-85188800D03*
X147731800Y-84688800D03*
X147731800Y-84188800D03*
D25*
X148731800Y-83188800D03*
X149231800Y-83188800D03*
X149731800Y-83188800D03*
X150231800Y-83188800D03*
X150731800Y-83188800D03*
X151231800Y-83188800D03*
X151731800Y-83188800D03*
D24*
X152731800Y-84188800D03*
X152731800Y-84688800D03*
X152731800Y-85188800D03*
X152731800Y-85688800D03*
X152731800Y-86188800D03*
X152731800Y-86688800D03*
X152731800Y-87188800D03*
D25*
X151731800Y-88188800D03*
X151231800Y-88188800D03*
X150731800Y-88188800D03*
X150231800Y-88188800D03*
X149731800Y-88188800D03*
X149231800Y-88188800D03*
X148731800Y-88188800D03*
D26*
X150231800Y-85688800D03*
%TD*%
D27*
%TO.C,C5*%
X147564800Y-82537982D03*
X147564800Y-80987982D03*
%TD*%
D28*
%TO.C,C10*%
X155156800Y-88366982D03*
X154196800Y-88366982D03*
%TD*%
M02*
